<?xml version="1.0" encoding="UTF-8"?><svg id="_圖層_2" xmlns="http://www.w3.org/2000/svg" viewBox="0 0 280 280"><defs><style>.cls-1{fill:none;}.cls-2{fill:#fff;}.cls-3{fill:#122c53;}.cls-4{fill:#112c52;}.cls-5{fill:#132d55;}</style></defs><g id="_圖層_1-2"><g><rect class="cls-1" width="280" height="280"/><g><g><g><g><rect class="cls-2" x="9.23" y="8.3" width="65.44" height="136.48"/><path class="cls-3" d="M72.17,10.8V142.28H11.73V10.8h60.44m5-5H6.73V147.28H77.17V5.8h0Z"/></g><g><path class="cls-4" d="M34.75,43.71c.77-1.05,1.12-1.51,2.25-1.51,.62,0,2.17,.27,2.17,1.51,0,2.48-8.71,9.41-15.03,9.41-.27,0-1.08-.04-1.08-.27,0-.16,.08-.19,.43-.43,4.18-1.74,9.06-5.69,11.27-8.71Zm.97,9.1c-.27,0-1.28,.54-1.51,.62-.08,.04-.39,.15-.77,.15-.7,0-1.16-.39-1.16-1.08,0-.74,.7-1.63,1.78-1.63,.19,0,1.16,.08,1.36,.08h9.72c.31-.35,.93-1.08,2.09-1.08,1.28,0,2.52,.97,2.52,2.09s-4.49,3.56-6.23,4.38c.08,.19,.39,1.36,.43,1.55h9.45c.62-1.36,1.67-1.86,2.36-1.86,1.32,0,3.18,1.32,3.18,2.63,0,.85-1.09,1.24-2.21,1.24h-12.28c.12,.77,.27,2.36,.27,3.41,0,3.83-2.13,5.73-4.92,5.73-3.06,0-5.46-2.94-5.46-3.21,0-.23,.27-.23,.39-.23,.39,0,2.79,.43,3.33,.43,2.4,0,2.4-3.14,2.4-4.03,0-.08-.08-1.9-.08-2.09-1.94,.04-11.31,0-12.16,.19-.23,.08-1.24,.39-1.43,.43-.23,.08-.5,.12-.77,.12-1.28,0-1.28-.85-1.28-1.12,0-1.05,1.2-1.94,2.13-1.94,.12,0,.77,.15,.89,.19,.27,.04,.39,.08,1.12,.08,1.78,0,9.56,.04,11.15,.04-.08-.54-.5-1.86-.89-2.44-.81-.31-.97-.39-.97-.74,0-.77,1.86-1.01,2.21-1.01,.77,0,1.74,.62,1.97,1.08,.43-.7,.62-.97,1.32-2.13l-7.94,.16Zm3.72-10.53v-1.05l-9.26,.04c-.23,0-1.08,.39-1.28,.43-.27,.08-.46,.12-.74,.12-.39,0-1.51-.12-1.51-1.05,0-.77,.85-1.78,1.82-1.78,.31,0,1.62,.23,1.9,.23l8.98,.04c0-.46-.04-2.79-.39-3.1-.54-.39-.58-.43-.58-.7,0-1.05,2.67-2.29,3.83-2.29,.43,0,1.59,.16,1.59,1.28,0,.12-.04,.39-.16,.66-.12,.46-.31,1.7-.31,4.11h7.9c.54-1.12,1.51-1.7,2.28-1.7,1.12,0,3.06,1.28,3.06,2.56,0,1.2-1.97,1.2-2.71,1.2-1.12,0-8.09-.04-9.6-.04,1.7,2.67,4.88,4.57,9.18,6.12,1.55,.54,2.52,.74,6.78,1.55,.04,0,.31,.08,.35,.12,.08,.04,.12,.08,.12,.15,0,.12-.35,.43-.66,.74-1.32,1.05-3.37,2.56-4.53,2.56-2.36,0-9.8-4.07-12.16-9.6,0,.81,.27,4.34,.27,5.04,0,.77,0,1.04-.66,1.55-.62,.46-1.51,.77-2.21,.77-.81,0-1.55-.39-1.55-1.28,0-.7,.19-3.83,.19-4.49l.04-2.17Z"/><path class="cls-4" d="M33.9,109.53c0,.5,.08,3.1,.08,3.68,0,1.28-.04,2.05-1.16,2.9-.66,.5-1.43,.77-2.17,.77-.97,0-1.74-.46-1.74-1.51,0-.46,.19-2.83,.23-3.37,.27-6.43,.58-12.93,.66-18.24-1.08,.62-3.64,2.01-5.89,2.01-.39,0-.62,0-.62-.19,0-.16,1.66-1.28,1.97-1.51,1.59-1.24,5.42-4.49,7.9-8.17,.27-.89,.54-1.9,2.4-1.9,1.36,0,2.75,.77,2.75,1.98s-3.95,4.76-4.45,5.15c-.04,2.63,.04,15.49,.04,18.4Zm17.93-18.43c.78-1.08,1.55-1.12,1.78-1.12,1.12,0,2.9,1.05,2.9,2.21,0,.15-.08,.39-.15,.46-.35,.97-.35,1.39-.35,2.48,0,2.44,.43,14.41,.43,17.12,0,.62,0,.97-.81,1.39-.27,.16-1.36,.7-2.4,.7-1.51,0-1.67-.7-1.67-1.24v-.74h-8.79v.77c0,1.04-2.21,1.63-2.87,1.63-1.47,0-1.47-1.01-1.47-1.78,0-.12,.23-10.53,.23-12.51v-5.23c0-.46,0-1.08-.12-1.55,0-.08-.15-.39-.15-.43,0-.08-.27-.54-.27-.66,0-.93,2.17-2.4,3.25-2.4,.66,0,1.24,.23,1.39,.89h1.36c.08-.31,1.32-6.08,1.36-6.23,.23-.7,.89-1.43,2.21-1.43,1.63,0,2.87,1.2,2.87,2.21,0,1.36-1.47,3.02-3.64,5.46h4.92Zm-.19,9.33v-7.47h-8.52c-.27,0-.43,.39-.43,.62v6.86h8.95Zm0,2.01h-8.95l.04,7.9h8.87l.04-7.9Z"/></g><path class="cls-3" d="M67.06,15.68v121.73H16.84V15.68h50.22m2-2H14.84v125.73h54.22V13.68h0Z"/></g><g><path class="cls-1" d="M177.56,147.98c-5.08,3.32-10.37,6.26-16,8.52-3.97,1.61-8.05,2.85-12.27,3.64-4.72,.87-9.39,1.99-14.13,2.56-7.05,.82-14.14,.91-21.22,.26-4.44-.41-8.74-1.29-12.68-3.52-.79-.44-1.63-.81-2.5-1.04-1.17-.34-1.83,.12-1.92,1.34-.15,1.8-.15,3.61-.3,5.4-.09,1.08,.37,1.78,1.16,2.39,1.83,1.39,3.85,2.34,6.12,2.79,5.33,1.02,10.73,1.49,16.15,1.77,9.57,.49,18.98-.56,28.33-2.77,9.19-2.16,17.9-5.43,26.05-10.21,1.51-.88,3.08-1.64,4.75-2.53,.21-1.78-.43-7.41-1.1-8.86-.2,.12-.32,.18-.44,.26Z"/><path class="cls-1" d="M104.39,157.98c.08,.03,.17,.06,.26,.09,4.48,1.63,9.16,2.1,13.85,2.24,6.7,.23,13.41,.2,20.02-1.02,8.31-1.52,16.7-2.86,24.4-6.68,2.04-1,4.05-2.07,5.91-3.01-.14-.91-.27-1.61-.32-2.31-.11-2.19,.23-4.32,.97-6.39,.17-.49,.23-1.19,0-1.58-.7-1.19-1.49-2.34-2.39-3.39-2.76-3.21-6.36-5.3-10.02-7.32-2.47-1.37-5.21-1.74-8.02-2.45,.14,.26,.18,.37,.26,.44,2.24,2.5,3.79,5.42,5.43,8.31,.53,.94,.35,1.87-.41,2.3-.75,.41-1.57,.12-2.12-.81-.69-1.13-1.32-2.3-1.99-3.44-1.57-2.63-3.39-5.04-5.86-6.93-1.6-1.23-3.41-1.2-5.33-1.2,.08,.18,.09,.27,.14,.35,3,4.51,4.69,9.54,5.97,14.75,.33,1.37-.02,2.24-.96,2.45-.94,.23-1.49-.4-1.93-1.77-1.02-3.21-1.98-6.45-3.26-9.56-.79-1.92-2.12-3.62-3.27-5.39-.37-.56-1.07-.99-1.7-.52-.55,.41-1.07,.96-.99,1.84,.24,2.76,.43,5.53,.59,8.3,.06,.99-.53,1.64-1.39,1.67-.82,.03-1.45-.58-1.54-1.55-.08-.96-.12-1.93-.2-2.89-.17-2.21-.35-4.43-.53-6.65-.81-.02-1.32,.18-1.48,.97-.12,.58-.41,1.14-.47,1.74-.38,3.23-.72,6.45-1.04,9.7-.12,1.08-.59,1.72-1.46,1.74-.88,0-1.48-.69-1.49-1.78,0-.55,.02-1.1,.06-1.63,.27-2.91,.55-5.8,.82-8.71-1.1,.29-1.86,1.19-2.36,2.18-1.17,2.31-2.33,4.64-3.2,7.06-1.26,3.5-1.64,7.2-1.98,10.9-.11,1.14-.75,1.75-1.63,1.63-.84-.11-1.35-.84-1.28-1.87,.35-5.02,1.2-9.92,3.11-14.61,.06-.14,.08-.29,.12-.58-.23,.18-.37,.26-.47,.37-6.9,6.39-11.92,13.91-13.84,23.27-.29,1.35-.47,1.17,1,1.77Z"/><path class="cls-1" d="M182.65,147.45c-.49,.15-1.34-.03-1.2,.96,.15,1.14,.26,2.27,.37,3.41,.09,1.17,.15,2.36,.24,3.55,.11,0,.23,.02,.35,.02,.26-2.39,.55-4.78,.78-7.18,.05-.33,.09-.93-.53-.75Z"/><path class="cls-1" d="M197.49,212.7c-1.25-6.32-2.25-12.68-3.58-18.98-1.83-8.72-3.82-17.4-5.77-26.11-.88-3.96-1.83-7.9-2.76-11.86-.06,.02-.14,.02-.2,.03-.06,.29-.15,.58-.15,.88-.02,1.08-.03,2.16,.03,3.24,.47,9.15,.91,18.3,1.43,27.45,.46,8.24,.9,16.49,1.48,24.71,.3,4.48,.87,8.94,1.34,13.4,.03,.32,.14,.69,.33,.9,2.6,2.97,5.25,5.89,7.89,8.83,.3,.35,.65,.64,1.16,1.11,.53-2.83,1.08-5.42,1.46-8.04,.18-1.19,.21-2.48-.03-3.65-.79-3.99-1.84-7.92-2.63-11.9Z"/><path class="cls-5" d="M154.58,264.17c-2.77,.44-5.48,.98-8.21,1.08-2.7,.12-5.43-.19-8.18-.41,5.58,.95,11.02,.69,16.39-.68Z"/><path class="cls-5" d="M154.86,268.71c.83-.79,1.28-1.75,1.08-3.06,.06,1.27-.28,2.24-1.08,3.06Z"/><path class="cls-5" d="M137.39,267.29c.01,.36,.07,.68,.17,.95-.07-.22-.13-.46-.14-.73,0-.07-.02-.15-.02-.22Z"/><path class="cls-5" d="M136.95,264.75c.06,.29,.13,.58,.2,.87-.05-.27-.09-.56-.14-.86-.02,0-.04,0-.05,0Z"/><path class="cls-5" d="M155.83,263.97s-.09,.02-.14,.02c.07,.29,.12,.56,.16,.82,0-.28,0-.56-.02-.84Z"/><path class="cls-5" d="M162.56,198.83c.71,.29,1.31,.06,1.74-.55,.19-.26,.31-.59,.4-.9,.72-2.46-.12-5.14-2.34-6.73-2.93-2.09-6.23-3.02-9.83-2.36-4.2,.78-5.95,2.94-5.92,7.19-.16,.03-.28,.06-.39,.07-4.09,.28-8.17,.54-12.26,.84-.62,.05-.83-.24-1.06-.71-3-6.21-10.66-6.8-15.69-3.32-.91,.63-1.6,1.48-1.74,2.64-.11,.9,.32,1.6,1.06,1.76,.84,.17,1.31-.26,1.73-.97,.34-.57,.82-1.15,1.38-1.46,2.15-1.16,4.42-1.47,6.81-.75,2.37,.72,4.67,3.74,4.62,6.23,0,.3-.06,.6-.14,.89-.89,3.06-4.69,4.28-7.35,2.34-.27-.19-.51-.43-.77-.62-.75-.55-1.51-.53-2.05,.03-.55,.57-.56,1.47,.09,2.11,2.14,2.11,4.7,2.94,7.62,2.09,2.95-.86,4.87-2.79,5.49-5.88,.09-.46,.1-.94,.15-1.53,2.4-.16,4.74-.33,7.09-.46,1.89-.11,3.8-.09,5.68-.27,.71-.07,1.13,0,1.59,.59,2.09,2.67,4.91,3.66,8.22,3.45,.35-.02,.72-.11,1.04-.27,.6-.28,.92-.79,.82-1.47-.11-.71-.57-1.13-1.28-1.19-.54-.04-1.08,0-1.63,0-2.19,0-4-.91-5.12-2.72-1.92-3.09-1.08-4.36,1.59-5.41,2.18-.85,4.27-.37,6.34,.37,2.95,1.06,3.68,2.31,3.24,5.36-.11,.74,.16,1.32,.87,1.61Z"/><path class="cls-5" d="M109.75,198.35c-.39-.65-.99-.85-1.71-.58-.73,.28-1.02,.85-.84,1.59,.13,.55,.34,1.09,.59,1.59,1.9,3.82,3.82,7.63,5.75,11.44,1.32,2.6,2.65,5.19,4.02,7.76,.48,.89,1.38,1.12,2.16,.68,.77-.44,.97-1.29,.48-2.2-.27-.5-.61-.96-.92-1.44,2.37,1.5,4.61,3.13,6.35,5.4,2.9,3.77,5.91,7.46,8.89,11.17,.75,.93,1.55,1.08,2.26,.53,.73-.56,.78-1.46,.12-2.42-.19-.27-.4-.53-.61-.79-1.85-2.3-3.71-4.59-5.56-6.89-.19-.23-.36-.48-.66-.88,1.06,.3,1.89,.55,2.73,.75,.77,.19,1.39-.05,1.67-.83,.27-.74,.12-1.39-.63-1.76-.86-.43-1.73-.85-2.62-1.18-3.93-1.46-7.52-3.43-10.61-6.33-3.65-3.43-6.44-7.44-8.72-11.86-.66-1.28-1.4-2.52-2.15-3.76Z"/><path class="cls-5" d="M102.42,188.84c-.3-1.13-1.07-1.6-1.89-1.34-.85,.27-1.14,1.04-.83,2.17,.15,.55,.33,1.09,.44,1.65,1.33,6.68,2.65,13.35,3.97,20.03,.2,1,.39,2,.7,2.97,.24,.77,1.14,1.24,1.79,1.05,.71-.2,1.01-.71,.96-1.44-.02-.21-.01-.42-.05-.63-1.25-6.29-2.49-12.58-3.77-18.86-.38-1.88-.83-3.75-1.33-5.6Z"/><path class="cls-5" d="M154.57,207.16c-.92-.36-1.82-.76-2.74-1.12-.5-.2-1.01-.36-1.28-.45-1.01,.01-1.55,.34-1.73,1.08-.18,.74,.15,1.31,.81,1.63,1.02,.5,2.07,.95,3.12,1.39,.38,.16,.8,.26,1.22,.3,.91,.09,1.56-.36,1.71-1.1,.15-.75-.28-1.4-1.11-1.73Z"/><path class="cls-5" d="M134.17,207.37c-.81,.48-1.5,1.19-2.21,1.83-.76,.69-.88,1.5-.36,2.15,.53,.67,1.43,.74,2.25,.09,.78-.61,1.52-1.27,2.23-1.96,.26-.25,.37-.65,.62-1.11-.29-.39-.5-.96-.85-1.07-.51-.16-1.24-.19-1.67,.07Z"/><path class="cls-5" d="M136.99,264.64s.01,.07,.02,.11c.4,.03,.79,.06,1.19,.09-.4-.07-.8-.12-1.21-.21Z"/><path class="cls-5" d="M137.15,265.61c.1,.6,.19,1.14,.24,1.68,0-.08-.01-.15-.01-.23,0-.48-.11-.96-.23-1.45Z"/><path class="cls-5" d="M148.34,271.08c-2.91,.2-5.75-.06-8.54-1-1.1-.38-1.9-.9-2.24-1.83,.26,.84,.86,1.39,1.77,1.72,2.67,.97,5.42,1.39,8.25,1.23,1.89-.11,3.78-.31,5.51-1.21,.75-.39,1.33-.81,1.78-1.27-.26,.25-.56,.48-.89,.7-1.7,1.16-3.64,1.55-5.63,1.67Z"/><path class="cls-5" d="M155.93,265.65c-.01-.27-.04-.54-.08-.84,0,.23,.02,.46,.07,.68,.01,.05,0,.1,.02,.15Z"/><path class="cls-5" d="M155.67,263.89c-.36,.1-.72,.18-1.09,.27,.37-.06,.73-.12,1.11-.17,0-.04-.01-.07-.02-.1Z"/><path class="cls-5" d="M226.06,217.71c-.47-4.02-3.66-7.66-6.59-10.23-6.54-5.74-14.87-8.68-22.14-13.3-.09-.06-.19-.1-.28-.14l-.82-3.6c-2.88-12.8-5.77-25.6-8.71-38.41-.44-1.92-.93-3.87-1.66-5.69-.69-1.69-1.83-2.1-3.68-1.86-.75,.11-1.58,.81-2.16-.3-.05-.06-.23-.05-.35-.08-1.07-.4-1.98,.02-2.86,.67-1.55-2.22-3.12-4.32-4.54-6.52-1.89-2.94-3.91-5.72-6.8-7.76-3.65-2.56-7.32-5.08-11.75-6.2-5.89-1.49-11.8-2.65-17.93-2.24-.94,.06-1.89,.14-2.83,.21-.14-1.75,.24-2.31,1.78-2.76,.87-.26,1.74-.49,2.59-.81,3.09-1.2,4.49-3.55,4.11-6.82-.12-1.14-.79-1.83-1.67-1.72-.87,.09-1.34,.82-1.25,1.96,.15,2.19-.5,3.21-2.6,3.94-.85,.29-1.72,.52-2.59,.78-1.7,.52-2.8,1.64-3.17,3.38-.17,.82-.2,1.66-.3,2.59-.9,.21-1.93,.29-2.8,.72-2.27,1.11-4.52,2.27-6.67,3.59-7.88,4.86-13.2,11.93-17.19,20.14-.14,.27-.23,.58-.41,.79-1.8,2.09-3.06,4.48-4.28,6.91-.11,.21-.4,.44-.64,.47-2.39,.35-3.61,1.46-3.9,3.9-.21,1.9-.18,3.85-.37,5.77-.2,2.18,.81,3.7,2.48,4.89,.56,.4,.7,.87,.79,1.51,.32,2.19,.64,4.4,1.11,6.58,.07,.34,.18,.67,.28,1-3.98,1.65-8.02,3.52-10.8,6.92-1.71,2.09-2.74,4.59-3.17,7.21-1.87,1.12-3.84,2.12-5.62,3.38-1.9,1.34-3.72,2.79-5.62,4.13-2.33,1.65-4.81,3.06-7.18,4.64-3.69,2.46-8.97,5.57-10.01,10.22-1.17,5.25,.54,11.04,1.99,16.06,.54,1.88,3.48,1.08,2.94-.81-.73-2.5-1.43-5.02-1.85-7.6-.39-2.39-.77-5.32,.07-7.66,.73-2.03,3-3.61,4.61-4.92,2.07-1.67,4.38-3.12,6.65-4.5,3.61-2.2,6.84-4.86,10.33-7.22,1.11-.76,2.3-1.42,3.48-2.09,.04,.84,.12,1.69,.28,2.52,1.01,5.31,4.29,10.01,7.27,14.41,3.07,4.53,6.39,8.88,9.91,13.07-.15,.45-.29,.9-.41,1.35-.32,1.22-1.04,1.96-2.16,2.48-.51,.24-1.01,.49-1.52,.74-.03-.08-.03-.16-.08-.25-.97-1.76-1.81-3.74-3.01-5.35-1.04-1.39-2.51-1.74-4.14-1.94-3.37-.41-6.79-.23-10.12,.42-6.62,1.3-12.79,4.68-17.46,9.55-.05,0-.1-.02-.15-.02-2.62-.38-5-.1-7.55,.61-1.88,.53-1.08,3.46,.81,2.94,1.32-.37,2.61-.7,3.95-.74,.48-.01,.96,0,1.44,.06,.11,.01,.23,.03,.34,.04,.02,0,.03,0,.05,0,.25,.04,.5,.07,.75,.11,3.06,.46,6.3,.66,9.33-.08,1.9-.47,1.1-3.4-.81-2.94-1.33,.32-2.72,.38-4.1,.36,3.65-3.19,8-5.47,12.74-6.63,2.71-.67,5.49-.95,8.28-.84,1.33,.05,3.45-.09,4.32,1.09,1.08,1.46,1.83,3.3,2.71,4.9,.02,.03,.05,.05,.06,.08-.14,.08-.28,.15-.42,.22-1.02,.56-1.26,1.58-.61,2.33,.59,.68,1.34,.65,2.07,.3,1.98-.96,3.94-1.93,5.91-2.95,1.07-.55,1.74-1.42,2.01-2.62,.2-.85,.5-1.67,.76-2.51,.17-.5,.46-.72,1.02-.61,1.28,.23,2.56,.4,3.84,.64,3.27,.64,6.55,1.31,9.94,.87,.37-.05,.76,.15,1.14,.23-.3,.38-.62,.55-.94,.69-2.07,.9-4.16,1.75-6.18,2.74-.65,.32-1.26,.91-1.66,1.54-.43,.67-.23,1.49,.32,2.09,.55,.58,1.16,.27,1.75-.02,1.14-.56,2.3-1.11,3.59-1.74-.11,.44-.15,.7-.23,.94-.97,3.14-2.02,6.24-2.88,9.39-.56,2.04-1.4,3.68-3.56,4.34-.24,.08-.46,.27-.7,.41-1.58,.99-3.17,1.05-4.73-.02-1.08-.75-2.15-.72-3.21-.06-1.75,1.05-3.5,2.12-5.24,3.2-.33-1.39-.78-2.76-1.41-4.12-2.17-4.66-5.78-8.98-5.46-14.4,.11-1.96-2.93-1.95-3.04,0-.31,5.25,2.6,9.66,4.96,14.1,1.27,2.39,2.24,4.85,2.54,7.57,.3,2.66,.15,5.35,0,8.02-.1,1.96,2.94,1.95,3.04,0,.15-2.76,.2-5.45-.1-8.09,0,0,0,0,0,0,1.67-.94,3.35-1.92,4.99-2.91,.93-.55,1.83-.55,2.73,.02,.3,.18,.64,.34,.94,.53,1.02,.65,2.01,.62,3.07,.06,1.67-.87,3.36-1.74,5.08-2.53,1.2-.58,1.95-1.45,2.25-2.76,.15-.69,.37-1.35,.59-2.21,.17,.35,.27,.5,.32,.67,1.11,3.21,2.76,6.15,4.66,8.94,2.22,3.26,5.08,5.77,8.89,7.06,.65,.23,1.35,.41,1.92,.78,.47,.32,.97,.85,1.11,1.39,.32,1.26,.47,2.59,.62,3.91,.2,1.87,.99,3.3,2.82,4.05,.37,.15,.7,.34,1.07,.49,3.76,1.51,7.66,1.72,11.63,1.22,3.01-.4,5.65-1.6,7.73-3.88,.84-.91,1.28-1.95,1.25-3.18-.02-1.17,0-2.36-.11-3.53-.11-1.02,.23-1.61,1.17-2.06,1.99-.93,3.67-2.31,4.95-4.11,3.53-4.92,4.7-10.52,4.49-16.47-.03-1.23-.26-2.47-.15-3.68,.12-1.25-.14-2.28-1.08-3.07-3.14-2.59-6.82-3.73-10.82-3.93-.72-.03-1.13,.33-1.25,1.04-.12,.68,.08,1.19,.81,1.39,.38,.09,.76,.18,1.13,.32,2.4,.82,4.83,1.63,7.2,2.51,.93,.35,.97,.91,.18,1.45-.96,.64-1.93,1.37-3.03,1.74-2.6,.87-5.3,1.54-7.95,2.31-.72,.21-.99-.08-.96-.72,.05-1.2,.05-2.42,.26-3.59,.53-3,.62-5.94-.58-8.78-.53-1.28-1.14-2.53-1.74-3.76-1.31-2.71-.81-5.1,1.11-7.34,.53-.62,1-1.37,1.28-2.15,.53-1.48-.24-3.12-1.74-3.96-1.4-.78-3.15-.58-4.16,.5-.49,.53-.69,1.13-.33,1.81,.35,.67,.94,.78,1.61,.69,.61-.09,1.22-.18,1.9-.29-.4,1.66-1.54,2.3-2.88,2.72-1.92,.59-3.88,.41-5.81,.15-2.09-.27-3.9-.97-4.84-3.11-.15-.33-.84-.62-1.26-.61-1.08,.06-1.63,1.25-1.05,2.24,.44,.78,1.08,1.45,1.51,2.24,.24,.46,.46,1.1,.32,1.57-.87,3.23-.43,6.24,1.19,9.13,.61,1.08,1.31,2.12,1.78,3.24,.38,.88,.81,1.95,.62,2.83-.37,1.77-1.13,3.47-1.77,5.31-4.22-3.09-8.22-6.03-12.25-8.98,.14-.15,.24-.26,.35-.37,1.04-1,1.14-1.46,.67-2.6-.47-1.16-1.1-2.1-2.56-1.99-.75,.06-1.51,.08-2.25,.14-1.19,.11-2.25-.11-3.21-.88-2.3-1.84-4.64-3.65-6.97-5.46-.7-.56-1.39-1.17-2.16-1.64-1.1-.67-2.4,0-2.28,1.22,.05,.52,.46,1.11,.87,1.48,1.22,1.04,2.51,1.98,3.76,2.97,1.08,.85,2.13,1.7,3.21,2.57-.06,.09-.12,.18-.17,.27-.7-.3-1.45-.53-2.09-.93-2.22-1.43-4.43-2.91-6.64-4.37-.7-.47-1.4-.94-2.13-1.35-.76-.43-1.58-.23-2.01,.4-.49,.72-.38,1.49,.33,2.1,.27,.23,.59,.41,.88,.61,.75,.5,1.48,.99,2.44,1.63-1.04,0-1.81,.03-2.57-.02-.44-.02-.81,.08-1.12,.25-2.84-3.42-5.55-6.93-8.08-10.58-2.65-3.84-5.58-7.87-7.08-12.33-1.39-4.13-1.22-8.86,1.36-12.5,2.43-3.43,6.52-5.21,10.31-6.77,.38,.48,.8,.93,1.31,1.32,.06,.05,.08,.14,.12,.24,0,0,1.04,1.83,1.49,2.33,.21,.46,.33,.76,.47,1.05,.44,.91,1.2,1.28,1.98,.94,.7-.3,.96-1.1,.65-2.02-.14-.43-.3-.82-.46-1.23,.26-.17,.43-.3,.59-.41,2.3-1.61,3.53-3.73,3.29-6.62-.09-1.04-.02-2.09-.02-3.27,21.74,2.94,42.53-.29,62.32-9.89,.02,.17,.03,.35,.06,.53,.53,3.5,1.02,7.02,1.61,10.52,.32,1.93,1.6,3.2,3.27,4.09,.59,.32,1.26,.5,1.95,.78,0,.14,.03,.32,0,.49-.46,2.21-.82,4.44-1.37,6.62-1,3.93-2.88,7.5-4.6,11.16-2.39,5.05-5.3,9.77-9.41,13.56-2.98,2.74-6.36,5.05-9.56,7.57-.43,.34-.88,.64-1.26,1-.49,.49-.5,1.08-.17,1.66,.35,.58,.84,.85,1.52,.67,.38-.09,.76-.2,1.22-.32-.11,.46-.2,.81-.27,1.16-.18,.97,.2,1.74,.97,1.98,.72,.21,1.34-.14,1.78-1.02,.43-.87,.93-1.7,1.2-2.62,1.16-3.96,4.69-5.8,7.37-8.42,.05,.24,.03,.44,0,.62-.85,3.81-1.7,7.61-2.56,11.43-.02,.08-.03,.17-.05,.26-.11,.9,.4,1.69,1.22,1.84,.88,.15,1.29-.43,1.48-1.13,.58-2.24,1.19-4.48,1.61-6.74,1.37-7.46,4.03-14.45,7.66-21.07,.14-.26,.47-.43,.72-.62,.08,.29,.23,.59,.21,.88-.3,4.54-.65,9.07-.96,13.61-.3,4.84-.62,9.68-.84,14.52-.09,1.98,.05,3.97,.15,5.95,.03,.67,.34,1.22,1.17,1.22,.76,.02,1.07-.43,1.17-1.1,.03-.21,.11-.41,.12-.62,.12-1.63,.23-3.28,.34-4.92,.3-.05,.59-.15,.8-.39,2.64-3.11,5.17-6.32,7.56-9.62,.1,1.07,.2,2.15,.29,3.22,.15,1.86,.23,3.73,.46,5.57,.08,.65,.41,1.35,.84,1.86,1.48,1.7,3.04,3.33,4.57,5.01,1.84,2.02,3.65,4.08,5.53,6.09,1.45,1.57,3.32,1.13,3.84-.9,.58-2.27,1.07-4.57,1.55-6.87,.7-3.24,.78-6.39,.02-9.73-1.81-7.92-3.21-15.92-4.78-23.91,0-.01,0-.03,0-.04,6.13,3.57,12.83,6.25,18.39,10.69,2.7,2.15,6.09,5.35,6.76,8.9,.83,4.4-1.77,9.06-2.87,13.21-.5,1.9,2.43,2.7,2.94,.81,1.2-4.54,3.57-9.11,3.01-13.93Zm-79.41,1.6c.38-.06,.76-.08,1.32-.12-.81,2.83,.38,5.16,1.6,7.32,1.75,3.14,2.02,6.3,1.42,9.74-.3,1.69-.23,3.46-.34,5.31-.72,.15-1.58,.37-2.45,.52-.61,.11-.73-.32-.65-.79,.21-1.16,.3-2.34,.69-3.44,1.48-4.23,.64-8.13-1.46-11.93-.73-1.29-1.29-2.69-1.75-4.11-.5-1.52,.05-2.24,1.63-2.5Zm-5.83,6.45c-1.1-1.86-1.17-3.88-1.05-5.95,.05-.73,.58-1.05,1.35-.91,.67,.12,1.13,.23,.91,1.19-.43,1.96,.15,3.81,1.08,5.54,.72,1.32,1.49,2.62,2.09,3.99,.91,2.1,1.07,4.22,.38,6.5-.64,2.1-.82,4.34-1.22,6.56-1.46-.17-2.63-2.12-2.16-3.88,.11-.43,.27-.85,.5-1.25,1.6-2.83,1.51-5.66-.02-8.49-.59-1.11-1.23-2.21-1.87-3.29Zm-3.83,38.87c.4,.08,.8,.14,1.21,.21,2.75,.22,5.48,.53,8.18,.41,2.73-.11,5.44-.64,8.21-1.08,.36-.09,.72-.17,1.09-.27,0,.04,.01,.07,.02,.1,.05,0,.09-.02,.14-.02,.02,.28,.02,.56,.02,.84,.05,.29,.07,.57,.08,.84,.2,1.31-.24,2.27-1.08,3.06-.45,.46-1.03,.88-1.78,1.27-1.73,.9-3.61,1.11-5.51,1.21-2.83,.16-5.58-.25-8.25-1.23-.92-.33-1.52-.88-1.77-1.72-.1-.28-.15-.59-.17-.95-.05-.53-.14-1.08-.24-1.68-.07-.29-.14-.57-.2-.87,.02,0,.04,0,.05,0,0-.04-.01-.07-.02-.11Zm-1.27-21.37c-.03,.08-.06,.17-.11,.24-5.81-.14-11.6-.81-17.44-1.72,.82-2.65,1.67-5.4,2.59-8.34,5.08,3.33,10.03,6.58,14.96,9.82Zm46.93-95.82c.62-.18,.58,.41,.53,.75-.23,2.4-.52,4.79-.78,7.18-.12,0-.24-.02-.35-.02-.09-1.19-.15-2.37-.24-3.55-.11-1.14-.21-2.27-.37-3.41-.14-.99,.72-.81,1.2-.96Zm-1.96,11.16c1.1,.18,1.43,.85,1.49,1.75,.2,3.21,.43,6.42,.58,9.64,.14,2.69,.26,5.4,.38,8.1v.12l.07,1.5c-.58-.25-1.16-.49-1.75-.74-.02-3.4-.03-6.8-.12-10.21-.09-3.12-.43-6.24-.65-9.36-.02-.23,0-.47,0-.81Zm-77.3-2.39c1.92-9.36,6.94-16.88,13.84-23.27,.11-.11,.24-.18,.47-.37-.05,.29-.06,.44-.12,.58-1.9,4.69-2.76,9.59-3.11,14.61-.08,1.04,.44,1.77,1.28,1.87,.88,.12,1.52-.49,1.63-1.63,.34-3.7,.72-7.4,1.98-10.9,.87-2.42,2.02-4.75,3.2-7.06,.5-.99,1.26-1.89,2.36-2.18-.27,2.91-.55,5.8-.82,8.71-.05,.53-.06,1.08-.06,1.63,.02,1.1,.61,1.78,1.49,1.78,.87-.02,1.34-.65,1.46-1.74,.32-3.24,.65-6.47,1.04-9.7,.06-.59,.35-1.16,.47-1.74,.15-.79,.67-.99,1.48-.97,.18,2.22,.37,4.44,.53,6.65,.08,.96,.12,1.93,.2,2.89,.09,.97,.72,1.58,1.54,1.55,.85-.03,1.45-.69,1.39-1.67-.17-2.77-.35-5.54-.59-8.3-.08-.88,.44-1.43,.99-1.84,.64-.47,1.34-.05,1.7,.52,1.16,1.77,2.48,3.47,3.27,5.39,1.28,3.11,2.24,6.35,3.26,9.56,.44,1.37,.99,1.99,1.93,1.77,.94-.21,1.29-1.08,.96-2.45-1.28-5.21-2.97-10.24-5.97-14.75-.05-.08-.06-.17-.14-.35,1.92,0,3.73-.03,5.33,1.2,2.47,1.89,4.29,4.29,5.86,6.93,.67,1.14,1.31,2.31,1.99,3.44,.55,.93,1.37,1.22,2.12,.81,.76-.43,.94-1.35,.41-2.3-1.64-2.89-3.2-5.82-5.43-8.31-.08-.08-.12-.18-.26-.44,2.82,.72,5.56,1.08,8.02,2.45,3.65,2.02,7.26,4.11,10.02,7.32,.9,1.05,1.69,2.21,2.39,3.39,.23,.4,.17,1.1,0,1.58-.75,2.07-1.08,4.2-.97,6.39,.05,.7,.18,1.4,.32,2.31-1.86,.94-3.87,2.01-5.91,3.01-7.7,3.82-16.09,5.16-24.4,6.68-6.61,1.22-13.32,1.25-20.02,1.02-4.69-.14-9.38-.61-13.85-2.24-.09-.03-.18-.06-.26-.09-1.48-.59-1.29-.41-1-1.77Zm70.97,2.89c-8.14,4.78-16.85,8.05-26.05,10.21-9.35,2.21-18.75,3.26-28.33,2.77-5.42-.27-10.82-.75-16.15-1.77-2.27-.44-4.29-1.4-6.12-2.79-.79-.61-1.25-1.31-1.16-2.39,.15-1.8,.15-3.61,.3-5.4,.09-1.22,.75-1.67,1.92-1.34,.87,.23,1.7,.59,2.5,1.04,3.94,2.22,8.24,3.11,12.68,3.52,7.08,.65,14.17,.56,21.22-.26,4.73-.56,9.41-1.69,14.13-2.56,4.22-.79,8.3-2.02,12.27-3.64,5.63-2.27,10.91-5.21,16-8.52,.12-.08,.24-.14,.44-.26,.67,1.45,1.31,7.08,1.1,8.86-1.67,.88-3.24,1.64-4.75,2.53Zm3.12,64.05c.18-3.17,.33-6.34,.52-9.51,.33-5.86,.76-11.72,1-17.6,.06-1.26,.21-2.5,.47-3.71l.43-1.7c.82-2.97,1.21-6.18,1.4-8.45,.7,.3,1.39,.61,2.08,.94l.3,6.26,.15,3.27c.23,4.72,.49,9.44,.79,14.16,.14,2.08,.32,4.17,.51,6.25-2.4,3.48-4.97,6.83-7.64,10.1Zm22.65,1.45c.24,1.17,.21,2.47,.03,3.65-.38,2.62-.93,5.21-1.46,8.04-.5-.47-.85-.76-1.16-1.11-2.63-2.94-5.28-5.86-7.89-8.83-.2-.21-.3-.58-.33-.9-.47-4.46-1.04-8.92-1.34-13.4-.58-8.22-1.02-16.47-1.48-24.71-.52-9.15-.96-18.3-1.43-27.45-.06-1.08-.05-2.16-.03-3.24,0-.3,.09-.59,.15-.88,.06-.02,.14-.02,.2-.03,.93,3.96,1.87,7.9,2.76,11.86,1.95,8.71,3.94,17.38,5.77,26.11,1.32,6.3,2.33,12.66,3.58,18.98,.79,3.99,1.84,7.92,2.63,11.9Z"/></g></g><rect class="cls-1" x="226.14" y="17.47" width="47.13" height="256.73"/></g></g></g></svg>