<?xml version="1.0" encoding="UTF-8"?><svg id="_圖層_2" xmlns="http://www.w3.org/2000/svg" viewBox="0 0 280 280"><defs><style>.cls-1{fill:none;}.cls-2{fill:#fff;}.cls-3{fill:#122c53;}.cls-4{fill:#112c52;}</style></defs><g id="_圖層_1-2"><g><rect class="cls-1" width="280" height="280"/><g><g><g><path class="cls-3" d="M113.59,208.07c-.72-1.4-1.52-2.76-2.32-4.12-.38-.65-.98-.93-1.72-.64-.72,.29-1.01,.86-.83,1.62,.04,.16,.09,.32,.14,.47,.07,.2,.15,.4,.25,.59,.19,.37,.38,.75,.56,1.12,.49,.98,.99,1.96,1.48,2.95,1.84,3.43,4.78,8.03,8.97,11.57,1.23,.91,2.36,1.7,3.43,2.54,.04,.03,.08,.06,.11,.09,5.5,3.59,10.05,4.41,10.25,4.44,.44-.02,.78-.27,1.02-.76,.33-.67,.23-1.28-.36-1.71-.47-.33-1.01-.59-1.54-.8-2.88-1.13-5.76-2.18-8.32-4.04-4.85-3.52-8.41-8.05-11.12-13.33Z"/><path class="cls-3" d="M132.31,196.9c.39-.15,.76-.43,.91-.83,.15-.39,.07-.82-.02-1.22-.05-.25-.12-.5-.3-.68-.02-.02-.04-.04-.06-.05-.09-.07-.19-.12-.29-.16-1.11-.48-2.32-.45-3.48-.69-.67-.14-1.34-.27-2.01-.41-.81-.17-1.62-.48-2.46-.45-.44,.01-.82,.13-1.19,.35-.25,.15-.83,.42-.88,.74-.06,.4,.83,.69,1.13,.83,.39,.19,.79,.37,1.18,.56,1,.48,2,.95,3.03,1.37,1.37,.56,2.99,1.19,4.46,.63Z"/><path class="cls-3" d="M160.11,189.42c.07-.78-.74-1.01-1.35-1.03-3.62-.13-6.98,1.46-9.59,3.9-.29,.27-.57,.55-.76,.9-.28,.52-.22,1.02-.03,1.55,.64,1.78,2.91,2.14,4.34,1.09,.63-.46,1.06-1.19,1.14-1.93,.03-.03,.08-.05,.11-.08,.19-.19,.38-.38,.58-.57,.1-.1,.21-.19,.32-.29,.02-.02,.04-.04,.05-.05,.04-.03,.08-.06,.11-.1,.43-.35,.88-.68,1.35-.97,.05-.03,.11-.07,.16-.1,0,0,.03-.02,.06-.04,.03-.02,.07-.04,.08-.05,.07-.04,.14-.08,.21-.12,.24-.13,.48-.25,.72-.37,.06-.03,.11-.05,.17-.08,.04-.02,.22-.09,.06-.03,.04-.02,.07-.03,.09-.04,.06-.02,.12-.05,.18-.07,.27-.11,.53-.2,.8-.3,.17-.06,.76-.32,.9-.61,.16-.17,.28-.38,.3-.63Z"/><path class="cls-3" d="M157.48,197.96c-1.25,0-2.23,.97-2.23,2.21,0,1.23,1,2.22,2.23,2.22,1.24,0,2.22-.99,2.22-2.23,0-1.25-.97-2.21-2.22-2.21Z"/><path class="cls-3" d="M124.28,202.38c0,1.2,.96,2.2,2.14,2.21,1.24,.01,2.19-.97,2.18-2.24-.01-1.21-.99-2.19-2.17-2.18-1.16,0-2.15,1.03-2.16,2.21Z"/><path class="cls-3" d="M223.36,217.77c-.4-4.23-2.73-6.02-5.95-8.39-4.68-3.46-9.79-6.5-14.96-9.18-4.82-2.5-9.64-5.22-14.53-7.65,.21,0,.42-.02,.64-.02,1.46-.25,2.75-.89,3.6-2.08,.64-.9,1.15-1.83,2.21-2.33,.32-.15,.58-.49,.78-.82,.01-.02,.03-.05,.04-.07,.97-1.61,1.68-3.3,1.62-5.24,0-.23,.04-.52,.14-.73,.04-.08,.09-.15,.14-.2,.66-.59,1.21-1.23,1.69-1.91,1.43-2.04,2.11-4.44,2.41-6.97,.65-5.58-1-10.34-5.31-14.07-.37-.32-.45-.61-.36-1.12,.77-4.04,.12-7.85-2.11-11.33-.5-.78-.95-1.51-1.15-2.48-.64-3.22-2.48-5.7-5.21-7.52-.32-.21-.6-.53-.8-.86-1.01-1.65-2.19-3.21-3.82-4.24-1.38-.88-2.97-1.41-4.44-2.15-.4-.21-.84-.57-1.01-.97-.72-1.69-1.76-3.05-3.41-3.91-.84-.44-1.45-1.08-1.88-1.96-.35-.72-.77-1.47-1.34-2.01-1.94-1.82-4.22-3.02-6.87-3.44-.29-.05-.6-.2-.81-.4-.98-.95-1.87-1.98-2.89-2.88-1.19-1.05-2.59-1.66-4.22-1.83-1.07-.11-2.21,.05-3.18-.69-.67-.5-1.41-.91-2.17-1.27-2.1-1-4.22-.94-6.31,.03-.59,.27-1.02,.25-1.59-.02-2.14-1.01-4.37-1.75-6.67-.59-1.64,.83-3.18,1.61-5.12,1.72-2.18,.13-4.14,1.22-5.87,2.6-.23,.18-.59,.37-.84,.32-2.7-.58-4.97,.24-6.79,2.18-.98,1.05-1.99,1.61-3.42,1.4-.38-.06-.8,.07-1.2,.16-3.93,.9-7.58,2.24-9.85,5.94-.43,.7-1.11,1.34-1.83,1.73-1.23,.67-2.64,1.02-3.88,1.68-1.36,.74-2.42,1.71-3.21,2.87-.79,1.14-1.31,2.48-1.58,3.97-.09,.47-.19,.92-.46,1.3-.1,.13-.21,.24-.36,.35-1.21,.89-2.2,1.98-3.01,3.21-.27,.41-.53,.84-.77,1.28-1.26,2.34-1.72,4.86-1.54,7.49,.02,.25-.01,.44-.1,.61-.1,.15-.25,.27-.47,.39-.68,.36-1.38,.79-1.9,1.36-.82,.89-1.54,1.82-2.12,2.78-1.75,2.87-2.35,6.05-1.25,9.71,.14,.47,0,1.16-.27,1.6-1.11,1.89-1.73,3.95-1.9,6.09-.22,2.74,.07,5.46,.66,8.15,.96,4.38,3.4,7.45,7.64,9.06,.29,.11,.49,.63,.61,1,.32,1.01,.42,2.14,.91,3.05,.48,.9,1.04,1.76,1.61,2.62h0s.27,.6,.92,1.38c.28,.34,.64,.72,1.08,1.09-4.6,2.41-9.36,4.49-13.98,6.86-4.39,2.25-9.9,4.5-13.66,7.73-6.7,5.76-7.33,16.26-4.32,24.22,.68,1.81,3.61,1.02,2.92-.8-1.32-3.5-1.22-7.58-1.41-11.29-.32-6.29,4.64-10.16,9.65-12.74,7.93-4.07,16.18-7.83,23.95-12.23,.06,0,.1-.03,.11-.06,1.45,.59,3.27,1.16,5.43,1.46,.62,.08,1.24,.13,1.86,.15,.13,0,.24,.02,.34,.05,2.21,.11,4.69-.05,7.41-.69,2.05-.82,3.85-1.97,5.31-3.54,.03-.03,.06-.06,.08-.09,.23-.25,.45-.52,.66-.8,.15-.19,.28-.39,.42-.59,.12-.17,.24-.34,.35-.52,.28-.45,.55-.92,.79-1.43,.25-.53,.6-1.02,.79-1.57,.06-.17,.13-.31,.21-.43,.3-.39,.75-.48,1.34-.46,.99,.03,2.03,.09,2.96-.17,2.49-.7,4.55-1.94,6.06-3.8,.23-.28,.45-.58,.65-.89,.06-.1,.12-.2,.18-.3,.14-.23,.28-.47,.41-.72,.02-.04,.05-.08,.07-.12,.06,0,.12,.02,.18,.03,2.75,1.79,6.12,2.28,9.52,1.82,.33-.04,.67-.1,1-.17,.94-.08,1.85-.33,2.68-.75,1.14-.42,2.22-.98,3.16-1.69,.56,.07,1.13,.09,1.7,.06,.13,0,.26-.03,.39-.04,1.39,.1,2.86-.21,4.14-.85,.39-.02,.79-.08,1.18-.14,1.89,1.89,4.2,3.2,7.35,3.37,.71,.04,1.01,.37,1.19,1.02,.7,2.61,2.2,4.68,4.28,6.37,1.3,1.06,2.78,1.65,4.44,1.63,.8-.01,1.03,.32,1.19,1,.25,1.07,.42,2.18,1.33,2.99,.14,.12,.25,.23,.35,.33,.29,.21,.6,.42,.9,.61-.53,1.23-1.06,2.47-1.52,3.73-2.3,6.22-5.59,11.69-10.34,16.15-2.51,2.35-5.45,3.82-8.37,5.39-.55,.29-1.09,.63-1.55,1.06-.58,.54-.62,1.24-.2,1.97,.31,.53,.69,.77,1.16,.75,.21-.06,4.94-1.44,10.38-6.04,.04-.04,.07-.08,.11-.11,1.05-1.06,2.15-2.06,3.36-3.21,4.05-4.41,6.67-9.89,8.25-13.94,.42-1.16,.84-2.31,1.25-3.47,.19-.58,.35-1.05,.47-1.42,.27-.31,.53-.63,.8-.94,.53-.6,1.05-1.25,1.62-1.81h0s1.06-1.54,3.16-2.69c3.89,1.86,7.52,4.21,11.37,6.17,4.42,2.25,8.82,4.3,13.07,6.9,3.89,2.38,10.75,5.25,12.23,9.9,1.52,4.76-.01,12.03-1.01,16.71-.41,1.91,2.3,2.66,2.92,.8,.08-.25,.17-.5,.25-.76,.09-.28,.1-.53,.05-.76,.94-4.88,1.46-10.03,1-14.95Z"/><path class="cls-3" d="M168.51,241.12c.3-1.54-.34-2.54-1.48-3.37-1.82-1.31-3.78-2.35-5.98-2.83-1.28-.28-2.58-.49-3.88-.6-.73-.06-1.26,.39-1.35,1.21-.09,.87,.5,1.09,1.16,1.27,1.38,.37,2.79,.67,4.14,1.13,1.26,.42,2.5,.95,3.69,1.53,.71,.34,.74,.84,.12,1.28-.87,.62-1.75,1.34-2.74,1.67-2.63,.87-5.33,1.54-7.99,2.31-.58,.17-.86-.06-.83-.62,.07-1.37,.04-2.76,.31-4.09,.62-3.09,.38-6.03-1.04-8.86-.57-1.14-1.09-2.31-1.6-3.49-.79-1.82-.13-4.65,1.29-6.04,.47-.46,.88-1.03,1.17-1.62,.69-1.42,.34-2.96-.82-3.97-1.21-1.06-2.84-1.22-4.15-.41-.88,.55-1.23,1.4-.88,2.14,.33,.7,1.01,.89,2.05,.63,.42-.11,.85-.13,1.42-.2-.39,1.47-1.33,2.08-2.42,2.47-1.75,.64-3.58,.56-5.38,.35-2.16-.25-4.23-.67-5.21-3.05-.29-.72-1.29-.81-1.91-.34-.69,.53-.79,1.26-.38,1.95,.5,.85,1.16,1.6,1.7,2.43,.16,.24,.28,.64,.2,.89-.99,3.06-.64,5.99,.85,8.79,.63,1.19,1.36,2.32,1.97,3.51,.76,1.49,.81,3.01,.07,4.54-.49,1.01-.91,2.05-1.37,3.12-3.85-2.81-7.8-5.7-11.77-8.59,1.36-1.08,1.55-1.56,1.12-2.66-.7-1.76-1.33-2.19-2.99-2.06-.93,.07-1.87,.17-2.8,.14-.49-.02-1.05-.18-1.44-.47-1.56-1.14-3.07-2.34-4.59-3.53-1.49-1.17-2.95-2.39-4.47-3.54-1.05-.8-2.25-.39-2.44,.78-.13,.77,.35,1.25,.9,1.68,2.05,1.61,4.09,3.22,6.14,4.83,.19,.15,.37,.33,.55,.49-.04,.08-.08,.15-.11,.23-.59-.2-1.24-.3-1.75-.63-2.1-1.33-4.15-2.73-6.23-4.1-.85-.56-1.7-1.15-2.58-1.67-.72-.43-1.44-.27-1.88,.31-.46,.6-.39,1.42,.2,1.98,.27,.26,.61,.45,.92,.66,.83,.55,1.67,1.1,2.51,1.65-.81,.09-1.56,.02-2.31-.04-1.24-.1-1.95,.31-2.37,1.48-.4,1.1-.75,2.21-1.09,3.32-.23,.75-.68,1.26-1.38,1.6-.33,.16-.66,.33-.99,.49-.12-.45-.43-.86-.98-1.06-2.75-.99-5.22-2.22-8.03-.77-1.11,.57-1.97,1.53-2.79,2.7-.22-.05-.44-.05-.67-.05-2.83-.02-5.4,.31-8.06,1.33-3.65,1.4-6.03,3.79-10.25,3.46-1.95-.15-1.93,2.87,0,3.02,2.36,.19,5.4-.2,7.47-1.44,3.28-1.95,5.98-3.12,9.64-3.32-.41,.69-.8,1.34-1.2,1.89-1.14,1.59,1.48,3.09,2.61,1.53,1.34-1.86,2.44-3.88,3.91-5.65,1.55-1.86,3.61-.99,5.5-.21-.34,.18-.71,.3-1.02,.52-.54,.41-.8,.7-1.08,.97-1.88,2-2.61,4.5-2.99,7.32-.81,5.96-.1,11.99-1.04,17.98-.3,1.91,2.62,2.73,2.92,.8,.66-4.26,.91-8.5,.89-12.81-.01-3.64-.35-9.03,2.93-11.69q.39-.31,.81-.58c1.44-.7,2.87-1.4,4.29-2.13,1.07-.55,1.89-1.33,2.15-2.6,.18-.85,.51-1.67,.77-2.51,.15-.47,.36-.73,.95-.59,.73,.18,1.51,.2,2.25,.35,3.7,.74,7.38,1.59,11.21,1.09,.31-.04,.65,.2,1.2,.38-.55,.27-.83,.42-1.11,.54-2.06,.91-4.11,1.83-6.19,2.7-.83,.35-1.37,.96-1.57,1.76-.11,.45,.07,1.08,.32,1.5,.32,.54,.92,.55,1.49,.27,.92-.45,1.83-.91,2.75-1.35,.32-.15,.66-.27,1.09-.45-1.28,4.17-2.51,8.18-3.78,12.17-.12,.39-.5,.77-.86,.99-.71,.45-1.54,.73-2.24,1.2-1.7,1.15-3.32,1.26-5.05,.04-.91-.64-1.93-.53-2.9,.06-1.92,1.18-3.86,2.31-5.76,3.52-.51,.32-1.03,.76-1.29,1.28-.19,.37-.1,1.02,.11,1.41,.14,.25,.74,.37,1.11,.34,.41-.03,.83-.27,1.21-.48,1.29-.74,2.56-1.52,3.85-2.27,2.36-1.37,2.38-1.39,4.76,.01,.93,.55,1.75,.53,2.7,0,1.63-.91,3.3-1.76,5.01-2.5,1.13-.49,1.78-1.24,2.04-2.42,0,0,.3-1.01,.69-2.27,.32-1.05,.69-2.27,.99-3.26,.22-.73,.4-1.32,.49-1.6,.14-.45,.28-.9,.42-1.35,.53-1.71,1.08-3.46,1.66-5.32,1.47,.92,2.82,1.74,4.15,2.61,3.22,2.11,6.42,4.25,9.63,6.37,.22,.14,.44,.27,.66,.4-.01,.07-.03,.15-.04,.22-.19,.04-.37,.08-.56,.1-1.55-.11-3.11-.22-4.66-.33-.02,0-.04,0-.06,0-.91-.13-5.68-.27-6.54-.88,.42-.71,.94-1.38,1.53-2.01,1.34-1.41-.79-3.56-2.14-2.14-1.8,1.9-2.9,4-3.5,6.55-.42,1.78,.11,3.38,.85,4.93,.29,1,.75,2.14,1.44,3.46,.51,.97,.98,1.9,1.42,2.8,1.9,2.39,4.25,4.28,7.24,5.37,.74,.27,1.47,.58,2.21,.85,.6,.23,.94,.61,1.03,1.28,.19,1.42,.49,2.82,.66,4.24,.19,1.64,1.01,2.75,2.49,3.42,.27,.12,.52,.27,.79,.38,3.69,1.57,7.53,1.79,11.45,1.33,1.01-.12,1.97-.34,2.88-.66,1.5-.52,2.86-1.32,4.06-2.44,.23-.21,.45-.43,.67-.67,.84-.91,1.24-1.96,1.18-3.19-.06-1.2-.06-2.4-.16-3.59-.07-.76,.19-1.13,.89-1.46,3.08-1.46,5.34-3.9,6.76-6.87,2.07-4.32,2.9-8.98,2.57-13.8-.07-.93-.32-1.9-.15-2.79Zm-21.88-17.08c.41-.04,.81-.05,1.29-.08-.09,.82-.39,1.66-.21,2.39,.35,1.42,.91,2.8,1.49,4.16,.69,1.63,1.81,3.1,1.93,4.93,.07,.98,.09,1.98-.05,2.95-.34,2.31-.81,4.6-.3,7.01-.92,.19-1.69,.33-2.46,.52-.6,.15-.86-.09-.76-.66,.22-1.26,.32-2.57,.74-3.76,1.27-3.63,.61-7-1.07-10.29-.4-.78-.92-1.5-1.27-2.3-.4-.92-.78-1.88-.97-2.86-.23-1.16,.45-1.89,1.64-2Zm-6.25,4.57c-.39-1.18-.37-2.53-.34-3.8,.03-1.24,.68-1.45,2.37-.87-.8,2.69,.09,4.99,1.48,7.23,1.08,1.74,1.95,3.6,2.17,5.67,.08,.77,.11,1.63-.14,2.34-.83,2.34-1.28,4.72-1.14,7.47-.5-.16-.95-.18-1.2-.41-1.32-1.21-1.64-2.99-.74-4.53,1.8-3.09,1.44-6.05-.33-9-.79-1.32-1.64-2.65-2.12-4.08Zm8.95,45.1c-3.09,.36-6.13,.18-9.1-.83-.25-.08-.5-.16-.74-.26-.89-.38-1.59-.86-1.64-2.01-.05-1.03-.35-2.04-.52-2.99,3.11,.26,6.13,.81,9.12,.68,3-.12,5.97-.92,9.06-1.43,.05,.93,.16,1.97,.12,3.02-.02,.41-.31,.88-.6,1.2-1.53,1.64-3.51,2.37-5.69,2.62Z"/></g><g><g><rect class="cls-2" x="7.2" y="5.69" width="65.44" height="136.48"/><path class="cls-3" d="M70.15,8.19V139.68H9.7V8.19h60.44m5-5H4.7V144.68H75.15V3.19h0Z"/></g><g><path class="cls-4" d="M31.21,34.91c.46-.58,1.36-1.39,2.4-1.39,.77,0,2.44,.5,2.44,1.94,0,.66-.39,1.16-.77,1.63-.89,1.08-3.56,5.27-3.56,5.81,0,.16,.16,.27,.19,.31,.35,.23,4.3,2.94,4.3,6.97,0,.46-.12,4.65-3.79,4.65-.43,0-1.32,0-3.68-1.36,0,1.36,.16,7.28,.16,8.52,0,1.04-.04,1.43-.93,2.09-.74,.58-1.67,.85-2.21,.85-.31,0-1.63-.15-1.63-1.39,0-.66,.16-3.56,.19-4.18,.19-5.38,.31-11.15,.31-16.5,0-.43,0-4.65-.12-4.84-.08-.19-.81-.7-.93-.81-.08-.12-.15-.27-.15-.39,0-.97,2.13-3.18,3.33-3.18,.23,0,1.32,.16,1.86,1.28h2.59Zm-2.21,1.7c-.23,0-.31,.31-.31,.43v3.14c0,2.75,0,10.42,.04,12.51h1.05c2.09,0,2.32-1.86,2.32-3.52s-.12-3.37-2.4-5.03c-.31-.27-.39-.39-.39-.81,0-.27,1.08-5.77,1.28-6.74l-1.59,.04Zm24.17,23.51c0,4.22-2.63,5.07-4.8,5.07-3.25,0-6.43-2.9-6.43-3.41,0-.19,.23-.27,.31-.27,.27,0,1.32,.23,1.51,.27,.16,.04,.66,.04,1.43,.04,3.45,0,3.45-2.13,3.45-4.42,0-4.65,.08-12.08,0-16.73,0-1.28-.16-1.9-.27-2.4h-9.33c-.39,0-1.97,.85-2.32,.85-.43,0-1.28-.35-1.28-.97,0-.93,.74-2.25,2.09-2.25,.19,0,1.08,.27,1.28,.27h14.56c.85-1.74,1.9-1.9,2.32-1.9,1.16,0,3.06,1.43,3.06,2.79,0,1.2-1.28,1.2-2.25,1.2h-3.21c-.08,1.01-.12,2.09-.12,2.9v18.94Zm-12.35-8.05v1.94c0,1.12-1.47,1.86-2.48,1.86-.35,0-1.7-.16-1.7-1.05,0-.04,.12-2.52,.12-2.83,.12-2.4,.12-4.92,.12-6.35l-.19-.19c-.31-.23-.46-.39-.46-.62,0-.97,2.17-2.52,3.21-2.52,.66,0,1.36,.31,1.43,1.01h2.21c.43-.62,1.12-1.08,1.9-1.08,1.05,0,2.4,.81,2.4,1.86,0,.19-.08,.31-.19,.54-.19,.43-.19,.54-.19,.93,0,1.08,.15,5.77,.15,6.74,0,1.74-2.05,2.09-2.67,2.09-1.59,0-1.59-.5-1.59-2.32h-2.05Zm2.13-7.13h-1.78c-.16,0-.39,.04-.43,.31,0,.16,.04,4.49,.04,5.23h2.17v-5.54Z"/><path class="cls-4" d="M36.83,97.35c.97,2.21,2.32,5.27,6.97,8.13,.66,.39,3.72,2.25,7.75,3.29,.74,.19,4.49,.93,5.34,1.08,.39,.15,.43,.19,.43,.31,0,.27-.66,.7-1.51,1.28-3.33,2.25-3.8,2.28-4.49,2.28-.85,0-3.6-.46-7.2-2.9-6.82-4.69-8.56-10.73-9.37-13.48h-2.56v11.66c2.21-.19,3.76-.46,6.12-.89,.23-.08,.85-.16,1.08-.16,.31,0,.74,.08,.74,.43,0,1.7-10.57,4.96-14.41,4.96-.77,0-2.94-.27-2.94-1.98,0-2.21,2.25-2.21,5.15-2.21,0-2.75-.04-16.34-.04-19.44,0-1.63,0-1.82-.35-2.21-.62-.66-.66-.7-.66-1.05,0-1.08,2.17-2.9,3.41-2.9,.81,0,1.74,.58,2.09,1.47h3.21c-.08-1.74-.08-1.94-.16-2.59-.08-.08-.62-.43-.7-.54-.31-.23-.39-.43-.39-.58,0-1.28,2.71-2.9,4.03-2.9,.5,0,1.98,.27,1.98,1.86,0,.7-.54,4.03-.58,4.76h3.68c.85-1.01,1.9-1.36,2.56-1.36,.89,0,2.48,.66,2.48,1.86,0,.15-.04,.43-.12,.62-.23,.85-.27,.97-.27,1.51,0,.5,.16,7.78,.16,8.05,0,2.29-2.79,2.56-3.1,2.56-.62,0-1.82-.08-1.9-.93h-6.43Zm6.62-1.78v-3.52h-11.23l-.04,3.52h11.27Zm.04-5.38v-2.71c0-.23-.04-.5-.35-.5h-10.42c-.35,0-.5,.35-.5,.66v2.56h11.27Zm5.65,7.28c1.01,0,2.13,.97,2.13,2.01,0,2.71-7.47,3.56-9.99,3.56-.54,0-.89-.23-.89-.54,0-.39,1.05-1.05,1.67-1.43,1.63-1.01,4.61-2.87,5.85-3.37,.43-.16,.85-.23,1.24-.23Z"/></g><path class="cls-3" d="M65.03,13.07v121.73H14.81V13.07h50.22m2-2H12.81v125.73h54.22V11.07h0Z"/></g></g><rect class="cls-1" x="223.73" y="3.19" width="51.57" height="273.61"/></g></g></g></svg>