<?xml version="1.0" encoding="UTF-8"?><svg id="_圖層_2" xmlns="http://www.w3.org/2000/svg" viewBox="0 0 290 33.41"><defs><style>.cls-1{fill:#122c53;}.cls-2{fill:#112c52;}</style></defs><g id="_圖層_1-2"><g><g><path class="cls-2" d="M27.58,8.78c.47-.78,1.03-.94,1.28-.94,.61,0,1.7,.74,1.7,1.38s-.99,.65-1.46,.65h-4.95l.02,.6c.02,.58-1.17,.85-1.73,.85-.72,0-.76-.36-.76-.94v-.53h-2.53v.73c0,.56-1.14,.8-1.64,.8-.36,0-.83-.16-.83-.58,0-.13,.04-.8,.04-.96l-3.74,.02c-.2,0-1.19,.31-1.43,.31-.34,0-.72-.16-.72-.58,0-.51,.56-1.05,1.12-1.05,.13,0,.76,.13,.9,.16,.27,.04,.49,.07,.81,.07h3.11v-1.07c-.27-.2-.36-.27-.36-.4,0-.49,1.17-1.11,1.9-1.11,.27,0,.96,.07,.96,.76,0,.07-.07,.42-.07,.49-.07,.53-.09,.69-.09,1.36h2.55v-.53c0-.16,0-.42-.02-.56-.02-.02-.16-.16-.2-.18-.09-.09-.13-.18-.13-.27,0-.56,1.28-1.16,1.88-1.16,.16,0,1.01,.04,1.01,.74,0,.07-.07,.42-.07,.51v1.42h3.43Zm-.51,7.75c.29-.4,.83-.73,1.48-.73,.72,0,1.64,.38,1.64,1.34,0,.89-1.37,2.96-1.39,2.98-.18,.27-.45,.49-.85,.49-.58,0-.65-.45-.69-.73-.09-.62-.09-.76-.2-2.34h-6.09c.07,0,.2,.16,.2,.33,0,.31-.16,.49-.85,1.34h2.53c.2-.25,.54-.67,1.1-.67s1.66,.58,1.66,1.29c0,.2-.07,.25-.58,.65-.36,.65-.74,1.36-2.06,2.72-1.61,1.67-4.35,3.74-10.17,3.74-.13,0-.87,0-.87-.27,0-.18,.13-.22,1.39-.47,.45-.09,4.08-.96,6.12-2.85-.25-.11-1.48-.56-1.77-.67-.22-.09-.52-.22-.52-.56,0-.51,.85-1.05,1.41-1.05,1.1,0,1.86,1.31,1.95,1.47,.22-.27,1.28-1.49,1.66-2.4h-3.07c-1.93,1.78-4.5,2.76-5.91,2.76-.11,0-.76,0-.76-.2,0-.11,.11-.16,.16-.18,.02-.02,.18-.07,.2-.09,2.82-1.38,4.79-3.47,5.49-4.52,0-.02,.04-.18,.04-.22-.02-.04-.04-.11-.04-.16h-4.21c-.4,2.74-.78,3.14-1.39,3.14-.4,0-.52-.13-.63-.4-.27-.65-.87-2.54-.87-3.09,0-.82,.63-1.38,1.52-1.38,.49,0,1.14,.22,1.39,.73h13.01Zm-1.9-4.85c.29-.53,.81-.78,1.1-.78,.51,0,1.68,.51,1.68,1.09,0,.09-.22,.58-.22,.69,0,.31,.07,1.89,.07,2.25,0,.87-1.43,1.02-1.77,1.02-.92,0-.92-.38-.94-.73h-9c-.09,.51-1.3,.65-1.63,.65-.2,0-.9,0-.9-.67,0-.33,.07-1.96,.07-2.32,0-.2,0-.22-.07-.29-.13-.13-.25-.25-.25-.36,0-.56,1.12-1.22,1.77-1.22,.36,0,.99,.22,1.05,.67h9.05Zm-7.71,2.65v-1.74h-1.37c0,.69-.02,.96-.02,1.74h1.39Zm3.81,0v-1.74h-1.43v1.74h1.43Zm3.81,0v-1.74h-1.41c0,.25-.02,1.47-.02,1.74h1.43Z"/><path class="cls-2" d="M41.62,16.91c1.99-1.96,2.8-4.34,2.82-4.43,.29-.87,.42-1.25,1.25-1.25,.18,0,.43,.09,.58,.16l-.02-.71c-.92,0-1.77,.07-1.81,.07-.22,.02-1.17,.42-1.37,.42-.29,0-.65-.2-.65-.58,0-.45,.4-1.02,.99-1.02,.09,0,.52,.11,.61,.11h2.24c0-.38-.04-1.27-.11-1.78-.04-.09-.34-.47-.34-.58,0-.58,1.37-1.22,2.02-1.22,.34,0,.94,.13,.94,.71,0,.09-.07,.58-.09,.67-.11,.89-.18,1.83-.18,2.2h.6c.18-.27,.45-.67,.87-.67,.54,0,1.23,.58,1.23,1.13s-.56,.54-.83,.54h-1.88v1.2c.49,.73,1.21,1.31,2.24,1.94,.43,.25,.47,.29,.47,.45,0,.4-1.28,.96-1.55,.96-.29,0-.47,0-1.25-1.4,.02,.67,.16,4.07,.16,4.23,0,.82-1.43,1.2-1.77,1.2-.45,0-.85-.18-.85-.67,0-.73,.2-3.96,.22-4.63-1.39,1.98-3.34,3.29-4.37,3.29-.04,0-.29,0-.29-.13l.11-.2Zm1.84,7.88c-.72,0-1.84-.33-1.84-1.18,0-.76,.56-1.31,1.3-1.31,1.25,0,1.77,0,2.67-.4,.25-.11,1.5-.82,1.52-.82,.09,0,.29,.07,.29,.24,0,.62-1.39,3.47-3.94,3.47Zm17.94-.53c-1.32,2.16-2.22,2.25-3.11,2.25-.96,0-2.96,0-5.49-.38-4.59-.71-4.88-2.2-4.88-3.27,0-.22,.04-1.27,.04-1.49,0-.07,0-.78-.02-.78-.04-.04-.31-.18-.36-.2-.04-.04-.09-.09-.09-.18,0-.67,1.43-1.27,1.97-1.27s.92,.07,.92,.67c0,.11,0,.22-.04,.49-.27,1.47-.38,2.11-.38,2.67,0,.65,0,1.29,3.74,1.29,2.4,0,3.9,0,6.36-.94,.27-.11,1.61-.73,1.72-.73,.18,0,.34,.09,.34,.27,0,.4-.51,1.25-.72,1.6Zm-7.55-6.72c0,.45,0,.56-.36,.82-.38,.29-.87,.42-1.12,.42-.56,0-.96-.25-.96-.8,0-.8,.13-4.43,.13-5.17v-3.45c0-.16-.07-.22-.31-.47-.04-.04-.11-.13-.11-.25,0-.58,1.34-1.42,1.95-1.42,.36,0,.7,.18,.81,.53h3.58c.29-.53,1.03-.82,1.46-.82,.56,0,1.46,.47,1.46,1.07,0,.13-.13,.73-.13,.85l.02,3.58c0,.82,.11,4.41,.11,5.16,0,.31,0,.54-.47,.8-.4,.25-1.12,.42-1.5,.42-.63,0-.87-.29-.87-.82v-.47h-3.67Zm-.85,1.67c.54,0,1.28,.42,1.28,.98,0,.78-1.84,2.76-2.6,2.76-.36,0-.43-.22-.43-.42,0-.04,.4-2.23,.54-2.61,.27-.45,.69-.71,1.21-.71Zm4.52-10.44h-3.45c-.18,0-.22,.31-.22,.4v1.63h3.67v-2.03Zm0,3.01h-3.67v1.89h3.67v-1.89Zm0,2.89h-3.67v1.87h3.67v-1.87Zm-2.31,8.26c-.29,0-.47-.2-.47-.47,0-.18,.34-1.54,.43-1.89,.2-.71,.36-1.31,1.43-1.31,.72,0,1.48,.51,1.48,1.05,0,.76-2.06,2.63-2.87,2.63Z"/><path class="cls-2" d="M84.25,23.16c1.37,.36,4.08,1.07,7.28,1.07,.34,0,2.02-.04,2.4-.04,.13,0,.34,0,.34,.22,0,.42-2.62,2.49-4.28,2.49-1.37,0-1.88-.22-6.63-2.18-1.86-.76-3.34-1.36-5.08-1.8-1.23,1.71-3.14,3.23-5.13,3.23-.16,0-.69,0-.69-.2,0-.09,.4-.33,.58-.45,3.16-1.89,4.01-5.37,4.12-5.97-.07-.07-.2-.16-.2-.36,0-.65,1.52-1,1.97-1,.47,0,1.1,.4,1.1,.94s-.67,1.89-1.08,2.69c.67,.11,2.28,.62,2.82,.8,.02-1.25,.02-2.14,.02-5.63h-4.39c-.83,0-1.88,.11-1.97,.13-.13,.04-.85,.25-1.03,.25-.42,0-.87-.2-.87-.65s.47-1.09,1.1-1.09c.18,0,.96,.11,1.14,.11,.72,.07,2.91,.07,3.81,.07h9.99c.34-.62,.9-1.05,1.34-1.05,.65,0,2.06,.71,2.06,1.49,0,.73-1.19,.73-1.37,.73h-7.32c-.02,.8-.02,1.65-.02,2.23h3.11c.25-.56,.81-.96,1.3-.96,.67,0,1.66,.67,1.66,1.36,0,.6-.94,.67-1.28,.67h-4.79v2.89Zm1.7-15.72c.22-.45,.87-.89,1.28-.89,.49,0,1.68,.67,1.68,1.27,0,.11-.04,.22-.09,.29-.16,.38-.18,.42-.18,.67,0,.69,.13,4.67,.13,4.92,0,1.18-1.68,1.25-1.86,1.25-.9,0-.9-.49-.9-.78h-6.16c-.07,.82-1.3,1.02-1.72,1.02-.83,0-.83-.62-.83-.91,0-.45,.09-2.65,.09-3.14v-2.34c0-.11-.38-.56-.38-.69,0-.45,1.25-1.34,1.81-1.34,.25,0,.94,.16,1.05,.67h6.07Zm.07,2.8c-.02-.6-.02-1.27-.02-1.71h-5.91c-.25,0-.31,.16-.31,.27v1.45h6.25Zm.02,2.83v-1.76h-6.27c0,.24,.02,1.49,.02,1.76h6.25Z"/><path class="cls-2" d="M108.13,14.59v4.59c0,.91,.07,4.9,.07,5.7,0,.67-.87,1.38-1.73,1.38-.58,0-1.03-.2-1.03-.8,0-.65,.16-3.54,.18-4.12,.07-1.54,.18-6.57,.16-8.1l-.04-3.56s-.29-.29-.31-.31c-.07-.07-.18-.16-.18-.31,0-.58,1.41-1.49,2.02-1.49,.27,0,.76,.16,.92,.67h3.02c.27-.33,.56-.73,1.1-.73,.63,0,1.61,.65,1.61,1.25,0,.16-.02,.18-.22,.49-.07,.09-.07,.2-.07,.31,0,.27,.13,3.96,.13,4.61,0,.87-1.1,1.18-1.75,1.18-.78,0-.78-.27-.78-.73h-3.09Zm3.09-5.05c0-.07,0-.29-.04-.29h-2.82c-.13,0-.22,.22-.22,.36v1.34h3.09v-1.4Zm.02,2.4h-3.11v1.62h3.11v-1.62Zm2.42,8.77c-.07,1.11-.25,3.83-3.56,4.72-.31,.09-.9,.22-1.19,.22-.13,0-.43,0-.43-.22,0-.09,.4-.31,.6-.42,.81-.45,2.29-1.25,2.42-4.3h-1.21c-.22,0-1.14,.31-1.34,.31-.25,0-.61-.13-.61-.53,0-.29,.18-.98,1.01-.98,.13,0,.72,.09,.83,.09h1.37c0-1.07,0-1.18-.04-2.29h-.47c-.2,0-1.1,.27-1.28,.27-.22,0-.67-.09-.67-.54s.31-.98,.92-.98c.11,0,.56,.13,.65,.13h6.56c.13-.2,.43-.65,.99-.65s1.46,.58,1.46,1.22c0,.53-.65,.53-1.01,.53h-1.43c-.02,.33-.02,.53-.02,2.29h1.01c.27-.4,.67-.69,.99-.69,.58,0,1.37,.67,1.37,1.27,0,.53-.72,.53-1.14,.53h-2.22c0,.6,.11,3.23,.11,3.76,0,.69,0,1.05-.81,1.36-.27,.09-.74,.2-.96,.2-.25,0-.63-.18-.63-.73,0-.71,.13-3.94,.13-4.59h-1.39Zm.07-3.41c0,.94-.02,1.31-.02,2.29h1.34c0-1.78,0-1.96-.02-2.29h-1.3Zm7.08-2.69h-3.09c-.11,.53-1.39,.71-1.77,.71-.45,0-.58-.25-.58-.56v-5.3c0-.11-.45-.51-.45-.62,0-.6,1.21-1.34,1.77-1.34,.47,0,.92,.25,1.08,.71h2.82c.27-.4,.65-.96,1.3-.96,.7,0,1.81,.76,1.81,1.38,0,.13-.36,.71-.36,.85l.04,13.65c0,1.16-.2,3-2.71,3-.58,0-1.17-.09-2.73-1.25-.02-.02-.38-.31-.38-.33,0-.11,.13-.16,.22-.16,.2,0,1.1,.02,1.3,.02,.83,0,1.72-.11,1.72-2.14v-7.68Zm0-5.1s0-.22-.02-.27h-2.78c-.18,0-.25,.04-.25,.24v1.45h3.05v-1.42Zm0,2.43h-3.05v1.65h3.05v-1.65Z"/><path class="cls-2" d="M139.29,16.95c-.31,0-1.66,.42-1.95,.42-.54,0-.83-.24-.83-.78,0-.76,.67-1.54,1.39-1.54,.27,0,1.48,.29,1.75,.29h11.6c.65-1.22,1.46-1.45,1.88-1.45,.94,0,2.37,1.07,2.37,2.16,0,.6-.6,.82-1.1,.89h-15.12Z"/><path class="cls-2" d="M173.94,8.24c.27-.36,.58-.74,1.08-.74,.65,0,1.64,.65,1.64,1.25,0,.16-.04,.22-.22,.47-.04,.09-.04,.91-.04,1.05,0,.6,.09,3.47,.09,4.12,0,.8-1.12,1.11-1.72,1.11-.78,0-.78-.27-.78-.74h-3.05v6.92c0,.4,.04,2.32,.04,2.76,0,.82,0,.91-.4,1.42-.13,.18-.72,.56-1.3,.56-1.05,0-1.05-.6-1.05-.89,0-.2,.18-3.41,.2-4.05,.02-.36,.16-4.12,.13-8.08l-.02-3.72c0-.09-.13-.18-.18-.22-.2-.11-.31-.25-.31-.4,0-.56,1.41-1.49,2.02-1.49,.29,0,.76,.18,.92,.67h2.98Zm.02,2.8v-1.62s0-.16-.04-.16h-2.78c-.13,0-.22,.22-.22,.36v1.42h3.05Zm.02,2.69v-1.71h-3.07v1.71h3.07Zm4.95,3.03c.34-.45,.76-.67,1.08-.67,.54,0,1.46,.6,1.46,1.16,0,.13-.02,.16-.18,.56-.09,.2-.09,.25-.09,.58,0,.67,.11,3.94,.11,4.7,0,.33,0,.47-.22,.69-.31,.27-.94,.45-1.46,.45-.74,0-.78-.31-.78-.62v-.38h-3.36v.67c0,.58-.92,.96-1.52,.96-.76,0-.76-.38-.76-.69,0-.87,.13-5.16,.09-6.14-.02-.02-.18-.18-.2-.22-.11-.11-.13-.2-.13-.27,0-.6,1.08-1.34,1.66-1.34,.31,0,.87,.2,.94,.58h3.38Zm-.07,2.67v-1.71h-3.11c-.27,0-.27,.18-.27,.51v1.2h3.38Zm0,2.74v-1.76h-3.38v1.76h3.38Zm4.41-13.94c.38-.51,.9-.94,1.55-.94s1.54,.62,1.54,1.25c0,.16-.34,.8-.34,.96l.07,14.14c0,.94-.11,2.98-2.75,2.98-1.48,0-3.14-1.36-3.14-1.42,0-.16,.18-.18,.29-.18,1.86,0,3,0,3-2.25v-7.99h-3.07c-.11,.53-1.32,.71-1.75,.71-.45,0-.58-.22-.58-.56v-5.46c0-.13-.13-.24-.22-.29-.13-.11-.22-.22-.22-.36,0-.51,1.17-1.31,1.79-1.31,.45,0,.9,.25,1.05,.71h2.78Zm.22,2.8v-1.51c0-.25,0-.27-.02-.27h-2.73c-.18,0-.25,.07-.25,.25v1.54h3Zm0,2.72v-1.74h-3v1.74h3Z"/><path class="cls-2" d="M203.67,16.44c.09-.02,2.46-.62,2.55-.62,.18,0,.2,.13,.2,.16,0,.27-.31,.45-2.71,1.89,.02,1.78,.02,3.41,.02,4.65,0,1,0,3.58-2.67,3.58-1.43,0-2.93-1.36-2.93-1.58,0-.07,.07-.11,.16-.11,.02,0,.29,.04,.34,.07,.2,.02,.43,.02,.67,.02,1.77,0,2.06-.24,2.08-5.92-.34,.16-1.43,.6-2.15,.6-.78,0-1.3-.4-1.3-1.16,0-.16,0-.62,.76-.87,.22-.07,2.24-.4,2.67-.47l-.04-3.65h-.85c-.22,0-1.28,.4-1.52,.4-.27,0-.65-.16-.65-.49,0-.36,.25-1.02,1.03-1.02,.13,0,.74,.09,.87,.09h1.1c0-.42-.04-2.38-.16-2.6-.04-.11-.52-.51-.52-.65,0-.78,1.3-1.67,2.2-1.67,.18,0,1.03,0,1.03,.94,0,.29-.02,.56-.09,1.09-.04,.45-.04,2.16-.04,2.89h.27c.11-.16,.45-.69,.9-.69,.63,0,1.21,.67,1.21,1.2s-.65,.51-.99,.51h-1.41l-.02,3.41Zm8.18,6.41c.49-2.25,1.03-5.14,1.25-6.72,.09-.62,.25-1.74,1.57-1.74,.74,0,1.43,.65,1.43,1.36,0,1.11-2.2,5.68-2.87,7.1h2.98c.38-.76,1.08-1.13,1.46-1.13,.72,0,1.86,.96,1.86,1.71s-.92,.78-1.25,.78h-11.49c-.38,0-.43,0-.76,.16-.13,.04-.43,.18-.76,.18-.43,0-.65-.31-.65-.6,0-.42,.4-1.25,1.1-1.25,.16,0,.94,.16,1.12,.16h5.02Zm-1.57-10.4c-.02-1.2-.02-1.45-.09-3.36-.2-.13-.56-.38-.56-.69,0-.65,1.66-1.54,2.55-1.54,.63,0,1.03,.36,1.03,.98,0,.07-.07,.65-.09,.76-.04,.49-.18,2.65-.25,3.85h2.53c.43-.85,1.12-.98,1.28-.98,.67,0,1.55,.91,1.55,1.58,0,.51-.69,.65-1.34,.65h-8.71c-.22,0-1.28,.31-1.52,.31-.31,0-.69-.18-.69-.58,0-.51,.4-1.16,1.17-1.16,.09,0,.6,.18,.74,.18h2.42Zm-1.59,2.36c1.12,0,1.34,1.02,1.5,1.76,.34,1.6,.58,3.98,.58,4.56,0,.29-.18,.51-.43,.51-.6,0-2.96-4.39-2.96-5.45,0-.69,.58-1.38,1.3-1.38Z"/><path class="cls-2" d="M235.88,17.88c.22-.31,.52-.58,.9-.58,.45,0,1.37,.53,1.37,1.09,0,.25-.09,.33-.27,.47-.38,.98-1.17,2.43-1.7,3.27,1.28,1,2.69,1.94,6.94,1.94,.58,0,4.26-.04,6.25-.33,.22-.02,1.32-.24,1.59-.24,.07,0,.25,0,.25,.13,0,.18-1.21,1.78-1.46,2.09-.52,.65-1.46,.65-2.53,.65-6.99,0-9.45-.42-12.03-3.21-1.12,1.31-3.58,2.63-5.51,2.63-.47,0-.74-.11-.74-.22,0-.09,.18-.16,.34-.22,3.05-1.16,4.41-3.05,4.64-3.38-.18-.38-.63-1.29-.81-1.92-1.41,1.89-3.07,2.29-3.58,2.29-.18,0-.25-.04-.25-.16s.65-.67,.76-.78c1.14-1.25,2.24-2.76,2.78-4.81,.13-.2,.25-.38,.96-.38,0-.16,.02-.91,.04-1.07-1.57,1.89-4.05,2.65-4.28,2.65-.18,0-.27-.11-.27-.18,0-.11,.07-.13,.58-.53,1.55-1.2,2.53-2.58,2.89-3.12-.31,0-.4-.31-.6-.98-.58,.85-1.81,1.87-2.6,1.87-.07,0-.22-.02-.22-.16,0-.11,.63-.85,.74-1,.49-.71,1.05-1.83,1.21-2.65,0-.02-.04-.13-.04-.16,0-.29,.54-.67,1.03-.67,.54,0,.94,.29,.94,.58,0,.45-.09,.6-.45,1.27,.11,.22,.27,.36,1.01,.91h.13c-.02-.42-.04-2.45-.04-2.92l-2.42,.04c-.18,0-1.01,.22-1.21,.22-.16,0-.56-.07-.56-.4s.18-.91,.92-.91c.04,0,.38,.09,.43,.09h2.78c0-.31-.04-1.05-.18-1.36-.13-.09-.2-.2-.2-.33,0-.67,1.28-1.27,1.9-1.27,.31,0,.76,.18,.76,.62,0,.13-.07,.71-.07,.85,0,.22-.04,1.27-.04,1.49h1.14c.16-.2,.52-.67,.94-.67,.49,0,1.19,.65,1.19,1.11,0,.53-.49,.53-.72,.53l-2.58-.02-.04,1.89,.02,1.13,.04,.04c.11-.25,.65-1.38,.65-2.32,0-.2,.25-.62,.9-.62,.51,0,.81,.29,.81,.67,0,.09-.2,.91-.22,.98,.11,.33,.63,.8,1.08,1.02,.29,.16,.43,.22,.43,.33,0,.38-.87,.94-1.21,.94-.45,0-.83-.69-1.1-1.38-.36,.4-.4,.45-.85,.76,.85,.67,1.55,1,1.77,1.11,1.23,.6,1.37,.67,1.37,.85,0,.38-.92,1.36-1.61,1.36-.54,0-1.66-1.6-2.02-2.25l.02,1.25c0,.31-.29,.69-1.03,.74,.16,.13,.18,.22,.18,.33,0,.24-.29,.67-.49,.98h1.28Zm-1.81,.85l-.2,.38c.13,.42,.36,1.07,.85,1.67,.45-.98,.67-1.65,.78-2.05h-1.43Zm7.77,2.76v.18c0,1.25-1.25,1.25-1.3,1.25-.6,0-.83-.31-.83-.71,0-.47,.16-3.96,.2-4.7,0-.04,.07-2.49,.07-3.67v-.58c0-.11-.31-.56-.31-.67,0-.42,1.03-1.25,1.5-1.25,.27,0,.56,.07,.63,.38h.92c.2-.51,.47-1.62,.65-2.54-.34,0-1.95-.02-2.31-.02h-.49c-.13,0-.74,.22-.9,.22-.45,0-.56-.18-.56-.4,0-.47,.29-.93,.83-.93,.11,0,.63,.16,.74,.16h7.59c.13-.36,.58-.93,1.01-.93,.54,0,1.37,.78,1.37,1.38,0,.49-.45,.49-.96,.49h-4.19c.13,.07,.25,.13,.25,.33,0,.31-.25,.71-.56,1.2-.09,.16-.63,.87-.74,1.05h2.8c.27-.47,.74-.69,.94-.69,.47,0,1.32,.69,1.32,1.14,0,.07-.04,.18-.09,.36-.07,.16-.07,.76-.07,.98,0,.8,.07,4.1,.11,5.61,.02,.31,.09,2.03,.09,2.07,0,1.11-1.3,1.22-1.57,1.22-.83,0-.85-.38-.85-.98h-5.31l.02,.07Zm0-4.72c0,1.05-.04,2.69-.04,3.74h.67c.02-1.89,.02-3.32,.02-4.96v-3h-.54c-.11,0-.11,.2-.11,.24v3.99Zm3-2.03l-.02-2.2h-.74l-.02,2.2h.78Zm0,2.85v-2.03h-.78v2.03h.78Zm-.78,2.92h.76c0-.22,.02-.45,.02-1.18v-.94h-.78v2.12Zm3.09,0v-7.97h-.6c-.02,1.71-.04,2.56-.04,7.01v.96h.65Z"/><path class="cls-2" d="M277.3,9.65c.29-.56,.92-1.09,1.43-1.09,.69,0,1.86,.8,1.86,1.54,0,.6-.65,.67-1.14,.67h-12.97c-.04,4.94-.11,10.04-3.41,12.89-.69,.6-1.86,1.31-2.42,1.31-.13,0-.27-.02-.27-.2,0-.11,.72-.8,.85-.96,1.39-1.67,2.4-3.85,2.58-8.71,.02-.42,0-2.45,0-2.92,0-.22-.02-1.11-.16-1.31-.36-.51-.38-.56-.38-.67,0-.58,1.55-1.49,2.22-1.49,.56,0,.96,.36,1.01,.94h4.17c-.02-.42-.02-.67-.09-1.67-.04-.04-.27-.22-.31-.27-.07-.07-.16-.18-.16-.31,0-.69,1.39-1.36,2.26-1.36,.31,0,1.01,.09,1.01,.87,0,.09-.04,.42-.07,.51-.04,.2-.16,1.92-.18,2.23h4.17Zm.69,4.85c.38-.6,.9-1.07,1.34-1.07,.63,0,1.75,.82,1.75,1.54,0,.58-.65,.62-.92,.62h-6.61c-.04,1.51-.04,1.62-.07,3.27h2.26c.25-.4,.9-.78,1.3-.78,.6,0,1.7,.65,1.7,1.34,0,.04-.11,.27-.13,.33-.07,.16-.07,.24-.07,1,0,.6,.09,3.61,.09,4.27,0,1.02-1.39,1.2-1.79,1.2-.34,0-1.12-.07-1.12-.69v-.69h-6.29v.47c0,.51-1.12,.89-1.72,.89-.83,0-.83-.67-.83-.96,0-.62,.11-3.72,.11-4.41v-.74s-.22-.2-.25-.24c-.07-.07-.16-.16-.16-.29,0-.6,1.25-1.36,1.93-1.36,.2,0,.72,.11,.9,.65h1.7v-2.54c0-1.02-.02-2.07-.04-3.09-.04-.04-.27-.22-.31-.27-.09-.07-.18-.18-.18-.29,0-.6,1.19-1.38,2.11-1.38,1.03,0,1.08,.51,1.08,.78,0,.36-.16,2.05-.18,2.43h4.41Zm-2.22,9.28c0-.53,.02-3.23,.02-3.83h-6.23c-.11,0-.16,.11-.16,.22v3.61h6.36Z"/></g><path class="cls-1" d="M289,0h-6V1h6V0h0Zm-12,0h-6V1h6V0h0Zm-12,0h-6V1h6V0h0Zm-12,0h-6V1h6V0h0Zm-12,0h-6V1h6V0h0Zm-12,0h-6V1h6V0h0Zm-12,0h-6V1h6V0h0Zm-12,0h-6V1h6V0h0Zm-12,0h-6V1h6V0h0Zm-12,0h-6V1h6V0h0Zm-12,0h-6V1h6V0h0Zm-12,0h-6V1h6V0h0Zm-12,0h-6V1h6V0h0Zm-12,0h-6V1h6V0h0Zm-12,0h-6V1h6V0h0Zm-12,0h-6V1h6V0h0Zm-12,0h-6V1h6V0h0Zm-12,0h-6V1h6V0h0Zm-12,0h-6V1h6V0h0Zm-12,0h-6V1h6V0h0Zm-12,0h-6V1h6V0h0Zm-12,0h-6V1h6V0h0Zm-12,0h-6V1h6V0h0ZM13,0H7V1h6V0h0ZM1,1H0V7H1V1h0Zm0,12H0v6H1v-6h0Zm0,12H0v6H1v-6h0Zm10.59,7.41H5.59v1h6v-1h0Zm12,0h-6v1h6v-1h0Zm12,0h-6v1h6v-1h0Zm12,0h-6v1h6v-1h0Zm12,0h-6v1h6v-1h0Zm12,0h-6v1h6v-1h0Zm12,0h-6v1h6v-1h0Zm12,0h-6v1h6v-1h0Zm12,0h-6v1h6v-1h0Zm12,0h-6v1h6v-1h0Zm12,0h-6v1h6v-1h0Zm12,0h-6v1h6v-1h0Zm12,0h-6v1h6v-1h0Zm12,0h-6v1h6v-1h0Zm12,0h-6v1h6v-1h0Zm12,0h-6v1h6v-1h0Zm12,0h-6v1h6v-1h0Zm12,0h-6v1h6v-1h0Zm12,0h-6v1h6v-1h0Zm12,0h-6v1h6v-1h0Zm12,0h-6v1h6v-1h0Zm12,0h-6v1h6v-1h0Zm12,0h-6v1h6v-1h0Zm12,0h-6v1h6v-1h0Zm2.41-10.59h-1v6h1v-6h0Zm0-12h-1v6h1v-6h0Zm0-8.81h-1V3.81h1V1h0Z"/></g></g></svg>