<?xml version="1.0" encoding="UTF-8"?><svg id="_圖層_2" xmlns="http://www.w3.org/2000/svg" viewBox="0 0 280 280"><defs><style>.cls-1{fill:none;}.cls-2{fill:#fff;}.cls-3{fill:#122c53;}.cls-4{fill:#112c52;}.cls-5{fill:#132d55;}</style></defs><g id="_圖層_1-2"><g><rect class="cls-1" width="280" height="280"/><g><g><g><g><rect class="cls-2" x="20.2" y="12.25" width="65.44" height="136.48"/><path class="cls-3" d="M83.14,14.75V146.24H22.7V14.75h60.44m5-5H17.7V151.24H88.14V9.75h0Z"/></g><g><path class="cls-4" d="M43.66,60.95c.7-.19,4.26-1.55,4.42-1.55,.12,0,.35,.04,.35,.23,0,1.51-9.37,6.93-12.16,6.93-1.08,0-2.29-.81-2.29-2.05s.89-1.43,1.51-1.55c.58-.12,3.41-.74,4.07-.89,0-1.28,.08-7.59,.08-9.02h-.93c-.62,0-.7,.04-1.47,.19-.19,.04-1.08,.31-1.32,.31-.35,0-.97-.19-.97-.85,0-.93,.66-1.63,1.51-1.63,.16,0,.81,.15,.97,.15h2.25c0-2.28-.04-5.07-.04-6.89,0-.27-.04-.93-.08-1.2h-1.98c-.31,0-1.7,.46-2.01,.46-.23,0-1.01-.12-1.01-.85,0-.85,.58-1.7,1.55-1.7,.23,0,1.16,.15,1.39,.15l6.35,.04c.54-.74,1.04-1.36,1.82-1.36,.97,0,2.4,1.05,2.4,2.17,0,1.04-.97,1.08-1.43,1.08h-2.79c-.08,.35-.16,1.12-.16,2.29v5.81h.77c.23-.5,.85-1.04,1.32-1.04,.77,0,1.9,.97,1.9,1.9,0,.54-.46,.93-1.36,.93h-2.67v7.94Zm20.76,.7h2.52c.35-.85,1.36-1.55,2.21-1.55,1.05,0,2.52,1.43,2.52,2.48s-1.16,1.01-1.98,1.01c-1.59,0-9.33-.08-11.08-.08-2.63,0-7.2,0-9.53,.16-.31,.04-1.94,.54-2.32,.54-.77,0-1.01-.31-1.01-.93,0-.89,.77-1.82,1.59-1.82,.19,0,1.01,.19,1.2,.19h2.87c0-1.12,.04-6.54,.04-7.78v-6.47h-.7c-.23,0-1.39,.46-1.67,.46-.66,0-1.24-.27-1.24-.97,0-.89,.81-1.47,1.59-1.47,.16,0,.93,.12,1.08,.12h.93v-.89c0-.7-.12-2.36-.15-2.52-.08-.16-.54-.74-.54-.93,0-.93,2.44-2.21,3.52-2.21,.23,0,1.51,.08,1.51,1.16,0,.31-.08,1.04-.16,1.59-.08,.78-.12,1.98-.12,2.94v.85h4.61c0-.62,0-3.56-.19-4.03-.04-.16-.5-.78-.5-.93,0-1.2,2.87-2.56,4.03-2.56,.81,0,1.43,.58,1.43,1.32,0,.23-.16,1.32-.19,1.55-.12,1.12-.16,3.37-.16,4.61h1.05c.35-.74,1.16-1.28,1.94-1.28,1.04,0,2.44,1.16,2.44,2.17,0,.66-.54,.93-1.01,1.01h-4.42l-.12,14.25Zm-8.52,3.45c.27,0,.5,.19,.5,.5,0,1.82-3.45,5.62-7.24,5.62-1.51,0-2.63-1.01-2.63-1.86,0-.39,.12-1.82,1.94-1.86,2.98-.08,5-.58,7.05-2.25,.12-.12,.31-.16,.39-.16Zm4.3-14.45v-3.29h-4.69c0,.46-.04,2.79-.04,3.29h4.73Zm0,5.27v-3.49h-4.73v3.49h4.73Zm-4.73,5.73h4.69c.04-.77,.04-.85,.04-1.98v-2.05h-4.73v4.03Zm4.18,3.1c1.7,0,9.18,2.67,9.18,5.69,0,1.12-1.16,1.94-2.25,1.94-.81,0-1.47-.39-2.09-1.16-.66-.81-1.63-2.09-2.28-2.9-.66-.81-2.94-3.21-2.94-3.29,0-.16,.19-.27,.39-.27Z"/><path class="cls-4" d="M43.66,108.95c.7-.19,4.26-1.55,4.42-1.55,.12,0,.35,.04,.35,.23,0,1.51-9.37,6.93-12.16,6.93-1.08,0-2.29-.81-2.29-2.05s.89-1.43,1.51-1.55c.58-.12,3.41-.74,4.07-.89,0-1.28,.08-7.59,.08-9.02h-.93c-.62,0-.7,.04-1.47,.19-.19,.04-1.08,.31-1.32,.31-.35,0-.97-.19-.97-.85,0-.93,.66-1.63,1.51-1.63,.16,0,.81,.15,.97,.15h2.25c0-2.28-.04-5.07-.04-6.89,0-.27-.04-.93-.08-1.2h-1.98c-.31,0-1.7,.46-2.01,.46-.23,0-1.01-.12-1.01-.85,0-.85,.58-1.7,1.55-1.7,.23,0,1.16,.15,1.39,.15l6.35,.04c.54-.74,1.04-1.36,1.82-1.36,.97,0,2.4,1.05,2.4,2.17,0,1.04-.97,1.08-1.43,1.08h-2.79c-.08,.35-.16,1.12-.16,2.29v5.81h.77c.23-.5,.85-1.04,1.32-1.04,.77,0,1.9,.97,1.9,1.9,0,.54-.46,.93-1.36,.93h-2.67v7.94Zm20.76,.7h2.52c.35-.85,1.36-1.55,2.21-1.55,1.05,0,2.52,1.43,2.52,2.48s-1.16,1.01-1.98,1.01c-1.59,0-9.33-.08-11.08-.08-2.63,0-7.2,0-9.53,.16-.31,.04-1.94,.54-2.32,.54-.77,0-1.01-.31-1.01-.93,0-.89,.77-1.82,1.59-1.82,.19,0,1.01,.19,1.2,.19h2.87c0-1.12,.04-6.54,.04-7.78v-6.47h-.7c-.23,0-1.39,.46-1.67,.46-.66,0-1.24-.27-1.24-.97,0-.89,.81-1.47,1.59-1.47,.16,0,.93,.12,1.08,.12h.93v-.89c0-.7-.12-2.36-.15-2.52-.08-.16-.54-.74-.54-.93,0-.93,2.44-2.21,3.52-2.21,.23,0,1.51,.08,1.51,1.16,0,.31-.08,1.04-.16,1.59-.08,.78-.12,1.98-.12,2.94v.85h4.61c0-.62,0-3.56-.19-4.03-.04-.16-.5-.78-.5-.93,0-1.2,2.87-2.56,4.03-2.56,.81,0,1.43,.58,1.43,1.32,0,.23-.16,1.32-.19,1.55-.12,1.12-.16,3.37-.16,4.61h1.05c.35-.74,1.16-1.28,1.94-1.28,1.04,0,2.44,1.16,2.44,2.17,0,.66-.54,.93-1.01,1.01h-4.42l-.12,14.25Zm-8.52,3.45c.27,0,.5,.19,.5,.5,0,1.82-3.45,5.62-7.24,5.62-1.51,0-2.63-1.01-2.63-1.86,0-.39,.12-1.82,1.94-1.86,2.98-.08,5-.58,7.05-2.25,.12-.12,.31-.16,.39-.16Zm4.3-14.45v-3.29h-4.69c0,.46-.04,2.79-.04,3.29h4.73Zm0,5.27v-3.49h-4.73v3.49h4.73Zm-4.73,5.73h4.69c.04-.77,.04-.85,.04-1.98v-2.05h-4.73v4.03Zm4.18,3.1c1.7,0,9.18,2.67,9.18,5.69,0,1.12-1.16,1.94-2.25,1.94-.81,0-1.47-.39-2.09-1.16-.66-.81-1.63-2.09-2.28-2.9-.66-.81-2.94-3.21-2.94-3.29,0-.16,.19-.27,.39-.27Z"/></g><path class="cls-3" d="M78.03,19.63v121.73H27.81V19.63h50.22m2-2H25.81v125.73h54.22V17.63h0Z"/></g><g><path class="cls-5" d="M94.77,183.69s-.01-.05-.02-.07c.01,.07,.02,.08,.02,.07Z"/><path class="cls-5" d="M162.27,196.13c-1.32,0-2.35,1.02-2.37,2.35-.02,1.36,1.04,2.46,2.38,2.45,1.3,0,2.36-1.05,2.38-2.36,.03-1.35-1.04-2.44-2.39-2.44Z"/><path class="cls-5" d="M128.88,197.93c-1.34-.02-2.46,1.06-2.45,2.39,0,1.28,1.07,2.37,2.36,2.4,1.33,.03,2.43-1.06,2.42-2.41,0-1.33-1.01-2.36-2.33-2.38Z"/><path class="cls-5" d="M165.27,191.03c-.03-.34-.2-.64-.52-.78-.38-.18-.77-.16-1.18-.1-.85,.11-1.69,.23-2.54,.34,0,0-.02,0-.02,0-.11,.02-.22,.03-.33,.04-.23,.04-.45,.13-.65,.25-.21,.09-.39,.22-.55,.38-.23,.23-.5,.63-.47,.97,.03,.34,.2,.64,.52,.78,.38,.18,.77,.16,1.18,.1,.96-.13,1.93-.26,2.89-.4,.23-.04,.45-.13,.65-.25,.21-.09,.39-.22,.55-.38,.23-.23,.5-.63,.47-.97Z"/><path class="cls-5" d="M132.27,193.68c.28-.16,.65-.46,.72-.8,.07-.33-.02-.67-.28-.9-.32-.28-.7-.37-1.1-.43-.84-.13-1.69-.25-2.53-.38,0,0-.02,0-.03,0-.11-.02-.22-.03-.33-.05-.24-.02-.47,0-.7,.06-.22,.03-.43,.1-.63,.22-.28,.16-.65,.46-.72,.8-.07,.33,.02,.67,.28,.9,.32,.28,.7,.37,1.11,.43,.96,.14,1.93,.28,2.89,.43,.24,.02,.47,0,.7-.06,.22-.03,.43-.1,.63-.22Z"/><path class="cls-5" d="M217.8,240.73c-.8-2.72-1.85-5.38-3.14-7.91-1.24-2.43-2.68-5.01-4.63-6.94-1.93-1.91-4.46-3.1-6.82-4.37-2.68-1.44-5.37-2.86-8.06-4.28,.06-1.31-.07-2.67-.75-3.68-1.04-1.55-3.12-2.84-4.64-3.9-3.67-2.57-8.09-3.87-11.67-6.56,3.26-2.28,6.33-4.76,8.64-8.04,1.68-2.39,3.02-4.69,4.18-7.3,1.16-2.61,1.72-5.19,1.72-5.19,2.95-12.2,.25-25.38-4.39-36.81-9.35-23-33.91-37.07-58.43-29.83-4.41,1.3-8.47,3.63-11.7,6.92-.27,.27-.74,.45-1.13,.49-4.9,.47-8.55,3.22-11.49,7.12-10.08,13.37-13.47,32.14-11.52,48.48,0,0,.79,4.64,.79,4.75,.88,4.51,2.9,8.31,4.85,12.17,1.12,2.22,2.44,4.28,3.91,6.21-2.54,2.13-5.68,3.37-8.6,4.86-1.54,.79-3.02,1.66-4.41,2.7-1.28,.95-3.02,2.04-3.92,3.37-.67,.99-.79,2.31-.72,3.66-4.03,2.11-8.19,4.11-12.06,6.49-1.56,.96-2.93,2.06-3.92,3.6-.78,1.21-1.42,2.52-2.2,3.73,0,.01-.01,.03-.02,.04-1.43,.3-2.87,.58-4.32,.79-2.15,.31-1.23,3.57,.9,3.26,6.54-.93,12.83-3.3,19.39-4.03,1.18-.13,2.36-.22,3.55-.27,.77-.03,2.18-.32,2.86,.07,1.49,.85-.09,4.44-.54,5.57-1.7,4.28-2.78,8.48-2.6,13.13,.08,2.17,3.47,2.18,3.38,0-.04-1.06,0-2.12,.07-3.16,.36,.58,.69,1.19,.94,1.83,.66,1.64,.96,3.37,1.69,4.99,1.32,2.94,3.56,5.42,6.27,7.16,1.84,1.18,3.54-1.75,1.71-2.92-1-.64-1.9-1.45-2.7-2.34,.06-.04,.12-.05,.18-.09,1.33-1.02,2.64-2.07,3.9-3.16,.77-.67,1.43-.71,2.2-.03,.99,.87,2.16,1.21,3.45,.79,2.22-.74,4.44-1.49,6.65-2.25,1.17-.4,1.89-1.21,2.23-2.39,.14-.49,.3-.98,.51-1.65,.77,1.75,1.44,3.32,2.16,4.86,2.1,4.47,5.11,8.19,9.35,10.77,2.43,1.48,4.19,3.36,4.99,6.14,.45,1.56,1.63,2.48,3.27,2.53,3.92,.1,7.84,.2,11.76,.15,3.11-.03,5.34-1.74,5.96-4.82,.4-2.01,1.43-3.21,3.12-4.05,.18-.09,.34-.22,.51-.32,3.5-1.87,5.88-4.81,7.74-8.22,2.96-5.45,3.63-11.36,3.29-17.43-.05-.86-.54-1.83-1.12-2.5-2.39-2.8-5.59-3.91-9.19-4.01-.32,0-.77,.01-.95,.21-.39,.43-.86,.98-.88,1.49-.02,.37,.59,.84,1.01,1.14,.27,.19,.7,.17,1.07,.2,2.33,.2,4.45,.93,6.21,2.53,.94,.86,.97,1.33-.01,2.09-.92,.72-1.87,1.41-2.88,2.01-1.59,.94-3.31,1.54-5.21,1.69-.06-.98-.06-1.88-.17-2.77-.35-2.99-1.46-5.76-2.65-8.49-1.4-3.23-1.95-6.54-.85-9.98,.51-1.59,1.04-3.18,1.6-4.75,.71-2-.12-3.9-2.1-4.66-1.25-.49-2.25-.25-2.63,.62-.38,.87-.07,1.41,1.24,2.14,.09,.05,.24,.07,.26,.14,.1,.31,.32,.73,.2,.93-.96,1.65-2.27,2.92-4.25,3.21-3.74,.54-6.83-1.28-8.21-4.8-.15-.37-.25-.77-.42-1.13-.37-.77-.91-1.25-1.84-.94-.86,.28-1.3,1.09-.96,2.01,.4,1.06,.79,2.17,1.45,3.06,.94,1.27,1.07,2.47,.62,3.94-.95,3.06-.65,5.99,1.1,8.77,.87,1.38,1.56,2.88,2.23,4.38,1.08,2.4,.98,4.84,0,7.38-5.38-4.14-10.65-8.2-15.93-12.26,.2-.29,.34-.48,.47-.67,.96-1.46,.51-2.6-1.2-2.97-.65-.14-1.34-.29-1.99-.23-2.56,.24-4.24-1.31-5.98-2.8,1.06-1.16,1.1-1.38,.41-2.78-.89-1.8-1.8-3.59-2.69-5.39-.12-.24-.21-.49-.26-.62,1.89,.47,3.75,1.01,5.65,1.37,.81,.15,1.38,.48,1.97,1.02,2.75,2.5,5.51,5,8.36,7.37,1.2,1,2.63,1.72,3.99,2.51,.89,.52,1.72,.3,2.21-.44,.46-.71,.23-1.53-.64-2.15-.3-.21-.63-.38-.93-.59-1.3-.88-2.66-1.69-3.89-2.67-1.95-1.56-3.81-3.24-5.7-4.87,1.19-1.4,1.2-1.73,.17-3.08-.26-.34-.57-.65-.88-.97-2.27-2.37-4.49-4.77-5.98-7.76-2.85-5.73-3.51-11.5-.7-17.48,1.68-3.57,3.17-7.23,4.76-10.85,.1-.23,.24-.43,.51-.91,0,.59,0,.88,0,1.16-.02,1.54-.08,3.08-.04,4.62,.03,1.32,.88,1.99,2.19,1.87,11.86-1.12,23.8-1.48,35.62-2.73,2.69-.29,3.27-1.03,2.99-3.74-.11-1.04-.2-2.09-.32-3.38,.3,.37,.47,.53,.57,.72,2.35,4.44,4.84,8.8,6.95,13.35,.96,2.08,1.56,4.5,1.6,6.79,.11,5.61-1.84,10.55-5.99,14.49-.29,.28-.61,.53-.86,.84-.49,.6-.6,1.28-.17,1.96,.45,.71,1.14,.9,1.93,.7,.38-.1,.73-.28,1.31-.51-.3,.47-.48,.77-.69,1.04-3.44,4.51-7.53,8.35-12.13,11.65-.46,.33-.93,.66-1.34,1.06-.75,.73-.82,1.46-.24,2.13,.61,.72,1.34,.68,2.07,.22,.68-.43,1.34-.89,1.98-1.37,3.24-2.42,6.23-5.11,9.12-8.31-.06,.54-.07,.85-.14,1.16-.21,.95-.44,1.89-.66,2.84-.36,1.6-.74,3.2-1.06,4.8-.2,1.01,.25,1.75,1.1,1.96,.78,.19,1.48-.27,1.82-1.2,.07-.19,.12-.38,.16-.58,.57-2.48,1.12-4.96,1.71-7.43,.41-1.72,.67-3.51,1.37-5.11,.83-1.91,1.92-3.7,2.99-5.51,1.72,1.29,3.57,2.3,5.47,3.26,0,.03-.03,.04-.04,.07-2.66,8.18-5.12,16.41-7.38,24.71-.57,2.1,2.69,3,3.26,.9,2.21-8.11,4.62-16.15,7.2-24.15,.23,.12,.46,.23,.68,.35,.69,.36,1.32,.78,1.96,1.2-1.15,4.86-2.22,9.72-3.57,14.54-1.34,4.76-3.22,9.34-4.77,14.03-.68,2.07,2.58,2.96,3.26,.9,1.55-4.69,3.43-9.27,4.77-14.03,1.24-4.4,2.24-8.85,3.28-13.3,.18,.14,.36,.27,.54,.41,.95,.8,1.11,.72,1.24,1.74,.16,1.27-.06,2.68-.28,3.91-1.61,8.93-4.23,18.12-7.81,26.46-.85,1.98,2.06,3.7,2.92,1.71,1.98-4.61,3.59-9.35,4.94-14.18,1.21-4.33,2.52-8.81,3.23-13.28,2.01,1.06,4.01,2.12,6.01,3.19,2.23,1.19,4.77,2.27,6.65,4,1.81,1.67,3.07,4,4.19,6.16,1.25,2.39,2.22,4.88,2.98,7.46,.61,2.09,3.88,1.2,3.26-.9Zm-131.43-13.79c-4.84,.28-9.51,1.45-14.18,2.57,.15-.26,.29-.52,.45-.77,.78-1.26,1.93-2.11,3.43-2.99,3.35-1.96,6.83-3.73,10.28-5.52,0,.01,0,.03,0,.05,.32,2.21,.75,4.41,1.25,6.59-.43,.02-.84,.05-1.23,.08Zm61.52-5.01c.18-1.71,.75-2.27,2.55-2.48-.06,1.16-.18,2.32-.18,3.48,0,2.62,.88,5.04,1.72,7.49,.94,2.74,1.64,5.57,2.42,8.36,.11,.38,.09,.8,.13,1.2,.07,.73-.24,1.14-.99,1.23-.6,.07-1.19,.17-1.98,.28,.58-3.09,.37-5.98-.51-8.79-.64-2.04-1.45-4.03-2.29-5.99-.66-1.54-1.05-3.1-.88-4.77Zm-5.63,3.3c-1.2-2.12-.84-4.24-.17-6.52,1,.35,1.95,.69,3.01,1.06-.05,.37-.06,.73-.15,1.07-.53,2.02-.3,3.95,.44,5.89,1.02,2.65,1.94,5.33,2.91,8,.74,2.05,.69,4.12,.16,6.22-.24,.91-.67,1.49-1.71,1.47-.52-.01-1.05,.11-1.82,.2,.36-1.89,.71-3.58,.99-5.29,.44-2.74-.1-5.32-1.34-7.77-.74-1.46-1.5-2.91-2.31-4.34Zm9.47,39.07c.25,1.31-.94,2.78-2.42,2.79-3.85,.03-7.7-.02-11.55-.09-.32,0-.75-.32-.92-.61-.3-.49-.43-1.08-.71-1.85,5.37,1.75,10.5,1.1,15.61-.24Zm-15.28-21.33c-5.99-.08-11.82-1.05-17.6-3.08,.73-2.49,1.44-4.91,2.21-7.51,5.22,3.47,10.37,6.88,15.51,10.3-.04,.1-.08,.2-.12,.29Zm-12.79-14.08c3.39,2.64,6.77,5.28,10.16,7.91-.05,.07-.09,.13-.14,.2-3.69-2.43-7.37-4.86-11.16-7.35,.46-.31,.76-.51,1.14-.77Zm-2.91-2.77c.28,0,.56,0,.84,0-.24,.48-.55,.75-.9,.98-2.31,1.49-4.62,2.96-6.93,4.45-.42,.27-.95,.54-1.14,.94-.23,.48-.36,1.24-.12,1.63,.23,.39,.96,.62,1.49,.64,.45,.02,.93-.31,1.38-.53,.67-.33,1.33-.69,2.07-1.07,0,.24,.02,.34,0,.43-1.12,4.1-2.2,8.21-3.4,12.28-.16,.53-.8,1.06-1.35,1.3-1.19,.52-2.5,.76-3.69,1.27-1.48,.63-2.73,.61-3.97-.55-.9-.85-1.98-.89-2.95-.16-1.89,1.44-3.73,2.94-5.56,4.44-.3-.54-.58-1.1-.8-1.68-.59-1.6-.91-3.25-1.63-4.81-.71-1.55-1.7-2.95-2.85-4.2-.04-.04-.09-.05-.13-.09h0c.67-2.48,1.98-4.76,2.55-7.26,.46-2.02,.57-4.69-1.11-6.21-.45-.4-.98-.66-1.55-.83,.02-.19,.03-.38-.02-.6-.51-2.15-.94-4.32-1.27-6.5-.17-1.08-.31-2.16-.37-3.25-.02-.45-.09-.97-.01-1.41,.09-.56,.31-.66,.79-1.08,.82-.7,1.66-1.32,2.52-1.93,.4,2.57,.87,5.09,1.43,7.64,.39,1.79,.65,3.61,1.08,5.39,.42,1.76,.99,3.48,1.55,5.2,.12,.35,.32,.59,.56,.78-.79,.29-1.58,.56-2.36,.86-.77,.3-1.23,.84-1.05,1.71,.19,.9,.84,1.33,1.7,1.18,.95-.16,1.9-.4,2.79-.76,5.3-2.19,4.38-1.25,6.49-6.53,.37-.94,.88-1.24,1.86-1.26,4.69-.1,9.37-.28,14.06-.43Zm-5.07-3.26c.16,.12,.3,.28,.45,.42-.36,.17-.66,.19-.89,.07-1.04-.52-2.1-1.03-3.09-1.63-2.09-1.26-4.12-2.62-6.24-3.85-.99-.58-1.81-.29-2.24,.53-.41,.79-.17,1.49,.78,2.1,1.27,.82,2.55,1.6,3.82,2.41,.2,.13,.36,.3,.75,.63-1.38,0-2.48,0-3.58,0-1.56-.01-2.59,.68-3.11,2.18-.38,1.1-.77,2.23-1.33,3.24-.23,.41-.59,.81-.98,1.13,0-.14,0-.27-.05-.42-.56-1.72-1.13-3.44-1.55-5.2-.43-1.78-.69-3.6-1.08-5.39-.62-2.82-1.14-5.59-1.56-8.45-.01-.09-.07-.15-.1-.23,.68-.39,1.37-.75,2.09-1.11,.07,.29,.13,.57,.2,.86,.17,.71,.33,1.41,.5,2.12,.33,1.41,.66,2.83,.99,4.24,.2,.86,1.24,1.46,2.08,1.18,.9-.29,1.4-1.16,1.18-2.08-.36-1.52-.71-3.05-1.07-4.57-.18-.76-.36-1.52-.53-2.28-.08-.35-.15-.7-.24-1.04,1.7-.89,3.33-1.87,4.83-3.09,1.22,1.33,2.5,2.61,3.92,3.78,.2,.17,.4,.37,.52,.6,1.49,2.88,2.97,5.77,4.45,8.66,.01,.03-.05,.1-.12,.23-.99-.69-1.95-1.4-2.96-2.05-.67-.43-1.35-.35-1.89,.28-.51,.59-.49,1.23-.06,1.85,.17,.24,.4,.46,.63,.64,1.83,1.42,3.66,2.82,5.49,4.23Z"/></g></g><rect class="cls-1" x="217.88" y="9.74" width="44.43" height="260.51"/></g></g></g></svg>