<?xml version="1.0" encoding="UTF-8"?><svg id="_圖層_2" xmlns="http://www.w3.org/2000/svg" viewBox="0 0 683.52 164.83"><defs><style>.cls-1{fill:#bacbd7;}.cls-2{opacity:.2;}</style></defs><g id="_圖層_1-2"><g><g class="cls-2"><path class="cls-1" d="M632.81,155.6c4.65,0,8.65,2.82,10.4,6.83-.69,.78-1.36,1.58-2.01,2.4-.96-3.76-4.35-6.55-8.4-6.56-4.05,0-7.44,2.79-8.41,6.54-.64-.82-1.32-1.62-2.01-2.4,1.76-4.01,5.76-6.82,10.42-6.81Z"/><path class="cls-1" d="M632.85,111.09c22.43,.02,41.79,13.32,50.66,32.44-.97,.03-1.94,.04-2.9,.12-8.65-17.67-26.81-29.87-47.77-29.89-20.96-.02-39.14,12.16-47.82,29.81-.96-.08-1.93-.09-2.9-.12,8.91-19.1,28.29-32.37,50.72-32.35Z"/><path class="cls-1" d="M632.82,144.48c7.86,0,14.78,4.07,18.8,10.21-.72,.54-1.44,1.07-2.12,1.64-3.52-5.5-9.68-9.17-16.68-9.18-7.01,0-13.16,3.65-16.7,9.15-.69-.57-1.41-1.1-2.12-1.64,4.03-6.12,10.96-10.18,18.82-10.17Z"/><path class="cls-1" d="M632.83,133.35c11.88,.01,22.32,6.23,28.29,15.57-.81,.39-1.6,.79-2.38,1.22-5.52-8.47-15.06-14.1-25.91-14.11-10.85,0-20.4,5.6-25.94,14.07-.78-.42-1.57-.83-2.38-1.22,5.99-9.32,16.44-15.53,28.32-15.52Z"/><path class="cls-1" d="M632.84,122.22c16.71,.01,31.28,9.25,38.96,22.86-.9,.22-1.78,.48-2.67,.75-7.3-12.49-20.81-20.93-36.29-20.94-15.48-.01-29.01,8.4-36.33,20.88-.88-.27-1.77-.53-2.67-.75,7.7-13.6,22.28-22.81,39-22.79Z"/><path class="cls-1" d="M526.77,155.51c4.65,0,8.65,2.82,10.4,6.83-.69,.78-1.36,1.58-2.01,2.4-.96-3.76-4.35-6.55-8.4-6.56-4.05,0-7.44,2.79-8.41,6.54-.64-.82-1.32-1.62-2.01-2.4,1.76-4.01,5.76-6.82,10.42-6.81Z"/><path class="cls-1" d="M526.8,111c22.43,.02,41.79,13.32,50.66,32.44-.97,.03-1.94,.04-2.9,.12-8.65-17.67-26.81-29.87-47.77-29.89-20.96-.02-39.14,12.15-47.82,29.81-.96-.08-1.93-.09-2.9-.12,8.91-19.1,28.29-32.37,50.72-32.35Z"/><path class="cls-1" d="M526.77,144.38c7.86,0,14.78,4.07,18.8,10.21-.72,.54-1.44,1.07-2.12,1.64-3.52-5.5-9.68-9.17-16.68-9.18-7.01,0-13.16,3.65-16.7,9.15-.69-.57-1.41-1.1-2.12-1.64,4.03-6.12,10.96-10.18,18.82-10.17Z"/><path class="cls-1" d="M526.78,133.26c11.88,.01,22.32,6.23,28.29,15.57-.81,.38-1.6,.79-2.38,1.22-5.52-8.48-15.06-14.1-25.91-14.11-10.85,0-20.4,5.6-25.94,14.07-.78-.42-1.57-.83-2.38-1.22,5.99-9.32,16.44-15.53,28.32-15.51Z"/><path class="cls-1" d="M526.79,122.13c16.71,.01,31.28,9.25,38.96,22.86-.9,.22-1.78,.48-2.67,.75-7.3-12.49-20.81-20.93-36.29-20.94-15.48-.01-29.01,8.4-36.33,20.88-.88-.27-1.77-.53-2.67-.75,7.7-13.6,22.28-22.81,39-22.79Z"/><path class="cls-1" d="M571.41,128.17c-.64-.82-1.32-1.62-2.01-2.4,1.76-4.01,5.76-6.82,10.42-6.81,4.65,0,8.65,2.82,10.4,6.83-.69,.78-1.36,1.58-2.01,2.4-.96-3.76-4.35-6.55-8.4-6.56-4.05,0-7.44,2.79-8.41,6.54Z"/><path class="cls-1" d="M579.86,77.11c-20.96-.02-39.14,12.15-47.82,29.81-.96-.08-1.93-.09-2.9-.12,8.91-19.1,28.29-32.37,50.72-32.35,22.43,.02,41.79,13.32,50.66,32.44-.97,.03-1.94,.04-2.9,.12-8.65-17.67-26.81-29.87-47.77-29.89Z"/><path class="cls-1" d="M598.64,118.03c-.72,.54-1.44,1.07-2.12,1.64-3.52-5.5-9.68-9.17-16.68-9.18-7.01,0-13.16,3.65-16.7,9.15-.69-.57-1.41-1.1-2.12-1.64,4.03-6.12,10.96-10.18,18.82-10.17,7.86,0,14.78,4.07,18.8,10.21Z"/><path class="cls-1" d="M553.9,113.44c-.78-.42-1.57-.83-2.38-1.22,5.99-9.32,16.44-15.53,28.32-15.51,11.88,.01,22.32,6.23,28.29,15.57-.81,.38-1.6,.79-2.38,1.22-5.52-8.47-15.06-14.1-25.91-14.11-10.85,0-20.4,5.6-25.94,14.07Z"/><path class="cls-1" d="M543.52,109.12c-.88-.27-1.77-.53-2.67-.75,7.7-13.6,22.28-22.81,39-22.79,16.71,.01,31.28,9.25,38.96,22.86-.9,.22-1.78,.48-2.67,.75-7.3-12.49-20.81-20.93-36.29-20.94-15.48-.01-29.01,8.4-36.33,20.88Z"/><path class="cls-1" d="M422.56,155.42c4.65,0,8.65,2.82,10.4,6.83-.69,.78-1.36,1.58-2.01,2.4-.96-3.76-4.35-6.55-8.4-6.56-4.05,0-7.44,2.79-8.41,6.54-.64-.82-1.32-1.62-2.01-2.4,1.76-4.01,5.76-6.82,10.42-6.81Z"/><path class="cls-1" d="M422.6,110.91c22.43,.02,41.79,13.32,50.66,32.44-.97,.03-1.94,.04-2.9,.12-8.65-17.67-26.81-29.87-47.77-29.89-20.96-.02-39.14,12.16-47.82,29.81-.96-.08-1.93-.09-2.9-.12,8.91-19.1,28.29-32.37,50.72-32.35Z"/><path class="cls-1" d="M422.57,144.29c7.86,0,14.78,4.07,18.8,10.21-.72,.54-1.44,1.07-2.12,1.64-3.52-5.5-9.68-9.17-16.68-9.18-7.01,0-13.16,3.65-16.7,9.15-.69-.57-1.41-1.1-2.12-1.64,4.03-6.12,10.96-10.18,18.82-10.17Z"/><path class="cls-1" d="M422.58,133.17c11.88,.01,22.32,6.23,28.29,15.57-.81,.38-1.6,.79-2.38,1.22-5.52-8.47-15.06-14.1-25.91-14.11-10.85,0-20.4,5.6-25.94,14.07-.78-.42-1.57-.83-2.38-1.22,5.99-9.32,16.44-15.53,28.32-15.51Z"/><path class="cls-1" d="M422.59,122.04c16.71,.01,31.28,9.25,38.95,22.86-.9,.22-1.78,.48-2.67,.75-7.3-12.49-20.81-20.93-36.29-20.94-15.48-.01-29.01,8.4-36.33,20.88-.88-.27-1.77-.53-2.67-.75,7.7-13.6,22.28-22.81,39-22.79Z"/><path class="cls-1" d="M361.16,127.98c-.64-.82-1.32-1.62-2.01-2.4,1.76-4.01,5.76-6.82,10.42-6.81,4.65,0,8.65,2.82,10.4,6.83-.69,.78-1.36,1.58-2.01,2.4-.96-3.76-4.35-6.55-8.4-6.56-4.05,0-7.44,2.79-8.41,6.54Z"/><path class="cls-1" d="M369.6,76.93c-20.96-.02-39.14,12.15-47.82,29.81-.96-.08-1.93-.09-2.9-.12,8.91-19.1,28.29-32.37,50.72-32.35,22.43,.02,41.79,13.32,50.66,32.44-.97,.03-1.94,.04-2.9,.12-8.65-17.67-26.81-29.87-47.77-29.89Z"/><path class="cls-1" d="M388.38,117.85c-.72,.54-1.44,1.07-2.12,1.64-3.52-5.5-9.68-9.17-16.68-9.18-7.01,0-13.16,3.65-16.7,9.15-.69-.57-1.41-1.1-2.12-1.64,4.03-6.12,10.96-10.18,18.82-10.17,7.86,0,14.79,4.07,18.8,10.21Z"/><path class="cls-1" d="M343.65,113.25c-.78-.42-1.57-.83-2.38-1.22,5.99-9.32,16.44-15.53,28.32-15.51,11.88,.01,22.32,6.23,28.29,15.57-.81,.38-1.6,.79-2.38,1.22-5.52-8.47-15.06-14.1-25.91-14.11-10.85,0-20.4,5.6-25.94,14.07Z"/><path class="cls-1" d="M333.27,108.93c-.88-.27-1.77-.53-2.67-.75,7.7-13.6,22.28-22.81,39-22.79,16.71,.01,31.28,9.25,38.95,22.86-.9,.22-1.78,.48-2.67,.75-7.3-12.49-20.81-20.93-36.29-20.94-15.48-.01-29.01,8.4-36.33,20.88Z"/><path class="cls-1" d="M467.2,128.08c-.64-.82-1.32-1.62-2.01-2.4,1.76-4.01,5.76-6.82,10.42-6.81,4.65,0,8.65,2.82,10.4,6.83-.69,.78-1.36,1.58-2.01,2.4-.96-3.76-4.35-6.55-8.4-6.56-4.05,0-7.44,2.79-8.41,6.54Z"/><path class="cls-1" d="M475.65,77.02c-20.96-.02-39.14,12.15-47.82,29.81-.96-.08-1.93-.09-2.9-.12,8.91-19.1,28.29-32.37,50.72-32.35,22.43,.02,41.79,13.32,50.66,32.44-.97,.03-1.94,.04-2.9,.12-8.65-17.67-26.81-29.87-47.77-29.89Z"/><path class="cls-1" d="M494.43,117.94c-.72,.54-1.44,1.07-2.12,1.64-3.52-5.5-9.68-9.17-16.68-9.18-7.01,0-13.16,3.65-16.7,9.15-.69-.57-1.41-1.1-2.12-1.64,4.03-6.12,10.96-10.18,18.82-10.17,7.86,0,14.79,4.07,18.8,10.21Z"/><path class="cls-1" d="M449.7,113.35c-.78-.42-1.57-.83-2.38-1.22,5.99-9.32,16.44-15.53,28.32-15.51,11.88,.01,22.32,6.23,28.29,15.57-.81,.39-1.6,.79-2.38,1.22-5.52-8.47-15.06-14.1-25.91-14.11-10.85,0-20.4,5.6-25.94,14.07Z"/><path class="cls-1" d="M439.31,109.03c-.88-.27-1.76-.53-2.66-.75,7.7-13.6,22.28-22.81,38.99-22.79,16.71,.01,31.28,9.25,38.96,22.86-.9,.22-1.78,.48-2.67,.75-7.3-12.49-20.81-20.93-36.29-20.94-15.48-.01-29.01,8.4-36.33,20.88Z"/></g><g class="cls-2"><path class="cls-1" d="M421.56,81.34c4.65,0,8.65,2.82,10.4,6.83-.69,.78-1.36,1.58-2.01,2.4-.96-3.76-4.35-6.55-8.4-6.56-4.05,0-7.44,2.79-8.41,6.54-.64-.82-1.32-1.62-2.01-2.4,1.76-4.01,5.76-6.82,10.42-6.81Z"/><path class="cls-1" d="M421.6,36.83c22.43,.02,41.79,13.32,50.66,32.44-.97,.03-1.94,.04-2.9,.12-8.65-17.67-26.81-29.87-47.77-29.89-20.96-.02-39.14,12.16-47.82,29.81-.96-.08-1.93-.09-2.9-.12,8.91-19.1,28.29-32.37,50.72-32.35Z"/><path class="cls-1" d="M421.57,70.22c7.86,0,14.78,4.07,18.8,10.21-.72,.54-1.44,1.07-2.12,1.64-3.52-5.5-9.68-9.17-16.68-9.18-7.01,0-13.16,3.65-16.7,9.15-.69-.57-1.41-1.1-2.12-1.64,4.03-6.12,10.96-10.18,18.82-10.17Z"/><path class="cls-1" d="M421.58,59.09c11.88,.01,22.32,6.23,28.29,15.57-.81,.39-1.6,.79-2.38,1.22-5.52-8.47-15.06-14.1-25.91-14.11-10.85,0-20.4,5.6-25.94,14.07-.78-.42-1.57-.83-2.38-1.22,5.99-9.32,16.44-15.53,28.32-15.52Z"/><path class="cls-1" d="M421.59,47.96c16.71,.01,31.28,9.25,38.96,22.86-.9,.22-1.78,.48-2.67,.75-7.3-12.49-20.81-20.93-36.29-20.94-15.48-.01-29.01,8.4-36.33,20.88-.88-.27-1.77-.53-2.67-.75,7.7-13.6,22.28-22.81,39-22.79Z"/><path class="cls-1" d="M315.51,81.25c4.65,0,8.65,2.82,10.4,6.83-.69,.78-1.36,1.58-2.01,2.4-.96-3.76-4.35-6.55-8.4-6.56-4.05,0-7.44,2.79-8.41,6.54-.64-.82-1.32-1.62-2.01-2.4,1.76-4.01,5.76-6.82,10.42-6.81Z"/><path class="cls-1" d="M315.55,36.74c22.43,.02,41.79,13.32,50.66,32.44-.97,.03-1.94,.04-2.9,.12-8.65-17.67-26.81-29.87-47.77-29.89-20.96-.02-39.14,12.15-47.82,29.81-.96-.08-1.93-.09-2.9-.12,8.91-19.1,28.29-32.37,50.72-32.35Z"/><path class="cls-1" d="M315.52,70.12c7.86,0,14.78,4.07,18.8,10.21-.72,.54-1.44,1.07-2.12,1.64-3.52-5.5-9.68-9.17-16.68-9.18-7.01,0-13.16,3.65-16.7,9.15-.69-.57-1.41-1.1-2.12-1.64,4.03-6.12,10.96-10.18,18.82-10.17Z"/><path class="cls-1" d="M315.53,59c11.88,.01,22.32,6.23,28.29,15.57-.81,.38-1.6,.79-2.38,1.22-5.52-8.48-15.06-14.1-25.91-14.11-10.85,0-20.4,5.6-25.94,14.07-.78-.42-1.57-.83-2.38-1.22,5.99-9.32,16.44-15.53,28.32-15.51Z"/><path class="cls-1" d="M315.54,47.87c16.71,.01,31.28,9.25,38.96,22.86-.9,.22-1.78,.48-2.67,.75-7.3-12.49-20.81-20.93-36.29-20.94-15.48-.01-29.01,8.4-36.33,20.88-.88-.27-1.77-.53-2.67-.75,7.7-13.6,22.28-22.81,39-22.79Z"/><path class="cls-1" d="M360.16,53.91c-.64-.82-1.32-1.62-2.01-2.4,1.76-4.01,5.76-6.82,10.42-6.81,4.65,0,8.65,2.82,10.4,6.83-.69,.78-1.36,1.58-2.01,2.4-.96-3.76-4.35-6.55-8.4-6.56-4.05,0-7.44,2.79-8.41,6.54Z"/><path class="cls-1" d="M368.6,2.85c-20.96-.02-39.14,12.15-47.82,29.81-.96-.08-1.93-.09-2.9-.12C326.79,13.43,346.18,.16,368.61,.18c22.43,.02,41.79,13.32,50.66,32.44-.97,.03-1.94,.04-2.9,.12-8.65-17.67-26.81-29.87-47.77-29.89Z"/><path class="cls-1" d="M387.38,43.78c-.72,.54-1.44,1.07-2.12,1.64-3.52-5.5-9.68-9.17-16.68-9.18-7.01,0-13.16,3.65-16.7,9.15-.69-.57-1.41-1.1-2.12-1.64,4.03-6.12,10.96-10.18,18.82-10.17,7.86,0,14.78,4.07,18.8,10.21Z"/><path class="cls-1" d="M342.65,39.18c-.78-.42-1.57-.83-2.38-1.22,5.99-9.32,16.44-15.53,28.32-15.51,11.88,.01,22.32,6.23,28.29,15.57-.81,.38-1.6,.79-2.38,1.22-5.52-8.47-15.06-14.1-25.91-14.11-10.85,0-20.4,5.6-25.94,14.07Z"/><path class="cls-1" d="M332.27,34.86c-.88-.27-1.77-.53-2.67-.75,7.7-13.6,22.28-22.81,39-22.79,16.71,.01,31.28,9.25,38.96,22.86-.9,.22-1.78,.48-2.67,.75-7.3-12.49-20.81-20.93-36.29-20.94-15.48-.01-29.01,8.4-36.33,20.88Z"/><path class="cls-1" d="M211.3,81.16c4.65,0,8.65,2.82,10.4,6.83-.69,.78-1.36,1.58-2.01,2.4-.96-3.76-4.35-6.55-8.4-6.56-4.05,0-7.44,2.79-8.41,6.54-.64-.82-1.32-1.62-2.01-2.4,1.76-4.01,5.76-6.82,10.42-6.81Z"/><path class="cls-1" d="M211.34,36.65c22.43,.02,41.79,13.32,50.66,32.44-.97,.03-1.94,.04-2.9,.12-8.65-17.67-26.81-29.87-47.77-29.89-20.96-.02-39.14,12.16-47.82,29.81-.96-.08-1.93-.09-2.9-.12,8.91-19.1,28.29-32.37,50.72-32.35Z"/><path class="cls-1" d="M211.31,70.03c7.86,0,14.78,4.07,18.8,10.21-.72,.54-1.44,1.07-2.12,1.64-3.52-5.5-9.68-9.17-16.68-9.18-7.01,0-13.16,3.65-16.7,9.15-.69-.57-1.41-1.1-2.12-1.64,4.03-6.12,10.96-10.18,18.82-10.17Z"/><path class="cls-1" d="M211.32,58.91c11.88,.01,22.32,6.23,28.29,15.57-.81,.38-1.6,.79-2.38,1.22-5.52-8.47-15.06-14.1-25.91-14.11-10.85,0-20.4,5.6-25.94,14.07-.78-.42-1.57-.83-2.38-1.22,5.99-9.32,16.44-15.53,28.32-15.51Z"/><path class="cls-1" d="M211.33,47.78c16.71,.01,31.28,9.25,38.95,22.86-.9,.22-1.78,.48-2.67,.75-7.3-12.49-20.81-20.93-36.29-20.94-15.48-.01-29.01,8.4-36.33,20.88-.88-.27-1.77-.53-2.67-.75,7.7-13.6,22.28-22.81,39-22.79Z"/><path class="cls-1" d="M149.9,53.72c-.64-.82-1.32-1.62-2.01-2.4,1.76-4.01,5.76-6.82,10.42-6.81,4.65,0,8.65,2.82,10.4,6.83-.69,.78-1.36,1.58-2.01,2.4-.96-3.76-4.35-6.55-8.4-6.56-4.05,0-7.44,2.79-8.41,6.54Z"/><path class="cls-1" d="M158.35,2.67c-20.96-.02-39.14,12.15-47.82,29.81-.96-.08-1.93-.09-2.9-.12C116.54,13.25,135.92-.02,158.35,0c22.43,.02,41.79,13.32,50.66,32.44-.97,.03-1.94,.04-2.9,.12-8.65-17.67-26.81-29.87-47.77-29.89Z"/><path class="cls-1" d="M177.13,43.59c-.72,.54-1.44,1.07-2.12,1.64-3.52-5.5-9.68-9.17-16.68-9.18-7.01,0-13.16,3.65-16.7,9.15-.69-.57-1.41-1.1-2.12-1.64,4.03-6.12,10.96-10.18,18.82-10.17,7.86,0,14.79,4.07,18.8,10.21Z"/><path class="cls-1" d="M132.39,38.99c-.78-.42-1.57-.83-2.38-1.22,5.99-9.32,16.44-15.53,28.32-15.51,11.88,.01,22.32,6.23,28.29,15.57-.81,.38-1.6,.79-2.38,1.22-5.52-8.47-15.06-14.1-25.91-14.11-10.85,0-20.4,5.6-25.94,14.07Z"/><path class="cls-1" d="M122.01,34.67c-.88-.27-1.77-.53-2.67-.75,7.7-13.6,22.28-22.81,39-22.79,16.71,.01,31.28,9.25,38.95,22.86-.9,.22-1.78,.48-2.67,.75-7.3-12.49-20.81-20.93-36.29-20.94-15.48-.01-29.01,8.4-36.33,20.88Z"/><path class="cls-1" d="M255.95,53.82c-.64-.82-1.32-1.62-2.01-2.4,1.76-4.01,5.76-6.82,10.42-6.81,4.65,0,8.65,2.82,10.4,6.83-.69,.78-1.36,1.58-2.01,2.4-.96-3.76-4.35-6.55-8.4-6.56-4.05,0-7.44,2.79-8.41,6.54Z"/><path class="cls-1" d="M264.4,2.76c-20.96-.02-39.14,12.15-47.82,29.81-.96-.08-1.93-.09-2.9-.12C222.59,13.34,241.97,.07,264.4,.09c22.43,.02,41.79,13.32,50.66,32.44-.97,.03-1.94,.04-2.9,.12-8.65-17.67-26.81-29.87-47.77-29.89Z"/><path class="cls-1" d="M283.17,43.68c-.72,.54-1.44,1.07-2.12,1.64-3.52-5.5-9.68-9.17-16.68-9.18-7.01,0-13.16,3.65-16.7,9.15-.69-.57-1.41-1.1-2.12-1.64,4.03-6.12,10.96-10.18,18.82-10.17,7.86,0,14.79,4.07,18.8,10.21Z"/><path class="cls-1" d="M238.44,39.09c-.78-.42-1.57-.83-2.38-1.22,5.99-9.32,16.44-15.53,28.32-15.51,11.88,.01,22.32,6.23,28.29,15.57-.81,.39-1.6,.79-2.38,1.22-5.52-8.47-15.06-14.1-25.91-14.11-10.85,0-20.4,5.6-25.94,14.07Z"/><path class="cls-1" d="M228.06,34.77c-.88-.27-1.76-.53-2.66-.75,7.7-13.6,22.28-22.81,38.99-22.79,16.71,.01,31.28,9.25,38.96,22.86-.9,.22-1.78,.48-2.67,.75-7.3-12.49-20.81-20.93-36.29-20.94-15.48-.01-29.01,8.4-36.33,20.88Z"/></g><g class="cls-2"><path class="cls-1" d="M313.93,154.75c4.65,0,8.65,2.82,10.4,6.83-.69,.78-1.36,1.58-2.01,2.4-.96-3.76-4.35-6.55-8.4-6.56-4.05,0-7.44,2.79-8.41,6.54-.64-.82-1.32-1.62-2.01-2.4,1.76-4.01,5.76-6.82,10.42-6.81Z"/><path class="cls-1" d="M313.97,110.24c22.43,.02,41.79,13.32,50.66,32.44-.97,.03-1.94,.04-2.9,.12-8.65-17.67-26.81-29.87-47.77-29.89-20.96-.02-39.14,12.16-47.82,29.81-.96-.08-1.93-.09-2.9-.12,8.91-19.1,28.29-32.37,50.72-32.35Z"/><path class="cls-1" d="M313.94,143.63c7.86,0,14.78,4.07,18.8,10.21-.72,.54-1.44,1.07-2.12,1.64-3.52-5.5-9.68-9.17-16.68-9.18-7.01,0-13.16,3.65-16.7,9.15-.69-.57-1.41-1.1-2.12-1.64,4.03-6.12,10.96-10.18,18.82-10.17Z"/><path class="cls-1" d="M313.95,132.5c11.88,.01,22.32,6.23,28.29,15.57-.81,.39-1.6,.79-2.38,1.22-5.52-8.47-15.06-14.1-25.91-14.11-10.85,0-20.4,5.6-25.94,14.07-.78-.42-1.57-.83-2.38-1.22,5.99-9.32,16.44-15.53,28.32-15.52Z"/><path class="cls-1" d="M313.96,121.37c16.71,.01,31.28,9.25,38.96,22.86-.9,.22-1.78,.48-2.67,.75-7.3-12.49-20.81-20.93-36.29-20.94-15.48-.01-29.01,8.4-36.33,20.88-.88-.27-1.77-.53-2.67-.75,7.7-13.6,22.28-22.81,39-22.79Z"/><path class="cls-1" d="M207.88,154.66c4.65,0,8.65,2.82,10.4,6.83-.69,.78-1.36,1.58-2.01,2.4-.96-3.76-4.35-6.55-8.4-6.56-4.05,0-7.44,2.79-8.41,6.54-.64-.82-1.32-1.62-2.01-2.4,1.76-4.01,5.76-6.82,10.42-6.81Z"/><path class="cls-1" d="M207.92,110.15c22.43,.02,41.79,13.32,50.66,32.44-.97,.03-1.94,.04-2.9,.12-8.65-17.67-26.81-29.87-47.77-29.89-20.96-.02-39.14,12.15-47.82,29.81-.96-.08-1.93-.09-2.9-.12,8.91-19.1,28.29-32.37,50.72-32.35Z"/><path class="cls-1" d="M207.89,143.53c7.86,0,14.78,4.07,18.8,10.21-.72,.54-1.44,1.07-2.12,1.64-3.52-5.5-9.68-9.17-16.68-9.18-7.01,0-13.16,3.65-16.7,9.15-.69-.57-1.41-1.1-2.12-1.64,4.03-6.12,10.96-10.18,18.82-10.17Z"/><path class="cls-1" d="M207.9,132.4c11.88,.01,22.32,6.23,28.29,15.57-.81,.38-1.6,.79-2.38,1.22-5.52-8.48-15.06-14.1-25.91-14.11-10.85,0-20.4,5.6-25.94,14.07-.78-.42-1.57-.83-2.38-1.22,5.99-9.32,16.44-15.53,28.32-15.51Z"/><path class="cls-1" d="M207.91,121.28c16.71,.01,31.28,9.25,38.96,22.86-.9,.22-1.78,.48-2.67,.75-7.3-12.49-20.81-20.93-36.29-20.94-15.48-.01-29.01,8.4-36.33,20.88-.88-.27-1.77-.53-2.67-.75,7.7-13.6,22.28-22.81,39-22.79Z"/><path class="cls-1" d="M252.52,127.32c-.64-.82-1.32-1.62-2.01-2.4,1.76-4.01,5.76-6.82,10.42-6.81,4.65,0,8.65,2.82,10.4,6.83-.69,.78-1.36,1.58-2.01,2.4-.96-3.76-4.35-6.55-8.4-6.56-4.05,0-7.44,2.79-8.41,6.54Z"/><path class="cls-1" d="M260.97,76.26c-20.96-.02-39.14,12.15-47.82,29.81-.96-.08-1.93-.09-2.9-.12,8.91-19.1,28.29-32.37,50.72-32.35,22.43,.02,41.79,13.32,50.66,32.44-.97,.03-1.94,.04-2.9,.12-8.65-17.67-26.81-29.87-47.77-29.89Z"/><path class="cls-1" d="M279.75,117.18c-.72,.54-1.44,1.07-2.12,1.64-3.52-5.5-9.68-9.17-16.68-9.18-7.01,0-13.16,3.65-16.7,9.15-.69-.57-1.41-1.1-2.12-1.64,4.03-6.12,10.96-10.18,18.82-10.17,7.86,0,14.78,4.07,18.8,10.21Z"/><path class="cls-1" d="M235.01,112.59c-.78-.42-1.57-.83-2.38-1.22,5.99-9.32,16.44-15.53,28.32-15.51,11.88,.01,22.32,6.23,28.29,15.57-.81,.38-1.6,.79-2.38,1.22-5.52-8.47-15.06-14.1-25.91-14.11-10.85,0-20.4,5.6-25.94,14.07Z"/><path class="cls-1" d="M224.63,108.27c-.88-.27-1.77-.53-2.67-.75,7.7-13.6,22.28-22.81,39-22.79,16.71,.01,31.28,9.25,38.96,22.86-.9,.22-1.78,.48-2.67,.75-7.3-12.49-20.81-20.93-36.29-20.94-15.48-.01-29.01,8.4-36.33,20.88Z"/><path class="cls-1" d="M103.67,154.57c4.65,0,8.65,2.82,10.4,6.83-.69,.78-1.36,1.58-2.01,2.4-.96-3.76-4.35-6.55-8.4-6.56-4.05,0-7.44,2.79-8.41,6.54-.64-.82-1.32-1.62-2.01-2.4,1.76-4.01,5.76-6.82,10.42-6.81Z"/><path class="cls-1" d="M103.71,110.06c22.43,.02,41.79,13.32,50.66,32.44-.97,.03-1.94,.04-2.9,.12-8.65-17.67-26.81-29.87-47.77-29.89-20.96-.02-39.14,12.16-47.82,29.81-.96-.08-1.93-.09-2.9-.12,8.91-19.1,28.29-32.37,50.72-32.35Z"/><path class="cls-1" d="M103.68,143.44c7.86,0,14.78,4.07,18.8,10.21-.72,.54-1.44,1.07-2.12,1.64-3.52-5.5-9.68-9.17-16.68-9.18-7.01,0-13.16,3.65-16.7,9.15-.69-.57-1.41-1.1-2.12-1.64,4.03-6.12,10.96-10.18,18.82-10.17Z"/><path class="cls-1" d="M103.69,132.31c11.88,.01,22.32,6.23,28.29,15.57-.81,.38-1.6,.79-2.38,1.22-5.52-8.47-15.06-14.1-25.91-14.11-10.85,0-20.4,5.6-25.94,14.07-.78-.42-1.57-.83-2.38-1.22,5.99-9.32,16.44-15.53,28.32-15.51Z"/><path class="cls-1" d="M103.7,121.19c16.71,.01,31.28,9.25,38.95,22.86-.9,.22-1.78,.48-2.67,.75-7.3-12.49-20.81-20.93-36.29-20.94-15.48-.01-29.01,8.4-36.33,20.88-.88-.27-1.77-.53-2.67-.75,7.7-13.6,22.28-22.81,39-22.79Z"/><path class="cls-1" d="M42.27,127.13c-.64-.82-1.32-1.62-2.01-2.4,1.76-4.01,5.76-6.82,10.42-6.81,4.65,0,8.65,2.82,10.4,6.83-.69,.78-1.36,1.58-2.01,2.4-.96-3.76-4.35-6.55-8.4-6.56s-7.44,2.79-8.41,6.54Z"/><path class="cls-1" d="M50.72,76.08c-20.96-.02-39.14,12.15-47.82,29.81-.96-.08-1.93-.09-2.9-.12,8.91-19.1,28.29-32.37,50.72-32.35,22.43,.02,41.79,13.32,50.66,32.44-.97,.03-1.94,.04-2.9,.12-8.65-17.67-26.81-29.87-47.77-29.89Z"/><path class="cls-1" d="M69.49,117c-.72,.54-1.44,1.07-2.12,1.64-3.52-5.5-9.68-9.17-16.68-9.18-7.01,0-13.16,3.65-16.7,9.15-.69-.57-1.41-1.1-2.12-1.64,4.03-6.12,10.96-10.18,18.82-10.17,7.86,0,14.79,4.07,18.8,10.21Z"/><path class="cls-1" d="M24.76,112.4c-.78-.42-1.57-.83-2.38-1.22,5.99-9.32,16.44-15.53,28.32-15.51,11.88,.01,22.32,6.23,28.29,15.57-.81,.38-1.6,.79-2.38,1.22-5.52-8.47-15.06-14.1-25.91-14.11-10.85,0-20.4,5.6-25.94,14.07Z"/><path class="cls-1" d="M14.38,108.08c-.88-.27-1.77-.53-2.67-.75,7.7-13.6,22.28-22.81,39-22.79,16.71,.01,31.28,9.25,38.95,22.86-.9,.22-1.78,.48-2.67,.75-7.3-12.49-20.81-20.93-36.29-20.94-15.48-.01-29.01,8.4-36.33,20.88Z"/><path class="cls-1" d="M148.32,127.22c-.64-.82-1.32-1.62-2.01-2.4,1.76-4.01,5.76-6.82,10.42-6.81,4.65,0,8.65,2.82,10.4,6.83-.69,.78-1.36,1.58-2.01,2.4-.96-3.76-4.35-6.55-8.4-6.56-4.05,0-7.44,2.79-8.41,6.54Z"/><path class="cls-1" d="M156.77,76.17c-20.96-.02-39.14,12.15-47.82,29.81-.96-.08-1.93-.09-2.9-.12,8.91-19.1,28.29-32.37,50.72-32.35,22.43,.02,41.79,13.32,50.66,32.44-.97,.03-1.94,.04-2.9,.12-8.65-17.67-26.81-29.87-47.77-29.89Z"/><path class="cls-1" d="M175.54,117.09c-.72,.54-1.44,1.07-2.12,1.64-3.52-5.5-9.68-9.17-16.68-9.18-7.01,0-13.16,3.65-16.7,9.15-.69-.57-1.41-1.1-2.12-1.64,4.03-6.12,10.96-10.18,18.82-10.17,7.86,0,14.79,4.07,18.8,10.21Z"/><path class="cls-1" d="M130.81,112.49c-.78-.42-1.57-.83-2.38-1.22,5.99-9.32,16.44-15.53,28.32-15.51,11.88,.01,22.32,6.23,28.29,15.57-.81,.39-1.6,.79-2.38,1.22-5.52-8.47-15.06-14.1-25.91-14.11-10.85,0-20.4,5.6-25.94,14.07Z"/><path class="cls-1" d="M120.43,108.17c-.88-.27-1.76-.53-2.66-.75,7.7-13.6,22.28-22.81,38.99-22.79,16.71,.01,31.28,9.25,38.96,22.86-.9,.22-1.78,.48-2.67,.75-7.3-12.49-20.81-20.93-36.29-20.94-15.48-.01-29.01,8.4-36.33,20.88Z"/></g></g></g></svg>