<?xml version="1.0" encoding="UTF-8"?><svg id="_圖層_2" xmlns="http://www.w3.org/2000/svg" viewBox="0 0 683.52 164.83"><defs><style>.cls-1{fill:#bacbd7;}.cls-2{opacity:.2;}</style></defs><g id="_圖層_1-2"><g><g class="cls-2"><path class="cls-1" d="M50.7,155.6c-4.65,0-8.65,2.82-10.4,6.83,.69,.78,1.36,1.58,2.01,2.4,.96-3.76,4.35-6.55,8.4-6.56,4.05,0,7.44,2.79,8.41,6.54,.64-.82,1.32-1.62,2.01-2.4-1.76-4.01-5.76-6.82-10.42-6.81Z"/><path class="cls-1" d="M50.66,111.09c-22.43,.02-41.79,13.32-50.66,32.44,.97,.03,1.94,.04,2.9,.12,8.65-17.67,26.81-29.87,47.77-29.89,20.96-.02,39.14,12.16,47.82,29.81,.96-.08,1.93-.09,2.9-.12-8.91-19.1-28.29-32.37-50.72-32.35Z"/><path class="cls-1" d="M50.69,144.48c-7.86,0-14.78,4.07-18.8,10.21,.72,.54,1.44,1.07,2.12,1.64,3.52-5.5,9.68-9.17,16.68-9.18,7.01,0,13.16,3.65,16.7,9.15,.69-.57,1.41-1.1,2.12-1.64-4.03-6.12-10.96-10.18-18.82-10.17Z"/><path class="cls-1" d="M50.68,133.35c-11.88,.01-22.32,6.23-28.29,15.57,.81,.39,1.6,.79,2.38,1.22,5.52-8.47,15.06-14.1,25.91-14.11,10.85,0,20.4,5.6,25.94,14.07,.78-.42,1.57-.83,2.38-1.22-5.99-9.32-16.44-15.53-28.32-15.52Z"/><path class="cls-1" d="M50.67,122.22c-16.71,.01-31.28,9.25-38.96,22.86,.9,.22,1.78,.48,2.67,.75,7.3-12.49,20.81-20.93,36.29-20.94,15.48-.01,29.01,8.4,36.33,20.88,.88-.27,1.77-.53,2.67-.75-7.7-13.6-22.28-22.81-39-22.79Z"/><path class="cls-1" d="M156.75,155.51c-4.65,0-8.65,2.82-10.4,6.83,.69,.78,1.36,1.58,2.01,2.4,.96-3.76,4.35-6.55,8.4-6.56,4.05,0,7.44,2.79,8.41,6.54,.64-.82,1.32-1.62,2.01-2.4-1.76-4.01-5.76-6.82-10.42-6.81Z"/><path class="cls-1" d="M156.71,111c-22.43,.02-41.79,13.32-50.66,32.44,.97,.03,1.94,.04,2.9,.12,8.65-17.67,26.81-29.87,47.77-29.89,20.96-.02,39.14,12.15,47.82,29.81,.96-.08,1.93-.09,2.9-.12-8.91-19.1-28.29-32.37-50.72-32.35Z"/><path class="cls-1" d="M156.74,144.38c-7.86,0-14.78,4.07-18.8,10.21,.72,.54,1.44,1.07,2.12,1.64,3.52-5.5,9.68-9.17,16.68-9.18,7.01,0,13.16,3.65,16.7,9.15,.69-.57,1.41-1.1,2.12-1.64-4.03-6.12-10.96-10.18-18.82-10.17Z"/><path class="cls-1" d="M156.73,133.26c-11.88,.01-22.32,6.23-28.29,15.57,.81,.38,1.6,.79,2.38,1.22,5.52-8.48,15.06-14.1,25.91-14.11,10.85,0,20.4,5.6,25.94,14.07,.78-.42,1.57-.83,2.38-1.22-5.99-9.32-16.44-15.53-28.32-15.51Z"/><path class="cls-1" d="M156.72,122.13c-16.71,.01-31.28,9.25-38.96,22.86,.9,.22,1.78,.48,2.67,.75,7.3-12.49,20.81-20.93,36.29-20.94,15.48-.01,29.01,8.4,36.33,20.88,.88-.27,1.77-.53,2.67-.75-7.7-13.6-22.28-22.81-39-22.79Z"/><path class="cls-1" d="M112.1,128.17c.64-.82,1.32-1.62,2.01-2.4-1.76-4.01-5.76-6.82-10.42-6.81-4.65,0-8.65,2.82-10.4,6.83,.69,.78,1.36,1.58,2.01,2.4,.96-3.76,4.35-6.55,8.4-6.56,4.05,0,7.44,2.79,8.41,6.54Z"/><path class="cls-1" d="M103.66,77.11c20.96-.02,39.14,12.15,47.82,29.81,.96-.08,1.93-.09,2.9-.12-8.91-19.1-28.29-32.37-50.72-32.35-22.43,.02-41.79,13.32-50.66,32.44,.97,.03,1.94,.04,2.9,.12,8.65-17.67,26.81-29.87,47.77-29.89Z"/><path class="cls-1" d="M84.88,118.03c.72,.54,1.44,1.07,2.12,1.64,3.52-5.5,9.68-9.17,16.68-9.18,7.01,0,13.16,3.65,16.7,9.15,.69-.57,1.41-1.1,2.12-1.64-4.03-6.12-10.96-10.18-18.82-10.17-7.86,0-14.78,4.07-18.8,10.21Z"/><path class="cls-1" d="M129.61,113.44c.78-.42,1.57-.83,2.38-1.22-5.99-9.32-16.44-15.53-28.32-15.51-11.88,.01-22.32,6.23-28.29,15.57,.81,.38,1.6,.79,2.38,1.22,5.52-8.47,15.06-14.1,25.91-14.11,10.85,0,20.4,5.6,25.94,14.07Z"/><path class="cls-1" d="M139.99,109.12c.88-.27,1.77-.53,2.67-.75-7.7-13.6-22.28-22.81-39-22.79-16.71,.01-31.28,9.25-38.96,22.86,.9,.22,1.78,.48,2.67,.75,7.3-12.49,20.81-20.93,36.29-20.94,15.48-.01,29.01,8.4,36.33,20.88Z"/><path class="cls-1" d="M260.96,155.42c-4.65,0-8.65,2.82-10.4,6.83,.69,.78,1.36,1.58,2.01,2.4,.96-3.76,4.35-6.55,8.4-6.56,4.05,0,7.44,2.79,8.41,6.54,.64-.82,1.32-1.62,2.01-2.4-1.76-4.01-5.76-6.82-10.42-6.81Z"/><path class="cls-1" d="M260.92,110.91c-22.43,.02-41.79,13.32-50.66,32.44,.97,.03,1.94,.04,2.9,.12,8.65-17.67,26.81-29.87,47.77-29.89,20.96-.02,39.14,12.16,47.82,29.81,.96-.08,1.93-.09,2.9-.12-8.91-19.1-28.29-32.37-50.72-32.35Z"/><path class="cls-1" d="M260.95,144.29c-7.86,0-14.78,4.07-18.8,10.21,.72,.54,1.44,1.07,2.12,1.64,3.52-5.5,9.68-9.17,16.68-9.18,7.01,0,13.16,3.65,16.7,9.15,.69-.57,1.41-1.1,2.12-1.64-4.03-6.12-10.96-10.18-18.82-10.17Z"/><path class="cls-1" d="M260.94,133.17c-11.88,.01-22.32,6.23-28.29,15.57,.81,.38,1.6,.79,2.38,1.22,5.52-8.47,15.06-14.1,25.91-14.11,10.85,0,20.4,5.6,25.94,14.07,.78-.42,1.57-.83,2.38-1.22-5.99-9.32-16.44-15.53-28.32-15.51Z"/><path class="cls-1" d="M260.93,122.04c-16.71,.01-31.28,9.25-38.95,22.86,.9,.22,1.78,.48,2.67,.75,7.3-12.49,20.81-20.93,36.29-20.94,15.48-.01,29.01,8.4,36.33,20.88,.88-.27,1.77-.53,2.67-.75-7.7-13.6-22.28-22.81-39-22.79Z"/><path class="cls-1" d="M322.36,127.98c.64-.82,1.32-1.62,2.01-2.4-1.76-4.01-5.76-6.82-10.42-6.81-4.65,0-8.65,2.82-10.4,6.83,.69,.78,1.36,1.58,2.01,2.4,.96-3.76,4.35-6.55,8.4-6.56,4.05,0,7.44,2.79,8.41,6.54Z"/><path class="cls-1" d="M313.91,76.93c20.96-.02,39.14,12.15,47.82,29.81,.96-.08,1.93-.09,2.9-.12-8.91-19.1-28.29-32.37-50.72-32.35-22.43,.02-41.79,13.32-50.66,32.44,.97,.03,1.94,.04,2.9,.12,8.65-17.67,26.81-29.87,47.77-29.89Z"/><path class="cls-1" d="M295.13,117.85c.72,.54,1.44,1.07,2.12,1.64,3.52-5.5,9.68-9.17,16.68-9.18,7.01,0,13.16,3.65,16.7,9.15,.69-.57,1.41-1.1,2.12-1.64-4.03-6.12-10.96-10.18-18.82-10.17-7.86,0-14.79,4.07-18.8,10.21Z"/><path class="cls-1" d="M339.87,113.25c.78-.42,1.57-.83,2.38-1.22-5.99-9.32-16.44-15.53-28.32-15.51-11.88,.01-22.32,6.23-28.29,15.57,.81,.38,1.6,.79,2.38,1.22,5.52-8.47,15.06-14.1,25.91-14.11,10.85,0,20.4,5.6,25.94,14.07Z"/><path class="cls-1" d="M350.25,108.93c.88-.27,1.77-.53,2.67-.75-7.7-13.6-22.28-22.81-39-22.79-16.71,.01-31.28,9.25-38.95,22.86,.9,.22,1.78,.48,2.67,.75,7.3-12.49,20.81-20.93,36.29-20.94,15.48-.01,29.01,8.4,36.33,20.88Z"/><path class="cls-1" d="M216.31,128.08c.64-.82,1.32-1.62,2.01-2.4-1.76-4.01-5.76-6.82-10.42-6.81-4.65,0-8.65,2.82-10.4,6.83,.69,.78,1.36,1.58,2.01,2.4,.96-3.76,4.35-6.55,8.4-6.56,4.05,0,7.44,2.79,8.41,6.54Z"/><path class="cls-1" d="M207.86,77.02c20.96-.02,39.14,12.15,47.82,29.81,.96-.08,1.93-.09,2.9-.12-8.91-19.1-28.29-32.37-50.72-32.35-22.43,.02-41.79,13.32-50.66,32.44,.97,.03,1.94,.04,2.9,.12,8.65-17.67,26.81-29.87,47.77-29.89Z"/><path class="cls-1" d="M189.09,117.94c.72,.54,1.44,1.07,2.12,1.64,3.52-5.5,9.68-9.17,16.68-9.18,7.01,0,13.16,3.65,16.7,9.15,.69-.57,1.41-1.1,2.12-1.64-4.03-6.12-10.96-10.18-18.82-10.17-7.86,0-14.79,4.07-18.8,10.21Z"/><path class="cls-1" d="M233.82,113.35c.78-.42,1.57-.83,2.38-1.22-5.99-9.32-16.44-15.53-28.32-15.51-11.88,.01-22.32,6.23-28.29,15.57,.81,.39,1.6,.79,2.38,1.22,5.52-8.47,15.06-14.1,25.91-14.11,10.85,0,20.4,5.6,25.94,14.07Z"/><path class="cls-1" d="M244.2,109.03c.88-.27,1.76-.53,2.66-.75-7.7-13.6-22.28-22.81-38.99-22.79-16.71,.01-31.28,9.25-38.96,22.86,.9,.22,1.78,.48,2.67,.75,7.3-12.49,20.81-20.93,36.29-20.94,15.48-.01,29.01,8.4,36.33,20.88Z"/></g><g class="cls-2"><path class="cls-1" d="M261.96,81.34c-4.65,0-8.65,2.82-10.4,6.83,.69,.78,1.36,1.58,2.01,2.4,.96-3.76,4.35-6.55,8.4-6.56,4.05,0,7.44,2.79,8.41,6.54,.64-.82,1.32-1.62,2.01-2.4-1.76-4.01-5.76-6.82-10.42-6.81Z"/><path class="cls-1" d="M261.92,36.83c-22.43,.02-41.79,13.32-50.66,32.44,.97,.03,1.94,.04,2.9,.12,8.65-17.67,26.81-29.87,47.77-29.89,20.96-.02,39.14,12.16,47.82,29.81,.96-.08,1.93-.09,2.9-.12-8.91-19.1-28.29-32.37-50.72-32.35Z"/><path class="cls-1" d="M261.95,70.22c-7.86,0-14.78,4.07-18.8,10.21,.72,.54,1.44,1.07,2.12,1.64,3.52-5.5,9.68-9.17,16.68-9.18,7.01,0,13.16,3.65,16.7,9.15,.69-.57,1.41-1.1,2.12-1.64-4.03-6.12-10.96-10.18-18.82-10.17Z"/><path class="cls-1" d="M261.94,59.09c-11.88,.01-22.32,6.23-28.29,15.57,.81,.39,1.6,.79,2.38,1.22,5.52-8.47,15.06-14.1,25.91-14.11,10.85,0,20.4,5.6,25.94,14.07,.78-.42,1.57-.83,2.38-1.22-5.99-9.32-16.44-15.53-28.32-15.52Z"/><path class="cls-1" d="M261.93,47.96c-16.71,.01-31.28,9.25-38.96,22.86,.9,.22,1.78,.48,2.67,.75,7.3-12.49,20.81-20.93,36.29-20.94,15.48-.01,29.01,8.4,36.33,20.88,.88-.27,1.77-.53,2.67-.75-7.7-13.6-22.28-22.81-39-22.79Z"/><path class="cls-1" d="M368,81.25c-4.65,0-8.65,2.82-10.4,6.83,.69,.78,1.36,1.58,2.01,2.4,.96-3.76,4.35-6.55,8.4-6.56,4.05,0,7.44,2.79,8.41,6.54,.64-.82,1.32-1.62,2.01-2.4-1.76-4.01-5.76-6.82-10.42-6.81Z"/><path class="cls-1" d="M367.97,36.74c-22.43,.02-41.79,13.32-50.66,32.44,.97,.03,1.94,.04,2.9,.12,8.65-17.67,26.81-29.87,47.77-29.89,20.96-.02,39.14,12.15,47.82,29.81,.96-.08,1.93-.09,2.9-.12-8.91-19.1-28.29-32.37-50.72-32.35Z"/><path class="cls-1" d="M368,70.12c-7.86,0-14.78,4.07-18.8,10.21,.72,.54,1.44,1.07,2.12,1.64,3.52-5.5,9.68-9.17,16.68-9.18,7.01,0,13.16,3.65,16.7,9.15,.69-.57,1.41-1.1,2.12-1.64-4.03-6.12-10.96-10.18-18.82-10.17Z"/><path class="cls-1" d="M367.99,59c-11.88,.01-22.32,6.23-28.29,15.57,.81,.38,1.6,.79,2.38,1.22,5.52-8.48,15.06-14.1,25.91-14.11,10.85,0,20.4,5.6,25.94,14.07,.78-.42,1.57-.83,2.38-1.22-5.99-9.32-16.44-15.53-28.32-15.51Z"/><path class="cls-1" d="M367.98,47.87c-16.71,.01-31.28,9.25-38.96,22.86,.9,.22,1.78,.48,2.67,.75,7.3-12.49,20.81-20.93,36.29-20.94,15.48-.01,29.01,8.4,36.33,20.88,.88-.27,1.77-.53,2.67-.75-7.7-13.6-22.28-22.81-39-22.79Z"/><path class="cls-1" d="M323.36,53.91c.64-.82,1.32-1.62,2.01-2.4-1.76-4.01-5.76-6.82-10.42-6.81-4.65,0-8.65,2.82-10.4,6.83,.69,.78,1.36,1.58,2.01,2.4,.96-3.76,4.35-6.55,8.4-6.56,4.05,0,7.44,2.79,8.41,6.54Z"/><path class="cls-1" d="M314.91,2.85c20.96-.02,39.14,12.15,47.82,29.81,.96-.08,1.93-.09,2.9-.12C356.72,13.43,337.34,.16,314.91,.18c-22.43,.02-41.79,13.32-50.66,32.44,.97,.03,1.94,.04,2.9,.12,8.65-17.67,26.81-29.87,47.77-29.89Z"/><path class="cls-1" d="M296.14,43.78c.72,.54,1.44,1.07,2.12,1.64,3.52-5.5,9.68-9.17,16.68-9.18,7.01,0,13.16,3.65,16.7,9.15,.69-.57,1.41-1.1,2.12-1.64-4.03-6.12-10.96-10.18-18.82-10.17-7.86,0-14.78,4.07-18.8,10.21Z"/><path class="cls-1" d="M340.87,39.18c.78-.42,1.57-.83,2.38-1.22-5.99-9.32-16.44-15.53-28.32-15.51-11.88,.01-22.32,6.23-28.29,15.57,.81,.38,1.6,.79,2.38,1.22,5.52-8.47,15.06-14.1,25.91-14.11,10.85,0,20.4,5.6,25.94,14.07Z"/><path class="cls-1" d="M351.25,34.86c.88-.27,1.77-.53,2.67-.75-7.7-13.6-22.28-22.81-39-22.79-16.71,.01-31.28,9.25-38.96,22.86,.9,.22,1.78,.48,2.67,.75,7.3-12.49,20.81-20.93,36.29-20.94,15.48-.01,29.01,8.4,36.33,20.88Z"/><path class="cls-1" d="M472.21,81.16c-4.65,0-8.65,2.82-10.4,6.83,.69,.78,1.36,1.58,2.01,2.4,.96-3.76,4.35-6.55,8.4-6.56,4.05,0,7.44,2.79,8.41,6.54,.64-.82,1.32-1.62,2.01-2.4-1.76-4.01-5.76-6.82-10.42-6.81Z"/><path class="cls-1" d="M472.17,36.65c-22.43,.02-41.79,13.32-50.66,32.44,.97,.03,1.94,.04,2.9,.12,8.65-17.67,26.81-29.87,47.77-29.89,20.96-.02,39.14,12.16,47.82,29.81,.96-.08,1.93-.09,2.9-.12-8.91-19.1-28.29-32.37-50.72-32.35Z"/><path class="cls-1" d="M472.2,70.03c-7.86,0-14.78,4.07-18.8,10.21,.72,.54,1.44,1.07,2.12,1.64,3.52-5.5,9.68-9.17,16.68-9.18,7.01,0,13.16,3.65,16.7,9.15,.69-.57,1.41-1.1,2.12-1.64-4.03-6.12-10.96-10.18-18.82-10.17Z"/><path class="cls-1" d="M472.19,58.91c-11.88,.01-22.32,6.23-28.29,15.57,.81,.38,1.6,.79,2.38,1.22,5.52-8.47,15.06-14.1,25.91-14.11,10.85,0,20.4,5.6,25.94,14.07,.78-.42,1.57-.83,2.38-1.22-5.99-9.32-16.44-15.53-28.32-15.51Z"/><path class="cls-1" d="M472.18,47.78c-16.71,.01-31.28,9.25-38.95,22.86,.9,.22,1.78,.48,2.67,.75,7.3-12.49,20.81-20.93,36.29-20.94,15.48-.01,29.01,8.4,36.33,20.88,.88-.27,1.77-.53,2.67-.75-7.7-13.6-22.28-22.81-39-22.79Z"/><path class="cls-1" d="M533.61,53.72c.64-.82,1.32-1.62,2.01-2.4-1.76-4.01-5.76-6.82-10.42-6.81-4.65,0-8.65,2.82-10.4,6.83,.69,.78,1.36,1.58,2.01,2.4,.96-3.76,4.35-6.55,8.4-6.56,4.05,0,7.44,2.79,8.41,6.54Z"/><path class="cls-1" d="M525.17,2.67c20.96-.02,39.14,12.15,47.82,29.81,.96-.08,1.93-.09,2.9-.12C566.98,13.25,547.59-.02,525.16,0c-22.43,.02-41.79,13.32-50.66,32.44,.97,.03,1.94,.04,2.9,.12,8.65-17.67,26.81-29.87,47.77-29.89Z"/><path class="cls-1" d="M506.39,43.59c.72,.54,1.44,1.07,2.12,1.64,3.52-5.5,9.68-9.17,16.68-9.18,7.01,0,13.16,3.65,16.7,9.15,.69-.57,1.41-1.1,2.12-1.64-4.03-6.12-10.96-10.18-18.82-10.17-7.86,0-14.79,4.07-18.8,10.21Z"/><path class="cls-1" d="M551.12,38.99c.78-.42,1.57-.83,2.38-1.22-5.99-9.32-16.44-15.53-28.32-15.51-11.88,.01-22.32,6.23-28.29,15.57,.81,.38,1.6,.79,2.38,1.22,5.52-8.47,15.06-14.1,25.91-14.11,10.85,0,20.4,5.6,25.94,14.07Z"/><path class="cls-1" d="M561.5,34.67c.88-.27,1.77-.53,2.67-.75-7.7-13.6-22.28-22.81-39-22.79-16.71,.01-31.28,9.25-38.95,22.86,.9,.22,1.78,.48,2.67,.75,7.3-12.49,20.81-20.93,36.29-20.94,15.48-.01,29.01,8.4,36.33,20.88Z"/><path class="cls-1" d="M427.57,53.82c.64-.82,1.32-1.62,2.01-2.4-1.76-4.01-5.76-6.82-10.42-6.81-4.65,0-8.65,2.82-10.4,6.83,.69,.78,1.36,1.58,2.01,2.4,.96-3.76,4.35-6.55,8.4-6.56,4.05,0,7.44,2.79,8.41,6.54Z"/><path class="cls-1" d="M419.12,2.76c20.96-.02,39.14,12.15,47.82,29.81,.96-.08,1.93-.09,2.9-.12C460.93,13.34,441.54,.07,419.12,.09c-22.43,.02-41.79,13.32-50.66,32.44,.97,.03,1.94,.04,2.9,.12,8.65-17.67,26.81-29.87,47.77-29.89Z"/><path class="cls-1" d="M400.34,43.68c.72,.54,1.44,1.07,2.12,1.64,3.52-5.5,9.68-9.17,16.68-9.18,7.01,0,13.16,3.65,16.7,9.15,.69-.57,1.41-1.1,2.12-1.64-4.03-6.12-10.96-10.18-18.82-10.17-7.86,0-14.79,4.07-18.8,10.21Z"/><path class="cls-1" d="M445.07,39.09c.78-.42,1.57-.83,2.38-1.22-5.99-9.32-16.44-15.53-28.32-15.51-11.88,.01-22.32,6.23-28.29,15.57,.81,.39,1.6,.79,2.38,1.22,5.52-8.47,15.06-14.1,25.91-14.11,10.85,0,20.4,5.6,25.94,14.07Z"/><path class="cls-1" d="M455.46,34.77c.88-.27,1.76-.53,2.66-.75-7.7-13.6-22.28-22.81-38.99-22.79-16.71,.01-31.28,9.25-38.96,22.86,.9,.22,1.78,.48,2.67,.75,7.3-12.49,20.81-20.93,36.29-20.94,15.48-.01,29.01,8.4,36.33,20.88Z"/></g><g class="cls-2"><path class="cls-1" d="M369.59,154.75c-4.65,0-8.65,2.82-10.4,6.83,.69,.78,1.36,1.58,2.01,2.4,.96-3.76,4.35-6.55,8.4-6.56,4.05,0,7.44,2.79,8.41,6.54,.64-.82,1.32-1.62,2.01-2.4-1.76-4.01-5.76-6.82-10.42-6.81Z"/><path class="cls-1" d="M369.55,110.24c-22.43,.02-41.79,13.32-50.66,32.44,.97,.03,1.94,.04,2.9,.12,8.65-17.67,26.81-29.87,47.77-29.89,20.96-.02,39.14,12.16,47.82,29.81,.96-.08,1.93-.09,2.9-.12-8.91-19.1-28.29-32.37-50.72-32.35Z"/><path class="cls-1" d="M369.58,143.63c-7.86,0-14.78,4.07-18.8,10.21,.72,.54,1.44,1.07,2.12,1.64,3.52-5.5,9.68-9.17,16.68-9.18,7.01,0,13.16,3.65,16.7,9.15,.69-.57,1.41-1.1,2.12-1.64-4.03-6.12-10.96-10.18-18.82-10.17Z"/><path class="cls-1" d="M369.57,132.5c-11.88,.01-22.32,6.23-28.29,15.57,.81,.39,1.6,.79,2.38,1.22,5.52-8.47,15.06-14.1,25.91-14.11,10.85,0,20.4,5.6,25.94,14.07,.78-.42,1.57-.83,2.38-1.22-5.99-9.32-16.44-15.53-28.32-15.52Z"/><path class="cls-1" d="M369.56,121.37c-16.71,.01-31.28,9.25-38.96,22.86,.9,.22,1.78,.48,2.67,.75,7.3-12.49,20.81-20.93,36.29-20.94,15.48-.01,29.01,8.4,36.33,20.88,.88-.27,1.77-.53,2.67-.75-7.7-13.6-22.28-22.81-39-22.79Z"/><path class="cls-1" d="M475.64,154.66c-4.65,0-8.65,2.82-10.4,6.83,.69,.78,1.36,1.58,2.01,2.4,.96-3.76,4.35-6.55,8.4-6.56,4.05,0,7.44,2.79,8.41,6.54,.64-.82,1.32-1.62,2.01-2.4-1.76-4.01-5.76-6.82-10.42-6.81Z"/><path class="cls-1" d="M475.6,110.15c-22.43,.02-41.79,13.32-50.66,32.44,.97,.03,1.94,.04,2.9,.12,8.65-17.67,26.81-29.87,47.77-29.89,20.96-.02,39.14,12.15,47.82,29.81,.96-.08,1.93-.09,2.9-.12-8.91-19.1-28.29-32.37-50.72-32.35Z"/><path class="cls-1" d="M475.63,143.53c-7.86,0-14.78,4.07-18.8,10.21,.72,.54,1.44,1.07,2.12,1.64,3.52-5.5,9.68-9.17,16.68-9.18,7.01,0,13.16,3.65,16.7,9.15,.69-.57,1.41-1.1,2.12-1.64-4.03-6.12-10.96-10.18-18.82-10.17Z"/><path class="cls-1" d="M475.62,132.4c-11.88,.01-22.32,6.23-28.29,15.57,.81,.38,1.6,.79,2.38,1.22,5.52-8.48,15.06-14.1,25.91-14.11,10.85,0,20.4,5.6,25.94,14.07,.78-.42,1.57-.83,2.38-1.22-5.99-9.32-16.44-15.53-28.32-15.51Z"/><path class="cls-1" d="M475.61,121.28c-16.71,.01-31.28,9.25-38.96,22.86,.9,.22,1.78,.48,2.67,.75,7.3-12.49,20.81-20.93,36.29-20.94,15.48-.01,29.01,8.4,36.33,20.88,.88-.27,1.77-.53,2.67-.75-7.7-13.6-22.28-22.81-39-22.79Z"/><path class="cls-1" d="M430.99,127.32c.64-.82,1.32-1.62,2.01-2.4-1.76-4.01-5.76-6.82-10.42-6.81-4.65,0-8.65,2.82-10.4,6.83,.69,.78,1.36,1.58,2.01,2.4,.96-3.76,4.35-6.55,8.4-6.56,4.05,0,7.44,2.79,8.41,6.54Z"/><path class="cls-1" d="M422.54,76.26c20.96-.02,39.14,12.15,47.82,29.81,.96-.08,1.93-.09,2.9-.12-8.91-19.1-28.29-32.37-50.72-32.35-22.43,.02-41.79,13.32-50.66,32.44,.97,.03,1.94,.04,2.9,.12,8.65-17.67,26.81-29.87,47.77-29.89Z"/><path class="cls-1" d="M403.77,117.18c.72,.54,1.44,1.07,2.12,1.64,3.52-5.5,9.68-9.17,16.68-9.18,7.01,0,13.16,3.65,16.7,9.15,.69-.57,1.41-1.1,2.12-1.64-4.03-6.12-10.96-10.18-18.82-10.17-7.86,0-14.78,4.07-18.8,10.21Z"/><path class="cls-1" d="M448.5,112.59c.78-.42,1.57-.83,2.38-1.22-5.99-9.32-16.44-15.53-28.32-15.51-11.88,.01-22.32,6.23-28.29,15.57,.81,.38,1.6,.79,2.38,1.22,5.52-8.47,15.06-14.1,25.91-14.11,10.85,0,20.4,5.6,25.94,14.07Z"/><path class="cls-1" d="M458.88,108.27c.88-.27,1.77-.53,2.67-.75-7.7-13.6-22.28-22.81-39-22.79-16.71,.01-31.28,9.25-38.96,22.86,.9,.22,1.78,.48,2.67,.75,7.3-12.49,20.81-20.93,36.29-20.94,15.48-.01,29.01,8.4,36.33,20.88Z"/><path class="cls-1" d="M579.84,154.57c-4.65,0-8.65,2.82-10.4,6.83,.69,.78,1.36,1.58,2.01,2.4,.96-3.76,4.35-6.55,8.4-6.56,4.05,0,7.44,2.79,8.41,6.54,.64-.82,1.32-1.62,2.01-2.4-1.76-4.01-5.76-6.82-10.42-6.81Z"/><path class="cls-1" d="M579.8,110.06c-22.43,.02-41.79,13.32-50.66,32.44,.97,.03,1.94,.04,2.9,.12,8.65-17.67,26.81-29.87,47.77-29.89,20.96-.02,39.14,12.16,47.82,29.81,.96-.08,1.93-.09,2.9-.12-8.91-19.1-28.29-32.37-50.72-32.35Z"/><path class="cls-1" d="M579.83,143.44c-7.86,0-14.78,4.07-18.8,10.21,.72,.54,1.44,1.07,2.12,1.64,3.52-5.5,9.68-9.17,16.68-9.18,7.01,0,13.16,3.65,16.7,9.15,.69-.57,1.41-1.1,2.12-1.64-4.03-6.12-10.96-10.18-18.82-10.17Z"/><path class="cls-1" d="M579.82,132.31c-11.88,.01-22.32,6.23-28.29,15.57,.81,.38,1.6,.79,2.38,1.22,5.52-8.47,15.06-14.1,25.91-14.11,10.85,0,20.4,5.6,25.94,14.07,.78-.42,1.57-.83,2.38-1.22-5.99-9.32-16.44-15.53-28.32-15.51Z"/><path class="cls-1" d="M579.81,121.19c-16.71,.01-31.28,9.25-38.95,22.86,.9,.22,1.78,.48,2.67,.75,7.3-12.49,20.81-20.93,36.29-20.94,15.48-.01,29.01,8.4,36.33,20.88,.88-.27,1.77-.53,2.67-.75-7.7-13.6-22.28-22.81-39-22.79Z"/><path class="cls-1" d="M641.24,127.13c.64-.82,1.32-1.62,2.01-2.4-1.76-4.01-5.76-6.82-10.42-6.81-4.65,0-8.65,2.82-10.4,6.83,.69,.78,1.36,1.58,2.01,2.4,.96-3.76,4.35-6.55,8.4-6.56s7.44,2.79,8.41,6.54Z"/><path class="cls-1" d="M632.8,76.08c20.96-.02,39.14,12.15,47.82,29.81,.96-.08,1.93-.09,2.9-.12-8.91-19.1-28.29-32.37-50.72-32.35-22.43,.02-41.79,13.32-50.66,32.44,.97,.03,1.94,.04,2.9,.12,8.65-17.67,26.81-29.87,47.77-29.89Z"/><path class="cls-1" d="M614.02,117c.72,.54,1.44,1.07,2.12,1.64,3.52-5.5,9.68-9.17,16.68-9.18,7.01,0,13.16,3.65,16.7,9.15,.69-.57,1.41-1.1,2.12-1.64-4.03-6.12-10.96-10.18-18.82-10.17-7.86,0-14.79,4.07-18.8,10.21Z"/><path class="cls-1" d="M658.75,112.4c.78-.42,1.57-.83,2.38-1.22-5.99-9.32-16.44-15.53-28.32-15.51-11.88,.01-22.32,6.23-28.29,15.57,.81,.38,1.6,.79,2.38,1.22,5.52-8.47,15.06-14.1,25.91-14.11,10.85,0,20.4,5.6,25.94,14.07Z"/><path class="cls-1" d="M669.13,108.08c.88-.27,1.77-.53,2.67-.75-7.7-13.6-22.28-22.81-39-22.79-16.71,.01-31.28,9.25-38.95,22.86,.9,.22,1.78,.48,2.67,.75,7.3-12.49,20.81-20.93,36.29-20.94,15.48-.01,29.01,8.4,36.33,20.88Z"/><path class="cls-1" d="M535.2,127.22c.64-.82,1.32-1.62,2.01-2.4-1.76-4.01-5.76-6.82-10.42-6.81-4.65,0-8.65,2.82-10.4,6.83,.69,.78,1.36,1.58,2.01,2.4,.96-3.76,4.35-6.55,8.4-6.56,4.05,0,7.44,2.79,8.41,6.54Z"/><path class="cls-1" d="M526.75,76.17c20.96-.02,39.14,12.15,47.82,29.81,.96-.08,1.93-.09,2.9-.12-8.91-19.1-28.29-32.37-50.72-32.35-22.43,.02-41.79,13.32-50.66,32.44,.97,.03,1.94,.04,2.9,.12,8.65-17.67,26.81-29.87,47.77-29.89Z"/><path class="cls-1" d="M507.97,117.09c.72,.54,1.44,1.07,2.12,1.64,3.52-5.5,9.68-9.17,16.68-9.18,7.01,0,13.16,3.65,16.7,9.15,.69-.57,1.41-1.1,2.12-1.64-4.03-6.12-10.96-10.18-18.82-10.17-7.86,0-14.79,4.07-18.8,10.21Z"/><path class="cls-1" d="M552.71,112.49c.78-.42,1.57-.83,2.38-1.22-5.99-9.32-16.44-15.53-28.32-15.51-11.88,.01-22.32,6.23-28.29,15.57,.81,.39,1.6,.79,2.38,1.22,5.52-8.47,15.06-14.1,25.91-14.11,10.85,0,20.4,5.6,25.94,14.07Z"/><path class="cls-1" d="M563.09,108.17c.88-.27,1.76-.53,2.66-.75-7.7-13.6-22.28-22.81-38.99-22.79-16.71,.01-31.28,9.25-38.96,22.86,.9,.22,1.78,.48,2.67,.75,7.3-12.49,20.81-20.93,36.29-20.94,15.48-.01,29.01,8.4,36.33,20.88Z"/></g></g></g></svg>