<?xml version="1.0" encoding="UTF-8"?><svg id="_圖層_2" xmlns="http://www.w3.org/2000/svg" viewBox="0 0 177.93 177.93"><defs><style>.cls-1{fill:#fff;}</style></defs><g id="_圖層_1-2"><g><path class="cls-1" d="M88.84,177.93c-14.35,0-28.57-3.51-41.61-10.43-20.98-11.14-36.37-29.79-43.32-52.51C-10.45,68.1,16.01,18.27,62.91,3.91c46.89-14.36,96.73,12.11,111.08,59,6.96,22.72,4.65,46.78-6.49,67.76-11.14,20.98-29.79,36.37-52.51,43.32-8.6,2.63-17.4,3.94-26.15,3.94Zm.07-165.93c-7.44,0-15.01,1.09-22.49,3.38C25.86,27.8,2.96,70.91,15.38,111.48c6.02,19.65,19.33,35.78,37.48,45.42,18.15,9.64,38.97,11.64,58.62,5.62,19.65-6.02,35.78-19.33,45.42-37.48,9.64-18.15,11.64-38.97,5.62-58.62-10.13-33.08-40.68-54.42-73.61-54.42Z"/><g><path class="cls-1" d="M34.47,56.72c-2.67-.95-8.27-2.16-11.89-3.05l2.77-7.24c3.41,.6,9.06,1.55,11.91,2.32l-2.79,7.98Zm2.53,16.03c-2.78-.91-8.55-2.07-12.36-2.79l2.5-7.34c3.49,.46,9.34,1.28,12.31,2.02l-2.45,8.12Zm-4.22,21.81c1.69-5.02,3.86-13.05,5.26-20.6l7.61,3.57c-1.16,6.75-2.66,13.78-4.35,20.39l-8.52-3.36Zm31.27-34.66l1.81,5.9,11.24-3.44,6.99,22.82-7.68,2.35-.61-2-15.03,4.6,.68,2.23-7.29,2.23-7.06-23.04,11.08-3.39-1.81-5.9-14.25,4.36-2.37-7.74,14.25-4.36-1.57-5.12c-3.24,1.54-6.57,2.99-9.77,4.27-.88-1.86-2.9-4.71-4.28-6.24,9.08-3.75,18.46-8.7,23.84-13.21l8.12,4.45c-3.14,2.48-6.73,4.86-10.65,6.98l1.99,6.51,13.58-4.16,2.37,7.74-13.58,4.16Zm7.6,12.1l-15.03,4.6,1.91,6.23,15.03-4.6-1.91-6.23Z"/><path class="cls-1" d="M128.71,27.49s.71,2.52,1,3.47c6.46,22.68,8.62,31.15,7.64,34.31-.74,2.54-1.93,3.63-3.74,4.68-1.66,.93-4.22,1.72-6.91,2.48-.85-2.18-2.74-5.19-4.69-6.97,2.29-.46,4.19-1.04,5.3-1.38,.83-.26,1.27-.63,1.59-1.58,.61-1.77-.93-8.42-5.77-25.2l-3.4,1.04c3.82,15.27,4.75,27.22-2.12,37.42-1.12-1.06-3.09-2.34-4.91-3.31-8.21,3.43-16.65,6.86-22.99,9.42l-2.94-6.41c3.01-1.11,6.67-2.47,10.71-4.01l-.73-2.39-9.35,2.86-1.72-5.62,9.35-2.86-.44-1.45-9.13,2.79-5.42-17.7,9.13-2.79-.43-1.39-10.46,3.2-1.76-5.73,10.46-3.21-.41-1.33c-2.95,1.09-5.93,2.12-8.75,3.04-.72-1.54-2.26-3.81-3.46-5.15,8.23-2.95,17.35-6.77,23.28-10.05l5.22,4.92c-2.71,1.5-5.85,2.95-9.19,4.4l.6,1.95,10.07-3.08,1.76,5.73-10.07,3.09,.43,1.39,9.35-2.86,5.42,17.7-9.35,2.86,.44,1.45,9.69-2.97,1.72,5.62c1.8-6.64,.73-14.11-1.62-23.19l-4.4,1.35-2.27-7.4,4.56-1.4c-1.07-3.51-2.23-7.29-3.46-11.3l7.74-2.37c1.21,3.95,2.37,7.74,3.4,11.32l11.02-3.38Zm-40.31,24.22l2.78-.85-.51-1.67-2.78,.85,.51,1.67Zm4.69,5.38l-.51-1.67-2.78,.85,.51,1.67,2.78-.85Zm4.87-10.14l.51,1.67,2.73-.84-.51-1.67-2.73,.84Zm4.64,5.4l-2.73,.84,.51,1.67,2.73-.83-.51-1.67Zm2.03,16.37c2.88-1.13,5.76-2.25,8.65-3.38,.16-.47,.32-.95,.46-1.48l-9.68,2.97,.58,1.89Z"/><path class="cls-1" d="M93.26,114.7c-.04,7.62-1,14.62-3.02,20.96,1.55,1.9,2.93,2.82,3.99,2.49,1-.31,.84-2.63-.55-8.17,2.14,1.23,5.23,2.17,7.36,2.37,1.65,9.36,.07,12.15-5.16,13.76-3.12,.95-6.09-.02-8.98-2.49-1.22,2.38-2.66,4.65-4.24,6.84-.92-.81-2.28-1.68-3.68-2.46l.2,.67-16.42,5.03,.6,1.95-6.85,2.1-5.28-17.26-.4,.67c-1.54-.87-4.86-2.35-6.69-2.95,2.6-3.84,4.46-9.1,4.95-14.06l-6.57,2.01-2.04-6.68,10.85-3.32-.73-2.39-8.35,2.56-1.99-6.51,8.35-2.56-1.09-3.56,7.85-2.4,1.09,3.56,7.9-2.42,1.99,6.51-7.9,2.42,.73,2.39,10.41-3.19c-1.36-4.03-2.69-8.19-3.97-12.36l8.02-2.46c1.17,4.21,2.45,8.38,3.8,12.41l6.96-2.13c-1.94-1.96-5.73-4.39-8.82-5.94l4.54-5.65c3.24,1.44,7.28,3.68,9.33,5.61l-4.49,5.82,6.68-2.04,2.04,6.68-13.91,4.26c1.54,4.03,3.12,7.81,4.66,11.05,.58-3.47,.8-7.12,.75-10.88l8.09-.23Zm-42.61,8.97l5.68-.16c-.14,1.14-.26,2.33-.51,3.5l3.45-1.06c-.65-.71-1.39-1.34-2.04-1.87l4.88-3.93-11.47,3.51Zm10.75,9.86l-.49-1.61-4.4,1.35,.49,1.61,4.4-1.35Zm-2.49,7.58l4.4-1.35-.49-1.62-4.4,1.35,.49,1.61Zm1.94,6.35l4.4-1.35-.53-1.73-4.4,1.35,.53,1.73Zm16.76-3.91c1.43-2.08,2.65-4.28,3.68-6.67-3.35-5.18-6.44-12.09-9.33-19.73l-9.35,2.86c1.41,1.03,2.89,2.46,4,3.71l5.07-1.55,1.81,5.9-6.18,1.89,.49,1.61,5.18-1.58,1.41,4.62-5.18,1.59,.49,1.61,5.18-1.58,1.42,4.62-5.18,1.58,.53,1.73,5.62-1.72,.34,1.11Z"/><path class="cls-1" d="M156.49,116.22l2.47,8.07-51.65,15.82-2.47-8.07,6.79-2.08-9.46-30.89,8.46-2.59,9.46,30.89,8.57-2.62-12.87-42.02,8.68-2.66,5.17,16.87,15.81-4.84,2.49,8.13-15.81,4.84,5.22,17.03,19.15-5.86Z"/></g></g></g></svg>