<?xml version="1.0" encoding="UTF-8"?><svg id="_圖層_2" xmlns="http://www.w3.org/2000/svg" viewBox="0 0 123.52 95.89"><defs><style>.cls-1{fill:#fff;}.cls-2{fill:#132c53;}.cls-3{fill:#0e2b4f;}</style></defs><g id="_圖層_1-2"><g><g><path class="cls-2" d="M73.24,17.46C40.98,10.12,10.75,21.71,5.84,43.29c-4.45,19.55,16.07,27.76,38.9,33.72,2.23,.58,3.85,2.36,4.23,4.65,.37,2.26-.57,4.44-2.47,5.69l-.14,.09c-1.37,.88-2.09,2.44-1.88,4.08,.22,1.65,1.32,2.98,2.89,3.48,.5,.16,1,.3,1.51,.41,2.43,.55,4.96,.61,7.43,.17,5.39-.97,10.05-4.25,12.78-9,1.21-2.09,3.68-3.19,6.15-2.72,22.13,4.12,43.22,5.28,47.59-13.97,4.91-21.58-17.34-45.1-49.6-52.44Z"/><g><g><path class="cls-2" d="M117.77,32.6c-1.76-2.61-3.83-5.16-6.16-7.6-1.73-1.81-3.61-3.56-5.61-5.22-.59-.49-1.48-.39-1.96,.21h0c-.47,.59-.38,1.45,.21,1.94,1.91,1.59,3.71,3.27,5.36,4.99,2.21,2.31,4.18,4.73,5.84,7.2,.42,.63,1.26,.82,1.9,.41h0c.65-.42,.85-1.29,.42-1.93Z"/><path class="cls-2" d="M89.02,9.07c-6.1-2.88-12.64-5.13-19.47-6.68C59.86,.19,49.88-.51,40.58,.37c-.77,.07-1.32,.77-1.24,1.54h0c.08,.76,.76,1.29,1.52,1.22,9-.85,18.68-.17,28.08,1.97,6.63,1.51,12.98,3.69,18.89,6.48,.69,.32,1.5,.05,1.84-.63,.34-.69,.06-1.54-.64-1.87Z"/></g><path class="cls-1" d="M67.7,10.51c31.56,7.18,53.3,29.91,48.56,50.78-3.9,17.14-22.11,17.36-45.99,12.91-3-.56-6.08,.75-7.61,3.4-2.44,4.23-6.65,7.39-11.83,8.33-2.86,.52-5.68,.29-8.27-.54-2.25-.72-2.67-3.8-.68-5.08,.05-.03,.1-.07,.15-.1,5.13-3.38,3.77-11.3-2.17-12.85C15.34,60.96-2.04,52.92,1.96,35.29,6.71,14.43,36.14,3.33,67.7,10.51Z"/><path class="cls-2" d="M43.65,87.12c2.43,.55,4.96,.61,7.43,.17,5.39-.97,10.05-4.25,12.78-9,1.21-2.09,3.68-3.19,6.15-2.72,22.13,4.12,43.22,5.28,47.59-13.97,4.91-21.58-17.34-45.1-49.6-52.44C35.75,1.82,5.52,13.41,.61,34.98c-4.45,19.55,16.07,27.76,38.9,33.72,2.23,.58,3.85,2.36,4.23,4.65,.37,2.26-.57,4.44-2.47,5.69l-.14,.09c-1.37,.88-2.09,2.44-1.88,4.08,.22,1.65,1.32,2.98,2.89,3.48,.5,.16,1,.3,1.51,.41ZM67.4,11.86c30.77,7,52.08,29.03,47.51,49.11-3.12,13.71-15.98,17.15-44.38,11.86-3.63-.68-7.27,.96-9.06,4.07-2.33,4.04-6.29,6.83-10.87,7.66-2.54,.46-5.17,.29-7.6-.49-.8-.25-.95-.98-.98-1.2-.03-.21-.07-.95,.63-1.39l.17-.11c2.82-1.86,4.23-5.1,3.67-8.46-.56-3.38-2.96-6.02-6.26-6.88C15.39,59.54-.39,51.89,3.32,35.6,7.88,15.51,36.63,4.87,67.4,11.86Z"/></g></g><g><path class="cls-3" d="M23.39,34.11c-.26-.05-1.42,.13-1.66,.08-.43-.08-.5-.5-.43-.88,.11-.6,.63-1.1,1.28-.98,.17,.03,.84,.31,.98,.34l1.4,.27c.27-.75,1.02-3.13,1.07-3.39,.02-.12-.24-.7-.22-.82,.12-.63,2.05-1.06,2.8-.92,.12,.02,1.13,.21,.97,1.08-.03,.14-.51,1.25-.56,1.39l-1.35,3.14,.94,.18c.21-.18,.58-.54,1.2-.42,.82,.16,1.38,.76,1.21,1.63-.19,.99-1.52,4.7-3.48,7.43,.86,.74,2.15,1.83,1.87,3.28-.17,.92-1.09,1.14-1.52,1.06-.48-.09-.88-.64-1.09-1.08-.28-.6-.63-1.29-.91-1.79-2.73,2.28-5.9,2.52-6.79,2.35-.17-.03-.58-.11-.54-.3,.02-.1,.1-.13,.98-.44,2.25-.79,3.86-1.81,5.14-3.54-.19-.44-.4-.67-.59-.86-.35,.53-1.21,.82-1.9,.69-.14-.03-1.08-.23-.97-.81,.07-.39,1.31-2.45,1.55-2.9,0-.02,.98-1.89,1.68-3.58l-1.06-.2Zm3.59,.66l-2.49,5.47c.6,.36,.78,.47,1.01,.59,1.14-1.95,1.94-3.63,2.58-5.85l-1.11-.21Zm5.53,6.09c-.36-.07-.75-.14-.97-.16-.27-.03-1.53,.16-1.77,.11-.51-.1-.63-.49-.54-.95,.15-.79,.79-1.15,1.4-1.03,.14,.03,.7,.28,.82,.3,.57,.13,3.11,.57,3.62,.66,0-.57-.19-3.36-.88-3.94-.26-.22-.45-.39-.42-.55,.1-.53,1.05-.77,1.5-.69,.34,.06,.58,.36,.8,.65,.35-.41,1.9-2.13,2.2-2.5l-4.82-.77c-.17-.03-.84,.21-.99,.24-.16,.04-.33,.04-.48,0-.17-.03-.89-.19-.76-.87,.12-.63,.87-1.31,1.55-1.18,.14,.03,.73,.24,.85,.26l5.56,1.06c.51-.45,1.19-.62,1.58-.55,.82,.16,1.82,1.2,1.64,2.11-.08,.43-.17,.49-5.45,3.61,.66,1.9,.77,2.67,.79,3.62l2.65,.5c.75-.91,1.49-1.12,1.85-1.05,.82,.16,1.69,1.37,1.52,2.24-.13,.67-.81,.85-1.41,.73l-4.55-.87c-.05,1.31-.27,2.59-.44,3.49-.17,.92-1.13,5.93-4.88,5.21-1.08-.21-2.09-1.22-2.89-2.27-.36-.47-.4-.53-.38-.62,.02-.12,.15-.12,.2-.11,.22,.17,1.32,.42,1.63,.48,2.43,.46,3.09-1.43,3.63-4.28,.27-1.4,.28-1.84,.31-2.44l-2.46-.47Z"/><path class="cls-3" d="M47.87,50.55c-.86,1.11-1.33,1.72-2.6,1.48-.72-.14-1.38-1.04-1.26-1.64,.11-.6,.76-.96,1.42-1.28,.33-.19,1.49-.76,3.49-2.21,.29-.2,.72-.51,.94-.47,.14,.03,.26,.2,.23,.39-.06,.34-.79,1.9-2.21,3.72Zm.52-7.61c-1.93-.37-3.9-.74-3.61-2.26,.17-.87,1.25-1.19,1.8-1.08,1.04,.2,4.52,2.36,4.35,3.22-.11,.58-1.75,.27-2.54,.12Zm2.88-5.57c-1.06-.33-1.74-.68-3.15-1.42-.34-.16-.92-.77-.8-1.42,.16-.82,1.03-1.2,1.85-1.05,1.49,.28,2.97,2.89,2.83,3.61-.06,.34-.34,.36-.61,.31l-.12-.02Zm5.33,8.48s-2.9,3.29-3.44,3.91c.91,.05,1.16,.07,1.63,.11-.05-.51-.16-1.13-.2-1.34v-.1c.04-.22,.26-.22,.41-.2,.39,.07,2.57,1.46,2.25,3.15-.06,.31-.15,.42-.25,.55,.2,.01,.27,.03,.49,.07,1.19-1.54,1.67-2.2,2.28-3.19-.48-.47-.64-.6-2.14-1.73-.48-.37-.41-.75-.38-.87,.05-.29,.19-.36,.81-.72,.45-.29,2.46-3.73,2.49-3.9,0-.05,0-.25,0-.3,.12-.63,1.65-.56,2.02-.49,.58,.11,1.3,.62,1.21,1.13-.06,.31-.5,.8-.75,1.05-1.08,1.07-2.13,2.17-3.13,3.2,.35,.52,.7,1.03,.9,1.57,.45-.64,.93-1.37,1.56-2.55,0-.05,.04-.32,.05-.37,.15-.65,1.59-.65,1.98-.57,.55,.11,1.18,.6,1.08,1.15-.11,.55-2.43,3.21-3.26,4.17,.74,.32,3.62,2.63,3.12,5.24-.13,.7-.89,1.4-1.73,1.24-1.18-.22-1.21-1.1-1.23-2.46-1.03,.15-4.98,.6-6.59,.29-.65-.12-.9-.64-.79-1.25,.05-.24,.14-.35,.24-.45-.23-.12-.25-.15-.34-1.36-.94,.22-3.91,.88-5.02,.67-.65-.12-1.06-.73-.92-1.45,.18-.94,.69-.89,2.21-.7,.69-.87,1.28-1.63,2-2.64-.61-.47-1.12-.81-1.87-1.3-.31-.19-.62-.44-.54-.85,.03-.14,.2-.64,.8-.8,.73-.83,2.68-3.19,2.71-3.38,0-.05,0-.27,0-.3,.11-.58,1.35-.67,1.88-.57,.51,.1,1.31,.57,1.21,1.13-.04,.22-.14,.35-.35,.53-1.21,1.09-2.44,2.18-3.67,3.27,.22,.29,.56,.75,.79,1.22,.24-.35,.9-1.3,1.02-1.83,.17-.79,1.48-.72,1.75-.67,.55,.11,1.05,.65,.97,1.08-.03,.14-.26,.47-.33,.54l-.89,1.03Zm8.95-6.51c.35-.41,.96-1.12,1.66-.98,.75,.14,1.8,1.42,1.66,2.19-.14,.75-.98,.59-1.92,.41l-11.18-2.12c-.7-.13-1.3-.27-2.26-.18-.15,0-.8,.12-.94,.09-.29-.05-.62-.27-.52-.82,.11-.55,.74-1.13,1.34-1.02,.19,.04,.99,.31,1.16,.34l5.83,1.11c.75-1.3,1.09-2.21,1.51-3.36,.2-.76,.76-1.1,1.53-.96,.75,.14,1.71,1,1.58,1.65-.09,.48-.27,.77-2.96,2.98l3.52,.67Zm-7.65-1.75c-.14-.03-.22-.04-1.09-.83-.83-.73-1.85-1.67-1.7-2.47,.1-.51,.83-1.21,1.74-1.04,.7,.13,1.09,.56,1.21,.88,.2,.54,.51,2.72,.42,3.15-.12,.38-.51,.33-.58,.31Zm3.86,12.52c-.68,.79-.96,1.09-1.93,2.28,1.11,.08,1.38,.11,2.42,.16-.14-.97-.37-2.02-.48-2.44Z"/><path class="cls-3" d="M74.03,48.81l-1.76-.33-.18,.96c-.17,.87-1.34,1.02-2.02,.89-.02,0-.92-.17-.77-.94,.05-.29,.4-1.7,.46-2.01l1.17-6.04s-.19-.33-.25-.4c-.06-.09-.16-.21-.13-.37,.14-.75,1.75-1.44,2.42-1.31,.24,.05,.91,.35,.89,.97l1.71,.33c.37-.48,1.03-.8,1.61-.69,.58,.11,1.39,.69,1.25,1.41-.03,.14-.46,.74-.5,.9l-.58,3.04c-.11,.58-.54,3.37-.66,3.99-.19,.99-1.23,1.21-2.05,1.06-.82-.16-.78-.62-.72-.96l.09-.48Zm13.74-.21c.49-.75,1.19-1.02,1.67-.93,.67,.13,1.7,1.15,1.54,2.01-.13,.67-.8,.55-1.62,.39-.67-.13-4.04-.79-4.79-.94,.61,1.89,1,3.01,2.99,5.56,.46,.59,1.64,1.86,2.83,2.69,.55,.38,.62,.42,.59,.56-.05,.24-3.24,.91-3.92,.78-1.66-.32-2.76-4.37-3.16-7.81-.35,2.1-.59,3.76-.86,5.7-.03,.29-.21,1.76-.27,2.09-.17,.89-1.77,1.29-2.34,1.18-.55-.11-1.06-.6-.91-1.4,.12-.65,1.38-5.7,1.62-6.78-4.05,4.25-9.09,4.76-10.56,4.48-.19-.04-.3-.11-.28-.25,.02-.12,.08-.14,.58-.31,2.45-.83,5.94-2.76,8.16-5.49,.75-.91,1-1.21,1.75-1.06,.46,.09,.71,.33,.82,.43l.16-.84-2.19-.42c-.24-.05-1.48,.19-1.75,.14-.7-.13-.59-.69-.55-.9,.11-.6,.64-.88,1.15-.78,.12,.02,.67,.25,.82,.28l2.79,.53,.65-3.57-1.88-.36c-.22-.04-1.31,.18-1.55,.13-.22-.04-.67-.3-.58-.76,.05-.26,.33-1.11,1.18-.95,.14,.03,.8,.28,.97,.31l2.07,.39c.05-.27,.27-1.42,.31-1.91,.07-.61,.08-.66-.05-.81-.35-.39-.39-.45-.35-.64,.15-.79,1.94-1.4,2.85-1.23,.99,.19,.94,.85,.87,1.21-.03,.14-.26,.82-.31,.99-.12,.35-.54,2.07-.72,2.88l1.88,.36c.42-.52,1.05-.82,1.51-.74,.6,.11,1.56,.97,1.4,1.84-.13,.7-.98,.54-1.36,.47l-3.71-.71-.75,3.55,3.3,.63Zm-13.53-.9l1.12-5.88c.02-.12,.02-.22-.1-.24l-1.35-.26c-.19-.04-.29,.07-.32,.21l-1.11,5.83,1.76,.33Z"/><path class="cls-3" d="M93.67,61.25c-1.04-.2-1.77-1.19-1.57-2.25,.2-1.04,1.19-1.77,2.29-1.56,1.06,.2,1.77,1.21,1.56,2.29-.2,1.06-1.27,1.71-2.28,1.51Zm1.06-14.75c0-.92,.03-2.39,.11-2.8,.26-1.35,1.34-2.19,2.57-1.96,.99,.19,1.9,1.03,1.57,2.79-.16,.82-2.59,7.84-2.98,9.37-.53,2.12-.61,2.43-1.38,2.28-.46-.09-.51-.35-.52-.55,0-.08,.28-2.67,.33-3.18,.26-2.7,.3-5.28,.31-5.96Z"/></g></g></g></svg>