<?xml version="1.0" encoding="UTF-8"?><svg id="_圖層_2" xmlns="http://www.w3.org/2000/svg" viewBox="0 0 35.09 48.44"><defs><style>.cls-1{fill:#c30d23;}.cls-1,.cls-2{fill-rule:evenodd;}.cls-2{fill:#fff;}</style></defs><g id="_圖層_1-2"><g><polygon class="cls-2" points="0 20.79 .21 18.83 10.56 5.99 23.2 5.22 33.26 17.67 32.9 26.77 32.61 27.95 33.05 32.75 33.11 35.46 29.95 41.1 17.55 43.15 5.15 34.53 0 20.79"/><path class="cls-1" d="M14.58,32.77s.02-.01,.03-.02c0-.01,.01-.03,.01-.04-.02,0-.03,0-.04,.01,0,.02,0,.03,0,.05Z"/><path class="cls-1" d="M30.3,27.86c-.3-.06-.57-.07-.87,0-.36,.08-.69,.24-1.11,.15-.28-.06-.65,.16-.94,.31-.4,.2-.65,.54-.66,1.02-.01,.55-.08,1.11-.07,1.66,0,.64,.27,.91,.93,.98,.34,.03,.68,.01,1.02,0,.77-.03,1.53,0,2.28,.23,.52,.16,1.08,.22,1.61,.34,.19,.04,.4,.11,.57,.21,.02-.17,.05-.34,.11-.52,.11-.35,.14-.76,.07-1.12-.18-.88-.19-1.8-.5-2.66-.06-.17-.1-.34-.11-.5-.75,.11-1.49,.08-2.31-.1Z"/><path class="cls-1" d="M14.54,33.52c.02-.3,.03-.53,.04-.75-.31,.17-.27,.41-.04,.75Z"/><path class="cls-1" d="M23.2,15.47s-.03,.05-.05,.07c0,0,0,0,0,.01,.01,0,.02,0,.03,.01,0-.03,.02-.06,.02-.1Z"/><path class="cls-1" d="M18.33,9.63s-.05,.05-.08,.07c0,0,0,.02,0,.03,0,0,.02,0,.03,0,.02-.03,.04-.07,.06-.1Z"/><path class="cls-1" d="M33.13,36.35c0-.2,.02-.41,0-.61,0-.1-.02-.19-.03-.28-.16,.01-.33,.06-.49,.15-.07,.04-.19,.09-.24,.06-.45-.33-.83,.32-1.2,.1-.37-.22-.76,.21-1.11-.16,.23-.33,.47-.67,.7-1.01-.53-.49-.61-.56-1.09-.59-.64-.04-1.27-.07-1.89-.23-.26-.07-.54,.19-.48,.44,.25,1,.01,2.03,.31,3.04,.15,.52,.12,1.1,.1,1.65-.03,.76-.8,1.13-1.49,.76-.22-.12-.44-.24-.68-.32-1.15-.43-1.57-.8-2.3-2.04-.15-.24-.37-.45-.54-.65-.85,1.08-1.69,2.09-3,2.56-.6,.22-.8,.14-1.12-.44-.1-.19-.21-.37-.3-.54,.1-1.03,.64-1.72,1.55-2.18,.49-.25,.81-.74,1.14-1.18,.4-.54,.8-1.1,1.15-1.67,.22-.36,.34-.77,.56-1.13,.31-.5,.67-.97,.99-1.46,.14-.21,.23-.45,.37-.75-.67-.07-1.14,.25-1.64,.5-.53,.27-1.09,.48-1.38,1.05-.48-.06-.88-.16-1.22-.46-.04-.37,.11-.65,.29-.93,1.51-.23,2.79-.97,4.08-1.67,.39-.59,.08-1.25,.21-1.86,.03-.14-.17-.4-.32-.5-.36-.22-.76-.37-1.14-.56-.19-.09-.24-.38-.06-.54,.15-.13,.33-.24,.52-.31,.23-.09,.49-.11,.72-.21,.47-.2,.77-.51,.71-1.08-.03-.34-.01-.68-.01-1.02,0-.28-.1-.47-.38-.59-.16-.07-.24-.26-.13-.43,.09-.13,.24-.28,.37-.29,.42-.03,.86-.05,1.27,0,.75,.1,1.2,.66,1.18,1.42,0,.17-.06,.34-.07,.5-.01,.12,0,.24,0,.43,.33,.09,.65,.17,.96,.27,.42,.14,.55,.61,.24,.92-.2,.2-.46,.39-.73,.49-.36,.14-.55,.37-.63,.73-.11,.48-.44,.94-.2,1.51,.27-.05,.56-.08,.82-.17,.28-.1,.52-.29,.8-.38,.27-.09,.56,.1,.86-.05,.82-.41,1.66-.15,2.48,.05,.36,.09,.72,.22,1.08,.34,.04-.09,.09-.18,.14-.27,.21-.33,.34-.67,.33-1.07-.03-.75,.18-1.44,.54-2.09,.27-.46,.36-.98,.46-1.48,.12-.58,.16-1.17,.26-1.74,.06-.37,.18-.74,.23-1.11,.19-1.4,.36-2.8,.37-4.22,0-.76-.06-1.5-.3-2.25-.29-.88-.67-1.74-.78-2.69-.04-.32-.26-.63-.43-.93-.28-.5-.76-.82-1.21-1.12-.49-.33-.66-.75-.67-1.29,0-.1,0-.21-.04-.29-.4-.64-.8-1.28-1.1-1.98-.05-.12-.15-.24-.25-.32-.45-.32-.89-.66-1.37-.92-1.34-.73-1.83-1.06-3-2.14-.2-.19-.41-.4-.65-.51-.83-.37-1.68-.67-2.61-.6-.83,.06-1.67,.09-2.47,.27-.99,.23-1.97,.4-2.98,.3-.17-.02-.35,0-.52,0-.45,.01-.89-.02-1.33-.18-.32-.11-.67-.2-1-.19-.68,0-1.4-.16-2.02,.29-.16,.11-.32,.03-.5,0-1.08-.13-1.31-.1-2.19,.29-.6,.27-1.16,.61-1.54,1.18-.15,.23-.28,.48-.39,.73-.36,.83-.82,1.6-1.3,2.36-.3,.47-.66,.88-.95,1.35-.52,.83-1.18,1.51-1.92,2.14-.44,.37-.87,.81-1.12,1.35-.32,.69-.64,1.39-.94,2.09-.11,.25-.18,.53-.22,.8-.11,.68-.29,1.36-.24,2.06,.02,.3-.06,.62-.12,.93-.23,1.01-.45,2.03-.71,3.04-.09,.35-.14,.7-.17,1.05,.16-.29,.37-.52,.76-.61,.22-.05,.44-.16,.63-.27,1.28-.8,2.54-1.62,3.84-2.39,.46-.27,.98-.46,1.5-.59,.64-.15,1.02-.53,1.23-1.11,.51-1.45,1.05-2.9,1.37-4.42,.13-.61,.13-1.23-.14-1.83-.08-.18-.13-.39,.08-.51,.21-.12,.48-.12,.65,.05,.18,.19,.38,.45,.39,.68,.03,.77,.02,1.55-.06,2.32-.08,.69-.25,1.37-.42,2.04-.12,.48-.31,.95-.47,1.44,.37,.34,.76,.4,1.23,.33,.18-.44,.13-.91,.21-1.35,.01-.06,.09-.17,.13-.17,.1,0,.26,.04,.29,.11,.18,.34,.34,.7,.47,1.06,.16,.43,.28,.88,.41,1.29-.17,.6-.31,1.2-.51,1.78-.2,.58-.46,1.15-.7,1.74,.02,.23,.14,.41,.4,.47,.51,.13,.87,.42,1.11,.91,.18,.37,.52,.66,.77,1.01,.11,.15,.16,.34,.22,.48-.35,.42-.77,.47-1.2,.35-.52-.14-1.03-.31-1.55-.44-.35-.09-.64-.4-.92-.59-.58,.25-1.12,.57-1.71,.73-.63,.17-1.27,.28-1.9,.47-.22,.07-.51-.08-.79-.14,.51-.66,1.2-1,1.88-1.3,.48-.21,.88-.48,1.23-.92-.21-.11-.41-.31-.6-.3-.42,.02-.8-.28-1.24-.07-.15,.07-.46-.22-.48-.41-.05-.58-.12-1.16,.35-1.64,.13-.13,.23-.31,.31-.48,.08-.16,.12-.35,.17-.53-.71-.1-1.29,.1-1.74,.63-.63,.76-1.56,1.14-2.29,1.77-.23,.2-.51,.36-.73,.57-.66,.64-1.38,.77-2.22,.35,0,.14,0,.27,0,.41,0,.72,.1,1.42,.04,2.15-.05,.66-.05,1.36,.22,2.02,.06,.16,.08,.34,.12,.51,.3,1.32,.62,2.62,1.17,3.87,.31,.69,.44,1.46,.53,2.21,.07,.58,.06,1.17,.11,1.75,.08,.81,.34,2.11,.7,2.77,.35,.65,.7,1.27,1.14,1.86,.29,.39,.58,.79,.8,1.21,.33,.64,.82,1.13,1.39,1.52,.77,.53,1.6,.96,2.49,1.29,.58,.22,1.16,.46,1.72,.74,.65,.32,1.3,.68,1.75,1.27,.91,1.17,2.3,1.62,3.52,2.31,.46-.04,.73,.39,1.14,.46,.82,.12,1.44,.63,2.11,.98,.05,.22,.08,.39,.13,.62,.54,.09,.98,.14,1.42-.03,.31-.12,.6-.09,.91,.02,.25,.09,.55,.13,.82,.09,.95-.16,1.93-.27,2.74-.88,.24-.19,.55-.26,.76-.52,.24-.3,.63-.13,.96-.16,.06,0,.12-.06,.19-.09,.43-.17,.79-.45,1.12-.75,.62-.57,1.1-1.25,1.43-2.02,.07-.16,.12-.3,.29-.4,1.17-.72,2.02-1.78,2.84-2.84,.32-.41,.62-.93,.49-1.54-.03-.16,.02-.35,.06-.51,.15-.59,.14-1.17,.04-1.76-.03-.2,0-.41,0-.61ZM14.16,15.92c1.49-.39,2.99-.79,4.56-1.21-.04-.12-.05-.27-.13-.37-.21-.27-.6-.35-.76-.7-.04-.09-.26-.1-.4-.14-.18-.05-.36-.09-.59-.15,.08-.32,.12-.58,.22-.82,.14-.32,.32-.62,.52-.9,.41-.57,.66-1.19,.65-1.9-.14,.02-.29,.02-.42,.08-.21,.1-.38,.26-.58,.37-.91,.51-2.05,.72-3.08,.08-.02-.19,.08-.28,.25-.31,.73-.14,1.4-.44,2.02-.84,.62-.39,1.28-.69,1.9-1.1,.66-.43,1.41-.62,2.19-.17,.33,.19,.71,.32,1.06,.48,.31,.14,.47,.4,.46,.74,0,.35-.07,.68-.3,.97-.55,.7-1.05,1.43-1.6,2.13-.33,.42-.7,.79-1.07,1.21,.39,.3,.78,.61,1.17,.93,.71-.06,1.43-.26,2.15,.03,.13,.05,.31,.01,.45-.03,1.09-.37,2.03-.09,2.9,.62,.33,.27,.72,.46,.83,.93-.08,.37-.44,.51-.7,.45-.9-.21-1.67,.14-2.44,.45-.42,.17-.74,.11-1.08-.16,.26-.35,.52-.71,.78-1.06-.64-.26-1.29-.4-1.96-.13-.23,.38-.05,.68,.08,1.01,.54,1.38,.69,2.83,.75,4.3,.03,.93-.39,1.63-.94,2.29-.07,.08-.24,.18-.29,.14-.37-.22-.65,.11-.98,.15-.23,.03-.44,0-.66,0-.4,0-.8-.1-1.21,.08-.79,.35-1.39-.2-2.02-.54-.06-.03-.1-.12-.12-.19-.13-.46-.26-.93-.4-1.48,.22,.03,.41,.03,.58,.09,.48,.17,.91,.06,1.34-.16,.66-.34,1.23-.8,1.71-1.36,.35-.41,.63-.86,.6-1.46-.03-.58,.04-1.16,.04-1.74,0-.14-.1-.28-.16-.45-.84,.03-1.58,.37-2.37,.48-.78,.11-1.46,.45-2.11,.78-.47-.14-.83-.35-1.1-.77,.07-.19,.15-.4,.24-.66Zm1.51,19.59c-.42-.49-.77-.91-1.2-1.42-.03,.42,.24,.79-.13,1.09-.29,.24-.5,.57-.77,.89-.52-.35-.91-.67-1.35-.88-.2-.1-.5,0-.55-.34-.15-1.02-.71-1.89-1.1-2.87,.82-1.64,1.65-3.29,2.88-4.71,.35,.24,.47,.58,.46,.97,0,.39,.08,.76,.41,1.1,.29,.02,.62,.02,.95,.07,.5,.06,.98,.19,1.39,.54,.42,.36,.63,.32,.94-.09,.15-.19,.2-.49,.54-.43,.38,.07,.53,.33,.65,.69,.3,.93,.09,1.75-.43,2.53-.31,.46-.66,.89-.92,1.37-.38,.71-.96,1.15-1.76,1.5Z"/><path class="cls-1" d="M14.63,32.71c.09-.01,.2,0,.06-.16-.02,.05-.04,.11-.06,.16Z"/><path class="cls-1" d="M24.26,32.78c-.32,1.23-.96,2.05-1.06,3.06q1.06,.5,1.73,.4c.03-.15,.09-.31,.08-.47-.05-.72-.1-1.43-.21-2.14-.03-.21-.25-.4-.55-.85Z"/><path class="cls-1" d="M9.82,18.48c.19-.46,.35-.93,.5-1.41,.05-.18,.09-.38-.13-.56h-.94c-.62,.49-.99,1.1-1.26,1.86,.41,.18,.74,.42,1.17,.46,.31,.03,.55-.07,.66-.35Z"/></g></g></svg>