<?xml version="1.0" encoding="UTF-8"?><svg id="_圖層_2" xmlns="http://www.w3.org/2000/svg" viewBox="0 0 123.93 118.16"><defs><style>.cls-1{fill:#fff;}.cls-2{fill:#132c53;}</style></defs><g id="_圖層_1-2"><g><g><g><path class="cls-2" d="M47.5,55.23s-.01-.03-.02-.04c.01,.04,.02,.05,.02,.04Z"/><path class="cls-2" d="M57.11,78.61c-1.66-.83-2.58-2.42-3.69-3.85-1.11-1.43-1.85-2.92-1.85-2.92-3.67-7.04-3.99-15.54-2.84-23.25,2.32-15.53,15.41-27.87,31.69-27.13,2.93,.13,5.79,.95,8.29,2.48,.21,.13,.53,.17,.77,.13,3.11-.45,5.78,.68,8.19,2.64,8.26,6.68,13.2,17.69,14.46,28.01,0,0,.21,2.96,.23,3.03,.14,2.9-.54,5.54-1.16,8.2-.36,1.53-.86,2.99-1.49,4.4,0,0-6.68,10.16-6.36,13.45l-2.28-1.37v1.93s-15.07,9.93-30.61,5.05l-1.13-2.61s-.25,2.95-2.2,3.91c-1.95,.96,.51-6.81-10.02-12.09Z"/></g><g><path class="cls-1" d="M43.51,78.8s-3.54-2.66-2.94-7.83c.32-2.65,1.78-4.68,3.18-4.87,1.4-.19,1.69,.58,3.9,5.5,1.4,2.84,.56-2.04,.19-3.04-.37-1.01,.89-3.79,2.66,0,1.37,3.78,1.89,9.24,1.89,9.24,0,0-3.41-.24-4.69,2.36-1.27,2.6-4.2-1.36-4.2-1.36Z"/><path class="cls-2" d="M46.13,81.87c-1.47-.27-2.84-1.92-3.25-2.46-.64-.52-3.78-3.39-3.17-8.54,.36-2.95,2.04-5.37,3.92-5.62,1.5-.21,2.16,.38,3.29,2.69,.06-.84,.51-1.74,1.27-2.05,.77-.32,1.93-.18,3.09,2.31,1.42,3.91,1.95,9.3,1.97,9.52,.02,.25-.06,.5-.24,.69s-.43,.28-.68,.26c-.03,0-2.85-.16-3.85,1.87-.51,1.04-1.24,1.31-1.77,1.36-.19,.02-.39,0-.58-.03Zm-2-14.92c-.09-.02-.18,0-.28,0-.81,.11-2.14,1.64-2.43,4.12-.54,4.58,2.47,6.94,2.6,7.04,.06,.05,.12,.11,.17,.17,.69,.93,1.83,1.94,2.36,1.89,.15-.01,.29-.22,.37-.4,1.04-2.13,3.21-2.68,4.5-2.81-.21-1.69-.75-5.39-1.74-8.11-.42-.89-.74-1.21-.88-1.32-.11,.18-.2,.57-.15,.72,.02,.04,1.43,4.39,0,5-.94,.4-1.48-.7-1.77-1.29l-.23-.52c-1.67-3.71-2.05-4.43-2.5-4.51Z"/></g><g><path class="cls-1" d="M74.6,88.43s-13.69,1.34-22.28-11.13c0,0-7.09-.03-6.16,4.29,.93,4.32,12.22,17.9,26.78,17.38,0,0,5.27,18.4,27.93,18.33s22.19-5.74,22.19-5.74l-4.91-20.7s-15.49,1.7-20.76-2.49c-5.27-4.2-16.82-2.81-22.79,.06Z"/><path class="cls-2" d="M94.03,117.58c-15.3-2.8-20.62-14.81-21.7-17.73-14.65,.13-26.04-13.58-27.01-18.07-.26-1.19-.03-2.27,.67-3.13,1.76-2.17,5.87-2.21,6.34-2.21,.29,0,.55,.14,.71,.37,7.74,11.25,19.9,10.86,21.34,10.77,6.2-2.91,18.05-4.27,23.55,.11,4.93,3.93,19.98,2.33,20.13,2.31,.43-.05,.83,.24,.93,.66l4.91,20.7s.02,.08,.02,.13c.01,.17,.04,1.07-.95,2.14-1.88,2.05-7.23,4.5-22.1,4.54-2.48,0-4.76-.2-6.85-.59Zm-20.93-19.46c.32,.06,.58,.29,.67,.61,.21,.73,5.38,17.78,27.1,17.71,15.55-.05,19.75-2.8,20.83-3.98,.37-.4,.47-.72,.49-.8l-4.71-19.86c-3.25,.29-15.78,1.12-20.63-2.75-4.95-3.94-16.26-2.54-21.88,.16-.09,.04-.19,.07-.29,.08-.14,.01-14.01,1.22-22.8-11.12-1.26,.07-3.63,.42-4.55,1.56-.37,.45-.47,.98-.32,1.67,.91,4.22,11.86,17.2,25.9,16.7,.06,0,.13,0,.19,.01Zm1.5-9.69h0s0,0,0,0Z"/></g><path class="cls-2" d="M80.37,90.61c-.33-.06-.6-.31-.69-.65l-.63-2.69c-.11-.46,.18-.93,.64-1.04,.46-.11,.93,.18,1.04,.64l.63,2.69c.11,.46-.18,.93-.64,1.04-.12,.03-.24,.03-.35,0Z"/><path class="cls-2" d="M87.72,89.73c-.33-.06-.6-.31-.69-.65l-.63-2.69c-.11-.46,.18-.93,.64-1.04,.46-.11,.93,.18,1.04,.64l.63,2.69c.11,.46-.18,.93-.64,1.04-.12,.03-.24,.03-.35,0Z"/><g><path class="cls-1" d="M104.95,57.12c1.52,12.66-8.13,27.8-22.09,29.48-13.96,1.68-27.09-12.04-28.61-24.7-1.52-12.66,8.94-21.07,22.9-22.76,13.96-1.68,26.28,5.32,27.8,17.98Z"/><path class="cls-2" d="M76.62,87.25c-4.66-.85-9.24-3.23-13.32-6.99-5.44-5-9.14-11.83-9.92-18.26-.76-6.3,1.29-11.91,5.91-16.23,4.24-3.96,10.54-6.62,17.74-7.49,7.09-.85,13.88,.47,19.12,3.74,5.46,3.4,8.89,8.73,9.64,15,.78,6.46-1.19,13.55-5.39,19.46-4.46,6.26-10.65,10.16-17.45,10.98-2.1,.25-4.23,.18-6.34-.21Zm10.02-47.01c-2.97-.54-6.15-.63-9.39-.24-6.84,.82-12.79,3.32-16.77,7.03-4.21,3.93-6.06,9.03-5.38,14.76,.73,6.03,4.23,12.46,9.37,17.2,5.55,5.11,12.04,7.5,18.28,6.75,6.31-.76,12.08-4.41,16.25-10.27,3.9-5.48,5.8-12.3,5.08-18.25-.7-5.82-3.76-10.57-8.84-13.74-2.53-1.57-5.45-2.67-8.61-3.25Z"/></g><path class="cls-2" d="M64.92,46.16s-1.37,3.5,1.19,9.31l24.56-3.06s-1.43-3.92,.02-8.69c0,0,10.52,15.36,7.5,25.67-3.02,10.31,3.84,3.91,3.84,3.91,0,0,13.87-11.07,3.43-26.3s-24.12-16.96-24.12-16.96c0,0-19.37-.1-27.01,17.39-7.64,17.49,2.43,27.33,2.43,27.33,0,0,10.22,8.06,7.12,.15-1.7-5.54-5.4-11.17,1.05-28.75Z"/><path class="cls-2" d="M80.35,81.01c-1.13-.21-2.11-.72-2.91-1.53-2.68-2.72-2.33-7.84-2.31-8.05,.03-.41,.35-.74,.76-.79l9.78-1.18c.41-.05,.81,.2,.93,.6,.07,.23,1.74,5.75-.45,8.92-.9,1.3-2.27,2.01-4.09,2.12-.6,.04-1.17,0-1.71-.09Zm-3.52-8.75c0,1.36,.22,4.37,1.84,6.01,.82,.83,1.89,1.19,3.28,1.11,1.28-.08,2.19-.53,2.78-1.38,1.33-1.91,.74-5.29,.4-6.74l-8.29,1Z"/><g><path class="cls-1" d="M65.04,65.61s3.25-2.42,7.91,.95"/><path class="cls-2" d="M64.88,66.45c-.21-.04-.41-.15-.54-.34-.28-.38-.2-.92,.18-1.2,.15-.11,3.82-2.76,8.93,.94,.39,.28,.47,.82,.19,1.21-.28,.39-.82,.47-1.21,.19-4.04-2.93-6.78-1.03-6.89-.95-.2,.14-.44,.19-.66,.15Z"/></g><g><path class="cls-1" d="M94.23,62.09s-3.73-1.58-7.45,2.8"/><path class="cls-2" d="M86.62,65.74c-.14-.03-.28-.09-.4-.19-.36-.31-.41-.85-.1-1.22,4.09-4.8,8.27-3.11,8.45-3.03,.44,.19,.64,.69,.46,1.13-.18,.44-.68,.65-1.13,.46-.15-.06-3.24-1.23-6.47,2.56-.21,.24-.52,.34-.81,.29Z"/></g><path class="cls-2" d="M68.59,60.11c-.28-.05-.52-.23-.64-.51-.19-.44,.02-.95,.46-1.13,3.41-1.46,5.67,.92,5.76,1.03,.32,.35,.3,.9-.05,1.22-.35,.32-.89,.3-1.22-.04-.07-.07-1.55-1.58-3.82-.61-.16,.07-.33,.08-.49,.06Z"/><path class="cls-2" d="M83.94,59.65c-.09-.02-.18-.05-.27-.1-.41-.23-.56-.75-.33-1.17,.07-.12,1.69-2.97,5.35-2.36,.47,.07,.79,.52,.71,.99-.08,.47-.52,.79-.99,.71-2.44-.4-3.52,1.42-3.56,1.5-.19,.33-.56,.49-.91,.42Z"/><path class="cls-2" d="M81.77,100.39c-1.66-.3-8.39-2.06-10.8-10.73-.13-.46,.14-.94,.6-1.06,.46-.13,.94,.14,1.06,.6,2,7.2,7.29,9.01,9.09,9.42l1.77-3.78c-5.6-2.44-6.52-6.4-6.56-6.57-.1-.47,.19-.93,.66-1.03,.47-.1,.92,.19,1.03,.65,.04,.16,.92,3.65,6.35,5.68,.23,.08,.41,.26,.5,.48,.09,.22,.08,.47-.02,.69l-2.44,5.21c-.16,.34-.51,.53-.88,.49-.04,0-.16-.02-.36-.06Z"/><path class="cls-2" d="M89.08,99.59c-.2-.04-.38-.14-.52-.31l-3.6-4.48c-.15-.19-.22-.43-.18-.67,.04-.24,.17-.45,.37-.59,4.8-3.27,4.82-6.87,4.82-7.03,0-.47,.37-.87,.85-.87,.47,0,.87,.36,.88,.84,0,.18,.04,4.25-4.81,7.94l2.62,3.25c1.65-.83,6.37-3.83,6.6-11.31,.01-.48,.41-.85,.89-.84,.47,.02,.85,.41,.84,.89-.31,10.07-7.95,13.01-8.28,13.13-.15,.05-.31,.07-.45,.04Z"/><path class="cls-2" d="M48.65,87.19c-.4-.07-.71-.43-.71-.85,0-.11,.03-2.78,2.06-4.5,1.44-1.22,3.46-1.63,6.01-1.21,.46,.08,.79,.52,.71,.99-.08,.47-.52,.79-.99,.71-2.02-.33-3.57-.05-4.61,.82-1.42,1.19-1.46,3.18-1.46,3.2,0,.48-.39,.86-.87,.85-.05,0-.1,0-.15-.01Z"/></g><g><g><path class="cls-2" d="M23.1,8.02c14.82-3.37,28.71,1.95,30.96,11.87,2.04,8.98-7.38,12.75-17.87,15.49-1.02,.27-1.77,1.09-1.94,2.14-.17,1.04,.26,2.04,1.13,2.62l.07,.04c.63,.4,.96,1.12,.86,1.88-.1,.76-.61,1.37-1.33,1.6-.23,.07-.46,.14-.7,.19-1.11,.25-2.28,.28-3.41,.08-2.47-.45-4.61-1.95-5.87-4.13-.55-.96-1.69-1.46-2.83-1.25-10.17,1.89-19.85,2.43-21.86-6.42C-1.94,22.2,8.28,11.39,23.1,8.02Z"/><g><g><path class="cls-2" d="M2.64,14.98c.81-1.2,1.76-2.37,2.83-3.49,.79-.83,1.66-1.63,2.58-2.4,.27-.23,.68-.18,.9,.1h0c.22,.27,.17,.67-.1,.89-.88,.73-1.71,1.5-2.46,2.29-1.02,1.06-1.92,2.17-2.69,3.31-.2,.29-.58,.37-.87,.19h0c-.3-.19-.39-.59-.19-.89Z"/><path class="cls-2" d="M15.85,4.17c2.8-1.32,5.81-2.36,8.94-3.07C29.24,.09,33.83-.23,38.1,.17c.35,.03,.61,.35,.57,.71h0c-.04,.35-.35,.59-.7,.56-4.14-.39-8.58-.08-12.9,.9-3.05,.69-5.96,1.69-8.68,2.98-.32,.15-.69,.02-.84-.29-.16-.32-.03-.71,.3-.86Z"/></g><path class="cls-1" d="M25.64,4.83C11.14,8.12,1.15,18.57,3.33,28.15c1.79,7.87,10.16,7.98,21.13,5.93,1.38-.26,2.79,.35,3.5,1.56,1.12,1.94,3.06,3.4,5.43,3.83,1.31,.24,2.61,.13,3.8-.25,1.03-.33,1.23-1.75,.31-2.33-.02-.02-.05-.03-.07-.05-2.36-1.55-1.73-5.19,1-5.9,11.27-2.94,19.25-6.63,17.41-14.73-2.18-9.59-15.7-14.68-30.2-11.39Z"/><path class="cls-2" d="M36.69,40.02c-1.11,.25-2.28,.28-3.41,.08-2.47-.45-4.61-1.95-5.87-4.13-.55-.96-1.69-1.46-2.83-1.25-10.17,1.89-19.85,2.43-21.86-6.42C.46,18.38,10.68,7.58,25.5,4.21c14.82-3.37,28.71,1.95,30.96,11.87,2.04,8.98-7.38,12.75-17.87,15.49-1.02,.27-1.77,1.09-1.94,2.14-.17,1.04,.26,2.04,1.13,2.62l.07,.04c.63,.4,.96,1.12,.86,1.88-.1,.76-.61,1.37-1.33,1.6-.23,.07-.46,.14-.7,.19ZM25.78,5.45C11.65,8.66,1.86,18.78,3.96,28.01c1.43,6.3,7.34,7.88,20.39,5.45,1.67-.31,3.34,.44,4.16,1.87,1.07,1.85,2.89,3.14,5,3.52,1.17,.21,2.37,.13,3.49-.23,.37-.12,.44-.45,.45-.55,.01-.1,.03-.43-.29-.64l-.08-.05c-1.3-.86-1.94-2.35-1.69-3.89,.26-1.55,1.36-2.77,2.88-3.16,11.4-2.98,18.65-6.49,16.95-13.97-2.1-9.23-15.3-14.12-29.44-10.91Z"/></g></g><g><path class="cls-2" d="M9.02,20.58l1.94-.52,1.02,3.79,3.35-.9-1.02-3.79,1.93-.52,2.69,10.04-1.93,.52-1.18-4.4-3.35,.9,1.18,4.4-1.94,.52-2.69-10.04Z"/><path class="cls-2" d="M18.54,18.03l5.48-1.47,.5,1.87-3.58,.96,.49,1.82,3.58-.96,.49,1.84-3.58,.96,.71,2.64,3.58-.96,.5,1.88-5.48,1.47-2.69-10.04Z"/><path class="cls-2" d="M25.93,16.05l2.02-.54c1.11-.3,1.92-.41,2.45-.34,.52,.07,.99,.3,1.4,.68,.41,.38,.7,.89,.87,1.52,.18,.66,.17,1.25-.03,1.78s-.58,.99-1.16,1.39l3.57,3.83-2.09,.56-3.4-3.65-.17,.05,1.14,4.25-1.91,.51-2.69-10.04Zm2.96,3.41l.6-.16c.61-.16,1-.35,1.19-.58,.19-.22,.23-.52,.13-.89-.06-.22-.17-.39-.32-.53-.16-.13-.34-.21-.55-.23-.21-.02-.57,.04-1.08,.17l-.52,.14,.55,2.06Z"/><path class="cls-2" d="M33.92,13.91l5.48-1.47,.5,1.87-3.58,.96,.49,1.82,3.58-.96,.49,1.84-3.58,.96,.71,2.64,3.58-.96,.5,1.88-5.48,1.47-2.69-10.04Z"/><path class="cls-2" d="M44.88,10.7l1.88-.51,1.97,7.34-1.88,.51-1.97-7.34Zm3.13,7.9c.32-.09,.63-.05,.92,.12,.29,.17,.48,.41,.57,.73,.09,.32,.04,.62-.12,.91-.17,.29-.41,.48-.74,.57-.32,.09-.63,.05-.92-.12-.29-.17-.48-.41-.56-.73-.09-.32-.05-.63,.12-.92,.17-.29,.41-.48,.73-.56Z"/></g></g></g></g></svg>