<?xml version="1.0" encoding="UTF-8"?><svg id="_圖層_2" xmlns="http://www.w3.org/2000/svg" viewBox="0 0 17.62 17.62"><defs><style>.cls-1{fill:#efb134;stroke:#efb134;stroke-miterlimit:10;}</style></defs><g id="_圖層_1-2"><g><path class="cls-1" d="M9.04,17.12c-4.54,.15-8.37-3.46-8.53-8.06C.34,4.53,4,.64,8.55,.5c4.54-.14,8.41,3.49,8.57,8.05,.15,4.56-3.47,8.41-8.08,8.57Zm-.23-1.17c3.96,0,7.15-3.2,7.14-7.14,0-3.94-3.23-7.16-7.16-7.14-4.14,.02-7.17,3.45-7.13,7.16,.04,3.97,3.17,7.12,7.15,7.12Z"/><path class="cls-1" d="M11.62,9.38c-.32,0-.63,0-.95,0-.45,0-.86-.02-1.25,.36-.4,.4-1.08,.26-1.47-.17-.39-.44-.41-1.1,.01-1.52,.22-.22,.27-.43,.27-.72-.01-.93,0-1.87,0-2.8,0-.46,.2-.69,.58-.69,.36,0,.55,.23,.56,.67,0,.98,0,1.95,0,2.93,0,.5,.29,.79,.79,.79,.96,0,1.93,0,2.89,0,.49,0,.73,.21,.72,.6-.01,.37-.23,.54-.72,.54-.47,0-.95,0-1.42,0Z"/></g></g></svg>