<?xml version="1.0" encoding="UTF-8"?><svg id="_圖層_2" xmlns="http://www.w3.org/2000/svg" viewBox="0 0 14.93 18.87"><defs><style>.cls-1{fill:#efb134;}</style></defs><g id="_圖層_1-2"><g><path class="cls-1" d="M7.5,18.87c-.44-.49-.82-.91-1.2-1.33-1.48-1.65-2.96-3.3-4.44-4.96C-.36,10.07-.62,6.19,1.24,3.4,2.35,1.73,3.87,.63,5.83,.18c3.85-.87,7.72,1.42,8.78,5.23,.79,2.83,.13,5.33-1.84,7.49-1.01,1.11-2,2.24-2.99,3.36-.7,.78-1.39,1.57-2.08,2.35-.06,.07-.1,.14-.19,.25Zm-.05-3.17c.09-.09,.15-.13,.2-.19,1.18-1.31,2.37-2.62,3.54-3.94,.25-.28,.52-.56,.73-.87,1.49-2.21,1.26-5.02-.56-6.97-1.76-1.89-4.71-2.25-6.85-.8-1.84,1.25-2.65,3.03-2.46,5.23,.09,1.09,.51,2.07,1.26,2.9,.92,1.02,1.83,2.05,2.74,3.08,.45,.51,.91,1.01,1.39,1.55Z"/><path class="cls-1" d="M7.47,10.13c-1.42-.01-2.54-1.16-2.53-2.58,.02-1.43,1.15-2.55,2.56-2.54,1.38,0,2.49,1.17,2.48,2.58,0,1.41-1.14,2.55-2.52,2.54Z"/></g></g></svg>