<?xml version="1.0" encoding="UTF-8"?><svg id="_圖層_2" xmlns="http://www.w3.org/2000/svg" viewBox="0 0 17.37 17.35"><defs><style>.cls-1{fill:#efb134;stroke:#efb134;stroke-miterlimit:10;stroke-width:.5px;}</style></defs><g id="_圖層_1-2"><path class="cls-1" d="M13.11,17.1c-.27,0-.56-.06-.84-.17-1.67-.66-3.24-1.5-4.71-2.54-1.44-1.02-2.71-2.2-3.82-3.57-1.41-1.74-2.55-3.65-3.32-5.76-.3-.83-.18-1.58,.42-2.23,.58-.63,1.17-1.24,1.77-1.86,.16-.17,.33-.33,.51-.46,.57-.39,1.31-.38,1.88,.19,.86,.84,1.69,1.71,2.51,2.59,.31,.32,.52,.7,.49,1.18-.03,.39-.2,.7-.47,.97-.36,.36-.72,.72-1.08,1.08-.15,.15-.14,.15-.06,.34,.71,1.58,1.86,2.78,3.32,3.69,.27,.17,.56,.32,.84,.48,.18,.1,.19,.1,.34-.05,.36-.36,.72-.72,1.08-1.08,.44-.44,.95-.57,1.55-.4,.2,.06,.38,.17,.53,.32,.84,.84,1.67,1.68,2.51,2.52,.2,.2,.38,.4,.47,.68,.18,.57,.08,1.09-.35,1.52-.65,.67-1.31,1.32-1.98,1.97-.4,.39-1,.61-1.6,.6Zm-.07-6.42c-.06,.06-.12,.11-.17,.16-.51,.51-1.02,1.02-1.54,1.54-.29,.29-.3,.3-.67,.13-1.26-.56-2.41-1.31-3.43-2.24-.66-.61-1.19-1.33-1.64-2.11-.3-.52-.58-1.05-.77-1.62-.04-.11-.04-.19,.06-.29,.5-.49,1-.99,1.49-1.48,.09-.09,.19-.18,.28-.28,.1-.11,.1-.13,0-.25-.03-.03-.06-.07-.1-.1-.79-.81-1.58-1.62-2.38-2.43-.03-.03-.06-.07-.1-.1-.09-.07-.18-.08-.27,0-.04,.04-.08,.07-.12,.11-.62,.63-1.24,1.27-1.86,1.89-.27,.27-.34,.58-.21,.93,.11,.3,.23,.61,.35,.9,.53,1.21,1.18,2.36,1.93,3.44,1.36,1.93,3.02,3.55,5,4.84,1.2,.79,2.48,1.43,3.82,1.96,.52,.21,.84,.14,1.23-.25,.6-.6,1.21-1.21,1.81-1.81,.04-.04,.08-.09,.1-.12-.94-.94-1.87-1.87-2.82-2.83Z"/></g></svg>