<?xml version="1.0" encoding="UTF-8"?><svg id="_圖層_2" xmlns="http://www.w3.org/2000/svg" viewBox="0 0 120 120"><defs><style>.cls-1{fill:none;opacity:.5;}.cls-2{fill:#0f2c51;}.cls-3{fill:#0e2c50;}</style></defs><g id="_圖層_1-2"><g><rect class="cls-1" width="120" height="120"/><g><g><path class="cls-3" d="M40.26,93.46c.18-.27,.62-.8,1.21-.8s1.62,.62,1.62,1.36c0,.85-.35,.85-4.27,.85-4.36,0-5.42,.06-5.45,.06-.24,.03-1.33,.35-1.59,.35-.38,0-.82-.09-.82-.68,0-.62,.71-1.33,1.33-1.33,.18,0,.97,.18,1.15,.21h2.56c-.03-.68-.06-1.53-.18-2.48l-.44-.41s-.21-.21-.21-.41c0-.85,1.92-1.89,3.01-1.89,1.18,0,1.3,.68,1.3,1.24,0,.15-.12,.85-.15,1.03-.06,.56-.18,2.18-.24,2.89h1.18Zm-2.15,10.99c.32-.56,1.03-.85,1.5-.85,.71,0,2.03,.74,2.03,1.44,0,.15-.32,.8-.32,.97,0,.09,.06,3.68,.06,4.15,0,.85-1.41,1.59-2.3,1.59-1.03,0-1.03-.27-1.03-1.03h-1.86v1.03c0,.8-1.27,1.27-2.27,1.27-.41,0-1.03-.29-1.03-.77,0-.85,.18-5.04,.18-5.98,0-.21,0-.24-.15-.38-.26-.29-.32-.38-.32-.5,0-.68,1.71-1.74,2.53-1.74,.56,0,1,.27,1.15,.8h1.83Zm.65-3.8c.32-.41,.88-.71,1.27-.71,.59,0,1.68,.65,1.68,1.47s-.85,.8-2.18,.77c-.94-.03-2.5-.03-3.42-.03-.27,0-.5,.03-.74,.06-.21,.03-1.12,.29-1.33,.29-.41,0-1.03-.18-1.03-.77,0-.62,.53-1.24,1.27-1.24,.12,0,.74,.15,.88,.15h3.59Zm.03-3.59c.29-.38,.88-.71,1.24-.71,.68,0,1.71,.68,1.71,1.5,0,.71-.88,.77-1.15,.77-.41,0-2.36-.03-2.8-.03h-1.36c-.59,0-.85,.03-1.12,.09-.18,.03-1.03,.27-1.24,.27-.47,0-1.03-.21-1.03-.74,0-.68,.59-1.27,1.27-1.27,.12,0,.74,.12,.88,.12h3.59Zm-.71,12.43v-3.77h-1.86s-.03,.15-.03,.21v3.57h1.89Zm9.1-10.52c0,6.89-.65,10.58-3.92,13.23-1.77,1.41-3.36,1.86-4.01,1.86-.12,0-.35-.03-.35-.21,0-.09,.03-.15,.24-.29,1.27-.77,2.65-2.15,3.51-3.8,1.3-2.56,1.3-5.45,1.3-10.34,0-.71-.06-6.51-.26-7.04-.06-.12-.56-.53-.56-.65,0-.8,1.65-2.06,2.83-2.06,1.3,0,1.33,.68,1.3,1.24l-.06,.82v7.25Zm1.38,4.51c0-.82,.06-4.8,.06-5.69,0-.21-.03-2.86-.06-3.3-.32-.18-.5-.24-.5-.47,0-.62,1.62-1.71,2.39-1.71s1.44,.09,1.44,1.24c0,.12-.09,.71-.09,.82-.06,.5-.06,1.03-.06,1.59v1c0,2.21-.06,8.72-.15,10.43-.12,2.65-1.92,2.71-2.03,2.71-.53,0-1.06-.29-1.06-.65l.06-5.98Zm4.74-9.31c0-.53-.03-.97-.12-2.33-.26-.27-.65-.68-.65-.8,0-.62,2.03-1.94,3.03-1.94,.41,0,1.38,.24,1.38,.91,0,.21-.12,1.06-.15,1.27-.09,1-.27,4.71-.27,6.84,0,1.62,.06,9.05,.09,10.64,0,.38,.09,3.3,.09,3.42,0,1-1.27,2.33-2.42,2.33-1.33,0-1.33-1.3-1.33-1.97,0-1.18,.24-6.98,.27-8.28,.06-4.95,.06-5.45,.06-7.04v-3.03Z"/><path class="cls-3" d="M61.42,108.93c-.74,0-1.68-.41-1.68-1.36,0-1.3,1.06-1.38,1.53-1.44,.53-.06,1.44-.15,2.65-.91,.18-.12,.53-.35,.62-.35,.21,0,.29,.15,.29,.32,0,.77-1.33,3.74-3.42,3.74Zm6.45-3.48c0,.85,.12,5.01,.12,5.92,0,1.38-1.36,2.09-2.24,2.09-.59,0-1.21-.32-1.21-1,0-1.21,.21-3.12,.26-4.33,.15-3.09,.18-4.12,.21-5.86-.82,.18-2.53,.5-3.48,.5-.85,0-1.36-.5-1.36-1.03,0-.47,.44-1.06,.91-1.24,.21-.09,.24-.12,2.15-.06,.5-.77,1-1.53,1.47-2.33-.62-.18-1.42-.32-2.8-.59-1.09-.21-1.09-.8-1.09-1.06,0-.47,.53-1.06,1.21-1.24,.65-1.15,1.56-2.8,2.92-5.66-.03-.12-.09-.38-.09-.47,0-.88,1.94-1.24,2.5-1.24,.62,0,1.62,.35,1.62,1.09,0,.29-.15,.59-.32,.85-.85,1.27-2.89,4.01-4.39,6.01,.65,.38,1.09,.65,1.41,.88,.56-.88,1.06-1.94,1.27-2.42,0-.06,.03-.47,.03-.53,.18-.56,1.33-.83,1.94-.83,.56,0,1.71,.27,1.71,1.06,0,.32-.15,.5-1.36,2-1.12,1.38-2.33,3.01-3.45,4.51h2.33c-.44-.71-.5-.77-.85-1.27-.03-.03-.15-.21-.15-.29,0-.21,.35-.27,.53-.27,1.53,0,4.01,1.36,4.01,3.01,0,.59-.62,1.3-1.47,1.3-.71,0-.8-.12-1.44-1.39l-.91,.21v3.65Zm13.08-1.65c1.74,4.07,6.48,6.16,7.13,6.42,.18,.09,.97,.44,.97,.53,0,.27-3.24,1.89-3.62,1.89-.41,0-4.21-1.47-5.45-8.01,0,.53,.03,2.5,.12,3.74,.12,1.3,.12,2.45,.12,2.86,0,1.24,0,1.62-.77,2.24-.32,.24-.88,.56-1.5,.56-.83,0-1.33-.47-1.33-1.3,0-.44,.12-2.56,.15-3.06l.12-2.53c-1.74,2.5-5.78,5.24-8.31,5.24-.09,0-.5,0-.5-.29,0-.09,.83-.56,.97-.68,1.15-.8,3.12-2.36,5.07-5.63,.62-1.06,.71-1.21,1.65-1.21,.24,0,.62,0,1.18,.27v-1.03h-1.83c-.41,.77-1.83,1-2.18,1-.94,0-.94-.62-.94-.94,0-.88,.18-5.16,.18-6.13,0-.18-.03-.82-.06-.94-.06-.09-.35-.53-.35-.65,0-.59,1.44-1.65,2.27-1.65,.44,0,.97,.15,1.06,.62h1.97v-2.18l-3.86,.03c-.26,0-1.44,.41-1.71,.41-.32,0-1.06-.21-1.06-.77,0-.59,.47-1.36,1.44-1.36,.18,0,.97,.18,1.15,.18h4.04c0-.32-.03-1.8-.15-1.89-.18-.18-.44-.44-.44-.59,0-.8,1.74-1.74,2.68-1.74,.24,0,1.27,.06,1.27,.88,0,.32-.09,.83-.09,.91-.09,.47-.09,.5-.18,2.42h3.8c.32-.62,1.06-1.09,1.62-1.09,.71,0,2.15,.85,2.15,1.74,0,.83-1.44,.83-1.74,.83h-5.83c-.03,1.12-.06,1.47-.06,2.21h2.3c.24-.32,.59-.8,1.18-.8,.83,0,2.18,.83,2.18,1.59,0,.12-.29,.74-.29,.91,0,.97,.15,5.75,.15,6.84,0,.68-1.38,1.21-2.15,1.21-1.18,0-1.21-.62-1.21-1.06h-1.3Zm-8.34,3.65c0,.38-.53,.44-.83,.44-1.12,0-3.71-1.8-3.71-2.89,0-.56,.85-1.15,1.53-1.15,.8,0,.94,.29,1.18,.74,.74,1.36,.83,1.53,1.53,2.36,.12,.15,.27,.38,.29,.5Zm4.45-8.54v-2.59h-1.8c-.12,0-.21,.18-.21,.29v2.3h2Zm-.06,1.24h-1.92v2.39h1.89l.03-2.39Zm5.27-1.24v-2.59h-2.21c0,.38-.03,2.18-.03,2.59h2.24Zm-.03,3.62v-2.39h-2.21l.03,2.39h2.18Z"/></g><g><path class="cls-2" d="M60.34,51.99c-.09,.08-.19,.17-.28,.25-.1,.08-.2,.17-.29,.25-.2,.16-.42,.32-.63,.47l-4.46,9.16-.89-5.27,1.32-2.12c-.16,.04-.32,.07-.48,.1-.42,.07-.84,.12-1.27,.15-.24,.02-.47,.03-.71,.03-.91,0-1.8-.11-2.66-.32l1.34,2.16-.84,5.37-4.94-9.7c-.23-.18-.45-.37-.66-.57l-.09,.08c-4.79,4.15-6.06,10.54-6.39,13.91h28.01c-.92-9.84-5.02-13.22-6.08-13.93Z"/><path class="cls-2" d="M52.65,32.98c-5.85,0-10.62,4.76-10.62,10.62s4.76,10.62,10.62,10.62,10.62-4.76,10.62-10.62-4.76-10.62-10.62-10.62Z"/><path class="cls-2" d="M83.05,58.93c.06-.04,.1-.11,.09-.19,0-.07-.05-.14-.11-.17-.02-.01-1.8-.93-2.27-2.18,.62,.62,1.36,.87,2.33,1.05,.08,.01,.15-.01,.2-.07,.05-.06,.06-.14,.03-.21-.92-2.25-1.38-4.92-1.83-7.5-.27-1.58-.54-3.12-.9-4.49-.12-.59-.3-1.17-.54-1.71-.26-.67-.56-1.28-.93-1.8-.4-.57-1.48-2.08-3.93-2.59-.79-.26-1.63-.4-2.51-.4-1.76,0-3.29,.58-4.55,1.55-1.19,.75-2.08,1.89-2.75,3.54-.43,.93-.74,1.94-.93,2.99-.05,.29-.08,.57-.1,.85-.06,.34-.12,.7-.17,1.07-.24,1.73-.07,3.99,.27,6.14,1.4,2.24,2.81,5.76,3.3,11.11h16.01c-.12-1.47-.48-3.99-1.62-6.49,.53-.27,.86-.49,.9-.51Zm-4.92-1.28c-.13,.16-2.63,1.79-2.63,1.79l1.23,1.68-3.9,3.07h0s-.01,0-.01,0h-.01s0,0,0,0l-3.9-3.07,1.23-1.68s-2.51-1.63-2.63-1.79c-.22-.28,1.12-1.57,1.12-1.57l4.19,8.1,4.19-8.1s1.34,1.29,1.12,1.57Z"/><path class="cls-2" d="M70.6,5.5h-28.36c-1.55,0-2.8,1.25-2.8,2.8v15.27c0,1.55,1.25,2.8,2.8,2.8h11.4l-.38,4.8,4.17-4.8h13.17c1.55,0,2.8-1.25,2.8-2.8V8.3c0-1.55-1.26-2.8-2.8-2.8Zm-12.88,13.53h-14.16c-.27,0-.49-.22-.49-.49s.22-.49,.49-.49h14.16c.27,0,.49,.22,.49,.49s-.22,.49-.49,.49Zm11.21-3.39h-25.37c-.27,0-.49-.22-.49-.49s.22-.49,.49-.49h25.37c.27,0,.49,.22,.49,.49s-.22,.49-.49,.49Zm0-3.39h-25.37c-.27,0-.49-.22-.49-.49s.22-.49,.49-.49h25.37c.27,0,.49,.22,.49,.49s-.22,.49-.49,.49Z"/><path class="cls-2" d="M81.12,19.03h-6.45v5.51c0,1.66-1.35,3.02-3.02,3.02h-8.51v3.67c0,.97,.78,1.75,1.75,1.75h8.65l2.61,3-.24-3h5.2c.97,0,1.75-.79,1.75-1.75v-10.45c0-.97-.79-1.75-1.75-1.75Z"/></g></g></g></g></svg>