<?xml version="1.0" encoding="UTF-8"?><svg id="_圖層_2" xmlns="http://www.w3.org/2000/svg" viewBox="0 0 127.79 96.12"><defs><style>.cls-1{fill:#fff;}.cls-2{fill:#122d55;}</style></defs><g id="_圖層_1-2"><g><g><path class="cls-2" d="M59.44,14.2c33.35-.87,60.95,16.58,61.53,38.89,.52,20.21-21.39,24.27-45.14,25.64-2.32,.13-4.27,1.57-5.1,3.76-.82,2.16-.32,4.51,1.31,6.12l.12,.12c1.18,1.14,1.58,2.83,1.05,4.41-.54,1.59-1.9,2.69-3.54,2.87-.52,.06-1.05,.1-1.58,.11-2.51,.07-5.03-.38-7.38-1.31-5.13-2.03-9.09-6.2-10.86-11.43-.78-2.31-3.01-3.88-5.54-3.91C21.6,79.16,.53,76.14,0,56.23-.57,33.92,26.09,15.07,59.44,14.2Z"/><g><g><path class="cls-2" d="M12.4,20.36c2.26-2.23,4.81-4.34,7.59-6.29,2.07-1.44,4.27-2.8,6.58-4.05,.68-.37,1.54-.1,1.9,.6h0c.35,.68,.08,1.51-.59,1.88-2.21,1.2-4.32,2.49-6.29,3.87-2.65,1.85-5.07,3.85-7.21,5.96-.54,.54-1.41,.56-1.96,.03h0c-.56-.54-.59-1.45-.03-1.99Z"/><path class="cls-2" d="M45.5,2.79C52.1,1.14,59.01,.22,66.07,.03c10.02-.26,20.03,1.03,29.05,3.74,.75,.22,1.16,1.02,.92,1.77h0c-.23,.73-1.01,1.13-1.74,.91-8.73-2.62-18.43-3.87-28.15-3.62-6.85,.18-13.56,1.07-19.96,2.67-.74,.19-1.5-.25-1.69-.99-.2-.75,.25-1.53,1.01-1.72Z"/></g><path class="cls-1" d="M66.29,8.43C33.66,9.27,7.66,27.45,8.22,49.02c.46,17.72,18.42,21.54,42.91,21.87,3.08,.04,5.87,1.95,6.85,4.86,1.58,4.66,5.11,8.63,10.05,10.58,2.73,1.08,5.56,1.42,8.29,1.11,2.37-.27,3.39-3.23,1.68-4.89-.04-.04-.09-.09-.13-.13-4.4-4.36-1.49-11.92,4.69-12.27,25.52-1.47,44.3-5.98,43.83-24.2-.56-21.57-27.47-38.37-60.1-37.52Z"/><path class="cls-2" d="M74.9,88.94c-2.51,.07-5.03-.38-7.38-1.31-5.13-2.03-9.09-6.2-10.86-11.43-.78-2.31-3.01-3.88-5.54-3.91-22.7-.31-43.78-3.33-44.29-23.24C6.24,26.75,32.9,7.89,66.25,7.03c33.35-.87,60.95,16.58,61.53,38.89,.52,20.21-21.39,24.27-45.14,25.64-2.32,.13-4.27,1.58-5.1,3.76-.82,2.16-.32,4.51,1.31,6.12l.12,.12c1.18,1.14,1.58,2.83,1.05,4.41-.54,1.59-1.9,2.69-3.54,2.87-.52,.06-1.05,.1-1.58,.11ZM66.32,9.83c-31.81,.83-57.24,18.39-56.7,39.16,.37,14.18,12.4,20.12,41.53,20.51,3.72,.05,7,2.39,8.16,5.81,1.5,4.45,4.87,8,9.24,9.72,2.42,.96,5.05,1.31,7.62,1.02,.84-.09,1.13-.78,1.21-.99,.07-.21,.25-.92-.34-1.5l-.15-.15c-2.42-2.4-3.17-5.89-1.96-9.1,1.22-3.24,4.12-5.37,7.56-5.57,25.83-1.49,42.94-5.93,42.51-22.77-.54-20.76-26.85-36.99-58.66-36.16Z"/></g></g><g><path class="cls-2" d="M23.19,51.93c.67-.78,1.1-2.07,1.27-3.3l1.49,.45c-.22,1.32-.54,2.74-1.32,3.6l-1.43-.75Zm.41-5.59c.93-.02,2.07-.06,3.32-.09v-.89h-2.87v-1.68h2.87v-.82h-2.91v-7.02h7.88v7.02h-3.02v.82h2.98v1.68h-2.98v.82c1.08-.04,2.2-.09,3.28-.13l-.04,1.71c-3.02,.19-6.2,.35-8.46,.45l-.06-1.86Zm2.07-4.97h1.56v-4.04h-1.56v.78l.88-.26c.3,.86,.54,1.96,.6,2.68l-.99,.3c-.04-.71-.22-1.75-.48-2.59v3.13Zm1.77,7.21c.22,1.04,.37,2.37,.39,3.26l-1.43,.17c.04-.88-.11-2.22-.32-3.26l1.36-.17Zm1.83-.17c.35,.99,.69,2.24,.8,3.09l-1.36,.28c-.09-.84-.41-2.12-.76-3.11l1.32-.26Zm.91-11.09h-1.6v3.07c.26-.75,.58-1.83,.71-2.57l.89,.32v-.82Zm0,4.04v-2.65c-.3,.78-.6,1.58-.84,2.12l-.76-.28v.8h1.6Zm.89,6.65c.6,.88,1.19,2.07,1.43,2.89l-1.4,.58c-.22-.82-.78-2.05-1.36-2.98l1.32-.48Zm6.07-6.86v2.87h2.98v8.55h-2.12v-.65h-3.45v.73h-2.01v-8.63h2.44v-8.74h2.16v3.82h3.6v2.05h-3.6Zm.86,4.88h-3.45v3.89h3.45v-3.89Z"/><path class="cls-2" d="M58.23,40.08c-.45,1.14-1.12,2.03-1.97,2.68,.99,.32,2.12,.54,3.35,.65-.39,.37-.88,1.08-1.12,1.55-.67-.09-1.32-.22-1.94-.39l1.19,1.01c-1.7,.26-3.76,.43-5.96,.54v.65h5.53v1.34h-5.53v.58h7.64v1.4h-7.64v.69c0,.99-.24,1.4-.99,1.64-.73,.26-1.75,.26-3.19,.26-.13-.52-.43-1.19-.71-1.64,.89,.04,2.01,.02,2.27,0,.3,0,.41-.07,.41-.32v-.63h-7.64v-1.4h7.64v-.58h-6v-1.34h6v-.56c-2.18,.07-4.4,.07-6.43,.04-.02-.35-.17-.91-.3-1.23,4.68,.07,10.3-.11,13.45-.52-.67-.19-1.29-.41-1.83-.67-1.06,.41-2.24,.71-3.58,.89-.15-.43-.45-1.04-.73-1.42,.97-.09,1.88-.26,2.68-.48-.47-.39-.89-.82-1.25-1.29l1.02-.34h-1.23v-1.32c-.19,.09-.41,.17-.63,.24-.13-.21-.37-.48-.63-.76v1.47h-2.81v.47h3.37v1.06h-3.37v1.08h1.27v-.89h1.56v1.97h-7.23v-1.97h1.49v.89h1.23v-1.08h-3.6v-1.06h3.6v-.47h-2.66v-3.17h2.66v-.45h-3.15v-1.1h3.15v-.84h1.68v.84h3.28v1.1h-3.28v.45h2.81v.89c1.36-.5,1.56-1.06,1.56-1.73v-1.01h3.47v-.02h1.86v1.58c0,.37,.04,.52,.3,.52h.89c.28,0,.76-.04,1.01-.11,.04,.47,.09,1.1,.15,1.56-.26,.09-.71,.11-1.1,.11h-1.19c-1.58,0-1.92-.61-1.92-2.11v-.07h-1.68c-.07,.95-.54,1.84-1.92,2.52h5.29l.34-.04,1.02,.32Zm-13.81-1.21h1.23v-.45h-1.23v.45Zm1.23,1.19v-.45h-1.23v.45h1.23Zm2.98-1.64h-1.3v.45h1.3v-.45Zm0,1.19h-1.3v.45h1.3v-.45Zm4.75,1.58c.34,.34,.75,.63,1.19,.89,.45-.26,.84-.56,1.15-.89h-2.35Z"/><path class="cls-2" d="M67.54,42.71c-.13,.26-.28,.5-.43,.76h8.72v9.26h-2.24v-.67h-6.74v.67h-2.12v-6.13c-.84,.84-1.79,1.6-2.87,2.24-.32-.52-.97-1.34-1.4-1.79,1.94-1.04,3.43-2.59,4.55-4.34h-3.97v-1.75h4.9c.13-.26,.24-.54,.35-.8h-3.95v-1.68h4.55c.07-.26,.15-.52,.21-.8-1.55,.06-3.09,.07-4.55,.06-.02-.48-.22-1.21-.41-1.66,4.55,0,9.93-.22,13.06-.75l1.3,1.58c-1.97,.34-4.42,.54-6.97,.67-.07,.3-.17,.6-.26,.89h7.3v1.68h-7.9c-.09,.26-.21,.54-.32,.8h9.22v1.75h-10.04Zm6.06,2.44h-6.74v.8h6.74v-.8Zm0,2.18h-6.74v.82h6.74v-.82Zm0,3.06v-.86h-6.74v.86h6.74Z"/><path class="cls-2" d="M88.96,46.84c-.24,.93-.67,1.83-1.36,2.59,2.42,.8,5.48,.88,9.26,.86-.41,.5-.82,1.43-.95,2.2-4.04-.09-7.47-.37-10.14-1.55-1.25,.71-2.89,1.32-5.05,1.75-.26-.52-.86-1.45-1.34-1.98,1.79-.28,3.15-.65,4.21-1.1-.73-.56-1.36-1.27-1.92-2.09l1.7-.69h-1.98v-7.66h5.52v-1.1h-7.14v-1.97h16.32v1.97h-6.86v1.1h5.7v7.66h-5.98Zm-5.48-4.68h3.43v-1.19h-3.43v1.19Zm0,2.87h3.41c.02-.2,.02-.41,.02-.61v-.6h-3.43v1.21Zm.19,1.81c.54,.67,1.12,1.19,1.81,1.62,.54-.5,.86-1.02,1.08-1.62h-2.89Zm9.07-3.02h-3.5v.61c0,.19,0,.39-.02,.6h3.52v-1.21Zm-3.5-2.85v1.19h3.5v-1.19h-3.5Z"/><path class="cls-2" d="M115,44.42c-2.63,5.66-8.74,7.62-15.84,8.29-.17-.61-.54-1.58-.89-2.14,2.94-.21,5.72-.63,8.07-1.47-.52-.54-1.27-1.17-1.94-1.73-.75,.37-1.55,.73-2.4,1.02-.26-.5-.89-1.32-1.36-1.71,3.84-1.19,6.41-3.02,7.83-4.83l2.4,.56c-.37,.43-.73,.84-1.14,1.25h3.33l.41-.11,1.53,.88Zm-2.46-6.86c-2.4,4.29-7.69,6.6-13.06,7.6-.21-.56-.63-1.47-1.02-1.96,1.88-.28,3.78-.75,5.5-1.42-.5-.52-1.17-1.14-1.83-1.68-.54,.3-1.1,.58-1.7,.84-.34-.5-1.02-1.27-1.51-1.58,3-1.12,5.22-2.7,6.46-4.15l2.38,.56c-.32,.34-.65,.67-1.01,1.01h3.93l.39-.09,1.45,.88Zm-8.16,1.17c-.17,.13-.35,.24-.54,.37,.78,.56,1.56,1.23,2.11,1.81,1.19-.61,2.25-1.36,3.07-2.18h-4.64Zm3,6.88c-.35,.24-.73,.48-1.08,.73,.76,.56,1.6,1.25,2.18,1.84,1.27-.69,2.33-1.55,3.13-2.57h-4.23Z"/></g></g></g></svg>