<?xml version="1.0" encoding="UTF-8"?><svg xmlns="http://www.w3.org/2000/svg" viewBox="0 0 284.9 447.91"><defs><style>.cls-1{fill:#0e2c50;}.cls-2{fill:#595857;}.cls-3{mix-blend-mode:darken;}.cls-4{isolation:isolate;}.cls-5{fill:none;stroke:#fcebd2;stroke-miterlimit:10;stroke-width:7px;}.cls-6{fill:#fcebd2;opacity:.3;}</style></defs><g class="cls-4"><g id="_圖層_2"><g id="_圖層_1-2"><g><g><path class="cls-2" d="M44,292.19c.03-.9,.03-2.18,.03-3.56,0-.28,0-.45-.08-.67-.03-.11-.42-.53-.42-.67,0-.64,1.99-1.57,2.74-1.57,.64,0,1.4,.39,1.4,1.06,0,.14-.08,.5-.11,.62-.03,.08-.03,.92-.03,1.09,0,.84,.08,4.96,.08,5.88,0,.36,0,.56-.34,.87-.45,.39-1.4,.73-2.18,.73-.48,0-1.23-.2-1.2-.87l.03-1.34h-13.8v.78c0,.67-1.29,1.34-2.21,1.34-.2,0-1.26,0-1.26-1.06,0-.9,.2-5.35,.2-6.36,0-.28-.03-.45-.17-.59-.36-.39-.45-.48-.45-.64,0-.73,2.04-1.6,2.69-1.6,.11,0,1.29,0,1.29,1.12,0,.2-.11,1.09-.11,1.29-.06,1.06,0,3.64,0,4.14h5.24c.06-1.9,.11-4.23,.11-9.13h-4.28c0,.45,0,.81-.78,1.2-.11,.03-.78,.36-1.37,.36-1.2,0-1.2-.7-1.2-1.18,0-.81,.14-4.79,.14-5.68,0-.31,0-.59-.22-.78-.36-.34-.36-.36-.36-.56,0-.64,2.1-1.68,2.8-1.68,.28,0,1.12,0,1.12,1.04,0,.28-.14,1.65-.14,1.96v3.86h4.28c0-.84-.11-4.98-.11-5.91-.03-1.15,0-1.26-.31-1.57-.42-.39-.45-.42-.45-.62,0-.9,2.24-1.99,3.3-1.99,1.18,0,1.18,1.04,1.18,1.4,0,.06-.06,.84-.08,1.04-.08,1.23-.17,2.55-.28,7.64h4.42c.03-1.09,.03-1.82,.03-3.89,0-.22,0-.59-.14-.73-.34-.34-.42-.42-.42-.7,0-.76,2.07-1.54,2.77-1.54,.48,0,1.4,.2,1.4,1.04,0,.14-.03,.22-.06,.45-.06,.36-.14,.76-.14,1.74v5.32c0,.64-1.15,1.34-2.3,1.34s-1.2-.62-1.2-1.57h-4.4c-.03,1.26-.03,3.86-.03,9.13h5.4Z"/><path class="cls-2" d="M70.54,272.59c.31-.5,.9-.9,1.34-.9,.67,0,1.96,.67,1.96,1.57,0,.34-.2,.42-.42,.5-1.18,2.52-1.93,3.44-2.38,3.98,.42,.25,1.2,.78,2.83,1.32,.64,.22,2.77,.78,3.16,.78,.06,0,.56,.06,.56,.25,0,.39-3.14,1.88-3.56,1.88-1.37,0-3.81-1.48-4.96-2.77-1.09,.7-2.18,1.18-3.44,1.48,1.2,1.34,4.73,3.39,12.46,4.2,.2,0,.2,.11,.2,.14,0,.14-2.21,2.3-3.42,2.3-.84,0-3.11-.7-4.82-1.68,.03,1.51,.03,2.07,.06,3.42,.39,.08,1.32,.42,1.32,1.06,0,.48-.48,.9-.87,1.15-.2,.11-1.6,.7-2.97,1.29,1.88,.62,4.26,.78,6.66,.98,.92,.06,1.04,.11,1.04,.31-.42,.53-2.63,2.35-3.7,2.35-2.66,0-6.19-1.9-7.5-2.77-.06,.14-.11,.17-.67,.39-2.63,1.06-5.46,1.88-7.76,1.88-1.37,0-2.16-.64-2.16-1.26,0-1.06,1.01-1.06,3.05-1.06h.56l.08-7.7c-2.49,1.01-4.09,1.37-5.68,1.37-.5,0-1.12-.14-1.12-.34,0-.06,.81-.28,.95-.34,1.9-.56,6.97-2.55,10.72-6.24,.9-.9,1.06-1.04,1.68-1.04,.42,0,1.46,.31,1.65,.95,.73-.5,1.62-1.29,2.35-2.16-.84-1.06-.92-1.2-1.68-2.32-.5-.31-.73-.45-.73-.59,0-.28,1.01-.56,1.46-.56,.5,0,.62,.14,.81,.45,.36,.56,1.06,1.23,1.4,1.57,.81-1.46,1.01-2.1,1.15-2.52h-2.94c-.22,0-1.32,.31-1.6,.31s-.76-.06-.76-.59c0-.45,.34-1.18,1.18-1.18,.14,0,.7,.14,.84,.14h3.64Zm-8.32,.14c.39-.78,.87-.84,1.06-.84,.64,0,1.46,.67,1.46,1.29,0,.53-.76,.59-1.01,.59h-2.3c-.03,.28-.06,.53-.08,1.4h.5c.42-.45,.87-.45,.92-.45,.59,0,1.85,.81,1.85,1.46,0,.25-.22,.36-.59,.53-1.46,1.93-5.15,6.22-11.03,6.22-.22,0-1.26-.08-1.26-.31,0-.08,1.01-.42,1.18-.48,3-1.04,4.26-2.1,4.98-2.77-1.29-.03-1.96-.39-1.96-.9,0-.59,.92-1.29,1.65-1.29,.59,0,1.34,.7,1.68,1.06,.25-.31,1.04-1.2,1.68-2.13h-3.08c-2.24,2.41-4.65,3.33-5.57,3.33-.17,0-.59-.03-.59-.25,0-.08,.06-.14,.64-.56,.7-.53,2.49-1.82,3.56-4.14,.06-.87,.87-.87,1.12-.87,.67,0,1.37,.56,1.74,1.15-.06-1.76-.11-2.35-.14-2.83-.03-.08-.36-.48-.36-.59,0-.56,1.37-1.43,2.24-1.43,.59,0,1.12,.22,1.12,.87,0,.28-.11,1.62-.14,1.93h.73Zm4.76,11.96c.08-.2,.34-.42,.48-.45-.87-.59-2.1-1.68-3.05-2.94-.78,.73-1.57,1.32-4.54,3.28l.11,.11h2.58c0-.22-.03-.34-.11-.48-.11-.11-.28-.31-.28-.42,0-.56,1.37-1.29,2.02-1.29,.42,0,1.09,.28,1.09,.81,0,.2-.22,1.15-.25,1.37h1.96Zm-6.92,5.26c-.03,1.18-.03,2.3-.03,3.36,.56-.03,3.39-.34,3.56-.28-1.54-1.26-2.27-2.35-2.72-3.08h-.81Zm6.83-1.09v-.98h-6.8v.98h6.8Zm0-2.1v-1.01h-6.78v1.01h6.78Zm-4.23,3.19c.76,.76,1.88,1.48,2.8,1.99,.5-.59,1.04-1.29,1.46-1.99h-4.26Z"/><path class="cls-2" d="M90.42,274.18c-.03-.39-.03-.59-.11-1.43-.03-.11-.06-.17-.22-.28-.45-.28-.56-.34-.56-.56,0-.9,2.13-1.82,3.19-1.82,.9,0,1.37,.31,1.37,1.09,0,.14-.06,.48-.08,.64-.11,.64-.17,.98-.28,2.35,2.32-.03,5.1-.03,7.39-.03,.36-.78,1.26-1.34,1.79-1.34,.76,0,2.38,1.01,2.38,1.99,0,.84-.92,.92-1.51,.92-.31,0-9.66-.03-11.48-.03h-8.6c-.7,0-.92,0-1.32,.06-.28,.03-1.57,.59-1.88,.59-.56,0-.98-.28-.98-.84,0-.73,.64-1.54,1.46-1.54,.17,0,1.06,.22,1.29,.22h8.15Zm8.68,9.69c.5-.59,1.23-1.06,1.99-1.06,.81,0,1.74,.62,1.74,1.46,0,.14-.03,.25-.08,.45-.17,.48-.17,.53-.17,.87,0,.92,.17,5.54,.17,6.61,0,.9,0,3.72-3.44,3.72-1.88,0-4.14-2.1-4.14-2.3,0-.11,.08-.14,.2-.14,.31,0,1.88,.17,2.24,.17,1.48,0,1.65-.76,1.65-2.44v-5.52c0-.28-.11-.48-.39-.48h-13.16c-.31,0-.45,.28-.48,.48-.03,.17-.03,6.72-.03,7.25,0,1.12,0,1.34-.42,1.9-.39,.53-1.15,.98-1.79,.98-.08,0-1.26,0-1.26-1.15,0-.45,.22-2.58,.25-3.08,.11-1.68,.2-3.95,.2-5.63,0-.03,0-.31-.03-.48-.03-.14-.42-.67-.42-.81,0-.76,1.82-1.74,2.49-1.74,.36,0,.9,.22,1.09,.92h13.8Zm-3.75-6.55c.45-.64,1.34-.92,1.71-.92,.53,0,1.82,.42,1.82,1.26,0,.17-.25,.87-.25,1.04,0,.42,.08,2.46,.08,2.94,0,1.04-1.32,1.34-2.21,1.34-1.15,0-1.18-.22-1.23-1.12h-6.3c-.06,.9-1.18,1.18-1.99,1.18-.56,0-1.15-.25-1.15-.98,0-.2,.08-2.91,.08-3.36,0-.22,0-.28-.11-.42-.2-.2-.28-.31-.28-.39,0-.76,1.65-1.46,2.35-1.46,.06,0,1.04,0,1.18,.9h6.3Zm-1.15,9.35c.36-.42,.87-.7,1.43-.7,.64,0,1.76,.48,1.76,1.32,0,.11-.2,.7-.2,.84,0,.42,.08,2.58,.08,3.08,0,1.15-1.68,1.4-2.13,1.4-1.01,0-1.06-.36-1.06-1.01h-3.67v.53c0,.87-1.29,1.37-1.93,1.37-1.15,0-1.15-.5-1.15-.95,0-.59,.08-3.53,.08-4.2,0-.17-.03-.22-.11-.34-.25-.36-.28-.39-.28-.53,0-.7,1.57-1.43,2.24-1.43,.11,0,.87,.06,1.06,.62h3.86Zm1.12-6.05v-2.04h-6.05c-.17,0-.31,.06-.31,.25v1.79h6.36Zm-1.2,9.69c0-1.15,0-1.71-.03-2.41h-3.39c-.2,0-.31,.2-.31,.39v2.02h3.72Z"/><path class="cls-2" d="M107.14,294.06c-.25,0-.59,0-.59-.25,0-.17,1.12-.62,1.32-.73,1.15-.67,3.7-2.16,5.52-5.46-.53-.64-1.23-1.18-1.82-1.65-.78-.22-1.23-.62-1.23-1.01,0-.7,1.12-1.04,1.57-1.04,.92,0,2.02,1.09,2.55,1.82,.11-.39,.36-1.18,.36-1.48,0-.08-.08-.48-.08-.56,0-.62,.95-1.12,1.71-1.12,.87,0,1.34,.5,1.34,1.29,0,1.23-.78,2.94-1.06,3.58,2.18,2.41,2.6,2.86,2.6,3.72,0,.39-.36,.7-.78,.7-.56,0-.81-.25-3.11-2.6-2.16,3.22-5.94,4.79-8.29,4.79Zm1.96-10.36c-.95,0-1.9-.59-1.9-1.34,0-.56,.34-1.26,1.46-1.37,.48-.03,2.63-.87,3.42-1.57,.59-.53,.64-.59,.81-.59,.34,0,.39,.25,.39,.59,0,1.09-1.68,4.28-4.17,4.28Zm8.88-7.31c.22-.31,.78-1.09,1.54-1.09s1.9,.87,1.9,1.74c0,.76-.92,.76-1.4,.76h-8.18c-.81,0-1.93,.06-2.21,.11-.22,.06-1.29,.34-1.51,.34-.56,0-.78-.2-.78-.7,0-.76,.67-1.34,1.34-1.34,.17,0,.98,.2,1.15,.2h3.11c-.14-2.44-.14-2.69-.36-2.86-.48-.31-.5-.34-.5-.56,0-.98,1.85-1.93,2.86-1.93,.7,0,1.43,.42,1.43,1.34,0,.08-.11,.76-.11,.9-.17,1.4-.25,1.99-.28,3.11h2.02Zm6.66,.5h4.82c.36-.81,1.06-1.34,1.51-1.34,.62,0,2.1,.84,2.1,1.88,0,.81-.87,.81-1.23,.81h-2.49c.42,.08,.56,.34,.56,.76,0,2.6-1.26,6.61-2.72,9.21,1.71,2.1,3.58,3.44,6.13,4.65,.84,.39,.92,.45,.92,.56,0,.2-.34,.39-.5,.48-1.01,.5-2.88,1.51-3.56,1.51-.76,0-3.05-1.88-4.79-4.79-.98,1.09-2.69,3.02-6.61,3.86-.17,.06-.87,.2-1.32,.2-.17,0-.42-.03-.42-.25,0-.14,.2-.22,.87-.56,1.12-.56,3.67-1.85,5.91-5.52-.59-1.51-1.54-4.09-1.65-8.54-.31,.25-1.71,1.26-1.99,1.48,.08,.17,.28,.62,.28,1.15,0,.73-.73,1.23-1.4,1.23-.9,0-1.15-.48-1.48-1.12-.03-.08-.73-1.37-2.13-2.66-.28-.28-.64-.62-.64-.76,0-.22,.56-.22,.62-.22,1.4,0,3.19,.67,4.31,1.76,2.13-2.83,3.11-6.66,3.36-8.12-.08-.11-.14-.2-.14-.36,0-.67,1.29-1.4,2.04-1.4,.7,0,1.62,.53,1.62,1.29s-.59,1.99-1.65,4.26l-.34,.56Zm-1.15,1.71c.42,3.81,1.23,5.63,1.9,7.17,.14-.53,.39-1.4,.67-2.86,.03-.11,.45-2.63,.45-3.05,0-.25-.03-.25-.22-.5-.03-.06-.08-.17-.08-.31s.06-.25,.17-.39c.06-.08,.31-.34,.34-.42-.39,.03-.64,.03-2.94,.03l-.28,.34Z"/><path class="cls-2" d="M135.78,290.62c0-1.09,1.04-1.99,2.24-1.99,1.4,0,2.3,1.06,2.3,2.3,0,2.24-1.9,6.1-3.53,6.1-.31,0-.59-.11-.59-.42,0-.14,.36-.78,.42-.92,.06-.14,.84-1.9,.9-3.42-1.09-.06-1.74-.67-1.74-1.65Z"/><path class="cls-2" d="M157.85,286.56c0,1.2,0,3.11-.03,4.37,1.54-.2,1.62-.2,3.22-.42-.25-.39-1.71-2.32-1.71-2.35,0-.08,.11-.2,.34-.2,.03,0,.59,.08,.62,.08,2.86,.7,4.87,2.52,4.87,4.14,0,1.04-.87,1.48-1.48,1.48-.56,0-.9-.42-1.2-.87-.14-.2-.73-1.15-.9-1.34-4.45,2.18-7,2.3-7.67,2.3-.84,0-1.65-.48-1.65-1.34,0-1.04,.87-1.2,1.79-1.23,.7-.03,.78-.03,1.09-.06v-8.65c0-.39,0-1.65-.2-1.82-.25-.28-.36-.36-.36-.53,0-.76,1.48-1.68,2.32-1.68,.14,0,.84,0,1.09,.7h3.7c.31-.36,.7-.84,1.2-.84,.59,0,1.99,.73,1.99,1.43,0,.14-.03,.2-.22,.62-.08,.17-.08,.28-.08,.59,0,.73,.08,4.23,.08,5.01,0,1.06-1.18,1.51-2.02,1.51-.98,0-1.01-.59-1.01-.9h-3.78Zm4.37-12.96c.36-.56,.9-.9,1.34-.9,.56,0,1.62,.81,1.62,1.46,0,.78-.84,.78-1.06,.78h-5.8c-1.6,2.07-4.28,3.72-5.68,3.72-.11,0-.34-.03-.34-.22,0-.11,.06-.17,.56-.67,1.46-1.46,3.58-4.28,3.86-5.94-.03-.11-.06-.28-.06-.36,0-.62,1.32-.92,1.9-.92,.42,0,1.74,.11,1.74,1.06,0,.53-.56,1.4-1.06,1.99h2.97Zm-.56,11.73v-1.93h-3.75c-.03,.17-.03,.28-.03,.73v1.2h3.78Zm0-3.08v-1.85h-3.5c-.11,0-.25,.22-.25,.31v1.54h3.75Zm-.95-3.53c-.95,0-1.48-2.04-1.48-2.74,0-.81,1.2-.95,1.48-.95,.7,0,1.54,.28,1.54,1.06s-.56,2.63-1.54,2.63Zm13.22-5.12c.34-.48,.87-1.15,1.48-1.15,.98,0,2.04,.95,2.04,1.68s-.9,.81-1.4,.81h-7.87c-1.18,1.4-3.33,3.02-4.73,3.02-.08,0-.31,0-.31-.22,0-.06,.59-.76,.62-.78,.81-.95,2.77-3.64,3.05-5.26-.08-.11-.11-.34-.11-.42,0-.7,1.4-1.09,1.88-1.09,.7,0,1.79,.36,1.79,1.12,0,.48-.84,1.74-1.32,2.3h4.87Zm-1.2,5.54c.31-.5,.87-.98,1.37-.98,.76,0,2.18,1.04,2.18,1.74,0,.2-.08,.28-.17,.36-.22,.25-.31,.34-.31,.42v.62c0,1.06,.11,6.3,.11,7.48,0,2.21-.87,3.58-2.83,3.58-2.13,0-3.53-2.18-3.53-2.41,0-.17,.14-.17,.25-.17,.06,0,.48,.14,.56,.17,.25,.06,.81,.17,1.23,.17,.67,0,1.09-.39,1.09-1.68v-8.01h-3.33c-.08,0-.14,.03-.17,.08-.08,.08-.08,1.2-.08,1.4,0,1.65,.14,9.8,.14,11.62,0,1.51,0,1.68-.36,2.13-.45,.59-1.18,.78-1.6,.78-1.34,0-1.34-1.29-1.34-1.85,0-.39,.22-4.98,.25-5.91,0-.56,.08-3.78,.08-6.72,0-1.04-.06-1.09-.14-1.18-.17-.17-.42-.39-.42-.53,0-.67,1.46-1.88,2.21-1.88,.2,0,.67,0,1.09,.76h3.7Zm-2.13-.25c-.95,0-1.46-2.07-1.46-2.72,0-.87,1.06-1.12,1.51-1.12,.56,0,1.51,.28,1.51,1.12,0,.78-.59,2.72-1.57,2.72Z"/><path class="cls-2" d="M197.94,283.37c.34-.62,1.01-.92,1.51-.92,.67,0,1.88,.62,1.88,1.29,0,.11-.06,.28-.08,.34-.11,.48-.14,.84-.14,1.62,0,1.23,.17,7.67,.17,7.81,0,.5,0,.87-.84,1.29-.42,.2-.92,.34-1.43,.34-1.18,0-1.18-.36-1.18-1.43h-7.56c0,1.29-1.68,1.48-2.07,1.48-1.18,0-1.18-.62-1.18-.87s.06-1.04,.06-1.23c.08-1.12,.14-4.09,.22-7.25-3.08,1.26-4.68,1.26-6.5,1.26-.2,0-1.68-.14-1.68-.5,0-.14,.03-.14,.87-.34,1.96-.48,4.37-1.06,7.22-2.44,0-.08-.03-.48-.03-.56,0-.22,0-.62,.98-.62,.36,0,1.43,.14,1.65,.31,.7-.42,1.29-.81,3.28-2.13-.64,.28-1.23,.34-1.62,.34-1.54,0-3.14-1.26-3.14-1.54,0-.08,.08-.08,.25-.08,.22,0,1.4,.11,1.65,.11,1.06,0,1.34-.28,1.34-1.51v-4.62c0-.17-.06-.31-.22-.45-.48-.36-.53-.42-.53-.64,0-.7,1.62-1.71,2.63-1.71s1.32,.48,1.32,1.18c0,.14-.11,.9-.14,1.06,0,.22,.03,1.34,.03,1.6v3.86c0,.78-.25,1.18-.42,1.43,.67-.59,1.57-1.51,1.82-2.16,.06-.14,.06-.2,.06-.53,0-.5,.81-.7,1.23-.7,.7,0,2.3,.59,2.3,1.51,0,1.26-4.28,4.23-6.16,5.4h4.45Zm-14.14-3.72c-.78,0-2.13-.5-2.13-1.48,0-.5,.36-1.4,1.68-1.46,1.46-.06,3.36-.59,4.42-1.34,.62-.42,.84-.59,1.2-.59,.45,0,.5,.36,.5,.5,0,.2-.06,.31-.11,.36-1.32,2.63-4.03,4-5.57,4Zm14.06,6.69v-1.68h-7.56v1.68h7.56Zm0,3.05v-1.82h-7.56v1.82h7.56Zm0,1.23h-7.56v1.79h7.53l.03-1.79Zm-1.23-15.79c0-.34,1.12-.34,1.15-.34,2.21,0,8.18,1.51,8.18,3.92,0,.84-.98,1.37-1.71,1.37s-1.34-.5-1.85-.9c-2.97-2.35-3.95-2.88-4.93-3.44-.28-.11-.84-.39-.84-.62Z"/><path class="cls-2" d="M208.27,294.01c-.17,0-.45,0-.45-.25,0-.17,2.07-1.06,2.44-1.29,6.33-3.81,7.95-10.78,7.95-16.74,0-.17,0-.31-.03-.42-.06-.22-.5-1.09-.5-1.29,0-.84,2.35-1.99,3.16-1.99,.31,0,1.62,0,1.62,1.51,0,.5-.2,2.72-.2,3.16,0,.03,.34,3.78,2.66,7.73,2.69,4.54,6.08,6.41,8.62,7.78,.34,.2,.78,.42,.78,.59,0,.31-4.14,1.85-4.68,1.85-1.12,0-2.6-1.51-3.08-2.02-2.58-2.63-4.79-6.97-5.29-13.92-.9,14.87-12.29,15.29-13.02,15.29Z"/><path class="cls-2" d="M254.42,278.55c.39-.7,1.23-1.46,1.82-1.46,.81,0,2.3,.95,2.3,1.9,0,.17-.06,.22-.42,.73-.17,.2-.17,.25-.17,.76,0,6.83-.17,15.12-5.32,15.12-2.27,0-4.93-2.97-4.93-3.36,0-.14,.22-.14,.36-.14,.03,0,.34,.08,.39,.11,.59,.14,2.13,.48,2.91,.48,2.18,0,2.66-3.14,2.94-6.22,.2-2.02,.2-3.3,.2-4.76,0-.39,0-1.43-.14-1.68l-4.9,.08c-.42,3.61-1.15,10.14-7.31,13.66-2.32,1.34-4.96,1.96-5.24,1.96-.36,0-.56-.17-.56-.34,0-.11,.08-.17,.92-.64,7.36-4.06,8.23-10.33,8.74-14.59l-5.49,.17c-.36,0-.76,.2-1.04,.34-.62,.28-1.01,.39-1.43,.39-.34,0-1.12-.2-1.12-.84s.45-1.71,1.54-1.71c.2,0,1.23,.14,1.48,.14l6.1-.03c.03-.56-.03-3.3-.03-3.92,0-.31,0-.39-.2-.59-.56-.56-.59-.59-.59-.87,0-.92,2.35-2.1,3.3-2.1,.59,0,1.6,.36,1.6,1.74,0,.22-.17,1.29-.2,1.54-.11,1.06-.31,3.16-.39,4.17l4.84-.06Z"/></g><g><path class="cls-1" d="M45.15,339.58c0-.06,.48-.5,.5-.52,.72-.66,1.62-1.74,2.12-3.14,.28-.78,.38-1.08,1.22-1.08,.52,0,.9,.28,.9,.7,0,1.64-3.2,4.16-4.5,4.16-.1,0-.24,0-.24-.12Zm4.84-5.9v-1.28c-.54,.46-1.58,.82-2.14,.82-.66,0-1.04-.34-1.04-.74,0-.46,.48-.72,.9-.72,.2,0,1.14,.26,1.36,.26,.24,.02,.68,.02,.92,.02,0-.32,0-.62-.04-1.02-.78,.12-1.54,.12-1.8,.12-.36,0-1.78-.04-1.78-.42,0-.12,.24-.16,.98-.26,.92-.14,2.96-.5,4.38-1.4,.22-.44,.78-.52,.92-.52,.46,0,1.44,.4,1.44,.96,0,.52-.6,.72-2.14,1.22-.06,.68-.08,1.2-.08,1.8,1.06-1.3,1.14-1.38,1.66-1.38,.36,0,.86,.3,.86,.8,0,.74-1.7,1.1-2.52,1.2v.54h1.06c.14-.26,.46-.5,.8-.5,.48,0,1.02,.42,1.02,.98,0,.38-.28,.38-.74,.38h-1.74c.6,.9,1.66,1.8,2.6,2.32,.34,.18,.7,.38,.7,.5,0,.36-1.04,.92-1.48,.92-.96,0-2.1-2.44-2.24-2.7,0,.32,.1,1.84,.1,2.18,0,.44-.72,.84-1.3,.84-.76,0-.76-.4-.76-.56s.08-2.9,.1-3.48c-.46-.02-2.04-.02-2.42,.08-.14,.04-.76,.2-.86,.2-.38,0-.74-.18-.74-.5,0-.38,.4-.78,.9-.78,.1,0,.64,.12,.76,.12h2.36Zm7.04-2.58h-.4c-.58,0-.76,0-.94,.08-.56,.28-.66,.32-.84,.32-.24,0-.54-.06-.54-.46,0-.36,.32-.88,.82-.88,.06,0,.38,.06,.46,.06,.56,0,.92,0,1.32,.02,.16-.38,.56-.7,.92-.7,.38,0,1.3,.32,1.48,1.14,.16-.5,.52-.54,.64-.54,.06,0,.34,.08,.4,.08,.2,.02,1.1,.02,1.3,.02,.16-.34,.62-.72,1-.72,.6,0,1.52,.64,1.52,1.3,0,.16-.06,.24-.18,.4-.16,.18-.16,.6-.16,1.28,0,.82,.06,4.84,.06,5.74,0,.7,.04,4.08,.04,4.84,0,1.12-.1,2.52-1.98,2.52-1.32,0-2.4-1.06-2.46-1.28,.02-.12,.1-.14,.2-.14s1,.1,1.18,.1c.7,0,.88-.28,.9-1.38l.06-4.6c-.74,1.46-1.18,2.32-1.9,2.32-.34,0-.66-.28-.88-.56l.06,3v.3c0,1.04-.12,2.24-1.88,2.24-1.28,0-2.2-1.02-2.28-1.28,0-.14,.12-.14,.18-.14s.92,.1,1.08,.1c.62,0,.8-.26,.82-1.38l.08-5.04c-.98,2.84-1.62,2.84-1.96,2.84-.3,0-.8-.22-1-.68,0,.54,.14,3.22,.14,3.82,0,.7,0,1.44-1.3,1.44-.72,0-.74-.32-.74-.66h-3c-.06,.6-.84,.94-1.38,.94-.68,0-.68-.26-.68-.62,0-.38,.08-2.26,.08-2.68,.02-.64,.02-1.4,.02-2.04,0-.18,0-.22-.1-.34-.12-.14-.14-.22-.14-.26,0-.42,1.06-1.08,1.52-1.08,.12,0,.62,.08,.68,.34h3.08c.14-.26,.5-.46,.8-.46,.34,0,1.12,.3,1.22,.88,.08-.08,.16-.16,.26-.22,1.32-1.02,1.86-1.58,2.42-2.3v-5.68Zm-7.16,10.24v-1.68h-.7v1.68h.7Zm0,2.48v-1.72h-.7v1.72h.7Zm2.36-2.48v-1.68h-.68v1.68h.68Zm0,2.48v-1.72h-.68v1.72h.68Zm2.36-10.56c0-.42,.6-.88,1.12-.88,.72,0,.78,.5,.86,1.06,.04,.32,.3,2.1,.3,2.14,0,.2-.1,.34-.3,.34-.18,0-.38-.08-.5-.24-.54-.62-1.48-1.96-1.48-2.42Zm4.5,5.92c.14-.14,.24-.22,.58-.48,1.4-1.1,1.58-1.24,2.1-1.92v-5.68h-.54c-.36,0-.6,0-.76,.1-.48,.28-.54,.3-.7,.3-.48,0-.5-.34-.5-.48-.02,.06-.18,.3-.18,.36v7.8Zm.14-5.92c0-.42,.6-.88,1.12-.88,.7,0,.76,.44,.88,1.18,.04,.3,.36,1.76,.36,1.92,0,.34-.16,.44-.36,.44-.34,0-.46-.16-.5-.24-.52-.58-1.5-1.96-1.5-2.42Z"/><path class="cls-1" d="M74.53,339.96v-1.8l1.12,.16c.3,.04,.46,.16,.46,.32,0,.14-.1,.3-.28,.38-.3,.12-.3,.2-.3,.94h5.86l1.26-1.06,1.28,.96c.1,.06,.16,.18,.16,.32,0,.28-.24,.38-.46,.38h-7.58c1.86,1.98,4.86,3.34,7.68,3.84,.1,0,.16,.08,.16,.16,0,.06-.12,.18-.32,.28-.18,.1-.32,.26-.38,.46-.04,.14-.12,.22-.2,.22-.02,0-.02-.02-.04-.02-4.04-1.18-6.12-3.44-7.34-4.94h-.08v5.48c0,.32-.64,.44-.78,.44s-.22-.06-.22-.18v-5.74c-2.34,3.18-6.18,4.56-8.42,5.06-.04,.02-.06,.02-.08,.02-.08,0-.14-.08-.14-.16,0-.06,.04-.12,.08-.14,3.98-1.2,6.54-3.4,7.44-4.78h-7.12l-.16-.6h8.4Zm-5.54-8.58l.88,.62h4.36v-4.2l1.02,.18c.32,.04,.46,.16,.46,.32s-.1,.28-.26,.32c-.16,.06-.24,.16-.24,.3v.72h5.34l1.24-1.04,1.2,.9c.14,.12,.22,.26,.22,.38,0,.22-.16,.38-.42,.38h-7.58v1.74h4.92l.54-.56,.92,.62c.08,.02,.12,.1,.12,.18,0,.1-.08,.28-.32,.34-.16,.04-.26,.14-.26,.24v5.72c.02,.12-.08,.22-.18,.28-.64,.16-.8,.2-.8-.28v-.78h-10.16c0,.62,0,.68-.24,.8-.64,.16-.76,.18-.76-.32v-6.86Zm11.16,3.26v-2.04h-10.16v2.04h10.16Zm-10.16,.62v1.88h10.16v-1.88h-10.16Z"/><path class="cls-1" d="M85.87,333.37c0-.42,1.12-1.14,1.68-1.14,.32,0,.94,.18,.94,.76,0,.14-.16,.76-.18,.92-.04,.5-.2,2.98-.26,3.54-.12,.54-.78,.84-1.16,.84-.7,0-.7-.36-.64-1.3,.02-.5,.04-2.82,.02-3.12-.12-.08-.4-.32-.4-.5Zm5.86-1.92c.1-.28,.28-.52,.8-.52,.56,0,1.12,.48,1.12,.9,0,.7-2.26,2.48-2.78,2.48-.04,1.2,0,8,0,9.5,0,.92,0,1.02-.26,1.34-.28,.34-.78,.68-1.24,.68-.6,0-.94-.34-.94-.9,0-.22,.3-4.94,.34-5.88,.1-2.36,.12-4.16,.12-6.36,0-.4,0-2.1-.12-2.24-.32-.36-.36-.4-.36-.5,0-.46,1.28-1.24,1.86-1.24,.26,0,.86,.14,.86,.7,0,.02-.08,.52-.08,.54-.04,.32-.14,2.3-.18,3.82,.16-.34,.46-1.04,.86-2.32Zm6.82,6.8c.98,2.82,3.36,5,5.92,6.12,.12,.06,.54,.24,.54,.3,0,.3-2.7,1.24-3.04,1.24-.3,0-.4-.04-.52-.12-2.38-1.52-3.54-4.66-3.54-7.56-.24,2.8-1.58,4.7-2.82,5.62-1,.72-2.58,1.24-3.72,1.24-.14,0-.32-.02-.32-.16,0-.06,.04-.1,.08-.12,.04-.04,.32-.12,.38-.14,3.38-1.34,3.98-4.82,4.22-6.42l-2.42,.06c-.18,0-1.04,.34-1.26,.34-.28,0-.56-.1-.56-.46,0-.3,.2-.98,.88-.98,.08,0,.78,.08,.92,.08h2.64c.06-1.98,.08-2.48,.1-3.7l-1.06,.04c-.2,0-1.12,.3-1.34,.3-.2,0-.52-.1-.52-.42,0-.36,.28-.98,.94-.98,.08,0,.56,.06,.66,.06l1.3-.02c0-1.32-.06-2.18-.08-2.56-.04-.04-.24-.18-.3-.2-.12-.1-.16-.18-.16-.28,0-.66,1.64-1.28,2.18-1.28,.24,0,.78,.04,.78,.76,0,.14-.06,.86-.06,1.02-.04,.5-.06,.76-.1,2.5l1.36-.04c.62-.62,.74-.74,1.1-.74,.44,0,1.58,.64,1.58,1.2,0,.28-.2,.5-.32,.64-.04,.54-.14,2.48-.16,3.7h.36c.28-.5,.64-.88,1.06-.88,.6,0,1.34,.68,1.34,1.28,0,.4-.5,.56-.98,.56h-5.06Zm1.1-4.78l-1.42,.04c0,1.46-.02,2.2-.08,3.78h1.44l.06-3.82Z"/><path class="cls-1" d="M108.59,342.54c1,.76,1.3,1.2,2.04,2.24,.02,.04,.38,.32,.58,.48,.1,.08,.18,.18,.18,.3,0,.46-1.44,.86-1.76,.86-.36,0-.48-.26-.86-.96-.22-.42-.9-1.26-1.9-2.04-.62-.48-.68-.52-.68-.76,0-.4,.92-1.02,1.34-1.08,.2,.32,.54,.56,1.06,.96Z"/><path class="cls-1" d="M138.29,335.62c.28-.44,.84-.86,1.24-.86,.54,0,1.42,.64,1.42,1.26,0,.48-.54,.54-.66,.56-.3,.04-3.04,0-3.62,0v1.68c0,.48,0,1.14,.02,1.74h.58c.24-.44,.66-.8,1.04-.8,.5,0,1.46,.58,1.46,1.24,0,.22-.12,.56-.76,.58-.14,0-2.42-.02-2.88-.02h-11.54c-.16,0-.88,.22-1.06,.22-.22,0-.74-.12-.74-.44,0-.38,.36-.86,.98-.86,.12,0,.64,.08,.76,.08h1.4l.06-3.42-2.16,.02c-.18,0-1.04,.28-1.24,.28-.32,0-.58-.14-.58-.46,0-.4,.26-.9,.84-.9,.14,0,.84,.1,1,.1h2.16v-3.22c-1.16,.92-2.44,1.54-3.08,1.54-.1,0-.34,0-.34-.18,0-.1,.06-.16,.32-.36,1.42-1.14,2.58-2.76,3.58-4.64,.04-.56,.5-.86,1.04-.86,.62,0,1.46,.56,1.46,1.06,0,.54-.86,1.6-1.48,2.28l8.8-.06c.12-.4,.68-.88,1.1-.88,.58,0,1.42,.66,1.42,1.34,0,.5-.86,.5-1.08,.5h-1.02c-.04,1.2-.06,1.76-.06,3.48h1.62Zm-14.5,10.06c-.72,0-1.46-.42-1.46-1.04,0-.12,0-1.06,1.28-1.08,.94-.02,2.1-.4,2.76-.86,.3-.22,.56-.4,.74-.4,.26,0,.3,.1,.3,.26,0,.98-1.64,3.12-3.62,3.12Zm5.1-5.68v-3.42h-.84c-.02,.82-.02,1.72-.02,2.34v1.08h.86Zm0-4.38c0-.5-.02-2.96-.02-3.52h-.8c0,.5-.02,2.96-.02,3.52h.84Zm1.58,7.66c0,2.4-.24,2.74-1.2,2.74s-.96-.58-.96-1.16v-1.72c0-.06,0-.52-.04-.54-.02-.04-.2-.24-.2-.26,0-.46,1.08-.8,1.64-.8,.18,0,.8,0,.8,.8,0,.14-.04,.8-.04,.94Zm1.22-7.66c0-.5-.02-2.94-.02-3.5l-.78-.02c-.02,.86-.04,1.3-.04,3.52h.84Zm0,4.38v-3.42h-.84c0,1.42,.02,1.98,.02,3.42h.82Zm-.2,2.32c0-.38,.86-.82,1.44-.82,1.12,0,1.12,.5,1.12,3.38,0,.38-.02,1.16-.98,1.16-.9,0-1.02-.64-1.08-.9-.06-.34-.14-2.12-.16-2.52-.22-.1-.34-.16-.34-.3Zm2.96-6.7c0-2.04-.02-2.6-.04-3.5h-.76c-.02,.64-.02,.92-.02,3.5h.82Zm0,4.38v-3.42h-.82c0,1.42,0,1.98,.02,3.42h.8Zm4.88,6.16c-1.66,0-4.1-2.34-4.1-3.38,0-.56,.76-1,1.24-1,.38,0,1.06,.28,1.24,.7,.52,1.26,.6,1.46,1.42,2.4,.48,.58,.72,.84,.72,.92,0,.28-.32,.36-.52,.36Z"/><path class="cls-1" d="M155.73,336.9c.64,0,1.32-.02,1.96-.04,.38-.54,.84-.8,1.22-.8,.56,0,1.6,.58,1.6,1.24,0,.52-.72,.56-.88,.56-.74,.02-6.64,.02-7.52,.02,0,.34-.38,.66-.92,1.12-.16,.14-.3,.28-.44,.46h4.54c.24-.42,.68-.72,1.08-.72,.56,0,1.58,.58,1.58,1.22,0,.12-.12,.26-.26,.46,0,.6,.02,3.42,.02,3.74,0,.8-.06,2.26-2.04,2.26-.9,0-1.82-.92-1.88-.98-.42,.6-1.16,.7-1.38,.7-.68,0-.68-.46-.68-.72,0-.74,.08-4.28,.04-5.08h-1.12c-.04,.66,.02,3.86,.02,4.58,0,.28,0,.46-.1,.62-.3,.48-1,.66-1.4,.66-.46,0-.68-.26-.68-.72,0-.12,.04-1.04,.04-1.2,.08-1.52,.08-2.9,.08-3.94h-1.22c-.16,0-.22,.16-.22,1.06v3.54c0,1.44-1.54,1.44-1.58,1.44-.06,0-.8,0-.8-.68,0-.3,.06-.96,.08-1.26,.12-1.34,.14-3.42,.14-3.74,0-.22,0-.26-.06-.36-.18-.26-.2-.3-.2-.4,0-.48,1.1-1.02,1.6-1.02,.2,0,.74,.1,.82,.54h1.62c.2-.58,.26-.8,.5-1.58h-3.2c-.34,0-1.54,0-1.78,.1-.92,.36-1.04,.4-1.2,.4-.2,0-.6-.16-.6-.54,0-.44,.34-1,1.02-1,.1,0,.54,.08,.64,.08l11.56-.02Zm1.42-5.54c.34-.5,.86-.62,1.18-.62,.8,0,1.52,.58,1.52,1.34,0,.56-1.26,2.54-1.34,2.66-.1,.16-.3,.48-.78,.48-.4,0-.52-.28-.56-.54-.08-.62-.08-1.9-.08-2.4h-4.62c0,.4,.06,2.34,.06,2.78,0,.6,0,.72-.26,.98-.3,.3-.78,.48-1.12,.48-1,0-1-.54-1-1.08,0-.44,.12-2.66,.12-3.16h-4.52c-.34,2.5-.56,2.94-1.18,2.94-.48,0-.6-.4-.68-.62-.22-.64-.7-2.14-.7-2.5,0-.58,.44-1.3,1.34-1.3,.06,0,.8,0,1.16,.56h4.58v-1.04c0-.12-.04-.26-.06-.4h-2.76c-.26,0-.68,0-.94,.04-.16,.02-.94,.28-1.12,.28-.32,0-.6-.24-.6-.62,0-.44,.44-.82,.94-.82,.12,0,.64,.1,.76,.1h9.1c.26-.54,.7-.9,1.14-.9,.58,0,1.46,.66,1.46,1.32,0,.44-.56,.6-1.08,.6h-4.52c-.08,.2-.08,.54-.08,.84v.6h4.64Zm-10.34,4.88c-.44,0-.9-.28-.9-.7,0-.34,.28-.64,.6-.72,.1-.02,1.32-.08,1.56-.1,.2-.02,1.24-.16,1.48-.16,.22,0,.26,.16,.26,.22s-.08,.2-.34,.38c-.78,.56-1.72,1.08-2.66,1.08Zm2.54-2.2c-.24,.04-1.26,.14-1.88,.14-.42,0-1.22-.04-1.22-.72,0-.5,.46-.74,.82-.74,.42,0,2.66,.72,2.66,1.04,0,.16-.14,.24-.38,.28Zm5.92,.14c-.32,0-2.2-.06-2.2-.4,0-.3,2.22-1.1,2.58-1.1,.4,0,.86,.26,.86,.72,0,.66-.68,.78-1.24,.78Zm-2.04,.82s-.14-.12-.14-.22c0-.2,.22-.2,.32-.2,.12,0,.52,.06,.66,.08,.34,.06,1.44,.14,1.58,.14,.66,.04,1.28,.08,1.28,.76,0,.4-.4,.7-.94,.7-.92,0-1.8-.58-2.56-1.1-.02-.02-.12-.1-.2-.16Zm.66,5.34c-.04,.76,.06,4.58,.02,4.74,.18,.02,.32,.04,.4,.04,.68,0,1.08,0,1.08-.96v-3.82h-1.5Z"/><path class="cls-1" d="M172.55,335.08c.18,.94,.72,3.66,3.52,6.28,.68,.62,1.96,1.7,3.88,2.6,.74,.34,.76,.36,.76,.44,0,.22-1.9,1-2.28,1.14-.76,.3-1.06,.34-1.3,.34-.84,0-1.92-1.22-2.12-1.46-2.8-3.18-3.02-6.44-3.08-9.18h-.04v.2c0,1.48-.46,5.52-3.1,7.78-2.42,2.08-5.56,2.3-5.86,2.3-.18,0-.44,0-.44-.2,0-.18,.2-.26,.66-.4,.16-.08,.96-.44,1.12-.52,4.82-2.66,5.18-7.22,5.34-9.3l-3.6,.02-.78,.06c-.24,.02-1.32,.44-1.58,.44-.34,0-.74-.24-.74-.64,0-.5,.38-1.22,1.18-1.22,.16,0,.96,.16,1.14,.16h4.46l-.04-3.08c0-.16-.04-.36-.16-.52-.28-.42-.32-.48-.32-.64,0-.5,1.48-1.44,2.24-1.44,.2,0,1.1,0,1.1,.94,0,.14-.02,.18-.06,.4-.08,.32-.18,3.78-.2,4.34h4.5c.28-.64,.84-1.16,1.34-1.16,.64,0,1.82,.86,1.82,1.62,0,.66-.92,.68-1.32,.68l-6.04,.02Z"/><path class="cls-1" d="M192.19,344.26c1.7-.02,3.74-.02,5.54-.02,.38-.6,.86-1.02,1.36-1.02,.6,0,1.76,.9,1.76,1.54,0,.54-.74,.56-.94,.56-.06,0-3.48-.02-4.14-.02h-4.44c-.54,0-7.66,.08-7.7,.08-.14,.02-.9,.22-1.08,.22-.12,0-.7,0-.7-.5s.54-1.02,1.06-1.02c.12,0,.76,.18,.92,.18h6.16c.02-.24,.02-.42,.04-1.08h-1.66c-.26,0-1.8,.02-1.82,.02-.12,.02-.68,.2-.82,.2-.32,0-.56-.08-.56-.44,0-.42,.34-.78,.8-.78,.1,0,.58,.08,.68,.08h3.4c.02-.38,.02-.72,.02-1.16h-2.18c-.08,.44-1.02,.6-1.5,.6-.7,0-.7-.36-.7-.58,0-.14,.06-2.94,.06-3.14,0-.3,0-.32-.04-.42-.04-.06-.24-.36-.24-.44,0-.46,1.36-1,1.7-1,.38,0,.64,.16,.76,.52h6.54c.24-.4,.64-.6,.94-.6,.52,0,1.52,.48,1.52,1,0,.08-.02,.16-.06,.22-.12,.3-.14,.34-.14,.54,0,.4,.1,2.34,.1,2.78,0,.7-.98,.92-1.52,.92-.44,0-.84-.08-.86-.4h-2.3c0,.46,0,.66,.02,1.16h2.76c.24-.24,.56-.58,1.06-.58,.58,0,1.34,.54,1.34,1.04,0,.46-.68,.46-.88,.46h-4.28l.02,1.08Zm5.56-8.62c-1.64,0-9.66-.02-11.48-.02-.28,0-1.46,0-1.66,.04s-1.12,.32-1.34,.32-.66-.12-.66-.5,.26-.98,.94-.98c.18,0,1,.14,1.2,.14,1.78,.04,10.6-.02,12.6-.02,.32-.52,.72-.8,1.1-.8,.6,0,1.56,.66,1.56,1.3,0,.46-.56,.52-1.1,.52h-1.16Zm-3.16-6.6c.28-.48,.82-.72,1.14-.72,.52,0,1.38,.58,1.38,1.1,0,.1-.26,.58-.26,.7,0,.48,.1,2.88,.1,3.04,0,.32,0,.48-.44,.72-.32,.18-.76,.34-1.18,.34-.68,0-.7-.24-.72-.64h-7.08c-.06,.76-1.38,.76-1.46,.76-.78,0-.78-.36-.78-.66,0-.52,.08-2.9,.08-3.36,0-.12,.02-.18-.08-.28-.28-.28-.3-.28-.3-.44,0-.46,1.26-1.14,1.76-1.14,.1,0,.6,.06,.76,.58h7.08Zm0,1.84v-.96h-6.82c-.18,0-.26,.14-.26,.22v.74h7.08Zm.02,1.78v-.92h-7.1v.92h7.1Zm-4.52,7.62v-.98h-2.18v.98h2.18Zm-.02-1.76v-1.08h-2c-.08,0-.14,.02-.14,.12v.96h2.14Zm4.38,1.76v-.98h-2.3v.98h2.3Zm0-1.76v-1.08h-2.26c0,.16-.02,.92-.02,1.08h2.28Z"/><path class="cls-1" d="M202.15,344.82c-.12,0-.32,0-.32-.18,0-.12,1.48-.76,1.74-.92,4.52-2.72,5.68-7.7,5.68-11.96,0-.12,0-.22-.02-.3-.04-.16-.36-.78-.36-.92,0-.6,1.68-1.42,2.26-1.42,.22,0,1.16,0,1.16,1.08,0,.36-.14,1.94-.14,2.26,0,.02,.24,2.7,1.9,5.52,1.92,3.24,4.34,4.58,6.16,5.56,.24,.14,.56,.3,.56,.42,0,.22-2.96,1.32-3.34,1.32-.8,0-1.86-1.08-2.2-1.44-1.84-1.88-3.42-4.98-3.78-9.94-.64,10.62-8.78,10.92-9.3,10.92Z"/><path class="cls-1" d="M235.11,333.77c.28-.5,.88-1.04,1.3-1.04,.58,0,1.64,.68,1.64,1.36,0,.12-.04,.16-.3,.52-.12,.14-.12,.18-.12,.54,0,4.88-.12,10.8-3.8,10.8-1.62,0-3.52-2.12-3.52-2.4,0-.1,.16-.1,.26-.1,.02,0,.24,.06,.28,.08,.42,.1,1.52,.34,2.08,.34,1.56,0,1.9-2.24,2.1-4.44,.14-1.44,.14-2.36,.14-3.4,0-.28,0-1.02-.1-1.2l-3.5,.06c-.3,2.58-.82,7.24-5.22,9.76-1.66,.96-3.54,1.4-3.74,1.4-.26,0-.4-.12-.4-.24,0-.08,.06-.12,.66-.46,5.26-2.9,5.88-7.38,6.24-10.42l-3.92,.12c-.26,0-.54,.14-.74,.24-.44,.2-.72,.28-1.02,.28-.24,0-.8-.14-.8-.6s.32-1.22,1.1-1.22c.14,0,.88,.1,1.06,.1l4.36-.02c.02-.4-.02-2.36-.02-2.8,0-.22,0-.28-.14-.42-.4-.4-.42-.42-.42-.62,0-.66,1.68-1.5,2.36-1.5,.42,0,1.14,.26,1.14,1.24,0,.16-.12,.92-.14,1.1-.08,.76-.22,2.26-.28,2.98l3.46-.04Z"/><path class="cls-1" d="M79.55,357.89c.2,.28,.5,.72,2.18,1.46,.32,.06,.56,.22,.56,.32,0,.36-1.28,.76-1.66,.76-.6,0-1.24-.8-1.72-1.52-.32,.72-1.12,2.1-4.78,2.1-.24,0-.44,0-.44-.2,0-.12,.34-.22,.72-.32,2.48-.68,3.32-1.92,3.32-4.08,0-.06-.02-.32-.02-.38-.02-.04-.08-.1-.14-.12-.1-.08-.18-.12-.18-.24,0-.38,1.2-.82,1.66-.82,.18,0,.74,.06,.74,.68,0,.28-.14,1.48-.16,1.72,.38-.32,.78-.72,1.04-1.1,.16-.24,.5-.3,.74-.3,.46,0,1.02,.38,1.02,.68,0,.74-2.6,1.2-2.66,1.2-.1,0-.14,0-.2-.06,0,.08-.02,.2-.02,.22Zm-2.94,4.98c-.1,.56-.38,1.54-.6,2.06-.14,.32-.5,.4-.7,.4-.38,0-.48-.18-.56-.32-.3-.6-.78-2.36-.78-2.6,0-.58,.66-1.1,1.42-1.1,.42,0,1.14,.22,1.34,.64h11.32c.28-.44,.92-.7,1.38-.7,.78,0,1.5,.5,1.5,1.12,0,.48-.74,1.88-1.08,2.4-.14,.2-.36,.5-.82,.5-.6,0-.62-.12-.86-2.4h-11.56Zm-.82-5.82c.4,0,.92-.06,1.26-.26,.04-.02,.12-.04,.18-.04s.26,0,.26,.18c0,.34-.9,1.4-2.32,1.4-.58,0-1.06-.36-1.06-.68,0-.28,.3-.68,.82-.68,.26,0,.7,.08,.86,.08Zm10.18,15.3h-7.32c0,.34,0,.58-.5,.84-.36,.2-.74,.28-.98,.28-.38,0-.8-.2-.8-.72,0-.46,.1-2.52,.1-2.94,0-.18-.04-.24-.24-.42-.06-.06-.12-.12-.12-.24,0-.54,1.2-1.1,1.74-1.1,.08,0,.56,0,.74,.54h2.28c.18-.72,.22-1.04,.28-1.5h-1.28c-.06,.38-1.12,.48-1.26,.48-.8,0-.8-.28-.8-.64,0-.32,.04-1.7,.04-1.98,0-.1-.26-.48-.26-.58,0-.5,1.12-1,1.56-1,.1,0,.74,.06,.78,.6h4.72c.3-.44,.74-.66,1.06-.66,.54,0,1.36,.48,1.36,.96,0,.1-.04,.18-.18,.4,0,.34,.06,1.84,.06,2.16,0,.26,0,.42-.5,.62-.3,.12-.7,.2-1.08,.2-.72,0-.74-.28-.72-.56h-1.38c-.02,.4-.54,1.16-.82,1.5h3.46c.34-.52,.76-.7,1.08-.7,.54,0,1.66,.58,1.66,1.12,0,.2-.08,.3-.24,.5,0,.44,.06,2.36,.06,2.76,0,.32,0,.58-.44,.84-.36,.2-.74,.28-1.12,.28-.88,0-.94-.36-.94-.76v-.28Zm0-2.9h-7.08c-.16,0-.28,.04-.28,.22v1.76h7.36v-1.98Zm-1.34-4.64h-4.58c-.08,0-.18,.04-.18,.24v1.26h4.76v-1.5Zm-1.56-3.74c-.58,.18-1.72,.4-2.48,.4-.18,0-.48,0-.48-.2,0-.12,.44-.26,.76-.36,3.56-1.14,3.56-3.24,3.56-4.92-.02-.06-.26-.32-.26-.4,0-.46,1.26-.82,1.7-.82,.36,0,.68,.22,.68,.5,0,.1-.12,.54-.12,.64,0,.22,.02,1.06,.48,1.92,.96-.76,1.14-.92,1.6-1.46,.12-.24,.48-.42,.74-.42,.62,0,1.1,.5,1.1,.92,0,.18-.12,.56-.78,.8-.16,.06-1.22,.4-2.38,.58,.24,.44,1.7,1.54,2.96,1.92,.76,.22,.8,.24,.8,.36,0,.14-1.9,.78-2.32,.78-.5,0-.68,0-1.2-.46-1.2-1.06-1.3-2.04-1.42-3.12-.12,.8-.4,2.54-2.94,3.34Zm-.4-3.62c.2,0,.9-.08,1.16-.16,.12-.04,.22-.08,.28-.08,.14,0,.16,.06,.16,.14,0,.24-.82,1.2-2.06,1.2-.54,0-.86-.3-.86-.56,0-.22,.22-.62,.78-.64,.24,.08,.5,.1,.54,.1Z"/><path class="cls-1" d="M101.21,366.84l.02-1.22h-3.02c-.18,0-.98,.26-1.14,.26-.3,0-.6-.18-.6-.48,0-.36,.28-.82,.88-.82,.12,0,.64,.1,.74,.1l3.14,.02v-1.3h-3.42c-1.18,0-1.3,0-1.7,.02-.16,.02-.9,.24-1.04,.24-.46,0-.66-.18-.66-.5,0-.5,.46-.84,.9-.84,.12,0,.7,.12,.82,.12h3.2c-.56-.52-.9-.82-.9-1.22,0-.5,.98-.68,1.28-.68,.82,0,1.2,.32,1.4,1.9h2.18c.28-1.52,.36-1.84,1.36-1.94-1.22,0-8.62,0-9.38,.04-.2,.02-1.06,.26-1.24,.26-.32,0-.72-.18-.72-.54,0-.4,.4-.86,.92-.86,.14,0,.78,.12,.9,.12h4.5c.02-.34,.02-.92,.02-1.28v-1.36c0-.24-.08-.32-.2-.44-.18-.16-.2-.24-.2-.36,0-.56,1.26-1.12,1.74-1.12,.28,0,.88,.16,.88,.66,0,.18-.12,.96-.12,1.12,0,.22-.02,1.2-.02,1.4v1.38h1.02v-2.64c0-.26-.08-.34-.18-.46-.12-.12-.16-.2-.16-.32,0-.58,1.18-1.2,1.72-1.2,.26,0,.9,.14,.9,.64,0,.14-.1,.74-.1,.86-.02,.08-.06,2.08-.08,3.12h4.42c.28-.38,.64-.76,1.1-.76,.58,0,1.46,.52,1.46,1.18,0,.56-.54,.56-.92,.56h-6.1c.72,.1,1.16,.3,1.16,.62,0,.34-.16,.52-.96,1.32h2.92c.24-.44,.66-.76,1.1-.76,.5,0,1.42,.46,1.42,1.14,0,.58-.56,.58-.9,.58h-6.16l-.02,1.3h2.92c.24-.54,.74-.7,1.02-.7,.5,0,1.34,.54,1.34,1.1,0,.52-.78,.52-1.08,.52h-4.2v1.22h4.82c.34-.52,.82-.72,1.14-.72,.52,0,1.38,.56,1.38,1.16s-.76,.58-1.1,.58h-5.44c1.86,2.34,6.82,3.14,7.64,3.24,.46,.06,.56,.08,.56,.2,0,.08-2.24,1.56-3.06,1.56-.9,0-4.58-1.32-6-4.82,.02,.64,.14,3.68,.14,3.98,0,1.22-1.36,1.38-1.5,1.38-.94,0-.94-.62-.94-.9,0-.34,.08-1.88,.1-2.2l.08-2.44h-1.32c.54,.12,.9,.5,.9,.8,0,.58-.9,1.34-1.56,1.9-1.88,1.58-4.78,2.26-5.76,2.26-.34,0-.52,0-.56-.16,0-.12,.14-.2,1.38-.8,1.96-.98,3.22-2.14,3.8-2.84,.78-.96,.86-1.06,1.24-1.16-1.2,0-2.12,.02-3.02,.06-.22,.02-1.2,.24-1.4,.24-.4,0-.64-.26-.64-.54,0-.44,.46-.88,.94-.88,.16,0,.84,.1,.98,.1h5.04Zm-4.62-7.98c-.58,0-1.16-.34-1.16-.82s.54-.78,.96-.78c.24,0,1.26,.28,1.48,.28,.7,0,.96-.08,1.1-.12,.08-.04,.22-.06,.28-.06,.1,0,.24,.06,.24,.2,0,.12-.18,.3-.28,.38-.68,.6-1.76,.92-2.62,.92Zm11.22-2.56c.52,0,1.22,.38,1.22,.9,0,1.04-3.26,1.56-3.78,1.56-.14,0-.32-.06-.32-.18,0-.1,.14-.2,.22-.24,.52-.36,1.08-.9,1.58-1.4,.2-.52,.82-.64,1.08-.64Z"/><path class="cls-1" d="M121.79,357.35v-.44c0-.08,0-.36-.02-.46-.02-.08-.26-.38-.26-.46,0-.46,1.1-.92,1.66-.92,.62,0,.74,.32,.74,.64,0,.14-.08,.74-.08,.86v.78h1.34v-.82c-.02-.1-.3-.46-.3-.56,0-.56,1.32-.98,1.76-.98,.12,0,.72,.06,.72,.66,0,.28-.1,1.46-.1,1.7h1.74c.22-.4,.7-.74,1.06-.74,.5,0,1.38,.58,1.38,1.16,0,.54-.66,.54-.86,.54h-3.3v.34c0,.44-.54,.58-.92,.66,.14,.1,.3,.24,.3,.46,0,.24-.06,.3-.68,.82h2.2c.46-.54,.82-.62,1-.62,.46,0,1.14,.44,1.14,.96,0,.44-.56,.46-.94,.46h-3.08l-.02,.74h1.56c.2-.22,.44-.5,.84-.5s1.12,.44,1.12,.84-.72,.4-.98,.4h-2.56v.76h1.64c.2-.26,.46-.48,.82-.48,.4,0,1.08,.4,1.08,.8s-.62,.4-.86,.4h-2.68v.8h2.82c.26-.36,.64-.68,1.08-.68,.46,0,1.28,.54,1.28,1.04s-.58,.5-1,.5h-7.86c-.06,.74-1.22,.74-1.44,.74s-.72-.02-.72-.44c0-.26,.12-3.24,.16-3.98-.66,.36-1.06,.56-1.64,.7,.2,1.02,.36,1.92,.36,3.66,0,5.28-2.1,6.16-3.34,6.16-1.56,0-2.56-1.8-2.56-1.92,0-.06,.02-.06,.08-.06,.04,0,1.38,.2,1.66,.2,.74,0,1.3-.46,1.62-2.1,.18-.94,.24-1.76,.24-2.72,0-.48,0-1-.02-1.64-1.38,3.28-3.74,4.34-3.86,4.34-.2,0-.26-.14-.26-.18,0-.14,.4-.68,.46-.78,.46-.76,1.42-2.48,1.96-5,.2-.96,.28-1.36,1.04-1.36,.06,0,.08,.02,.18,.04-.14-.54-.24-.78-.46-1.34-.34,.26-1.86,1.38-2.78,1.38-.06,0-.24,0-.24-.12,0-.08,.46-.5,.58-.6,.72-.66,1.42-1.58,1.64-1.88-.76-.98-1.44-1.88-1.8-2.18-.1-.08-.22-.22-.22-.36,0-.12,.2-.14,.26-.14,.24,0,1.28,.26,2.62,1.58,.34-.58,.78-1.42,.94-1.98,.12-.42,.7-.64,.96-.64,1.04,0,1.42,.5,1.42,.88,0,.96-1.88,2.86-2.12,3.08,.76,1.06,1.18,1.94,1.54,3.28,.9-.7,2.1-2.34,2.36-2.94,.06-.48,.34-.64,.56-.64-.04-.08,0-.62,0-.74-.82-.02-1.14-.02-1.46,.06-.08,.02-.72,.2-.82,.2-.04,0-.54,0-.54-.42,0-.36,.26-.9,.88-.9,.12,0,.6,.1,.7,.1h1.28Zm4.6,9.58c.14-.18,.58-.68,1.02-.68,.5,0,1.54,.38,1.54,1.04,0,.28-.22,.42-.34,.5-.48,.74-1.14,1.52-1.74,2.16,.38,.18,1.14,.58,2.68,.92,.4,.1,2.14,.38,2.48,.38,.08,0,.18,.1,.18,.16,0,.14-2.06,1.66-2.82,1.66s-2.44-.66-4.16-1.98c-2.42,1.4-4.22,1.5-6.28,1.5-.64,0-1.04-.16-1.04-.32,0-.08,.72-.2,.84-.22,.76-.12,2.96-.48,5.12-2.2-.7-.94-.94-1.38-1.2-2.04-.16,0-.68,.02-.84,.04-.14,.02-.76,.26-.9,.26-.34,0-.5-.2-.5-.42,0-.38,.28-.78,.72-.78,.14,0,.66,.04,.78,.04l4.46-.02Zm-2.26-5.54h-1.58v.74h1.58v-.74Zm0,1.48h-1.58v.76h1.58v-.76Zm0,1.46h-1.58v.82h1.58v-.82Zm1.02-6.02h-1.34c.02,.66,.02,.88-.82,1,.24,.2,.3,.38,.3,.54,0,.26-.28,.6-.4,.74h1.44c.22-1.32,.24-1.48,.88-1.54-.06-.08-.06-.1-.06-.22v-.52Zm-1.34,9.44c.28,.52,.66,.9,1.16,1.32,.4-.44,.76-.94,.96-1.32h-2.12Z"/><path class="cls-1" d="M140.79,360.75c.28-.52,.68-.8,.98-.8,.68,0,1.34,.8,1.34,1.26,0,.5-.74,.52-1.1,.52h-2.2l.02,1.46c.82,1.26,2.66,2.32,2.76,2.36,.3,.14,.5,.26,.5,.44,0,.4-1.1,.94-1.58,.94-.8,0-1.62-1.6-1.76-1.86,0,.8,.16,4.78,.16,5.68s0,1.04-.32,1.36c-.34,.34-.9,.58-1.48,.58-.86,0-.86-.44-.86-.8,0-.52,.24-3.66,.28-4.34l.14-3c-1.1,1.98-3.58,4.18-4.84,4.18-.04,0-.34,0-.34-.16,0-.08,.26-.34,.32-.4,1.32-1.32,2.66-3.66,3.08-4.9,.18-.52,.32-.96,1.16-.96,.2,0,.46,.04,.66,.14v-.72h-2.38s-.62,.24-.68,.26c-.18,.06-.4,.14-.62,.14-.32,0-.58-.24-.58-.6,0-.44,.28-.9,.9-.9,.12,0,.7,.12,.84,.12h2.52c0-.76-.02-1.7-.04-2.4-.56,.06-1.28,.08-1.84,.08-.96,0-2.26-.12-2.26-.5,0-.1,.2-.14,.66-.2,1.52-.24,3.94-.64,6.06-1.84,.26-.42,.74-.66,1.08-.66,.48,0,1.48,.5,1.48,1.1s-.5,.82-2.92,1.66c-.06,.84-.08,1.64-.1,2.76h.96Zm2.68-1.78s-.16-.16-.16-.28c0-.4,1.12-1.22,1.76-1.22,.6,0,1,.26,1,.88,0,.2-.1,1.22-.1,1.46-.06,1.58-.04,1.96-.04,5.48,0,.46,0,1.32-.18,1.96-.14,.52-.7,1.08-1.2,1.08-.82,0-.82-.6-.82-1.1,0-.7,.04-4.1,.04-4.86v-2.16c0-.3,0-.82-.04-1.04-.04-.04-.22-.18-.26-.2Zm6.36,6.18c0,.68,.04,4.08,.04,4.84,0,.64,0,1.32-.5,1.96-.62,.82-1.6,.9-1.98,.9-1.52,0-2.9-1.52-2.9-1.6,0-.1,.1-.1,.24-.1,.18,0,1.06,.08,1.26,.08,1.56,0,1.62-.56,1.62-5.32v-7.34c0-.42,0-1.38-.16-1.54-.32-.28-.34-.3-.34-.46,0-.66,1.6-1.36,2.18-1.36,.32,0,.86,.2,.86,.72,0,.08-.1,.52-.12,.62-.2,1.64-.2,6.64-.2,8.6Z"/><path class="cls-1" d="M167.67,357.51c.14-.28,.44-.9,1.04-.9,.66,0,1.7,.68,1.7,1.34s-.88,.66-1.9,.66c-.7,0-4.14-.04-4.92-.04,.16,.06,.24,.2,.24,.38,0,.52-.78,1.66-.98,1.98,.2,.06,.42,.2,.52,.4,.26-.2,.7-.3,.9-.3,.52,0,.6,.12,.96,.66,1.28,1.84,3.5,3.84,6.2,4.86,.82,.32,.9,.34,.9,.42,0,.18-1.96,1.28-2.64,1.28-1.4,0-3.48-2.54-4.4-3.9-.2-.3-1.14-1.92-1.36-2.28-.04-.06-.46-.28-.54-.34-.14,.58-.18,1.04-.18,2.74,0,.76,0,2.72,.08,4.52,.02,.36,.12,2.34,.12,2.66,0,1.02-1.4,1.4-1.74,1.4-.36,0-.94-.2-.94-.84,0-.36,.14-2.1,.16-2.5,.06-2.02,.16-5.24,.16-7-2.62,3.58-6.38,5-8.1,5-.12,0-.36,0-.36-.16,0-.08,.1-.14,1-.66,3.3-1.9,5.78-4.9,7.42-8.32-.5,0-2.98,.02-3.54,.02-.48,0-1.28,0-1.62,.14-.76,.3-.86,.34-1.08,.34s-.62-.2-.62-.58c0-.46,.34-1.08,1.02-1.08,.12,0,.62,.1,.74,.1h11.76Z"/><path class="cls-1" d="M175.65,367.16c.18,0,.18,.14,.18,.22,0,.58-.92,2.52-2.2,2.52-.5,0-1.12-.38-1.12-1.02,0-.96,.68-.98,1.18-.98,.94-.02,1.34-.34,1.7-.6,.04-.04,.16-.14,.26-.14Zm5.3-3.7c-.36,.18-.88,.38-1.26,.5,.14,.14,.44,.46,.44,.94,0,.64-.56,1.04-.92,1.04-.48,0-.72,0-.96-.92l-.32,.08v1.96c0,.7,.08,4.3,.08,4.38,0,.94-.9,1.42-1.5,1.42-.54,0-.78-.34-.78-.66,0-.04,.12-1.8,.12-1.98,.02-.08,.12-1.86,.18-4.76-.94,.18-1.76,.34-2.3,.34-.76,0-.96-.54-.96-.84,0-.52,.5-.88,.84-.88,.1,0,.98,.04,1.1,.04,.74-1.04,.82-1.16,.92-1.34,.02-.02,.06-.1,.06-.12-1.48-.28-1.64-.3-1.78-.36-.16-.08-.5-.3-.5-.7,0-.14,.06-.66,.64-.96,.84-1.38,1.52-2.92,1.86-3.74v-.22c0-.74,.82-1.02,1.44-1.02,.52,0,1.28,.4,1.28,.94,0,.06,.02,.36-.22,.68l-2.8,3.76,.72,.56c.52-.96,.58-1.06,.76-1.44-.2-.78,1.04-.94,1.2-.94,.44,0,1.18,.28,1.18,.76,0,.2-.12,.42-.22,.54-.92,1.24-1.82,2.48-2.78,3.68,.3,0,1.02,0,1.46,.02-.14-.34-.26-.56-.38-.78-.04-.04-.1-.14-.1-.18,0-.12,.1-.16,.24-.16,.38,0,1.04,.26,1.5,.5,1.14-.98,2.26-2.4,2.72-2.98,.46-.62,.58-.78,.96-.78,.44,0,1.24,.36,1.24,.86,0,.34-.04,.36-1.28,1.58,0,.46-.06,7.8-.06,8.2,0,.88,0,1.72-.02,1.78-.16,.56-.7,.96-1.32,.96-.78,0-.82-.52-.82-.74,0-.16,.04-.76,.06-.94,.08-.78,.1-1.6,.12-2.44l.16-5.64Zm-.42,5.84c0,.12,0,.28-.36,.28-.66,0-2.12-1.38-2.12-2.2,0-.44,.46-.8,.88-.8,.2,0,.56,.1,.7,.48,.36,1.08,.6,1.62,.76,1.9,0,.02,.14,.32,.14,.34Zm1.16-10.38c-.1,.7-.3,1.4-.52,2.08-.08,.24-.18,.5-.64,.5-.32,0-.44-.22-.52-.36-.1-.34-.62-2.16-.62-2.46,0-.64,.54-1.16,1.22-1.16,.26,0,.78,.14,.96,.44h2.7c-.02-.44-.08-1.14-.1-1.32-.44-.28-.5-.32-.5-.5,0-.68,1.52-1.24,2.22-1.24,.14,0,1,.06,1,.82,0,.04-.06,.44-.08,.52-.06,.4-.12,.92-.18,1.72h2.52c.2-.3,.68-.64,1.14-.64,.74,0,1.46,.54,1.46,1.16,0,.5-1.06,2.06-1.32,2.38-.14,.18-.32,.4-.72,.4h-.12c-.34-.06-.5-.34-.5-.68,0-.9,0-1.3,.02-1.66h-7.42Zm6.96,5.98c.34-.6,.86-.6,.98-.6,.56,0,1.34,.44,1.34,.94,0,.08-.02,.12-.08,.24-.04,.2-.06,.3-.06,.9,0,.78,.08,4.2,.08,4.9,0,.64,0,.88-.56,1.18-.32,.18-.76,.24-1,.24-.78,0-.78-.36-.78-.56v-.5h-2.72v.44c0,.52-.88,.88-1.32,.88-.32,0-.72-.14-.72-.54,0-.98,.14-5.28,.14-6.16,0-.32-.02-.4-.16-.56-.08-.08-.1-.14-.1-.2,0-.46,.82-1.12,1.28-1.12,.02,0,.52,0,.8,.4,.14-.82,.28-1.58,.38-1.96h-1.66c-.14,0-.7,.18-.82,.18-.2,0-.56-.04-.56-.44,0-.3,.2-.78,.76-.78,.1,0,.54,.08,.64,.08h5.28c.16-.26,.6-.62,.92-.62,.52,0,1.3,.52,1.3,1.12,0,.38-.46,.46-.7,.46h-3.22c.16,.16,.22,.26,.22,.42,0,.28-.08,.5-1.28,1.66h1.62Zm-.04,.78h-2.76v1.98h2.76v-1.98Zm0,2.84h-2.76v.62c0,.26,.02,1.36,.02,1.58h2.74v-2.2Z"/><path class="cls-1" d="M200.93,362.35c-2.06,5.06-5.66,7.64-7.72,7.64-.1,0-.22-.04-.22-.16,0-.08,.44-.42,.54-.5,1.42-1.14,3.7-3.68,4.88-7.06h-2.96c-.22,0-1.2,.44-1.42,.44-.34,0-.52-.22-.52-.52,0-.5,.28-1.18,.86-1.18,.14,0,.7,.18,.82,.18h3.36c.32-.5,.6-.92,1.2-.92,.32,0,.9,.16,1.34,.64-.02-.4-.04-2.16-.04-2.52,0-.32,0-.82-.24-1-.28-.22-.36-.28-.36-.46,0-.7,1.48-1.66,2.24-1.66,.86,0,.98,.64,.98,1.02,0,.28-.12,1.52-.12,1.78,0,1.26,0,3.62,3.84,7.2,1.62,1.52,3.48,2.34,4.06,2.6,.84,.38,.92,.44,.92,.56,0,.16-2.2,1.72-3,1.72s-2.66-1.64-3.88-3.58c-1.04-1.68-1.16-2.02-2.16-5.14,.18,4.56,.22,7.12,.22,8.44,0,1.66-.14,3.24-2.3,3.24-2.02,0-3.32-1.78-3.32-1.88s.06-.1,.14-.1c.2,0,1.5,.22,1.8,.22,1.06,0,1.12-.58,1.14-1.66,.02-1.18,.12-6.4,.12-7.46l-.2,.12Zm8.12-4.34c.64,0,1.48,.54,1.48,1.34,0,.42-.22,.82-.88,1.26-.3,.2-2.68,1.76-4.4,1.76-.18,0-.3-.08-.3-.24,0-.12,.06-.2,.18-.3,2.02-2.1,2.26-2.32,2.9-3.16,.18-.44,.68-.66,1.02-.66Z"/></g><rect class="cls-6" x="61.09" y="61.23" width="162.72" height="162.72" rx="18.32" ry="18.32"/><g class="cls-3"><g><path class="cls-2" d="M189.7,111.14c-2.18,2.19-4.17,4.17-6.2,6.21,1.19,1.54,2.44,3.05,3.58,4.65,4.59,6.45,7.4,13.61,8.29,21.48,1.6,14.14-2.17,26.67-11.62,37.35-7.74,8.75-17.48,13.98-29.09,15.43-15.36,1.92-28.59-2.71-39.76-13.35-.78-.74-1.49-1.55-2.19-2.36-.89-1.04-.87-2.3,0-3.1,.91-.84,2.21-.76,3.17,.3,3.15,3.49,6.69,6.5,10.77,8.85,5.89,3.39,12.2,5.39,19.01,5.76,13.28,.72,24.63-3.68,33.8-13.22,9.19-9.55,13.21-21.14,11.76-34.34-1.64-14.93-9.35-26.03-22.35-33.42-5.91-3.36-12.36-5.04-19.17-5.18-12.98-.27-23.93,4.37-32.91,13.72-.92,.96-2.37,1.13-3.21,.37-.98-.9-.94-2.21,.19-3.4,2.97-3.14,6.27-5.86,9.98-8.09,6.55-3.94,13.63-6.24,21.28-6.71,.93-.06,1.29-.3,1.26-1.3-.07-2.31-.06-4.63,0-6.94,.03-.95-.3-1.2-1.21-1.19-3.06,.05-6.12,.02-9.17,.01-1.05,0-1.89-.42-2.18-1.48-.26-.95-.01-1.85,.89-2.37,.4-.23,.93-.34,1.41-.34,8.1-.02,16.2-.02,24.3,0,1.43,0,2.28,.77,2.32,2.02,.04,1.35-.76,2.15-2.28,2.17-2.77,.03-5.54,.01-8.31,.01-.44,0-.89,0-1.4,0-.06,.4-.13,.67-.13,.95,0,2.44,.02,4.88-.02,7.31-.01,.79,.23,1.08,1.04,1.13,6.48,.36,12.67,1.94,18.35,5.05,3.27,1.79,6.25,4.12,9.36,6.23,.37,.25,.69,.58,.96,.8,2.07-2.06,4.11-4.08,6.28-6.24-1.14-1.08-2.3-2.33-3.6-3.39-1.2-.98-1-2.65-.36-3.31,.86-.89,2.23-.85,3.3,.21,3.52,3.49,7.02,7,10.52,10.52,1.01,1.01,1.05,2.31,.19,3.2-.87,.89-2.13,.84-3.17-.2-1.22-1.23-2.4-2.5-3.64-3.8Z"/><path class="cls-2" d="M138.57,149.25c.03-7.15,7.56-11.9,13.98-8.75,.95,.47,1.42,.29,2.09-.38,5.2-5.25,10.44-10.46,15.66-15.7,.68-.68,1.37-1.21,2.39-.96,1.71,.43,2.12,2.44,.74,3.83-3.43,3.46-6.88,6.9-10.33,10.34-1.87,1.87-3.71,3.76-5.62,5.59-.6,.58-.72,1.01-.33,1.79,1.81,3.64,1.19,7.99-1.45,10.85-2.81,3.04-7.25,4.12-10.87,2.65-3.85-1.56-6.26-5.14-6.25-9.27Zm9.79,5.67c3.02,.02,5.6-2.56,5.61-5.6,0-2.99-2.64-5.61-5.64-5.59-2.96,.03-5.52,2.6-5.54,5.56-.02,3.05,2.52,5.61,5.58,5.63Z"/><path class="cls-2" d="M107.37,170.25c-5.78,0-11.56,0-17.34,0-1.03,0-1.77-.39-2.11-1.37-.31-.91-.12-1.76,.67-2.32,.41-.29,.99-.46,1.49-.46,11.48-.03,22.96-.02,34.44-.01,1.34,0,2.31,.9,2.33,2.05,.02,1.23-.94,2.11-2.38,2.11-5.7,0-11.4,0-17.09,0Z"/><path class="cls-2" d="M112.58,151.41c-3.43,0-6.85,0-10.28,0-1.52,0-2.41-.73-2.45-1.99-.04-1.33,.86-2.18,2.43-2.18,6.94-.02,13.87-.02,20.81,0,1.43,0,2.38,.93,2.34,2.16-.03,1.21-.93,2-2.33,2.01-3.51,.01-7.02,0-10.53,0Z"/><path class="cls-2" d="M117.19,128.15c2.39,0,4.79,0,7.18,0,1.45,0,2.42,.83,2.46,2.05,.04,1.25-.96,2.12-2.5,2.12-4.83,0-9.66,0-14.49,0-1.57,0-2.4-.71-2.44-2.03-.04-1.28,.93-2.14,2.47-2.15,2.44-.01,4.87,0,7.31,0Z"/><path class="cls-2" d="M150.5,119.15c0,1.11,.04,2.22-.01,3.33-.06,1.31-.9,2.16-2.05,2.19-1.22,.03-2.12-.81-2.15-2.2-.05-2.26-.05-4.53,0-6.79,.03-1.31,.92-2.13,2.1-2.12,1.17,.01,2.04,.85,2.1,2.13,.05,1.15,.01,2.3,.01,3.46Z"/><path class="cls-2" d="M178.63,151.41c-1.16,0-2.31,.02-3.47,0-1.25-.03-2.04-.78-2.1-1.96-.06-1.14,.72-2.14,1.91-2.17,2.39-.07,4.79-.07,7.19,0,1.21,.03,2.03,1,2.01,2.1-.02,1.15-.93,2-2.19,2.04-.04,0-.08,0-.12,0-1.07,0-2.15,0-3.22,0Z"/><path class="cls-2" d="M167.17,165.87c.73,.44,1.32,.66,1.74,1.07,1.55,1.48,3.06,3.01,4.56,4.55,.98,1.01,1.06,2.21,.24,3.09-.83,.9-2.19,.89-3.19-.09-1.57-1.53-3.11-3.08-4.65-4.64-.71-.72-.98-1.64-.44-2.49,.38-.59,1.1-.96,1.74-1.49Z"/><path class="cls-2" d="M150.5,179.71c0,1.07,.04,2.15,0,3.22-.06,1.27-.94,2.17-2.07,2.19-1.16,.03-2.09-.81-2.12-2.11-.06-2.31-.07-4.62,0-6.93,.03-1.25,.9-2.04,2.04-2.06,1.16-.03,2.08,.83,2.15,2.1,.06,1.19,.01,2.39,.01,3.59h0Z"/></g></g><rect class="cls-5" x="3.5" y="3.5" width="277.9" height="440.91" rx="8" ry="8"/></g></g></g></g></svg>