<?xml version="1.0" encoding="UTF-8"?><svg id="_圖層_2" xmlns="http://www.w3.org/2000/svg" viewBox="0 0 120 120"><defs><style>.cls-1{fill:none;opacity:.5;}.cls-2{fill:#0f2c51;}.cls-3{fill:#0e2c50;}</style></defs><g id="_圖層_1-2"><g><rect class="cls-1" width="120" height="120"/><g><g><path class="cls-3" d="M31.42,99.99c-.06,0-.65,0-.65-.24,0-.21,.15-.29,.71-.59,3.15-1.62,5.54-3.86,6.28-4.8,.97-1.21,1.15-1.44,2-1.44s2.15,.83,2.15,1.68-1.36,1.86-2.06,2.36c-.03,.68-.06,1.8-.06,2.47,0,1.62,.06,8.75,.06,10.22,0,1.06-.03,1.62-1,2.39-.24,.18-.85,.62-1.56,.62-.35,0-1.44-.15-1.44-1.38,0-.06,.18-2.36,.21-2.77,.15-2.03,.27-3.92,.44-10.08-1.5,.88-3.45,1.56-5.07,1.56Zm3.86-7.69c-1.33,0-2.74-.26-2.74-.71,0-.12,.12-.26,.53-.32,1.18-.18,4.45-1.56,5.22-2.18,1.03-.85,1.09-.91,1.74-.91,1.03,0,2.03,.83,2.03,1.74,0,1.39-3.71,2.39-6.78,2.39Zm17.92,8.34c0,1.21,.06,6.57,.06,7.66,0,1.8,0,4.63-3.65,4.63-1.24,0-2.27-.53-4.1-1.97-.5-.41-.71-.56-.71-.68s.15-.24,.29-.24c.06,0,.44,.06,.5,.06,.71,.09,1.3,.18,2.24,.18,1.83,0,1.83-.88,1.83-5.98v-3.65c0-.86,0-2.36-.03-3.24l-4.39,.03c-.41,0-.56,.06-1.77,.5-.21,.09-.44,.18-.74,.18-.5,0-1.09-.24-1.09-.79,0-.8,.62-1.65,1.53-1.65,.21,0,1.18,.21,1.38,.21h10.81c.5-1.03,1.36-1.38,1.89-1.38,.94,0,2.24,.79,2.24,1.94,0,.77-.77,.97-1.41,.97h-4.89v3.24Zm0-11.11c.47-.97,1.3-1.36,1.89-1.36,.85,0,2.27,.86,2.27,1.97,0,.79-.8,1-1.65,1-.91,0-5.04-.06-5.86-.03-.8,0-3.36,.06-3.83,.12-.29,.03-1.44,.56-1.71,.56-.41,0-1.09-.24-1.09-.86,0-.79,.68-1.62,1.56-1.62,.18,0,.85,.21,1,.21h7.43Z"/><path class="cls-3" d="M71.73,92.01c.65,.35,.74,.41,.74,.53,0,.77-1.3,1.65-1.86,1.65-.41,0-1.36-.44-2.42-2.65-.83,.83-2.74,2.74-5.51,3.74-.85,.29-1.83,.5-2.18,.5-.15,0-.5-.03-.5-.24,0-.12,.38-.38,.71-.62,2.62-1.86,3.65-2.86,5.51-5.48,.79-1.12,.94-1.36,1.83-1.36,.83,0,1.71,.59,1.71,1.47,0,.21-.06,.41-.15,.65,.59,.83,1.62,1.53,2.12,1.8Zm-2.36,4.07c.21-.41,.68-.77,1.09-.77,.12,0,.41,.03,.71,.24,.53-.56,1.36-1.44,2.83-4.1,.47-.88,.68-1.21,1.41-1.21,1.03,0,1.77,.71,1.77,1.56s-2.89,3.36-5.57,4.1c.15,.18,.35,.47,.35,.82,0,.53-.53,.65-1.27,.65h-2.06v2.33c.35,0,.56-.03,1.18-.03,.21-.29,.53-.71,1.12-.71,.62,0,1.47,.65,1.47,1.44,0,.62-.62,.62-1.15,.62h-2.62v7.22c.62,0,3.8-.68,3.89-.68,.24,0,.35,.15,.35,.29,0,.88-7.4,3.56-10.14,3.56-1.12,0-1.92-.68-1.92-1.47,0-.27,.12-.77,.65-1.09,.38-.24,.77-.24,4.27-.32v-7.51c-.15,0-2.45,.03-2.48,.06-.18,.03-1.06,.29-1.27,.29-.18,0-.83,0-.83-.65,0-.53,.41-1.18,1.21-1.18,.15,0,.8,.15,.94,.15h2.42v-2.33h-1.27c-.18,0-.94,.24-1.12,.24-.53,0-.77-.18-.77-.56,0-.53,.44-1.09,1.03-1.09,.15,0,.83,.12,.97,.12h4.77Zm-4.71,11.26c-1,0-3.06-2.03-3.06-2.98,0-.62,.88-1.18,1.62-1.18,.59,0,1.21,.35,1.33,.91,.03,.12,.65,2.8,.65,2.83,0,.35-.38,.41-.53,.41Zm4.77-.09c-.32,0-.38-.18-.38-.35,0-.32,.35-2.03,.56-2.62,.09-.35,.41-1.03,1.21-1.03,.74,0,1.47,.47,1.47,1.18,0,.91-2,2.83-2.86,2.83Zm13.29-10.61c.59-.79,1.41-1.03,1.8-1.03,.65,0,1.8,.5,1.8,1.27,0,.15-.03,.32-.09,.47-.21,.65-.21,.71-.21,1.36,0,1.5,.12,8.96,.12,10.64,0,.91,0,3.92-3.39,3.92-1.62,0-3.95-2.06-3.95-2.3,0-.12,.15-.15,.21-.15,.12,0,1.21,.09,1.41,.09,1.92,0,2.39-.77,2.39-2.33v-2.56h-6.22c0,.65,.03,3.8,.03,4.51,0,1.12,0,1.33-.47,1.8-.41,.44-1.12,.77-1.74,.77-.41,0-1.12-.24-1.12-.94,0-.44,.18-3,.21-3.56,.06-1.56,.27-7.31,.27-9.63,0-.06,0-.32-.03-.44-.06-.15-.41-.77-.41-.91,0-.65,1.47-1.65,2.18-1.65,.18,0,.88,.09,1.06,.71h1.65c0-1.09-.06-4.8-.09-6.22-.03-.68-.03-.77-.15-.86-.5-.32-.53-.32-.53-.53,0-.83,1.89-1.92,2.89-1.92,.53,0,1.27,.35,1.27,1.03,0,.12-.15,.71-.15,.86-.12,2.53-.24,5.1-.24,7.63h1.5Zm.06,3.89v-2.56h-5.77c-.41,0-.41,.35-.41,.65v1.91h6.19Zm.03,4.07l-.03-2.71h-6.19v2.71h6.22Zm6.42-8.93c0,.29-.38,.38-.56,.38-1.95,0-6.01-3.39-6.01-4.42,0-.77,.68-1.56,1.8-1.56,1,0,1.3,.77,1.41,1.09,1.06,1.83,2.68,3.56,3.21,4.15,.12,.09,.15,.27,.15,.35Z"/></g><g><rect class="cls-2" x="71" y="30.55" width="13.72" height="31.43"/><rect class="cls-2" x="54.91" y="39.53" width="13.72" height="22.45"/><rect class="cls-2" x="38.82" y="47.01" width="13.72" height="14.97"/><path class="cls-2" d="M68.72,11.67l4.41,2.15c-9.48,22.48-33.94,20.52-33.94,20.52,23.77,5.17,33.1-7.2,39-17.24l4.32,2.59-2.19-12.95-11.59,4.92Z"/><rect class="cls-2" x="36.08" y="64.1" width="51.64" height="2.5"/></g></g></g></g></svg>