<?xml version="1.0" encoding="UTF-8"?><svg id="_圖層_2" xmlns="http://www.w3.org/2000/svg" viewBox="0 0 177.29 211.21"><defs><style>.cls-1{fill:#fff;}.cls-2{fill:#122c52;}.cls-3{fill:#132c53;}.cls-4{fill:#0f2c51;}</style></defs><g id="_圖層_1-2"><g><polygon class="cls-1" points="51.37 204.17 69.45 176.96 77.42 173.79 83.02 172.82 82.63 166.19 63.31 157.25 56.82 147.06 54.45 137.04 46.7 133.21 37.78 110.97 96.29 82.74 157.69 111.92 148.39 135.52 136.25 143.86 134.33 151.09 130.46 153.16 127.57 155.86 122.56 161.64 113.34 164.29 110.37 166.19 110.59 170.29 118.56 175.55 126.98 179.81 146.82 195.63 140.37 209.57 132.7 210.86 50.31 210.13 51.37 204.17"/><g><path class="cls-4" d="M80.93,115.12c.57-.28,1.09-.76,1.27-1.4,.18-.62,.02-1.3-.15-1.93-.11-.38-.23-.78-.52-1.04-.03-.03-.06-.05-.1-.08-.14-.1-.3-.16-.46-.22-1.71-.64-3.51-.47-5.28-.72-1.02-.15-2.03-.29-3.05-.44-1.23-.18-2.48-.58-3.73-.46-.65,.07-1.21,.29-1.74,.68-.36,.27-1.2,.74-1.24,1.25-.05,.64,1.31,1.01,1.77,1.2,.61,.25,1.21,.51,1.82,.76,1.55,.65,3.1,1.29,4.67,1.85,2.1,.74,4.59,1.56,6.73,.53Z"/><path class="cls-4" d="M122.28,114.74c.48-.12,1.88-.29,1.92-.93,.04-.51-.73-1.1-1.05-1.42-.47-.47-.99-.77-1.63-.93-1.22-.31-2.51-.09-3.76-.09-1.03,0-2.05,0-3.08-.01-1.79,0-3.54-.44-5.33-.06-.17,.04-.33,.08-.48,.15-.04,.02-.07,.04-.11,.06-.32,.21-.51,.59-.67,.95-.26,.6-.52,1.24-.43,1.88,.09,.66,.53,1.21,1.06,1.57,1.97,1.33,4.55,.89,6.74,.46,1.64-.32,3.27-.74,4.89-1.15,.64-.16,1.27-.33,1.91-.49Z"/><ellipse class="cls-4" cx="114.48" cy="127.02" rx="5.62" ry="5.68"/><ellipse class="cls-4" cx="74.1" cy="125.16" rx="5.62" ry="5.68"/><path class="cls-4" d="M34.32,109.24l-4.32-3.1c-.55-.64-1-1.27-1.34-1.83-.78-1.28-1.06-2.21-1.06-2.22h0c-.66-1.39-.34-1.98-.86-3.41,0,0-.5,.1-1.68-.04-2.94-.35-9.66-7.91-9.21-14.89,.27-4.2,2.65-3.31,1.95-7.06-.69-3.75,.77-3.13,2.69-5.77,.45-.62,.79-1.62,.67-2.35-.91-5.66,.51-10.33,3.51-14.31,1-1.33,2.18-2.59,3.51-3.79,.84-.75,1.9-1.28,2.93-1.7,.34-.14,.57-.3,.74-.51,.15-.23,.23-.51,.25-.89,.23-3.98-4.02-6.01-1.81-9.29,.42-.62,.86-1.21,1.32-1.78,1.38-1.7,2.97-3.16,4.85-4.28,.22-.13,.41-.29,.57-.46,.44-.52,.68-1.18,.88-1.87,.66-2.19,1.64-4.09,2.96-5.67,1.32-1.6,3-2.87,5.06-3.74,1.87-.78,3.93-1.06,5.8-1.84,1.09-.46,2.17-1.3,2.9-2.26,3.89-5.14,9.31-6.51,15.04-7.17,.57-.07,1.19-.19,1.73-.04,2,.56,3.52-.09,5.1-1.49,2.93-2.59,6.31-3.43,10.03-2.09,.34,.12,.9-.09,1.25-.33,2.71-1.77,5.68-3.06,8.8-2.87,2.77,.17,5.1-.73,7.57-1.68,3.47-1.33,6.5,.16,9.36,2.05,.76,.51,1.37,.61,2.25,.31,3.13-1.09,6.16-.8,8.95,1.05,1.01,.67,1.99,1.41,2.85,2.28,1.25,1.27,2.89,1.23,4.39,1.58,2.28,.54,4.16,1.69,5.66,3.47,1.28,1.52,2.37,3.23,3.58,4.82,.26,.34,.68,.62,1.07,.74,3.69,1.1,6.71,3.29,9.13,6.35,.72,.91,1.18,2.1,1.54,3.24,.45,1.39,1.2,2.45,2.32,3.25,2.18,1.58,3.41,3.8,4.13,6.45,.17,.63,.72,1.25,1.26,1.63,1.95,1.37-3.52-5.47-1.72-3.92,2.12,1.83,3.51,4.36,4.65,7.01,.23,.53,.57,1.05,.99,1.43,3.54,3.21,2.77,1.69,3.1,6.63,.1,1.49,2.99,4.24,3.56,5.5,2.55,5.61,3.01,7.1,1.2,13.02-.23,.75-.17,1.19,.3,1.74,5.44,6.33,4.29,14.91,4.29,14.91,0,0,1.13,9.16-1.27,11.97-.8,.93-1.7,1.79-2.74,2.57-.09,.07-.17,.16-.24,.28-.19,.3-.3,.72-.33,1.07-.27,2.91-1.58,5.32-3.24,7.55-.02,.03-.05,.06-.07,.09-.34,.45-.78,.92-1.26,1.09-1.59,.56-1.82,4.18-2.89,5.41-1.41,1.63-3.36,2.36-5.47,2.49-.31-.04-.61-.06-.91-.08-3.22,0-3.14,2.47-3.14,2.47,0,0,1.14,4.89-4.96,3.48-6.11-1.41,0,0,0,0-.92,.74-.76,1.39-2.63,2.42-1.87,1.03-5.56-.74-5.56-.74l-.57-.37c-.4-.34-.07-.09-.44-.46-.12-.17-.27-.35-.44-.56-1.15-1.37-.97-.83-1.14-2.47-.11-1.05-.37-1.59-1.51-1.71-2.36-.25-4.34-1.4-6-3.21-2.65-2.9-4.4-6.26-4.93-10.28-.13-1-.51-1.55-1.5-1.73-4.44-.8-7.48-3.17-9.82-6.32-.57,.03-1.14,.04-1.7,.01-1.93,.73-4.07,.94-6.03,.55-.19,0-.38,0-.56-.01-.81-.05-1.61-.18-2.4-.38-1.46,.9-3.1,1.55-4.78,1.98-1.25,.48-2.58,.7-3.93,.66-.49,.04-.98,.07-1.45,.08-4.91,.09-9.6-1.22-13.18-4.38-.08-.02-.16-.05-.25-.07-.04,.06-.08,.11-.12,.16-.23,.35-.47,.68-.72,1.01-.1,.14-.2,.28-.31,.41-.35,.43-.71,.84-1.08,1.22-2.48,2.52-5.61,4.02-9.27,4.63-1.37,.23-2.84-.04-4.23-.26-.84-.13-1.49-.07-1.99,.46-.14,.16-.26,.36-.38,.6-.36,.79-.95,1.46-1.4,2.21-.43,.72-.89,1.37-1.37,2-.19,.25-.39,.48-.59,.72-.23,.27-.46,.55-.7,.81-.35,.37-.71,.74-1.08,1.08-.04,.04-.09,.08-.13,.12-2.36,2.11-5.11,3.51-8.17,4.38-3.98,.49-2.18-1.35-5.3-1.9-.14-.06-.29-.11-.47-.14-.89-.14-1.76-.33-2.62-.55-3-.84-5.48-2-7.43-3.14-.03,.05-.09,.08-.17,.08"/><path class="cls-4" d="M95.33,169.45c-13.7,0-26.81-5.66-36.55-16.62-11.95-13.43-11-40.86-10.96-42.02,.04-1.11,.95-1.96,2.06-1.92,1.09,.04,1.95,.98,1.9,2.08-.01,.27-.92,26.96,9.94,39.18,15.12,17,39.11,20.12,59.7,7.75,15.38-9.23,19.32-31.56,20.3-40.73,.08-.72,.28-2.62,2.16-2.53,1.88,.09,1.91,1.98,1.92,2.7,0,.34-.07,.66-.21,.94-1.4,12.25-6.14,33.46-22.14,43.07-9.05,5.44-18.72,8.1-28.12,8.1Z"/><path class="cls-4" d="M83.87,175.05c-.75,0-1.4-.55-1.52-1.32l-1.01-6.68c-.13-.85,.45-1.64,1.29-1.77,.84-.13,1.62,.45,1.75,1.3l1.01,6.68c.13,.85-.45,1.64-1.29,1.77-.08,.01-.16,.02-.23,.02Z"/><path class="cls-4" d="M80.49,170.41c.39,1.19,10.59,12.82,10.59,12.82l-13.36,14.29-2.29-23.16,5.06-3.94Z"/><polygon class="cls-4" points="103.46 182.8 112.82 170.57 118.39 174.14 115.41 196.74 103.46 182.8"/><path class="cls-4" d="M111.19,173.79c-.78,0-1.45-.6-1.53-1.4l-.48-4.87c-.08-.85,.53-1.61,1.38-1.7,.85-.09,1.6,.54,1.68,1.39l.48,4.87c.08,.85-.53,1.61-1.38,1.7-.05,0-.1,0-.15,0Z"/><polygon class="cls-4" points="91.08 183.23 85.82 196.7 93.59 208.58 91.08 183.23"/><polygon class="cls-4" points="95.42 208.39 103.46 182.8 108.18 194.71 95.42 208.39"/><path class="cls-4" d="M49.51,135.59c-.26,0-.52-.05-.77-.16-12.53-5.36-9.08-22.73-8.93-23.47,.22-1.08,1.27-1.78,2.35-1.55,1.07,.23,1.76,1.29,1.53,2.37-.03,.16-2.92,14.89,6.6,18.96,1.01,.43,1.48,1.61,1.05,2.63-.32,.76-1.05,1.22-1.83,1.22Z"/><path class="cls-4" d="M139.26,144.22c-.94,0-1.78-.68-1.95-1.65-.19-1.09,.52-2.13,1.6-2.33,10.22-1.85,10.58-16.86,10.58-17.01,.02-1.11,.93-2,2.02-1.97,1.09,.02,1.97,.93,1.95,2.04-.01,.75-.46,18.46-13.85,20.89-.12,.02-.24,.03-.35,.03Z"/><path class="cls-4" d="M25.89,94.74s-2.76,2.88,.93,9.38c0,0-.82,10.67,5.46,14.93,0,0,.13,10.02,10.03,10.95,0,0-1.09-10.66-1.05-10.59s1.98-14.58,1.98-14.58l-17.35-10.09Z"/><path class="cls-4" d="M170.46,104.06s2.24,3.31-2.47,9.09c0,0-.96,10.66-7.86,13.79,0,0-1.79,9.86-11.7,9.1,0,0,2.84-10.32,2.79-10.26s.47-14.71,.47-14.71l18.78-7.01Z"/><path class="cls-4" d="M44.61,210.46l-2.35-12.09c-.4-8.3,6.59-8.83,13.21-13.8,6.62-4.97,19.16-9.69,19.16-9.69l2.3,25.19,11.38-12.42-3.79,9.08,8.94,14.47-48.85-.75Z"/><path class="cls-4" d="M148.5,211.21l2.35-12.09c.4-8.3-6.59-8.83-13.21-13.8-6.62-4.97-18.7-9.61-18.7-9.61l-2.79,23.36-9.92-11.57,3.32,7.28-15,16.43h53.96Z"/><path class="cls-4" d="M93.69,142.04c-6.52,0-8.88-4.69-9.21-7.27-.12-.96,.55-1.84,1.5-1.96,.94-.12,1.81,.55,1.94,1.5,.07,.47,.84,4.51,6.36,4.21,5.47-.3,5.73-3.62,5.74-4,0-.97,.78-1.74,1.73-1.74s1.73,.8,1.73,1.77c0,2.41-1.89,7.08-9.03,7.47-.27,.01-.52,.02-.78,.02Z"/><ellipse class="cls-1" cx="73.76" cy="122.71" rx="1.35" ry="1.37"/><ellipse class="cls-1" cx="113.45" cy="124.67" rx="1.39" ry="1.4"/><ellipse class="cls-1" cx="71.46" cy="125.62" rx=".45" ry=".46"/><ellipse class="cls-1" cx="76.4" cy="126.81" rx=".73" ry=".73"/><ellipse class="cls-1" cx="111.87" cy="127.48" rx=".45" ry=".46"/><ellipse class="cls-1" cx="116.81" cy="128.67" rx=".73" ry=".73"/></g><g><g><rect class="cls-1" x="1.05" y="141.5" width="66.63" height="47.46" rx=".66" ry=".66"/><path class="cls-2" d="M64.57,189.97H4c-2.2,0-4-1.81-4-4.04v-41.33c0-2.23,1.79-4.04,4-4.04h60.57c2.2,0,4,1.81,4,4.04v41.33c0,2.23-1.79,4.04-4,4.04ZM4,142.26c-1.28,0-2.32,1.05-2.32,2.35v41.33c0,1.29,1.04,2.35,2.32,2.35h60.57c1.28,0,2.32-1.05,2.32-2.35v-41.33c0-1.29-1.04-2.35-2.32-2.35H4Z"/></g><path class="cls-2" d="M32.97,166.11c-.16,0-.33-.05-.47-.15L3.12,145.69c-.38-.26-.48-.79-.22-1.17,.26-.39,.78-.48,1.16-.22l28.92,19.96,30.88-20.63c.38-.26,.9-.15,1.16,.24,.25,.39,.15,.91-.24,1.17l-31.35,20.94c-.14,.09-.3,.14-.46,.14Z"/></g><g><g><path class="cls-1" d="M27.19,210.46l-4.92-25.01,8.01-6.01s3.88-3.24,5.79,0l4.6,7.62s1.72,4.96,0,8.25c-1.72,3.28-3.16,4.52-3.16,4.52,0,0,2.41,4.07-1.26,10.64"/><path class="cls-3" d="M27.19,210.55c-.32,0-.61-.23-.68-.56l-4.92-24.54c-.05-.27,.05-.55,.27-.71l7.99-5.89c.22-.18,2.39-1.87,4.47-1.5,.97,.17,1.75,.74,2.33,1.7l4.6,7.47s.05,.09,.06,.14c.07,.21,1.8,5.2-.04,8.66-1.24,2.33-2.36,3.65-2.93,4.25,.56,1.34,1.61,5.17-1.51,10.64-.19,.34-.62,.45-.95,.26-.33-.19-.45-.62-.26-.96,3.43-6.01,1.29-9.69,1.27-9.72-.18-.3-.12-.68,.15-.91,.01,0,1.38-1.19,2.99-4.22,1.45-2.71,.17-6.88-.02-7.46l-4.56-7.41c-.36-.61-.81-.95-1.38-1.05-1.27-.22-2.87,.81-3.38,1.22l-7.67,5.66,4.84,24.09c.08,.38-.17,.75-.54,.83-.05,0-.09,.01-.14,.01Z"/></g><g><polygon class="cls-1" points="30.27 187.26 33.16 184.82 35.39 187.26 30.27 187.26"/><path class="cls-3" d="M35.39,187.78h-5.12c-.22,0-.42-.14-.49-.35-.07-.21-.01-.44,.16-.58l2.89-2.44c.21-.18,.53-.16,.72,.05l2.22,2.44c.14,.15,.18,.38,.09,.57-.08,.19-.27,.32-.48,.32Zm-3.68-1.05h2.49l-1.08-1.19-1.41,1.19Z"/></g></g></g></g></svg>