<?xml version="1.0" encoding="UTF-8"?><svg id="_圖層_2" xmlns="http://www.w3.org/2000/svg" viewBox="0 0 100 100"><defs><style>.cls-1{fill:none;}.cls-2{fill:#0f2c51;}</style></defs><g id="_圖層_1-2"><g><rect class="cls-1" width="100" height="100"/><path class="cls-2" d="M87.77,17.86l8.2-10.93c.73-.97,.85-2.28,.3-3.36-.54-1.09-1.66-1.78-2.88-1.78H58.04c-1.77,0-3.21,1.44-3.21,3.21v28.94c-5.64,.02-12.39,.03-16.18,.03,2.05-2.7,3.32-6.03,3.32-9.68,0-8.88-7.2-16.07-16.07-16.07S9.82,15.41,9.82,24.28c0,4.09,1.58,7.78,4.09,10.62-6.53,5.38-9.49,12.29-10.52,24.74,0,5.41,0,11.46,6.97,12.65l2.77,13.84c1.83,7.34,6.84,12.08,12.76,12.08s10.93-4.74,12.8-12.23l3.16-15.81c1.69-4.53,2.8-9.51,3.18-14.3l9.79-1.96v41.08c0,1.78,1.44,3.21,3.21,3.21s3.21-1.44,3.21-3.21V53.21c0-.17-.07-.32-.1-.49,4.28-1.31,6.53-5.23,6.53-9.15s-2.22-7.77-6.43-9.11v-.53h32.14c1.22,0,2.33-.69,2.88-1.78,.54-1.09,.43-2.39-.3-3.37l-8.2-10.93Zm-26.52,9.64V8.21h25.72l-5.79,7.72c-.86,1.14-.86,2.71,0,3.85l5.79,7.72h-25.72ZM25.89,14.64c5.32,0,9.64,4.33,9.64,9.64s-4.33,9.64-9.64,9.64-9.64-4.33-9.64-9.64,4.33-9.64,9.64-9.64ZM58.04,46.79c-.21,0-.42,.02-.63,.06l-15.75,3.15c-.25,.02-.49,.08-.73,.16-1.28,.43-2.15,1.62-2.19,2.97-.12,4.93-1.18,10.26-2.99,15.02-.06,.17-.11,.34-.15,.51l-3.18,15.92c-1.1,4.38-3.66,7.21-6.53,7.21s-5.43-2.83-6.49-7.06l-3.21-16.07c-.3-1.5-1.62-2.58-3.15-2.58q-3.21,0-3.23-6.16c1.01-12.1,3.86-16.59,8.45-20.26,.21-.17,.4-.37,.56-.58,.07-.1,.15-.2,.23-.29,.65,.31,1.32,.54,2.01,.76l2.69,4.04-4.29,10.71,6.43,8.57,6.43-8.57-4.29-10.71,2.69-4.04c.69-.22,1.36-.45,2.01-.76,.08,.1,.16,.2,.23,.3,.16,.21,.35,.41,.55,.57q1,.81,24.53,.71c3.05,0,3.2,2.68,3.2,3.21s-.16,3.21-3.21,3.21Z"/></g></g></svg>