<?xml version="1.0" encoding="UTF-8"?><svg xmlns="http://www.w3.org/2000/svg" viewBox="0 0 284.9 447.91"><defs><style>.cls-1{fill:#0e2c50;}.cls-2{fill:#595857;}.cls-3{mix-blend-mode:darken;}.cls-4{isolation:isolate;}.cls-5{fill:none;stroke:#bacbd7;stroke-miterlimit:10;stroke-width:7px;}.cls-6{fill:#bacbd7;opacity:.3;}</style></defs><g class="cls-4"><g id="_圖層_2"><g id="_圖層_1-2"><g><g><path class="cls-2" d="M29.22,284.24c0,1.29,.14,7.67,.14,9.1,0,1.26-1.37,2.18-2.3,2.18-.67,0-1.23-.34-1.23-1.04,0-.03,.25-5.6,.31-6.66,.06-1.54,.17-6.8,.2-8.62-1.65,.92-2.83,1.09-3.44,1.09-.17,0-.62-.03-.62-.25,0-.06,.5-.42,.62-.5,1.68-1.2,4.17-3.02,6.36-6.61,.25-.98,.98-1.15,1.6-1.15,1.2,0,1.79,1.01,1.79,1.6s-1.85,2.86-3.39,4.03c-.03,1.01-.06,4.2-.03,6.83Zm5.18-3.22c-.14,5.68-.22,8.2-1.74,10.67-1.2,2.02-2.63,2.66-3.02,2.66-.14,0-.28-.06-.28-.2,0-.03,.78-1.32,.9-1.57,1.2-2.66,1.2-6.33,1.2-7.81,0-.03-.03-3.11-.06-3.39,0-.11-.36-.73-.36-.9,0-.62,1.4-1.54,2.13-1.54,.34,0,.98,.2,1.09,.81h1.46v-2.83h-1.71c-.25,0-1.37,.45-1.62,.45-.36,0-.7-.28-.7-.73,0-.53,.31-1.18,1.09-1.18,.14,0,.81,.11,.95,.11h1.99v-.42c0-.67,0-1.09-.08-1.6,0-.14-.5-.64-.5-.81,0-.62,1.76-1.65,2.55-1.65,.2,0,1.23,.06,1.23,.81,0,.14-.08,.87-.11,1.01-.03,.25-.08,2.27-.08,2.66h1.68c0-1.2,0-1.57-.06-2.04-.03-.14-.48-.76-.48-.92,0-.67,1.79-1.71,2.66-1.71,.56,0,1.26,.22,1.26,.87,0,.14-.11,.84-.14,.98-.06,.53-.08,1.51-.11,2.83h1.23c.28-.48,.95-.98,1.48-.98,.67,0,1.85,.73,1.85,1.57,0,.56-.59,.76-1.23,.76h-3.39c-.03,1.06-.03,1.6-.03,2.83h2.6c.34-.56,1.06-1.15,1.71-1.15,.76,0,2.02,.84,2.02,1.71,0,.7-1.09,.7-1.57,.7h-13.8Zm9.18,2.07c.28-.31,.7-.81,1.32-.81s2.1,.7,2.1,1.34c0,.28-.08,.45-.28,.76,0,1.15,.06,6.78,.06,8.06,0,1.4,0,3.28-2.27,3.28-1.4,0-2.58-1.6-2.58-1.74s.06-.14,.56-.14c.92,0,1.15,0,1.15-1.37v-2.04h-1.82c0,.5,.06,2.91,.06,3.47,0,1.37-1.54,1.74-1.76,1.74s-.73-.11-1.01-.39c-.17-.2-.17-.25-.17-.81s.11-3.36,.11-4h-1.6v2.77c0,1.01,0,1.32-.39,1.71-.5,.48-1.18,.67-1.65,.67-.34,0-1.15-.17-1.15-.95,0-.25,.08-1.26,.11-1.62,.22-2.46,.48-5.29,.48-7.98,0-.34-.03-.42-.2-.62-.08-.06-.17-.17-.17-.34,0-.59,1.57-1.62,2.18-1.62,.08,0,.73,0,.9,.64h6.02Zm-4.51,6.19v-1.99h-1.57c-.03,.95-.06,1.29-.06,1.99h1.62Zm0-3.11v-1.96h-1.29c-.11,0-.28,.08-.28,.28v1.68h1.57Zm1.32-6.41v-2.83h-1.71c-.03,.48-.03,.7-.03,2.83h1.74Zm3.25,6.41v-1.96h-1.82c0,.28-.03,1.65-.03,1.96h1.85Zm0,3.11v-1.99h-1.85v1.99h1.85Z"/><path class="cls-2" d="M59.2,282.56c.98,1.01,2.88,1.82,3.14,1.9,.48,.14,1.01,.31,1.01,.64,0,.5-1.46,1.43-1.99,1.43-.64,0-1.79-1.34-2.18-1.82l.14,5.88c0,.45,.08,2.55,.08,3.05,0,1.01-1.68,1.68-2.41,1.68-.67,0-1.12-.34-1.12-.98,0-.34,.14-2.02,.17-2.41,.14-2.16,.25-4.56,.34-6.72-2.55,3.75-5.1,5.04-5.85,5.04-.17,0-.36-.08-.36-.28,0-.08,.06-.17,.25-.36,1.51-1.74,2.88-3.89,3.53-5.91,.45-1.34,.56-1.68,1.76-1.68,.25,0,.45,.06,.73,.25v-.92l-3.02,.03c-.22,0-1.23,.45-1.48,.45-.28,0-.78-.2-.78-.67s.34-1.26,1.18-1.26c.11,0,.7,.11,.84,.11l3.28,.03c0-.64,0-4.68-.03-5.1,0-.39-.08-.9-.34-1.15-.39-.39-.42-.39-.42-.62,0-.78,2.07-1.76,2.8-1.76,.42,0,1.12,.22,1.12,.9,0,.34-.2,1.96-.22,2.32-.06,.76-.11,4.54-.14,5.4l.87-.03c.45-.87,1.15-.87,1.23-.87,.67,0,1.6,.9,1.6,1.62,0,.62-.62,.62-1.12,.62-.36,0-2.16-.03-2.58-.03v1.2Zm-3.14-6.38c-.78,1.76-2.91,2.13-3.39,2.13-.7,0-1.57-.5-1.57-1.32,0-.67,.84-1.23,1.46-1.23,.06,0,.84,.22,.98,.25,.31,.08,.42,.08,.87,.08,.73,0,1.06-.06,1.4-.2,.17-.14,.36,.17,.25,.28Zm4.59-1.06c.22-.76,.34-1.15,1.37-1.15,.81,0,1.68,.64,1.68,1.26,0,1.18-3.22,3.05-3.89,3.05-.39,0-.39-.31-.34-.36,.31-.59,.87-1.71,1.18-2.8Zm15.06,6.92c.76,0,2.16,.92,2.16,1.85,0,.64-.7,.81-1.2,.95-3.11,.84-4.09,1.09-4.26,1.15,.03,1.2,.22,7.42,.22,7.56,0,1.48-1.62,2.18-2.41,2.18-.73,0-1.04-.56-1.04-1.34,0-.2,.17-7.28,.2-7.76-1.29,.34-5.4,1.43-6.05,1.79-.9,.53-1.01,.59-1.32,.59-.67,0-.81-.48-.81-.87,0-1.32,1.06-1.37,1.65-1.43,.39-.03,5.57-1.34,6.55-1.6,.03-2.13,.03-3.84,.03-6.36,0-.56-.08-3.33-.08-3.95,0-.48,0-.56-.34-.81-.2-.14-.36-.28-.36-.5,0-1.01,1.99-2.21,3-2.21,.11,0,1.18,0,1.18,1.01,0,.11-.2,1.62-.22,1.85-.14,1.68-.2,8.37-.2,10.28,.7-.17,1.29-.34,1.93-.59,.14-.59,.48-1.79,1.37-1.79Zm-7.48,1.26c-.06,0-4.7-.76-4.7-2.1,0-.95,1.09-1.51,1.79-1.51,1.32,0,3.39,2.94,3.39,3.25,0,.25-.31,.36-.48,.36Zm.34-5.12c-.2,0-4.51-.84-4.51-2.21,0-.84,.9-1.54,1.76-1.54,1.26,0,3.19,3.08,3.19,3.39,0,.25-.22,.36-.45,.36Z"/><path class="cls-2" d="M89.14,273.06c.36-.53,.7-.95,1.34-.95,.84,0,1.68,.78,1.68,1.54,0,.62-.59,.76-1.29,.76h-2.91c.34,.22,.64,.53,.64,.95,0,.62-.62,2.07-1.48,2.07-.81,0-1.29-1.54-1.29-2.16,0-.11,.03-.5,.64-.87h-1.68c-3.28,3.16-5.71,3.56-5.91,3.56-.11,0-.36-.06-.36-.25,0-.14,.06-.17,.53-.59,3.3-2.94,4.12-5.46,4.23-5.82,0-1.12,.95-1.48,1.74-1.48s1.85,.53,1.85,1.32c0,.39-.39,1.04-.98,1.93h3.25Zm-1.26,4.76c.42-.67,1.01-.9,1.37-.9,.62,0,1.9,.76,1.9,1.37,0,.14-.03,.17-.2,.45-.08,.14-.08,.2-.08,.48,0,.64,.08,3.67,.08,4.34,0,.45,0,.67-.95,.98-.42,.14-.95,.22-1.23,.22-.84,0-.84-.31-.84-.78h-3.58c0,1.26,.14,7.5,.14,8.93,0,1.9,0,2.13-.45,2.58-.39,.39-1.04,.67-1.65,.67-.14,0-1.2,0-1.2-.81,0-.03,.2-3.42,.22-3.84,.14-3.95,.2-5.77,.2-10.08,0-.7,0-1.51-.11-1.82-.03-.14-.34-.76-.34-.9,0-.56,1.32-1.51,2.13-1.51,.45,0,1.2,.11,1.23,.62h3.36Zm.06,2.55v-1.34h-3.3c-.17,0-.28,.17-.28,.34v1.01h3.58Zm0,2.46v-1.32h-3.58v1.32h3.58Zm5.99,2.97c.28-.39,.78-.76,1.26-.76,.62,0,1.74,.59,1.74,1.23,0,.11-.03,.25-.08,.39-.14,.36-.17,.39-.17,.76,0,.76,.17,4.48,.17,5.32,0,.92-1.23,1.23-2.02,1.23-.95,0-.95-.31-.95-1.01h-4c-.03,.87-.03,.98-.2,1.18-.31,.36-1.06,.64-1.57,.64-.98,0-.98-.56-.98-.98,0-.7,.11-4.09,.11-4.84v-1.54c0-.08,0-.25-.03-.31-.06-.08-.39-.45-.39-.53,0-.64,1.43-1.43,2.16-1.43,.22,0,.9,.14,.98,.64h3.98Zm-.03,2.97v-1.9h-3.75c-.14,0-.31,.14-.31,.34v1.57h4.06Zm0,3v-1.9h-4.03v1.9h4.03Zm7.56-18.7c.36-.48,.87-1.15,1.57-1.15s1.96,.92,1.96,1.74c0,.67-.78,.76-1.34,.76h-4.62c.67,.39,.67,.9,.67,1.01,0,.59-.62,2.07-1.54,2.07-.81,0-1.32-1.48-1.32-2.18,0-.42,.34-.7,.64-.9h-1.57c-1.43,1.57-4.12,2.83-4.96,2.83-.17,0-.36-.06-.36-.25s.84-.9,.98-1.09c1.12-1.26,2.52-3.36,2.86-4.59,0-1.12,.95-1.48,1.74-1.48s1.85,.53,1.85,1.32c0,.39-.39,1.04-.98,1.93h4.42Zm-2.02,4.76c.45-.53,.84-1.04,1.48-1.04,.81,0,2.07,.95,2.07,1.68,0,.17-.34,.92-.34,1.12v12.85c0,1.88-.2,4.06-3.39,4.06-1.46,0-3.7-1.65-3.7-1.96,0-.17,.22-.17,.34-.17,.03,0,1.26,.08,1.48,.08,1.74,0,2.21-.73,2.21-2.66v-7.78h-3.86c-.17,.39-1.32,.64-1.88,.64-.87,0-1.01-.25-1.01-.95,0-.53,.08-3.19,.08-3.81,0-.28,0-.5-.2-.87-.03-.03-.25-.48-.25-.5,0-.56,1.71-1.48,2.27-1.48,.17,0,1.04,.14,1.12,.78h3.56Zm.17,2.55v-1.34h-3.56c-.11,0-.22,.08-.22,.25v1.09h3.78Zm0,2.49v-1.34h-3.78v1.34h3.78Z"/><path class="cls-2" d="M129.23,289.42c.31-.53,1.2-1.29,1.76-1.29,.76,0,2.27,1.12,2.27,1.96,0,.67-.7,.76-.95,.78-.59,.08-9.16,0-10.89,0,0,.48,.08,2.86,.08,3.39,0,.56,0,.81-.45,1.26-.39,.39-.87,.7-1.6,.7s-1.29-.25-1.29-1.06c0-.62,.14-3.61,.17-4.28-1.15,0-6.72,.06-7.98,.06-.25,0-.45,0-.64,.03-.25,.06-1.43,.39-1.68,.39-.5,0-.9-.36-.9-.81,0-.62,.87-1.29,1.46-1.29,.17,0,.87,.17,1.04,.17h8.76c.03-.87,.03-1.23,.06-2.1h-3.19c-.06,.62-1.32,1.12-1.9,1.12-.67,0-1.18-.28-1.18-.98,0-.92,.2-5.49,.2-6.52,0-.2,.03-.22-.08-.34-.2-.2-.31-.31-.31-.45,0-.67,1.51-1.65,2.27-1.65,.45,0,.9,.25,1.01,.73h9.35c.64-.81,1.2-.92,1.4-.92,.62,0,1.93,.84,1.93,1.71,0,.14-.06,.22-.08,.31-.17,.39-.17,.45-.17,.9,0,.81,.11,4.87,.11,5.8,0,.42,0,.7-.73,1.06-.48,.22-1.01,.34-1.37,.34-1.09,0-1.12-.56-1.12-1.09h-3.22v2.1h7.87Zm-13.05-17.47c.36-.73,1.12-1.01,1.62-1.01,.76,0,1.65,.59,1.65,1.29,0,.14-.22,.81-.22,.95,0,.48,.06,2.8,.06,3.33,0,.76-.28,1.51-1.88,1.51-1.09,0-1.12-.34-1.15-.87h-3.16c-.08,.98-1.23,1.26-1.82,1.26-.64,0-1.18-.2-1.18-.64,0-.34,.17-3.58,.17-4.26,0-.2,0-.31-.08-.5-.03-.06-.25-.42-.25-.5,0-.67,1.4-1.43,2.16-1.43,.39,0,1.04,.28,1.09,.87h3Zm.11,4.03v-2.74h-2.91c-.17,0-.28,.25-.28,.36v2.38h3.19Zm2.13,6.66v-2.13h-2.91c-.17,0-.31,.2-.31,.34v1.79h3.22Zm.03,3.39v-2.1h-3.22v2.1h3.22Zm8.74-14.08c.34-.76,1.01-1.09,1.51-1.09,.73,0,1.9,.73,1.9,1.48,0,.11-.25,.7-.25,.84,0,.5,.06,3.02,.06,3.58,0,.5,0,.81-.53,1.12-.5,.28-1.04,.36-1.46,.36-1.12,0-1.12-.45-1.12-1.09h-3.28c-.08,1.01-1.12,1.26-1.71,1.26-.2,0-1.26,0-1.26-.67,0-.62,.17-3.64,.17-4.31,0-.2-.03-.34-.14-.53-.03-.06-.2-.34-.2-.39,0-.67,1.43-1.43,2.16-1.43,.36,0,1.01,.28,1.06,.87h3.08Zm-2.6,10.7v-2.13h-3.19c-.03,1.09-.06,1.48-.06,2.13h3.25Zm0,3.39v-2.1h-3.25v2.1h3.25Zm2.72-10.05v-2.74h-2.97c-.17,0-.31,.25-.31,.36v2.38h3.28Z"/><path class="cls-2" d="M135.5,290.62c0-1.09,1.04-1.99,2.24-1.99,1.4,0,2.3,1.06,2.3,2.3,0,2.24-1.9,6.1-3.53,6.1-.31,0-.59-.11-.59-.42,0-.14,.36-.78,.42-.92,.06-.14,.84-1.9,.9-3.42-1.09-.06-1.74-.67-1.74-1.65Z"/><path class="cls-2" d="M159.22,290.28c0,.48,.08,2.83,.08,3.36,0,.59,0,.95-.62,1.43-.5,.36-1.09,.5-1.37,.5-.48,0-1.09-.28-1.09-.98,0-.62,.2-3.64,.22-4.31h-2.86c-.25,0-1.51,.39-1.79,.39-.59,0-.84-.39-.84-.78,0-.62,.53-1.12,1.2-1.12,.14,0,.78,.17,.95,.17h3.39c0-.36,.03-2.1,.03-2.49h-1.01c-.03,.76-1.46,1.04-1.88,1.04-.48,0-.9-.22-.9-.78,0-.87,.17-5.21,.17-6.19v-.7c0-.08-.36-.45-.36-.56,0-.67,1.46-1.48,2.18-1.48,.03,0,.64,0,.84,.59h1.06v-2.21h-2.46c-.22,0-1.34,.36-1.62,.36-.45,0-.67-.39-.67-.7,0-.5,.5-1.15,1.26-1.15,.14,0,.92,.2,1.09,.2h2.38c0-.39,0-1.79-.2-1.99-.28-.34-.34-.39-.34-.59,0-.78,1.82-1.43,2.58-1.43,.31,0,.95,0,.95,.87,0,.2-.11,1.15-.11,1.34l-.08,1.79h1.48c.25-.42,.64-.81,1.09-.81,.7,0,1.68,.81,1.68,1.51,0,.62-.78,.62-1.32,.62h-3l-.06,2.18h1.15c.28-.42,.73-.67,1.23-.67,.64,0,1.46,.5,1.46,1.12,0,.06-.25,.53-.28,.62,0,.9,.11,5.35,.11,6.36,0,1.51-1.57,1.51-1.85,1.51-.84,0-.92-.31-.92-.84h-.95c-.03,1.2-.03,1.32,0,2.49h1.6c.31-.53,.9-.92,1.29-.92,.73,0,1.71,1.12,1.71,1.65,0,.31-.25,.62-.87,.62h-3.75Zm-2.6-8.6v-2.21h-.95c-.14,0-.14,.17-.14,.31v1.9h1.09Zm0,1.18h-1.09v2.41h1.04l.06-2.41Zm3.58-1.18v-2.21h-.92c0,.31-.03,1.88-.03,2.21h.95Zm.03,3.58v-2.41h-.98v2.41h.98Zm11.48,3.42c-.03,.78-.03,3.42,0,4.4h3.08c.36-.45,.95-1.2,1.74-1.2s2.02,.98,2.02,1.88c0,.73-1.12,.73-1.6,.73h-12.38c-.28,0-1.54,.45-1.85,.45-.62,0-.78-.36-.78-.67,0-.7,.64-1.43,1.34-1.43,.25,0,1.34,.25,1.6,.25l3.58,.03c.03-.81,.03-2.21,.03-4.42h-1.96c-.62,0-.7,.03-1.01,.2-.48,.22-.73,.28-.98,.28-.81,0-.81-.84-.81-.92,0-.7,.7-1.2,1.29-1.2,.2,0,1.26,.17,1.51,.17h7.08c.22-.31,.64-.87,1.46-.87s1.9,.78,1.9,1.65c0,.67-.73,.7-1.18,.7h-4.09Zm-6.08-11.62c.06-.7,.73-.9,1.34-.9,.73,0,1.74,.42,1.74,.95,0,.73-3.08,3.47-3.36,3.86,.31,.34,1.88,1.96,2.18,2.38,.53,.7,1.12,1.48,1.12,1.99s-.56,1.15-1.51,1.15c-.9,0-1.01-.28-1.4-1.34-.2-.5-.59-1.54-2.13-3.61-.08-.08-.31-.25-.31-.5,0-.11,0-.22,.5-.62,.42-.62,1.79-2.86,1.82-3.36Zm8.26-3.08c.31-.5,1.01-1.15,1.51-1.15,.67,0,2.07,1.01,2.07,1.88,0,.78-1.18,.78-1.46,.78h-9.49c-.25,0-1.43,.45-1.71,.45-.39,0-.92-.22-.92-.76,0-.62,.5-1.37,1.37-1.37,.11,0,.78,.17,.92,.17h7.7Zm-4.65,3.28c.08-.59,.17-1.12,1.26-1.12,.76,0,1.9,.53,1.9,.98,0,.81-3.25,3.7-3.44,3.86,.31,.36,1.93,2.1,2.3,2.52,.48,.59,1.09,1.32,1.09,1.88s-.7,1.15-1.71,1.15c-.73,0-.87-.28-1.32-1.43-.62-1.51-1.37-2.58-2.1-3.58-.11-.08-.34-.28-.34-.5,0-.2,.34-.56,.5-.7,.95-1.34,1.74-2.46,1.85-3.05Zm1.37,3.64c0-.14,.7-.98,.81-1.15,.25-.34,1.54-2.21,1.54-2.69,.03-.73,.62-.92,1.2-.92,.78,0,1.93,.5,1.93,.92,0,.81-3.02,3.36-3.39,3.84,.28,.34,1.88,1.85,1.99,1.99,1.18,1.4,1.32,1.57,1.32,2.1,0,.98-1.18,1.23-1.62,1.23-.84,0-.95-.28-1.74-2.04-.48-1.09-.84-1.57-1.74-2.77-.14-.11-.31-.31-.31-.5Z"/><path class="cls-2" d="M186.77,277.66h4.34c.39-.39,.76-.78,1.32-.78,.64,0,1.82,.7,1.82,1.32,0,.31-.36,.45-.7,.5-.2,.03-5.26,0-5.8,0-.17,.28-1.12,1.54-1.29,1.85,1.2-.03,1.37-.06,3-.11-.14-.11-.78-.62-.92-.76-.11-.11-.2-.17-.2-.28,0-.2,.45-.2,.53-.2,.64,0,4.54,.5,4.54,2.07,0,.76-1.04,1.06-1.48,1.06-.5,0-.62-.11-1.6-1.09-1.76,.39-2.3,.48-2.91,.62,.48,.06,.92,.25,.92,.67,0,.08-.06,.45-.17,.67-.08,1.04-.08,1.37-.11,1.68h1.32c.17-.31,.59-.7,1.04-.7,.7,0,1.68,.67,1.68,1.37,0,.59-.81,.59-1.57,.59h-2.49v.98c.53,.62,1.96,1.43,2.77,1.82,.73,.34,.81,.39,.81,.56,0,.53-1.48,1.15-2.13,1.15-.5,0-.81-.34-1.48-1.09,.03,1.15,.06,3.16,.06,4.26,0,.48,0,.81-.34,1.15-.48,.45-1.23,.7-1.88,.7-.5,0-1.2-.31-1.2-.84,0-.08,.03-.42,.06-.67,.06-.48,.2-2.55,.31-4.48-2.21,2.35-4.76,3.28-5.38,3.28-.17,0-.45-.06-.45-.22,0-.08,.14-.22,.2-.28,1.37-1.34,3-3.11,3.58-4.4,.48-1.01,.67-1.43,1.82-1.43,.08,0,.28,.03,.39,.06v-.53h-2.49c-.25,0-1.43,.34-1.71,.34-.31,0-.76-.14-.76-.56,0-.22,0-1.12,1.18-1.12,.17,0,1.06,.08,1.09,.08h2.72c0-.39-.03-1.12-.03-1.15-.03-.11-.48-.48-.48-.59,0-.14,0-.59,1.4-1.06-1.06,.17-2.58,.34-3.53,.34-1.15,0-1.4-.78-1.4-1.09,0-.92,.98-.9,1.43-.9,.5,.03,.95,.03,1.48,.03,.06-.11,.64-1.65,.67-1.76l-2.97,.03c-.22,0-1.26,.39-1.51,.39-.45,0-.73-.25-.73-.56,0-.5,.45-1.06,1.12-1.06,.14,0,.81,.11,.95,.11h2.35c0-.62-.06-3.61-.06-4.28,0-.28-.03-.36-.28-.53-.11-.08-.22-.2-.22-.31,0-.67,1.6-1.48,2.35-1.48,.28,0,1.01,.17,1.15,.87h3.42c.25-.45,.81-.84,1.29-.84,.59,0,1.79,.64,1.79,1.34,0,.59-1.06,.59-1.26,.59h-5.32c0,.14-.03,.87-.03,1.04h2.58c.25-.34,.76-.62,1.12-.62,.5,0,1.48,.48,1.48,1.04,0,.5-.78,.5-1.23,.5h-3.98v.92h2.74c.17-.31,.7-.59,1.06-.59,.53,0,1.51,.45,1.51,.98,0,.5-.78,.53-1.06,.53h-4.26v.9Zm8.4,10.25c0-.67,1.15-1.2,1.9-1.2,.5,0,1.65,.31,1.65,1.01,0,.5-.34,1.01-.48,1.26-1.62,2.58-1.71,2.72-2.35,3.7,1.43-.03,2.74-.08,4.03-.28-.53-.98-1.18-1.99-1.37-2.24-.14-.2-.2-.28-.2-.45,0-.22,.25-.22,.31-.22,1.6,0,5.71,2.97,5.71,4.93,0,.59-.67,1.37-1.68,1.37-.56,0-1.06-.25-1.37-.64-.17-.2-.7-1.4-.84-1.65-3.84,1.2-7.59,1.48-8.51,1.48-1.51,0-1.76-.67-1.76-1.06,0-.67,.81-1.12,1.29-1.18,.39-.03,1.48-.03,2.18-.03,.22-.62,1.29-3.75,1.54-4.45-.03-.14-.06-.22-.06-.34Zm-4.51,.67c-.25,0-.42-.14-.42-.22,0-.11,.11-.2,.2-.25,.42-.25,1.79-1.34,2.88-2.8,.7-.92,.81-1.06,1.76-1.06,1.04,0,1.57,.56,1.57,1.01,0,1.06-4.68,3.33-5.99,3.33Zm2.86-14.9c1.65-.36,4.03-1.37,5.46-2.32,.31-.45,.53-.81,1.48-.81,.48,0,1.99,.48,1.99,1.18,0,1.15-4.59,2.58-8.2,2.58-.36,0-1.26-.08-1.32-.36,.06-.14,.22-.17,.59-.25Zm1.51,7.59c-.14,0-1.51,0-1.51-.36,0-.08,1.23-.39,1.37-.42,3.11-.78,5.63-2.27,6.69-2.97,1.34-.92,1.37-.95,1.76-.95,.92,0,2.16,.62,2.16,1.4,0,.56-.45,.81-1.29,1.12-2.88,1.48-6.55,2.18-9.18,2.18Zm2.88,1.09c.25-.28,.64-.7,1.2-.7,.62,0,1.43,.56,1.43,1.06,0,.22-.14,.36-.25,.42-.08,.06-.45,.2-.53,.22,.17,.45,.39,.67,1.2,1.54,1.34,1.37,3.16,2.04,4.96,2.69,.42,.17,.78,.28,.78,.39,0,.31-2.52,1.65-3.14,1.65-1.93,0-5.01-3.33-5.57-6.19l-2.32,.25c-.17,.03-1.01,.28-1.2,.28-.56,0-.95-.25-.95-.62,0-.31,.36-.95,1.18-.95,.11,0,.62,.06,.73,.06l2.49-.11Zm-2.3-4.62c-.22,0-1.04-.03-1.09-.28,.03-.14,.06-.11,.87-.42,.34-.11,3-1.12,4.84-2.6,1.23-.98,1.34-1.06,1.82-1.06,.7,0,1.93,.45,1.93,1.26,0,.42-.45,.7-.92,.9-2.27,1.29-5.66,2.21-7.45,2.21Z"/><path class="cls-2" d="M229.31,292.33c.45-1.06,1.57-2.02,2.3-2.02,1.2,0,2.74,1.46,2.74,2.66s-1.23,1.15-2.66,1.15c-1.62,0-9.63-.11-11.45-.11-5.24,0-9.32,.17-9.69,.2-.28,.06-1.68,.45-1.99,.45-.42,0-.9-.25-.9-.78,0-.62,.73-1.88,1.62-1.88,.31,0,1.76,.28,2.1,.28,2.07,.08,2.74,.08,6.97,.08,.06-1.09,.06-1.23,.06-5.18v-1.65c0-2.16-.06-9.46-.25-10-.06-.2-.87-.98-.87-1.23,0-.92,2.58-2.55,3.64-2.55,.03,0,1.32,.03,1.32,1.09,0,.2-.08,1.01-.11,1.2-.11,1.51-.17,5.26-.2,7.08,1.34-.03,2.69-.06,4.7-.17,.42-.95,1.32-1.93,1.99-1.93,1.01,0,2.6,1.32,2.6,2.6,0,1.06-.84,1.06-2.69,1.06h-2.58c-.9,0-2.6,0-4.06,.06v9.6l7.39-.03Z"/><path class="cls-2" d="M244.85,293.2c1.79,0,2.07-1.48,2.07-2.94v-3.72l-7.14,.06c-.67,0-1.04,0-1.4,.08-.28,.08-1.6,.45-1.85,.45-.53,0-1.04-.34-1.04-.9,0-.64,.56-1.62,1.34-1.62,.2,0,1.12,.17,1.29,.17,.34,.06,1.09,.06,1.29,.06,1.18,0,6.47,.06,7.56,.06v-4.12h-4.54c-.92,0-1.34,.03-1.65,.08s-1.62,.45-1.9,.45c-.45,0-.92-.34-.92-.87,0-.7,.64-1.54,1.4-1.54,.2,0,1.06,.2,1.23,.22,.53,.06,1.74,.06,2.38,.06h3.98c0-1.23-.03-2.35-.11-3.5-.95,.14-1.65,.17-3.25,.17-.87,0-5.82-.06-5.82-.98,0-.25,.14-.25,1.37-.34,3.81-.25,7.42-.48,13.27-2.83,.56-1.04,1.48-1.04,1.65-1.04,.92,0,2.63,.84,2.63,2.02,0,.84-.92,1.26-1.88,1.6-1.6,.53-3.16,.87-4.59,1.18-.06,2.07-.08,2.58-.08,3.72,.7,0,3.78-.03,4.42-.03,.39-.87,1.26-1.43,1.93-1.43,.92,0,2.21,1.01,2.21,2.1,0,.81-1.18,.92-1.74,.92h-6.83l.03,4.14c4.09-.03,5.63-.06,7.36-.08,.42-.87,1.54-1.48,2.16-1.48,.98,0,2.3,1.15,2.3,2.27,0,.78-1.01,.95-1.65,.95h-10.14c0,.78,.11,4.17,.11,4.87,0,2.66-1.2,4.34-3.47,4.34-2.52,0-4.48-2.21-4.48-2.49,0-.14,.08-.2,.2-.2,.28,0,1.4,.14,1.62,.14h.67Z"/></g><g><path class="cls-1" d="M63.61,342.98c-.52,0-1.14-.36-1.14-.98,0-.44,.28-.9,.96-.96,.64-.06,1-.1,1.54-.4,.1-.04,.56-.38,.68-.38,.18,0,.18,.1,.18,.2,0,.76-.96,2.52-2.22,2.52Zm14.64-12.42c.12-.32,.6-.64,1.02-.64,.5,0,1.38,.48,1.38,1,0,.14-.14,.42-.18,.5-.04,.88,.06,5.22,.06,6.2,0,.32,0,.56-.44,.8-.34,.2-.7,.28-1.04,.28-.8,0-.8-.14-.8-.66h-5.66c0,.34,0,.44-.32,.64-.22,.16-.74,.26-1.1,.26-.16,0-.56,0-.62-.48-.22,.24-.5,.36-.82,.36-.42,0-.7-.42-.86-.96-.1,.04-.6,.2-.72,.24,0,.92,.08,5.46,.08,6.48s-.98,1.46-1.5,1.46c-.48,0-.8-.28-.8-.68,0-.48,.18-2.86,.2-3.4,.04-.98,.08-2.24,.12-3.34-.44,.1-1.78,.4-2.46,.4-.54,0-.88-.36-.88-.86,0-.4,.38-.82,.82-.84,.18,0,1.12,.02,1.32,.02,.24-.3,.46-.56,1.08-1.44-.64-.18-1.26-.34-1.92-.48-.5-.1-.76-.44-.76-.76,0-.22,.14-.68,.9-.98,1.18-1.92,1.64-3,1.86-3.52-.04-.22-.04-.44-.04-.46,0-.6,1.08-.76,1.48-.76,.6,0,1.36,.36,1.36,.84,0,.36-.22,.68-.5,1.06-.64,.86-1.54,1.96-2.76,3.4,.28,.2,.78,.58,1,.74,.86-1.36,.96-1.52,1.1-1.82v-.26c0-.42,.9-.7,1.28-.7,.5,0,1.16,.36,1.16,.82,0,.18-.12,.42-.22,.56-.4,.58-2.72,3.16-3.22,3.76,.6,0,.88-.02,1.78-.04-.1-.18-.62-1.04-.62-1.06,0-.16,.16-.16,.24-.16,.76,0,1.74,.5,2.32,1.12,.06-2.26,.1-4.08,.1-5.94-.04-.06-.14-.24-.14-.28,0-.34,.82-.92,1.42-.92,.2,0,.68,.08,.74,.5h1.04c.06-.28,.36-1.66,.44-1.98,.14-.54,.58-.82,1.12-.82s1.38,.38,1.38,1.02c0,.34-.2,.56-.3,.66-.16,.18-1,.94-1.18,1.12h3.06Zm-8.82,8.64c.3,0,.62,.12,.72,.4,.08,.2,.42,1.22,.52,1.44,.04,.12,.4,.7,.4,.86,0,.2-.22,.28-.4,.28-.52,0-2.02-1.08-2.16-2.16,.04-.54,.6-.82,.92-.82Zm.78,5.72c-.7,0-1.12-.52-1.12-.88,0-.6,.46-.78,.88-.94,.36-.12,1.1-.42,1.66-1.12,.3-.38,.34-.42,.48-.42,.26,0,.28,.2,.28,.24,0,2.38-1.36,3.12-2.18,3.12Zm11.64-2.66c.22,0,.28,.18,.28,.28,0,.3-.5,1.52-.78,2.1-.6,1.24-1.5,1.38-2.5,1.38-2,0-5.02-.52-5.76-1.46-.36-.46-.38-.7-.38-3.1,0-.02,0-.6-.02-.76-.02-.12-.3-.58-.3-.7,0-.56,1-1.26,1.66-1.26s.72,.48,.72,.78c0,.12-.08,.72-.1,.86-.04,.42-.14,1.56-.14,2.6,0,.56,0,1.06,1.98,1.06,2.52,0,3.42-.6,4.76-1.48,0-.02,.3-.22,.36-.24s.14-.06,.22-.06Zm-8-9.52c.14-.28,.44-.92,.6-1.3h-1.66c-.18,0-.22,.18-.22,.32v2.22c0,.18,0,.4,.02,.58,.46-.42,.98-1.28,1.26-1.82Zm4.48,4.4v-5.7h-2.32c.08,.06,.14,.16,.14,.28,0,.34-.38,.8-.52,.94h.86c.08-.2,.46-.38,.72-.38,.36,0,.92,.36,.92,.74,0,.16-.1,.74-1.08,1.98,.36,.28,1.04,.92,1.04,1.3,0,.22-.2,.36-.4,.36-.1,0-.22-.04-.28-.08-.2-.12-1.14-.68-1.36-.8-.92,.74-2.26,1.04-3.46,1.08v.28h5.74Zm-5.74-.76c1.08-.42,1.66-.76,2.24-1.36-.18-.06-.38-.1-.54-.14-.08-.02-.28-.06-.28-.28,0-.28,.5-.66,.9-.66,.22,0,.64,.24,.8,.34,.2-.36,.34-.66,.4-.94h-1.06c-.5,.6-1.74,1.52-2.46,1.52v1.52Zm2.86,6.02c-.08,0-.42-.04-.42-.36,0-.14,.16-1.72,.26-2.34,.1-.56,.54-.86,1.1-.86,.6,0,1.18,.42,1.18,.88,0,.56-1.38,2.68-2.12,2.68Zm2.26,.06c-.06,0-.4,0-.4-.34,0-.32,.6-2.18,.7-2.38,.18-.42,.48-.66,1.02-.66,.72,0,1.3,.5,1.3,1,0,.76-1.88,2.38-2.62,2.38Z"/><path class="cls-1" d="M88.49,337.56c-1.58,0-3.2,0-4.12,.12-.18,.02-.9,.26-1.06,.26-.28,0-.64-.14-.64-.48,0-.42,.5-.98,.9-.98,.08,0,.18,.02,.56,.1,.12,.02,.64,.02,.8,.02,1.96,0,5.58,0,7.04-.04,.36-.64,.72-.76,.92-.76,.52,0,1.26,.64,1.26,1.24,0,.52-.3,.52-.76,.52h-4.9Zm2.68-5.84c.3-.56,.72-.72,.96-.72,.5,0,1.26,.58,1.26,1.16,0,.48-.62,.48-.8,.48h-2.32c-.4,0-3.68,.06-4.4,.1-.18,.02-.92,.2-1.06,.2-.32,0-.68-.16-.68-.5,0-.46,.52-.88,.96-.88,.12,0,.64,.16,.74,.16h1.84c0-.68,0-1.42-.2-1.6-.3-.28-.32-.28-.32-.42,0-.58,1.52-1.14,2.12-1.14,.36,0,.88,.18,.88,.7,0,.08-.1,.4-.12,.46-.04,.18-.14,.78-.18,2h1.32Zm-3.92,12.44v.46c0,.5-1.04,.9-1.48,.9-.66,0-.72-.56-.72-.84,0-.66,.16-3.62,.16-4.22,0-.28,0-.3-.24-.62-.04-.04-.06-.08-.06-.14,0-.48,1.14-1.06,1.6-1.06,.18,0,.64,.1,.78,.52h2.86c.2-.42,.7-.66,.98-.66,.5,0,1.48,.58,1.48,1.14,0,.04-.18,.34-.2,.4-.04,.06-.04,.08-.04,.3,0,.56,.1,3.06,.1,3.64,0,.82-1.06,1.1-1.58,1.1-.84,0-.86-.34-.86-.92h-2.78Zm.38-7.68c-.64,0-2.24-1.88-2.24-2.42,0-.4,.78-.76,1.36-.76,.48,0,.76,.26,.9,.52,.18,.38,.42,1.84,.42,2.28,0,.38-.38,.38-.44,.38Zm2.46,3.54c-.42,0-2.56-.02-2.64-.02-.16,.02-.22,.14-.22,.28v2.96h2.86v-3.22Zm-.26-3.54c-.06,0-.44,0-.44-.4s.32-1.94,.44-2.28c.1-.34,.42-.6,.94-.6,.6,0,1.3,.38,1.3,1.04,0,.5-1.66,2.24-2.24,2.24Zm6.64-5.28v1.74c0,2.54,0,5.06,.04,7.34,.02,.72,.12,3.88,.12,4.52,0,1.4-1.42,1.52-1.5,1.52-.06,0-.98,0-.98-.82,0-.28,.1-1.56,.12-1.82,.14-3.84,.14-8.1,.14-9.32,0-2.66-.02-2.72-.34-3.04-.06-.06-.12-.16-.12-.26,0-.6,1.08-1.4,1.66-1.4,.1,0,.82,.04,.9,.54h1.86c.44-.6,.88-.68,1.06-.68,.6,0,1.64,.68,1.64,1.34,0,.22-.18,.38-.46,.68-.4,.4-1.92,2.9-1.92,3.26,0,.12,.02,.14,.46,.5,.76,.62,2.62,2.14,2.62,4.22,0,2.54-2.26,2.58-2.56,2.58-.88,0-2.6-1.24-2.6-1.46,0-.04,.06-.1,.1-.1,.18,0,.94,.1,1.1,.1,1.06,0,1.48-.38,1.48-1.66,0-1.64-.9-2.58-1.5-3.14-.62-.56-.7-.62-.7-.78,0-.06,.74-3.3,.86-3.86h-1.48Z"/><path class="cls-1" d="M116.03,340.38v2.8c2.56,1.14,4.28,1.14,6.16,1.14,.16,0,.22,.02,.22,.18,0,.22-2.02,1.76-3.14,1.76-1.06,0-3.14-1.14-4.4-1.92-.46-.28-2.56-1.86-3.06-2.18-1.06,1.86-2.86,3.14-4.4,3.14-.1,0-.14-.06-.14-.14s.32-.3,.46-.38c1.28-.9,2.84-3.32,3-5.56-.02-.04-.12-.24-.12-.28,0-.38,.96-.82,1.4-.82,.32,0,.98,.22,.98,.72,0,.3-.24,1.42-.66,2.52,.36,.2,1,.58,1.6,.98,.04-1.6,.04-2.54,.04-3.92,0-.14,0-.68-.04-1.06h-2.62c-.24,0-.38,0-.56,.08-.68,.28-.76,.32-1,.32-.08,0-.7,0-.7-.52-.34,.28-.98,.64-1.32,.92,.04,1.34,.1,3.32,.1,4.1,0,1.18,0,3.56-2.36,3.56-1.42,0-2.6-1.34-2.6-1.48,0-.08,.14-.08,.18-.08,.2,0,1.16,.1,1.38,.1,.78,0,1.18-.6,1.2-2.4l.04-3.06c-.4,.16-1.62,.64-1.94,.64-.48,0-1.14-.34-1.14-.92,0-.24,.16-.64,.54-.86,.12-.06,2.22-.4,2.52-.46l-.04-3.34h-.9c-.18,0-1,.28-1.2,.28-.24,0-.54-.14-.54-.44,0-.36,.32-.86,.94-.86,.1,0,.56,.1,.66,.1l1.02-.02c-.02-.7-.06-2.24-.1-2.34-.02-.1-.08-.16-.14-.22-.3-.2-.32-.22-.32-.36,0-.58,1-1.4,1.82-1.4,.98,0,.98,.66,.98,.84,0,.04-.06,.94-.06,1.06-.02,.3-.04,1.62-.04,2.42h.54c.2-.4,.56-.64,.84-.64,.54,0,1.16,.68,1.16,1.16,0,.42-.52,.42-.66,.42h-1.88v3.06c.24-.04,1.32-.26,1.5-.26,.1-.14,.26-.38,.72-.38,.1,0,.58,.1,.7,.1h8.02c.28-.5,.76-.86,1.18-.86,.52,0,1.52,.6,1.52,1.22,0,.5-.62,.52-.9,.52h-4.34c0,.06-.04,.38-.06,.44,0,.06-.04,1.6-.04,1.68h1.54c.2-.5,.74-.78,1.08-.78,.52,0,1.42,.58,1.42,1.2,0,.46-.64,.48-1,.48h-3.04Zm.5-11c.16-.38,.64-.68,.94-.68,.5,0,1.48,.5,1.48,1.06,0,.06-.14,.32-.18,.38-.06,.42,.06,3.68,.06,4.36,0,.8-.94,1.1-1.58,1.1-.38,0-.8-.02-.76-.72h-3.44c-.04,.72-.64,1.06-1.3,1.06-.84,0-.84-.4-.84-1.36,0-.5,.08-2.98,.08-3.54,0-.12,0-.82-.02-.84-.2-.18-.26-.22-.26-.34,0-.5,.9-1.1,1.5-1.1,.42,0,.84,.18,.92,.62h3.4Zm0,2.36v-1.56h-3.06c-.4,0-.44,0-.44,.18v1.38h3.5Zm0,2.36v-1.56h-3.5v1.56h3.5Z"/><path class="cls-1" d="M122.95,334.91c-.08,0-.32-.02-.32-.16,0-.06,.18-.18,.34-.28,1.98-1.28,3.9-3.54,4.52-4.6,.26-.94,1-.94,1.14-.94,.64,0,1.36,.4,1.36,1.02,0,.28-.06,.36-.42,.86-.42,.6-1.2,1.42-1.8,2.02-.02,.74,.02,6.9,.02,8.2,0,1.04,0,3.4-.02,3.46-.16,.6-.94,1.22-1.6,1.22-.08,0-.86,0-.86-.78,0-.34,.12-1.76,.14-2.04,.16-3.64,.26-5.72,.3-8.9-.96,.58-2.2,.92-2.8,.92Zm8.64-.6h-1.04c-.18,0-.96,.26-1.12,.26-.06,0-.7,0-.7-.46,0-.42,.36-.96,.94-.96,.12,0,.6,.14,.7,.14h1.2c0-1.94,0-2.16-.04-2.8-.04-.08-.34-.36-.34-.44,0-.52,1.2-1.28,1.86-1.28,.42,0,.82,.16,.82,.62,0,.14-.02,.32-.04,.44-.08,.44-.1,2.78-.12,3.46h1.62v-2.1c0-.32,0-.92-.02-1.28-.06-.06-.12-.12-.22-.2-.08-.06-.12-.1-.12-.2,0-.62,1.16-1.22,1.84-1.22,.1,0,.94,.02,.94,.7,0,.06-.08,.54-.1,.66-.1,.64-.12,2.9-.12,3.64h.92c.34-.52,.74-.8,1.08-.8,.62,0,1.36,.66,1.36,1.3,0,.3-.32,.52-.76,.52h-2.62c-.04,3.32-.04,3.44-.04,4.82h2.12c.14-.48,.82-.98,1.2-.98,.6,0,1.48,.88,1.48,1.48,0,.54-.94,.54-1.26,.54h-11c-.2,0-1.1,.3-1.28,.3-.24,0-.6-.14-.6-.52,0-.34,.22-.94,.92-.94,.12,0,.68,.12,.8,.12h1.74v-4.82Zm1.1,7.46s.18-.22,.32-.22c.12,0,.2,.04,.2,.5,0,2.02-1.88,3.34-3.4,3.34-.58,0-1.18-.42-1.18-1.02,0-.1,0-.86,1.1-1.06,.84-.16,1.4-.26,2.16-.74,.12-.1,.68-.56,.8-.8Zm2.64-7.46h-1.64c-.02,1.52-.02,3.08-.02,4.24v.58h1.66v-4.82Zm5.24,10.32c0,.6-.56,1.14-1.18,1.14-.74,0-1.1-.48-2.1-1.96-.26-.38-2.1-2.46-2.18-2.54,0-.08,.08-.14,.26-.14,.12,0,.24,0,.34,.02,3.12,.72,4.86,2.5,4.86,3.48Z"/><path class="cls-1" d="M145.03,337.56c-1.18,0-2.02-.48-2.02-1.28,0-.74,.82-1.16,1.32-1.16,.96,0,3.88,1.26,3.88,1.9,0,.24-.32,.34-.94,.46-.4,.08-.58,.08-2.24,.08Zm3.28,3.5c0,.06-.04,.2-.04,.22-.14,.48-2.34,3.4-3.6,3.4-.4,0-1.28-.18-1.28-1,0-.22,.08-.72,.5-1.02,.26-.18,3.48-1.58,4.04-1.82,.08-.08,.38,.04,.38,.22Zm-.7-8.56c-.44,0-3.36-.36-3.36-1.64,0-.78,.82-1.12,1.34-1.12,1.06,0,2.72,1.74,2.72,2.44,0,.28-.54,.32-.7,.32Zm6.52,6.78c.68,0,3.98-.02,4.72-.02,.18-.26,.56-.7,.9-.7,.46,0,1.42,.48,1.42,1.06,0,.38-.48,.44-.58,.44-.32,.04-4.42,0-5.24,0,.18,.58,.46,1.06,1.04,1.84,.46-.5,1.54-1.66,2.5-1.66,.44,0,.9,.44,.9,.9,0,.88-2.18,1.26-2.84,1.36,1.12,1.12,3.14,1.98,4.78,2.4,.4,.1,.54,.14,.54,.24s-.24,.22-1.28,.76c-1.06,.54-1.38,.54-1.56,.54-.58,0-1.62-.74-1.82-.9-2.58-2.08-3.08-4.24-3.34-5.48h-.48c-.02,1.1-.04,1.96-.08,4.18,.32-.02,1.9-.22,2-.22,.06,0,.24,0,.24,.14,0,.48-3.28,1.88-5.12,1.88-.54,0-1.1-.32-1.1-.84,0-.12,.02-.46,.36-.62,.2-.1,.34-.1,1.62-.16,.02-.68,.08-1.92,.08-4.36-.18,.02-.54,.02-.66,.02-.32,4.64-3.8,5.66-4.16,5.66-.06,0-.22-.02-.22-.16,0-.06,.82-.84,.96-1,1.44-1.72,1.44-4.3,1.44-6.8,0-.18,0-.76-.08-.82-.28-.24-.3-.26-.3-.36,0-.44,1.04-1.14,1.6-1.14,.18,0,.78,.06,.84,.52h7.4c.64-.58,.74-.66,1.08-.66,.52,0,1.32,.52,1.32,1.1,0,.44-.66,.44-1,.44h-8.78c-.02,1.34-.04,1.7-.06,2.42h2.96Zm3.36-9.1c.32-.44,.78-.62,1.04-.62,.48,0,1.32,.54,1.32,1.04,0,.1-.04,.18-.1,.24-.02,.04-.14,.2-.16,.24,0,.38,0,.76,.02,1.14,0,.28,.1,1.58,.1,1.88,0,.6,0,.72-.56,1-.26,.14-.64,.26-.96,.26-.72,0-.74-.34-.74-.58h-6c-.04,.46-.96,.56-1.18,.56-.84,0-.84-.34-.84-.58,0-.48,.1-2.88,.1-3.42,0-.14,0-.26-.16-.42-.12-.12-.16-.16-.16-.24,0-.36,1.02-1,1.48-1,.34,0,.66,.18,.76,.5h.84v-.72c0-.08-.3-.36-.3-.44,0-.44,.98-1,1.54-1,.1,0,.76,.02,.76,.58,0,.1-.02,.18-.02,.24-.06,.28-.06,.4-.08,1.34h.7v-.96c0-.08-.26-.42-.26-.5,0-.44,1.02-.9,1.58-.9,.22,0,.68,.08,.68,.6,0,.08-.02,.24-.02,.3-.04,.22-.08,1.24-.1,1.46h.72Zm-5.2,3.84v-1.12h-.8v1.12h.8Zm0-1.88v-1.12h-.78v1.12h.78Zm4.52,5.54c.08-.16,.28-.5,.78-.5s1.12,.42,1.12,.92c0,.4-.42,.44-.72,.44-.42,0-2.52-.02-3-.02h-1.28c-.2,0-1.14,.28-1.36,.28-.24,0-.58-.12-.58-.44,0-.34,.28-.78,.88-.78,.06,0,.44,.1,.52,.1h3.64Zm-1.92-3.66v-1.12h-.76c0,.16-.02,.94-.02,1.12h.78Zm0-1.88v-1.12h-.74c0,.16-.02,.94-.02,1.12h.76Zm2.6,0v-1.12h-.74c0,.16-.02,.94-.02,1.12h.76Zm0,1.88v-1.12h-.76v1.12h.76Z"/><path class="cls-1" d="M165.65,340.16c.18,0,.18,.14,.18,.22,0,.58-.92,2.52-2.2,2.52-.5,0-1.12-.38-1.12-1.02,0-.96,.68-.98,1.18-.98,.94-.02,1.34-.34,1.7-.6,.04-.04,.16-.14,.26-.14Zm5.3-3.7c-.36,.18-.88,.38-1.26,.5,.14,.14,.44,.46,.44,.94,0,.64-.56,1.04-.92,1.04-.48,0-.72,0-.96-.92l-.32,.08v1.96c0,.7,.08,4.3,.08,4.38,0,.94-.9,1.42-1.5,1.42-.54,0-.78-.34-.78-.66,0-.04,.12-1.8,.12-1.98,.02-.08,.12-1.86,.18-4.76-.94,.18-1.76,.34-2.3,.34-.76,0-.96-.54-.96-.84,0-.52,.5-.88,.84-.88,.1,0,.98,.04,1.1,.04,.74-1.04,.82-1.16,.92-1.34,.02-.02,.06-.1,.06-.12-1.48-.28-1.64-.3-1.78-.36-.16-.08-.5-.3-.5-.7,0-.14,.06-.66,.64-.96,.84-1.38,1.52-2.92,1.86-3.74v-.22c0-.74,.82-1.02,1.44-1.02,.52,0,1.28,.4,1.28,.94,0,.06,.02,.36-.22,.68l-2.8,3.76,.72,.56c.52-.96,.58-1.06,.76-1.44-.2-.78,1.04-.94,1.2-.94,.44,0,1.18,.28,1.18,.76,0,.2-.12,.42-.22,.54-.92,1.24-1.82,2.48-2.78,3.68,.3,0,1.02,0,1.46,.02-.14-.34-.26-.56-.38-.78-.04-.04-.1-.14-.1-.18,0-.12,.1-.16,.24-.16,.38,0,1.04,.26,1.5,.5,1.14-.98,2.26-2.4,2.72-2.98,.46-.62,.58-.78,.96-.78,.44,0,1.24,.36,1.24,.86,0,.34-.04,.36-1.28,1.58,0,.46-.06,7.8-.06,8.2,0,.88,0,1.72-.02,1.78-.16,.56-.7,.96-1.32,.96-.78,0-.82-.52-.82-.74,0-.16,.04-.76,.06-.94,.08-.78,.1-1.6,.12-2.44l.16-5.64Zm-.42,5.84c0,.12,0,.28-.36,.28-.66,0-2.12-1.38-2.12-2.2,0-.44,.46-.8,.88-.8,.2,0,.56,.1,.7,.48,.36,1.08,.6,1.62,.76,1.9,0,.02,.14,.32,.14,.34Zm1.16-10.38c-.1,.7-.3,1.4-.52,2.08-.08,.24-.18,.5-.64,.5-.32,0-.44-.22-.52-.36-.1-.34-.62-2.16-.62-2.46,0-.64,.54-1.16,1.22-1.16,.26,0,.78,.14,.96,.44h2.7c-.02-.44-.08-1.14-.1-1.32-.44-.28-.5-.32-.5-.5,0-.68,1.52-1.24,2.22-1.24,.14,0,1,.06,1,.82,0,.04-.06,.44-.08,.52-.06,.4-.12,.92-.18,1.72h2.52c.2-.3,.68-.64,1.14-.64,.74,0,1.46,.54,1.46,1.16,0,.5-1.06,2.06-1.32,2.38-.14,.18-.32,.4-.72,.4h-.12c-.34-.06-.5-.34-.5-.68,0-.9,0-1.3,.02-1.66h-7.42Zm6.96,5.98c.34-.6,.86-.6,.98-.6,.56,0,1.34,.44,1.34,.94,0,.08-.02,.12-.08,.24-.04,.2-.06,.3-.06,.9,0,.78,.08,4.2,.08,4.9,0,.64,0,.88-.56,1.18-.32,.18-.76,.24-1,.24-.78,0-.78-.36-.78-.56v-.5h-2.72v.44c0,.52-.88,.88-1.32,.88-.32,0-.72-.14-.72-.54,0-.98,.14-5.28,.14-6.16,0-.32-.02-.4-.16-.56-.08-.08-.1-.14-.1-.2,0-.46,.82-1.12,1.28-1.12,.02,0,.52,0,.8,.4,.14-.82,.28-1.58,.38-1.96h-1.66c-.14,0-.7,.18-.82,.18-.2,0-.56-.04-.56-.44,0-.3,.2-.78,.76-.78,.1,0,.54,.08,.64,.08h5.28c.16-.26,.6-.62,.92-.62,.52,0,1.3,.52,1.3,1.12,0,.38-.46,.46-.7,.46h-3.22c.16,.16,.22,.26,.22,.42,0,.28-.08,.5-1.28,1.66h1.62Zm-.04,.78h-2.76v1.98h2.76v-1.98Zm0,2.84h-2.76v.62c0,.26,.02,1.36,.02,1.58h2.74v-2.2Z"/><path class="cls-1" d="M185.63,337.08c-.84,0-2.68-.08-2.68-1.26,0-.7,.72-1.16,1.18-1.16,.76,0,3.88,1.08,3.88,1.92,0,.38-1.58,.5-2.38,.5Zm-1.9,6.56c0-.2,0-.8,.9-1.14,.76-.28,3.18-.94,3.6-.94,.08,0,.34,.02,.34,.2,0,.4-2.4,2.86-3.7,2.86-.4,0-1.14-.42-1.14-.98Zm4.66-11.18c-.2,0-3.58-.46-3.58-1.8,0-.7,.68-1.24,1.32-1.24,1.18,0,2.66,2.04,2.66,2.7,0,.24-.16,.34-.4,.34Zm9.7,5.92c.32-.46,.86-.56,1.1-.56,.6,0,1.22,.48,1.22,1.06,0,.1-.24,.52-.26,.6-.04,.24-.08,1.32-.1,1.56-.18,2.28-.4,4.98-3,4.98-1.36,0-2.6-1.66-2.6-1.74,0-.02,0-.1,.12-.12l.08,.02c.46,.16,1.06,.22,1.3,.22,1.12,0,1.44-.9,1.64-1.56,.42-1.5,.44-3.16,.44-3.38,0-.34-.04-.34-.5-.34-.04,.76-.64,1.8-1.06,2.44-2.84,4.34-6.96,4.36-7.02,4.36-.08,0-.32,0-.32-.18,0-.1,.32-.26,.72-.44,4.36-1.94,5.56-5.78,5.56-6.04,0-.1,0-.12-.04-.14h-.38c-2.02,3.6-5.52,4.98-6.82,4.98-.22,0-.38-.06-.38-.2,0-.12,.04-.16,.9-.62,2.58-1.42,3.78-3.4,4.06-4.16h-.46c-1.24,1.22-3.14,1.9-4.1,1.9-.06,0-.48,0-.48-.16,0-.06,.6-.42,.74-.5,1.02-.6,2.98-2.28,3.18-3.2-.26,0-1.12,0-1.28,.02-.24,.02-1.18,.36-1.38,.36-.26,0-.6-.2-.6-.52,0-.36,.34-.96,.86-.96,.12,0,.6,.14,.7,.16,.1,.02,.38,.02,.44,.02,1.22,.06,8.44,0,9-.02,.24-.5,.82-.86,1.14-.86,.48,0,1.42,.62,1.42,1.26,0,.58-.78,.58-1.04,.58h-1.12c-.82,0-4.24,0-5.34-.04-.12,0-.46-.02-.7-.02,.14,.04,.2,.12,.2,.2,0,.32-.38,.72-.9,1.04h5.06Zm.1-7.8c0,.58,.1,3.18,.1,3.7,0,1.02-1.1,1.24-1.52,1.24-.86,0-.86-.42-.88-.68h-3.14c-.04,.58-.78,.82-1.3,.82-.46,0-.86-.2-.86-.72s.06-2.78,.06-3.24v-1.12c0-.14-.02-.16-.24-.44-.06-.08-.1-.18-.1-.28,0-.48,1.3-1.24,1.72-1.24,.18,0,.62,.12,.74,.58h3.14c.42-.64,1.2-.7,1.38-.7,.66,0,1.1,.42,1.1,.98,0,.24-.14,.52-.2,.64v.46Zm-2.24-.44h-3.12c-.12,0-.12,.2-.12,.34v1.1h3.24v-1.44Zm0,2.32h-3.24c.02,.46,.02,.84,.02,1.46h3.22v-1.46Z"/><path class="cls-1" d="M217.89,332.09c-1.48,0-8.74-.02-10.38-.02v1.38c0,4.02,0,6.94-1.74,9.22-1.04,1.36-2.36,1.98-2.78,1.98-.12,0-.18-.04-.18-.16,0-.08,.62-.78,.74-.94,1.58-2.22,1.74-4.68,1.74-8.38v-2.24c0-.22,0-.44-.04-.6-.02-.1-.4-.52-.4-.64,0-.56,1.18-1.28,1.8-1.28,.22,0,.82,.1,.88,.64h3.78c0-.2-.06-1.24-.08-1.48-.34-.24-.46-.36-.46-.5,0-.62,1.32-1.28,2.08-1.28,.08,0,.98,0,.98,.9,0,.06-.06,.44-.06,.54-.04,.26-.16,1.54-.18,1.82h3.6c.28-.6,.92-.92,1.36-.92,.66,0,1.62,.68,1.62,1.36,0,.4-.38,.6-.88,.6h-1.4Zm-4.02,11.96c.16-.42,.56-.74,.9-.74,.54,0,1.46,.7,1.46,1.28,0,.46-.74,.46-.98,.46h-6.34c-.2,0-1.14,.24-1.34,.24-.3,0-.66-.08-.66-.46,0-.44,.54-.92,1-.92,.1,0,.62,.14,.74,.14h5.22Zm1.5-6.14c.74,2.88,2.66,4.68,4.06,4.68,.5,0,.9-.24,1.38-.92,.1-.12,.22-.28,.3-.28,.16,0,.16,.06,.16,.62,0,2.42-.56,2.92-1.86,2.92-2.4,0-5.28-2.9-6.12-7.02h-2.36l-.04,3.4c.96-.12,2.34-.3,2.64-.36,.2-.04,.28-.06,.38-.06,.22,0,.32,.08,.32,.2,0,.54-3.4,2.08-5.98,2.08-1,0-1.06-.68-1.06-.84,0-.76,.7-.82,.88-.82,.44,0,.76-.06,.78-.06v-6.04c0-.18-.02-.2-.2-.46-.04-.06-.08-.18-.08-.26,0-.42,1.1-.98,1.6-.98,.4,0,.68,.2,.8,.56,2.06-.48,3.98-1.16,4.52-1.42,.4-.38,.88-.38,.94-.38,.52,0,1.32,.5,1.32,1.06,0,.62-.72,.76-1.34,.86-.1,.02-1.4,.24-1.46,.26v.5c0,.5,.04,.8,.18,1.86h2.26c.24-.58,.74-.94,1.16-.94,.58,0,1.54,.68,1.54,1.3,0,.54-.86,.54-1.14,.54h-3.58Zm-2.38-.9c-.04-.24-.28-2.06-.3-2.22-.52,.08-1.18,.16-1.7,.18,0,.62-.02,1.44-.04,2.04h2.04Z"/><path class="cls-1" d="M73.69,362.07c.18,.94,.72,3.66,3.52,6.28,.68,.62,1.96,1.7,3.88,2.6,.74,.34,.76,.36,.76,.44,0,.22-1.9,1-2.28,1.14-.76,.3-1.06,.34-1.3,.34-.84,0-1.92-1.22-2.12-1.46-2.8-3.18-3.02-6.44-3.08-9.18h-.04v.2c0,1.48-.46,5.52-3.1,7.78-2.42,2.08-5.56,2.3-5.86,2.3-.18,0-.44,0-.44-.2,0-.18,.2-.26,.66-.4,.16-.08,.96-.44,1.12-.52,4.82-2.66,5.18-7.22,5.34-9.3l-3.6,.02-.78,.06c-.24,.02-1.32,.44-1.58,.44-.34,0-.74-.24-.74-.64,0-.5,.38-1.22,1.18-1.22,.16,0,.96,.16,1.14,.16h4.46l-.04-3.08c0-.16-.04-.36-.16-.52-.28-.42-.32-.48-.32-.64,0-.5,1.48-1.44,2.24-1.44,.2,0,1.1,0,1.1,.94,0,.14-.02,.18-.06,.4-.08,.32-.18,3.78-.2,4.34h4.5c.28-.64,.84-1.16,1.34-1.16,.64,0,1.82,.86,1.82,1.62,0,.66-.92,.68-1.32,.68l-6.04,.02Z"/><path class="cls-1" d="M88.63,359.87c.36-.42,.78-.62,1.12-.62,.52,0,1.02,.44,1.02,.92,0,.08-.14,.42-.16,.5-.02,.1,.02,3.18,.02,3.66l.02,1.02v1.12c0,.46-.1,1.56-1.2,1.56-.56,0-1.12-.54-1.4-1.08,.04,1.46,.08,2.9,.08,4.36,0,1.72-1.4,1.72-1.48,1.72-.42,0-.84-.2-.84-.8,0-.28,.18-3.5,.2-4.16,.06-1.2,.08-2.96,.12-7.32h-.34c-.12,0-.14,.16-.14,.24-.04,.24-.04,1.48-.04,1.82,0,.56-.06,3.36-.06,3.98,0,.98-.54,1.52-1.34,1.52s-.78-.6-.78-.88c0-.06,.18-3.34,.2-3.56,.04-1.06,.06-2.42,.06-2.56,0-.26,0-.32-.1-.42-.22-.26-.22-.28-.22-.38,0-.44,1-1.04,1.5-1.04,.26,0,.76,.1,.82,.4h.44c-.02-1.16-.08-2.4-.1-2.5s-.36-.54-.36-.64c0-.44,1.12-1.24,1.74-1.24,.22,0,.88,0,.88,.62,0,.1-.06,.58-.08,.68-.06,.54-.14,1.52-.14,3.08h.56Zm-.58,.88c-.02,2.56-.02,5.24,0,6.04,.04,0,.28,.04,.34,.04,.3,0,.3-.38,.3-1.14v-4.94h-.64Zm7.24-3.6c.52,0,3.08,.02,3.66,.02,.2-.42,.7-.84,1.14-.84,.6,0,1.44,.7,1.44,1.32,0,.56-.9,.56-1.28,.56-.72,0-4.16-.04-4.94-.04h-2.56c-.26,0-.52,0-.72,.04-.16,.04-.92,.3-1.1,.3-.36,0-.66-.18-.66-.52,0-.42,.42-.92,.92-.92,.1,0,.6,.08,.72,.08h3.38Zm3.4,7.68c.28-.44,.64-.56,.88-.56,.46,0,1.36,.52,1.36,1,0,.1-.04,.2-.06,.26-.12,.3-.14,.32-.14,.6,0,.76,.1,5.1,.1,5.26,0,.32,0,.52-.32,.7-.4,.2-.88,.3-1.24,.3-.72,0-.72-.2-.72-.88h-5.28v.28c0,.66-.88,.9-1.32,.9-.84,0-.84-.36-.84-.78,0-.8,.14-4.82,.14-5.72,0-.22-.02-.26-.1-.38-.1-.16-.16-.24-.16-.32,0-.42,.92-1.06,1.52-1.06,.32,0,.7,.1,.76,.4h5.42Zm-1.02-5.24c.28-.36,.6-.52,.86-.52,.48,0,1.28,.38,1.28,.86,0,.1-.12,.58-.12,.7,0,.32,.04,1.92,.04,2.28,0,.6-.92,.78-1.4,.78-.78,0-.8-.4-.82-.62h-3.36c-.1,.46-1.16,.7-1.42,.7-.4,0-.7-.22-.7-.64,0-.36,.04-2.04,.04-2.44,0-.14,0-.18-.14-.3-.06-.04-.12-.1-.12-.2,0-.46,1.06-1.06,1.58-1.06,.04,0,.6,.02,.74,.46h3.54Zm-2.84,8.02v-1.94h-1.32c-.1,0-.28,0-.28,.18v1.76h1.6Zm0,3.04v-2.24h-1.6l.02,2.24h1.58Zm2.72-8.44v-1.78h-2.9c-.56,0-.56,.06-.56,.4,0,.2,.04,1.16,.04,1.38h3.42Zm1.02,5.4v-1.94h-1.78v1.94h1.78Zm0,3.04v-2.24h-1.78v2.24h1.78Z"/><path class="cls-1" d="M107.27,366.5c0,.86,0,2.22-.02,3.12,1.1-.14,1.16-.14,2.3-.3-.18-.28-1.22-1.66-1.22-1.68,0-.06,.08-.14,.24-.14,.02,0,.42,.06,.44,.06,2.04,.5,3.48,1.8,3.48,2.96,0,.74-.62,1.06-1.06,1.06-.4,0-.64-.3-.86-.62-.1-.14-.52-.82-.64-.96-3.18,1.56-5,1.64-5.48,1.64-.6,0-1.18-.34-1.18-.96,0-.74,.62-.86,1.28-.88,.5-.02,.56-.02,.78-.04v-6.18c0-.28,0-1.18-.14-1.3-.18-.2-.26-.26-.26-.38,0-.54,1.06-1.2,1.66-1.2,.1,0,.6,0,.78,.5h2.64c.22-.26,.5-.6,.86-.6,.42,0,1.42,.52,1.42,1.02,0,.1-.02,.14-.16,.44-.06,.12-.06,.2-.06,.42,0,.52,.06,3.02,.06,3.58,0,.76-.84,1.08-1.44,1.08-.7,0-.72-.42-.72-.64h-2.7Zm3.12-9.26c.26-.4,.64-.64,.96-.64,.4,0,1.16,.58,1.16,1.04,0,.56-.6,.56-.76,.56h-4.14c-1.14,1.48-3.06,2.66-4.06,2.66-.08,0-.24-.02-.24-.16,0-.08,.04-.12,.4-.48,1.04-1.04,2.56-3.06,2.76-4.24-.02-.08-.04-.2-.04-.26,0-.44,.94-.66,1.36-.66,.3,0,1.24,.08,1.24,.76,0,.38-.4,1-.76,1.42h2.12Zm-.4,8.38v-1.38h-2.68c-.02,.12-.02,.2-.02,.52v.86h2.7Zm0-2.2v-1.32h-2.5c-.08,0-.18,.16-.18,.22v1.1h2.68Zm-.68-2.52c-.68,0-1.06-1.46-1.06-1.96,0-.58,.86-.68,1.06-.68,.5,0,1.1,.2,1.1,.76s-.4,1.88-1.1,1.88Zm9.44-3.66c.24-.34,.62-.82,1.06-.82,.7,0,1.46,.68,1.46,1.2s-.64,.58-1,.58h-5.62c-.84,1-2.38,2.16-3.38,2.16-.06,0-.22,0-.22-.16,0-.04,.42-.54,.44-.56,.58-.68,1.98-2.6,2.18-3.76-.06-.08-.08-.24-.08-.3,0-.5,1-.78,1.34-.78,.5,0,1.28,.26,1.28,.8,0,.34-.6,1.24-.94,1.64h3.48Zm-.86,3.96c.22-.36,.62-.7,.98-.7,.54,0,1.56,.74,1.56,1.24,0,.14-.06,.2-.12,.26-.16,.18-.22,.24-.22,.3v.44c0,.76,.08,4.5,.08,5.34,0,1.58-.62,2.56-2.02,2.56-1.52,0-2.52-1.56-2.52-1.72,0-.12,.1-.12,.18-.12,.04,0,.34,.1,.4,.12,.18,.04,.58,.12,.88,.12,.48,0,.78-.28,.78-1.2v-5.72h-2.38c-.06,0-.1,.02-.12,.06-.06,.06-.06,.86-.06,1,0,1.18,.1,7,.1,8.3,0,1.08,0,1.2-.26,1.52-.32,.42-.84,.56-1.14,.56-.96,0-.96-.92-.96-1.32,0-.28,.16-3.56,.18-4.22,0-.4,.06-2.7,.06-4.8,0-.74-.04-.78-.1-.84-.12-.12-.3-.28-.3-.38,0-.48,1.04-1.34,1.58-1.34,.14,0,.48,0,.78,.54h2.64Zm-1.52-.18c-.68,0-1.04-1.48-1.04-1.94,0-.62,.76-.8,1.08-.8,.4,0,1.08,.2,1.08,.8,0,.56-.42,1.94-1.12,1.94Z"/><path class="cls-1" d="M135.91,364.22c.24-.44,.72-.66,1.08-.66,.48,0,1.34,.44,1.34,.92,0,.08-.04,.2-.06,.24-.08,.34-.1,.6-.1,1.16,0,.88,.12,5.48,.12,5.58,0,.36,0,.62-.6,.92-.3,.14-.66,.24-1.02,.24-.84,0-.84-.26-.84-1.02h-5.4c0,.92-1.2,1.06-1.48,1.06-.84,0-.84-.44-.84-.62s.04-.74,.04-.88c.06-.8,.1-2.92,.16-5.18-2.2,.9-3.34,.9-4.64,.9-.14,0-1.2-.1-1.2-.36,0-.1,.02-.1,.62-.24,1.4-.34,3.12-.76,5.16-1.74,0-.06-.02-.34-.02-.4,0-.16,0-.44,.7-.44,.26,0,1.02,.1,1.18,.22,.5-.3,.92-.58,2.34-1.52-.46,.2-.88,.24-1.16,.24-1.1,0-2.24-.9-2.24-1.1,0-.06,.06-.06,.18-.06,.16,0,1,.08,1.18,.08,.76,0,.96-.2,.96-1.08v-3.3c0-.12-.04-.22-.16-.32-.34-.26-.38-.3-.38-.46,0-.5,1.16-1.22,1.88-1.22s.94,.34,.94,.84c0,.1-.08,.64-.1,.76,0,.16,.02,.96,.02,1.14v2.76c0,.56-.18,.84-.3,1.02,.48-.42,1.12-1.08,1.3-1.54,.04-.1,.04-.14,.04-.38,0-.36,.58-.5,.88-.5,.5,0,1.64,.42,1.64,1.08,0,.9-3.06,3.02-4.4,3.86h3.18Zm-10.1-2.66c-.56,0-1.52-.36-1.52-1.06,0-.36,.26-1,1.2-1.04,1.04-.04,2.4-.42,3.16-.96,.44-.3,.6-.42,.86-.42,.32,0,.36,.26,.36,.36,0,.14-.04,.22-.08,.26-.94,1.88-2.88,2.86-3.98,2.86Zm10.04,4.78v-1.2h-5.4v1.2h5.4Zm0,2.18v-1.3h-5.4v1.3h5.4Zm0,.88h-5.4v1.28h5.38l.02-1.28Zm-.88-11.28c0-.24,.8-.24,.82-.24,1.58,0,5.84,1.08,5.84,2.8,0,.6-.7,.98-1.22,.98s-.96-.36-1.32-.64c-2.12-1.68-2.82-2.06-3.52-2.46-.2-.08-.6-.28-.6-.44Z"/><path class="cls-1" d="M147.55,364.84c0,.92,.1,5.48,.1,6.5,0,.9-.98,1.56-1.64,1.56-.48,0-.88-.24-.88-.74,0-.02,.18-4,.22-4.76,.04-1.1,.12-4.86,.14-6.16-1.18,.66-2.02,.78-2.46,.78-.12,0-.44-.02-.44-.18,0-.04,.36-.3,.44-.36,1.2-.86,2.98-2.16,4.54-4.72,.18-.7,.7-.82,1.14-.82,.86,0,1.28,.72,1.28,1.14,0,.44-1.32,2.04-2.42,2.88-.02,.72-.04,3-.02,4.88Zm3.7-2.3c-.1,4.06-.16,5.86-1.24,7.62-.86,1.44-1.88,1.9-2.16,1.9-.1,0-.2-.04-.2-.14,0-.02,.56-.94,.64-1.12,.86-1.9,.86-4.52,.86-5.58,0-.02-.02-2.22-.04-2.42,0-.08-.26-.52-.26-.64,0-.44,1-1.1,1.52-1.1,.24,0,.7,.14,.78,.58h1.04v-2.02h-1.22c-.18,0-.98,.32-1.16,.32-.26,0-.5-.2-.5-.52,0-.38,.22-.84,.78-.84,.1,0,.58,.08,.68,.08h1.42v-.3c0-.48,0-.78-.06-1.14,0-.1-.36-.46-.36-.58,0-.44,1.26-1.18,1.82-1.18,.14,0,.88,.04,.88,.58,0,.1-.06,.62-.08,.72-.02,.18-.06,1.62-.06,1.9h1.2c0-.86,0-1.12-.04-1.46-.02-.1-.34-.54-.34-.66,0-.48,1.28-1.22,1.9-1.22,.4,0,.9,.16,.9,.62,0,.1-.08,.6-.1,.7-.04,.38-.06,1.08-.08,2.02h.88c.2-.34,.68-.7,1.06-.7,.48,0,1.32,.52,1.32,1.12,0,.4-.42,.54-.88,.54h-2.42c-.02,.76-.02,1.14-.02,2.02h1.86c.24-.4,.76-.82,1.22-.82,.54,0,1.44,.6,1.44,1.22,0,.5-.78,.5-1.12,.5h-9.86Zm6.56,1.48c.2-.22,.5-.58,.94-.58s1.5,.5,1.5,.96c0,.2-.06,.32-.2,.54,0,.82,.04,4.84,.04,5.76,0,1,0,2.34-1.62,2.34-1,0-1.84-1.14-1.84-1.24s.04-.1,.4-.1c.66,0,.82,0,.82-.98v-1.46h-1.3c0,.36,.04,2.08,.04,2.48,0,.98-1.1,1.24-1.26,1.24s-.52-.08-.72-.28c-.12-.14-.12-.18-.12-.58s.08-2.4,.08-2.86h-1.14v1.98c0,.72,0,.94-.28,1.22-.36,.34-.84,.48-1.18,.48-.24,0-.82-.12-.82-.68,0-.18,.06-.9,.08-1.16,.16-1.76,.34-3.78,.34-5.7,0-.24-.02-.3-.14-.44-.06-.04-.12-.12-.12-.24,0-.42,1.12-1.16,1.56-1.16,.06,0,.52,0,.64,.46h4.3Zm-3.22,4.42v-1.42h-1.12c-.02,.68-.04,.92-.04,1.42h1.16Zm0-2.22v-1.4h-.92c-.08,0-.2,.06-.2,.2v1.2h1.12Zm.94-4.58v-2.02h-1.22c-.02,.34-.02,.5-.02,2.02h1.24Zm2.32,4.58v-1.4h-1.3c0,.2-.02,1.18-.02,1.4h1.32Zm0,2.22v-1.42h-1.32v1.42h1.32Z"/><path class="cls-1" d="M172.91,367.28c.3,.02,.44,.06,.62,.38,.28,.46,.36,.58,.92,1.28,.6-.76,1.84-1.64,2.5-1.64,.38,0,1.22,.3,1.22,.86,0,.8-1.66,1.06-2.92,1.28,.96,.68,2.9,1.6,6.7,2.16,.14,0,.24,.06,.24,.12,0,.18-1.72,1.32-1.86,1.4-.22,.14-.62,.22-.9,.22-.2,0-.72-.02-1.7-.42-1.76-.7-3.52-1.8-5.1-4.88-.06-.12-.16-.2-.32-.22-.1,.1-1.1,.78-1.3,.92l-.02,2.34c.7-.06,1.44-.16,2.18-.28,.08-.02,.42-.08,.48-.08,.26,0,.4,.04,.4,.18,0,.6-3.84,1.98-6.54,1.98-1.38,0-1.44-.74-1.44-.88,0-.64,.7-.76,1.1-.76h1.6l.02-1.52c-1.98,1-4.12,1.3-5.14,1.3-.2,0-1.12,0-1.12-.24,0-.16,.62-.28,.8-.32,.56-.16,4.52-1.32,6.4-3.36h-2.96c-.2,0-.42,0-.62,.04-.14,.04-.82,.24-.98,.24-.28,0-.64-.16-.64-.46,0-.44,.54-.86,1.02-.86,.1,0,.3,.04,.48,.08,.22,.04,.32,.04,.88,.04h4.62v-.3c-.28-.18-.34-.22-.34-.34,0-.44,1.3-.74,1.78-.74,.18,0,.84,0,.84,.58,0,.14-.04,.36-.1,.8h3.84c.3-.42,.8-.68,1.08-.68,.52,0,1.62,.5,1.62,1.14,0,.48-.44,.48-1.2,.48-.66,0-4.94-.06-5.88-.08l-.26,.24Zm-.52-7.66c.38-.64,.9-.64,1-.64,.5,0,1.26,.46,1.26,1.02,0,.4-.34,.44-.68,.44h-3.26v1h1.2c.14-.18,.4-.52,.78-.52,.44,0,1.38,.4,1.38,.88,0,.04,0,.06-.06,.18-.08,.14-.12,.22-.12,.42,0,.16,.04,.96,.04,1.16,0,1.18-1.52,1.18-1.62,1.18-.58,0-1.36-.52-1.56-.66v.42c0,.6-.78,.96-1.36,.96-.78,0-.78-.38-.78-.66,0-.36,.1-2.16,.1-2.58h-1.04c0,.3-.02,1.72-.02,2.04,0,.3,0,.44-.16,.6-.24,.22-.86,.4-1.3,.4-.1,0-.76,0-.76-.56,0-.32,.2-1.88,.2-2.24,0-.08,0-.16-.06-.24-.02-.04-.2-.28-.2-.32,0-.4,1.14-.94,1.54-.94,.1,0,.7,.06,.82,.48h1.04c0-.14,.02-.84,.02-1-.7,0-2.6,.02-3.34,.04-.2,0-1.12,.3-1.32,.3-.4,0-.44-.34-.44-.48,0-.46,.38-.76,.86-.76,.12,0,.68,.08,.82,.08h3.42v-1.06h-1.8c-.64,.66-1.68,.94-2.04,.94-.14,0-.18-.1-.18-.14,.08-.14,.3-.5,.42-.7,.26-.42,.82-1.36,.82-1.82,0-.04-.1-.26-.1-.32,0-.38,.86-.62,1.24-.62,.1,0,1.02,.06,1.02,.62,0,.44-.34,.98-.5,1.24h1.1c0-.2-.02-.96-.1-1.04-.18-.14-.22-.18-.22-.26,0-.48,1.26-1.12,1.78-1.12,.1,0,.76,.02,.76,.66,0,.06-.06,.38-.06,.44-.04,.34-.08,.68-.12,1.32h.98c.3-.56,.72-.72,.98-.72,.48,0,1.3,.58,1.3,1.12,0,.4-.52,.4-1.06,.4h-2.26v1.06h1.64Zm-1.66,2.6c0,.22,.02,1.3,.02,1.54,.14,.02,.54,.04,.62,.04,.48,0,.5-.16,.5-.56v-1.02h-1.14Zm6.28-4.94c0,.1-.12,1.24-.12,1.46-.04,.88-.02,2.14-.02,3.04,0,.78-1,1.02-1.32,1.02-.7,0-.7-.48-.7-.78,0-.46,.12-2.74,.12-3.26,0-.28,0-.56-.04-.72-.02-.08-.36-.32-.36-.42,0-.44,1.14-1.04,1.58-1.04,.22,0,.86,.08,.86,.7Zm2.78,5.82c0,2-1.58,2.2-2.24,2.2-1,0-2.28-.98-2.44-1.46,0-.04,.06-.08,.12-.08,.22,0,1.3,.14,1.54,.14,.88,0,.88-.58,.9-1.76,.02-.62,.06-1.9,.06-3.84,0-.22,0-.88-.1-.98-.22-.2-.28-.26-.28-.34,0-.44,1.22-1.14,1.72-1.14,.22,0,.9,.14,.9,.66,0,.1-.1,.66-.1,.78-.02,.18-.08,2.5-.08,3.44v2.38Z"/><path class="cls-1" d="M185.81,367.48v1.06c0,.6-1.02,.98-1.52,.98-.44,0-.78-.24-.78-.7,0-.66,.12-3.56,.12-4.14,.02-.76,.08-4.14,.08-4.82v-.62c0-.08,0-.12-.24-.4-.04-.04-.1-.12-.1-.24,0-.64,1.18-1.4,1.7-1.4,.26,0,.74,.24,.84,.7h1.88c.42-.66,.86-.78,1.08-.78,.54,0,1.46,.58,1.46,1.2,0,.12-.26,.62-.26,.72v3.82c0,.78,.1,4.84,.1,4.86,0,.34,0,.56-.48,.84-.42,.24-.84,.32-1.12,.32-.84,0-.84-.58-.84-1.14v-.26h-1.92Zm.02-4.42l-.02,3.46h1.94c0-.54,.02-2.96,.02-3.46h-1.94Zm1.94-4.18h-1.72s-.16,0-.2,.1l-.02,3.14h1.94v-3.24Zm3.72,11.58c-.72,0-1.4-.5-1.4-1.18,0-.52,.44-1.1,1.06-1.1,.14,0,.8,.08,.94,.08,1.52,0,2.74-.68,2.78-.7,.08-.04,.16-.08,.24-.08,.1,0,.12,.12,.12,.22,0,.48-1.4,2.76-3.74,2.76Zm3.74-7.38c-.44,0-2.7,.04-2.72,.04-.56,0-.64,0-.88,.08-.54,.18-.66,.22-.86,.22-.26,0-.5-.2-.5-.58,0-.46,.34-.94,.88-.94,.12,0,.66,.16,.78,.16h2.12l-.02-2.44h-.42c-.3,0-.72,0-1.02,.04-.16,.02-.88,.24-1.04,.24-.54,0-.54-.46-.54-.58,0-.56,.5-.86,.9-.86,.08,0,.46,.1,.54,.1h1.58c-.06-1.62-.06-1.68-.2-1.78-.32-.24-.38-.26-.38-.46,0-.68,1.48-1.32,2.18-1.32,.34,0,1.02,.18,1.02,.94,0,.06-.04,.34-.06,.4-.02,.2-.1,1.86-.12,2.22h1.48c.22-.44,.7-.84,1.04-.84,.56,0,1.44,.62,1.44,1.34,0,.54-.54,.54-.74,.54h-3.26c-.06,1.16-.06,1.4-.06,2.46h2.98c.22-.6,.74-.96,1.12-.96,.58,0,1.66,.66,1.66,1.38,0,.6-.68,.6-1.12,.6h-5.78Zm.78,3.46c-3.22,.04-3.6,.06-3.88,.14-.04,0-.76,.24-.86,.24-.38,0-.58-.3-.58-.62,0-.5,.46-.9,.9-.9,.08,0,.44,.12,.52,.14,.1,.02,.38,.02,.44,.02,.54,0,2.96-.02,3.46-.02,0-.64-.04-.68-.1-.74-.2-.18-.28-.24-.28-.44,0-.6,1.46-1.18,1.96-1.18,.08,0,.74,0,.74,.6,0,.06-.06,.5-.06,.54-.04,.34-.04,.82-.04,1.22h1.08c.3-.6,.72-.88,1.04-.88,.56,0,1.42,.66,1.42,1.32,0,.58-.62,.58-.84,.58h-2.7c.02,.62,.1,3.34,.1,3.9,0,.94,0,1.86-.98,2.42-.48,.26-1.06,.36-1.48,.36-1.5,0-2.94-1.44-2.94-1.64,0-.12,.06-.12,.68-.06,2.18,.24,2.36-.18,2.38-2.12l.02-2.88Z"/><path class="cls-1" d="M209.43,356.79c.24-.32,.52-.66,.96-.66,.58,0,1.46,.58,1.46,1.12,0,.14-.04,.2-.2,.42-.04,.08-.04,.82-.04,.94,0,.54,.08,3.12,.08,3.7,0,.72-1,1-1.54,1-.7,0-.7-.24-.7-.66h-2.72v6.22c0,.36,.04,2.08,.04,2.48,0,.74,0,.82-.36,1.28-.12,.16-.64,.5-1.16,.5-.94,0-.94-.54-.94-.8,0-.18,.16-3.06,.18-3.64,.02-.32,.14-3.7,.12-7.26l-.02-3.34c0-.08-.12-.16-.16-.2-.18-.1-.28-.22-.28-.36,0-.5,1.26-1.34,1.8-1.34,.26,0,.68,.16,.82,.6h2.66Zm.02,2.52v-1.46s0-.14-.04-.14h-2.48c-.12,0-.2,.2-.2,.32v1.28h2.72Zm.02,2.42v-1.54h-2.74v1.54h2.74Zm4.42,2.72c.3-.4,.68-.6,.96-.6,.48,0,1.3,.54,1.3,1.04,0,.12-.02,.14-.16,.5-.08,.18-.08,.22-.08,.52,0,.6,.1,3.54,.1,4.22,0,.3,0,.42-.2,.62-.28,.24-.84,.4-1.3,.4-.66,0-.7-.28-.7-.56v-.34h-3v.6c0,.52-.82,.86-1.36,.86-.68,0-.68-.34-.68-.62,0-.78,.12-4.64,.08-5.52-.02-.02-.16-.16-.18-.2-.1-.1-.12-.18-.12-.24,0-.54,.96-1.2,1.48-1.2,.28,0,.78,.18,.84,.52h3.02Zm-.06,2.4v-1.54h-2.78c-.24,0-.24,.16-.24,.46v1.08h3.02Zm0,2.46v-1.58h-3.02v1.58h3.02Zm3.94-12.52c.34-.46,.8-.84,1.38-.84s1.38,.56,1.38,1.12c0,.14-.3,.72-.3,.86l.06,12.7c0,.84-.1,2.68-2.46,2.68-1.32,0-2.8-1.22-2.8-1.28,0-.14,.16-.16,.26-.16,1.66,0,2.68,0,2.68-2.02v-7.18h-2.74c-.1,.48-1.18,.64-1.56,.64-.4,0-.52-.2-.52-.5v-4.9c0-.12-.12-.22-.2-.26-.12-.1-.2-.2-.2-.32,0-.46,1.04-1.18,1.6-1.18,.4,0,.8,.22,.94,.64h2.48Zm.2,2.52v-1.36c0-.22,0-.24-.02-.24h-2.44c-.16,0-.22,.06-.22,.22v1.38h2.68Zm0,2.44v-1.56h-2.68v1.56h2.68Z"/></g><rect class="cls-6" x="61.09" y="61.23" width="162.72" height="162.72" rx="18.32" ry="18.32"/><g class="cls-3"><g><path class="cls-2" d="M155.6,156.11c.71,.88,1.51,1.73,2.13,2.69,2.21,3.4,1.81,7.54-.95,10.38-2.71,2.78-6.96,3.3-10.38,1.19-.98-.6-1.85-1.39-2.76-2.12-2.55-2.04-4.59-5.41-8.92-2.64-.22-.41-.44-.82-.67-1.23,1.13-1.37,2.05-3.11,3.5-3.94,.71-.41,2.55,.66,3.6,1.43,2.1,1.54,4.01,3.35,6.02,5.01,2.49,2.06,5.12,2.31,7.33-.19,2.18-2.47,1.77-5.15-.66-7.29-4.13-3.65-8.19-7.44-12.69-10.58-1.37-.96-4.47-.68-6.1,.24-2.72,1.54-4.83,4.13-7.35,6.08-.71,.55-1.96,.38-2.96,.54,.28-.97,.25-2.26,.88-2.86,2.62-2.5,5.34-4.92,8.2-7.14,2.83-2.19,5.96-2.21,8.85-.06,2.33,1.73,4.42,3.75,6.71,5.55,1.46,1.14,3.24,3.75,4.86,.95,.99-1.71,1.15-4.92,.15-6.5-1.55-2.47-4.36-4.16-6.69-6.12-10.54-8.86-8.34-8.95-18.5-.15-.66,.57-1.25,1.29-2.02,1.64-.67,.3-1.54,.17-2.32,.22,.09-.88-.17-2.12,.32-2.57,2.98-2.76,6.06-5.4,9.22-7.96,6.53-5.28,13.15-10.43,19.66-15.73,2.48-2.02,3.11-4.68,.98-7.26-2.11-2.55-4.85-2.54-7.32-.49-11.61,9.64-23.35,19.13-34.55,29.23-2.24,2.02-2.84,6.41-3.21,9.81-.39,3.54,.52,7.21,.61,10.83,.02,.85-.97,1.72-1.5,2.59-.53-.75-1.44-1.47-1.51-2.26-.43-4.91-.91-9.83-.91-14.75,0-4.53,2.51-8.06,6.12-10.5,3.02-2.05,4.22-4.54,3.64-8.03-.02-.14,.02-.29,0-.43-2.45-13.08,3.48-23.27,11.25-32.86,3.32-4.11,7.94-5.07,11.85-2.29,3.86,2.74,4.68,7.7,1.72,11.92-.74,1.06-2.31,1.54-3.5,2.29,.22-1.28,.42-2.57,.66-3.85,.33-1.76,1.32-3.69,.9-5.24-.99-3.74-5.87-4.72-8.29-1.55-3.78,4.94-7.75,9.95-10.27,15.55-1.6,3.56-.75,8.23-.94,12.4-.08,1.69-.01,3.39-.01,6.1,3.47-2.89,6.33-5.02,8.84-7.51,.85-.85,.71-2.63,1.18-3.93,.92-2.52,1.83-5.05,3.01-7.44,.31-.62,1.6-.75,2.44-1.11,.04,1.01,.38,2.13,.05,2.99-.64,1.65-1.67,3.15-2.53,4.71,.3,.25,.6,.49,.9,.74,3.71-3.1,7.39-6.24,11.13-9.29,4.36-3.55,7.01-3.59,11.86-.89,1.14,.64,2.93,.57,4.3,.27,5.66-1.27,9.57,1.61,9.54,7.34,0,2.17-.18,4.35-.45,6.51-.93,7.52-.97,14.59,2.75,21.84,4.66,9.07,3.05,18.64-1.54,27.59-.45,.88-1.79,1.3-2.72,1.94-.09-1.04-.61-2.31-.2-3.1,5.7-10.95,4.42-21.47-1.36-31.96-.96-1.75-1.01-4.19-.93-6.3,.21-5.36,.74-10.7,1.12-16.06,.18-2.63-.54-4.69-3.65-4.77-2.73-.07-4.32,1.02-4.15,4.11,.06,1.07-.32,2.62-1.08,3.19-5.82,4.37-5.15,11.23-6.92,17.17-1.16,3.86-.1,6.29,3.03,8.8,6.24,4.99,6.37,8.75,1.23,15.14Zm-14.14-26.23c2.05,1.71,3.87,3.21,6.09,5.07,.76-4.1,1.4-7.49,2.23-11.96-3.3,2.73-5.69,4.72-8.33,6.9Z"/><path class="cls-2" d="M120.95,198.09c-.27-1.56-.9-3.16-.73-4.67,.56-4.96-1.31-8.7-4.32-12.6-3.09-4.03-5.1-8.93-7.28-13.59-.4-.85,.61-2.37,.98-3.58,.69,.95,1.81,1.82,2.01,2.86,1.32,6.78,6.12,11.39,10.05,16.54,2.36,3.1,2.64,11.62-.7,15.04Z"/><path class="cls-2" d="M161.13,198.08c0-5.15-.39-10.35,.16-15.44,.3-2.73,2.14-5.32,3.46-7.88,.3-.57,1.35-.76,2.06-1.12,.31,.71,1.1,1.71,.87,2.07-4.19,6.58-3.95,13.99-4.22,21.32-.02,.42-.66,.81-1.01,1.22-.44-.06-.88-.11-1.32-.17Z"/><path class="cls-2" d="M170.48,91.5c-1.44,2.35-2.74,4.57-4.17,6.7-.21,.31-1.2,.48-1.48,.27-.48-.38-1.11-1.32-.95-1.65,1.15-2.3,2.45-4.52,3.81-6.7,.19-.3,1.15-.47,1.49-.27,.52,.32,.82,1.01,1.29,1.65Z"/><path class="cls-2" d="M159.06,86.96c0,2.85,.06,5.71-.07,8.56-.02,.43-.9,1.02-1.48,1.15-.37,.08-1.28-.54-1.29-.87-.1-2.94-.06-5.89-.06-8.83,.96,0,1.93-.01,2.89-.02Z"/><path class="cls-2" d="M176.68,97.12c.64,.41,1.35,.62,1.46,.99,.17,.6,.17,1.65-.18,1.91-1.96,1.41-4.02,2.71-6.14,3.87-.4,.22-1.35-.19-1.81-.59-.27-.24-.29-1.31-.05-1.5,2.16-1.61,4.4-3.1,6.72-4.69Z"/></g></g><rect class="cls-5" x="3.5" y="3.5" width="277.9" height="440.91" rx="8" ry="8"/></g></g></g></g></svg>