<?xml version="1.0" encoding="UTF-8"?><svg id="_圖層_2" xmlns="http://www.w3.org/2000/svg" viewBox="0 0 122.18 120"><defs><style>.cls-1{fill:none;opacity:.5;}.cls-2{fill:#fff;}.cls-3{fill:#0f2c51;}.cls-4{fill:#0e2c50;}</style></defs><g id="_圖層_1-2"><g><rect class="cls-1" x=".09" width="120" height="120"/><g><path class="cls-3" d="M53.89,63.75c1.16,0,2.11-.94,2.11-2.11v-22.57h5.55c2.02,0,3.67-1.64,3.67-3.67,0-1.16-.54-2.19-1.37-2.86l-7.17-6.22V15.97c0-1.21-.98-2.19-2.19-2.19h-4.54c-1.21,0-2.19,.98-2.19,2.19v2.61l-12.75-11.07c-1.38-1.2-3.43-1.2-4.8,0L1.26,32.64c-1.15,1-1.57,2.62-1.03,4.05,.54,1.43,1.91,2.38,3.43,2.38h5.55v22.57c0,1.17,.95,2.11,2.11,2.11h12.47v-16.41c0-2.32,1.88-4.2,4.2-4.2h9.23c2.32,0,4.2,1.88,4.2,4.2v16.41h12.46Z"/><g><path class="cls-4" d="M34.04,109.14c-.79,0-1.56-.44-1.56-1.36,0-.8,.68-1.15,.85-1.24,.53-.21,1.38-.44,1.86-.74,.18-.12,.88-.97,1.12-.97,.18,0,.35,.15,.35,.47,0,1.35-.88,3.83-2.62,3.83Zm9.64-7.19c.29-.38,.74-.68,1.18-.68,.59,0,1.8,.65,1.8,1.62,0,.18-.06,.24-.29,.5-.03,.06-.09,.91-.12,1-.27,3.51-1.24,8.87-5.1,8.87-2.3,0-3.77-2.42-3.77-2.71,0-.03,0-.12,.18-.12,.03,0,.15,.06,.18,.06,1.09,.29,1.97,.38,2.3,.38,.97,0,1.47-.5,1.74-.82,.8-1.03,1.5-3.65,1.59-6.9-1.97,0-3.68,0-5.39,.03-.29,.62-1.3,1-1.83,1s-1.12-.27-1.12-.88c0-.47,.21-2.77,.21-3.27,.09-2.89,.06-4.04,.06-6.84,0-1.24,0-1.38-.24-1.56-.32-.29-.38-.35-.38-.5,0-.65,1.27-1.83,2.15-1.83,.68,0,1.24,.47,1.44,1.15h4.57c.21-.47,.94-1.12,1.5-1.12,.74,0,1.86,.83,1.86,1.68,0,.68-.71,.68-1.27,.68h-2.42v2.68h.65c.26-.47,.68-.71,1-.71,.59,0,1.33,.65,1.33,1.33,0,.44-.44,.53-1.06,.53h-1.92v2.5h.38c.29-.59,.77-.74,1.09-.74,.59,0,1.44,.62,1.44,1.27,0,.53-.74,.65-1.15,.65h-1.77v2.74h1.18Zm-4.74,4.63c0,.68,0,2.48-1.12,2.48-.85,0-.85-.44-.85-3.48,0-.06-.18-.29-.18-.35,0-.47,1.03-.88,1.39-.88,.77,0,.77,.24,.77,2.24Zm.77-12.23v-2.65h-1.53s-.03,.24-.03,.29v2.36h1.56Zm0,3.65v-2.45h-1.56v2.45h1.56Zm0,3.95v-2.74h-1.53v2.74h1.53Zm-.44,3.45c-.03-.06-.21-.35-.21-.38,0-.41,.77-.88,1.18-.88,.82,0,.82,.29,.82,3.18,0,.5-.12,1.3-.82,1.3-.8,0-.85-1.24-.88-1.56l-.09-1.65Zm3.12,2.33c-.65,0-1.18-3.01-1.18-3.09,0-.47,.44-.83,.85-.83,.74,0,.74,.44,.71,1.15,0,.41-.03,.44-.03,.88,0,.21,.06,1.21,.06,1.44,0,.29-.18,.44-.41,.44Zm15.29,1.97c.38-.8,1.21-1.33,1.83-1.33,.88,0,2.24,1.06,2.24,1.94,0,.8-.88,.88-1.62,.88h-9.84c-.44,0-2.8,.03-3,.09-.35,.09-.88,.24-1.24,.24s-.82-.12-.82-.62c0-.56,.44-1.36,1.24-1.36,.21,0,1.12,.15,1.33,.15h3.27c.09-4.04,.09-5.13,.12-6.92-1,.06-2.15,.12-2.62,.21-.15,.03-.8,.21-.97,.21-.21,0-.71-.12-.71-.68,0-.53,.32-1.24,1.21-1.24,.12,0,.74,.18,.88,.18h2.24v-5.13c0-.21,0-.5-.03-.65l-2.5,.03c-.29,0-1.68,.41-2,.41-.35,0-.8-.21-.8-.74,0-.65,.5-1.33,1.36-1.33,.18,0,1.03,.18,1.24,.18h8.07c.38-.62,1.18-1.33,1.74-1.33,.68,0,2.18,.91,2.18,1.89,0,.32-.21,.88-1.27,.88h-4.66c-.06,.88-.06,4.66-.06,5.75h1.62c.21-.29,.85-1.21,1.59-1.21,.8,0,2.06,1.09,2.06,1.83,0,.8-1.09,.8-1.38,.8h-3.95v2.45c0,2.71,.03,3.3,.09,4.42h3.18Zm-4.33-16.74c-.85,0-4.71-2.62-4.71-4.1,0-.74,1.03-1.5,1.92-1.5,.26,0,1.09,0,1.71,.71,.77,.88,1.83,3.39,1.83,4.27,0,.62-.65,.62-.74,.62Z"/><path class="cls-4" d="M84.37,91.43c.38-.74,1.21-1.44,1.89-1.44,.91,0,2.45,1.06,2.45,2.03,0,.8-.85,.88-1.5,.88h-17.06c-.06,6.54-.15,13.29-4.48,17.06-.91,.8-2.45,1.74-3.18,1.74-.18,0-.35-.03-.35-.27,0-.15,.94-1.06,1.12-1.27,1.83-2.21,3.15-5.1,3.39-11.52,.03-.56,0-3.24,0-3.86,0-.29-.03-1.47-.21-1.74-.47-.68-.5-.74-.5-.88,0-.77,2.03-1.97,2.92-1.97,.74,0,1.27,.47,1.33,1.24h5.48c-.03-.56-.03-.88-.12-2.21-.06-.06-.35-.29-.41-.35-.09-.09-.21-.24-.21-.41,0-.91,1.83-1.8,2.98-1.8,.41,0,1.33,.12,1.33,1.15,0,.12-.06,.56-.09,.68-.06,.27-.21,2.53-.24,2.95h5.48Zm.91,6.42c.5-.8,1.18-1.41,1.77-1.41,.83,0,2.3,1.09,2.3,2.03,0,.77-.85,.82-1.21,.82h-8.69c-.06,2-.06,2.15-.09,4.33h2.98c.32-.53,1.18-1.03,1.71-1.03,.8,0,2.24,.85,2.24,1.77,0,.06-.15,.35-.18,.44-.09,.21-.09,.32-.09,1.33,0,.8,.12,4.77,.12,5.66,0,1.36-1.83,1.59-2.36,1.59-.44,0-1.47-.09-1.47-.91v-.91h-8.28v.62c0,.68-1.47,1.18-2.27,1.18-1.09,0-1.09-.88-1.09-1.27,0-.83,.15-4.92,.15-5.83v-.97c-.03-.06-.29-.27-.32-.32-.09-.09-.21-.21-.21-.38,0-.8,1.65-1.8,2.53-1.8,.26,0,.94,.15,1.18,.85h2.24v-3.36c0-1.36-.03-2.74-.06-4.1-.06-.06-.35-.29-.41-.35-.12-.09-.24-.24-.24-.38,0-.8,1.56-1.83,2.77-1.83,1.36,0,1.41,.68,1.41,1.03,0,.47-.21,2.71-.24,3.21h5.8Zm-2.92,12.29c0-.71,.03-4.27,.03-5.07h-8.19c-.15,0-.21,.15-.21,.29v4.77h8.37Z"/></g><g><g><g><path class="cls-3" d="M62.1,49.41c-7.21,0-13.07-5.86-13.07-13.07s5.86-13.07,13.07-13.07c3.69,0,7.23,1.59,9.71,4.35l.41,.45-.21,.57c-1.79,4.75-1.38,9.29,1.2,13.5l.32,.53-.33,.52c-2.41,3.89-6.56,6.21-11.1,6.21Z"/><path class="cls-2" d="M62.1,24.27c3.56,0,6.76,1.56,8.97,4.02-2.54,6.76-.38,11.66,1.28,14.38-2.13,3.44-5.92,5.74-10.25,5.74-6.65,0-12.07-5.41-12.07-12.07s5.41-12.07,12.07-12.07m0-2c-7.76,0-14.07,6.31-14.07,14.07s6.31,14.07,14.07,14.07c4.89,0,9.36-2.5,11.95-6.68l.65-1.05-.65-1.05c-2.45-3.99-2.81-8.12-1.12-12.62l.43-1.14-.81-.9c-2.68-2.98-6.49-4.69-10.46-4.69h0Z"/></g><g><path class="cls-3" d="M44.81,66.09l-.03-1.38c0-.5-.1-12.34,7.75-19.12l.78-.68,.66,.62,.17,.15c.12,.1,.39,.31,.74,.56l.25,.18,.11,.29c1.05,2.87,3.8,4.79,6.84,4.79s5.75-1.9,6.82-4.73l.11-.29,.25-.18c.18-.13,.35-.25,.48-.36l.14-.11c.09-.08,.19-.16,.29-.25l.58-.53,.65,.44c.18,.12,.55,.39,1.03,.82l.74,.67-.67,.74c-5.11,5.63-6.33,13.34-6.6,17.44l-.06,.93h-21.03Z"/><path class="cls-2" d="M53.29,46.25c.06,.05,.12,.1,.18,.16,.17,.14,.46,.37,.83,.64,1.16,3.18,4.2,5.45,7.78,5.45s6.57-2.24,7.75-5.37c.2-.14,.38-.28,.53-.39,.05-.04,.11-.09,.16-.13,.11-.09,.22-.19,.32-.28,.21,.14,.53,.39,.91,.74-5.26,5.8-6.57,13.64-6.86,18.04h-19.11v-.4c-.01-.48-.12-11.85,7.39-18.35l.1-.09m.06-2.68l-1.38,1.18-.1,.09c-8.04,6.95-8.1,18.58-8.08,19.88v.41s.04,1.96,.04,1.96h22.95l.12-1.87c.26-3.97,1.44-11.43,6.34-16.83l1.34-1.48-1.47-1.34c-.5-.46-.9-.75-1.14-.91l-1.31-.88-1.16,1.06c-.09,.08-.18,.16-.27,.23l-.1,.09c-.12,.1-.27,.21-.44,.33l-.5,.35-.22,.58c-.92,2.44-3.28,4.08-5.88,4.08s-5-1.66-5.9-4.13l-.21-.58-.5-.36c-.33-.23-.57-.43-.69-.53-.03-.03-.07-.06-.1-.09l-1.32-1.23h0Z"/></g></g><g><path class="cls-3" d="M65.48,68.39l-.02-1.45c0-.57-.14-14.03,8.82-21.78l.8-.69,.66,.61,.2,.17c.63,.53,3.03,2.39,6.18,3.19,.99,.23,2.02,.34,3.03,.34,.29,0,.58-.01,.86-.03,.26-.02,.53-.05,.79-.09l.21-.03c3.63-.58,6.27-2.49,6.99-3.06,0,0,.39-.33,.5-.43l.58-.52,.65,.44c1.85,1.25,7.92,6.51,8.54,21.8l.06,1.53h-38.83Zm23.56-13.94v-3.1l-2.97,1.59,2.97,1.51Zm-8.34,0l2.97-1.51-2.97-1.59v3.1Z"/><path class="cls-2" d="M75.05,45.82c.07,.06,.14,.12,.21,.18,.72,.61,3.27,2.57,6.6,3.42,1.05,.24,2.15,.37,3.27,.37,.31,0,.62-.01,.92-.03,.36-.02,.71-.08,1.07-.13,3.58-.57,6.29-2.33,7.47-3.27,.06-.05,.12-.1,.18-.15,.12-.11,.25-.21,.37-.32,1.48,1,7.49,5.97,8.1,21.01l.02,.49h-36.81v-.46c-.02-.55-.14-13.57,8.47-21l.12-.1m9.82,6.62l-5.17-2.76v6.4l5.17-2.64,5.17,2.64v-6.4l-5.17,2.76m-9.75-9.3l-1.38,1.18-.12,.1c-9.32,8.06-9.17,21.96-9.16,22.55v.46s.04,1.97,.04,1.97h40.86l-.08-2.08-.02-.49c-.64-15.76-7.03-21.27-8.98-22.59l-1.3-.88-1.16,1.05c-.11,.1-.22,.19-.33,.29l-.11,.09-.05,.04c-.64,.51-3.1,2.3-6.51,2.84l-.16,.02c-.26,.04-.5,.07-.72,.08-.26,.02-.53,.03-.8,.03-.93,0-1.87-.11-2.81-.32-2.97-.76-5.28-2.59-5.77-2.99-.04-.04-.08-.07-.13-.11l-1.32-1.24h0Z"/></g><g><path class="cls-3" d="M85.21,49.13c-8.17,0-14.82-6.65-14.83-14.82,0-8.18,6.65-14.83,14.83-14.83,8.17,0,14.83,6.65,14.83,14.82,0,3.95-1.54,7.67-4.34,10.48-2.8,2.8-6.52,4.35-10.48,4.35h0Z"/><path class="cls-2" d="M85.21,20.47c7.62,0,13.83,6.2,13.83,13.82,0,3.69-1.44,7.16-4.05,9.77-2.61,2.61-6.08,4.05-9.77,4.06h0c-7.62,0-13.82-6.2-13.83-13.82,0-7.62,6.2-13.83,13.83-13.83m0-2h0c-8.73,0-15.83,7.1-15.83,15.83,0,8.72,7.1,15.82,15.83,15.82,4.23,0,8.2-1.65,11.19-4.64,2.99-3,4.64-6.97,4.64-11.19,0-8.72-7.1-15.82-15.83-15.82h0Z"/></g><g><path class="cls-3" d="M103.75,65.39l-.08-.91c-.15-1.6-.47-4.03-1.17-6.52l-.06-.22,.87-5.07-2.4-3.86,2.32,.51c.15,.03,.3,.06,.46,.09,.4,.07,.79,.12,1.18,.14,.22,.01,.44,.02,.66,.02,.83,0,1.66-.1,2.48-.29l2.36-.57-2.45,3.96,.32,2.08,3.49-6.8,.17-.13c.21-.17,.42-.35,.62-.53l.66-.61,.77,.67c7.21,6.24,7.24,16.59,7.24,16.7l-.02,1.35h-17.41Z"/><path class="cls-2" d="M113.2,48.03l.09,.08c6.75,5.84,6.9,15.49,6.89,15.93v.36s-15.52,0-15.52,0c-.15-1.69-.48-4.15-1.21-6.7l.9-5.22-1.35-2.16c.16,.04,.33,.07,.5,.1,.42,.07,.86,.13,1.3,.16,.24,.02,.48,.03,.72,.03,.93,0,1.84-.11,2.71-.32l-1.37,2.21,.85,5.48,4.8-9.34c.23-.19,.46-.38,.68-.58m-.05-2.68l-1.31,1.22c-.18,.17-.37,.33-.56,.48l-.33,.27-.14,.27-3.03,.73c-.74,.18-1.5,.27-2.25,.27-.2,0-.4,0-.6-.02-.35-.02-.72-.07-1.08-.13-.14-.02-.27-.05-.41-.08l-4.65-1.03,2.51,4.04,.94,1.52-.77,4.47-.08,.45,.12,.44c.68,2.41,1,4.78,1.14,6.34l.17,1.82h1.83s15.51,0,15.51,0h1.97s.03-1.97,.03-1.97v-.36c0-.11,.1-10.83-7.58-17.47l-.09-.08-1.36-1.17h0Z"/></g><g><path class="cls-3" d="M105.99,50.1c-4.07,0-7.81-2.06-10-5.52l-.4-.63,.49-.56c2.13-2.46,3.3-5.61,3.3-8.85,0-1.59-.27-3.15-.81-4.63l-.25-.7,.59-.44c2.06-1.55,4.52-2.37,7.09-2.37,6.53,0,11.84,5.32,11.84,11.85,0,6.53-5.31,11.84-11.84,11.84h0Z"/><path class="cls-2" d="M105.99,27.41c5.98,0,10.84,4.87,10.84,10.85,0,5.98-4.87,10.84-10.84,10.84h0c-3.85,0-7.23-2.02-9.16-5.05,2.2-2.55,3.54-5.87,3.54-9.5,0-1.74-.31-3.42-.87-4.97,1.81-1.36,4.06-2.16,6.49-2.16m0-2h0c-2.8,0-5.46,.89-7.69,2.56l-1.19,.89,.51,1.39c.5,1.37,.75,2.81,.75,4.29,0,3-1.09,5.91-3.06,8.19l-.97,1.12,.8,1.25c2.37,3.74,6.43,5.98,10.85,5.98,7.08,0,12.85-5.76,12.85-12.84,0-7.08-5.76-12.85-12.84-12.85h0Z"/></g></g></g></g></g></svg>