<?xml version="1.0" encoding="UTF-8"?><svg id="_圖層_2" xmlns="http://www.w3.org/2000/svg" viewBox="0 0 511.23 292.37"><defs><style>.cls-1,.cls-2{fill:#fff;}.cls-3{fill:#0f2c51;}.cls-4{fill:#c30d23;}.cls-4,.cls-2{fill-rule:evenodd;}</style></defs><g id="_圖層_1-2"><g><g><path class="cls-3" d="M4.73,254.23c-.5,0-2.52,.72-2.97,.72-.81,0-1.08-.72-1.08-1.44,0-1.12,.77-2.21,1.98-2.21,.31,0,1.62,.27,1.89,.27h2.61c.22-1.44,.76-5.99,.76-6.48,0-.23-.67-1.17-.67-1.4,0-1.17,3.33-2.61,4.72-2.61,.22,0,2.12,0,2.12,1.62,0,.27-.5,2.43-.54,2.7l-1.35,6.12h1.76c.31-.41,.85-1.17,2.02-1.17,1.53,0,2.75,.9,2.75,2.52,0,1.84-1.12,9-3.74,14.58,1.8,1.04,4.5,2.57,4.5,5.27,0,1.71-1.58,2.43-2.38,2.43-.9,0-1.8-.86-2.34-1.58-.72-.99-1.58-2.11-2.25-2.92-4.14,5.04-9.76,6.57-11.43,6.57-.31,0-1.08,0-1.08-.36,0-.18,.14-.27,1.62-1.12,3.78-2.21,6.34-4.59,8.05-8.14-.5-.72-.95-1.08-1.35-1.35-.45,1.08-1.89,1.89-3.2,1.89-.27,0-2.02-.04-2.02-1.12,0-.72,1.53-4.86,1.8-5.76,0-.04,1.12-3.74,1.8-7.02h-1.98Zm6.7-.04l-2.61,10.71c1.21,.45,1.57,.58,2.02,.72,1.4-3.92,2.25-7.2,2.66-11.43h-2.07Zm12.06,9.09c-.67,0-1.39,0-1.8,.04-.5,.05-2.7,.81-3.15,.81-.95,0-1.31-.67-1.31-1.53,0-1.48,1.04-2.34,2.16-2.34,.27,0,1.35,.27,1.58,.27,1.08,.04,5.8-.04,6.75-.04-.18-1.03-1.48-5.98-2.92-6.79-.54-.32-.94-.54-.94-.86,0-.99,1.62-1.75,2.47-1.75,.63,0,1.17,.45,1.67,.9,.5-.86,2.7-4.5,3.1-5.27l-8.95,.27c-.32,0-1.44,.67-1.71,.76-.27,.13-.58,.18-.86,.18-.31,0-1.67-.05-1.67-1.31,0-1.17,1.12-2.65,2.39-2.65,.27,0,1.39,.18,1.62,.18h10.39c.77-.99,1.94-1.53,2.66-1.53,1.53,0,3.69,1.53,3.69,3.24,0,.81-.13,.95-8.59,8.37,1.84,3.19,2.29,4.54,2.65,6.25h4.95c1.03-1.89,2.29-2.52,2.97-2.52,1.53,0,3.51,1.89,3.51,3.51,0,1.26-1.17,1.8-2.29,1.8h-8.5c.36,2.39,.41,4.77,.41,6.43s0,11.07-7.02,11.07c-2.03,0-4.19-1.49-5.99-3.11-.81-.72-.9-.81-.9-.99,0-.22,.22-.27,.31-.27,.45,.22,2.52,.32,3.11,.32,4.54,0,5.08-3.65,5.08-8.96,0-2.61-.14-3.42-.27-4.5h-4.59Z"/><path class="cls-3" d="M81.54,248.2c.5-1.08,1.89-2.02,2.79-2.02,1.26,0,3.42,1.53,3.42,3.01,0,1.26-1.26,1.35-1.8,1.35h-16.06c-1.67,1.93-5.58,5.4-7.79,5.4,0,1.35,.09,8.01,.09,9.54,0,1.17-2.21,1.98-3.33,1.98-1.8,0-1.8-.94-1.8-2.52h-3.87v1.94c0,1.35-2.34,2.2-3.46,2.2-1.4,0-1.4-1.35-1.4-2.38,0-1.8,.22-10.57,.22-12.55,0-.63,0-3.92-.09-4.19-.04-.18-.67-.9-.67-1.08,0-.94,2.47-2.7,3.78-2.7s1.57,.94,1.71,1.53h4.05c.67-1.04,1.8-1.57,2.56-1.57,1.04,0,2.75,1.08,2.75,2.11,0,.27-.54,1.44-.54,1.71v5c2.75-3.38,4.81-7.74,6.12-11.75,0-2.74,2.25-2.88,2.52-2.88,1.49,0,3.6,.85,3.6,2.52,0,.99-1.21,3.06-2.61,5.35h9.81Zm-24.39,14.8v-13.36h-3.42c-.54,0-.54,.22-.54,2.02s-.05,9-.05,11.34h4Zm18.9-5.71c.86-.99,1.94-1.58,2.79-1.58,1.39,0,3.51,1.39,3.51,3.11,0,.81-.27,.94-1.75,1.62-2.56,1.76-8.55,7.33-10.39,9.31-.45,.45-1.58,1.71-1.58,3.06,0,2.52,6.08,2.65,7.25,2.65,5.94,0,8.32-1.21,9.94-2.02,.45-.23,2.75-1.53,2.97-1.53,.45,0,.45,.32,.45,.45,0,.95-1.08,4.18-1.44,4.82-1.58,2.79-3.51,3.15-6.39,3.15-5.54,0-17.19-1.12-17.19-6.48,0-1.44,.81-3.06,2.02-4.82,.99-1.44,6.57-8.05,7.74-9.63l-5.45,.23c-.45,0-2.43,.85-2.88,.85-.54,0-1.21-.4-1.21-1.12,0-.99,.72-2.2,2.07-2.2,.22,0,1.3,.22,1.53,.22l8.01-.09Z"/><path class="cls-3" d="M129.42,264.04h-9.09v8.87h-3.83v-8.87h-9.04v-3.73h9v-8.86h3.83v8.86h9.13v3.73Z"/><path class="cls-3" d="M151.92,254.23c-.5,0-2.52,.72-2.97,.72-.81,0-1.08-.72-1.08-1.44,0-1.12,.77-2.21,1.98-2.21,.31,0,1.62,.27,1.89,.27h2.61c.22-1.44,.76-5.99,.76-6.48,0-.23-.67-1.17-.67-1.4,0-1.17,3.33-2.61,4.72-2.61,.22,0,2.12,0,2.12,1.62,0,.27-.5,2.43-.54,2.7l-1.35,6.12h1.76c.31-.41,.85-1.17,2.02-1.17,1.53,0,2.75,.9,2.75,2.52,0,1.84-1.12,9-3.74,14.58,1.8,1.04,4.5,2.57,4.5,5.27,0,1.71-1.58,2.43-2.38,2.43-.9,0-1.8-.86-2.34-1.58-.72-.99-1.58-2.11-2.25-2.92-4.14,5.04-9.76,6.57-11.43,6.57-.31,0-1.08,0-1.08-.36,0-.18,.14-.27,1.62-1.12,3.78-2.21,6.34-4.59,8.05-8.14-.5-.72-.95-1.08-1.35-1.35-.45,1.08-1.89,1.89-3.2,1.89-.27,0-2.02-.04-2.02-1.12,0-.72,1.53-4.86,1.8-5.76,0-.04,1.12-3.74,1.8-7.02h-1.98Zm6.7-.04l-2.61,10.71c1.21,.45,1.57,.58,2.02,.72,1.4-3.92,2.25-7.2,2.66-11.43h-2.07Zm12.06,9.09c-.67,0-1.39,0-1.8,.04-.5,.05-2.7,.81-3.15,.81-.94,0-1.3-.67-1.3-1.53,0-1.48,1.04-2.34,2.16-2.34,.27,0,1.35,.27,1.58,.27,1.08,.04,5.8-.04,6.75-.04-.18-1.03-1.48-5.98-2.92-6.79-.54-.32-.94-.54-.94-.86,0-.99,1.62-1.75,2.47-1.75,.63,0,1.17,.45,1.67,.9,.5-.86,2.7-4.5,3.1-5.27l-8.95,.27c-.32,0-1.44,.67-1.71,.76-.27,.13-.58,.18-.86,.18-.31,0-1.67-.05-1.67-1.31,0-1.17,1.12-2.65,2.39-2.65,.27,0,1.39,.18,1.62,.18h10.39c.77-.99,1.94-1.53,2.66-1.53,1.53,0,3.69,1.53,3.69,3.24,0,.81-.13,.95-8.59,8.37,1.85,3.19,2.29,4.54,2.66,6.25h4.95c1.04-1.89,2.29-2.52,2.97-2.52,1.53,0,3.51,1.89,3.51,3.51,0,1.26-1.17,1.8-2.29,1.8h-8.5c.36,2.39,.41,4.77,.41,6.43s0,11.07-7.02,11.07c-2.03,0-4.19-1.49-5.99-3.11-.81-.72-.9-.81-.9-.99,0-.22,.22-.27,.31-.27,.45,.22,2.52,.32,3.11,.32,4.54,0,5.08-3.65,5.08-8.96,0-2.61-.14-3.42-.27-4.5h-4.59Z"/><path class="cls-3" d="M194.62,273.49c-1.17,0-2.57-.81-2.57-2.21,0-.99,.63-2.02,2.16-2.16,1.44-.14,2.25-.23,3.46-.9,.22-.09,1.26-.86,1.53-.86,.41,0,.41,.23,.41,.45,0,1.71-2.16,5.67-4.99,5.67Zm32.94-27.94c.27-.72,1.35-1.44,2.29-1.44,1.12,0,3.1,1.08,3.1,2.25,0,.31-.31,.95-.41,1.12-.09,1.98,.14,11.74,.14,13.95,0,.72,0,1.26-.99,1.8-.76,.45-1.58,.63-2.34,.63-1.8,0-1.8-.31-1.8-1.48h-12.73c0,.76,0,.99-.72,1.44-.49,.36-1.67,.58-2.47,.58-.36,0-1.26,0-1.39-1.08-.5,.54-1.12,.81-1.85,.81-.94,0-1.57-.95-1.93-2.16-.22,.09-1.35,.45-1.62,.54,0,2.07,.18,12.28,.18,14.58s-2.21,3.29-3.38,3.29c-1.08,0-1.8-.63-1.8-1.53,0-1.08,.4-6.43,.45-7.65,.09-2.21,.18-5.04,.27-7.51-.99,.22-4,.9-5.54,.9-1.21,0-1.98-.81-1.98-1.94,0-.9,.85-1.84,1.84-1.89,.41,0,2.52,.04,2.97,.04,.54-.67,1.04-1.26,2.43-3.24-1.44-.4-2.83-.76-4.32-1.08-1.12-.23-1.71-.99-1.71-1.71,0-.49,.31-1.53,2.02-2.2,2.66-4.32,3.69-6.75,4.19-7.92-.09-.5-.09-.99-.09-1.04,0-1.35,2.43-1.71,3.33-1.71,1.35,0,3.06,.81,3.06,1.89,0,.81-.5,1.53-1.12,2.38-1.44,1.93-3.46,4.41-6.21,7.65,.63,.45,1.75,1.3,2.25,1.67,1.93-3.06,2.16-3.42,2.47-4.09v-.58c0-.95,2.03-1.58,2.88-1.58,1.12,0,2.61,.81,2.61,1.84,0,.41-.27,.95-.5,1.26-.9,1.3-6.12,7.11-7.25,8.46,1.35,0,1.98-.04,4-.09-.22-.41-1.39-2.34-1.39-2.38,0-.36,.36-.36,.54-.36,1.71,0,3.91,1.12,5.22,2.52,.13-5.08,.22-9.18,.22-13.36-.09-.13-.31-.54-.31-.63,0-.76,1.84-2.07,3.19-2.07,.45,0,1.53,.18,1.67,1.12h2.34c.13-.63,.81-3.73,.99-4.45,.31-1.21,1.3-1.84,2.52-1.84s3.11,.85,3.11,2.29c0,.76-.45,1.26-.68,1.48-.36,.41-2.25,2.12-2.65,2.52h6.88Zm-19.84,19.44c.67,0,1.4,.27,1.62,.9,.18,.45,.95,2.74,1.17,3.24,.09,.27,.9,1.57,.9,1.93,0,.45-.5,.63-.9,.63-1.17,0-4.54-2.43-4.86-4.86,.09-1.22,1.35-1.85,2.07-1.85Zm1.75,12.87c-1.57,0-2.52-1.17-2.52-1.98,0-1.35,1.04-1.75,1.98-2.11,.81-.27,2.48-.95,3.74-2.52,.67-.85,.76-.94,1.08-.94,.58,0,.63,.45,.63,.54,0,5.36-3.06,7.02-4.91,7.02Zm26.19-5.98c.5,0,.63,.41,.63,.63,0,.67-1.12,3.42-1.75,4.73-1.35,2.79-3.38,3.1-5.62,3.1-4.5,0-11.29-1.17-12.96-3.29-.81-1.03-.86-1.58-.86-6.97,0-.04,0-1.35-.04-1.71-.04-.27-.67-1.3-.67-1.57,0-1.26,2.25-2.84,3.73-2.84s1.62,1.08,1.62,1.76c0,.27-.18,1.62-.22,1.93-.09,.94-.32,3.51-.32,5.85,0,1.26,0,2.38,4.46,2.38,5.67,0,7.69-1.35,10.71-3.33,0-.05,.67-.5,.81-.54s.31-.13,.5-.13Zm-18-21.42c.31-.63,.99-2.07,1.35-2.92h-3.74c-.4,0-.49,.41-.49,.72v5c0,.4,0,.9,.04,1.3,1.03-.95,2.2-2.88,2.83-4.09Zm10.08,9.9v-12.82h-5.22c.18,.13,.32,.36,.32,.63,0,.76-.86,1.8-1.17,2.12h1.94c.18-.45,1.04-.86,1.62-.86,.81,0,2.07,.81,2.07,1.67,0,.36-.22,1.67-2.43,4.46,.81,.63,2.34,2.07,2.34,2.92,0,.5-.45,.81-.9,.81-.23,0-.5-.09-.63-.18-.45-.27-2.56-1.53-3.06-1.8-2.07,1.67-5.08,2.34-7.78,2.43v.63h12.91Zm-12.91-1.71c2.43-.94,3.73-1.71,5.04-3.06-.4-.13-.85-.22-1.21-.31-.18-.05-.63-.14-.63-.63,0-.63,1.12-1.48,2.03-1.48,.5,0,1.44,.54,1.8,.76,.45-.81,.76-1.49,.9-2.12h-2.38c-1.12,1.35-3.92,3.42-5.53,3.42v3.42Zm6.43,13.54c-.18,0-.95-.09-.95-.81,0-.31,.36-3.87,.58-5.26,.23-1.26,1.21-1.93,2.47-1.93,1.35,0,2.66,.94,2.66,1.98,0,1.26-3.1,6.03-4.77,6.03Zm5.08,.13c-.14,0-.9,0-.9-.76,0-.72,1.35-4.91,1.58-5.36,.4-.94,1.08-1.48,2.29-1.48,1.62,0,2.92,1.12,2.92,2.25,0,1.71-4.23,5.35-5.89,5.35Z"/><path class="cls-3" d="M250.6,261.29c-3.56,0-7.2,0-9.27,.27-.41,.04-2.03,.58-2.39,.58-.63,0-1.44-.31-1.44-1.08,0-.95,1.12-2.21,2.02-2.21,.18,0,.41,.04,1.26,.22,.27,.04,1.44,.04,1.8,.04,4.41,0,12.55,0,15.84-.09,.81-1.44,1.62-1.71,2.07-1.71,1.17,0,2.83,1.44,2.83,2.79,0,1.17-.67,1.17-1.71,1.17h-11.02Zm6.03-13.14c.67-1.26,1.62-1.62,2.16-1.62,1.12,0,2.83,1.3,2.83,2.61,0,1.08-1.4,1.08-1.8,1.08h-5.22c-.9,0-8.28,.14-9.9,.23-.4,.04-2.07,.45-2.38,.45-.72,0-1.53-.36-1.53-1.12,0-1.04,1.17-1.98,2.16-1.98,.27,0,1.44,.36,1.67,.36h4.14c0-1.53,0-3.19-.45-3.6-.68-.63-.72-.63-.72-.95,0-1.3,3.42-2.56,4.77-2.56,.81,0,1.98,.41,1.98,1.58,0,.18-.22,.9-.27,1.03-.09,.41-.32,1.75-.41,4.5h2.97Zm-8.82,27.99v1.04c0,1.12-2.34,2.02-3.33,2.02-1.49,0-1.62-1.26-1.62-1.89,0-1.49,.36-8.14,.36-9.5,0-.63,0-.67-.54-1.39-.09-.09-.13-.18-.13-.32,0-1.08,2.56-2.38,3.6-2.38,.41,0,1.44,.22,1.75,1.17h6.43c.45-.95,1.58-1.48,2.21-1.48,1.12,0,3.33,1.3,3.33,2.56,0,.09-.41,.76-.45,.9-.09,.13-.09,.18-.09,.67,0,1.26,.22,6.88,.22,8.19,0,1.84-2.38,2.47-3.55,2.47-1.89,0-1.93-.76-1.93-2.07h-6.25Zm.85-17.28c-1.44,0-5.04-4.23-5.04-5.45,0-.9,1.76-1.71,3.06-1.71,1.08,0,1.71,.58,2.02,1.17,.41,.86,.95,4.14,.95,5.13,0,.86-.86,.86-.99,.86Zm5.54,7.96c-.95,0-5.76-.04-5.94-.04-.36,.04-.5,.31-.5,.63v6.66h6.43v-7.24Zm-.58-7.96c-.13,0-.99,0-.99-.9s.72-4.37,.99-5.13c.22-.76,.94-1.35,2.11-1.35,1.35,0,2.93,.85,2.93,2.34,0,1.12-3.74,5.04-5.04,5.04Zm14.94-11.88v3.92c0,5.71,0,11.38,.09,16.51,.04,1.62,.27,8.73,.27,10.17,0,3.15-3.19,3.42-3.37,3.42-.14,0-2.21,0-2.21-1.84,0-.63,.22-3.51,.27-4.09,.32-8.64,.32-18.22,.32-20.97,0-5.98-.04-6.12-.77-6.84-.13-.14-.27-.36-.27-.59,0-1.35,2.43-3.15,3.73-3.15,.23,0,1.85,.09,2.03,1.21h4.18c.99-1.35,1.98-1.53,2.38-1.53,1.35,0,3.69,1.53,3.69,3.02,0,.49-.41,.85-1.04,1.53-.9,.9-4.32,6.53-4.32,7.33,0,.27,.05,.32,1.04,1.12,1.71,1.4,5.89,4.82,5.89,9.5,0,5.71-5.08,5.8-5.76,5.8-1.98,0-5.85-2.79-5.85-3.29,0-.09,.14-.22,.23-.22,.4,0,2.11,.22,2.47,.22,2.38,0,3.33-.86,3.33-3.73,0-3.69-2.03-5.81-3.38-7.07-1.39-1.26-1.58-1.39-1.58-1.75,0-.13,1.67-7.42,1.94-8.68h-3.33Z"/><path class="cls-3" d="M321.84,261.11h-23.04v-3.42h23.04v3.42Zm0,6.88h-23.04v-3.46h23.04v3.46Z"/><path class="cls-3" d="M343.53,254.23c-.5,0-2.52,.72-2.97,.72-.81,0-1.08-.72-1.08-1.44,0-1.12,.77-2.21,1.98-2.21,.31,0,1.62,.27,1.89,.27h2.61c.22-1.44,.76-5.99,.76-6.48,0-.23-.67-1.17-.67-1.4,0-1.17,3.33-2.61,4.72-2.61,.22,0,2.12,0,2.12,1.62,0,.27-.5,2.43-.54,2.7l-1.35,6.12h1.76c.31-.41,.85-1.17,2.02-1.17,1.53,0,2.75,.9,2.75,2.52,0,1.84-1.12,9-3.74,14.58,1.8,1.04,4.5,2.57,4.5,5.27,0,1.71-1.58,2.43-2.38,2.43-.9,0-1.8-.86-2.34-1.58-.72-.99-1.58-2.11-2.25-2.92-4.14,5.04-9.76,6.57-11.43,6.57-.31,0-1.08,0-1.08-.36,0-.18,.14-.27,1.62-1.12,3.78-2.21,6.34-4.59,8.05-8.14-.5-.72-.95-1.08-1.35-1.35-.45,1.08-1.89,1.89-3.2,1.89-.27,0-2.02-.04-2.02-1.12,0-.72,1.53-4.86,1.8-5.76,0-.04,1.12-3.74,1.8-7.02h-1.98Zm6.7-.04l-2.61,10.71c1.21,.45,1.57,.58,2.02,.72,1.4-3.92,2.25-7.2,2.66-11.43h-2.07Zm12.06,9.09c-.67,0-1.39,0-1.8,.04-.5,.05-2.7,.81-3.15,.81-.94,0-1.3-.67-1.3-1.53,0-1.48,1.04-2.34,2.16-2.34,.27,0,1.35,.27,1.58,.27,1.08,.04,5.8-.04,6.75-.04-.18-1.03-1.48-5.98-2.92-6.79-.54-.32-.94-.54-.94-.86,0-.99,1.62-1.75,2.47-1.75,.63,0,1.17,.45,1.67,.9,.5-.86,2.7-4.5,3.1-5.27l-8.95,.27c-.32,0-1.44,.67-1.71,.76-.27,.13-.58,.18-.86,.18-.31,0-1.67-.05-1.67-1.31,0-1.17,1.12-2.65,2.39-2.65,.27,0,1.39,.18,1.62,.18h10.39c.77-.99,1.94-1.53,2.66-1.53,1.53,0,3.69,1.53,3.69,3.24,0,.81-.13,.95-8.59,8.37,1.85,3.19,2.29,4.54,2.66,6.25h4.95c1.04-1.89,2.29-2.52,2.97-2.52,1.53,0,3.51,1.89,3.51,3.51,0,1.26-1.17,1.8-2.29,1.8h-8.5c.36,2.39,.41,4.77,.41,6.43s0,11.07-7.02,11.07c-2.03,0-4.19-1.49-5.99-3.11-.81-.72-.9-.81-.9-.99,0-.22,.22-.27,.31-.27,.45,.22,2.52,.32,3.11,.32,4.54,0,5.08-3.65,5.08-8.96,0-2.61-.14-3.42-.27-4.5h-4.59Z"/><path class="cls-3" d="M400.41,265.88c-.45,0-3.01,.04-3.33,.09-.4,.04-2.34,.63-2.74,.63-.23,0-1.35,0-1.35-1.12,0-.94,.54-2.25,1.94-2.25,.36,0,1.75,.27,2.02,.27h6.62l.04-7.88h-7.38c-2.97,4.63-7.56,7.33-9.94,7.33-.36,0-.45-.18-.45-.41,0-.09,1.8-2.16,2.12-2.61,4.05-5.18,5.58-10.21,5.8-11.47-.27-.77-.32-.9-.32-1.12,0-1.17,2.7-1.85,3.92-1.85,.67,0,2.7,.23,2.7,1.8s-2.07,5.53-2.29,5.94h5.76c0-4.63-.14-6.71-.23-7.92-.67-.67-.99-.95-.99-1.26,0-1.26,3.2-3.06,4.77-3.06,.58,0,2.21,.27,2.21,1.58,0,.32-.18,1.62-.18,1.89-.09,1.85-.18,6.53-.22,8.78h7.92c1.17-2.43,2.38-2.79,2.88-2.79,1.53,0,3.87,2.12,3.87,3.64,0,1.26-1.48,1.53-2.47,1.53h-12.19l-.04,7.88h4.9c.67-1.26,1.94-1.98,2.61-1.98,1.35,0,3.28,1.71,3.28,3.06s-1.66,1.3-2.2,1.3h-8.59c0,3.06,0,5.89,.04,9.63h9.76c1.39-2.11,2.75-2.47,3.33-2.47,1.66,0,4,1.75,4,3.46,0,1.17-1.26,1.58-2.25,1.58h-27c-.36,0-4.23,.09-4.59,.09-.58,.04-2.97,.72-3.46,.72-.86,0-1.49-.58-1.49-1.3,0-.81,.72-2.34,2.25-2.34,.63,0,3.24,.27,3.78,.27h10.21c.09-4.81,.09-5.94,.14-9.63h-3.15Z"/><path class="cls-3" d="M433.71,277.9c-1.49,0-3.46-.67-3.46-2.48,0-1.3,.81-2.61,2.61-2.61,2.52,0,3.51,0,5.13-.81,.45-.22,2.34-1.53,2.79-1.53,.27,0,.58,.22,.58,.5,0,1.8-2.61,6.93-7.65,6.93Zm19.57-24.93c.63-4.64,1.89-4.95,3.38-4.95s2.83,.9,2.83,1.89c0,1.08-2.25,2.61-2.88,3.06h8.73c.67-1.17,1.93-1.89,2.79-1.89,1.26,0,3.28,1.49,3.28,3.06,0,1.26-1.8,1.26-2.38,1.26h-32.35c-.54,0-2.79,.85-3.29,.85-.67,0-1.53-.41-1.53-1.3s.63-2.25,2.11-2.25c.32,0,1.75,.22,2.07,.22l8.82,.05c-.85-.68-2.47-2.03-2.47-3.02,0-1.17,2.21-1.89,3.15-1.89,1.12,0,2.48,.13,3.06,4.91h4.68Zm6.17-7.47c.67-1.35,1.89-1.71,2.47-1.71,1.17,0,3.15,1.44,3.15,2.74s-1.89,1.3-2.25,1.3h-21.24c-.4,0-2.25,.54-2.65,.54-.5,0-1.44-.27-1.44-1.22s.77-2.02,2.07-2.02c.36,0,1.8,.36,2.12,.36h6.52c0-.31-.13-1.8-.13-2.11-.67-.32-1.12-.67-1.12-1.08,0-1.26,3.29-2.7,4.86-2.7,.5,0,1.98,0,1.98,1.62,0,.32-.18,1.44-.23,1.67-.04,.4-.13,2.25-.18,2.61h6.08Zm-15.08,21.82c-.27,1.4-2.34,1.75-3.55,1.75-1.44,0-1.44-.9-1.44-1.44,0-1.26,.22-6.75,.22-7.88,0-.58-.04-.63-.5-1.08-.09-.09-.18-.18-.18-.31,0-1.08,2.7-2.21,3.78-2.21,.27,0,1.4,0,1.71,1.12h13.18c.86-1.04,1.71-1.35,2.25-1.35,1.04,0,3.74,1.44,3.74,2.48,0,.22-.14,.36-.54,.99-.09,.14-.13,.23-.13,.45,0,.32,.18,5.99,.18,6.17,0,2.52-3.51,2.52-3.87,2.52-1.44,0-1.67-.4-1.71-1.21h-13.14Zm-2.34,3.6c0-1.26,2.66-2.25,4.23-2.25,.99,0,1.57,.31,1.57,1.12,0,.77-.9,3.92-.9,4.59,0,1.08,0,2.03,5.62,2.03,4.18,0,9.54-.13,14.62-2.34,.54-.18,2.7-1.44,3.19-1.44,.36,0,.63,.18,.63,.49,0,.23-.63,2.75-2.16,4.68-1.26,1.67-2.25,2.52-8.05,2.52-7.83,0-11.65-.72-14.44-1.53-2.07-.58-3.55-1.39-3.55-3.73,0-.5,.13-2.7,.13-3.15-.67-.45-.9-.67-.9-.99Zm15.43-11.65h-12.64c-.31,0-.45,.27-.45,.54v1.58h13.09v-2.12Zm.04,4.05h-13.14v2.03h13.14v-2.03Zm-7.29,11.88c-.27,0-.81-.09-.81-.9,0-.4,.54-4.05,.81-4.72,.27-.58,1.08-1.3,2.47-1.3,1.21,0,2.56,.86,2.56,1.89,0,1.49-3.33,5.04-5.04,5.04Zm6.48,.13c-.45,0-.95-.27-.95-.85,0-.45,.72-3.29,.99-4.14,.5-1.4,2.52-1.4,2.65-1.4,1.31,0,2.66,.9,2.66,1.93,0,1.49-3.69,4.46-5.35,4.46Z"/></g><g><polygon class="cls-2" points="476.13 264.72 476.34 262.76 486.7 249.92 499.34 249.15 509.39 261.6 509.04 270.7 508.74 271.89 509.18 276.68 509.25 279.39 506.09 285.03 493.68 287.08 481.28 278.46 476.13 264.72"/><path class="cls-4" d="M490.71,276.7s.02-.01,.03-.02c0-.01,.01-.03,.01-.04-.02,0-.03,0-.04,.01,0,.02,0,.03,0,.05Z"/><path class="cls-4" d="M506.44,271.79c-.3-.06-.57-.07-.87,0-.36,.08-.69,.24-1.11,.15-.28-.06-.65,.16-.94,.31-.4,.2-.65,.54-.66,1.02-.01,.55-.08,1.11-.07,1.66,0,.64,.27,.91,.93,.98,.34,.03,.68,.01,1.02,0,.77-.03,1.53,0,2.28,.23,.52,.16,1.08,.22,1.61,.34,.19,.04,.4,.11,.57,.21,.02-.17,.05-.34,.11-.52,.11-.35,.14-.76,.07-1.12-.18-.88-.19-1.8-.5-2.66-.06-.17-.1-.34-.11-.5-.75,.11-1.49,.08-2.31-.1Z"/><path class="cls-4" d="M490.67,277.45c.02-.3,.03-.53,.04-.75-.31,.17-.27,.41-.04,.75Z"/><path class="cls-4" d="M499.34,259.4s-.03,.05-.05,.07c0,0,0,0,0,.01,.01,0,.02,0,.03,.01,0-.03,.02-.06,.02-.1Z"/><path class="cls-4" d="M494.47,253.57s-.05,.05-.08,.07c0,0,0,.02,0,.03,0,0,.02,0,.03,0,.02-.03,.04-.07,.06-.1Z"/><path class="cls-4" d="M509.27,280.28c0-.2,.02-.41,0-.61,0-.1-.02-.19-.03-.28-.16,.01-.33,.06-.49,.15-.07,.04-.19,.09-.24,.06-.45-.33-.83,.32-1.2,.1-.37-.22-.76,.21-1.11-.16,.23-.33,.47-.67,.7-1.01-.53-.49-.61-.56-1.09-.59-.64-.04-1.27-.07-1.89-.23-.26-.07-.54,.19-.48,.44,.25,1,.01,2.03,.31,3.04,.15,.52,.12,1.1,.1,1.65-.03,.76-.8,1.13-1.49,.76-.22-.12-.44-.24-.68-.32-1.15-.43-1.57-.8-2.3-2.04-.15-.24-.37-.45-.54-.65-.85,1.08-1.69,2.09-3,2.56-.6,.22-.8,.14-1.12-.44-.1-.19-.21-.37-.3-.54,.1-1.03,.64-1.72,1.55-2.18,.49-.25,.81-.74,1.14-1.18,.4-.54,.8-1.1,1.15-1.67,.22-.36,.34-.77,.56-1.13,.31-.5,.67-.97,.99-1.46,.14-.21,.23-.45,.37-.75-.67-.07-1.14,.25-1.64,.5-.53,.27-1.09,.48-1.38,1.05-.48-.06-.88-.16-1.22-.46-.04-.37,.11-.65,.29-.93,1.51-.23,2.79-.97,4.08-1.67,.39-.59,.08-1.25,.21-1.86,.03-.14-.17-.4-.32-.5-.36-.22-.76-.37-1.14-.56-.19-.09-.24-.38-.06-.54,.15-.13,.33-.24,.52-.31,.23-.09,.49-.11,.72-.21,.47-.2,.77-.51,.71-1.08-.03-.34-.01-.68-.01-1.02,0-.28-.1-.47-.38-.59-.16-.07-.24-.26-.13-.43,.09-.13,.24-.28,.37-.29,.42-.03,.86-.05,1.27,0,.75,.1,1.2,.66,1.18,1.42,0,.17-.06,.34-.07,.5-.01,.12,0,.24,0,.43,.33,.09,.65,.17,.96,.27,.42,.14,.55,.61,.24,.92-.2,.2-.46,.39-.73,.49-.36,.14-.55,.37-.63,.73-.11,.48-.44,.94-.2,1.51,.27-.05,.56-.08,.82-.17,.28-.1,.52-.29,.8-.38,.27-.09,.56,.1,.86-.05,.82-.41,1.66-.15,2.48,.05,.36,.09,.72,.22,1.08,.34,.04-.09,.09-.18,.14-.27,.21-.33,.34-.67,.33-1.07-.03-.75,.18-1.44,.54-2.09,.27-.46,.36-.98,.46-1.48,.12-.58,.16-1.17,.26-1.74,.06-.37,.18-.74,.23-1.11,.19-1.4,.36-2.8,.37-4.22,0-.76-.06-1.5-.3-2.25-.29-.88-.67-1.74-.78-2.69-.04-.32-.26-.63-.43-.93-.28-.5-.76-.82-1.21-1.12-.49-.33-.66-.75-.67-1.29,0-.1,0-.21-.04-.29-.4-.64-.8-1.28-1.1-1.98-.05-.12-.15-.24-.25-.32-.45-.32-.89-.66-1.37-.92-1.34-.73-1.83-1.06-3-2.14-.2-.19-.41-.4-.65-.51-.83-.37-1.68-.67-2.61-.6-.83,.06-1.67,.09-2.47,.27-.99,.23-1.97,.4-2.98,.3-.17-.02-.35,0-.52,0-.45,.01-.89-.02-1.33-.18-.32-.11-.67-.2-1-.19-.68,0-1.4-.16-2.02,.29-.16,.11-.32,.03-.5,0-1.08-.13-1.31-.1-2.19,.29-.6,.27-1.16,.61-1.54,1.18-.15,.23-.28,.48-.39,.73-.36,.83-.82,1.6-1.3,2.36-.3,.47-.66,.88-.95,1.35-.52,.83-1.18,1.51-1.92,2.14-.44,.37-.87,.81-1.12,1.35-.32,.69-.64,1.39-.94,2.09-.11,.25-.18,.53-.22,.8-.11,.68-.29,1.36-.24,2.06,.02,.3-.06,.62-.12,.93-.23,1.01-.45,2.03-.71,3.04-.09,.35-.14,.7-.17,1.05,.16-.29,.37-.52,.76-.61,.22-.05,.44-.16,.63-.27,1.28-.8,2.54-1.62,3.84-2.39,.46-.27,.98-.46,1.5-.59,.64-.15,1.02-.53,1.23-1.11,.51-1.45,1.05-2.9,1.37-4.42,.13-.61,.13-1.23-.14-1.83-.08-.18-.13-.39,.08-.51,.21-.12,.48-.12,.65,.05,.18,.19,.38,.45,.39,.68,.03,.77,.02,1.55-.06,2.32-.08,.69-.25,1.37-.42,2.04-.12,.48-.31,.95-.47,1.44,.37,.34,.76,.4,1.23,.33,.18-.44,.13-.91,.21-1.35,.01-.06,.09-.17,.13-.17,.1,0,.26,.04,.29,.11,.18,.34,.34,.7,.47,1.06,.16,.43,.28,.88,.41,1.29-.17,.6-.31,1.2-.51,1.78-.2,.58-.46,1.15-.7,1.74,.02,.23,.14,.41,.4,.47,.51,.13,.87,.42,1.11,.91,.18,.37,.52,.66,.77,1.01,.11,.15,.16,.34,.22,.48-.35,.42-.77,.47-1.2,.35-.52-.14-1.03-.31-1.55-.44-.35-.09-.64-.4-.92-.59-.58,.25-1.12,.57-1.71,.73-.63,.17-1.27,.28-1.9,.47-.22,.07-.51-.08-.79-.14,.51-.66,1.2-1,1.88-1.3,.48-.21,.88-.48,1.23-.92-.21-.11-.41-.31-.6-.3-.42,.02-.8-.28-1.24-.07-.15,.07-.46-.22-.48-.41-.05-.58-.12-1.16,.35-1.64,.13-.13,.23-.31,.31-.48,.08-.16,.12-.35,.17-.53-.71-.1-1.29,.1-1.74,.63-.63,.76-1.56,1.14-2.29,1.77-.23,.2-.51,.36-.73,.57-.66,.64-1.38,.77-2.22,.35,0,.14,0,.27,0,.41,0,.72,.1,1.42,.04,2.15-.05,.66-.05,1.36,.22,2.02,.06,.16,.08,.34,.12,.51,.3,1.32,.62,2.62,1.17,3.87,.31,.69,.44,1.46,.53,2.21,.07,.58,.06,1.17,.11,1.75,.08,.81,.34,2.11,.7,2.77,.35,.65,.7,1.27,1.14,1.86,.29,.39,.58,.79,.8,1.21,.33,.64,.82,1.13,1.39,1.52,.77,.53,1.6,.96,2.49,1.29,.58,.22,1.16,.46,1.72,.74,.65,.32,1.3,.68,1.75,1.27,.91,1.17,2.3,1.62,3.52,2.31,.46-.04,.73,.39,1.14,.46,.82,.12,1.44,.63,2.11,.98,.05,.22,.08,.39,.13,.62,.54,.09,.98,.14,1.42-.03,.31-.12,.6-.09,.91,.02,.25,.09,.55,.13,.82,.09,.95-.16,1.93-.27,2.74-.88,.24-.19,.55-.26,.76-.52,.24-.3,.63-.13,.96-.16,.06,0,.12-.06,.19-.09,.43-.17,.79-.45,1.12-.75,.62-.57,1.1-1.25,1.43-2.02,.07-.16,.12-.3,.29-.4,1.17-.72,2.02-1.78,2.84-2.84,.32-.41,.62-.93,.49-1.54-.03-.16,.02-.35,.06-.51,.15-.59,.14-1.17,.04-1.76-.03-.2,0-.41,0-.61Zm-18.97-20.43c1.49-.39,2.99-.79,4.56-1.21-.04-.12-.05-.27-.13-.37-.21-.27-.6-.35-.76-.7-.04-.09-.26-.1-.4-.14-.18-.05-.36-.09-.59-.15,.08-.32,.12-.58,.22-.82,.14-.32,.32-.62,.52-.9,.41-.57,.66-1.19,.65-1.9-.14,.02-.29,.02-.42,.08-.21,.1-.38,.26-.58,.37-.91,.51-2.05,.72-3.08,.08-.02-.19,.08-.28,.25-.31,.73-.14,1.4-.44,2.02-.84,.62-.39,1.28-.69,1.9-1.1,.66-.43,1.41-.62,2.19-.17,.33,.19,.71,.32,1.06,.48,.31,.14,.47,.4,.46,.74,0,.35-.07,.68-.3,.97-.55,.7-1.05,1.43-1.6,2.13-.33,.42-.7,.79-1.07,1.21,.39,.3,.78,.61,1.17,.93,.71-.06,1.43-.26,2.15,.03,.13,.05,.31,.01,.45-.03,1.09-.37,2.03-.09,2.9,.62,.33,.27,.72,.46,.83,.93-.08,.37-.44,.51-.7,.45-.9-.21-1.67,.14-2.44,.45-.42,.17-.74,.11-1.08-.16,.26-.35,.52-.71,.78-1.06-.64-.26-1.29-.4-1.96-.13-.23,.38-.05,.68,.08,1.01,.54,1.38,.69,2.83,.75,4.3,.03,.93-.39,1.63-.94,2.29-.07,.08-.24,.18-.29,.14-.37-.22-.65,.11-.98,.15-.23,.03-.44,0-.66,0-.4,0-.8-.1-1.21,.08-.79,.35-1.39-.2-2.02-.54-.06-.03-.1-.12-.12-.19-.13-.46-.26-.93-.4-1.48,.22,.03,.41,.03,.58,.09,.48,.17,.91,.06,1.34-.16,.66-.34,1.23-.8,1.71-1.36,.35-.41,.63-.86,.6-1.46-.03-.58,.04-1.16,.04-1.74,0-.14-.1-.28-.16-.45-.84,.03-1.58,.37-2.37,.48-.78,.11-1.46,.45-2.11,.78-.47-.14-.83-.35-1.1-.77,.07-.19,.15-.4,.24-.66Zm1.51,19.59c-.42-.49-.77-.91-1.2-1.42-.03,.42,.24,.79-.13,1.09-.29,.24-.5,.57-.77,.89-.52-.35-.91-.67-1.35-.88-.2-.1-.5,0-.55-.34-.15-1.02-.71-1.89-1.1-2.87,.82-1.64,1.65-3.29,2.88-4.71,.35,.24,.47,.58,.46,.97,0,.39,.08,.76,.41,1.1,.29,.02,.62,.02,.95,.07,.5,.06,.98,.19,1.39,.54,.42,.36,.63,.32,.94-.09,.15-.19,.2-.49,.54-.43,.38,.07,.53,.33,.65,.69,.3,.93,.09,1.75-.43,2.53-.31,.46-.66,.89-.92,1.37-.38,.71-.96,1.15-1.76,1.5Z"/><path class="cls-4" d="M490.76,276.64c.09-.01,.2,0,.06-.16-.02,.05-.04,.11-.06,.16Z"/><path class="cls-4" d="M500.39,276.71c-.32,1.23-.96,2.05-1.06,3.06q1.06,.5,1.73,.4c.03-.15,.09-.31,.08-.47-.05-.72-.1-1.43-.21-2.14-.03-.21-.25-.4-.55-.85Z"/><path class="cls-4" d="M485.95,262.41c.19-.46,.35-.93,.5-1.41,.05-.18,.09-.38-.13-.56h-.94c-.62,.49-.99,1.1-1.26,1.86,.41,.18,.74,.42,1.17,.46,.31,.03,.55-.07,.66-.35Z"/></g><g><path class="cls-1" d="M213.13,185.57s5.34-6.38,14.95-6.79l3.68-.32-.42-2.36-19.29-5.62-17.52-15.3-4.86-12.67-3.23-2.83-6.58-18.86s14.47-18.16,14.68-18.4,58.14-22.68,58.14-22.68l35.16,31.71,6.91,25.12-4.19,9.21-7.76,5.96-6.1,2.51-6.67,9.64-15.8,8.29-3.69,1.71v4.15l3.69-1.15s10.49,.11,14.18,6.18c3.7,6.07-2.64,33.58-2.64,33.58l-55.79,.44h-2.43l3.34-27.84,2.26-3.67"/><path class="cls-3" d="M236.81,176.87c-16.17,.39-31.45-6.46-41.82-19.74-11.31-14.47-8.2-42.26-8.06-43.44,.08-.67,.7-1.15,1.37-1.07,.68,.08,1.16,.68,1.09,1.35-.03,.28-3.13,27.98,7.56,41.67,9.87,12.63,24.42,19.15,39.83,18.78,7.76-.19,15.72-2.12,23.43-5.9,17.25-8.46,23.24-31.41,25.01-40.88,.16-.84,.35-1.89,1.53-1.75,1.17,.14,1.11,1.23,1.06,2.03-.01,.25-.11,.48-.25,.67-2.37,12.3-8.9,33.61-26.25,42.12-8.05,3.95-16.38,5.97-24.5,6.17Z"/><path class="cls-1" d="M220.16,216.89h0l-10.7-20.47s1.63-9.5-.96-16.72,0-17.99,0-17.99l-4.41-.65-4.57,7.1-.61,8.72-10.37-1.43-1.86,17.08,1.86,2,2.22,3.9,9.59,2.31,5.56,16.14h14.25Z"/><path class="cls-3" d="M188.35,142.47c-.1,0-.2-.03-.3-.11-7.18-5.56-5.7-22.23-5.63-22.94,.06-.66,.43-1.1,.81-.97,.39,.13,.65,.77,.59,1.43h0c-.01,.15-1.37,15.5,4.78,20.26,.36,.28,.53,1,.38,1.62-.11,.44-.36,.71-.62,.72Z"/><path class="cls-3" d="M279.86,154.25c-.64,.02-1.19-.46-1.26-1.1-.07-.67,.42-1.27,1.1-1.34,11.56-1.17,13.22-17.26,13.23-17.43,.06-.67,.67-1.16,1.35-1.1,.68,.06,1.18,.66,1.12,1.33-.07,.74-1.86,18.25-15.44,19.63-.03,0-.07,0-.1,0Z"/><path class="cls-3" d="M193,141.71c-.07,0-.15-.01-.22-.05l-3.87-1.88c-.3-.15-.45-.57-.34-.95,.11-.38,.44-.57,.74-.42l3.87,1.88c.3,.14,.45,.57,.34,.95-.08,.29-.3,.46-.52,.47Z"/><path class="cls-3" d="M193.22,144.14c-.07,0-.15-.01-.22-.05l-3.87-1.88c-.3-.14-.45-.57-.34-.95,.11-.38,.44-.57,.74-.42l3.87,1.88c.3,.15,.45,.57,.34,.95-.08,.29-.3,.46-.52,.47Z"/><path class="cls-3" d="M271.85,148.82c-.51-.04-.91-.41-.89-.83,.02-.43,.46-.75,.98-.72l6.75,.4c.52,.03,.93,.4,.91,.83-.02,.43-.46,.75-.98,.72l-6.75-.4h-.02Z"/><path class="cls-3" d="M270.9,151.33c-.51-.04-.91-.41-.89-.83,.02-.43,.46-.75,.98-.72l6.75,.4c.54,.04,.93,.4,.91,.83-.02,.43-.46,.75-.98,.72l-6.75-.4h-.02Z"/><path class="cls-3" d="M245.09,127.74c.19,0,.39-.07,.54-.21h0c.27-.24,6.79-5.89,14.94-1.16,.39,.23,.89,.09,1.11-.3,.23-.39,.09-.89-.3-1.11-9.19-5.34-16.77,1.29-16.84,1.36-.34,.3-.36,.82-.06,1.15,.16,.18,.38,.27,.61,.27Z"/><path class="cls-3" d="M270.06,181.14c-10.12-6.64-22.67-8.49-32.06,35.74l29.59-.12s12.6-28.99,2.47-35.62Z"/><polygon class="cls-3" points="239.23 178.91 238.27 189.24 254.21 176.88 239.23 178.91"/><polygon class="cls-3" points="232.3 178.38 225.14 179.04 221.78 187.63 228.55 181.3 232.3 178.38"/><polygon class="cls-3" points="238.08 180.39 224.09 197.49 236.6 191.3 238.08 180.39"/><polygon class="cls-3" points="230.95 180.34 222.36 188.49 223.15 197.2 230.95 180.34"/><path class="cls-3" d="M223.54,179.7s-8.88,16.21-8.06,18.86c.82,2.65,20.95,2.14,20.95,2.14l9.15-15.92-7.5,5.86v1.44l-15.67,7.36-1.18-10.59-1.03,.1,3.34-9.24Z"/><path class="cls-3" d="M211.24,188.48s.99-6.22,9.21-8.09l-6.42,13.88-2.79-5.79Z"/><circle class="cls-3" cx="256" cy="133.14" r="5.31"/><path class="cls-3" d="M251.27,178.85s.1,0,.15-.01c.44-.08,.74-.5,.66-.95l-.75-4.15c-.08-.44-.5-.74-.95-.66-.44,.08-.74,.5-.66,.95l.75,4.15c.07,.39,.41,.67,.8,.67Z"/><path class="cls-3" d="M231.34,179.37s.06,0,.09,0c.45-.05,.77-.46,.72-.9l-.37-3.25c-.05-.45-.46-.76-.9-.72-.45,.05-.77,.46-.72,.9l.37,3.25c.05,.42,.4,.72,.81,.72Z"/><path class="cls-3" d="M242.82,120.32c-.6-.28-1.14-.76-1.34-1.41-.19-.63-.04-1.32,.14-1.95,.11-.39,.23-.79,.53-1.05,.03-.03,.07-.05,.1-.08,.14-.1,.31-.17,.47-.23,1.77-.66,3.63-.49,5.46-.76,1.05-.15,2.1-.3,3.15-.46,1.27-.19,2.56-.6,3.86-.48,.67,.06,1.26,.29,1.81,.68,.38,.27,1.25,.75,1.3,1.26,.06,.65-1.35,1.03-1.82,1.22-.63,.26-1.25,.52-1.88,.78-1.59,.66-3.19,1.33-4.82,1.9-2.17,.76-4.74,1.6-6.96,.57Z"/><path class="cls-3" d="M220.03,119.05c.6-.28,1.14-.76,1.34-1.41,.19-.63,.04-1.32-.14-1.95-.11-.39-.23-.79-.53-1.05-.03-.03-.07-.05-.1-.08-.14-.1-.31-.17-.47-.23-1.77-.66-3.63-.49-5.46-.76-1.05-.15-2.1-.3-3.15-.46-1.27-.19-2.56-.6-3.86-.48-.67,.06-1.26,.29-1.81,.68-.38,.27-1.25,.75-1.3,1.26-.06,.65,1.35,1.03,1.82,1.22,.63,.26,1.25,.52,1.88,.78,1.59,.66,3.19,1.33,4.82,1.9,2.17,.76,4.74,1.6,6.96,.57Z"/><path class="cls-3" d="M155.86,81.25c.61-4.43,3.04-3.29,2.6-7.31-.44-4.02,1.06-3.25,3.28-5.89,.52-.62,.95-1.65,.89-2.44-.51-6.06,1.34-10.89,4.81-14.86,1.16-1.33,2.5-2.57,3.99-3.72,.94-.73,2.1-1.2,3.22-1.56,.37-.12,.62-.27,.82-.48,.18-.23,.28-.52,.33-.92,.55-4.19-3.76-6.68-1.18-9.98,.49-.62,.99-1.21,1.53-1.77,1.58-1.69,3.37-3.1,5.44-4.14,.25-.12,.45-.27,.64-.44,.51-.52,.8-1.19,1.08-1.91,.86-2.26,2.04-4.2,3.55-5.75,1.52-1.59,3.38-2.79,5.62-3.54,2.03-.68,4.22-.8,6.25-1.48,1.18-.39,2.39-1.2,3.23-2.16,4.49-5.13,10.3-6.13,16.39-6.36,.61-.02,1.27-.1,1.82,.1,2.06,.76,3.71,.19,5.49-1.17,3.28-2.5,6.9-3.11,10.71-1.39,.35,.16,.95-.03,1.34-.24,2.99-1.66,6.21-2.78,9.48-2.32,2.9,.4,5.42-.36,8.1-1.17,3.75-1.13,6.83,.7,9.68,2.93,.77,.6,1.4,.76,2.35,.51,3.37-.9,6.54-.35,9.34,1.84,1.01,.79,1.99,1.66,2.82,2.64,1.22,1.44,2.95,1.54,4.49,2.03,2.36,.75,4.25,2.12,5.69,4.13,1.23,1.72,2.24,3.61,3.4,5.39,.24,.38,.66,.71,1.07,.87,3.8,1.46,6.81,4.02,9.12,7.46,.68,1.02,1.08,2.32,1.37,3.55,.36,1.5,1.08,2.69,2.18,3.63,2.17,1.85,3.29,4.3,3.84,7.16,.13,.68,.66,1.39,1.2,1.83,.66-1.25,1.75,.25,1.75,.25,0,0,.09,.36,1.08,3.26,.2,.58,.52,1.16,.93,1.59,3.48,3.68,2.78,2.02,2.74,7.27-.01,1.59,2.82,4.73,3.32,6.1,2.24,6.14,2.62,7.76,.25,13.87-.3,.78-.27,1.25,.19,1.86,5.23,7.14,3.36,16.12,3.36,16.12,0,0,.48,9.78-2.27,12.56-.91,.92-1.93,1.76-3.08,2.49-.1,.06-.19,.16-.27,.27-.22,.3-.37,.74-.43,1.1-.45,2.69-1.72,4.9-3.33,6.92,.05,1.58-.56,4.15-3.71,7.39,0,0-1.85,10.88-9.35,13.56,0,0-2.66,10-13.03,8.44,0,0,3.79-10.39,3.74-10.33-.01,.01,.08-.86,.22-2.2-2.2,1.55-5.07,2.1-7.99,4.42-5.46,4.33-6.31,7.04-6.31,7.04l-8.39-.42,1.74-4.71c.26-.72,3.47-9.75,1.86-18.5-1.95-2.92-3.15-6.17-3.36-9.86-.06-1.06-.69,2.73-6.36,3.11-5.67,.38-7.62-3.96-9.84-7.49-.6-.01-1.2-.05-1.79-.13-2.09,.62-4.36,.67-6.38,.09-.2-.02-.4-.03-.59-.06-.85-.12-1.68-.32-2.5-.59-1.61,.83-3.38,1.39-5.19,1.71-1.35,.41-2.77,.53-4.19,.37-.52,0-1.03,0-1.53-.04-5.17-.3-10.01-2.07-13.52-5.71-.09-.03-.17-.07-.25-.1-.04,.06-.09,.11-.14,.16-.27,.35-.55,.69-.83,1.01-.12,.14-.24,.28-.36,.41-.4,.43-.81,.83-1.24,1.2-2.8,2.47-6.22,3.8-10.12,4.14-1.46,.13-2.98-.28-4.44-.62-.87-.2-1.56-.19-2.13,.33-.16,.16-.3,.36-.44,.61-.44,.8-1.11,1.47-1.64,2.22-.51,.72-1.05,1.38-1.6,2.01-.22,.25-.45,.48-.67,.71-.26,.27-.53,.54-.8,.8-.4,.37-.8,.73-1.22,1.05-.05,.04-.1,.08-.15,.12-.35,.27-.62,.44-.83,.53l.51,20.44-4.85-2.35s.1-5.77-2.06-11.1c-.93-2.31-2.05-3.57-2.93-5.01-.21,.72-.35,1.15-.35,1.14-.04-.07,.27,10.97,.27,10.97-13.43-1.65-12.51-11.97-12.51-11.97-8.12-4.82-5.83-15.74-5.83-15.74-2.32-3.71-2.23-6.23-1.64-7.77-3.28-1.97-8.35-9.48-7.44-16.04Z"/><path class="cls-3" d="M218.5,137.07c.35,0,.7-.13,.96-.4,.53-.53,.53-1.39,0-1.92-.22-.22-5.34-5.25-10.24-5.25-.02,0-.04,0-.07,0-1.78,.02-3.31,.67-4.55,1.95-.52,.54-.51,1.4,.03,1.92,.54,.52,1.4,.51,1.92-.03,.72-.75,1.58-1.12,2.62-1.13,.02,0,.03,0,.05,0,3.13,0,7.06,3.22,8.32,4.46,.27,.26,.61,.39,.96,.39Z"/><path class="cls-3" d="M232.83,165.19c4.86,0,8.61-1.43,11.13-4.26,4.07-4.55,3.39-11.01,3.36-11.28-.06-.55-.53-.97-1.08-.97h-27.74c-.58,0-1.06,.46-1.09,1.03-.01,.27-.27,6.69,4.04,11.22,2.69,2.82,6.52,4.25,11.38,4.25Zm12.37-14.33c0,1.81-.3,5.76-2.87,8.63-2.09,2.33-5.29,3.52-9.5,3.52s-7.54-1.2-9.8-3.58c-2.73-2.87-3.31-6.75-3.42-8.57h25.59Z"/><path class="cls-3" d="M220.19,217.97c.17,0,.34-.04,.5-.12,.53-.28,.74-.94,.46-1.47l-10.16-19.38c.22-1.9,1.06-10.8-2.06-17.08-3.1-6.23,.04-17.06,.07-17.16,.13-.45-.04-.94-.43-1.2-.1-.07-2.57-1.73-5.18-.4-3.07,1.56-4.74,6.54-4.96,14.79-.02,.6,.46,1.1,1.06,1.12,.6,.03,1.1-.46,1.12-1.06,.26-9.67,2.47-12.24,3.76-12.91,.86-.45,1.74-.29,2.31-.07-.73,2.86-2.65,11.91,.31,17.87,3.14,6.32,1.83,16.07,1.81,16.17-.03,.22,0,.45,.11,.66l10.32,19.68c.19,.37,.57,.58,.96,.58Z"/><path class="cls-3" d="M206.42,217.97c.11,0,.23-.02,.35-.06,.57-.19,.88-.81,.69-1.38l-5.63-16.83c-.13-.39-.47-.68-.88-.73l-9.23-1.26c-1.22-.62-1.96-1.34-2.13-2.09-.2-.87,.38-1.63,.39-1.64,.23-.29,.29-.68,.17-1.03-.12-.35-.41-.62-.77-.7-1.18-.28-1.4-.8-1.48-.98-.42-.98,.31-2.59,.6-3.08,.21-.36,.2-.82-.03-1.16-1.41-2.1,1.02-4.23,1.12-4.32,.25-.21,.39-.53,.38-.85,0-.33-.16-.63-.42-.83-.53-.41-.82-.89-.88-1.45-.1-.88,.37-1.87,.74-2.47l12.87,1.25c.6,.06,1.13-.38,1.19-.98,.06-.6-.38-1.13-.98-1.19l-13.5-1.32c-.36-.04-.72,.11-.95,.39-.18,.22-1.79,2.26-1.54,4.55,.09,.76,.38,1.46,.85,2.07-1.12,1.35-2.15,3.54-1.03,5.77-.45,.94-1.12,2.82-.43,4.45,.24,.57,.73,1.28,1.7,1.79-.2,.59-.32,1.34-.14,2.17,.33,1.48,1.49,2.71,3.46,3.67,.1,.05,.22,.08,.33,.1l8.74,1.19,5.41,16.19c.15,.46,.58,.74,1.03,.74Z"/></g></g></g></svg>