<?xml version="1.0" encoding="UTF-8"?><svg id="_圖層_2" xmlns="http://www.w3.org/2000/svg" viewBox="0 0 120 120"><defs><style>.cls-1{fill:none;opacity:.5;}.cls-2{fill:#0f2c51;}.cls-3{fill:#0e2c50;}</style></defs><g id="_圖層_1-2"><g><rect class="cls-1" width="120" height="120"/><g><g><path class="cls-3" d="M45.15,101.04c-.09,.09-.15,.15-.29,.24,.15,.06,.5,.18,.62,.47,.15,.38,1.06,1.77,1.38,2.27,.32-.29,2.83-2.39,2.92-2.45,.32-.21,.71-.24,.88-.24,.74,0,1.74,.5,1.74,1.44,0,.77-.8,1.15-1.12,1.24-.15,.06-3.12,.71-3.45,.77,2.48,2.12,6.84,3.12,8.75,3.42,.26,.03,1.53,.24,1.53,.41,0,.21-3.3,2.5-4.54,2.5-.53,0-5.75-1.33-8.93-7.22-.15-.27-.8-1.62-.88-1.68-.77,.68-1.8,1.41-2.06,1.59v3.83c.68-.12,4.04-.8,4.36-.8,.21,0,.32,.18,.32,.32,0,.47-2.36,1.47-3.04,1.74-2.39,.88-6.04,1.65-6.87,1.65-.91,0-1.65-.71-1.65-1.47,0-.53,.41-.91,.85-1.06,.12-.03,1.83-.18,2.74-.24v-2.59c-3.12,1.8-6.66,2.06-7.63,2.06-.35,0-1.53,0-1.53-.38,0-.12,.09-.12,.85-.32,4.27-1.15,8.49-3.71,10.14-5.51h-3.95c-.59,0-1.53,.15-1.65,.21-.53,.15-1.06,.32-1.3,.32-.56,0-.88-.27-.88-.68,0-.56,.59-1.38,1.36-1.38,.12,0,.68,.09,.79,.09,.21,.03,.5,.06,1.42,.06h6.22c0-.27-.03-.62-.06-.88-.18-.12-.44-.35-.44-.56,0-.56,2.03-1.15,2.74-1.15,.88,0,1,.41,1,.82,0,.24-.15,1.47-.18,1.77h6.1c.27-.47,1.03-1.27,1.62-1.27,.71,0,2.33,.85,2.33,1.86,0,.41-.35,.8-1.12,.8h-9.1Zm-6.72-13.35c0-.29,0-1.06-.06-1.3l-.24-.27c-.12-.15-.15-.27-.15-.38,0-.56,1.56-1.5,2.39-1.5,.62,0,1.21,.38,1.21,.94,0,.12-.09,.59-.12,.71-.24,1.71-.24,4.33-.24,5.27v1.21c0,.59,.06,3.54,.06,4.21,0,1.18-.68,2.03-1.86,2.03-.85,0-1.27-.59-1.27-1,0-.59,.21-3.42,.24-4.07h-1.24c-.94,4.83-5.27,5.39-5.51,5.39-.15,0-.26-.09-.26-.21s1-.97,1.18-1.18c1.44-1.53,1.65-3.12,1.77-4.04l-.85,.03c-.18,0-1,.27-1.18,.27-.27,0-.83-.18-.83-.59,0-.24,.12-1,1.21-1,.12,0,.77,.09,.91,.09h4.83c0-.29,.06-1.74,.06-2.06h-2.33c-.09,.65-.09,.77-.5,1-.41,.24-1.03,.38-1.47,.38s-1-.27-1-.65c0-.47,.18-2.8,.18-3.33v-.71c-.15-.15-.32-.29-.32-.5,0-.53,1.36-1.33,2.15-1.33,.06,0,1.21,.03,1.21,.68,0,.18-.06,.65-.09,.83-.06,.53-.12,2.03-.12,2.42h2.24v-1.36Zm14.5,2.09c.32-.41,1-1.24,1.71-1.24,.8,0,2.45,1.03,2.45,1.94,0,.71-.82,.77-1.38,.77h-5.83c0,.53-.06,3.06-.06,3.62h2.12c.83-1.24,1.42-1.24,1.56-1.24,.71,0,2.06,1.06,2.06,1.94,0,.71-.94,.71-1.5,.71h-9.19c-.26,0-1.59,.32-1.89,.32-.32,0-.85-.06-.85-.65,0-.53,.44-1.18,1.27-1.18,.15,0,.97,.09,1.15,.09h2.12l-.03-3.62h-2.77c-.24,0-1.33,.47-1.59,.47-.8,0-.85-.35-.85-.62,0-.59,.41-1.41,1.24-1.41,.12,0,.74,.09,.88,.09h3.04c-.06-1.65-.09-2.92-.15-3.01-.18-.27-.24-.35-.24-.62,0-.82,1.94-1.86,2.74-1.86,.24,0,1.24,.06,1.24,1.18,0,.15,0,.18-.06,.62-.06,.24-.18,1.89-.21,3.68h3.03Z"/><path class="cls-3" d="M67.22,85.58c1.09,0,2.09,.71,2.09,1.59,0,.47-.27,.83-.41,1.03-.32,.41-.62,.68-3.24,3.15,0,1.68-.09,9.84-.09,11.7,0,.77,.06,4.51,.06,5.36,0,.62,0,.91-.38,1.38-.5,.68-1.38,1.09-2.06,1.09s-1.24-.32-1.24-1.03c0-.47,.18-2.71,.21-3.24,.27-4.42,.35-9.43,.44-13.14-.68,.35-2.03,1.09-3.3,1.09-.29,0-.77-.06-.77-.27,0-.06,.09-.12,.94-.74,3.24-2.33,5.13-5.16,6.22-6.9,.15-.41,.35-1.09,1.53-1.09Zm14.76,4.74c-.03,1.83-2.56,4.63-2.65,4.71,2.15,1.62,5.83,2.33,7.01,2.53l1.27,.24c.21,.03,.26,.06,.26,.21,0,.24-2.24,1.77-2.59,2-.41,.27-.85,.56-1.5,.56-.38,0-3.48-.74-6.66-3.8-3.24,2.8-7.07,3.06-7.54,3.09,.03,1.89,.06,4.45,.06,5.6,0,.09,0,.5-.09,.68-.21,.56-1.21,1.12-1.77,1.12-.27,0-.59-.12-.85-.29-.35-.29-.35-.5-.35-.88,0-.53,.15-3.04,.18-3.62,.06-2.27,.15-5.36,.15-8.49,0-.06,0-.68-.03-.85-.03-.15-.47-.68-.47-.83,0-.68,1.59-1.8,2.5-1.8,.29,0,.94,.09,.94,.85,0,.27-.18,1.74-.21,2.06,1.47-1.77,3.39-5.48,3.8-7.34,.12-.56,.32-1.47,1.74-1.47,.88,0,2.18,.68,2.18,1.5,0,.65-1.09,2.39-1.38,2.86h5.16c.32-.65,1.12-1.36,1.77-1.36,.74,0,2.21,.91,2.21,1.92,0,.77-.88,.8-1.44,.8h-1.68Zm1.44,16.35c-.88,.68-5.33,3.98-13.08,3.98-2.09,0-2.5-.41-2.5-.56,0-.24,.35-.29,.47-.32,8.4-1.27,12.46-4.92,13.26-5.86,.62-.74,.74-.85,1.38-.85,1.06,0,2.21,1.06,2.21,1.77,0,.47-.18,.62-1.74,1.86Zm-10.05-15.06c-1.97,1.89-3.15,2.18-3.74,2.33-.06,2.89-.09,3.62-.09,5.19,1.97-.88,4.1-2.36,5.51-4.15-.74-1.15-1.3-2.06-1.68-3.36Zm4.12,6.6c.91,0,1.83,.77,1.83,1.36,0,1.06-4.6,3.86-8.07,3.86-.26,0-1.41,0-1.41-.32,0-.18,.47-.35,.71-.41,.18-.06,.5-.21,.56-.24,4.24-1.97,5.22-3.51,5.42-3.8,.15-.21,.35-.44,.97-.44Zm-4.01,6.81c1.59-.68,4.71-2.65,5.3-3.42,.5-.65,.65-.83,1.21-.83,.74,0,1.83,.88,1.83,1.5,0,.38-.27,.62-.74,.97-.12,.06-5.01,3.54-8.84,3.54-.41,0-1.92-.03-1.92-.47,0-.18,.12-.18,.38-.27,1.5-.44,2.62-.97,2.77-1.03Zm1.33-14.7c.32,1.06,.8,1.89,1.77,3.21,.41-.65,1.21-2,1.38-3.21h-3.15Z"/></g><g><path class="cls-2" d="M87.68,38.7c2.59-1.63,4.1-4.33,4.32-7.16,.03-.42-.43-.69-.78-.47l-5.45,3.52-5.14-2.46-.13-5.69,5.45-3.52c.35-.23,.29-.76-.1-.9-2.6-.93-5.59-.71-8.12,.88-3.28,2.07-4.84,5.84-4.24,9.44l-22.14,14.32c-2.97-1.98-6.94-2.16-10.15-.14-2.59,1.63-4.1,4.33-4.32,7.16-.03,.42,.43,.69,.78,.47l5.45-3.52,5.14,2.46,.13,5.69-5.45,3.52c-.35,.23-.29,.76,.1,.9,2.6,.93,5.59,.71,8.12-.88,3.28-2.07,4.84-5.84,4.24-9.44l22.14-14.32c2.97,1.98,6.93,2.16,10.15,.14Z"/><path class="cls-2" d="M58.16,28.84l-1.58-2.45,14.57-9.42,2.39-.03,5.62-5.47-1.68-2.59-7.3,2.88-1,2.17-14.57,9.42-1.58-2.45c-.21-.33-.7-.4-1.08-.16l-1.18,.76c-.38,.25-.51,.71-.3,1.05l.09,.14c-1.1,.05-2.23,.39-3.26,1.06l-16.39,10.6c-2.77,1.79-3.75,5.22-2.17,7.65l.21,.33c1.57,2.43,5.1,2.95,7.87,1.16l16.39-10.6c1.03-.67,1.81-1.56,2.3-2.54l.09,.14c.21,.33,.7,.4,1.08,.16l1.18-.76c.38-.25,.51-.71,.3-1.05Zm-27.48,8.72l-.64-.99,18.02-11.65,.64,.99-18.02,11.65Zm1.84,2.85l-.64-.99,18.02-11.65,.64,.99-18.02,11.65Zm1.84,2.85l-.64-.99,18.02-11.65,.64,.99-18.02,11.65Z"/></g></g></g></g></svg>