<?xml version="1.0" encoding="UTF-8"?><svg id="_圖層_2" xmlns="http://www.w3.org/2000/svg" xmlns:xlink="http://www.w3.org/1999/xlink" viewBox="0 0 231.46 265.31"><defs><style>.cls-1{fill:none;}.cls-2{clip-path:url(#clippath);}.cls-3{fill:#fff;}.cls-4{fill:#132c53;}.cls-5{fill:#0f2c51;}</style><clipPath id="clippath"><rect class="cls-1" width="231.46" height="254.67"/></clipPath></defs><g id="_圖層_1-2"><g class="cls-2"><g><path class="cls-3" d="M60.35,159.85l5.04,12.34,7.92,4.14,4.15,.95,10.88,11.81,10.8,6.29,7.39,1.92-.65,2.34-7.39,10.57,3.98,14.17s14.49,6.15,15.61,6.47c1.12,.33,25.38-1.34,25.38-1.34l15.58-9.3,5.3-15.58-1.62-12.73-8.29-5.84,7.5-6.98,5.08-9.23,3.86-9.41,2.74-1.49,6.46-5.93,1.77-8.53-1.3-15.38s-23.9-12.87-24.66-13.14-55.33,3.78-55.33,3.78l-28.38,11.79-13.79,21.98,1.99,6.34Z"/><path class="cls-5" d="M105.54,150.16c.65-.3,1.24-.83,1.46-1.54,.21-.69,.04-1.44-.15-2.13-.12-.42-.25-.87-.58-1.15-.04-.03-.07-.06-.11-.09-.16-.11-.34-.18-.51-.25-1.93-.72-3.96-.54-5.96-.83-1.14-.17-2.29-.33-3.43-.5-1.39-.2-2.79-.66-4.21-.52-.74,.07-1.37,.31-1.98,.75-.41,.3-1.36,.81-1.41,1.38-.06,.71,1.47,1.12,1.99,1.34,.68,.28,1.36,.57,2.05,.85,1.74,.72,3.48,1.45,5.25,2.07,2.37,.83,5.17,1.75,7.6,.62Z"/><path class="cls-5" d="M146.36,136.57c.42-.37,1.74-1.25,1.46-1.9-.22-.52-1.29-.7-1.77-.85-.71-.22-1.39-.24-2.11-.07-1.39,.33-2.57,1.21-3.82,1.85-1.03,.53-2.07,1.05-3.1,1.57-1.8,.92-3.79,1.4-5.39,2.69-.15,.12-.29,.25-.41,.4-.03,.04-.05,.08-.08,.12-.22,.37-.21,.84-.19,1.28,.04,.72,.11,1.48,.53,2.07,.43,.6,1.15,.91,1.86,.99,2.66,.29,5.03-1.48,7.01-3.03,1.49-1.16,2.91-2.41,4.33-3.65,.56-.49,1.12-.98,1.67-1.46Z"/><path class="cls-5" d="M50.32,153.76l-5.57-2.33c-.78-.57-1.43-1.15-1.95-1.68-1.19-1.22-1.74-2.18-1.74-2.19h0c-1.09-1.37-.89-2.11-1.84-3.56,0,0-.53,.24-1.86,.38-3.34,.36-12.71-6.3-14.02-14.14-.79-4.72,2.06-4.34,.32-8.31-1.74-3.97,.04-3.66,1.46-7.07,.33-.8,.45-2,.13-2.77-2.47-6.04-2.12-11.56,.15-16.74,.76-1.73,1.73-3.43,2.89-5.08,.73-1.04,1.76-1.9,2.79-2.63,.34-.24,.55-.48,.68-.75,.11-.29,.12-.63,.04-1.05-.78-4.46-5.99-5.63-4.41-9.83,.3-.79,.63-1.56,.99-2.3,1.07-2.23,2.45-4.25,4.23-5.98,.21-.21,.38-.43,.51-.66,.35-.69,.44-1.47,.49-2.29,.16-2.59,.74-4.95,1.79-7.02,1.04-2.11,2.56-3.94,4.61-5.42,1.86-1.34,4.06-2.17,5.92-3.52,1.08-.78,2.06-1.99,2.61-3.24,2.95-6.68,8.56-9.57,14.71-11.76,.61-.22,1.27-.51,1.89-.48,2.35,.11,3.85-1,5.23-2.95,2.55-3.61,6.06-5.4,10.51-4.86,.41,.05,.96-.33,1.29-.68,2.52-2.65,5.46-4.83,8.95-5.42,3.09-.52,5.43-2.11,7.9-3.79,3.47-2.36,7.21-1.48,10.84-.11,.97,.37,1.67,.33,2.56-.23,3.16-2,6.57-2.45,10.14-1.11,1.28,.48,2.56,1.06,3.73,1.8,1.71,1.08,3.51,.63,5.25,.64,2.65,.01,5.02,.81,7.14,2.4,1.81,1.36,3.45,2.97,5.2,4.42,.37,.31,.91,.51,1.37,.54,4.36,.27,8.25,1.93,11.71,4.7,1.03,.82,1.84,2.02,2.54,3.19,.85,1.42,1.96,2.4,3.4,3.01,2.82,1.19,4.75,3.34,6.23,6.09,.35,.65,1.12,1.21,1.81,1.49,0,0-.05-1.37,2.34-.11,0,0,1.49,1.25,1.69,2.79,.39,.53,.9,1.02,1.46,1.33,4.74,2.65,3.49,1.17,5.14,6.55,.5,1.62,4.4,3.93,5.35,5.18,4.26,5.56,5.17,7.09,4.71,14.1-.06,.89,.13,1.36,.79,1.85,7.64,5.62,8.61,15.41,8.61,15.41,0,0,3.63,9.85,1.71,13.57-.64,1.23-1.41,2.42-2.35,3.54-.08,.1-.14,.23-.19,.37-.13,.38-.15,.88-.09,1.27,.46,3.29-.36,6.29-1.61,9.19-.02,.04-.04,.08-.06,.12-.26,.58-.62,1.21-1.1,1.52-1.61,1.03-.92,5.09-1.78,6.73-1.13,2.16-3.09,3.47-5.38,4.15-.35,.03-.69,.09-1.02,.14-3.55,.81-2.82,3.54-2.82,3.54,0,0,2.53,5.12-4.56,5.11-7.1-.01,0,0,0,0-.82,1.05-.47,1.73-2.27,3.35s-6.32,.59-6.32,.59l-.72-.27c-.53-.27-.1-.08-.61-.4-.18-.16-.38-.32-.63-.5-1.62-1.22-1.28-.67-1.89-2.45-.39-1.14-.82-1.66-2.11-1.51-2.67,.32-5.15-.44-7.45-2.03-3.67-2.53-6.48-5.81-8.11-10.13-.4-1.07,.17,3.01-5.51,5.22-5.68,2.21-9.06-1.61-12.46-4.5-.62,.18-1.25,.34-1.87,.45-1.94,1.3-4.24,2.08-6.5,2.14-.21,.04-.42,.1-.62,.13-.91,.15-1.82,.21-2.74,.19-1.38,1.37-3.01,2.5-4.75,3.41-1.25,.85-2.66,1.43-4.16,1.73-.53,.17-1.06,.32-1.58,.45-5.39,1.35-10.9,1.09-15.66-1.5-.1,0-.19-.01-.29-.02-.03,.07-.06,.14-.09,.21-.16,.45-.34,.88-.53,1.3-.08,.18-.15,.36-.23,.53-.27,.56-.56,1.11-.88,1.63-2.08,3.42-5.14,5.88-9.02,7.48-1.45,.6-3.14,.67-4.73,.79-.96,.07-1.66,.3-2.07,1.02-.11,.22-.2,.46-.26,.76-.19,.96-.67,1.85-.97,2.8-.29,.9-.63,1.75-.99,2.56-.15,.32-.3,.63-.46,.95-.18,.36-.37,.73-.56,1.07-.29,.5-.59,1-.91,1.47-.04,.06-.08,.11-.12,.17-2.05,2.93-1.31-1.56-4.46,.18-4.26,1.55-2.76-.94-6.33-.76-.17-.04-.35-.05-.56-.04-1.01,.07-2.02,.09-3.03,.06-3.53-.16-6.56-.82-9-1.58-.01,.07-.08,.11-.17,.13"/><path class="cls-5" d="M136.68,197.29c-16.41,5.59-34.23,3.48-49.1-6.77-16.2-11.17-21.94-40.58-22.18-41.83-.13-.71,.34-1.4,1.06-1.54,.72-.14,1.41,.32,1.54,1.03,.06,.3,5.78,29.62,21.1,40.18,14.14,9.75,31.11,11.75,46.75,6.42,7.87-2.68,15.4-7.21,22.06-13.55,14.92-14.18,13.69-39.57,12.46-49.83-.11-.91-.24-2.05,1-2.28,1.25-.23,1.53,.91,1.74,1.74,.07,.26,.05,.53-.04,.76,1.52,13.34,1.68,37.22-13.33,51.49-6.96,6.62-14.84,11.36-23.07,14.16Z"/><path class="cls-5" d="M122.68,207.81c-.51,.17-1.1,.03-1.46-.41l-6.09-7.49c-.46-.56-.36-1.39,.21-1.84,.57-.46,1.4-.37,1.86,.19l6.09,7.49c.46,.56,.36,1.39-.21,1.84-.12,.1-.26,.17-.4,.22Z"/><path class="cls-5" d="M145.9,200.84c-.18,.06-.38,.09-.59,.06-.73-.08-1.24-.74-1.15-1.45l.88-6.94c.09-.72,.75-1.23,1.48-1.15,.73,.08,1.24,.74,1.15,1.45l-.88,6.94c-.07,.52-.43,.93-.89,1.09Z"/><path class="cls-5" d="M75.56,177.85c-.18,.06-.37,.08-.57,.06-14.48-1.55-16.88-19.57-16.97-20.34-.09-.72,.43-1.37,1.15-1.47,.73-.09,1.39,.41,1.47,1.13h0c.02,.17,2.25,16.74,14.65,18.07,.73,.08,1.25,.72,1.16,1.44-.06,.52-.42,.94-.89,1.1Z"/><path class="cls-5" d="M173.44,160.35c-.65,.22-1.37-.08-1.64-.72-.29-.66,.03-1.43,.7-1.72,11.44-4.91,7.98-21.89,7.94-22.06-.15-.71,.31-1.4,1.02-1.56,.71-.15,1.42,.29,1.57,1,.17,.78,3.96,19.26-9.49,25.03-.03,.01-.06,.03-.1,.04Z"/><path class="cls-5" d="M36.36,137.21s-2.32,3.82,3.36,9.86c0,0,1.76,11.7,9.74,14.66,0,0,2.64,10.75,13.77,9.2,0,0-3.86-11.19-3.8-11.13s-1.46-16.2-1.46-16.2l-21.62-6.39Z"/><path class="cls-5" d="M197.85,110s3.3,2.99-.45,10.42c0,0,1.6,11.72-5.21,16.87,0,0,.49,11.07-10.61,12.81,0,0,.55-11.84,.51-11.76s-3.16-15.95-3.16-15.95l18.93-12.38Z"/><path class="cls-5" d="M189.96,200.14s-.02,0-.02,0c-.38,0-.68-.3-.69-.67-.36-12.37-11.01-13.12-11.46-13.15-.37-.02-.66-.33-.66-.7,0-.37,.3-.67,.68-.68,10.87-.31,10.64-13.05,10.63-13.59h0c-.01-.38,.29-.7,.68-.71,.38-.01,.7,.28,.72,.65,0,0,0,0,0,0h0c.37,12.63,9.22,13.1,9.6,13.11,.38,.01,.67,.32,.67,.69s-.3,.67-.68,.68c-8.18,.23-8.77,13.54-8.77,13.67-.01,.36-.31,.65-.68,.66Zm-8.58-14.38c2.95,1.05,6.92,3.46,8.54,8.91,.81-3.52,2.58-7.96,6.43-9.6-2.46-.98-5.75-3.26-7.2-8.54-.89,3.49-2.97,7.72-7.77,9.23Z"/><path class="cls-5" d="M201.01,172.03s-.01,0-.02,0c-.27,0-.48-.21-.49-.47-.25-8.75-7.79-9.28-8.11-9.3-.26-.02-.47-.23-.46-.49,0-.26,.21-.47,.48-.48,7.69-.22,7.53-9.23,7.52-9.61h0c0-.27,.21-.49,.48-.5s.49,.2,.51,.46c0,0,0,0,0,0h0c.26,8.93,6.52,9.27,6.79,9.28,.27,0,.48,.23,.48,.49s-.21,.48-.48,.48c-5.78,.16-6.2,9.58-6.21,9.67,0,.26-.22,.46-.48,.47Zm-6.07-10.17c2.08,.75,4.9,2.45,6.04,6.31,.57-2.49,1.82-5.63,4.55-6.79-1.74-.69-4.07-2.31-5.09-6.04-.63,2.47-2.1,5.46-5.5,6.53Z"/><path class="cls-5" d="M56.51,150.52c.92,10.18,5.69,8.32,10.59,12.71,4.9,4.39,6.47,10.39,6.47,10.39l8.16-.04-8.62-26.17s-17.51-7.07-16.59,3.11Z"/><path class="cls-5" d="M81.84,176.45c-.09,.03-.2,.05-.3,.04l-5.66-.3c-.44-.02-.77-.39-.74-.83,.03-.43,.4-.77,.84-.74l5.66,.3c.44,.02,.77,.39,.74,.83-.02,.33-.24,.6-.54,.7Z"/><path class="cls-5" d="M83.32,179.11c-.09,.03-.2,.05-.3,.04l-5.66-.3c-.44-.02-.77-.39-.74-.83,.03-.43,.4-.77,.84-.74l5.66,.3c.44,.02,.77,.39,.74,.83-.02,.33-.24,.6-.54,.7Z"/><path class="cls-5" d="M182.66,129.91c2.06,10.01-3.05,9.64-6.47,15.29-3.42,5.65-3.19,11.85-3.19,11.85l-7.82,2.37,.71-27.58s14.71-11.95,16.77-1.94Z"/><path class="cls-5" d="M166.17,162.16c-.41,.14-.85-.07-1-.47-.15-.41,.06-.86,.47-1.01l5.33-1.96c.41-.16,.87,.05,1.02,.46,.15,.41-.06,.86-.47,1.01l-5.33,1.96h-.02Z"/><path class="cls-5" d="M165.52,165.14c-.41,.14-.85-.07-1-.47-.15-.41,.06-.86,.47-1.01l5.33-1.96c.43-.15,.87,.05,1.02,.46,.15,.41-.06,.86-.47,1.01l-5.33,1.96h-.02Z"/><g><g><path class="cls-5" d="M83.24,168.98s-5.38-10.7,6.63-12.81c12.01-2.11,16.46-2.89,16.46-2.89,0,0,10.28-.35,8.17,10.21,0,0-2.18,15.68-12.95,17.06-10.78,1.37-18.31-11.57-18.31-11.57Z"/><path class="cls-5" d="M128.33,160.55s-5.38-10.7,6.63-12.81c12.01-2.11,16.46-2.89,16.46-2.89,0,0,10.28-.35,8.17,10.21,0,0-2.47,14.83-13.25,16.2-10.78,1.37-18.01-10.71-18.01-10.71Z"/><path class="cls-5" d="M150.11,175.03c-1.06,.36-2.19,.65-3.41,.85-15.08,2.47-22.87-13.02-24.34-16.29l-3.2,.56c-.06,3.49-1.03,19.17-12.92,23.22-1.15,.39-2.41,.68-3.78,.83-14.58,1.66-21.49-11.22-21.56-11.35-4.53-7.96-3.61-13.25-2.67-15.69,.83-2.15,2.3-3.76,3.92-4.31,3.08-1.05,27.16-4.18,28.18-4.31,3.42-.26,6.32,2.73,7.27,3.86l3.31-.8c.12-4.95,6.65-6.7,6.94-6.78,.02,0,.04-.01,.06-.01l26.73-4.69c2.39-.42,4.42,.06,6.03,1.44,4.13,3.54,3.9,11.74,3.89,12.09,0,.19-.95,16.77-14.46,21.37Zm-31.99-16.28s.08-.02,.12-.03l4.48-.79c.37-.07,.74,.14,.87,.49,.07,.18,7.38,18.45,22.86,15.91,15.5-2.54,16.52-20.54,16.53-20.72,0-.07,.21-7.8-3.35-10.85-1.25-1.07-2.79-1.42-4.72-1.08l-26.69,4.69c-.45,.12-6.07,1.79-5.7,5.79,.04,.39-.22,.75-.61,.84l-4.43,1.07c-.31,.07-.63-.04-.82-.29-.03-.04-2.98-3.89-6.18-3.65-8.58,1.11-25.49,3.44-27.83,4.23-.91,.31-2.16,1.36-2.94,3.38-.85,2.18-1.64,6.95,2.58,14.38,.27,.52,6.51,12.07,19.99,10.54,15.72-1.75,15.29-22.91,15.29-23.12,0-.35,.21-.66,.54-.77Z"/></g><rect class="cls-3" x="90.51" y="158.93" width="17.72" height=".3" transform="translate(-85.8 129.19) rotate(-48.84)"/><rect class="cls-3" x="139.84" y="150.43" width="17.72" height=".3" transform="translate(-62.53 163.43) rotate(-48.84)"/><rect class="cls-3" x="90.98" y="162.45" width="25.34" height=".3" transform="translate(-86.98 133.62) rotate(-48.84)"/><rect class="cls-3" x="139.76" y="155.67" width="25.34" height=".3" transform="translate(-65.21 168.03) rotate(-48.84)"/></g><path class="cls-5" d="M130.33,211s-16.54,.44-15.64-12.41l-5.97-.67s-2.86,13.88,7.03,21.05l8.96-3.05s-4.92,5.07-2.33,5.17c2.58,.11,10.47,3.49,12.75,3.94,2.28,.45-4.79-14.04-4.79-14.04Z"/><path class="cls-5" d="M137.77,208.17s15.7-5.3,10.49-17.06l5.39-2.69s7.39,12.06,.52,22.21l-9.45,.23s6.34,3.07,3.94,4.06c-2.39,.99-8.66,8-10.66,9.21s-.24-15.95-.24-15.95Z"/><g><path class="cls-5" d="M131.44,191.77c-1.49,.51-2.52,.73-2.65,.76-.4,.06-8.91,1.37-14.07-1.13-5.25-2.54-6.43-5.41-6.87-7.63h0c-.52-2.6,1.44-3.84,3.2-4.62,1.72-.76,3.33-.15,5.19,.57,1.27,.49,2.71,1.04,4.51,1.3,4.28,.63,8.03-.17,11.14-2.38,.82-.58,1.49-1.21,2.13-1.82,1.24-1.16,2.41-2.27,4.24-2.56,2.06-.33,4.73,.33,5.88,2.25,1.59,2.66-.69,6.19-1.44,7.35-2.88,4.47-8.1,6.83-11.27,7.91Zm-22.02-8.31c.39,1.98,1.41,4.31,6.01,6.53,4.71,2.27,13,1.01,13.08,.99,.05-.01,8.98-1.95,12.86-7.96,.62-.96,2.5-3.87,1.4-5.7-.75-1.25-2.75-1.75-4.26-1.5-1.34,.22-2.25,1.07-3.4,2.15-.65,.61-1.39,1.31-2.3,1.95-3.46,2.46-7.6,3.35-12.3,2.66-1.97-.29-3.56-.9-4.84-1.39-1.66-.63-2.86-1.1-3.97-.6-2.2,.98-2.5,1.79-2.29,2.88h0Z"/><polygon class="cls-5" points="112.57 188.68 111.2 187.9 115.49 180.58 116.87 181.36 112.57 188.68"/><polygon class="cls-5" points="119.17 191.74 117.62 191.4 119.86 181.63 121.41 181.96 119.17 191.74"/><polygon class="cls-5" points="127.36 192 125.78 192.16 124.78 181.84 126.36 181.68 127.36 192"/><polygon class="cls-5" points="134.12 189.99 129.41 181 130.82 180.27 135.53 189.26 134.12 189.99"/><polygon class="cls-5" points="140.69 185.14 133.08 178.24 134.16 177.08 141.77 183.98 140.69 185.14"/></g><g><path class="cls-5" d="M154.42,186.05s21.51,6.46,25.53,23.94,4.07,49.59-15.55,53.69c-13.65,2.85-57.23,1.09-57.23,1.09,0,0-9.63-15.3-12.58-30.06-5.33-27.31,11.29-35.08,11.29-35.08,0,0-1.56,15.84,8.97,21.51l4.59-1.82-.44,3.49,16.91,4.52,16.41-12.42-2.29-2.42,5.86,.64s10.4-12.24-1.47-27.09Z"/><g><path class="cls-3" d="M81.09,218.57l-4.47-13.69s-.86-9.48,5.06-4.07c3.57,4.07,6.45,16.61,6.45,16.61,0,0,2.55,11.96,4.31,8.55s-.68-10.12,5.46-10.27-1.41,21.98-1.41,21.98l-1.35,5.02,10.88,20.95-19.13,.05-5.79-16.27s-6.46-.7-9.91-4.15-9.66-15.31-3.82-17.13,8.5-5.85,8.5-5.85c0,0,5.18-3.45,6.57,0,1.39,3.45,5.7,13.79,2.54,12.92s-6.91,3.45-6.91,3.45c0,0-5.53,4.02-9.02-2.58"/><path class="cls-4" d="M85.82,265.19l-5.84-16.42c-2.04-.35-6.87-1.46-9.86-4.44-2.95-2.95-7.65-11.33-6.47-16.14,.43-1.75,1.56-2.96,3.26-3.49,5.26-1.65,7.68-5.21,7.7-5.24l.17-.25,.25-.17c.27-.18,2.09-1.35,4.08-1.69l-3.97-12.16-.02-.17c-.12-1.34-.32-5.82,2.21-7.07,2.23-1.11,4.59,1.05,5.36,1.76l.12,.12c3.78,4.31,6.66,16.74,6.79,17.27,.55,2.57,1.31,5.15,1.94,6.73,.11-.64,.17-1.35,.23-2.05,.25-2.96,.62-7.43,6.09-7.57,1.16-.03,2.19,.47,2.87,1.39,.95,1.29,1.96,4.07-.19,13.3-1.07,4.62-2.44,8.72-2.62,9.23l-1.19,4.41,11.75,22.62-22.67,.05Zm-8.9-43.79c-.77,1.02-3.68,4.47-9.11,6.17-.69,.22-1.06,.62-1.23,1.34-.8,3.26,2.97,10.59,5.67,13.29,3.02,3.02,8.95,3.71,9.01,3.72l.94,.1,.32,.89,5.43,15.27,15.59-.04-10.01-19.28,1.54-5.68c2.71-7.96,4.73-17.8,3.24-19.82-.09-.12-.15-.17-.37-.16-2.54,.06-2.87,1.3-3.17,4.81-.13,1.6-.27,3.26-.99,4.65-.75,1.45-1.85,1.47-2.29,1.41-.74-.1-2.7-.36-4.83-10.33-.77-3.34-3.35-12.71-6.05-15.87-1.25-1.12-1.83-1.21-1.94-1.22-.37,.32-.69,2.09-.55,3.93l4.36,13.38c.59,.42,1.05,1.02,1.36,1.77l.19,.47c3.57,8.81,4.3,12.31,2.93,13.85-.57,.65-1.44,.87-2.37,.62-1.69-.46-4.35,1.81-5.38,2.98l-.11,.13-.14,.1c-.12,.09-2.9,2.08-6.11,1.33-2.1-.49-3.82-1.98-5.12-4.43l2.66-1.41c.87,1.64,1.91,2.61,3.12,2.9,1.59,.38,3.14-.49,3.57-.76,.8-.88,4.11-4.25,7.54-3.89-.09-1.22-.85-4.04-3.38-10.29l-.19-.47c-.15-.38-.33-.48-.5-.53-.86-.27-2.58,.45-3.62,1.09Z"/></g></g></g></g></g></svg>