<?xml version="1.0" encoding="UTF-8"?><svg id="_圖層_2" xmlns="http://www.w3.org/2000/svg" viewBox="0 0 167.53 226.45"><defs><style>.cls-1{fill:#fff;}.cls-2{fill:#122c52;}.cls-3{fill:#132c53;}.cls-4{fill:#0f2c51;}</style></defs><g id="_圖層_1-2"><g><polygon class="cls-1" points="27.26 223.93 39.24 185.54 53.36 182.29 57.44 180.4 65.14 176.62 65.14 168.77 46.2 156.77 37.55 137.17 30.67 134.67 24.18 120.47 29.8 109.58 76.63 90.52 116.67 95.6 143.26 117.74 139.62 136.3 132.8 144.46 125.9 146.03 119.45 156.28 102.92 167.78 94.19 170.61 93.84 178.73 102.04 180.87 106.22 182.29 141.93 203.85 145.76 224.97 27.26 223.93"/><g><path class="cls-4" d="M70.95,118.37c.6-.28,1.13-.78,1.32-1.43,.19-.64,.02-1.33-.16-1.98-.11-.39-.24-.8-.54-1.07-.03-.03-.07-.05-.1-.08-.15-.1-.31-.17-.47-.23-1.78-.66-3.64-.48-5.48-.74-1.05-.15-2.11-.3-3.16-.45-1.28-.18-2.57-.6-3.87-.47-.68,.07-1.26,.29-1.81,.7-.38,.28-1.24,.76-1.28,1.28-.05,.66,1.36,1.04,1.84,1.23,.63,.26,1.26,.52,1.89,.78,1.61,.66,3.21,1.33,4.85,1.9,2.18,.76,4.76,1.6,6.98,.55Z"/><path class="cls-4" d="M111.8,117.47c.5-.13,1.95-.3,2-.95,.04-.52-.75-1.13-1.08-1.46-.49-.48-1.03-.79-1.69-.95-1.27-.32-2.61-.09-3.9-.09-1.06,0-2.13,0-3.19-.01-1.86,0-3.68-.45-5.53-.06-.17,.04-.35,.08-.5,.16-.04,.02-.08,.04-.11,.06-.34,.22-.53,.6-.69,.98-.27,.61-.54,1.27-.44,1.93,.09,.68,.55,1.24,1.1,1.61,2.04,1.37,4.72,.91,6.99,.47,1.7-.33,3.39-.76,5.07-1.18,.66-.17,1.32-.33,1.98-.5Z"/><path class="cls-4" d="M19.19,112.17l-4.49-3.18c-.58-.66-1.04-1.3-1.39-1.88-.81-1.31-1.1-2.27-1.1-2.28h0c-.68-1.43-.35-2.04-.89-3.5,0,0-.52,.1-1.74-.05-3.05-.36-10.02-8.13-9.55-15.29,.28-4.32,2.75-3.4,2.03-7.25-.72-3.85,.8-3.21,2.79-5.92,.47-.64,.82-1.67,.69-2.42-.94-5.81,.53-10.6,3.65-14.7,1.04-1.37,2.27-2.66,3.65-3.89,.87-.77,1.97-1.31,3.04-1.74,.35-.14,.59-.31,.77-.52,.16-.24,.24-.53,.26-.91,.23-4.08-4.17-6.17-1.88-9.54,.43-.63,.89-1.24,1.37-1.82,1.43-1.75,3.08-3.24,5.03-4.4,.23-.14,.43-.3,.59-.47,.46-.54,.7-1.21,.92-1.92,.69-2.25,1.7-4.2,3.07-5.82,1.37-1.65,3.11-2.95,5.25-3.84,1.94-.81,4.08-1.09,6.02-1.89,1.13-.47,2.26-1.33,3.01-2.32,4.03-5.28,9.66-6.68,15.61-7.36,.59-.07,1.24-.19,1.79-.04,2.07,.58,3.65-.1,5.29-1.54,3.04-2.66,6.54-3.52,10.4-2.14,.36,.13,.93-.1,1.3-.33,2.81-1.82,5.89-3.14,9.13-2.95,2.87,.17,5.29-.75,7.85-1.73,3.6-1.37,6.75,.16,9.71,2.11,.79,.52,1.42,.63,2.34,.31,3.24-1.12,6.39-.82,9.29,1.08,1.04,.69,2.07,1.45,2.95,2.34,1.3,1.3,3,1.27,4.55,1.63,2.36,.55,4.32,1.73,5.87,3.56,1.33,1.57,2.46,3.32,3.72,4.95,.27,.35,.7,.64,1.11,.76,3.83,1.13,6.96,3.37,9.47,6.52,.74,.93,1.22,2.15,1.6,3.32,.46,1.42,1.25,2.51,2.4,3.34,2.26,1.62,3.54,3.91,4.28,6.62,.18,.65,.75,1.29,1.3,1.68,1.7,.67,2.02,1.41,2.02,1.41,.34,.2,1.06-.23,1.01,1.77-.01,.59,.59,1.08,1.02,1.47,3.68,3.29,2.87,1.74,3.21,6.81,.1,1.53,3.11,4.36,3.7,5.64,2.64,5.76,3.13,7.29,1.25,13.37-.24,.77-.17,1.22,.32,1.78,5.64,6.5,4.45,15.31,4.45,15.31,0,0,1.18,9.4-1.32,12.29-.83,.96-1.77,1.84-2.84,2.63-.09,.07-.17,.17-.25,.28-.19,.31-.31,.74-.35,1.09-.28,2.99-1.64,5.46-3.36,7.76-.02,.03-.05,.06-.08,.1-.36,.46-.81,.94-1.3,1.12-1.65,.58-1.89,4.29-3,5.56-1.47,1.67-3.49,2.42-5.68,2.55-.32-.05-.63-.06-.94-.09-3.34-.01-3.26,2.54-3.26,2.54,0,0,1.19,5.02-5.15,3.57-6.34-1.45,0,0,0,0-.95,.76-.79,1.43-2.73,2.49-1.94,1.06-5.77-.76-5.77-.76l-.59-.38c-.42-.35-.07-.09-.46-.47-.13-.18-.28-.36-.45-.57-1.2-1.4-1.01-.85-1.18-2.54-.11-1.08-.39-1.63-1.57-1.75-2.45-.26-4.51-1.44-6.22-3.3-2.75-2.97-4.57-6.43-5.11-10.56-.14-1.02-.52-1.59-1.56-1.78-4.61-.82-7.76-3.25-10.19-6.49-.59,.03-1.18,.04-1.77,.01-2.01,.75-4.23,.97-6.25,.57-.2,0-.39,0-.59-.01-.84-.05-1.67-.18-2.49-.39-1.52,.92-3.21,1.59-4.96,2.04-1.29,.5-2.68,.72-4.08,.67-.51,.04-1.01,.07-1.51,.08-5.09,.1-9.96-1.26-13.67-4.5-.09-.02-.17-.05-.26-.08-.04,.06-.08,.11-.12,.17-.24,.36-.49,.7-.74,1.04-.11,.14-.21,.29-.32,.42-.36,.44-.73,.86-1.12,1.25-2.57,2.59-5.82,4.13-9.62,4.75-1.42,.23-2.94-.04-4.39-.26-.87-.13-1.55-.07-2.07,.47-.14,.17-.27,.37-.39,.62-.37,.81-.98,1.5-1.45,2.26-.45,.73-.93,1.41-1.43,2.05-.2,.26-.4,.5-.61,.74-.24,.28-.48,.56-.73,.83-.36,.38-.73,.76-1.12,1.11-.05,.04-.09,.08-.14,.12-2.44,2.16-5.3,3.61-8.47,4.5-4.13,.5-2.27-1.39-5.5-1.96-.14-.07-.3-.12-.49-.14-.92-.14-1.82-.34-2.72-.56-3.11-.86-5.69-2.05-7.71-3.22-.03,.06-.09,.08-.18,.08"/><path class="cls-4" d="M82.49,173.99c-14.22,0-27.82-5.81-37.93-17.06-12.39-13.79-11.41-41.95-11.37-43.14,.05-1.14,.98-2.03,2.14-1.97,1.14,.04,2.02,1,1.97,2.14-.01,.28-.96,27.69,10.32,40.23,15.69,17.46,40.58,20.66,61.94,7.96,15.95-9.48,20.05-32.4,21.06-41.82,.08-.74,.3-2.69,2.24-2.6,1.95,.09,1.98,2.03,1.99,2.77,0,.35-.07,.67-.22,.96-1.45,12.58-6.37,34.35-22.98,44.22-9.39,5.58-19.43,8.31-29.17,8.31Z"/><path class="cls-4" d="M93.52,182.93c-.1,0-.21,0-.31-.02-1.12-.17-1.9-1.22-1.72-2.34l1.35-8.85c.17-1.12,1.22-1.89,2.34-1.72,1.12,.17,1.9,1.22,1.72,2.34l-1.35,8.85c-.15,1.02-1.03,1.75-2.03,1.75Z"/><path class="cls-4" d="M95.91,178.08c-.43,1.31-10.45,12.51-10.45,12.51l14.9,15.77,2.56-25.26-7.01-3.01Z"/><polygon class="cls-4" points="71.66 190.12 62.39 177.79 55.01 181.2 58.34 205.5 71.66 190.12"/><path class="cls-4" d="M64.26,181.61c-.07,0-.14,0-.21-.01-1.13-.11-1.96-1.12-1.84-2.25l.88-8.82c.11-1.13,1.12-1.95,2.25-1.84,1.13,.11,1.96,1.12,1.84,2.25l-.88,8.82c-.11,1.06-1,1.85-2.04,1.85Z"/><polygon class="cls-4" points="85.46 190.59 91.33 205.45 81.94 217.83 85.46 190.59"/><polygon class="cls-4" points="80.63 218.36 71.66 190.12 66.4 203.26 80.63 218.36"/><path class="cls-4" d="M34.95,139.22c-.27,0-.54-.05-.8-.16-13-5.5-9.43-23.34-9.27-24.1,.23-1.11,1.32-1.83,2.43-1.59,1.11,.23,1.82,1.32,1.59,2.43-.03,.16-3.03,15.29,6.84,19.47,1.05,.44,1.54,1.65,1.09,2.7-.33,.78-1.09,1.26-1.9,1.26Z"/><path class="cls-4" d="M128.07,148.09c-.98,0-1.84-.7-2.02-1.69-.2-1.12,.54-2.19,1.66-2.39,10.56-1.89,10.98-17.32,10.98-17.47,.02-1.12,.94-2.02,2.06-2.02,.01,0,.02,0,.04,0,1.13,.02,2.04,.95,2.02,2.09-.01,.77-.48,18.96-14.37,21.45-.12,.02-.25,.03-.37,.03Z"/><path class="cls-4" d="M10.45,97.28s-2.87,2.96,.96,9.63c0,0-.85,10.96,5.67,15.33,0,0,.13,10.29,10.41,11.24,0,0-1.13-10.94-1.09-10.87s2.05-14.97,2.05-14.97l-18-10.36Z"/><path class="cls-4" d="M160.45,106.85s2.33,3.4-2.56,9.33c0,0-1,10.94-8.16,14.16,0,0-1.86,10.12-12.14,9.34,0,0,2.94-10.6,2.89-10.54s.48-15.1,.48-15.1l19.49-7.2Z"/><path class="cls-4" d="M130.66,225.38l.73-18.16c.05-5.8-1.98-12.29-9.36-17.78-7.38-5.49-17.22-7.8-17.22-7.8l-3.31,27.79-11.23-11.53,3.27,8.35-10.4,13.74,.63,5.93,46.9-.54Z"/><path class="cls-4" d="M22,226.45l-.24-12.93c-.45-9.16,3.61-20.1,10.99-25.59,7.38-5.49,20.62-5.64,20.62-5.64l3.75,26.98,10.29-11.84-2.99,6.37,16.3,17.68,1.18,4.98H22Z"/><path class="cls-4" d="M64.65,133.77c-.34,0-.68-.02-1.02-.06-5.47-.61-8.92-5.95-9.07-6.18-.53-.84-.28-1.95,.56-2.48,.84-.53,1.95-.29,2.48,.55,.05,.08,2.71,4.13,6.44,4.53,2.07,.22,4.21-.75,6.35-2.89,.7-.7,1.84-.7,2.55,0,.7,.7,.7,1.84,0,2.55-2.65,2.64-5.43,3.98-8.29,3.98Z"/><path class="cls-4" d="M104.64,136.47c-.34,0-.68-.02-1.02-.06-5.47-.61-8.92-5.95-9.07-6.18-.53-.84-.28-1.95,.56-2.48,.84-.53,1.95-.28,2.48,.55h0s2.69,4.13,6.44,4.53c2.07,.22,4.21-.75,6.35-2.89,.7-.7,1.84-.7,2.55,0,.7,.7,.7,1.84,0,2.55-2.65,2.64-5.43,3.98-8.29,3.98Z"/><path class="cls-4" d="M84.26,151.29c-7.67,0-13.26-10.27-13.5-10.71-.47-.88-.14-1.97,.74-2.44,.88-.47,1.97-.14,2.44,.74,1.32,2.46,5.75,8.81,10.32,8.81h.03c2.94-.02,5.81-2.65,8.52-7.82,.46-.88,1.55-1.22,2.43-.76,.88,.46,1.22,1.55,.76,2.43-3.38,6.45-7.31,9.73-11.69,9.75h-.04Z"/><path class="cls-3" d="M39.97,111.9s-.91,9.88,1.82,14.67l-5.26-1.2-3.45-13.47h6.9Z"/><path class="cls-3" d="M126.92,119.24s.91,9.88-1.82,14.67l5.26-1.2,3.45-13.47h-6.9Z"/><path class="cls-2" d="M41.88,129.73c-.06,0-.12,0-.18-.02l-4.55-1.11c-.41-.1-.67-.52-.57-.93,.1-.41,.51-.67,.93-.57l4.55,1.11c.41,.1,.67,.52,.57,.93-.09,.35-.4,.59-.75,.59Z"/><path class="cls-2" d="M41.88,132.37c-.06,0-.12,0-.18-.02l-4.55-1.11c-.41-.1-.67-.52-.57-.93,.1-.41,.51-.67,.93-.57l4.55,1.11c.41,.1,.67,.52,.57,.93-.09,.35-.4,.59-.75,.59Z"/><path class="cls-2" d="M124.91,136.62c-.35,0-.66-.24-.75-.59-.1-.41,.15-.83,.57-.93l4.55-1.11c.42-.1,.83,.15,.93,.57s-.15,.83-.57,.93l-4.55,1.11c-.06,.01-.12,.02-.18,.02Z"/><path class="cls-2" d="M124.05,139.46c-.35,0-.66-.24-.75-.59-.1-.41,.15-.83,.57-.93l4.55-1.11c.41-.1,.83,.15,.93,.57,.1,.41-.15,.83-.57,.93l-4.55,1.11c-.06,.01-.12,.02-.18,.02Z"/></g><polygon class="cls-1" points="41.91 183.96 39.97 226.45 121.47 225.92 118.67 186.94 111.05 183.4 110.57 216.67 48.14 217.63 48.82 182.7 41.91 183.96"/><g><path class="cls-4" d="M130.24,225.89c-.99,0-1.8-.81-1.8-1.8v-14.04c0-.99,.81-1.8,1.8-1.8s1.8,.81,1.8,1.8v14.04c0,.99-.81,1.8-1.8,1.8Z"/><path class="cls-4" d="M145.76,226.21c-.8,0-1.52-.53-1.74-1.34l-3.82-14.41c-.26-.96,.32-1.95,1.28-2.2,.96-.26,1.95,.32,2.2,1.28l3.82,14.41c.26,.96-.32,1.95-1.28,2.2-.15,.04-.31,.06-.46,.06Z"/><g><g><path class="cls-1" d="M135.64,214.95c-.94,0-1.97-.11-3.05-.32-4.54-.88-7.41-2.82-8.53-5.74-1.96-5.12,2.49-11.11,2.68-11.36,.29-.39,.75-.61,1.23-.61h14.72c.72,0,1.34,.49,1.5,1.19,.09,.37,2.09,9.04-1.68,13.81-1.59,2.01-3.9,3.03-6.87,3.03h0Z"/><path class="cls-4" d="M142.69,198.46s3.54,14.95-7.06,14.95c-.83,0-1.74-.09-2.75-.29-13.93-2.72-4.91-14.66-4.91-14.66h14.72m0-3.09h-14.72c-.97,0-1.88,.45-2.46,1.23-.53,.7-5.12,7.03-2.89,12.84,1.32,3.46,4.58,5.71,9.67,6.7,1.18,.23,2.3,.35,3.34,.35,4.32,0,6.78-1.97,8.08-3.62,4.16-5.26,2.21-14.13,1.98-15.13-.33-1.39-1.57-2.37-3-2.37h0Z"/></g><g><path class="cls-1" d="M122.03,201.33c-.17,0-.33-.03-.49-.08-3.73-1.24-10.44-5.57-9.11-13.03,.7-3.95,2.64-4.78,4.14-4.78,3.01,0,6.09,3.74,6.67,4.49,.02,.03,.05,.06,.07,.1,3.12,4.71,4.04,8.2,2.82,10.68-.95,1.92-2.96,2.55-4,2.62-.03,0-.07,0-.1,0Z"/><path class="cls-4" d="M116.57,184.98c2.41,0,5.45,3.9,5.45,3.9,6.92,10.45,0,10.91,0,10.91,0,0-9.52-3.17-8.08-11.3,.47-2.62,1.47-3.51,2.63-3.51m0-3.09c-1.38,0-4.69,.59-5.66,6.06-1.51,8.5,5.97,13.37,10.14,14.76,.32,.11,.64,.16,.98,.16,.07,0,.14,0,.21,0,1.7-.11,4.1-1.09,5.28-3.48,1.49-3.01,.54-7.01-2.92-12.22-.04-.07-.09-.13-.14-.19-.93-1.19-4.25-5.09-7.89-5.09h0Z"/></g><g><path class="cls-1" d="M137.22,190.93c-1.92,0-4.7-2.77-6.7-5.1-.2-.23-.33-.52-.36-.83-.29-2.53-2.52-24.8,6.91-28.29,1.01-.37,1.88-.55,2.68-.55,1.75,0,2.69,.88,3.17,1.61,2.09,3.17-.68,10.25-1.42,12.01-.29,1.51-2.57,13.54-2.09,17.84,.05,.43,.19,1.73-.59,2.6-.4,.45-.97,.7-1.6,.7Z"/><path class="cls-4" d="M139.75,157.71c5.27,0,.27,11.63,.27,11.63,0,0-2.68,13.61-2.14,18.46,.13,1.15-.15,1.59-.65,1.59-1.61,0-5.53-4.56-5.53-4.56,0,0-2.66-23.5,5.91-26.67,.85-.31,1.56-.46,2.14-.46m0-3.09h0c-.98,0-2.03,.21-3.21,.65-4.8,1.77-7.55,7.57-8.18,17.21-.42,6.47,.24,12.44,.27,12.69,.07,.61,.32,1.19,.72,1.66,4.83,5.63,7.12,5.63,7.87,5.63,1.07,0,2.05-.43,2.75-1.21,1.24-1.39,1.04-3.2,.97-3.8-.35-3.13,1.05-12.09,2.04-17.23,.28-.7,.96-2.44,1.5-4.42,1.11-4.1,1.02-6.92-.27-8.89-.98-1.49-2.56-2.3-4.46-2.3h0Z"/></g><g><path class="cls-1" d="M128.64,207.48c-1.48,0-2.8-.15-3.94-.46-.92-.25-3.74-1.01-3.99-3.29-.08-.72,.13-1.39,.5-1.98-3.47-.76-5.67-3.09-6.05-6.53-.84-7.52,18.1-11.08,21.91-11.72,.19-.04,.42-.06,.65-.06,3.9,0,5.07,6.28,5.39,8.8,1.57,1.12,2.55,2.56,2.93,4.27,.79,3.62-1.57,7.1-1.67,7.24-.18,.26-.43,.46-.72,.57-.34,.13-8.38,3.16-15,3.16h0Z"/><path class="cls-4" d="M137.72,184.98c3.2,0,3.93,8.15,3.93,8.15,5.77,3.46,1.44,9.75,1.44,9.75,0,0-8.04,3.06-14.45,3.06-1.27,0-2.47-.12-3.54-.41-6.44-1.74,0-5.11,0-5.11,0,0-.48,.07-1.22,.07-2.2,0-6.66-.61-7.2-5.44-.72-6.45,20.63-10.02,20.63-10.02,.14-.03,.27-.04,.4-.04m0-3.09c-.31,0-.63,.03-.95,.09-.55,.09-5.77,1-10.99,2.69-3.19,1.03-12.89,4.18-12.16,10.71,.39,3.52,2.43,6.11,5.58,7.36-.06,.37-.07,.75-.02,1.15,.24,2.21,1.97,3.76,5.12,4.61,1.26,.34,2.72,.51,4.34,.51,6.89,0,15.2-3.13,15.55-3.26,.59-.22,1.09-.62,1.45-1.14,.29-.42,2.82-4.25,1.9-8.45-.3-1.36-1.06-3.2-2.99-4.78-.5-3.39-2.06-9.51-6.83-9.51h0Z"/></g></g></g></g></g></svg>