<?xml version="1.0" encoding="UTF-8"?><svg id="_圖層_2" xmlns="http://www.w3.org/2000/svg" viewBox="0 0 100 100"><defs><style>.cls-1{fill:none;}.cls-2{fill:#0f2c51;}</style></defs><g id="_圖層_1-2"><g><rect class="cls-1" width="100" height="100"/><g><path class="cls-2" d="M52.87,60.02H9.9V11.33H78.64v-2.86c0-1.58-1.28-2.86-2.86-2.86H7.04c-1.58,0-2.86,1.28-2.86,2.86V62.89c0,1.58,1.28,2.86,2.86,2.86H52.86v-5.73Z"/><path class="cls-2" d="M86.46,37.98c2.24-2.53,3.64-5.82,3.64-9.46,0-7.91-6.41-14.32-14.32-14.32s-14.32,6.41-14.32,14.32c0,3.64,1.4,6.93,3.64,9.46-5.82,4.79-8.46,10.95-9.37,22.05,0,4.82,0,10.21,6.21,11.27l2.47,12.34c1.63,6.54,6.1,10.76,11.37,10.76h0c5.27,0,9.74-4.22,11.4-10.89l2.44-12.2c6.21-1.06,6.21-6.48,6.2-11.51-.91-10.86-3.54-17.02-9.36-21.81Zm-10.68-18.05c4.74,0,8.59,3.85,8.59,8.59s-3.85,8.59-8.59,8.59-8.59-3.85-8.59-8.59,3.85-8.59,8.59-8.59Zm11.46,45.83c-1.37,0-2.54,.96-2.81,2.3l-2.83,14.19c-.98,3.9-3.26,6.43-5.82,6.43s-4.84-2.52-5.78-6.29l-2.86-14.32c-.27-1.34-1.44-2.3-2.81-2.3q-2.86,0-2.87-5.49c.9-10.78,3.44-14.78,7.53-18.05,.19-.15,.36-.32,.5-.52,.06-.09,.14-.18,.21-.26,.57,.27,1.18,.48,1.79,.68l2.4,3.6-3.82,9.55,5.73,7.64,5.73-7.64-3.82-9.55,2.4-3.6c.61-.19,1.22-.41,1.79-.68,.07,.09,.14,.18,.21,.26,.15,.19,.31,.37,.5,.52,4.09,3.27,6.63,7.27,7.52,17.81q0,5.73-2.87,5.73Z"/><polygon class="cls-2" points="61.46 17.06 61.46 14.2 15.63 14.2 12.76 14.2 12.76 17.06 12.76 57.16 15.63 57.16 15.63 17.06 61.46 17.06"/><rect class="cls-2" x="7.04" y="68.62" width="45.83" height="2.86"/><path class="cls-2" d="M56.37,18.64c-.71-.35-1.57-.07-1.92,.64l-7.31,14.62-4.45-8.89c-.25-.51-.8-.81-1.36-.79-.57,.03-1.07,.39-1.27,.93l-7.61,20.3-4.18-6.27c-.3-.44-.82-.7-1.34-.63-.53,.05-.98,.4-1.18,.89l-5.73,14.32c-.29,.73,.06,1.57,.8,1.86,.17,.07,.35,.1,.53,.1,.57,0,1.11-.34,1.33-.9l4.72-11.79,4.22,6.33c.3,.45,.82,.69,1.36,.63,.53-.06,.99-.42,1.18-.92l7.44-19.84,4.26,8.52c.49,.97,2.08,.97,2.56,0l8.59-17.19c.35-.71,.07-1.57-.64-1.92Z"/></g></g></g></svg>