<?xml version="1.0" encoding="UTF-8"?><svg id="_圖層_2" xmlns="http://www.w3.org/2000/svg" viewBox="0 0 209.22 248.9"><defs><style>.cls-1{fill:#912d37;}.cls-2{fill:#d36a21;}.cls-3{fill:#221714;}.cls-4{fill:#95908a;}.cls-5{fill:#fff;stroke:#d36a21;stroke-miterlimit:10;stroke-width:3px;}</style></defs><g id="_圖層_1-2"><g><g><path class="cls-2" d="M9.04,237.34c-2.07,0-2.71-.88-2.71-1.59,0-.91,1.04-1.44,1.62-1.44,1.29,0,5.21,1.52,5.21,2.38,0,.38-.51,.66-4.12,.66Zm3.14,5.36c-1.69,4.17-2.58,4.37-3.39,4.37-.2,0-1.67,0-1.67-1.44,0-.83,.13-.94,2.02-2.4,.76-.61,1.95-1.59,2.68-2.2,.13-.1,.33-.25,.48-.25,.2,0,.25,.18,.28,.28,.05,.4,.05,.51-.4,1.64Zm.13-11.48c-.66,0-4.55-.53-4.55-2.12,0-.89,.83-1.42,1.67-1.42,1.52,0,3.57,2.3,3.57,3.11,0,.38-.38,.43-.68,.43Zm13.27,1.69c.18-.33,.91-.68,1.39-.68,.73,0,1.67,.88,1.67,1.44,0,.08-.18,.51-.2,.61-.1,.23-.1,.3-.1,.58,0,1.16,.03,4.35,.05,5.23,.03,.94,.15,5.01,.15,5.84,0,.58,0,.94-.88,1.37-.23,.1-.68,.28-1.06,.28-.33,0-.91,0-1.01-.71,0-.08-.03-.48-.03-.53h-9.35v.53c0,.46-.81,1.04-1.72,1.04-.38,0-1.01-.1-1.01-.58,0-3.39,.28-8.77,.28-12.16,0-.58,0-.63-.13-.83-.08-.1-.25-.35-.25-.53,0-.43,1.11-1.44,1.92-1.44,.3,0,.83,.15,.96,.56h2.71c0-.63-.05-3.39-.05-3.94,0-.51,0-.89-.02-1.31-.05-.13-.43-.61-.43-.73,0-.63,1.67-1.42,2.48-1.42,.48,0,.99,.3,.99,.83,0,.15-.02,.3-.05,.43-.05,.43-.08,.61-.13,2.25h4.45c.43-.94,1.06-1.19,1.49-1.19,.78,0,2.02,.88,2.02,1.62s-.86,.71-1.34,.71h-6.68c-.05,1.52-.05,1.82-.05,2.76h3.94Zm0,8.14c-.46-.15-1.42-.63-2-.91-.25-.13-.58-.3-.58-.66,0-.3,.43-.91,1.04-.91,.46,0,1.01,.35,1.54,1.14v-5.69h-8.95c-.28,0-.35,.23-.35,.48l-.05,4.37c.08-.08,.3-.23,.61-.23,.96,0,2.07,1.54,2.07,2.15,0,.13-.18,.25-.4,.25-.1,0-.2-.03-.23-.03-.58-.23-1.47-.66-2.05-.88l-.05,3.64v.15c.71-.63,2.35-2.07,3.51-4.22-.58-.86-2.28-2.4-2.48-2.48-.53-.25-.61-.28-.61-.53,0-.46,.94-.83,1.29-.83,1.09,0,2.6,1.87,2.98,2.35,.18-.38,.91-2.02,.91-2.38,0-.08-.05-.43-.05-.48,0-.46,.53-.83,1.21-.83,.56,0,1.44,.25,1.44,.96,0,.94-.56,1.9-1.87,4.2,.61,.78,2.28,2.98,2.28,3.69,0,.51-.33,.76-.66,.76-.2,0-.28,0-1.82-1.9-.18-.23-.96-1.09-1.11-1.29-1.42,2.25-4.32,3.74-5.03,3.74,0,.13,0,.53-.03,.61h9.43v-4.25Zm-7.05-6.17c.18-.58,.73-.81,1.01-.81,.96,0,2.07,1.57,2.07,2.15,0,.13-.18,.25-.4,.25-.2,0-1.04-.35-1.37-.51-1.19-.51-1.31-.58-1.31-.99v-.1Zm.94,8.65c.15-.58,.71-.83,1.01-.83,.94,0,2.07,1.54,2.07,2.17,0,.13-.15,.23-.38,.23s-.94-.3-1.24-.43c-1.31-.58-1.47-.66-1.47-1.04v-.1Z"/><path class="cls-2" d="M37.37,238.61h-1.85v1.01c0,.91-1.16,1.29-1.87,1.29-.02,0-.96,0-.96-.81,0-.3,.08-1.79,.08-2.12l.03-6.35c.03-.05-.25-.3-.33-.35-.08-.08-.2-.18-.2-.35,0-.78,1.49-1.8,2.2-1.8,.25,0,.99,.18,1.09,.81h1.8c.28-.56,.88-1.01,1.49-1.01s1.54,.43,1.54,1.19c0,.15-.33,.83-.33,1.01v3.19c0,.61,.1,3.51,.1,4.17,0,1.04-1.01,1.47-1.87,1.47s-.91-.48-.91-.83v-.51Zm13.88-2.86c.35-.86,1.01-1.26,1.52-1.26,.71,0,1.95,.83,1.95,1.74,0,.71-.71,.71-1.57,.71-.71,0-4.25-.03-5.03-.03,.99,1.8,1.59,2.86,4.1,5.06,.58,.51,2.02,1.57,3.39,2.17,.63,.28,.71,.3,.71,.46,0,.25-3.11,1.54-3.82,1.54-1.74,0-3.64-3.89-4.7-7.31,.05,2.2,.13,3.92,.23,5.94,.03,.3,.13,1.82,.13,2.17,0,.94-1.54,1.64-2.15,1.64s-1.19-.4-1.19-1.24c0-.68,.3-6.04,.33-7.18-3.29,5.08-8.29,6.57-9.84,6.57-.2,0-.33-.05-.33-.2,0-.13,.05-.15,.53-.43,2.33-1.31,5.49-3.94,7.21-7.13,.58-1.06,.78-1.42,1.57-1.42,.48,0,.78,.2,.91,.28v-.88h-2.3c-.25,0-1.47,.48-1.74,.48-.73,0-.73-.58-.73-.81,0-.63,.48-1.01,1.01-1.01,.13,0,.73,.13,.89,.13h2.93l-.02-3.74h-1.97c-.23,0-1.29,.43-1.54,.43-.23,0-.73-.18-.73-.66,0-.28,.13-1.19,1.01-1.19,.15,0,.86,.13,1.04,.13h2.17c0-.28,0-1.49-.05-2-.05-.63-.05-.68-.2-.81-.43-.33-.48-.38-.48-.58,0-.83,1.69-1.8,2.65-1.8,1.04,0,1.11,.68,1.11,1.06,0,.15-.1,.89-.13,1.06-.05,.38-.15,2.2-.18,3.06h1.97c.33-.61,.91-1.04,1.39-1.04,.63,0,1.77,.68,1.77,1.59,0,.73-.89,.73-1.29,.73h-3.89l-.08,3.74h3.46Zm-13.88,1.69v-6.17c0-.13-.02-.23-.15-.23h-1.42c-.2,0-.28,.13-.28,.28v6.12h1.85Z"/><path class="cls-2" d="M77.26,229.99c.35-.76,1.01-1.26,1.59-1.26,.81,0,2.15,1.09,2.15,1.9,0,.76-.96,.78-1.21,.78h-16.99l-2.81,.05c-.3,0-1.67,.51-2,.51-.48,0-.76-.35-.76-.76,0-.63,.73-1.37,1.42-1.37,.2,0,1.14,.15,1.37,.15h7.28c-.03-.28-.08-1.59-.1-1.9-.05-.43-.08-.48-.2-.56-.4-.23-.46-.28-.46-.51,0-.86,1.77-1.67,2.71-1.67,.43,0,1.31,.2,1.31,1.16,0,.08-.05,.46-.08,.56-.13,.88-.15,1.39-.28,2.91h7.05Zm-3.21,5.11c.38-.58,.96-.96,1.42-.96,.63,0,1.92,.51,1.92,1.34,0,.2-.08,.35-.13,.4-.2,.33-.2,.38-.2,.71,0,.86,.15,5.06,.15,6.02,0,.78,0,3.29-3.01,3.29-1.64,0-3.36-1.72-3.36-2,0-.1,.1-.1,.28-.1,.15,0,1.29,.13,1.52,.13,1.24,0,1.39-.66,1.47-1.44,.03-.35,0-5.44,0-6.19h-4.07v3.92c0,.99,.1,6.04,.1,6.17,0,2.33-1.59,2.33-1.77,2.33-.4,0-1.31-.38-1.31-1.39,0-.18,.08-1.01,.08-1.19,.15-2.28,.25-7.31,.3-9.84h-3.19c-.3,0-.38,.33-.38,.58v7.23c0,.88-.96,1.82-1.92,1.82-.43,0-1.16-.25-1.16-.91,0-.28,.15-2.28,.18-2.83,.05-.71,.23-3.11,.23-5.36,0-.15,0-.35-.1-.51-.08-.13-.28-.4-.28-.53,0-.61,1.64-1.44,2.28-1.44,.28,0,.81,.18,.91,.76h3.44c0-.35,0-1.52-.2-1.72-.3-.28-.33-.3-.33-.46,0-.58,1.47-1.31,2.35-1.31,1.04,0,1.04,.68,1.04,.99,0,.08-.03,.15-.03,.3-.05,.51-.13,1.09-.18,2.2h3.97Z"/><path class="cls-2" d="M89.06,232.9c.2-.38,.66-.71,1.09-.71,.68,0,1.39,.68,1.39,1.34,0,.25-.13,.46-.43,.53-.3,.05-2.02,.03-2.5,.03l-.1,5.81c.38-.1,2.55-.61,2.68-.61,.2,0,.23,.08,.23,.15,0,1.01-6.04,3.97-7.76,3.97-.63,0-1.74-.48-1.74-1.42s.81-1.09,1.49-1.21c.33-.08,2.05-.33,2.43-.43,.03-3.41,.05-4.65,.08-6.27l-1.04,.02c-.23,0-1.24,.4-1.49,.4-.1,0-.76,0-.76-.53,0-.4,.28-1.21,1.01-1.21,.13,0,.81,.1,.96,.1l1.31,.03c-.03-1.11-.05-3.03-.05-3.94-.58-.56-.66-.63-.66-.91,0-.81,1.59-1.8,2.58-1.8,.3,0,1.24,.1,1.24,1.06,0,.13-.1,.71-.13,.83-.05,.46-.05,.66-.25,4.75h.43Zm14.18,3.03c.2-.48,.91-1.14,1.44-1.14,.71,0,1.95,.91,1.95,1.72,0,.53-.63,.61-1.09,.61h-9.3c-.08,.3-.23,.63-.68,1.49h5.79c.33-.46,.99-.71,1.37-.71,.66,0,1.82,.71,1.82,1.37,0,.05-.1,.28-.2,.46-.05,.08-.08,.2-.08,.38-.28,4.5-.48,8.12-3.94,8.12-1.62,0-3.08-1.87-3.08-2.02,0-.08,.03-.08,.18-.08,.25,0,1.44,.13,1.72,.13,1.21,0,1.49-.68,1.74-1.54,.58-2.07,.66-4.17,.66-4.63,0-.43,0-.61-.46-.61,.23,.1,.28,.28,.28,.35,0,.05-.03,.83-1.24,2.78-2.33,3.79-6.73,5.46-8.93,5.46-.28,0-.73-.08-.73-.23,0-.03,.05-.15,.23-.25,.4-.18,1.06-.48,1.47-.68,3.59-1.95,5.28-4.2,6.04-5.87,.1-.25,.4-1.04,.4-1.21,0-.08-.03-.2-.1-.25h-.71c.13,.08,.2,.18,.2,.3,0,1.24-5.03,6.3-9.38,6.3-.13,0-.56,0-.56-.2,0-.1,.1-.15,.94-.58,4.6-2.33,5.94-5.03,6.19-5.61,0-.2-.05-.2-.4-.2-1.95,2.65-4.7,3.49-5.36,3.49-.13,0-.35-.08-.35-.23,0-.1,1.11-.94,1.31-1.11,2.1-1.9,2.93-4.17,2.93-4.6h-.4c-1.09,0-1.19,0-1.39,.03-.23,.05-1.24,.4-1.47,.4-.25,0-.71-.13-.71-.53,0-.43,.35-1.21,1.16-1.21,.13,0,.63,.13,.76,.13h11.98Zm-4.07-8.75c.25-.48,.91-.94,1.47-.94,.63,0,1.64,.61,1.64,1.24,0,.13-.23,.68-.23,.81,0,.83,.15,4.96,.15,5.33,0,.53,0,.78-.58,1.14-.28,.15-.81,.38-1.39,.38-.99,0-1.01-.4-1.01-.96h-4.17c-.08,.91-.94,1.34-1.59,1.34-1.04,0-1.04-.4-1.04-1.11,0-.76,.08-4.37,.08-5.18,0-.61,0-.68-.15-.86-.23-.25-.28-.3-.28-.46,0-.53,1.34-1.44,1.95-1.44,.15,0,.83,.08,1.01,.71h4.15Zm.05,3.03v-1.92h-3.97c-.1,0-.2,.08-.2,.2v1.72h4.17Zm0,2.86v-1.74h-4.17v1.74h4.17Z"/><path class="cls-2" d="M107.36,233.35c-.13,0-.41-.03-.41-.23,0-.18,1.26-.96,1.29-.96,2.83-2.15,4.15-4.17,4.15-4.2,.68-1.11,.78-1.29,1.42-1.29,.68,0,1.92,.56,1.92,1.21,0,.13-.05,.25-.18,.51,.53,.81,1.82,1.62,3.01,2.17,.63,.3,.71,.33,.71,.48,0,.61-1.47,1.21-2.05,1.21-.53,0-.83-.28-1.19-.63-.43-.43-1.26-1.37-1.69-2.02-1.37,1.52-4.63,3.74-6.98,3.74Zm2.45,4.53c-.15,0-.81,.35-.94,.43-.08,.03-.28,.1-.53,.1-.38,0-.73-.18-.73-.58,0-.51,.43-1.21,1.24-1.21,.1,0,.61,.08,.71,.08h5.97c.25-.46,.78-.78,1.14-.78,.53,0,1.75,.53,1.75,1.06,0,.13-.23,.68-.23,.81,0,.63,.13,3.51,.13,4.12,0,1.44-.73,2.3-2.17,2.3-.76,0-1.44-.48-2-1.09,0,.46,.05,2.5,.05,2.91,0,1.16-1.21,1.87-1.82,1.87-.66,0-1.19-.46-1.19-1.26,0-.33,.23-4.83,.25-5.54,.03-1.57,.05-2.86,0-3.21h-1.62Zm2.43-3.08c-.41,0-.66,.03-1.04,.1-.13,.02-.71,.2-.78,.2-.25,0-.71-.2-.71-.58,0-.23,0-.99,1.14-.99,.18,0,.33,0,.4,.03,.51,.1,2.53,.1,3.82,.08,.23-.35,.51-.76,.99-.76,.53,0,1.54,.71,1.54,1.31s-.66,.61-.96,.61h-4.4Zm1.82,3.06c-.05,.91-.03,2.25,.05,4.85l.08,.03c.1,0,.56,.05,.66,.05,.76,0,.78-.18,.78-1.04v-2.81c-.03-.15-.03-.94-.03-1.09h-1.54Zm4.5,10.14c-.99,0-1.67-.66-1.67-1.19,0-.99,1.32-1.06,1.85-1.09,1.24-.08,2.86-.63,3.57-1.42,.03-.03,.25-.25,.46-.25,.38,0,.43,.28,.35,.4-.46,1.77-2.43,3.54-4.55,3.54Zm8.07-16.08c.3-.53,.94-.83,1.26-.83,.73,0,1.79,.76,1.79,1.39,0,.1-.28,.53-.28,.63v.96c0,1.29,.18,8.09,.18,8.19,0,.56,0,1.01-.86,1.37-.25,.1-.66,.2-1.11,.2-1.06,0-1.06-.3-1.06-.99h-4.37c-.03,.96-1.11,1.24-1.85,1.24-.81,0-.81-.48-.81-.88,0-1.11,.15-6.09,.15-7.1,0-.38,0-2.2-.02-2.5,0-.15-.38-.68-.38-.81,0-.53,1.49-1.44,1.85-1.44,.38,0,.88,0,1.09,.58h.56c.2-1.29,.3-2.33,.33-3.08l-2.83,.03c-.25,0-1.34,.38-1.57,.38-.35,0-.78-.18-.78-.58,0-.53,.48-1.16,1.11-1.16,.05,0,.71,.1,.73,.1,.23,.03,2.45,.03,2.83,.03h5.76c.33-.48,.73-1.11,1.26-1.11,.73,0,2,.83,2,1.64,0,.63-.91,.68-1.16,.71-.15,0-3.87-.03-4.58-.03,.13,.08,.18,.23,.18,.38,0,.43-1.19,2.33-1.47,2.71h2.05Zm-.08,1.14h-4.1c-.2,0-.25,.2-.25,.28v1.77h4.38l-.03-2.05Zm.03,3.16h-4.38v2.17h4.38v-2.17Zm-4.38,3.26v2.23h4.35l.03-2.23h-4.38Zm2.73,5.08c-.33-.28-.76-.66-.76-.73,0-.18,.35-.2,.58-.2,1.16,0,5.89,1.72,5.89,3.79,0,.81-.91,1.24-1.54,1.24-.18,0-.81,0-1.47-.73-.76-1.11-1.62-2.35-2.71-3.36Z"/><path class="cls-2" d="M135.27,234.39c-.1,0-.28,.08-.35,.08-.83,.35-.94,.38-1.21,.38-.33,0-.73-.28-.73-.68,0-.51,.38-1.16,1.24-1.16,.13,0,.78,.13,.94,.13,.53,0,1.42-.03,1.85-.05,.43-.43,.81-.78,1.54-.78,.53,0,1.57,.51,1.57,1.06,0,.13-.18,.66-.2,.78s-.03,1.82-.03,1.95c0,.68-.3,.81-1.42,1.21-.33,.2-1.06,.86-1.14,1.04,.53-.1,.83-.1,1.62-.1,.28,0,2.86,.28,3.51,.35,4.85,.51,6.3,.58,8.7,.58s3.26-.05,4.6-.38c.23-.05,1.42-.33,1.44-.33,.15,0,.2,.02,.2,.18,0,.4-1.52,1.8-1.97,2.12-.83,.61-1.26,.66-2.1,.66-.53,0-1.29-.03-3.89-.3v1.44h2.63c.28-.48,.94-.86,1.39-.86,.61,0,1.87,.73,1.87,1.47,0,.51-.73,.58-.89,.61-.43,.05-4.17,0-4.96,0,0,1.29,0,3.11-.03,3.29-.15,1.14-1.11,1.85-2.43,1.85-1.82,0-3.54-1.67-3.54-2.07,0-.08,.08-.08,.2-.08s1.31,.15,1.57,.15c1.37,0,1.37-.28,1.37-1.87v-1.26c-3.29,.03-7.51,.08-9.76,.08-.56,0-.71,.08-.81,.13-.56,.3-.71,.38-1.16,.38-.71,0-.86-.43-.86-.61,0-.48,.66-1.29,1.42-1.29,.2,0,1.19,.1,1.39,.1,.73,.05,8.24,0,9.78,0,0-.23,0-1.06-.13-1.14-.33-.2-.35-.23-.35-.38,0-.1,.05-.2,.1-.25l-5.59-.99c-1.47-.25-2.83-.43-3.11-.43-.68,0-1.14,.23-2.1,1.14-.53,.51-.76,.71-1.24,.71-.66,0-1.64-.61-1.64-1.26,0-.4,.25-.56,1.31-1.14,2.17-1.16,2.5-1.37,3.14-2.05v-2.45l-1.75,.08Zm3.49-4.6c-.13,.28-.48,.35-.76,.35-1.04,0-3.97-.71-3.97-1.95,0-.68,.71-1.39,1.47-1.39,1.37,0,3.16,2.22,3.26,2.73v.25Zm5.54,14.87c.18,0,.3,.08,.3,.2,0,.48-2.38,2.53-5.23,2.53-.83,0-1.82-.33-1.82-1.06,0-.78,.94-1.42,1.54-1.42,.08,0,.43,.13,.53,.13,.2,.05,.35,.05,.91,.05,.46,0,2-.1,2.45-.18,.18-.05,1.06-.23,1.26-.25h.05Zm7.69-16.26c.28-.58,.91-1.09,1.44-1.09,.63,0,1.97,.81,1.97,1.49,0,.58-.76,.73-1.19,.73h-6.12c-.03,.4-.66,1.09-1.01,1.47h2.68c.3-.48,.94-.81,1.29-.81,.51,0,1.85,.68,1.85,1.26,0,.13-.05,.23-.1,.3-.15,.25-.2,.33-.2,.61,0,.68,.1,4.05,.1,4.8,0,1.26-1.62,1.26-1.85,1.26-1.11,0-1.11-.51-1.14-.94h-5.76c-.13,.61-1.52,.76-1.79,.76-.86,0-.86-.51-.86-1.26,0-.68,.08-3.97,.08-4.7-.03-.08-.28-.35-.28-.43,0-.58,1.19-1.39,1.87-1.39,.13,0,.83,0,.99,.56h.83c.03-.2,.2-1.26,.23-1.49h-2.91c-.23,0-.63,0-.83,.08-.2,.03-1.16,.46-1.39,.46-.38,0-.68-.3-.68-.68,0-.46,.51-1.09,1.11-1.09,.13,0,.61,.1,.73,.1h2.73c-.05-.08-.89-.91-1.04-1.09-.15-.18-.46-.53-.46-.81,0-.63,.99-1.16,1.77-1.16,1.39,0,1.49,1.14,1.67,3.06h1.75c.38-1.67,.43-1.87,.53-2.17,.15-.46,.41-1.14,1.42-1.14,.66,0,1.62,.53,1.62,1.24,0,.61-.18,.76-1.85,2.07h2.81Zm-2.25,4.45v-.86h-5.54c-.15,0-.28,.08-.28,.2v.66h5.82Zm.03,1.8v-.86h-5.84v.86h5.84Zm0,1.79v-.86h-5.84v.86h5.84Z"/><path class="cls-2" d="M166.08,237.9c.28-.46,.68-.81,1.21-.81,.66,0,1.85,.71,1.85,1.37,0,.02-.18,.46-.2,.48-.05,.15-.05,.71-.05,1.24,0,.73,.05,4.42,.05,5.26,0,.61,0,.81-.48,1.06-.43,.25-1.06,.43-1.62,.43-.88,0-.88-.3-.91-.96h-3.57v.56c0,.71-1.11,1.09-2.02,1.09s-.88-.46-.88-1.39c0-.89,.1-5.21,.1-6.19,0-.28,0-.68-.13-.81-.25-.25-.25-.28-.25-.4,0-.71,1.49-1.62,2.2-1.62,.18,0,.86,.1,.99,.71h3.72Zm-.13,6.78v-5.51h-3.39c-.15,0-.25,.15-.25,.3-.03,.73,.03,4.37,.03,5.21h3.62Zm7.46-17.12c.5-.73,1.01-1.04,1.54-1.04,.68,0,1.97,.78,1.97,1.44,0,.15-.05,.23-.1,.3-.2,.28-.2,.3-.2,.61,0,.48,.08,4.75,.08,5.41,0,.48,0,.61-.28,.86-.41,.38-1.29,.61-1.97,.61-.99,0-.99-.35-.99-1.16h-6.9c-.1,1.29-1.82,1.37-1.95,1.37-1.06,0-1.06-.73-1.06-1.26,0-.38,.05-2.28,.05-2.71,0-.35,.08-2.1,.08-2.5,0-.28,0-.56-.13-.68-.38-.33-.4-.35-.4-.56,0-.66,1.72-1.52,2.38-1.52,.18,0,1.01,.1,1.09,.83h6.8Zm.05,5.79v-4.58h-6.72c-.13,0-.2,.08-.2,.2v4.37h6.93Zm4.1,4.55c.4-.56,.99-.78,1.34-.78,.66,0,1.95,.71,1.95,1.39,0,.13-.05,.25-.08,.33-.2,.33-.2,.38-.2,.76,0,.86,.15,5.08,.15,6.04,0,.46,0,.71-.78,1.06-.46,.23-.94,.35-1.37,.35-1.09,0-1.09-.53-1.11-1.09h-3.62v.46c0,.81-1.11,1.29-1.69,1.29-.96,0-1.24-.46-1.24-1.01,0-1.04,.2-6.17,.1-7.33-.05-.08-.3-.53-.3-.58,0-.68,1.39-1.54,2.1-1.54,.43,0,.94,.2,1.06,.66h3.69Zm-.08,6.78v-5.51c-.2,0-3.44-.03-3.46,0-.23,.05-.23,.1-.23,.73,0,.68,.03,4.02,.03,4.78h3.67Z"/><path class="cls-2" d="M191.66,234.13c.05-.05,.3-.38,.35-.46,.08-.08,.25-.25,.53-.25,.61,0,1.14,.68,1.14,1.26,0,.25-.13,.43-.38,.48-.2,.05-.73,.05-5.56,.03l-.08,2.63h1.57c.3-.51,.99-.71,1.31-.71,.53,0,1.49,.46,1.49,1.04,0,.13-.3,.81-.33,.99-.05,.4-.05,.63-.05,1.52s.1,5.39,.1,5.49c0,1.47-1.24,1.95-1.9,1.95-1.04,0-1.04-.53-1.04-.86,0-.63,.2-3.77,.23-4.48,.1-2.12,.1-3.13,.1-3.87h-1.57c-.13,2.91-1.01,6.8-4.45,8.14-.03,0-.08,.02-.1,.02-.13,0-.28-.08-.28-.2,0-.08,.83-1.21,.96-1.47,1.39-2.65,1.49-5.82,1.49-9.66,0-3.26-.08-4.4-.1-5.28-.03-.3,0-.35-.13-.46-.38-.25-.43-.28-.43-.48,0-.73,1.59-1.62,2.33-1.62,.96,0,.96,.58,.96,.83,0,.13-.05,.86-.05,1.01,0,1.74,0,2.98-.03,4.45h1.21c.03-1.67,.05-2.76,.05-3.79,0-.46,0-2.05-.2-2.25-.28-.25-.3-.28-.3-.43,0-.68,1.77-1.52,2.5-1.52,.46,0,.88,.28,.88,.83,0,.13-.15,.76-.18,.91-.08,.56-.18,3.08-.28,6.19h.2Zm12.79,6.8c.28-.51,.88-1.19,1.42-1.19,.81,0,1.9,1.01,1.9,1.74s-.73,.76-1.74,.76c-.63,0-3.82-.05-4.55-.05l.02,.96c.03,.58,.13,3.34,.13,3.64,0,1.39-1.21,1.92-1.75,1.92s-1.34-.58-1.34-1.47c0-.33,.1-1.92,.13-2.3l.1-2.78-4.85,.02c-.18,0-1.01,.3-1.21,.3-.33,0-.76-.1-.76-.56,0-.51,.38-1.19,1.16-1.19,.13,0,.63,.18,.76,.18h.56c.48-1.19,.68-1.95,.96-3.16,.1-.38,.2-.81,1.34-.81s1.57,.66,1.57,1.14c0,.18-.1,.35-.18,.43-.18,.28-1.79,2-2.17,2.4h2.86c0-.73,.03-1.77,.03-2.22,0-.13,0-.15-.05-.4-.03-.1-.35-.46-.35-.58,0-.53,1.49-1.21,2.2-1.21,.56,0,1.01,.25,1.01,.86,0,.03,0,.15-.03,.2,0,.03-.13,.58-.13,1.72v1.64h2.98Zm-1.95-12.84c.2-.23,.61-.68,1.26-.68s1.54,.51,1.54,1.21c0,.18-.18,.91-.18,1.09,0,.94,.15,5.61,.15,5.89,0,.61,0,.68-.23,.89-.35,.33-1.11,.56-1.77,.56-.94,0-.94-.3-.94-.88h-5.87c0,.68-1.26,.91-1.79,.91s-.83-.25-.83-.73c0-.56,.18-4.96,.18-5.89,0-.18,0-.71-.18-.94-.15-.2-.25-.33-.25-.48,0-.63,1.47-1.42,1.9-1.42,.35,0,.86,.13,.96,.48h.86c.15-.46,.33-1.06,.56-2.4,.05-.23,.18-1.01,1.39-1.01,.58,0,1.75,.35,1.75,1.09,0,.23-.1,.46-.25,.63-.25,.33-1.29,1.24-1.8,1.69h3.54Zm-4.37,3.51v-2.43h-1.49c-.18,0-.2,.2-.2,.33v2.1h1.69Zm0,3.51v-2.45h-1.67v2.45h1.67Zm4.25-3.51c0-.35-.03-2.05-.03-2.43h-1.67v2.43h1.69Zm-.03,3.51v-2.45h-1.67c0,.35,.03,2.07,.03,2.45h1.64Z"/></g><g><circle class="cls-5" cx="104.61" cy="104.61" r="103.11"/><g><g><g><path class="cls-1" d="M128.24,60.86c-.37-.15-.8,.04-.95,.41l-1.07,2.73c-2.17,5.75-6.92,9.32-12.38,9.32h-20.15c-5.13,0-9.76-3.04-11.8-7.74l-1.89-4.34c-.16-.37-.59-.54-.96-.38-.37,.16-.54,.59-.38,.96l1.89,4.34c2.24,5.15,7.27,8.5,12.86,8.61v2.99c0,.4,.33,.73,.73,.73h18.74c.4,0,.73-.33,.73-.73v-2.98h.23c6.08,0,11.35-3.93,13.74-10.26l1.07-2.73c.15-.38-.04-.8-.41-.95Zm-16.08,16.18h-17.28v-2.25h17.28v2.25Z"/><path class="cls-1" d="M83.94,62.72c1.09,0,1.6,.47,2.25,1.05,.7,.64,1.58,1.43,3.23,1.43s2.53-.79,3.23-1.43c.65-.59,1.16-1.05,2.25-1.05s1.6,.47,2.25,1.05c.7,.64,1.58,1.43,3.23,1.43s2.53-.79,3.24-1.43c.65-.59,1.16-1.05,2.26-1.05s1.61,.47,2.26,1.05c.7,.64,1.58,1.43,3.24,1.43s2.53-.79,3.24-1.43c.65-.59,1.17-1.05,2.26-1.05,.4,0,.73-.33,.73-.73s-.33-.73-.73-.73c-1.66,0-2.53,.79-3.24,1.43-.65,.59-1.17,1.05-2.26,1.05s-1.61-.47-2.26-1.05c-.7-.64-1.58-1.43-3.24-1.43s-2.53,.79-3.23,1.43c-.65,.59-1.16,1.05-2.26,1.05s-1.6-.47-2.25-1.05c-.7-.64-1.58-1.43-3.23-1.43s-2.53,.79-3.23,1.43c-.65,.59-1.16,1.05-2.25,1.05s-1.6-.47-2.25-1.05c-.7-.64-1.58-1.43-3.23-1.43-.4,0-.73,.33-.73,.73s.33,.73,.73,.73Z"/><path class="cls-1" d="M130.23,52.21c-.02-.1-.09-.18-.18-.23l-.83-.46c-.17-.1-.38-.04-.49,.12l-7.83,12.26c-1.45,2.06-3.16,2.61-5.42,3.16-1.32,.32-2.66,.4-3.98,.23-.04,0-.97-.11-1.86,.18-.66,.21-1.13,.78-1.22,1.48-.08,.66,.21,1.28,.77,1.62,.64,.4,1.56,.6,2.74,.6,.93,0,2.02-.12,3.28-.37,.17-.05,4.09-1.14,5.84-4.11l9.13-14.18c.05-.08,.07-.19,.05-.29Z"/></g><path class="cls-3" d="M27.97,120.42c1.12-.1,1.68,.15,2.3-.92,.82-1.43,1.53-3.93,2.09-5.51,.56-1.53,1.07-3.01,1.58-4.54,.97-2.96,1.84-5.92,2.76-8.88,.1-.31,.15-.31,.41-.31,.15,0,.2,.25,.2,.36,0,.77-.41,2.5-.56,3.32-.61,3.52-1.28,7.04-1.84,10.56-.36,2.3-1.07,5.36-1.07,7.76,0,2.7,1.43,5.15,1.43,7.81,0,1.48-.66,2.81-2.35,2.81-.71,0-1.53-.2-2.04-.82-1.17-1.43-.31-6.68-1.07-8.88-.61-1.84-2.3-1.89-2.3-2.5,0-.2,.36-.25,.46-.25Zm3.62-10.41c-.66,0-1.53-.15-1.79-.82-.51-1.33-.15-2.81-.77-4.13-.26-.61-.71-1.28-1.17-1.79-.2-.2-.31-.31-.31-.61,0-.15,.2-.15,.31-.15,.46,0,.92,.15,1.33,.31,2.04,.56,4.54,2.14,4.54,4.59,0,1.28-.77,2.6-2.14,2.6Zm1.63-10.26c-.92,0-1.89-.61-2.09-1.53-.36-1.68-.15-3.57-1.02-5.05-.15-.26-1.12-1.48-1.12-1.58,0-.2,.2-.26,.41-.26,.36,0,.77,.15,1.12,.31,1.99,.87,5,2.6,5,5.15,0,1.48-.56,2.96-2.3,2.96Zm8.73,18.06h-.82v.66c-1.17,.36-2.4,.61-3.67,.71,.1-1.17,.25-2.45,.25-3.62v-8.67c0-.82-.05-1.58-.1-2.4-.05-.51-.31-1.22-.31-1.58s.36-.36,.61-.36c.41,0,4.13,1.43,4.29,1.48l.05-5.56h-2.96l-.71,.61-1.53-2.6c.92,.05,1.94,.2,2.86,.2h2.4v-2.09c0-1.12,0-2.3-.05-3.42-.05-.56-.36-1.79-.36-2.19,0-.36,.15-.41,.51-.41,.71,0,5.1,.87,5.1,1.84,0,.36-1.12,1.07-1.38,1.28l-.05,5h1.79c.36-.25,1.79-1.73,2.25-1.73s1.89,1.99,2.19,2.4c.15,.15,.31,.36,.31,.61,0,.46-.41,.51-.77,.51h-5.82l-.1,5.56h.71c.15-.15,1.22-1.38,1.63-1.38,.46,0,2.5,1.68,2.91,1.99,.2,.15,.56,.46,.56,.71,0,.46-1.07,1.07-1.33,1.28v8.42c0,1.02,.15,2.14,.2,3.16-1.28,.46-2.55,.66-3.88,.92l.1-1.33h-.56l-.71,.61v4.8h2.3c.31-.26,1.63-1.73,2.04-1.73,.2,0,.36,.15,.46,.25l1.79,2.14c.15,.15,.25,.36,.25,.56,0,.46-.41,.56-.77,.56h-6.02c0,2.19-.05,4.44-.05,6.63,0,1.28,.2,2.6,.25,3.83-1.33,.56-2.7,.71-4.13,.87,.05-1.48,.25-3.06,.25-4.54v-6.79h-3.88l-.71,.61-1.53-2.6c.92,.05,1.94,.2,2.86,.2h3.27v-5.41Zm4.9-7.81v-4.18h-5.1l-.61,.51,.05,3.67h5.66Zm0,6.12v-4.44h-5.71v4.44h5.71Zm14.7-25.36c.51,0,2.96,1.73,3.52,2.09,.15,.1,.31,.26,.31,.46,0,.51-1.07,1.22-1.48,1.53v38.07c0,.82-.15,1.68-.61,2.4-.61,1.07-3.62,1.43-4.69,1.58-.05-1.28-.31-2.81-1.53-3.47-.41-.2-1.58-.66-1.58-1.12,0-.2,.26-.26,.41-.26,.97,.05,1.94,.15,2.86,.15,1.12,0,1.38-.41,1.38-1.48l-.05-13.37h-3.52c-.05,1.73-.1,3.47-.25,5.2-.41,4.95-2.86,9.7-6.38,13.16-.26,.31-1.73,1.94-2.09,1.94-.15,0-.25-.2-.25-.36s.05-.31,.15-.41c2.25-3.37,3.67-6.07,4.59-10.05,.92-4.03,.87-10.1,.87-14.44s-.15-8.83-.15-13.22c0-1.22,.1-2.45,.1-3.67,0-.97-.1-1.99-.2-3.01-.05-.41-.2-.92-.2-1.38,0-.25,0-.51,.31-.51,.97,0,3.67,1.43,4.59,1.89h2.09c.25-.31,1.33-1.73,1.84-1.73Zm-1.43,24.85v-10.05l-3.42-.05-.1,10.1h3.52Zm0-11.79v-9.59h-2.96l-.46,.46v9.08l3.42,.05Z"/><path class="cls-3" d="M85.69,118.1v-15.51c0-1.38-.05-2.76-.1-4.08,0-1.12-.15-1.12-.41-2.14,0-.15,.05-.41,.31-.41,.2,0,1.33,.46,1.53,.56,1.17,.46,2.3,1.22,3.32,1.89h2.19c.25-.31,1.17-1.73,1.73-1.73,.51,0,3.98,2.04,3.98,2.65,0,.46-1.02,1.07-1.33,1.28v16.33c0,1.43,.15,2.91,.25,4.34-1.43,.56-2.86,.97-4.34,1.17l.2-2.81h-3.52v3.47c-1.33,.46-2.76,.77-4.13,.92,.1-1.94,.31-3.98,.31-5.92Zm7.35-.31v-17.55h-3.21l-.31,.66v16.89h3.52Zm7.19-4.85l-.92,.66-2.04-2.76c.97,.1,2.09,.26,3.06,.26h5.87v-8.42h-4.08l-.87,.66-2.09-2.75c1.02,.1,2.09,.31,3.11,.31h3.93v-6.99c0-.56-.15-2.7-.36-3.11-.2-.46-.77-.77-.77-1.28,0-.31,.36-.31,.56-.31,.97,0,6.38,.87,6.38,2.04,0,.61-1.28,1.48-1.68,1.84v7.81h3.42c.25-.26,1.84-2.3,2.3-2.3,.26,0,.46,.1,.66,.31l2.25,2.04c.31,.25,.61,.66,.61,1.07,0,.46-.36,.66-.82,.66h-8.42v8.42h6.28c.26-.31,2.09-2.6,2.65-2.6,.77,0,3.67,3.27,3.67,3.83,0,.41-.56,.61-.87,.61h-10c1.68,5.15,6.28,11.07,10.61,14.39,.15,.15,1.22,.87,1.22,1.07,0,.56-1.58,.31-1.94,.31-1.43,0-2.91,.87-4.08,1.58-4.39-5-6.07-10.92-7.09-17.35h-.46v18.88c0,1.38,.1,2.81,.15,4.18-1.48,.51-3.06,.87-4.64,.97,.1-1.63,.36-3.67,.36-5.26v-13.01c-2.86,4.18-7.96,9.49-12.3,12.19-.31,.2-1.63,1.12-1.94,1.12-.1,0-.2-.1-.2-.25,0-.31,1.22-1.43,1.48-1.74,4.75-5.05,8.06-10.92,11.07-17.09h-4.08Z"/><path class="cls-3" d="M141.08,121.52c1.22-.15,1.68-.56,2.3-1.58,.77-1.22,1.43-2.6,1.99-3.88,.97-1.94,1.79-3.88,2.55-5.87,1.33-3.16,2.4-6.33,3.67-9.44,.1-.25,.61-1.68,.82-1.68s.31,.05,.31,.26c0,.56-2.4,8.47-2.7,9.34-.77,2.65-3.37,10.61-3.37,13.16,0,1.89,.87,4.08,1.43,5.87,.36,.92,.87,2.55,.87,3.47,0,1.43-1.12,2.55-2.55,2.55-2.4,0-2.6-2.7-2.7-4.49,0-1.22-.05-2.5-.2-3.72-.26-2.7-3.37-3.01-3.37-3.62,0-.36,.71-.36,.97-.36Zm5.87-12.14c-.36,.82-1.07,1.12-1.99,1.12-.71,0-1.17-.36-1.53-.92-1.07-1.43-.41-3.11-1.63-5-.2-.2-1.33-1.58-1.33-1.73,0-.1,.15-.1,.26-.1,.2,0,.41,.05,.56,.1,1.84,.41,3.93,.87,5.15,2.4,.51,.77,.97,1.58,.97,2.5,0,.51-.26,1.17-.46,1.63Zm-4.64-16.94c1.73,0,5.1,.87,6.12,2.5,.41,.77,1.12,2.09,1.12,3.01,0,1.43-.87,2.55-2.35,2.55-1.94,0-2.19-2.25-2.45-3.62-.36-1.89-1.17-2.76-2.6-3.88-.1-.1-.25-.2-.25-.36s.25-.2,.41-.2Zm9.54,24.14l-.92,.61-1.84-2.75c1.07,.1,2.25,.31,3.32,.31h6.84c.41-3.88,.56-7.7,.71-11.58h-4.75l-.87,.66-1.79-2.81c1.07,.1,2.25,.31,3.32,.31h4.13c-.05-2.19,0-4.39,0-6.58,0-1.17-.15-2.65-.41-3.83-.05-.36-.41-1.07-.41-1.33s.31-.31,.51-.31c.51,0,3.27,.77,3.78,.92,.41,.15,2.4,.66,2.4,1.22s-.97,1.12-1.38,1.33c0,2.86-.1,5.72-.25,8.57h4.9c.15-.15,1.89-2.4,2.09-2.4,.46,0,3.06,1.99,3.47,2.3,.26,.2,.92,.66,.92,1.07,0,.46-1.43,1.43-1.79,1.68v10.77h.31c.36-.46,1.68-2.4,2.4-2.4,.82,0,2.6,2.14,3.11,2.6,.26,.26,.66,.71,.66,1.07s-.31,.56-.61,.56h-14.54c.36,.97,.77,1.89,1.12,2.86,1.22,3.01,5.36,7.65,7.81,9.9,1.33,1.17,3.67,3.16,5.36,3.78,.36,.15,1.17,.31,1.17,.82,0,.41-1.22,.41-1.53,.41-1.94,.26-3.06,1.02-4.54,2.25-3.47-3.01-7.09-6.94-8.37-11.48-.82-2.81-1.53-5.66-1.99-8.52h-1.02c-.87,6.28-3.32,12.3-8.67,16.02-1.43,1.02-2.91,1.99-4.44,2.81-.46,.26-2.81,1.58-3.27,1.58-.15,0-.2-.1-.2-.2,0-.41,2.35-2.09,2.65-2.35,1.38-1.07,2.6-2.35,3.72-3.72,3.88-4.59,5.15-8.27,6.02-14.13h-7.14Zm17.86-1.84v-11.58h-5.56c-.15,3.83-.26,7.76-.71,11.58h6.28Z"/></g><g><path class="cls-4" d="M75.25,154.41h-2.38v-10.37h2.38v.87h-1.28v8.63h1.28v.87Z"/><path class="cls-4" d="M76.81,150.74c.65,.53,1.41,.79,2.28,.79,1.12,0,1.68-.38,1.68-1.15,0-.22-.06-.42-.19-.6-.12-.18-.29-.33-.5-.47-.21-.13-.62-.35-1.24-.64-.76-.36-1.29-.73-1.59-1.11-.3-.37-.45-.82-.45-1.32,0-.73,.29-1.3,.86-1.72,.58-.42,1.31-.63,2.2-.63s1.49,.1,1.92,.31v1.34c-.52-.36-1.17-.54-1.95-.54-.5,0-.9,.1-1.21,.3-.31,.2-.46,.47-.46,.82,0,.32,.11,.58,.34,.78,.22,.2,.7,.48,1.42,.82,.84,.39,1.42,.79,1.74,1.18,.32,.39,.48,.85,.48,1.36,0,.76-.27,1.35-.83,1.75-.55,.4-1.32,.61-2.3,.61-.36,0-.76-.04-1.2-.13-.44-.09-.78-.2-1.01-.35v-1.41Z"/><path class="cls-4" d="M85.59,145.11h0v6.31h0v1.07h-1.31v-1.07h0v-6.31h0v-1.07h1.31v1.07Z"/><path class="cls-4" d="M95.36,152.49h-1.46l-4.04-6.23c-.15-.23-.26-.43-.33-.59h-.03c.03,.22,.05,.63,.05,1.23v5.59h-1.27v-8.45h1.55l3.92,6.11c.19,.29,.31,.49,.37,.61h.03c-.04-.26-.06-.67-.06-1.21v-5.5h1.28v8.45Z"/><path class="cls-4" d="M103.9,152.16c-.63,.32-1.41,.47-2.36,.47-1.22,0-2.2-.38-2.94-1.15-.74-.77-1.1-1.78-1.1-3.05s.41-2.4,1.22-3.25c.82-.85,1.87-1.28,3.16-1.28,.81,0,1.49,.11,2.03,.34v1.33c-.6-.33-1.26-.5-1.98-.5-.92,0-1.66,.3-2.21,.91-.56,.61-.83,1.4-.83,2.38s.26,1.69,.78,2.27c.52,.58,1.22,.87,2.1,.87,.81,0,1.53-.19,2.15-.56v1.24Z"/><path class="cls-4" d="M110.77,152.49h-4.68v-8.45h4.49v1.12h-3.18v2.49h2.95v1.12h-2.95v2.6h3.37v1.12Z"/><path class="cls-4" d="M121.01,152.49h-5.25v-1.07l2.45-2.41c.55-.53,.95-1,1.21-1.39s.39-.81,.39-1.27c0-.94-.5-1.4-1.48-1.4-.74,0-1.46,.31-2.14,.93v-1.23c.69-.5,1.48-.75,2.37-.75,.77,0,1.39,.21,1.85,.62,.46,.41,.69,.98,.69,1.69,0,.52-.15,1.03-.44,1.54-.29,.51-.8,1.12-1.52,1.81l-1.88,1.79v.03h3.75v1.11Z"/><path class="cls-4" d="M122.85,148.43c0-1.48,.25-2.61,.76-3.38,.51-.77,1.24-1.15,2.21-1.15,1.84,0,2.75,1.44,2.75,4.33,0,1.41-.25,2.5-.75,3.26s-1.23,1.15-2.18,1.15-1.61-.36-2.08-1.08c-.47-.72-.7-1.76-.7-3.13Zm1.3-.05c0,2.15,.52,3.23,1.57,3.23s1.54-1.1,1.54-3.3-.5-3.38-1.51-3.38c-1.07,0-1.6,1.15-1.6,3.45Z"/><path class="cls-4" d="M135.59,152.49h-4.98v-1.07h1.85v-6.1l-1.9,.51v-1.12l3.18-.83v7.55h1.84v1.07Z"/><path class="cls-4" d="M142.93,144.54l-3.23,7.95h-1.34l3.11-7.35h-4.15v-1.1h5.6v.5Z"/><path class="cls-4" d="M146.74,154.41h-2.38v-.87h1.28v-8.63h-1.28v-.87h2.38v10.37Z"/></g></g></g></g></g></svg>