<?xml version="1.0" encoding="UTF-8"?><svg xmlns="http://www.w3.org/2000/svg" viewBox="0 0 284.9 447.91"><defs><style>.cls-1{mix-blend-mode:darken;stroke:#fff;stroke-width:.5px;}.cls-1,.cls-2{fill:#595857;}.cls-1,.cls-3{stroke-miterlimit:10;}.cls-4{fill:#0e2c50;}.cls-5{isolation:isolate;}.cls-3{fill:none;stroke:#e6bfa2;stroke-width:7px;}.cls-6{fill:#e6bfa2;opacity:.3;}</style></defs><g class="cls-5"><g id="_圖層_2"><g id="_圖層_1-2"><g><g><path class="cls-2" d="M24.51,273.5c.81,0,1.79,.39,1.79,1.25,0,.81-1.38,2.68-2.05,3.48-.03,.88-.03,2.05-.03,5.38,0,1.33,.08,7.88,.08,9.36,0,.88,0,1.25-.6,1.85-.6,.57-1.17,.7-1.51,.7-.16,0-1.09,0-1.09-1.09,0-.21,.08-1.25,.1-1.48,.13-2.37,.36-9.91,.44-12.69-1.01,.65-2.52,1.35-3.51,1.35-.39,0-.39-.08-.39-.18,0-.13,1.38-1.25,1.61-1.48,2.47-2.39,3.64-4.86,3.77-5.2,.13-.94,.73-1.25,1.38-1.25Zm3.46,21.95c-.73,0-1.72-.42-1.72-1.12,0-.57,.7-.99,1.22-1.01,1.61-.1,2.86-.18,4.03-.99,.62-.44,.7-.49,.96-.49,.44,0,.44,.23,.44,.34,0,.26-.18,.55-.47,.88-1.38,1.72-3.35,2.39-4.47,2.39Zm11.28-21.04c.23-.57,.99-1.07,1.48-1.07,.73,0,1.77,.91,1.77,1.64,0,.62-.88,.65-1.27,.65h-4.65c0,.29-.03,1.66-.03,1.98h1.35c.34-.49,.83-.78,1.25-.78,.83,0,1.9,.86,1.9,1.3,0,.1-.23,.44-.29,.52,0,.44,.05,2.73,.05,2.81,0,1.04-1.74,1.17-1.98,1.17-1.04,0-1.04-.39-1.04-.73h-8.5c0,.7-1.25,.94-1.82,.94-.81,0-.81-.39-.81-.86s.1-2.81,.1-3.33c-.26-.23-.36-.31-.36-.44,0-.49,1.43-1.25,2.05-1.25,.08,0,.65,0,.94,.65h1.17c0-.29-.03-1.66-.03-1.98-.6,.03-.78,.03-1.01,.03-.86,0-.96,0-1.3,.13-.91,.34-1.01,.39-1.27,.39-.31,0-.6-.26-.6-.62,0-.55,.42-1.3,1.3-1.3,.16,0,.91,.16,1.09,.16h10.5Zm-2.18,9.05c.36-.65,.91-.7,1.12-.7,.91,0,1.79,.68,1.79,1.2,0,.08-.16,.34-.18,.47-.03,.08-.03,.18-.03,.42,0,.86,.13,4.97,.13,5.9,0,.55,0,.65-.23,.86-.31,.29-1.04,.52-1.64,.52-1.01,0-1.04-.36-1.04-.55h-6.63c-.1,.6-1.46,.75-1.82,.75-.81,0-.81-.49-.81-.7,0-.86,.13-4.94,.13-5.88,0-.13-.03-.7-.03-.86s0-.26-.05-.34c-.26-.26-.34-.36-.34-.49,0-.42,1.35-1.25,2-1.25,.1,0,.91,.05,.96,.65h6.66Zm-6.53-2.5v-2.31h-1.25v2.31h1.25Zm6.45,9.46v-1.17h-6.63l.03,1.17h6.6Zm.03-4.68l-.03-1.22h-6.6v1.22h6.63Zm0,2.34v-1.3h-6.63v1.3h6.63Zm-2.96-10.48v-2h-1.01v2h1.01Zm0,3.35v-2.31h-1.01v2.31h1.01Zm6.01,15c-.34,0-.91-.1-1.3-.47-1.51-1.4-2.7-2.08-2.86-2.16-1.4-.78-1.56-.86-1.56-1.01,0-.18,.42-.29,.75-.29,1.04,0,6.53,.81,6.53,2.91,0,.62-.94,1.01-1.56,1.01Zm-2.24-15v-2.31h-1.27v2.31h1.27Z"/><path class="cls-2" d="M51.19,280c0,1.07,0,1.17,.03,1.53,.42,.57,.96,1.22,2.73,2.13,.05,.03,.34,.16,.34,.36,0,.57-1.25,1.35-1.69,1.35-.47,0-1.14-1.01-1.46-1.51,0,1.27,.16,7.57,.16,9,0,1.09,0,1.82-1.04,2.31-.16,.08-.73,.29-1.14,.29-1.09,0-1.09-.7-1.09-1.2,0-.29,.42-8.32,.47-9.54-1.74,3.07-3.98,4.42-4.52,4.42-.13,0-.26-.03-.26-.18,0-.05,.86-1.4,1.01-1.66,1.09-2,1.38-2.99,1.95-4.91,.26-.88,.39-1.22,1.17-1.22,.26,0,.49,.1,.73,.21v-1.38l-1.77,.03c-.21,0-1.25,.39-1.48,.39-.52,0-.7-.23-.7-.6,0-.47,.44-1.22,1.17-1.22,.13,0,.78,.18,.94,.18h1.82c0-1.4-.1-3.48-.1-3.54-.03-.16-.6-.62-.6-.78,0-.57,1.72-1.64,2.76-1.64,.6,0,1.01,.21,1.01,.94,0,.13-.1,.78-.13,.94-.26,1.95-.21,3.28-.23,4.08h.13c.13-.21,.47-.75,.88-.75,.73,0,1.35,.73,1.35,1.4,0,.49-.39,.57-1.01,.57h-1.4Zm10.35-4.39c.39-.44,.81-.94,1.51-.94s2.03,.81,2.03,1.43c0,.21-.29,.7-.62,.94-.81,2-2,3.59-2.52,4.29,2,1.77,5.2,2.94,7.02,3.3,.62,.13,.7,.16,.7,.31,0,.18-2.37,2.24-3.02,2.24-.26,0-3.82-.94-6.37-4.24-1.2,1.25-2.76,2.78-6.01,3.93-1.14,.42-2.08,.55-2.42,.55-.18,0-.44,0-.44-.21,0-.16,.03-.16,.75-.49,3.04-1.48,5.62-4.42,6.42-5.51-.23-.49-.78-1.79-1.04-3.17-1.53,2.24-3.77,3.64-4.68,3.64-.08,0-.31-.03-.31-.21,0-.05,.62-.73,.75-.88,.99-1.2,2.47-3.67,3.33-6.21-.03-.05-.03-.26-.03-.44,.03-.88,1.38-1.25,1.9-1.25,.6,0,1.51,.34,1.51,1.12,0,.39-.21,.81-.73,1.82h2.26Zm.6,11.93c.16-.26,.57-.96,1.25-.96,.73,0,2,.7,2,1.51,0,.13-.16,.83-.16,.99,0,.75,.1,4.73,.1,4.76,0,.47,0,.65-.29,.94-.39,.34-1.12,.55-1.72,.55-1.09,0-1.12-.36-1.17-1.46h-4.73c0,.44,0,.88-.52,1.3-.29,.21-.73,.44-1.14,.44-1.12,0-1.12-.55-1.12-1.25,0-.78,.13-4.65,.13-5.51,0-.1-.29-.57-.29-.7,0-.55,1.38-1.35,2.03-1.35,.47,0,.86,.29,.99,.75h4.63Zm.05,5.15c0-.57-.03-3.35-.03-3.98h-4.39c-.31,0-.31,.36-.31,.49,0,.39-.03,2.34-.03,2.78v.7h4.76Zm-3.59-15.96c.21,.94,.52,1.64,1.27,2.91,.52-.91,.96-1.9,1.22-2.91h-2.5Z"/><path class="cls-2" d="M74.09,283.3c.49-.57,.83-.96,1.38-.96s1.87,.86,1.87,1.56c0,.1-.03,.26-.13,.42-.18,.21-.21,.23-.21,.49,0,.18,.05,2.73,.05,3.22,0,.57,0,.91-.94,1.35-.78,.36-1.07,.47-1.56,1.33,.88,0,2.37,.29,3.17,.42,6.89,1.2,9.83,1.72,12.4,1.72,1.3,0,1.66-.05,4.86-.52h.05c.26,0,.36,.18,.36,.31,0,.26-2.91,3.25-5.17,3.25-1.85,0-4.76-.86-5.93-1.22l-6.24-1.95c-1.2-.36-3.74-1.17-4.16-.94-1.59,2.34-1.69,2.47-2.37,2.47-.99,0-1.56-1.22-1.56-1.87,0-.47,.1-.55,1.17-1.17,2.11-1.27,2.7-1.95,2.99-2.26v-4.24l-1.53,.08c-.23,0-1.33,.44-1.59,.44-.34,0-.75-.16-.75-.68s.34-1.3,1.27-1.3c.13,0,.75,.13,.91,.13l1.64-.08Zm1.9-4.94c-.23,0-4.47-.6-4.47-2.29,0-.99,.91-1.51,1.66-1.51,1.66,0,3.51,2.73,3.51,3.3,0,.29-.26,.49-.7,.49Zm11.08-.83c1.51,2.31,5.15,3.72,7.25,4.16,.81,.18,.88,.18,.88,.36,0,.26-2.21,1.82-3.17,1.82-.26,0-4.16-.81-5.69-5.88,.03,.52,.08,1.72,.08,2.57,0,.13,.05,.86,.05,1.01,0,.75-1.01,1.25-1.79,1.25-.88,0-1.01-.36-1.01-.86,0-.31,.08-1.92,.08-2.29-.29,.44-1.46,1.51-2.05,1.98-1.22,.94-3.35,1.66-4.11,1.66-.18,0-.49-.03-.49-.23,0-.13,.08-.21,.86-.75,2.26-1.64,3.02-3.12,3.25-3.54,.08-.44,.23-.94,1.56-.94,.34,0,.6,.05,1.01,.29v-.62h-3.09c-.23,0-.88,.03-1.04,.08-.16,.03-.88,.31-1.07,.31-.49,0-.62-.23-.62-.65,0-.62,.57-1.04,1.01-1.04,.03,0,.49,.08,.55,.1,.05,0,.86,.05,1.59,.05h2.68c0-.39,0-.99-.03-1.4-1.09,.05-1.22,.05-2.37,.05-.57,0-3.43-.16-3.43-.81,0-.31,1.82-.31,2.08-.31,.1,0,2.18-.18,3.93-.55,2.08-.44,2.86-.75,3.87-1.17,.29-.36,.81-.57,1.14-.57,.73,0,1.85,.81,1.85,1.61,0,.65-.68,.81-1.09,.88-.7,.13-2.83,.57-3.3,.65,0,.23-.05,1.35-.05,1.61h3.3c.47-.57,1.12-1.01,1.56-1.01,.68,0,1.64,.75,1.64,1.51,0,.47-.6,.65-1.22,.65h-4.58Zm1.9,8.09c.21-.36,.75-.57,1.12-.57,.57,0,1.53,.55,1.53,1.07,0,.21-.23,.47-.39,.6-.75,3.43-1.98,5.23-3.93,5.23-1.46,0-3.2-1.72-3.2-2.18,0-.03,.05-.05,.13-.05,.05,0,.13,.03,.18,.05,.1,.05,1.14,.29,1.92,.29,.73,0,1.56-.44,2.16-3.43h-1.2c-.16,.31-.36,.75-1.46,.75-.52,0-1.09-.16-1.09-.42,0-.1,.96-2.18,1.12-2.6h-.81c-.18,1.09-.6,3.38-2.94,4.99-1.51,1.01-3.38,1.38-4.26,1.38-.21,0-.55,0-.55-.21,0-.16,.26-.26,.75-.47,2.96-1.27,4.06-3.61,4.37-5.69-.6,0-.75,0-1.01,.03-.23,.03-1.3,.34-1.53,.34-.18,0-.7-.1-.7-.52,0-.39,.29-.99,1.14-.99,.1,0,.65,.08,.78,.08l4.99-.05c.23-.44,.88-.78,1.25-.78,.6,0,1.64,.44,1.64,1.12,0,.26-.29,.47-.52,.6-.26,.62-.34,.83-.6,1.46h1.09Z"/><path class="cls-2" d="M103.76,275.32c.36-.7,1.2-.78,1.38-.78,.7,0,1.56,.6,1.56,1.35,0,.13-.03,.16-.23,.57-.05,.13-.05,.39-.05,2.83,0,.18,.05,6.21,.05,7.38,0,.42,0,.68-.31,.96-.18,.18-.7,.6-1.48,.6-1.04,0-1.04-.39-1.04-1.27h-3.04v1.01c0,.86-1.25,1.14-1.9,1.14-.91,0-.91-.6-.91-.96,0-.1,.21-6.6,.23-7.62,0-.55,.05-3.22,0-3.56-.03-.03-.23-.21-.29-.26-.1-.08-.18-.18-.18-.31,0-.62,1.3-1.9,2.08-1.9,.18,0,.81,0,1.09,.81h3.04Zm11.75-.78c.49-.78,1.04-1.09,1.53-1.09,.68,0,1.85,.6,1.85,1.56,0,.29-.1,.47-.16,.57-.26,.49-.29,.55-.29,1.04,0,2.13,.29,12.61,.29,14.98,0,1.61,0,3.87-2.96,3.87-1.95,0-3.77-2.03-3.77-2.16,0-.08,.08-.16,.13-.16,.23,0,1.43,.13,1.69,.13,1.46,0,1.79-.52,1.79-2.05v-4.52h-4.55c-.26,1.69-.75,5.04-5.25,7.2-2.29,1.12-4.32,1.35-5.51,1.35-.18,0-.49,0-.49-.29,0-.26,.86-.47,1.17-.55,1.01-.23,1.95-.65,2.86-1.2,4.52-2.76,4.52-6.79,4.52-11.6,0-2.21-.05-3.59-.1-4.58-.03-.62-.05-.68-.26-.81-.36-.26-.39-.36-.39-.52,0-.81,1.56-2.03,2.44-2.03,.03,0,.99,0,1.2,.83h4.26Zm-11.86,11.26v-4.13h-3.02l-.05,4.13h3.07Zm0-5.36v-3.59c0-.1,0-.18-.03-.23h-2.7c-.1,0-.29,.03-.29,.16v3.67h3.02Zm11.93-.52c-.03-1.9-.03-2.03-.08-4.03h-4.06c-.31,0-.31,.23-.31,.57,0,.08,.05,3.15,.05,3.46h4.39Zm.03,5.56l-.03-4.29h-4.39v.52c0,.81,0,2.47-.05,3.77h4.47Z"/><path class="cls-2" d="M123,290.84c0-1.01,.96-1.85,2.08-1.85,1.3,0,2.13,.99,2.13,2.13,0,2.08-1.77,5.67-3.28,5.67-.29,0-.55-.1-.55-.39,0-.13,.34-.73,.39-.86,.05-.13,.78-1.77,.83-3.17-1.01-.05-1.61-.62-1.61-1.53Z"/><path class="cls-2" d="M159.3,282.03c.36-.57,1.09-1.12,1.61-1.12,.7,0,1.85,.83,1.85,1.64,0,.62-.7,.7-.86,.73-.39,.05-3.95,0-4.71,0v2.18c0,.62,0,1.48,.03,2.26h.75c.31-.57,.86-1.04,1.35-1.04,.65,0,1.9,.75,1.9,1.61,0,.29-.16,.73-.99,.75-.18,0-3.15-.03-3.74-.03h-15c-.21,0-1.14,.29-1.38,.29-.29,0-.96-.16-.96-.57,0-.49,.47-1.12,1.27-1.12,.16,0,.83,.1,.99,.1h1.82l.08-4.45-2.81,.03c-.23,0-1.35,.36-1.61,.36-.42,0-.75-.18-.75-.6,0-.52,.34-1.17,1.09-1.17,.18,0,1.09,.13,1.3,.13h2.81v-4.19c-1.51,1.2-3.17,2-4,2-.13,0-.44,0-.44-.23,0-.13,.08-.21,.42-.47,1.85-1.48,3.35-3.59,4.65-6.03,.05-.73,.65-1.12,1.35-1.12,.81,0,1.9,.73,1.9,1.38,0,.7-1.12,2.08-1.92,2.96l11.44-.08c.16-.52,.88-1.14,1.43-1.14,.75,0,1.85,.86,1.85,1.74,0,.65-1.12,.65-1.4,.65h-1.33c-.05,1.56-.08,2.29-.08,4.52h2.11Zm-18.85,13.08c-.94,0-1.9-.55-1.9-1.35,0-.16,0-1.38,1.66-1.4,1.22-.03,2.73-.52,3.59-1.12,.39-.29,.73-.52,.96-.52,.34,0,.39,.13,.39,.34,0,1.27-2.13,4.06-4.71,4.06Zm6.63-7.38v-4.45h-1.09c-.03,1.07-.03,2.24-.03,3.04v1.4h1.12Zm0-5.69c0-.65-.03-3.85-.03-4.58h-1.04c0,.65-.03,3.85-.03,4.58h1.09Zm2.05,9.96c0,3.12-.31,3.56-1.56,3.56s-1.25-.75-1.25-1.51v-2.24c0-.08,0-.68-.05-.7-.03-.05-.26-.31-.26-.34,0-.6,1.4-1.04,2.13-1.04,.23,0,1.04,0,1.04,1.04,0,.18-.05,1.04-.05,1.22Zm1.59-9.96c0-.65-.03-3.82-.03-4.55l-1.01-.03c-.03,1.12-.05,1.69-.05,4.58h1.09Zm0,5.69v-4.45h-1.09c0,1.85,.03,2.57,.03,4.45h1.07Zm-.26,3.02c0-.49,1.12-1.07,1.87-1.07,1.46,0,1.46,.65,1.46,4.39,0,.49-.03,1.51-1.27,1.51-1.17,0-1.33-.83-1.4-1.17-.08-.44-.18-2.76-.21-3.28-.29-.13-.44-.21-.44-.39Zm3.85-8.71c0-2.65-.03-3.38-.05-4.55h-.99c-.03,.83-.03,1.2-.03,4.55h1.07Zm0,5.69v-4.45h-1.07c0,1.85,0,2.57,.03,4.45h1.04Zm6.34,8.01c-2.16,0-5.33-3.04-5.33-4.39,0-.73,.99-1.3,1.61-1.3,.49,0,1.38,.36,1.61,.91,.68,1.64,.78,1.9,1.85,3.12,.62,.75,.94,1.09,.94,1.2,0,.36-.42,.47-.68,.47Z"/><path class="cls-2" d="M169.88,274.77c.62-.88,1.25-.96,1.48-.96,.75,0,1.85,.94,1.85,1.64,0,.26-.05,.42-.65,.78-.29,.36-2.31,3.22-2.31,3.56,0,.16,.08,.21,.34,.39,.39,.31,2.42,2.37,2.42,4.76,0,.62-.29,3.48-2.44,3.48-.88,0-1.98-.75-2.26-.94,0,.7,.13,4.08,.13,4.86,0,1.27,0,1.66-.86,2.31-.16,.13-.73,.55-1.27,.55-.26,0-1.04-.1-1.04-.94,0-.62,.16-3.72,.18-4.42,.16-6.4,.16-10.5,.16-10.89l-.03-1.95c0-.18-.16-.31-.26-.36-.49-.36-.55-.42-.55-.6,0-.62,1.35-2.16,2.18-2.16,.23,0,.91,.18,1.27,.88h1.66Zm-1.43,1.12c-.18,0-.21,.7-.21,1.25v6.24c0,.52,.05,3.02,.05,3.59,1.56,.05,2.03-.83,2.03-2.63,0-1.48-.6-3.12-1.4-3.72-.23-.18-.29-.23-.29-.52,0-.16,.91-3.54,.99-4.21h-1.17Zm3.33,18.3c-.73,0-1.38-.47-1.38-1.07,0-.26,.23-1.01,1.04-1.17,.7-.13,1.98-.39,2.78-1.12,.36-.34,.6-.55,.65-.55,.26,0,.26,.29,.26,.44,0,1.79-1.64,3.46-3.35,3.46Zm1.09-14.35c-.1,0-.23-.05-.23-.16,0-.03,.86-1.43,1.01-1.72,.31-.65,.78-1.9,.86-2.7,.05-.44,.13-.99,1.38-.99,.34,0,1.07,.26,1.25,.6,1.17-.26,3.48-1.04,4.94-1.69,.62-.73,1.17-.73,1.43-.73,.65,0,1.9,.62,1.9,1.43,0,.55-.26,.6-1.3,.86-1.87,.44-3.72,.78-6.86,.96-.88,2.83-3.72,4.13-4.37,4.13Zm5.62,1.07l-.03-1.12h-1.3c-.23,0-1.27,.36-1.51,.36-.31,0-.68-.21-.68-.55,0-.52,.44-.86,1.07-.86,.1,0,.73,.1,.86,.1h5.25c.29-.42,.7-.68,1.2-.68,.65,0,1.51,.62,1.51,1.17,0,.47-.7,.47-1.09,.47h-2.6l-.03,1.09h3.22c.31-.39,.75-.81,1.35-.81,.65,0,1.69,.7,1.69,1.25s-.86,.52-1.14,.52h-11.23c-.05,0-1.14,.31-1.35,.31-.26,0-.65-.08-.65-.47,0-.29,.23-.88,1.09-.88,.1,0,.65,.08,.78,.08h3.59Zm6.66,5.15c0,.1,.03,1.46,0,1.51-.13,.52-1.14,.83-1.92,.83-.86,0-.99-.21-1.12-.42h-5.51c-.23,0-1.35,.36-1.61,.36-.36,0-.75-.16-.75-.55,0-.47,.47-1.01,1.25-1.01,.13,0,.68,.13,.81,.13h5.88v-.86h-6.84c-.23,0-1.3,.36-1.56,.36-.36,0-.7-.16-.7-.52,0-.55,.47-1.04,1.17-1.04,.13,0,.26,.03,.55,.1,.16,.03,6.84,.05,7.44,.05v-.91h-5.54c-.23,0-1.35,.36-1.61,.36-.34,0-.75-.13-.75-.55,0-.47,.47-1.04,1.25-1.04,.13,0,.68,.16,.81,.16h5.75c.36-.44,1.01-.81,1.53-.81,.68,0,1.77,.55,1.77,1.07,0,.1-.16,.57-.18,.68-.03,.31-.03,.6-.03,1.07h.75c.42-.68,1.04-.94,1.35-.94,.75,0,1.61,.94,1.61,1.43,0,.44-.55,.52-1.01,.52h-2.76Zm-3.82,7.23c1.12,0,3.56,0,6.42-1.72,.18-.1,.68-.39,.83-.39,.18,0,.39,.1,.39,.34,0,.47-.39,1.22-.83,2.03-.78,1.51-1.09,1.87-4.13,1.87-.86,0-3.35-.08-5.56-.7-2.37-.65-2.81-.91-2.81-2.44,0-.1,.1-1.61,.1-1.9,0-.13-.47-.55-.47-.68,0-.55,1.12-1.27,2.08-1.27,.44,0,.99,.08,.99,.73,0,.42-.31,2.5-.31,2.96,0,.6,.16,.68,.52,.83,.81,.23,1.61,.34,2.78,.34Zm-.81-14.66c-1.01,0-2.6-1.3-2.6-1.98,0-.44,.83-.99,1.59-.99,1.33,0,1.79,1.4,1.79,2.39,0,.16,0,.57-.78,.57Zm-.1,9.78c.65,0,1.46,.47,1.46,.91,0,.49-1.85,2.83-2.78,2.83-.34,0-.44-.18-.44-.39,0-.26,.44-2.34,.62-2.81,.21-.39,.73-.55,1.14-.55Zm1.72,3.98c-.31,0-.44-.13-.44-.39,0-.21,.26-1.69,.57-2.7,.16-.47,.81-.68,1.3-.68,.62,0,1.46,.44,1.46,.91,0,.81-1.72,2.86-2.89,2.86Zm.52-16.15c0-.36,.68-.91,1.53-.91,1.43,0,2.03,1.43,2.03,2.86,0,.29-.18,.65-.86,.65-1.14-.31-2.7-2.13-2.7-2.6Z"/><path class="cls-2" d="M206.72,281.4c.05,2.26,.42,4.24,.75,5.75,.23-.75,.44-1.51,.62-2.31-.03-.05-.13-.36-.13-.44,0-.55,.99-1.07,1.87-1.07,.57,0,1.4,.23,1.4,.96,0,.62-.65,2.55-2.16,5.36,.57,1.2,2.24,3.2,3.33,3.2,.08,0,.86,0,1.85-1.25,.05-.08,.16-.18,.26-.18,.16,0,.21,.34,.21,.44,0,.83-.05,4.03-2.52,4.03-1.53,0-3.59-1.51-5.1-4.11-2.16,2.6-5.56,3.51-6.79,3.51-.08,0-.47,0-.47-.23,0-.1,.44-.29,.6-.34,1.87-1.01,2.91-1.92,4.06-3.17-2,.03-2.68,.03-3.77,.03-.03,.94-.03,1.04-.16,1.22-.23,.29-.96,.65-1.48,.65-.44,0-.86-.36-.86-.73,0-.73,.26-4.29,.29-5.1,.05-1.01,.05-2.34,.05-3.38,0-.13,0-.18-.05-.26-.03-.08-.23-.39-.23-.44,0-.39,1.01-1.25,1.61-1.25,.34,0,.86,.21,.88,.57h1.95c.49-.55,.73-.57,.86-.57,.18,0,.44,.13,.65,.23-.05-.49-.08-.68-.13-1.12h-6.01c-.08,6.42-.1,8.89-1.74,11.31-1.09,1.61-2.83,2.68-3.41,2.68-.18,0-.26-.05-.26-.23s.68-.81,.78-.96c1.72-2.44,1.9-5.75,1.95-6.92h-.75c-.23,5.64-3.85,6.92-4.34,6.92-.1,0-.29-.03-.29-.18,0-.1,.1-.21,.18-.26,1.04-1.46,1.92-2.86,1.95-6.53-.1,.03-.57,.31-.68,.36-.16,.05-.29,.05-.39,.05-.26,0-.7-.26-.7-.6,0-.7,.68-.86,1.12-.86,.1,0,.62,.05,.75,.05h3.17c.03-.68,.03-1.25,.03-2.03h-1.07v.47c0,.68-1.09,.88-1.72,.88-.29,0-1.04-.03-1.04-.68,0-.6,.13-3.46,.13-4.11,0-.16-.03-.31-.1-.42-.13-.16-.31-.42-.31-.49,0-.44,1.27-1.25,1.95-1.25,.42,0,1.2,.16,1.2,.75,0,.1-.1,.55-.1,.65-.03,.13,0,.73,0,.86v2.24h1.07c0-.18-.03-1.14-.03-1.35,0-.36,0-.39-.21-.62-.08-.08-.18-.23-.18-.39,0-.49,1.27-1.46,2.13-1.46,.65,0,.78,.42,.99,.96h5.72c0-.1-.05-.7-.18-.81-.34-.29-.36-.31-.36-.47,0-.23,.49-.6,.75-.78-.16-.03-.52-.05-.52-.42v-1.53h-3.43v1.27c0,.6-1.07,.94-2.03,.94-.16,0-.65,0-.81-.42-.03-.05-.03-1.74-.03-1.79l-4.11,.08c-.23,0-.62,.16-.65,.18-.08,.03-.52,.23-.96,.23-.55,0-.91-.42-.91-.75s.42-1.22,1.33-1.22c.16,0,.99,.13,1.17,.13l4.16,.08c0-.13-.03-.81-.03-.96,0-.05-.21-.18-.23-.23-.05-.05-.13-.16-.13-.26,0-.52,1.4-1.33,2.18-1.33,.1,0,1.12,0,1.12,.86,0,.1-.08,.65-.08,.78v1.14h3.43v-.29c0-.18,0-.73-.08-.81-.31-.34-.34-.36-.34-.49,0-.47,1.38-1.35,2.13-1.35,.34,0,1.27,.18,1.27,.91,0,.13-.1,.7-.1,.83-.03,.39-.03,.62-.03,1.2l3.43-.05c.26-.57,.96-1.07,1.56-1.07,.81,0,2.08,.88,2.08,1.64s-1.51,.78-1.87,.78l-5.17-.03v1.14c0,.18-.16,.29-.29,.39,.18,.05,.6,.21,.6,.78,0,.23-.1,1.43-.1,1.69,.83,.03,2.18,.03,3.07,.03,.36-.62,.83-1.01,1.33-1.01,.75,0,1.87,.86,1.87,1.53,0,.6-1.01,.6-1.14,.6h-5.1Zm-5.46,4.16v-1.79c-.08,0-.44,.03-.52,.03l-.03,1.77h.55Zm1.66,2.11v-1.3h-2.21v1.3h2.21Zm-1.66,2.94v-2.11h-.52v2.11h.52Zm2.42-.03c.26-.36,.44-.62,.86-.62,.29,0,.7,.34,.88,.49l.47-.73c-.21-.52-.65-1.66-1.01-3.38-.05,0-.05,.08-.05,.13,0,.08,.1,1.51,.1,1.79,0,.62-1.3,.86-1.69,.75v1.59l.44-.03Zm-.39-6.79c0,.68,0,.99-.03,1.87,.21-.23,.44-.42,.75-.42,.18,0,.44,.05,.68,.21-.1-.62-.21-1.22-.29-1.72-.1,.05-.23,.05-.31,.05h-.81Zm4.63-3.72c-.29,0-.47-.26-.47-.42,0-.13,.57-1.64,.75-2.05,.23-.49,.55-.86,1.2-.86,.73,0,1.51,.68,1.51,1.17,0,.94-2.39,2.16-2.99,2.16Z"/><path class="cls-2" d="M230.35,279.14c.16,3.04,.52,4.76,1.46,7.64,.83-1.85,1.2-3.04,1.53-4.45-.08-.16-.16-.36-.16-.6,0-.91,1.61-1.07,2.08-1.07,.49,0,1.3,.29,1.3,.96,0,.29-.03,2.5-3.15,7.33,1.09,1.61,2.96,3.38,4.26,3.38,.55,0,.96-.23,1.61-.81,.13-.13,.73-.86,.91-.86s.18,.26,.18,.52c0,1.4-.26,4.68-2.76,4.68-1.33,0-3.72-.75-6.24-4.91-2.18,2.05-5.33,3.17-6.99,3.17-.26,0-1.12-.03-1.12-.29,0-.1,.05-.13,.65-.31,2.03-.62,4.65-2.24,6.19-4.63-.08-.29-.16-.49-.42-1.12-1.14-2.68-1.74-5.72-2.16-8.66h-5.93v3.8h2.57c.29-.47,.6-.91,1.17-.91,.62,0,1.92,.75,1.92,1.46,0,.21-.08,.29-.1,.34-.03,.05-.23,.29-.26,.34-.44,4.13-.49,4.6-.86,5.59-.23,.7-.83,2.39-2.89,2.39-1.12,0-1.72-.68-2.6-1.9-1.46,3.28-4.29,4.37-4.63,4.37-.1,0-.29-.03-.29-.18,0-.05,1.12-1.35,1.3-1.64,1.79-2.65,1.79-5.36,1.79-10.4,0-2.68-.16-2.91-.36-3.09-.42-.36-.47-.42-.47-.6,0-.73,1.51-1.98,2.37-1.98,.96,0,1.14,.65,1.25,1.04h5.82l-.36-2.6c-.03-.18-.08-.23-.55-.65-.03-.03-.08-.13-.08-.23,0-.81,1.9-1.85,2.81-1.85,.31,0,1.17,0,1.17,1.04,0,.39-.13,2.37-.13,2.83,0,.81,0,1.09,.03,1.46h5.15c.34-.81,1.14-1.25,1.53-1.25,.81,0,2.11,1.09,2.11,1.95,0,.68-.91,.68-1.69,.68h-6.99Zm-8.76,5.02c-.13,2.76-.55,4.55-.65,4.99-.05,.23-.13,.47-.21,.68,.62,.18,1.14,.34,1.61,.34,1.04,0,1.48-.99,1.77-3.93,.08-.96,.08-1.46,.08-2.08h-2.6Zm14.22-9.49c-.36,.44-2.83,2.37-3.54,2.37-.36,0-.42-.29-.42-.52s.65-1.95,.81-2.37c.23-.62,.68-1.77,1.69-1.77,.73,0,1.79,.44,1.79,1.43,0,.34-.13,.62-.34,.86Z"/><path class="cls-2" d="M255.63,279.48c2.68,5.36,7.72,7.44,10.92,8.76,.08,.03,.55,.21,.55,.42,0,.1-.6,.49-.75,.6-.99,.65-2.24,1.46-3.09,1.46-1.2,0-2.65-1.35-3.15-1.82-3.51-3.25-4.5-6.53-4.91-7.9,.08,2.94,.1,4.11,.18,7.07,.16,0,.86-.03,1.01-.03,.23-.42,.65-.78,1.12-.78,.62,0,1.61,.88,1.61,1.59,0,.6-.78,.62-1.12,.62-.36,0-2.16-.03-2.57-.03,.08,1.48,.21,3.46,.21,4.47,0,1.64-1.64,2.03-2.24,2.03-.05,0-1.27,0-1.27-1.38,0-.39,.23-4.34,.26-5.15h-1.2c-.21,0-.39,.03-.57,.05-.21,.03-1.17,.42-1.38,.42-.49,0-.86-.23-.86-.75s.39-1.14,1.14-1.14c.34,0,1.87,.1,2.24,.1h.68c.03-1.12,.08-2.99,.08-5.23,0-.16,0-.23-.05-.23-.16,.42-1.72,2.6-2.44,3.41-3.33,3.74-7.07,4.89-7.75,4.89-.16,0-.39-.05-.39-.26,0-.05,.73-.6,.75-.6,4.78-3.67,6.29-7.36,6.45-7.75,.65-1.61,.78-2,1.98-2,.55,0,1.07,.23,1.46,.52v-1.33h-5.23c-.18,0-.7,0-1.53,.29-.26,.08-.78,.26-.94,.26-.44,0-.94-.26-.94-.78,0-.7,.6-1.48,1.38-1.48,.18,0,1.07,.26,1.27,.26h5.93c0-.86,0-1.69-.03-2.37-.05-.83-.05-.91-.31-1.12-.42-.34-.44-.36-.44-.57,0-.88,1.64-1.98,2.65-1.98,.44,0,1.3,.21,1.3,1.09,0,.16-.13,.91-.16,1.07-.03,.31-.13,3.25-.16,3.87h5.43c.36-.83,1.12-1.2,1.59-1.2,.75,0,2.05,.86,2.05,1.85,0,.78-1.07,.81-1.27,.81-.94,.03-5.56-.03-6.6-.03h-.88Z"/></g><g><path class="cls-4" d="M108.21,321.37c.2,0,.28,.12,.28,.24,0,.5-3.02,2.26-4.3,2.26-.58,0-1.16-.48-1.16-1.06,0-.9,.94-.92,1.44-.92,.9-.02,2.12-.04,3.54-.48,.04,0,.16-.04,.2-.04Zm-3.54-3.58c0-.54,.46-1.02,1.1-1.02,.98,0,2.88,1.56,2.88,2.26,0,.28-.36,.28-.6,.28-.02,0-3.38-.2-3.38-1.52Zm5.88,13.52c.18,0,.28,.12,.28,.22,0,.5-1.8,2.9-4.42,2.9-.92,0-1.46-.56-1.46-.94,0-.96,.82-1.08,.98-1.1,.18-.02,1.04,0,1.24,0,1.68,0,2.74-.66,3.2-1.02,.1-.04,.14-.06,.18-.06Zm4.7-7.36c.26-.5,.68-.6,.9-.6,.48,0,1.54,.56,1.54,1.1,0,.14-.1,.74-.1,.88,0,.64,.1,5.12,.1,5.28,0,.34,0,.54-.36,.74-.48,.24-1.04,.32-1.36,.32-.74,0-.76-.38-.78-.6h-6.4c-.08,.66-1.14,.8-1.4,.8-.8,0-.8-.52-.8-1.28,0-.54,.08-3.18,.08-3.78v-1.7c0-.14-.02-.2-.1-.3-.12-.18-.2-.28-.2-.34,0-.38,1.12-1.16,1.64-1.16,.14,0,.64,0,.82,.64h6.42Zm.12-4.76c0,.16-.04,.26-.16,.64,1.3,1.64,2.88,2.28,6.9,3.06,.18,.04,.26,.08,.26,.18,0,.08-.06,.14-.14,.2-.14,.1-1.04,.6-1.28,.74-1.02,.56-1.12,.64-1.44,.64-.42,0-3.74-1-4.86-3.94-.54,.94-.94,1.24-1.26,1.46-1.76,1.24-4.18,1.26-4.48,1.26-.12,0-.4,0-.4-.14,0-.12,.08-.14,.74-.36,2.6-.86,3.62-2.68,3.82-3.74h-1.04c-1.06,1.12-2.22,1.94-3.44,1.94-.06,0-.18,0-.18-.12,0-.06,.56-.6,.66-.72,.82-.96,1.84-2.88,1.84-3.14,0-.06-.1-.34-.1-.4,0-.42,.86-.68,1.24-.68,.66,0,1.28,.24,1.28,.76,0,.4-.16,.64-.7,1.46h4.88c.22-.46,.74-.76,1.2-.76,.6,0,1.34,.48,1.34,1.14,0,.72-1.86,2.56-2.56,2.56-.1,0-.36,0-.36-.32,0-.02,.22-1.7,.22-1.72h-1.98Zm-.16,6.8v-1.12h-6.2c-.08,0-.22,.06-.22,.18v.94h6.42Zm0,2.02v-1.12h-6.42v1.12h6.42Zm-.02,2.12v-1.24h-6.4v1.24h6.4Zm-2.5,1.44c0-.12,.34-.14,.46-.14,1.4,0,5.74,.9,5.74,2.4,0,.6-.82,.9-1.32,.9-.58,0-1-.32-1.34-.6-1.44-1.2-1.64-1.36-3.24-2.28-.16-.08-.3-.16-.3-.28Z"/><path class="cls-4" d="M128.83,320.23c.3-.34,.52-.56,.84-.56,.56,0,1.16,.56,1.16,1.12,0,.48-.44,.48-.92,.48-.4,0-2.42-.04-2.86-.04-.1,0-2.68,.04-2.72,.04-.14,.02-.8,.26-.96,.26-.2,0-.56-.14-.56-.5,0-.46,.44-.94,.92-.94,.1,0,.58,.14,.7,.14h1.82c0-.12-.02-.7-.08-1.3-.02-.32-.02-.34-.12-.44-.3-.26-.32-.28-.32-.44,0-.66,1.24-1.28,1.94-1.28,.44,0,.94,.24,.94,.86,0,.12-.02,.18-.04,.3-.04,.12-.16,1.38-.24,2.3h.5Zm-1.1,7.56c.22-.38,.64-.6,.94-.6,.46,0,1.34,.5,1.34,1,0,.08-.02,.18-.08,.26-.12,.18-.14,.2-.14,.42,0,.18,.06,2.72,.06,2.88,0,.74-1.1,1.06-1.42,1.06-.82,0-.82-.26-.82-.68h-1.32v.68c0,.6-.9,.96-1.54,.96-.7,0-.7-.64-.7-.94,0-.54,.12-3.24,.12-3.86,0-.08,0-.14-.16-.3-.04-.04-.16-.14-.16-.24,0-.46,1.08-1.16,1.64-1.16,.36,0,.76,.16,.86,.52h1.38Zm.02-5.06c.2-.24,.56-.52,.82-.52,.42,0,1.12,.52,1.12,1.08,0,.32-.28,.44-.6,.48-.22,.04-1.64,0-1.96,0h-.72c-.2,0-.46,0-.66,.02-.14,.02-.86,.2-1.02,.2-.28,0-.66-.12-.66-.48,0-.46,.36-.86,.82-.86,.08,0,.48,.08,.58,.08h2.28Zm0,2.58c.2-.26,.58-.52,.82-.52,.44,0,1.12,.52,1.12,1.06,0,.46-.56,.5-.78,.5-.26,0-1.5-.02-1.78-.02h-.86c-.3,0-.52,0-.78,.06-.02,.02-.7,.18-.76,.18-.36,0-.66-.16-.66-.5,0-.42,.34-.84,.82-.84,.08,0,.48,.08,.58,.08h2.28Zm-.08,5.92v-2.6h-1.36s-.02,.1-.02,.14v2.46h1.38Zm9.32-12.08c.32-.54,.86-.96,1.3-.96,.58,0,1.52,.68,1.52,1.22,0,.22-.16,.36-.36,.54-.36,.7-.58,3.18-.58,4.64,0,4.78,1.56,6.44,2.06,6.44,.46,0,.74-.26,1.22-.74,.02-.02,.1-.08,.14-.08,.16,0,.16,.14,.16,.26,0,.52-.3,3.18-2.06,3.18-.3,0-3.28,0-3.46-8.52-.62,.48-1.24,.78-1.58,.92-.22,2.7-1.26,5.42-3.66,6.6-.48,.24-1.64,.66-2.24,.66-.06,0-.22-.02-.22-.14,0-.06,.06-.1,.58-.42,2.92-1.78,3.18-4.44,3.34-6.12-.34,.16-1.44,.5-1.88,.5-.5,0-1.04-.38-1.04-.96,0-.14,.04-.58,.44-.72,.18-.06,2.18-.22,2.6-.26,.06-.78,.06-1.4,.06-2.14,0-.7,0-2.34-.18-2.94-.3,0-.58,.04-.88,.12-.02,.02-.64,.2-.72,.2-.34,0-.74-.14-.74-.52,0-.26,.14-.92,.92-.92,.14,0,.88,.16,1.04,.16h4.22Zm-.06,4.62c0-1.66,.02-2.68,.06-3.66h-1.42c-.04,1.94-.1,3.6-.14,4.82,.3-.08,.58-.14,1.5-.4v-.76Z"/><path class="cls-4" d="M145.85,324.78c.38-.44,.64-.74,1.06-.74s1.44,.66,1.44,1.2c0,.08-.02,.2-.1,.32-.14,.16-.16,.18-.16,.38,0,.14,.04,2.1,.04,2.48,0,.44,0,.7-.72,1.04-.6,.28-.82,.36-1.2,1.02,.68,0,1.82,.22,2.44,.32,5.3,.92,7.56,1.32,9.54,1.32,1,0,1.28-.04,3.74-.4h.04c.2,0,.28,.14,.28,.24,0,.2-2.24,2.5-3.98,2.5-1.42,0-3.66-.66-4.56-.94l-4.8-1.5c-.92-.28-2.88-.9-3.2-.72-1.22,1.8-1.3,1.9-1.82,1.9-.76,0-1.2-.94-1.2-1.44,0-.36,.08-.42,.9-.9,1.62-.98,2.08-1.5,2.3-1.74v-3.26l-1.18,.06c-.18,0-1.02,.34-1.22,.34-.26,0-.58-.12-.58-.52s.26-1,.98-1c.1,0,.58,.1,.7,.1l1.26-.06Zm1.46-3.8c-.18,0-3.44-.46-3.44-1.76,0-.76,.7-1.16,1.28-1.16,1.28,0,2.7,2.1,2.7,2.54,0,.22-.2,.38-.54,.38Zm8.52-.64c1.16,1.78,3.96,2.86,5.58,3.2,.62,.14,.68,.14,.68,.28,0,.2-1.7,1.4-2.44,1.4-.2,0-3.2-.62-4.38-4.52,.02,.4,.06,1.32,.06,1.98,0,.1,.04,.66,.04,.78,0,.58-.78,.96-1.38,.96-.68,0-.78-.28-.78-.66,0-.24,.06-1.48,.06-1.76-.22,.34-1.12,1.16-1.58,1.52-.94,.72-2.58,1.28-3.16,1.28-.14,0-.38-.02-.38-.18,0-.1,.06-.16,.66-.58,1.74-1.26,2.32-2.4,2.5-2.72,.06-.34,.18-.72,1.2-.72,.26,0,.46,.04,.78,.22v-.48h-2.38c-.18,0-.68,.02-.8,.06-.12,.02-.68,.24-.82,.24-.38,0-.48-.18-.48-.5,0-.48,.44-.8,.78-.8,.02,0,.38,.06,.42,.08,.04,0,.66,.04,1.22,.04h2.06c0-.3,0-.76-.02-1.08-.84,.04-.94,.04-1.82,.04-.44,0-2.64-.12-2.64-.62,0-.24,1.4-.24,1.6-.24,.08,0,1.68-.14,3.02-.42,1.6-.34,2.2-.58,2.98-.9,.22-.28,.62-.44,.88-.44,.56,0,1.42,.62,1.42,1.24,0,.5-.52,.62-.84,.68-.54,.1-2.18,.44-2.54,.5,0,.18-.04,1.04-.04,1.24h2.54c.36-.44,.86-.78,1.2-.78,.52,0,1.26,.58,1.26,1.16,0,.36-.46,.5-.94,.5h-3.52Zm1.46,6.22c.16-.28,.58-.44,.86-.44,.44,0,1.18,.42,1.18,.82,0,.16-.18,.36-.3,.46-.58,2.64-1.52,4.02-3.02,4.02-1.12,0-2.46-1.32-2.46-1.68,0-.02,.04-.04,.1-.04,.04,0,.1,.02,.14,.04,.08,.04,.88,.22,1.48,.22,.56,0,1.2-.34,1.66-2.64h-.92c-.12,.24-.28,.58-1.12,.58-.4,0-.84-.12-.84-.32,0-.08,.74-1.68,.86-2h-.62c-.14,.84-.46,2.6-2.26,3.84-1.16,.78-2.6,1.06-3.28,1.06-.16,0-.42,0-.42-.16,0-.12,.2-.2,.58-.36,2.28-.98,3.12-2.78,3.36-4.38-.46,0-.58,0-.78,.02-.18,.02-1,.26-1.18,.26-.14,0-.54-.08-.54-.4,0-.3,.22-.76,.88-.76,.08,0,.5,.06,.6,.06l3.84-.04c.18-.34,.68-.6,.96-.6,.46,0,1.26,.34,1.26,.86,0,.2-.22,.36-.4,.46-.2,.48-.26,.64-.46,1.12h.84Z"/><path class="cls-4" d="M168.67,318.63c.28-.54,.92-.6,1.06-.6,.54,0,1.2,.46,1.2,1.04,0,.1-.02,.12-.18,.44-.04,.1-.04,.3-.04,2.18,0,.14,.04,4.78,.04,5.68,0,.32,0,.52-.24,.74-.14,.14-.54,.46-1.14,.46-.8,0-.8-.3-.8-.98h-2.34v.78c0,.66-.96,.88-1.46,.88-.7,0-.7-.46-.7-.74,0-.08,.16-5.08,.18-5.86,0-.42,.04-2.48,0-2.74-.02-.02-.18-.16-.22-.2-.08-.06-.14-.14-.14-.24,0-.48,1-1.46,1.6-1.46,.14,0,.62,0,.84,.62h2.34Zm9.04-.6c.38-.6,.8-.84,1.18-.84,.52,0,1.42,.46,1.42,1.2,0,.22-.08,.36-.12,.44-.2,.38-.22,.42-.22,.8,0,1.64,.22,9.7,.22,11.52,0,1.24,0,2.98-2.28,2.98-1.5,0-2.9-1.56-2.9-1.66,0-.06,.06-.12,.1-.12,.18,0,1.1,.1,1.3,.1,1.12,0,1.38-.4,1.38-1.58v-3.48h-3.5c-.2,1.3-.58,3.88-4.04,5.54-1.76,.86-3.32,1.04-4.24,1.04-.14,0-.38,0-.38-.22,0-.2,.66-.36,.9-.42,.78-.18,1.5-.5,2.2-.92,3.48-2.12,3.48-5.22,3.48-8.92,0-1.7-.04-2.76-.08-3.52-.02-.48-.04-.52-.2-.62-.28-.2-.3-.28-.3-.4,0-.62,1.2-1.56,1.88-1.56,.02,0,.76,0,.92,.64h3.28Zm-9.12,8.66v-3.18h-2.32l-.04,3.18h2.36Zm0-4.12v-2.76c0-.08,0-.14-.02-.18h-2.08c-.08,0-.22,.02-.22,.12v2.82h2.32Zm9.18-.4c-.02-1.46-.02-1.56-.06-3.1h-3.12c-.24,0-.24,.18-.24,.44,0,.06,.04,2.42,.04,2.66h3.38Zm.02,4.28l-.02-3.3h-3.38v.4c0,.62,0,1.9-.04,2.9h3.44Z"/><path class="cls-4" d="M50.8,350.8c.28-.44,.84-.86,1.24-.86,.54,0,1.42,.64,1.42,1.26,0,.48-.54,.54-.66,.56-.3,.04-3.04,0-3.62,0v1.68c0,.48,0,1.14,.02,1.74h.58c.24-.44,.66-.8,1.04-.8,.5,0,1.46,.58,1.46,1.24,0,.22-.12,.56-.76,.58-.14,0-2.42-.02-2.88-.02h-11.54c-.16,0-.88,.22-1.06,.22-.22,0-.74-.12-.74-.44,0-.38,.36-.86,.98-.86,.12,0,.64,.08,.76,.08h1.4l.06-3.42-2.16,.02c-.18,0-1.04,.28-1.24,.28-.32,0-.58-.14-.58-.46,0-.4,.26-.9,.84-.9,.14,0,.84,.1,1,.1h2.16v-3.22c-1.16,.92-2.44,1.54-3.08,1.54-.1,0-.34,0-.34-.18,0-.1,.06-.16,.32-.36,1.42-1.14,2.58-2.76,3.58-4.64,.04-.56,.5-.86,1.04-.86,.62,0,1.46,.56,1.46,1.06,0,.54-.86,1.6-1.48,2.28l8.8-.06c.12-.4,.68-.88,1.1-.88,.58,0,1.42,.66,1.42,1.34,0,.5-.86,.5-1.08,.5h-1.02c-.04,1.2-.06,1.76-.06,3.48h1.62Zm-14.5,10.06c-.72,0-1.46-.42-1.46-1.04,0-.12,0-1.06,1.28-1.08,.94-.02,2.1-.4,2.76-.86,.3-.22,.56-.4,.74-.4,.26,0,.3,.1,.3,.26,0,.98-1.64,3.12-3.62,3.12Zm5.1-5.68v-3.42h-.84c-.02,.82-.02,1.72-.02,2.34v1.08h.86Zm0-4.38c0-.5-.02-2.96-.02-3.52h-.8c0,.5-.02,2.96-.02,3.52h.84Zm1.58,7.66c0,2.4-.24,2.74-1.2,2.74s-.96-.58-.96-1.16v-1.72c0-.06,0-.52-.04-.54-.02-.04-.2-.24-.2-.26,0-.46,1.08-.8,1.64-.8,.18,0,.8,0,.8,.8,0,.14-.04,.8-.04,.94Zm1.22-7.66c0-.5-.02-2.94-.02-3.5l-.78-.02c-.02,.86-.04,1.3-.04,3.52h.84Zm0,4.38v-3.42h-.84c0,1.42,.02,1.98,.02,3.42h.82Zm-.2,2.32c0-.38,.86-.82,1.44-.82,1.12,0,1.12,.5,1.12,3.38,0,.38-.02,1.16-.98,1.16-.9,0-1.02-.64-1.08-.9-.06-.34-.14-2.12-.16-2.52-.22-.1-.34-.16-.34-.3Zm2.96-6.7c0-2.04-.02-2.6-.04-3.5h-.76c-.02,.64-.02,.92-.02,3.5h.82Zm0,4.38v-3.42h-.82c0,1.42,0,1.98,.02,3.42h.8Zm4.88,6.16c-1.66,0-4.1-2.34-4.1-3.38,0-.56,.76-1,1.24-1,.38,0,1.06,.28,1.24,.7,.52,1.26,.6,1.46,1.42,2.4,.48,.58,.72,.84,.72,.92,0,.28-.32,.36-.52,.36Z"/><path class="cls-4" d="M58.94,345.21c.48-.68,.96-.74,1.14-.74,.58,0,1.42,.72,1.42,1.26,0,.2-.04,.32-.5,.6-.22,.28-1.78,2.48-1.78,2.74,0,.12,.06,.16,.26,.3,.3,.24,1.86,1.82,1.86,3.66,0,.48-.22,2.68-1.88,2.68-.68,0-1.52-.58-1.74-.72,0,.54,.1,3.14,.1,3.74,0,.98,0,1.28-.66,1.78-.12,.1-.56,.42-.98,.42-.2,0-.8-.08-.8-.72,0-.48,.12-2.86,.14-3.4,.12-4.92,.12-8.08,.12-8.38l-.02-1.5c0-.14-.12-.24-.2-.28-.38-.28-.42-.32-.42-.46,0-.48,1.04-1.66,1.68-1.66,.18,0,.7,.14,.98,.68h1.28Zm-1.1,.86c-.14,0-.16,.54-.16,.96v4.8c0,.4,.04,2.32,.04,2.76,1.2,.04,1.56-.64,1.56-2.02,0-1.14-.46-2.4-1.08-2.86-.18-.14-.22-.18-.22-.4,0-.12,.7-2.72,.76-3.24h-.9Zm2.56,14.08c-.56,0-1.06-.36-1.06-.82,0-.2,.18-.78,.8-.9,.54-.1,1.52-.3,2.14-.86,.28-.26,.46-.42,.5-.42,.2,0,.2,.22,.2,.34,0,1.38-1.26,2.66-2.58,2.66Zm.84-11.04c-.08,0-.18-.04-.18-.12,0-.02,.66-1.1,.78-1.32,.24-.5,.6-1.46,.66-2.08,.04-.34,.1-.76,1.06-.76,.26,0,.82,.2,.96,.46,.9-.2,2.68-.8,3.8-1.3,.48-.56,.9-.56,1.1-.56,.5,0,1.46,.48,1.46,1.1,0,.42-.2,.46-1,.66-1.44,.34-2.86,.6-5.28,.74-.68,2.18-2.86,3.18-3.36,3.18Zm4.32,.82l-.02-.86h-1c-.18,0-.98,.28-1.16,.28-.24,0-.52-.16-.52-.42,0-.4,.34-.66,.82-.66,.08,0,.56,.08,.66,.08h4.04c.22-.32,.54-.52,.92-.52,.5,0,1.16,.48,1.16,.9,0,.36-.54,.36-.84,.36h-2l-.02,.84h2.48c.24-.3,.58-.62,1.04-.62,.5,0,1.3,.54,1.3,.96s-.66,.4-.88,.4h-8.64s-.88,.24-1.04,.24c-.2,0-.5-.06-.5-.36,0-.22,.18-.68,.84-.68,.08,0,.5,.06,.6,.06h2.76Zm5.12,3.96c0,.08,.02,1.12,0,1.16-.1,.4-.88,.64-1.48,.64-.66,0-.76-.16-.86-.32h-4.24c-.18,0-1.04,.28-1.24,.28-.28,0-.58-.12-.58-.42,0-.36,.36-.78,.96-.78,.1,0,.52,.1,.62,.1h4.52v-.66h-5.26c-.18,0-1,.28-1.2,.28-.28,0-.54-.12-.54-.4,0-.42,.36-.8,.9-.8,.1,0,.2,.02,.42,.08,.12,.02,5.26,.04,5.72,.04v-.7h-4.26c-.18,0-1.04,.28-1.24,.28-.26,0-.58-.1-.58-.42,0-.36,.36-.8,.96-.8,.1,0,.52,.12,.62,.12h4.42c.28-.34,.78-.62,1.18-.62,.52,0,1.36,.42,1.36,.82,0,.08-.12,.44-.14,.52-.02,.24-.02,.46-.02,.82h.58c.32-.52,.8-.72,1.04-.72,.58,0,1.24,.72,1.24,1.1,0,.34-.42,.4-.78,.4h-2.12Zm-2.94,5.56c.86,0,2.74,0,4.94-1.32,.14-.08,.52-.3,.64-.3,.14,0,.3,.08,.3,.26,0,.36-.3,.94-.64,1.56-.6,1.16-.84,1.44-3.18,1.44-.66,0-2.58-.06-4.28-.54-1.82-.5-2.16-.7-2.16-1.88,0-.08,.08-1.24,.08-1.46,0-.1-.36-.42-.36-.52,0-.42,.86-.98,1.6-.98,.34,0,.76,.06,.76,.56,0,.32-.24,1.92-.24,2.28,0,.46,.12,.52,.4,.64,.62,.18,1.24,.26,2.14,.26Zm-.62-11.28c-.78,0-2-1-2-1.52,0-.34,.64-.76,1.22-.76,1.02,0,1.38,1.08,1.38,1.84,0,.12,0,.44-.6,.44Zm-.08,7.52c.5,0,1.12,.36,1.12,.7,0,.38-1.42,2.18-2.14,2.18-.26,0-.34-.14-.34-.3,0-.2,.34-1.8,.48-2.16,.16-.3,.56-.42,.88-.42Zm1.32,3.06c-.24,0-.34-.1-.34-.3,0-.16,.2-1.3,.44-2.08,.12-.36,.62-.52,1-.52,.48,0,1.12,.34,1.12,.7,0,.62-1.32,2.2-2.22,2.2Zm.4-12.42c0-.28,.52-.7,1.18-.7,1.1,0,1.56,1.1,1.56,2.2,0,.22-.14,.5-.66,.5-.88-.24-2.08-1.64-2.08-2Z"/><path class="cls-4" d="M87.28,350.31c.04,1.74,.32,3.26,.58,4.42,.18-.58,.34-1.16,.48-1.78-.02-.04-.1-.28-.1-.34,0-.42,.76-.82,1.44-.82,.44,0,1.08,.18,1.08,.74,0,.48-.5,1.96-1.66,4.12,.44,.92,1.72,2.46,2.56,2.46,.06,0,.66,0,1.42-.96,.04-.06,.12-.14,.2-.14,.12,0,.16,.26,.16,.34,0,.64-.04,3.1-1.94,3.1-1.18,0-2.76-1.16-3.92-3.16-1.66,2-4.28,2.7-5.22,2.7-.06,0-.36,0-.36-.18,0-.08,.34-.22,.46-.26,1.44-.78,2.24-1.48,3.12-2.44-1.54,.02-2.06,.02-2.9,.02-.02,.72-.02,.8-.12,.94-.18,.22-.74,.5-1.14,.5-.34,0-.66-.28-.66-.56,0-.56,.2-3.3,.22-3.92,.04-.78,.04-1.8,.04-2.6,0-.1,0-.14-.04-.2-.02-.06-.18-.3-.18-.34,0-.3,.78-.96,1.24-.96,.26,0,.66,.16,.68,.44h1.5c.38-.42,.56-.44,.66-.44,.14,0,.34,.1,.5,.18-.04-.38-.06-.52-.1-.86h-4.62c-.06,4.94-.08,6.84-1.34,8.7-.84,1.24-2.18,2.06-2.62,2.06-.14,0-.2-.04-.2-.18s.52-.62,.6-.74c1.32-1.88,1.46-4.42,1.5-5.32h-.58c-.18,4.34-2.96,5.32-3.34,5.32-.08,0-.22-.02-.22-.14,0-.08,.08-.16,.14-.2,.8-1.12,1.48-2.2,1.5-5.02-.08,.02-.44,.24-.52,.28-.12,.04-.22,.04-.3,.04-.2,0-.54-.2-.54-.46,0-.54,.52-.66,.86-.66,.08,0,.48,.04,.58,.04h2.44c.02-.52,.02-.96,.02-1.56h-.82v.36c0,.52-.84,.68-1.32,.68-.22,0-.8-.02-.8-.52,0-.46,.1-2.66,.1-3.16,0-.12-.02-.24-.08-.32-.1-.12-.24-.32-.24-.38,0-.34,.98-.96,1.5-.96,.32,0,.92,.12,.92,.58,0,.08-.08,.42-.08,.5-.02,.1,0,.56,0,.66v1.72h.82c0-.14-.02-.88-.02-1.04,0-.28,0-.3-.16-.48-.06-.06-.14-.18-.14-.3,0-.38,.98-1.12,1.64-1.12,.5,0,.6,.32,.76,.74h4.4c0-.08-.04-.54-.14-.62-.26-.22-.28-.24-.28-.36,0-.18,.38-.46,.58-.6-.12-.02-.4-.04-.4-.32v-1.18h-2.64v.98c0,.46-.82,.72-1.56,.72-.12,0-.5,0-.62-.32-.02-.04-.02-1.34-.02-1.38l-3.16,.06c-.18,0-.48,.12-.5,.14-.06,.02-.4,.18-.74,.18-.42,0-.7-.32-.7-.58s.32-.94,1.02-.94c.12,0,.76,.1,.9,.1l3.2,.06c0-.1-.02-.62-.02-.74,0-.04-.16-.14-.18-.18-.04-.04-.1-.12-.1-.2,0-.4,1.08-1.02,1.68-1.02,.08,0,.86,0,.86,.66,0,.08-.06,.5-.06,.6v.88h2.64v-.22c0-.14,0-.56-.06-.62-.24-.26-.26-.28-.26-.38,0-.36,1.06-1.04,1.64-1.04,.26,0,.98,.14,.98,.7,0,.1-.08,.54-.08,.64-.02,.3-.02,.48-.02,.92l2.64-.04c.2-.44,.74-.82,1.2-.82,.62,0,1.6,.68,1.6,1.26s-1.16,.6-1.44,.6l-3.98-.02v.88c0,.14-.12,.22-.22,.3,.14,.04,.46,.16,.46,.6,0,.18-.08,1.1-.08,1.3,.64,.02,1.68,.02,2.36,.02,.28-.48,.64-.78,1.02-.78,.58,0,1.44,.66,1.44,1.18,0,.46-.78,.46-.88,.46h-3.92Zm-4.2,3.2v-1.38c-.06,0-.34,.02-.4,.02l-.02,1.36h.42Zm1.28,1.62v-1h-1.7v1h1.7Zm-1.28,2.26v-1.62h-.4v1.62h.4Zm1.86-.02c.2-.28,.34-.48,.66-.48,.22,0,.54,.26,.68,.38l.36-.56c-.16-.4-.5-1.28-.78-2.6-.04,0-.04,.06-.04,.1,0,.06,.08,1.16,.08,1.38,0,.48-1,.66-1.3,.58v1.22l.34-.02Zm-.3-5.22c0,.52,0,.76-.02,1.44,.16-.18,.34-.32,.58-.32,.14,0,.34,.04,.52,.16-.08-.48-.16-.94-.22-1.32-.08,.04-.18,.04-.24,.04h-.62Zm3.56-2.86c-.22,0-.36-.2-.36-.32,0-.1,.44-1.26,.58-1.58,.18-.38,.42-.66,.92-.66,.56,0,1.16,.52,1.16,.9,0,.72-1.84,1.66-2.3,1.66Z"/><path class="cls-4" d="M103.1,350.72c.16-.32,.46-.64,.86-.64,.52,0,1.28,.56,1.28,1.12,0,.44-.5,.46-.86,.46-.94,0-5.58-.02-6.62-.02-.24,0-.92,.02-1.48,.04-.18,0-1.04,.24-1.24,.24-.34,0-.54-.22-.54-.52,0-.44,.48-.84,.9-.84,.12,0,.8,.14,.84,.14h2.86v-.66c0-.18-.02-.22-.1-.26-.32-.2-.34-.22-.34-.36,0-.52,1.26-1.04,1.92-1.04s.76,.48,.76,.76c0,.04,0,.16-.02,.2-.06,.16-.12,1.16-.14,1.38h1.92Zm-1.4,6c.24-.28,.66-.48,.9-.48,.38,0,1.28,.36,1.28,.9,0,.1-.12,.6-.12,.7,0,.32,.04,1.88,.04,2.24,0,.62-.96,.82-1.54,.82-.72,0-.72-.16-.72-.76h-3.02v.56c0,.54-.92,.8-1.5,.8-.4,0-.74-.18-.74-.6s.08-2.5,.08-2.96c0-.18-.02-.26-.1-.4-.02-.04-.14-.22-.14-.26,0-.46,1.18-1.02,1.66-1.02,.18,0,.66,.14,.76,.46h3.16Zm6.9-12.46c.22-.44,.82-.76,1.14-.76,.46,0,1.44,.56,1.44,1.04,0,.04-.08,.24-.1,.3-.08,.16-.08,.42-.08,.58,0,.3,.04,1.82,.04,2.16,0,.98-1.44,.98-1.62,.98-.74,0-.76-.3-.78-.48h-9.7c-.04,.54-1.06,.84-1.46,.84-.12,0-.82,0-.82-.6,0-.4,.08-2.3,.08-2.74,0-.12,0-.14-.08-.24-.16-.22-.3-.4-.3-.5,0-.42,1.3-1.08,1.74-1.08,.34,0,.9,.16,1,.5h9.5Zm-7.12,8.42c.26-.32,.64-.5,.9-.5,.48,0,1.08,.5,1.08,.98,0,.42-.64,.42-.96,.42h-2.64c-1.18,0-1.76,.04-1.86,.04-.14,.02-.82,.16-.98,.16-.26,0-.58-.16-.58-.46,0-.34,.3-.72,.78-.72,.16,0,.52,.04,.68,.08h3.58Zm.02,2c.28-.36,.66-.5,.9-.5,.48,0,1.08,.5,1.08,.98,0,.4-.56,.42-.96,.42h-2.96c-.42,0-1.38,.02-1.58,.04-.14,.04-.8,.16-.94,.16-.24,0-.58-.14-.58-.46,0-.38,.34-.74,.78-.74,.16,0,.42,.06,.68,.1h3.58Zm.08,4.6v-1.7h-2.88c-.1,0-.18,.12-.18,.2v1.5h3.06Zm-.76-12.12v-1.98h-1.78c-.06,0-.12,.06-.12,.16v1.82h1.9Zm3.7,0v-1.98h-1.62v1.98h1.62Zm.86,3.82c-.06-.04-.14-.12-.14-.24,0-.44,1.24-1.18,1.84-1.18,.26,0,.9,0,.9,.84,0,.16-.08,.94-.08,1.1-.02,.4-.02,.58-.02,2.1,0,.94-.04,2.82-.12,3.26-.08,.36-.76,1.12-1.34,1.12-.78,0-.78-.46-.78-.92,0-.72,.04-4.16,.04-4.94,0-.2-.02-.78-.04-.96-.02-.04-.22-.14-.26-.18Zm4.04,.9c0-.34,0-.44-.02-1.24,0-.12,0-.14-.08-.2-.32-.26-.36-.3-.36-.42,0-.48,1.32-1.26,1.98-1.26,.46,0,.9,.18,.9,.68,0,.16-.12,.9-.12,1.06-.02,.12-.1,1.74-.1,3.74,0,.64,.04,3.84,.04,4.58,0,.68,0,2.72-2.54,2.72-1.56,0-2.76-1.34-2.76-1.54,0-.1,.04-.1,.32-.08,.6,.1,1.22,.1,1.32,.1,1.42,0,1.42-.74,1.42-3.48v-4.66Zm-.78-4.72v-1.98h-1.98v1.98h1.98Z"/><path class="cls-4" d="M114.34,359.96c0-.94,.82-.96,1.56-.98,1.3-.02,1.94-.32,2.84-.92,.48-.32,.54-.36,.58-.36,.02,0,.16,.02,.16,.2,0,1.14-1.8,3.18-3.8,3.18-.7,0-1.34-.38-1.34-1.12Zm4.26-3.46v.4c0,.48-1.14,.8-1.66,.8-.62,0-.64-.36-.64-.78,0-.82,.14-6.02,.14-7.12,0-.52,0-3.16-.08-3.3-.04-.04-.26-.28-.28-.32-.06-.06-.08-.14-.08-.22,0-.5,1.26-1.3,1.76-1.3,.06,0,.62,0,.82,.54h3.1c.3-.42,.82-.72,1.1-.72,.54,0,1.6,.76,1.6,1.24,0,.14-.1,.28-.18,.4-.04,.04-.18,.24-.18,.26,0,.4,.02,2.5,.04,3.76,.02,.92,.1,5,.1,5.84,0,.52,0,.82-.7,1.1-.36,.14-.78,.2-1.02,.2-.74,0-.74-.36-.74-.78h-3.1Zm3.1-10.28h-2.88c-.12,0-.2,.08-.2,.22v2.08h3.1l-.02-2.3Zm.02,3.26h-3.1v2.54h3.1v-2.54Zm-3.1,3.5v2.56h3.08l.02-2.56h-3.1Zm5.28,7.86c-.66,0-.74-.14-1.32-1.02-.64-1-1.16-1.54-1.46-1.8-.12-.12-.38-.34-.38-.44,0-.14,.28-.14,.32-.14,1.26,0,4.16,1.12,4.16,2.46,0,.48-.6,.94-1.32,.94Zm2.34-4.48c-.6,0-.6-.52-.6-.82,0-.76,.04-4.14,.04-4.82,0-.3-.06-2.54-.06-2.56-.02-.46-.02-.6-.12-.68-.28-.24-.32-.28-.32-.4,0-.48,1.38-1.24,1.96-1.24,.14,0,.86,.02,.86,.76,0,.06-.08,.28-.08,.32-.16,2.64-.18,5.9-.18,7.76,0,.32,0,.44-.06,.76-.22,.52-1.04,.92-1.44,.92Zm3.02-8.36c0-1.3-.02-1.44-.04-2.02-.02-.24,0-.26-.2-.4-.14-.1-.26-.22-.26-.38,0-.7,1.62-1.38,2.2-1.38,.3,0,.86,.18,.86,.72,0,.14-.16,.96-.18,1.14-.12,1.36-.14,6.82-.14,8.1,0,.76,.04,4.14,.04,4.82s0,1.48-.68,2.16c-.54,.54-1.26,.7-1.8,.7-1.48,0-2.9-1.54-2.9-1.62s.1-.08,.16-.08h.08c.2,.02,.46,.06,1.02,.06,1.68,0,1.84-.26,1.84-4.22v-7.6Z"/><path class="cls-4" d="M134.84,357.58c0-.78,.74-1.42,1.6-1.42,1,0,1.64,.76,1.64,1.64,0,1.6-1.36,4.36-2.52,4.36-.22,0-.42-.08-.42-.3,0-.1,.26-.56,.3-.66,.04-.1,.6-1.36,.64-2.44-.78-.04-1.24-.48-1.24-1.18Z"/><path class="cls-4" d="M162.76,350.8c.28-.44,.84-.86,1.24-.86,.54,0,1.42,.64,1.42,1.26,0,.48-.54,.54-.66,.56-.3,.04-3.04,0-3.62,0v1.68c0,.48,0,1.14,.02,1.74h.58c.24-.44,.66-.8,1.04-.8,.5,0,1.46,.58,1.46,1.24,0,.22-.12,.56-.76,.58-.14,0-2.42-.02-2.88-.02h-11.54c-.16,0-.88,.22-1.06,.22-.22,0-.74-.12-.74-.44,0-.38,.36-.86,.98-.86,.12,0,.64,.08,.76,.08h1.4l.06-3.42-2.16,.02c-.18,0-1.04,.28-1.24,.28-.32,0-.58-.14-.58-.46,0-.4,.26-.9,.84-.9,.14,0,.84,.1,1,.1h2.16v-3.22c-1.16,.92-2.44,1.54-3.08,1.54-.1,0-.34,0-.34-.18,0-.1,.06-.16,.32-.36,1.42-1.14,2.58-2.76,3.58-4.64,.04-.56,.5-.86,1.04-.86,.62,0,1.46,.56,1.46,1.06,0,.54-.86,1.6-1.48,2.28l8.8-.06c.12-.4,.68-.88,1.1-.88,.58,0,1.42,.66,1.42,1.34,0,.5-.86,.5-1.08,.5h-1.02c-.04,1.2-.06,1.76-.06,3.48h1.62Zm-14.5,10.06c-.72,0-1.46-.42-1.46-1.04,0-.12,0-1.06,1.28-1.08,.94-.02,2.1-.4,2.76-.86,.3-.22,.56-.4,.74-.4,.26,0,.3,.1,.3,.26,0,.98-1.64,3.12-3.62,3.12Zm5.1-5.68v-3.42h-.84c-.02,.82-.02,1.72-.02,2.34v1.08h.86Zm0-4.38c0-.5-.02-2.96-.02-3.52h-.8c0,.5-.02,2.96-.02,3.52h.84Zm1.58,7.66c0,2.4-.24,2.74-1.2,2.74s-.96-.58-.96-1.16v-1.72c0-.06,0-.52-.04-.54-.02-.04-.2-.24-.2-.26,0-.46,1.08-.8,1.64-.8,.18,0,.8,0,.8,.8,0,.14-.04,.8-.04,.94Zm1.22-7.66c0-.5-.02-2.94-.02-3.5l-.78-.02c-.02,.86-.04,1.3-.04,3.52h.84Zm0,4.38v-3.42h-.84c0,1.42,.02,1.98,.02,3.42h.82Zm-.2,2.32c0-.38,.86-.82,1.44-.82,1.12,0,1.12,.5,1.12,3.38,0,.38-.02,1.16-.98,1.16-.9,0-1.02-.64-1.08-.9-.06-.34-.14-2.12-.16-2.52-.22-.1-.34-.16-.34-.3Zm2.96-6.7c0-2.04-.02-2.6-.04-3.5h-.76c-.02,.64-.02,.92-.02,3.5h.82Zm0,4.38v-3.42h-.82c0,1.42,0,1.98,.02,3.42h.8Zm4.88,6.16c-1.66,0-4.1-2.34-4.1-3.38,0-.56,.76-1,1.24-1,.38,0,1.06,.28,1.24,.7,.52,1.26,.6,1.46,1.42,2.4,.48,.58,.72,.84,.72,.92,0,.28-.32,.36-.52,.36Z"/><path class="cls-4" d="M170.9,345.21c.48-.68,.96-.74,1.14-.74,.58,0,1.42,.72,1.42,1.26,0,.2-.04,.32-.5,.6-.22,.28-1.78,2.48-1.78,2.74,0,.12,.06,.16,.26,.3,.3,.24,1.86,1.82,1.86,3.66,0,.48-.22,2.68-1.88,2.68-.68,0-1.52-.58-1.74-.72,0,.54,.1,3.14,.1,3.74,0,.98,0,1.28-.66,1.78-.12,.1-.56,.42-.98,.42-.2,0-.8-.08-.8-.72,0-.48,.12-2.86,.14-3.4,.12-4.92,.12-8.08,.12-8.38l-.02-1.5c0-.14-.12-.24-.2-.28-.38-.28-.42-.32-.42-.46,0-.48,1.04-1.66,1.68-1.66,.18,0,.7,.14,.98,.68h1.28Zm-1.1,.86c-.14,0-.16,.54-.16,.96v4.8c0,.4,.04,2.32,.04,2.76,1.2,.04,1.56-.64,1.56-2.02,0-1.14-.46-2.4-1.08-2.86-.18-.14-.22-.18-.22-.4,0-.12,.7-2.72,.76-3.24h-.9Zm2.56,14.08c-.56,0-1.06-.36-1.06-.82,0-.2,.18-.78,.8-.9,.54-.1,1.52-.3,2.14-.86,.28-.26,.46-.42,.5-.42,.2,0,.2,.22,.2,.34,0,1.38-1.26,2.66-2.58,2.66Zm.84-11.04c-.08,0-.18-.04-.18-.12,0-.02,.66-1.1,.78-1.32,.24-.5,.6-1.46,.66-2.08,.04-.34,.1-.76,1.06-.76,.26,0,.82,.2,.96,.46,.9-.2,2.68-.8,3.8-1.3,.48-.56,.9-.56,1.1-.56,.5,0,1.46,.48,1.46,1.1,0,.42-.2,.46-1,.66-1.44,.34-2.86,.6-5.28,.74-.68,2.18-2.86,3.18-3.36,3.18Zm4.32,.82l-.02-.86h-1c-.18,0-.98,.28-1.16,.28-.24,0-.52-.16-.52-.42,0-.4,.34-.66,.82-.66,.08,0,.56,.08,.66,.08h4.04c.22-.32,.54-.52,.92-.52,.5,0,1.16,.48,1.16,.9,0,.36-.54,.36-.84,.36h-2l-.02,.84h2.48c.24-.3,.58-.62,1.04-.62,.5,0,1.3,.54,1.3,.96s-.66,.4-.88,.4h-8.64s-.88,.24-1.04,.24c-.2,0-.5-.06-.5-.36,0-.22,.18-.68,.84-.68,.08,0,.5,.06,.6,.06h2.76Zm5.12,3.96c0,.08,.02,1.12,0,1.16-.1,.4-.88,.64-1.48,.64-.66,0-.76-.16-.86-.32h-4.24c-.18,0-1.04,.28-1.24,.28-.28,0-.58-.12-.58-.42,0-.36,.36-.78,.96-.78,.1,0,.52,.1,.62,.1h4.52v-.66h-5.26c-.18,0-1,.28-1.2,.28-.28,0-.54-.12-.54-.4,0-.42,.36-.8,.9-.8,.1,0,.2,.02,.42,.08,.12,.02,5.26,.04,5.72,.04v-.7h-4.26c-.18,0-1.04,.28-1.24,.28-.26,0-.58-.1-.58-.42,0-.36,.36-.8,.96-.8,.1,0,.52,.12,.62,.12h4.42c.28-.34,.78-.62,1.18-.62,.52,0,1.36,.42,1.36,.82,0,.08-.12,.44-.14,.52-.02,.24-.02,.46-.02,.82h.58c.32-.52,.8-.72,1.04-.72,.58,0,1.24,.72,1.24,1.1,0,.34-.42,.4-.78,.4h-2.12Zm-2.94,5.56c.86,0,2.74,0,4.94-1.32,.14-.08,.52-.3,.64-.3,.14,0,.3,.08,.3,.26,0,.36-.3,.94-.64,1.56-.6,1.16-.84,1.44-3.18,1.44-.66,0-2.58-.06-4.28-.54-1.82-.5-2.16-.7-2.16-1.88,0-.08,.08-1.24,.08-1.46,0-.1-.36-.42-.36-.52,0-.42,.86-.98,1.6-.98,.34,0,.76,.06,.76,.56,0,.32-.24,1.92-.24,2.28,0,.46,.12,.52,.4,.64,.62,.18,1.24,.26,2.14,.26Zm-.62-11.28c-.78,0-2-1-2-1.52,0-.34,.64-.76,1.22-.76,1.02,0,1.38,1.08,1.38,1.84,0,.12,0,.44-.6,.44Zm-.08,7.52c.5,0,1.12,.36,1.12,.7,0,.38-1.42,2.18-2.14,2.18-.26,0-.34-.14-.34-.3,0-.2,.34-1.8,.48-2.16,.16-.3,.56-.42,.88-.42Zm1.32,3.06c-.24,0-.34-.1-.34-.3,0-.16,.2-1.3,.44-2.08,.12-.36,.62-.52,1-.52,.48,0,1.12,.34,1.12,.7,0,.62-1.32,2.2-2.22,2.2Zm.4-12.42c0-.28,.52-.7,1.18-.7,1.1,0,1.56,1.1,1.56,2.2,0,.22-.14,.5-.66,.5-.88-.24-2.08-1.64-2.08-2Z"/><path class="cls-4" d="M199.24,350.31c.04,1.74,.32,3.26,.58,4.42,.18-.58,.34-1.16,.48-1.78-.02-.04-.1-.28-.1-.34,0-.42,.76-.82,1.44-.82,.44,0,1.08,.18,1.08,.74,0,.48-.5,1.96-1.66,4.12,.44,.92,1.72,2.46,2.56,2.46,.06,0,.66,0,1.42-.96,.04-.06,.12-.14,.2-.14,.12,0,.16,.26,.16,.34,0,.64-.04,3.1-1.94,3.1-1.18,0-2.76-1.16-3.92-3.16-1.66,2-4.28,2.7-5.22,2.7-.06,0-.36,0-.36-.18,0-.08,.34-.22,.46-.26,1.44-.78,2.24-1.48,3.12-2.44-1.54,.02-2.06,.02-2.9,.02-.02,.72-.02,.8-.12,.94-.18,.22-.74,.5-1.14,.5-.34,0-.66-.28-.66-.56,0-.56,.2-3.3,.22-3.92,.04-.78,.04-1.8,.04-2.6,0-.1,0-.14-.04-.2-.02-.06-.18-.3-.18-.34,0-.3,.78-.96,1.24-.96,.26,0,.66,.16,.68,.44h1.5c.38-.42,.56-.44,.66-.44,.14,0,.34,.1,.5,.18-.04-.38-.06-.52-.1-.86h-4.62c-.06,4.94-.08,6.84-1.34,8.7-.84,1.24-2.18,2.06-2.62,2.06-.14,0-.2-.04-.2-.18s.52-.62,.6-.74c1.32-1.88,1.46-4.42,1.5-5.32h-.58c-.18,4.34-2.96,5.32-3.34,5.32-.08,0-.22-.02-.22-.14,0-.08,.08-.16,.14-.2,.8-1.12,1.48-2.2,1.5-5.02-.08,.02-.44,.24-.52,.28-.12,.04-.22,.04-.3,.04-.2,0-.54-.2-.54-.46,0-.54,.52-.66,.86-.66,.08,0,.48,.04,.58,.04h2.44c.02-.52,.02-.96,.02-1.56h-.82v.36c0,.52-.84,.68-1.32,.68-.22,0-.8-.02-.8-.52,0-.46,.1-2.66,.1-3.16,0-.12-.02-.24-.08-.32-.1-.12-.24-.32-.24-.38,0-.34,.98-.96,1.5-.96,.32,0,.92,.12,.92,.58,0,.08-.08,.42-.08,.5-.02,.1,0,.56,0,.66v1.72h.82c0-.14-.02-.88-.02-1.04,0-.28,0-.3-.16-.48-.06-.06-.14-.18-.14-.3,0-.38,.98-1.12,1.64-1.12,.5,0,.6,.32,.76,.74h4.4c0-.08-.04-.54-.14-.62-.26-.22-.28-.24-.28-.36,0-.18,.38-.46,.58-.6-.12-.02-.4-.04-.4-.32v-1.18h-2.64v.98c0,.46-.82,.72-1.56,.72-.12,0-.5,0-.62-.32-.02-.04-.02-1.34-.02-1.38l-3.16,.06c-.18,0-.48,.12-.5,.14-.06,.02-.4,.18-.74,.18-.42,0-.7-.32-.7-.58s.32-.94,1.02-.94c.12,0,.76,.1,.9,.1l3.2,.06c0-.1-.02-.62-.02-.74,0-.04-.16-.14-.18-.18-.04-.04-.1-.12-.1-.2,0-.4,1.08-1.02,1.68-1.02,.08,0,.86,0,.86,.66,0,.08-.06,.5-.06,.6v.88h2.64v-.22c0-.14,0-.56-.06-.62-.24-.26-.26-.28-.26-.38,0-.36,1.06-1.04,1.64-1.04,.26,0,.98,.14,.98,.7,0,.1-.08,.54-.08,.64-.02,.3-.02,.48-.02,.92l2.64-.04c.2-.44,.74-.82,1.2-.82,.62,0,1.6,.68,1.6,1.26s-1.16,.6-1.44,.6l-3.98-.02v.88c0,.14-.12,.22-.22,.3,.14,.04,.46,.16,.46,.6,0,.18-.08,1.1-.08,1.3,.64,.02,1.68,.02,2.36,.02,.28-.48,.64-.78,1.02-.78,.58,0,1.44,.66,1.44,1.18,0,.46-.78,.46-.88,.46h-3.92Zm-4.2,3.2v-1.38c-.06,0-.34,.02-.4,.02l-.02,1.36h.42Zm1.28,1.62v-1h-1.7v1h1.7Zm-1.28,2.26v-1.62h-.4v1.62h.4Zm1.86-.02c.2-.28,.34-.48,.66-.48,.22,0,.54,.26,.68,.38l.36-.56c-.16-.4-.5-1.28-.78-2.6-.04,0-.04,.06-.04,.1,0,.06,.08,1.16,.08,1.38,0,.48-1,.66-1.3,.58v1.22l.34-.02Zm-.3-5.22c0,.52,0,.76-.02,1.44,.16-.18,.34-.32,.58-.32,.14,0,.34,.04,.52,.16-.08-.48-.16-.94-.22-1.32-.08,.04-.18,.04-.24,.04h-.62Zm3.56-2.86c-.22,0-.36-.2-.36-.32,0-.1,.44-1.26,.58-1.58,.18-.38,.42-.66,.92-.66,.56,0,1.16,.52,1.16,.9,0,.72-1.84,1.66-2.3,1.66Z"/><path class="cls-4" d="M217.42,348.57c.12,2.34,.4,3.66,1.12,5.88,.64-1.42,.92-2.34,1.18-3.42-.06-.12-.12-.28-.12-.46,0-.7,1.24-.82,1.6-.82,.38,0,1,.22,1,.74,0,.22-.02,1.92-2.42,5.64,.84,1.24,2.28,2.6,3.28,2.6,.42,0,.74-.18,1.24-.62,.1-.1,.56-.66,.7-.66s.14,.2,.14,.4c0,1.08-.2,3.6-2.12,3.6-1.02,0-2.86-.58-4.8-3.78-1.68,1.58-4.1,2.44-5.38,2.44-.2,0-.86-.02-.86-.22,0-.08,.04-.1,.5-.24,1.56-.48,3.58-1.72,4.76-3.56-.06-.22-.12-.38-.32-.86-.88-2.06-1.34-4.4-1.66-6.66h-4.56v2.92h1.98c.22-.36,.46-.7,.9-.7,.48,0,1.48,.58,1.48,1.12,0,.16-.06,.22-.08,.26s-.18,.22-.2,.26c-.34,3.18-.38,3.54-.66,4.3-.18,.54-.64,1.84-2.22,1.84-.86,0-1.32-.52-2-1.46-1.12,2.52-3.3,3.36-3.56,3.36-.08,0-.22-.02-.22-.14,0-.04,.86-1.04,1-1.26,1.38-2.04,1.38-4.12,1.38-8,0-2.06-.12-2.24-.28-2.38-.32-.28-.36-.32-.36-.46,0-.56,1.16-1.52,1.82-1.52,.74,0,.88,.5,.96,.8h4.48l-.28-2c-.02-.14-.06-.18-.42-.5-.02-.02-.06-.1-.06-.18,0-.62,1.46-1.42,2.16-1.42,.24,0,.9,0,.9,.8,0,.3-.1,1.82-.1,2.18,0,.62,0,.84,.02,1.12h3.96c.26-.62,.88-.96,1.18-.96,.62,0,1.62,.84,1.62,1.5,0,.52-.7,.52-1.3,.52h-5.38Zm-6.74,3.86c-.1,2.12-.42,3.5-.5,3.84-.04,.18-.1,.36-.16,.52,.48,.14,.88,.26,1.24,.26,.8,0,1.14-.76,1.36-3.02,.06-.74,.06-1.12,.06-1.6h-2Zm10.94-7.3c-.28,.34-2.18,1.82-2.72,1.82-.28,0-.32-.22-.32-.4s.5-1.5,.62-1.82c.18-.48,.52-1.36,1.3-1.36,.56,0,1.38,.34,1.38,1.1,0,.26-.1,.48-.26,.66Z"/><path class="cls-4" d="M236.86,348.83c2.06,4.12,5.94,5.72,8.4,6.74,.06,.02,.42,.16,.42,.32,0,.08-.46,.38-.58,.46-.76,.5-1.72,1.12-2.38,1.12-.92,0-2.04-1.04-2.42-1.4-2.7-2.5-3.46-5.02-3.78-6.08,.06,2.26,.08,3.16,.14,5.44,.12,0,.66-.02,.78-.02,.18-.32,.5-.6,.86-.6,.48,0,1.24,.68,1.24,1.22,0,.46-.6,.48-.86,.48-.28,0-1.66-.02-1.98-.02,.06,1.14,.16,2.66,.16,3.44,0,1.26-1.26,1.56-1.72,1.56-.04,0-.98,0-.98-1.06,0-.3,.18-3.34,.2-3.96h-.92c-.16,0-.3,.02-.44,.04-.16,.02-.9,.32-1.06,.32-.38,0-.66-.18-.66-.58s.3-.88,.88-.88c.26,0,1.44,.08,1.72,.08h.52c.02-.86,.06-2.3,.06-4.02,0-.12,0-.18-.04-.18-.12,.32-1.32,2-1.88,2.62-2.56,2.88-5.44,3.76-5.96,3.76-.12,0-.3-.04-.3-.2,0-.04,.56-.46,.58-.46,3.68-2.82,4.84-5.66,4.96-5.96,.5-1.24,.6-1.54,1.52-1.54,.42,0,.82,.18,1.12,.4v-1.02h-4.02c-.14,0-.54,0-1.18,.22-.2,.06-.6,.2-.72,.2-.34,0-.72-.2-.72-.6,0-.54,.46-1.14,1.06-1.14,.14,0,.82,.2,.98,.2h4.56c0-.66,0-1.3-.02-1.82-.04-.64-.04-.7-.24-.86-.32-.26-.34-.28-.34-.44,0-.68,1.26-1.52,2.04-1.52,.34,0,1,.16,1,.84,0,.12-.1,.7-.12,.82-.02,.24-.1,2.5-.12,2.98h4.18c.28-.64,.86-.92,1.22-.92,.58,0,1.58,.66,1.58,1.42,0,.6-.82,.62-.98,.62-.72,.02-4.28-.02-5.08-.02h-.68Z"/><path class="cls-4" d="M246.8,357.58c0-.78,.74-1.42,1.6-1.42,1,0,1.64,.76,1.64,1.64,0,1.6-1.36,4.36-2.52,4.36-.22,0-.42-.08-.42-.3,0-.1,.26-.56,.3-.66,.04-.1,.6-1.36,.64-2.44-.78-.04-1.24-.48-1.24-1.18Z"/><path class="cls-4" d="M51.2,381.74c.42-.54,.9-.94,1.28-.94,.52,0,1.64,.7,1.64,1.4,0,.46-.44,.5-.62,.52-.38,.04-5.96,0-7.08,0,1.38,1.82,4.98,2.92,6.9,3.36,.22,.06,.64,.14,.64,.28,0,.12-2.32,1.58-3.04,1.58-.58,0-3.72-1.04-5.24-4.9,.02,.56,.18,3.34,.18,3.96,0,1.38-1.32,1.38-1.56,1.38-.88,0-.88-.48-.88-.88,0-.46,.14-2.66,.16-3.16-1.4,1.44-4.68,3.16-7.36,3.16-.04,0-.44,0-.44-.16,0-.14,1.3-.62,1.54-.74,1.26-.62,3.22-1.92,4.06-2.92,.36-.42,.58-.7,1.14-.7,.32,0,.78,.16,1.1,.42,0-.1,.02-.56,.02-.66l-6.06,.08c-.24,0-1.34,.32-1.6,.32-.44,0-.58-.3-.58-.58,0-.48,.54-.94,.98-.94,.12,0,.7,.12,.84,.12h6.4c-.04-.56-.06-.62-.12-.68-.2-.2-.22-.2-.22-.32,0-.24,.48-.7,.9-.76-1.18,.02-2.06,.02-3,.02-.06,.92-1.3,.92-1.44,.92-.8,0-.8-.32-.8-.62,0-.34,.1-1.98,.12-2.36,.04-1.3,.08-2.44,.08-2.84-1.02,.84-2.12,1.42-2.84,1.42-.04,0-.24,0-.24-.12,0-.06,.06-.12,.54-.58,1.92-1.9,2.84-3.84,3.22-4.62,.02-.36,.04-1.08,1.14-1.08,.66,0,1.4,.46,1.4,1.02,0,.36-.6,1.3-.92,1.72h2.5c.08-.32,.64-2.5,.7-2.58,.26-.38,.8-.38,.88-.38,.58,0,1.44,.42,1.44,1.06,0,.28-.12,.4-.18,.48-.24,.26-.72,.7-1.66,1.42h3.96c.18-.42,.74-.86,1.08-.86,.44,0,1.46,.66,1.46,1.26,0,.26-.22,.52-.72,.52h-5.06c-.02,.42-.02,.84-.02,1.16h2c.32-.44,.7-.56,.9-.56,.38,0,1.22,.48,1.22,.96,0,.42-.54,.42-.86,.42h-3.3v1.2h2.08c.4-.5,.74-.58,.92-.58,.32,0,1.18,.52,1.18,.96s-.72,.46-.94,.46h-3.26v1.24h3.86c.4-.46,.74-.76,1.08-.76,.5,0,1.34,.7,1.34,1.24,0,.46-.68,.46-.96,.46h-5.52c.2,0,.28,.34,.28,.5,0,.04-.04,.28-.06,.3-.06,.34-.06,.44-.06,.96h5.48Zm-7.54-4.78v-1.2h-2.46l-.02,1.2h2.48Zm0,2.1v-1.26h-2.48v1.26h2.48Zm0-4.12v-1.16h-2.44l-.02,1.16h2.46Z"/><path class="cls-4" d="M69.94,371.81c.4-.58,.88-.8,1.2-.8,.66,0,1.72,.62,1.72,1.28,0,.16-.36,.86-.36,1.04v2.36c0,1.5,.2,9.46,.2,11.22,0,.44,0,.76-.58,1.02-.34,.14-.86,.24-1.22,.24-.28,0-.76-.1-.76-.56v-.84l-10.8-.02v.52c0,.66-1.04,1.04-1.6,1.04-.82,0-.82-.56-.82-1.26,0-.54,.12-3.14,.12-3.74,.08-5.24,.08-6.86,.08-9.26,0-.78,0-.86-.16-1-.24-.18-.28-.22-.28-.4,0-.74,1.26-1.46,1.88-1.46,.24,0,.7,.14,.78,.62h10.6Zm.24,13.9c0-.9,0-2.1,.02-3.32-.08,.12-.16,.24-.6,.24h-2.1c0,.76,.02,1.7,0,1.84-.1,1.02-1,1.12-1.42,1.12-1.04,0-2.1-.92-2.1-1.1,0-.06,.08-.1,.14-.1,.04,0,.78,.1,.92,.1,.56,0,.56-.18,.6-1.86h-4.46c-.18,0-1,.24-1.2,.24-.12,0-.48-.02-.48-.42s.4-.76,.88-.76c.16,0,.88,.14,1.04,.14h4.2v-.28c0-.06-.26-.3-.26-.38,0-.3,.96-.6,1.62-.6,.04,0,.58,0,.58,.44,0,.12-.06,.68-.06,.82h.68c.16-.26,.62-.52,.94-.52,.34,0,.86,.28,1.08,.76v-3.96c0-.72-.04-4.3-.06-5.24h-4.32c-.04,.62-.06,.8-.08,1.16h2.26c.26-.3,.5-.56,.92-.56,.54,0,1.16,.58,1.16,1.04,0,.36-.46,.36-.62,.36h-3.78l-.02,.68h1.32c.2-.22,.34-.4,.72-.4,.48,0,1.22,.38,1.22,.78,0,.08-.16,.48-.16,.58,0,.32,.08,1.78,.08,2.02,0,.54-.8,.66-1.3,.66-.66,0-.66-.16-.66-.32h-1.28l-.02,.84c.24,0,.6,0,.84-.02-.08-.06-.6-.32-.6-.44s.14-.12,.2-.12c.46,0,3.58,.34,3.58,1.48,0,.36-.54,.52-.88,.52-.46,0-.5-.02-1.56-.86-1.18,.22-5.72,.82-6.68,.82-.42,0-.86-.3-.86-.66,0-.46,.6-.68,1.14-.68h2.92c.02-.44,.02-.5,.04-.88h-1.14c-.08,.36-.94,.56-1.3,.56-.16,0-.6-.06-.6-.42,0-.14,.1-2,.1-2.38,0-.2,0-.28-.1-.4-.02-.02-.14-.18-.14-.22,0-.38,.88-.84,1.4-.84,.3,0,.62,.12,.66,.38h1.2v-.7h-2.72c-.14,0-.82,.2-.98,.2-.24,0-.42-.22-.42-.4,0-.28,.4-.76,.82-.76,.1,0,.52,.14,.62,.14h2.62l-.02-.34c-.02-.06-.2-.34-.2-.42,0-.18,.04-.28,.1-.4h-4.08c-.26,0-.26,.82-.26,1.42,0,4.66,.02,11.22,.02,11.42h10.88Zm-8.22-.94c-.7,0-1.2-.36-1.2-.76,0-.7,1.04-.7,1.28-.7,.94,0,1.3-.2,1.8-.5,.16-.1,.28-.16,.36-.16,.26,0,.26,.14,.26,.26,0,.08-.18,.48-.2,.5-.78,1.36-1.96,1.36-2.3,1.36Zm1.8-7.88c0-.26,.02-.36,.02-.66h-1.1c-.08,0-.1,.1-.1,.2v.46h1.18Zm-.02,1.3c0-.24,0-.34,.02-.62h-1.18v.62h1.16Zm3.16-1.3v-.66h-1.28l-.02,.66h1.3Zm0,1.3v-.62h-1.3v.62h1.3Z"/><path class="cls-4" d="M81.72,381.56c-.38,0-.6,.04-.82,.08-.1,.02-.64,.18-.76,.18-.3,0-.42-.16-.48-.24-.9,3.24-3.64,4.88-4.26,4.88-.1,0-.2-.04-.2-.2,0-.08,.3-.34,.36-.4,2-2.36,2.5-4.74,2.5-9.24v-.52c0-.78-.02-2.66-.1-3.32-.02-.1-.36-.54-.36-.64,0-.44,1.18-1.36,1.84-1.36,.8,0,.84,.52,.86,.68h8.88c.28-.5,.7-.82,1.08-.82,.48,0,1.6,.58,1.6,1.12,0,.1-.14,.54-.16,.64-.02,.16,.02,2.4,.02,2.5,0,.4,0,.82-.76,1.1-.08,.02-.56,.18-.9,.18-.82,0-.84-.48-.86-.74h-8.92c-.02,1.14-.08,3.26-.42,5.26,.08-.06,.26-.22,.58-.22,.16,0,.32,.04,.6,.08,.26,.04,1.98,.08,2,.08v-1.72c-1.12,0-1.2,.04-1.42,.14-.22,.1-.32,.14-.56,.14-.44,0-.74-.26-.74-.56,0-.44,.42-.8,.92-.8,.1,0,.52,.08,.62,.08h1.18c0-.46,0-.62-.04-.84,0-.1-.3-.46-.3-.54,0-.36,1.04-.94,1.64-.94,.66,0,.78,.32,.78,.72,0,.16-.1,.94-.1,1.12v.5h1.26c0-.44-.02-.68-.06-.92,0-.1-.2-.5-.2-.6,0-.38,1.04-.82,1.56-.82,.06,0,.82,0,.82,.64,0,.06-.02,.18-.04,.24-.08,.24-.08,1.14-.08,1.44h1.06c.2-.38,.74-.7,1.12-.7,.54,0,1.36,.56,1.36,1.2,0,.3-.28,.5-.74,.5h-2.78v1.7l2.74-.02c.24-.46,.94-.82,1.3-.82,.52,0,1.54,.7,1.54,1.32,0,.5-.54,.5-1.54,.5-.9,0-5.32-.06-6.32-.08,.14,.44,.7,1.38,1.06,1.84,.34-.28,1.86-1.52,2.72-1.52,.44,0,1.18,.36,1.18,.9,0,.34,0,1.02-3.28,1.22,1.96,1.72,4.9,2.46,6.3,2.8,.08,.02,.32,.08,.32,.14,0,.14-.72,.58-.92,.7-1.26,.76-1.4,.84-1.78,.84-.4,0-2.24-.66-3.5-1.68-.92-.74-2.48-2.36-3.34-5.22-.26,0-.72,0-.92,.02-.04,1.12-.04,1.44-.08,4.32,.28-.04,2.46-.32,2.5-.34,.22,.02,.28,.14,.28,.22,0,.24-1.44,1.08-3.14,1.54-.68,.18-2.74,.58-3.32,.58-.92,0-1.24-.6-1.24-1s.42-.78,.84-.8c.3-.02,1.82-.08,1.98-.1,.1-1.98,.1-2.42,.12-4.42h-.08Zm7.56-7.12v-1.92h-8.98c0,.76,0,1.28-.02,1.92h9Zm-3,6.18v-1.7h-1.26v1.72l1.26-.02Z"/><path class="cls-4" d="M110.04,373.23c.26-.5,.82-.98,1.28-.98,.62,0,1.66,.72,1.66,1.38,0,.54-.58,.6-1.02,.6h-11.58c-.04,4.44-.1,9.02-3.04,11.58-.62,.54-1.66,1.18-2.16,1.18-.12,0-.24-.02-.24-.18,0-.1,.64-.72,.76-.86,1.24-1.5,2.14-3.46,2.3-7.82,.02-.38,0-2.2,0-2.62,0-.2-.02-1-.14-1.18-.32-.46-.34-.5-.34-.6,0-.52,1.38-1.34,1.98-1.34,.5,0,.86,.32,.9,.84h3.72c-.02-.38-.02-.6-.08-1.5-.04-.04-.24-.2-.28-.24-.06-.06-.14-.16-.14-.28,0-.62,1.24-1.22,2.02-1.22,.28,0,.9,.08,.9,.78,0,.08-.04,.38-.06,.46-.04,.18-.14,1.72-.16,2h3.72Zm.62,4.36c.34-.54,.8-.96,1.2-.96,.56,0,1.56,.74,1.56,1.38,0,.52-.58,.56-.82,.56h-5.9c-.04,1.36-.04,1.46-.06,2.94h2.02c.22-.36,.8-.7,1.16-.7,.54,0,1.52,.58,1.52,1.2,0,.04-.1,.24-.12,.3-.06,.14-.06,.22-.06,.9,0,.54,.08,3.24,.08,3.84,0,.92-1.24,1.08-1.6,1.08-.3,0-1-.06-1-.62v-.62h-5.62v.42c0,.46-1,.8-1.54,.8-.74,0-.74-.6-.74-.86,0-.56,.1-3.34,.1-3.96v-.66s-.2-.18-.22-.22c-.06-.06-.14-.14-.14-.26,0-.54,1.12-1.22,1.72-1.22,.18,0,.64,.1,.8,.58h1.52v-2.28c0-.92-.02-1.86-.04-2.78-.04-.04-.24-.2-.28-.24-.08-.06-.16-.16-.16-.26,0-.54,1.06-1.24,1.88-1.24,.92,0,.96,.46,.96,.7,0,.32-.14,1.84-.16,2.18h3.94Zm-1.98,8.34c0-.48,.02-2.9,.02-3.44h-5.56c-.1,0-.14,.1-.14,.2v3.24h5.68Z"/><path class="cls-4" d="M121,375.93c.08-.14,.36-.54,.74-.54,.12,0,.22,.02,.32,.08,.04,.02,.24,.18,.3,.2,.92-1.32,1.22-2.78,1.26-3.1,.04-.4,.1-.76,1.02-.76,.28,0,.8,.2,.94,.46,.84-.2,2.58-.76,3.72-1.32,.12-.14,.52-.54,1.08-.54,.48,0,1.42,.48,1.42,1.1,0,.44-.18,.48-1.58,.78-.72,.16-2,.44-4.54,.62-.44,1.44-1.72,2.7-3.06,3.12,.08,.16,.12,.3,.12,.42,0,.4-.52,.44-.78,.44h-1.5v.98c.38,.44,1.1,1.02,1.52,1.22,.16,.08,.5,.24,.5,.46,0,.48-1.02,.96-1.26,.96-.32,0-.38-.08-.8-.72,.02,1,.08,5.64,.08,6.54s-.9,1.38-1.5,1.38c-.76,0-.82-.38-.82-.94,0-.5,.22-5.16,.26-6.14-1.44,2.56-3.06,3.26-3.34,3.26-.08,0-.18-.06-.18-.16,0-.02,.88-1.42,1.02-1.7,.46-.9,1.14-2.46,1.26-3.32,.08-.68,.16-1.16,1.06-1.16,.04,0,.16,.02,.22,.04v-.7h-1.04c-.24,0-.5,.06-.6,.1-.22,.1-.54,.26-.76,.26-.14,0-.5-.08-.5-.5,0-.48,.32-.9,.84-.9,.08,0,.5,.08,.6,.08h1.46l-.04-2.12c-.38,.04-.88,.06-1.28,.06-.3,0-1.82-.08-1.82-.44,0-.12,.06-.12,.62-.24,2.22-.44,4.02-1.4,4.48-1.68,.22-.34,.6-.52,1-.52,.54,0,1.26,.48,1.26,1.08s-1.54,1.2-2.14,1.42c-.04,1-.08,1.68-.08,2.44h.52Zm.64,11.16c-.56,0-1-.44-1-.88,0-.14,.08-.68,.74-.82,.98-.2,1.68-.46,2.14-.9,.28-.26,.36-.38,.44-.38,.14,0,.26,.12,.26,.42,0,.98-1.12,2.56-2.58,2.56Zm10.58-7.12c.38-.54,.82-.7,1.04-.7,.54,0,1.2,.66,1.2,1.02,0,.4-.6,.42-.76,.42h-2.08c0,.18,.02,1.16,.02,1.18,0,.62-1.12,.78-1.44,.78-.68,0-.8-.24-.86-.34h-4.16c-.18,0-1.02,.28-1.22,.28-.3,0-.56-.1-.56-.4,0-.38,.38-.8,.94-.8,.1,0,.5,.12,.6,.12h4.42v-.66h-5.44c-.18,0-1.02,.28-1.22,.28-.3,0-.56-.14-.56-.4,0-.38,.36-.8,.94-.8,.1,0,.5,.1,.6,.1h5.72v-.7h-4.16c-.18,0-1,.28-1.2,.28-.26,0-.58-.08-.58-.4,0-.4,.38-.8,.94-.8,.08,0,.5,.12,.6,.12h4.34c.26-.32,.76-.62,1.14-.62,.5,0,1.34,.4,1.34,.8,0,.06-.1,.32-.12,.38-.04,.18-.04,.6-.04,.86h.56Zm-1.18-3.06c.34-.48,.72-.62,1-.62,.5,0,1.28,.56,1.28,.96s-.6,.4-.86,.4h-8.46s-.84,.24-1,.24c-.28,0-.5-.12-.5-.36,0-.28,.26-.7,.8-.7,.08,0,.5,.08,.6,.08h2.72l-.04-.86h-.96c-.16,0-.96,.26-1.14,.26-.24,0-.52-.16-.52-.42,0-.16,0-.64,.8-.64,.1,0,.56,.08,.66,.08h3.94c.32-.52,.82-.52,.9-.52,.52,0,1.14,.48,1.14,.9,0,.36-.54,.36-.82,.36h-1.96l-.02,.84h2.44Zm2.8,9.8c-.54,1.02-.76,1.36-3.04,1.36-.98,0-2.88-.12-4.86-.74-1.2-.36-1.48-.66-1.48-1.68,0-.14,.08-1.26,.08-1.44,0-.1,0-.14-.06-.18-.24-.18-.3-.24-.3-.38,0-.4,.86-.96,1.58-.96s.74,.42,.74,.58c0,.32-.24,1.88-.24,2.24,0,.4,.08,.5,.26,.6,.16,.08,.84,.32,2.18,.32,1,0,2-.12,2.88-.42,.76-.26,1.62-.64,2.24-1.04,.14-.1,.22-.16,.38-.16s.3,.08,.3,.24c0,.38-.48,1.34-.66,1.66Zm-5.72-11.56c-.74,0-1.94-1-1.94-1.52,0-.34,.62-.76,1.18-.76,1,0,1.36,1.06,1.36,1.84,0,.3-.18,.44-.6,.44Zm-1.06,10.4c-.26,0-.32-.14-.32-.32,0-.28,.38-1.98,.42-2.1,.1-.3,.56-.48,.9-.48,.54,0,1.14,.4,1.1,.7-.06,.5-1.42,2.2-2.1,2.2Zm2.28,.16c-.24,0-.32-.1-.32-.3,0-.18,.22-1.4,.4-2,.12-.42,.56-.58,.98-.58,.52,0,1.14,.36,1.14,.7,0,.6-1.32,2.18-2.2,2.18Zm2.44-10.42c-.54,0-2.04-1.52-2.04-1.98,0-.28,.52-.7,1.16-.7,1.54,0,1.54,2.22,1.54,2.24s0,.44-.66,.44Z"/><path class="cls-4" d="M142.56,372.87c.28-.38,.58-.7,.96-.7,.5,0,1.46,.66,1.46,1.22,0,.22-.04,.26-.38,.54-.1,.1-2.08,3.44-2.42,4,.46-.02,.5-.04,.88-.04,.16-.28,.36-.7,.96-.7s1.2,.56,1.2,.98c0,.08-.16,.38-.18,.46-.4,2.2-.66,3.32-1.48,5.16,1.14,1.4,2.28,2.2,5.9,2.2,1.38,0,2.62-.08,3.68-.2l.98-.12c.38,0,.5,0,.5,.18s-.74,1.18-.98,1.48c-.72,.96-.9,1-1.68,1h-1.28c-1.6,0-3.2-.3-4.24-.62-2.44-.74-3.4-2.22-3.82-2.86-.74,1.08-1.54,1.58-1.68,1.66-.54,.34-1.28,.52-1.5,.52-.08,0-.18-.04-.18-.12s.48-.48,.58-.56c.68-.7,1.4-1.8,1.76-2.74-.44-.82-.8-2.12-1.06-3.14-.04-.16-.1-.38-.22-.42-.28-.12-.32-.16-.32-.28,0-.26,.86-.58,1.02-.58,.44,0,.48,.28,.56,.72,.18,.88,.52,1.92,.7,2.44,.48-1.62,.6-3.3,.62-3.6-.62,.06-2.24,.2-2.26,.2-.28,0-.72-.2-.72-.62,0-.26,.16-.48,.28-.64,.38-.52,1.58-2.96,2.02-4-.44,.08-.6,.1-.74,.14-.1,.02-.58,.26-.7,.26-.32,0-.44-.12-.44-.34,0-.14,.02-.24,.06-.34-.22,.3-.8,1.08-1.12,1.5-.04,6.38-.04,7.08-.02,8.88l.04,2.56c0,.62-.84,1.34-1.6,1.34-.44,0-.84-.2-.84-.66,0-.22,.1-1.24,.12-1.48,.02-.1,.2-4.18,.3-8.92-1,.6-1.9,.82-2.18,.82-.12,0-.26,0-.26-.12,0-.04,.3-.32,.36-.38,.66-.62,2.52-2.52,3.7-5.34,.04-.78,.9-.78,1-.78,1.12,0,1.34,.66,1.34,.96,0,.34-.42,.96-.58,1.22,.1-.06,.14-.06,.22-.06l1.68-.08Zm9.86,2.54c.26-.44,.6-.7,.92-.7,.5,0,1.14,.54,1.14,1.04s-.46,.5-.84,.5h-1.54c.04,1.18,.06,2.06,.06,2.08,0,.64-1.14,.98-1.66,.98-.64,0-.64-.42-.64-.62h-.84l.02,1.52h1.54c.16-.24,.4-.6,.88-.6,.54,0,1.18,.52,1.18,1.04,0,.44-.64,.44-.94,.44h-2.66v1.28h2.04c.14-.24,.42-.76,1.02-.76,.52,0,1.3,.52,1.3,1.08s-.8,.54-.98,.54h-3.38c0,.16,.04,.98,.04,1.16,0,.74-.78,1.3-1.42,1.3-.84,0-.86-.62-.86-.98,0-.2,.06-1.24,.06-1.48h-1.16c-.16,0-.88,.26-1.06,.26-.3,0-.54-.12-.54-.42,0-.08,.02-.76,.74-.76,.08,0,.44,.06,.52,.06h1.52l.04-1.3h-.68c-.14,0-.78,.24-.94,.24s-.54-.04-.54-.38c0-.12,.06-.78,.78-.78,.08,0,.44,.06,.52,.06h.88l.04-1.52h-.36c-.14,0-.74,.24-.88,.24-.32,0-.5-.14-.5-.42,0-.14,0-.72,.68-.72,.06,0,.32,.06,.38,.06h.68v-1.58h-1.64c-.18,0-1.02,.34-1.22,.34-.28,0-.48-.22-.48-.52s.2-.8,.84-.8c.08,0,.48,.08,.58,.08h1.94c0-.64-.02-.92-.02-1.6h-.52c-.14,0-.8,.3-.96,.3-.24,0-.46-.2-.46-.46,0-.3,.26-.78,.72-.78,.06,0,.38,.1,.46,.1h.74v-1.06c0-.06-.32-.26-.36-.28-.08-.08-.16-.18-.16-.3,0-.44,1.26-1.14,1.92-1.14,.38,0,.92,.18,.92,.66,0,.12-.02,.18-.04,.4-.04,.32-.1,1.4-.12,1.74h.82c.2-.32,.7-.72,1.22-.72,.56,0,1.16,.36,1.16,.96,0,.12-.24,.64-.24,.76v1.46h.34Zm-2.52,0c0-.34-.02-.7-.02-1.64h-.8c-.04,.46-.06,.8-.06,1.64h.88Zm0,2.44v-1.6h-.88v1.6h.88Z"/><path class="cls-4" d="M158.26,384.72c1,.76,1.3,1.2,2.04,2.24,.02,.04,.38,.32,.58,.48,.1,.08,.18,.18,.18,.3,0,.46-1.44,.86-1.76,.86-.36,0-.48-.26-.86-.96-.22-.42-.9-1.26-1.9-2.04-.62-.48-.68-.52-.68-.76,0-.4,.92-1.02,1.34-1.08,.2,.32,.54,.56,1.06,.96Z"/><path class="cls-4" d="M175.56,374.05c-.74,0-.96,0-1.48,.04-.24,.02-1.26,.4-1.5,.4-.36,0-.62-.32-.62-.66,0-.46,.44-1.02,1.02-1.02,.18,0,.94,.12,1.1,.12h5.62c-.02-.36-.06-.82-.1-1.2-.44-.36-.46-.4-.46-.52,0-.64,1.52-1.2,2.22-1.2,.56,0,.94,.28,.94,.84,0,.18-.2,1.76-.24,2.08,1.74-.02,3.24-.02,5.36-.02,.2-.44,.88-.98,1.22-.98,.6,0,1.66,.78,1.66,1.48,0,.56-.58,.64-.68,.64-.22,.04-3.16,0-3.76,0h-10.3Zm10.24,6.54c-.18,.42-.5,.52-1.16,.52-1.1,0-3.24-.08-3.56-.94-.02-.08-.02-1.44-.02-2.46h-1.06c.18,.08,.38,.18,.38,.4,0,.04-.5,1.14-.84,1.64-.72,1.08-1.84,1.92-3.52,2.18,.02,1.44,.04,3.38,.04,4.8,0,.6-.02,.78-.44,1.08-.36,.28-.82,.42-1.1,.42-.1,0-.9-.08-.9-.7,0-.08,.1-1.76,.12-2.04,.1-1.54,.2-3.1,.2-5.48,0-.4,0-1.72-.02-1.86-.02-.12-.32-.52-.32-.62,0-.56,.98-1.28,1.48-1.28,.26,0,.76,.18,.84,.5h2.32c-.56-.46-1.18-1.38-1.18-1.72,0-.5,.62-.86,1.14-.86,1.24,0,1.34,1.56,1.34,2.16,0,.2-.1,.36-.3,.42h2.58c.08-.34,.4-1.7,.52-2.04,.14-.36,.66-.5,.98-.5,.5,0,1.22,.4,1.22,.9,0,.46-.34,.78-1.18,1.64h2.24c.2-.46,.7-.7,1.02-.7,.56,0,1.66,.7,1.66,1.32,0,.06-.26,.6-.28,.66,0,1.1,.1,5.98,.1,6.98,0,1.36,0,2.08-.66,2.74-.6,.6-1.5,.64-1.7,.64-1.06,0-2.8-1.34-2.8-1.58,0-.08,.12-.08,.14-.08,.06,0,.88,.06,1.04,.06,1.38,0,1.68-.46,1.68-1.86v-4.34Zm-9.5-2.88c-.24,0-.24,.1-.26,.66-.02,1.6-.04,1.78-.02,2.82,.72-.52,1.36-1.1,1.94-2.32,.12-.24,.3-.64,.3-.9,0-.06-.02-.14-.04-.26h-1.92Zm3.28,7.6c0,.68-.7,.94-1.26,.94-.32,0-.82-.08-.82-.66,0-.44,.08-2.34,.08-2.72-.16-.16-.26-.32-.26-.44,0-.48,1.1-1.12,1.64-1.12,.04,0,.54,0,.66,.44h2.72c.18-.34,.56-.5,.8-.5,.46,0,1.5,.42,1.5,.88,0,.08-.16,.4-.16,.48,0,.38,.1,2.12,.1,2.4,0,.74-.84,.98-1.5,.98-.7,0-.72-.36-.72-.68h-2.78Zm2.78-2.66h-2.58c-.12,0-.18,.1-.18,.2v1.54h2.76v-1.74Zm3.36-4.94h-2.6c-.1,.16-.1,.26-.1,.38,0,.24-.02,1.4,0,1.46,.04,.22,.4,.24,.66,.24,.7,0,1.4-.08,2.04-.44v-1.64Z"/><path class="cls-4" d="M203.94,378.84c1.82,1.58,4.36,1.94,6,2.16,.54,.08,.94,.12,.94,.28,0,.22-2.08,1.64-2.64,1.64-.36,0-1.4-.28-2.66-1.16-.08,.02-.26,.06-.4,.06h-8.74c-.34,.14-.6,.14-.7,.14-.28,0-.36-.1-.42-.18-1.5,.7-2.58,.96-3.3,.96-.22,0-.98,0-.98-.2,0-.1,.06-.12,.66-.36,.68-.28,3.72-1.74,4.92-3.34h-2.88c-.18,0-1.02,.32-1.22,.32-.24,0-.54-.1-.54-.48,0-.44,.36-.96,.94-.96,.02,0,.86,.12,1.02,.12h.52c-.02-1.56-.02-1.86-.02-3.2,0-.26,0-2.14-.06-2.26-.02-.06-.26-.34-.26-.42,0-.38,1.1-.92,1.58-.92,.28,0,.56,.2,.58,.36,.2-.1,.42-.22,1.02-.64,.36-.26,.5-.36,.68-.36,.36,0,1,.52,1,1.02,0,.32-.24,.4-.56,.46-.4,.08-1.54,.14-1.94,.16l-.02,1.48h.32c.08-.14,.3-.58,.72-.58,.36,0,.98,.42,.98,.94,0,.42-.42,.42-.72,.42h-1.3v1.34h.32c.08-.14,.3-.58,.72-.58,.36,0,.98,.42,.98,.94,0,.42-.4,.42-.72,.42h-1.3v1.42h2.28c0-.18,.02-.84,.02-1,0-.08-.26-.42-.26-.5,0-.46,.94-.9,1.5-.9,.3,0,.68,.12,.68,.5,0,.28-.14,1.6-.16,1.9h.72c.02-.42,.1-2.44,.12-2.9h-.84c-.16,.28-.72,.36-1.04,.36-.44,0-.9-.12-.9-.4,0-.1,.74-2.9,.74-3.4,0-.08-.16-.5-.16-.6,0-.44,1.08-.8,1.62-.8,.22,0,.84,0,.84,.48,0,.18-.16,.58-.24,.84-.04,.1-.16,.68-.2,.8h.34c.08-.16,.32-.62,.74-.62,.38,0,1.04,.42,1.04,1.02,0,.44-.42,.46-.74,.46h-1.58c-.02,.14-.24,1.12-.24,1.14h.56c.14-.24,.52-.6,.9-.6,.44,0,1.28,.48,1.28,.96,0,.1-.06,.16-.16,.4-.1,.9-.1,1.3-.18,2.86h2.24v-1.48c-.32,0-.44,0-.68,.12-.18,.1-.36,.16-.52,.16-.14,0-.48-.04-.48-.46,0-.28,.16-.82,.78-.82,.06,0,.42,.08,.5,.08h.4v-1.06c-.36,0-.48,0-.68,.1-.18,.1-.36,.16-.52,.16-.3,0-.48-.16-.48-.46,0-.38,.26-.8,.74-.8,.08,0,.46,.06,.54,.06h.4v-1.16h-.52c-.18,0-.36,.04-.52,.12-.12,.06-.34,.16-.54,.16-.22,0-.5-.1-.5-.48,0-.4,.24-.86,.8-.86,.08,0,.48,.06,.56,.06h.78c.3-.34,.72-.62,1.02-.62,.46,0,1.24,.56,1.24,.96,0,.06-.14,.3-.16,.36-.08,.16-.18,5.38-.18,5.86h.16c.22-.28,.62-.82,1.16-.82,.5,0,1.42,.66,1.42,1.3,0,.5-.7,.52-1.06,.52h-5.1Zm.26,6.26c.22-.24,.7-.52,1.1-.52,.52,0,1.46,.5,1.46,.94,0,.08-.18,.42-.18,.52,0,.2,.08,1.2,.08,1.44,0,.56-1.08,.8-1.64,.8-.76,0-.78-.12-.84-.74h-6.28c-.08,.76-1.26,.76-1.46,.76-.8,0-.88-.4-.88-.5,0-.26,.08-1.56,.08-1.86-.14-.12-.24-.28-.24-.44,0-.34,1.18-.8,1.62-.8,.24,0,.82,.1,.9,.4h6.28Zm-1-2.76c.28-.26,.66-.38,.96-.38,.54,0,1.3,.42,1.3,.8,0,.34-.7,.4-.94,.4l-6.7,.02c-.12,0-.74,.1-.88,.1-.38,0-.6-.18-.6-.38,0-.22,.26-.62,.86-.62,.08,0,.58,.06,.68,.06h5.32Zm.04,1.3c.22-.2,.58-.4,.94-.4,.54,0,1.3,.44,1.3,.82,0,.36-.78,.38-.94,.38l-6.7,.02c-.22,.06-.52,.12-.88,.12-.38,0-.6-.2-.6-.38,0-.24,.28-.62,.86-.62,.1,0,.58,.06,.68,.06h5.34Zm.9-2.76l.14-.16c-.88-.76-1.18-1.02-1.82-1.88h-2.66c-1.12,1.08-1.24,1.14-2.78,2.04h2.82c0-.12-.02-.42-.04-.54,0-.06-.28-.26-.28-.34,0-.46,.94-.88,1.68-.88,.6,0,.72,.26,.72,.56,0,.18-.1,1.02-.12,1.2h2.34Zm.04,5.76v-.76h-6.06c-.14,0-.24,.08-.24,.24v.52h6.3Z"/><path class="cls-4" d="M219.38,379.8c.5,1.14,1.2,2.72,3.6,4.2,.34,.2,1.92,1.16,4,1.7,.38,.1,2.32,.48,2.76,.56,.2,.08,.22,.1,.22,.16,0,.14-.34,.36-.78,.66-1.72,1.16-1.96,1.18-2.32,1.18-.44,0-1.86-.24-3.72-1.5-3.52-2.42-4.42-5.54-4.84-6.96h-1.32v6.02c1.14-.1,1.94-.24,3.16-.46,.12-.04,.44-.08,.56-.08,.16,0,.38,.04,.38,.22,0,.88-5.46,2.56-7.44,2.56-.4,0-1.52-.14-1.52-1.02,0-1.14,1.16-1.14,2.66-1.14,0-1.42-.02-8.44-.02-10.04,0-.84,0-.94-.18-1.14-.32-.34-.34-.36-.34-.54,0-.56,1.12-1.5,1.76-1.5,.42,0,.9,.3,1.08,.76h1.66c-.04-.9-.04-1-.08-1.34-.04-.04-.32-.22-.36-.28-.16-.12-.2-.22-.2-.3,0-.66,1.4-1.5,2.08-1.5,.26,0,1.02,.14,1.02,.96,0,.36-.28,2.08-.3,2.46h1.9c.44-.52,.98-.7,1.32-.7,.46,0,1.28,.34,1.28,.96,0,.08-.02,.22-.06,.32-.12,.44-.14,.5-.14,.78,0,.26,.08,4.02,.08,4.16,0,1.18-1.44,1.32-1.6,1.32-.32,0-.94-.04-.98-.48h-3.32Zm3.42-.92v-1.82h-5.8l-.02,1.82h5.82Zm.02-2.78v-1.4c0-.12-.02-.26-.18-.26h-5.38c-.18,0-.26,.18-.26,.34v1.32h5.82Zm2.92,3.76c.52,0,1.1,.5,1.1,1.04,0,1.4-3.86,1.84-5.16,1.84-.28,0-.46-.12-.46-.28,0-.2,.54-.54,.86-.74,.84-.52,2.38-1.48,3.02-1.74,.22-.08,.44-.12,.64-.12Z"/><path class="cls-4" d="M232.3,376.6c-.22,0-1.12,.32-1.32,.32-.36,0-.48-.32-.48-.64,0-.5,.34-.98,.88-.98,.14,0,.72,.12,.84,.12h1.16c.1-.64,.34-2.66,.34-2.88,0-.1-.3-.52-.3-.62,0-.52,1.48-1.16,2.1-1.16,.1,0,.94,0,.94,.72,0,.12-.22,1.08-.24,1.2l-.6,2.72h.78c.14-.18,.38-.52,.9-.52,.68,0,1.22,.4,1.22,1.12,0,.82-.5,4-1.66,6.48,.8,.46,2,1.14,2,2.34,0,.76-.7,1.08-1.06,1.08-.4,0-.8-.38-1.04-.7-.32-.44-.7-.94-1-1.3-1.84,2.24-4.34,2.92-5.08,2.92-.14,0-.48,0-.48-.16,0-.08,.06-.12,.72-.5,1.68-.98,2.82-2.04,3.58-3.62-.22-.32-.42-.48-.6-.6-.2,.48-.84,.84-1.42,.84-.12,0-.9-.02-.9-.5,0-.32,.68-2.16,.8-2.56,0-.02,.5-1.66,.8-3.12h-.88Zm2.98-.02l-1.16,4.76c.54,.2,.7,.26,.9,.32,.62-1.74,1-3.2,1.18-5.08h-.92Zm5.36,4.04c-.3,0-.62,0-.8,.02-.22,.02-1.2,.36-1.4,.36-.42,0-.58-.3-.58-.68,0-.66,.46-1.04,.96-1.04,.12,0,.6,.12,.7,.12,.48,.02,2.58-.02,3-.02-.08-.46-.66-2.66-1.3-3.02-.24-.14-.42-.24-.42-.38,0-.44,.72-.78,1.1-.78,.28,0,.52,.2,.74,.4,.22-.38,1.2-2,1.38-2.34l-3.98,.12c-.14,0-.64,.3-.76,.34-.12,.06-.26,.08-.38,.08-.14,0-.74-.02-.74-.58,0-.52,.5-1.18,1.06-1.18,.12,0,.62,.08,.72,.08h4.62c.34-.44,.86-.68,1.18-.68,.68,0,1.64,.68,1.64,1.44,0,.36-.06,.42-3.82,3.72,.82,1.42,1.02,2.02,1.18,2.78h2.2c.46-.84,1.02-1.12,1.32-1.12,.68,0,1.56,.84,1.56,1.56,0,.56-.52,.8-1.02,.8h-3.78c.16,1.06,.18,2.12,.18,2.86s0,4.92-3.12,4.92c-.9,0-1.86-.66-2.66-1.38-.36-.32-.4-.36-.4-.44,0-.1,.1-.12,.14-.12,.2,.1,1.12,.14,1.38,.14,2.02,0,2.26-1.62,2.26-3.98,0-1.16-.06-1.52-.12-2h-2.04Z"/></g><rect class="cls-6" x="61.09" y="61.23" width="162.72" height="162.72" rx="18.32" ry="18.32"/><path class="cls-1" d="M187.02,144.12c4.08,7.15,4.62,11.25,.24,14.21-4.27,2.88-7.19,6.56-10.6,10.12-3.23,3.38-6.8,6.37-9.98,10.07-3.11,3.61-7.68,5.77-10.29,10.54-1.86,3.38-6.51,4.24-10.41,1.99-2.37-1.36-4.12-1.47-6.71-.24-5.64,2.68-11.21-.12-13.49-5.95-.49-1.25-1.95-2.13-2.97-3.17-.1-.1-.28-.14-.42-.18-4.81-1.42-5.11-7.12-8.02-9.23-3.44-2.49-7.57-3.59-9.08-8.28-.36-1.13-1.69-2.35-2.84-2.76-6.76-2.4-9-7.91-6.03-14.39,.65-1.41,.5-3.85-.31-5.18-8.06-13.08-6.54-29.68,3.87-39.84,10.67-10.41,26.88-11.78,39.86-3.58,1.18,.75,3.56,.95,4.68,.26,14.13-8.69,30.16-7.24,40.83,3.92,10.6,11.1,11.46,26.78,2.23,40.52-.17,.25-.26,.56-.54,1.16Zm-48.28-39.89c-9.53-8.75-24.44-8.46-34.18,.07-10.41,9.11-11.52,23.89-1.84,37.35,.97-1.53,1.6-3.06,2.68-4.14,6.76-6.73,14.28-4.89,17.51,4.14,.29,.82,1.13,1.82,1.9,2.02,5.15,1.29,7.88,4.61,8.49,9.48,2.07,.89,4.59,1.16,5.57,2.53,3.63,5.1,8,9.26,13.03,12.95,1.7,1.25,2.21,3.99,3.63,5.76,2.07,2.59,4.77,3.75,7.57,1.06,2.77-2.66,1.77-5.2-.69-7.61-4.76-4.67-9.54-9.33-14.07-14.23-.93-1-.77-3.01-1.12-4.55,1.46,.37,3.34,.29,4.3,1.19,4.87,4.55,9.54,9.32,14.21,14.09,2.38,2.43,4.81,3.54,7.59,.77,2.83-2.82,1.53-5.23-.85-7.57-4.65-4.57-9.34-9.1-13.76-13.87-.99-1.07-.98-3.07-1.43-4.64,1.56,.38,3.56,.27,4.59,1.22,4.9,4.52,9.58,9.28,14.23,14.06,2.46,2.53,5.06,3.16,7.75,.77,2.81-2.49,1.51-5.1-.57-7.29-2.89-3.03-6.08-5.77-8.87-8.88-.79-.88-.64-2.6-.93-3.94,1.37,.15,3.04-.13,4.04,.56,1.96,1.35,3.55,3.24,5.31,4.91,.75-.7,1.14-.97,1.4-1.33,7.46-10.16,6.04-25.21-3.18-34-9.63-9.18-24.49-10.23-34.38-1.84-6.37,5.4-12.04,11.62-18.01,17.49-2.34,2.3-2.92,4.84-.43,7.32,2.55,2.54,4.92,1.69,7.22-.66,4.55-4.66,9.31-9.11,13.8-13.84,2.38-2.51,4.33-2.45,6.63-.05,3.54,3.7,7.3,7.19,10.69,11.02,.84,.95,.64,2.84,.92,4.29-1.43-.32-3.33-.17-4.2-1.04-3.47-3.49-6.62-7.29-9.89-10.98-1.28,1.18-1.59,1.29-1.8,1.5-4.19,4.15-8.34,8.33-12.56,12.45-4.75,4.64-10.14,4.85-14.3,.62-4.19-4.26-3.97-9.57,.77-14.32,4.27-4.28,8.66-8.42,13.23-12.84Zm-9.94,49.08c-1.13-1.39-1.98-3.34-3.39-3.91-1.4-.57-3.86-.36-4.99,.56-3.21,2.61-6.03,5.71-8.89,8.73-2,2.11-2.02,4.49,.02,6.58,2.27,2.34,4.68,1.97,6.89-.18,2.76-2.68,5.51-5.38,8.16-8.17,.81-.85,1.26-2.04,2.2-3.61Zm10.17,9.93c-1.11-1.24-2.04-3.12-3.47-3.66-1.4-.53-3.78-.29-4.91,.63-3.21,2.61-6.39,5.46-8.78,8.79-1.04,1.46-.93,4.85,.1,6.43,1.5,2.31,4.33,2.04,6.45,.03,3.01-2.86,5.97-5.79,8.85-8.79,.7-.73,.98-1.86,1.76-3.43Zm10.29,10.09c-1.28-1.37-2.27-3.17-3.76-3.79-1.25-.52-3.52-.21-4.55,.66-3.18,2.66-6.36,5.49-8.75,8.82-1.09,1.51-1.23,4.93-.23,6.46,1.65,2.52,4.64,2.06,6.84,0,2.93-2.73,5.72-5.6,8.46-8.53,.79-.85,1.17-2.08,2-3.62Zm-36.11-34.88c-.26,.04-.88-.06-1.15,.2-3.93,3.87-8,7.63-11.52,11.84-.65,.78,.49,4.02,1.71,5.07,1.01,.87,3.98,.93,5,.07,3.65-3.08,7.12-6.48,10.12-10.2,2.13-2.63-.5-6.86-4.15-6.99Zm41.12,40.92c-.66-.15-1.31-.31-1.97-.46-1.99,2.11-3.98,4.23-5.98,6.34,.2,.54,.41,1.07,.61,1.61,2.1-.4,4.87-.15,6.11-1.4,1.22-1.23,.88-3.99,1.22-6.08Z"/><rect class="cls-3" x="3.5" y="3.5" width="277.9" height="440.91" rx="8" ry="8"/></g></g></g></g></svg>