<?xml version="1.0" encoding="UTF-8"?><svg id="_圖層_2" xmlns="http://www.w3.org/2000/svg" viewBox="0 0 100 100"><defs><style>.cls-1{fill:none;}.cls-2{fill:#0f2c51;}</style></defs><g id="_圖層_1-2"><g><rect class="cls-1" width="100" height="100"/><g><path class="cls-2" d="M45.61,77.94c-1.98,.24-4.05,.4-6.16,.47l7.11-8.74-6.47-14.91,5.35-7.4c.5-.21,.99-.45,1.47-.69l1.54,1.31c1.08,.92,2.07,1.76,2.97,2.6l5.68-3.48c-1.33-1.36-2.82-2.67-4.48-4.09l-.23-.2c4.36-4.15,7.1-10.02,7.1-16.53,0-12.58-10.14-22.78-22.64-22.78S14.22,13.69,14.22,26.27c0,6.55,2.76,12.44,7.16,16.59l-.16,.14c-7.77,6.63-11.9,10.94-13.33,29.47,0,2.18,.93,5.31,5.34,7.87,5.21,3.03,14.45,4.54,23.7,4.54,2.94,0,5.88-.16,8.69-.47v-6.47Zm-29.15-3.23c-.63-.37-2.1-1.32-2.11-1.98,1.28-16.42,4.55-19.21,11.05-24.75l1.49-1.27c.46,.23,.91,.45,1.39,.65l5.35,7.4-6.47,14.91,7.11,8.74c-7.15-.25-13.97-1.47-17.8-3.7Zm20.4-32.16c-8.92,0-16.17-7.3-16.17-16.27s7.25-16.27,16.17-16.27,16.17,7.3,16.17,16.27-7.25,16.27-16.17,16.27Z"/><path class="cls-2" d="M36.92,14.88c-.89,0-1.62,.73-1.62,1.63s.72,1.63,1.62,1.63c4.42,0,8.02,3.62,8.02,8.07,0,.9,.72,1.63,1.62,1.63s1.62-.73,1.62-1.63c0-6.24-5.05-11.32-11.25-11.32Z"/><path class="cls-2" d="M71.77,47.09c-11.24,0-20.35,9.11-20.35,20.35,0,4.6,1.54,8.83,4.12,12.24-.12,.09-.25,.13-.36,.24l-11.63,11.63c-1.14,1.14-1.14,2.97,0,4.11,.57,.57,1.31,.85,2.05,.85s1.49-.28,2.05-.85l11.63-11.63c.11-.11,.15-.24,.24-.36,3.41,2.57,7.64,4.12,12.24,4.12,11.24,0,20.35-9.11,20.35-20.35s-9.11-20.35-20.35-20.35Zm0,34.88c-8.01,0-14.53-6.52-14.53-14.53s6.52-14.53,14.53-14.53,14.53,6.52,14.53,14.53-6.52,14.53-14.53,14.53Z"/></g></g></g></svg>