<?xml version="1.0" encoding="UTF-8"?><svg id="_圖層_2" xmlns="http://www.w3.org/2000/svg" viewBox="0 0 120 120"><defs><style>.cls-1{fill:none;opacity:.5;}.cls-2,.cls-3{fill:#fff;}.cls-4,.cls-5{fill:#0f2c51;}.cls-6{fill:#0e2c50;}.cls-3,.cls-5{stroke:#fff;stroke-miterlimit:10;}</style></defs><g id="_圖層_1-2"><g><rect class="cls-1" width="120" height="120"/><g><g><path class="cls-6" d="M28.36,99.74c-.71,0-1.65-.56-1.65-1.24,0-.5,.5-1.21,1.21-1.24,2.5-.09,3.62-.83,4.01-1.09,.15-.09,.47-.32,.65-.32,.24,0,.29,.15,.29,.38,0,1.27-2.59,3.51-4.51,3.51Zm10.93-6.48c.38-.56,1-.91,1.41-.91,.74,0,1.86,.88,1.86,1.65,0,.56-.59,.62-1.24,.62s-3.98-.03-4.71-.03v3.65c0,1.15-.18,2.8-2.56,2.8-1.83,0-3.12-1.59-3.12-1.8,0-.12,.12-.12,.56-.12,.09,0,.97,.18,1.15,.18s.5,0,.71-.5c.15-.38,.18-2.8,.18-4.21h-1.59c-.47,0-1.59,.03-1.86,.06-.24,.06-1.38,.44-1.65,.44-.44,0-.71-.21-.71-.65,0-.62,.65-1.3,1.33-1.3,.15,0,.8,.12,.94,.12h3.51c0-1.12-.03-3.36-.09-3.74-.03-.15-.59-.68-.59-.85,0-.68,1.68-1.68,2.68-1.68s1.27,.53,1.27,1.12c0,.09,0,.21-.06,.59-.09,.59-.12,1.03-.12,1.65h1.47c.26-.56,.85-1,1.41-1,.71,0,1.62,.74,1.62,1.56,0,.62-.59,.62-.94,.62-.5,0-3.04,.03-3.59,.03v1.71h2.74Zm5.54,8.19c.35-.68,1-1.06,1.44-1.06,.71,0,2.45,.85,2.45,1.74,0,.15-.38,.79-.38,.97,0,1.24,.18,7.34,.18,8.69,0,.79,0,.91-.32,1.21-.44,.41-1.36,.68-2.06,.68-1.24,0-1.24-.44-1.24-1.33h-8.28c-.09,1-1.62,1.3-2.21,1.3-1.09,0-1.09-.68-1.09-1.24,0-.68,.15-4.12,.18-4.89,0-.71,.03-3.12,.03-3.83,0-.18,0-.62-.06-.71-.24-.32-.35-.44-.35-.62,0-.74,2.12-1.5,2.71-1.5,.24,0,.83,.09,.91,.59h8.1Zm.09,3.06l-.03-1.74h-7.93c-.12,0-.32,.09-.32,.26v1.47h8.28Zm0,3.24v-1.94h-8.28v1.94h8.28Zm-.03,3.3v-2h-8.25v2h8.25Zm-3.92-12.38c-.56,0-4.12-1.33-4.12-2.33,0-.56,.83-1.06,1.62-1.06s.97,.26,1.15,.5c.68,.86,1.06,1.33,1.56,1.71,.77,.59,.88,.65,.88,.83,0,.35-.68,.35-1.09,.35Zm7.19-9.1c.26-.56,.85-.97,1.33-.97,.77,0,2.24,.91,2.24,1.8,0,.24-.09,.32-.41,.68-1.12,2.98-1.97,4.27-2.39,4.92,1.83,1.83,6.36,3.12,6.51,3.18,.21,.06,.27,.06,.27,.18,0,.32-2.98,2.06-3.48,2.06-1,0-3.56-1.44-5.33-3.74-3,2.53-6.69,2.56-6.89,2.56s-.68,0-.68-.24c0-.18,.94-.47,1.24-.56,1.71-.56,3.57-1.92,4.66-3.45-.83-1.59-1.44-3.51-1.65-5.04-.09,0-.44,.21-.53,.27-.24,.09-.47,.15-.71,.15-.44,0-.77-.26-.77-.68,0-.59,.47-1.3,1.27-1.3,.15,0,.94,.18,1.12,.18h4.21Zm-2.74,1.36c.18,.91,.38,1.53,1.33,3.48,.5-1.24,.88-2.21,1.06-3.48h-2.39Z"/><path class="cls-6" d="M59.34,95.94c-.27,0-1.41,.44-1.65,.44-.44,0-.79-.15-.79-.65,0-.62,.56-1.41,1.27-1.41,.18,0,.94,.21,1.09,.21h2.09c0-.56-.09-3.06-.09-3.45,0-.5,0-.62-.24-.83-.41-.41-.47-.44-.47-.59,0-.85,2.27-1.88,2.89-1.88,.68,0,1.38,0,1.38,1.06,0,.18-.12,.91-.15,1.06-.06,.68-.21,2.33-.26,4.63h.21c.15-.24,.47-.77,.91-.77,.8,0,1.53,.83,1.53,1.5,0,.62-.56,.65-1.12,.65h-1.62c0,.83,0,1.24,.03,2.12,.35,.53,1.12,1.59,3.36,2.86,.41,.32,.47,.38,.47,.5,0,.74-1.65,1.53-2.03,1.53s-.77-.41-.91-.56c-.53-.71-.74-1.03-.94-1.38,0,.86,0,3.92,.09,5.86,.06,1.5,.09,2.83,.09,3.36,0,1.44,0,2.42-1.24,2.95-.32,.12-.88,.29-1.24,.29-.77,0-1.24-.38-1.24-1.12s.47-9.31,.53-11.05c-2.03,3.51-4.48,5.01-5.13,5.01-.24,0-.32-.06-.32-.21,0-.06,.35-.59,.5-.82,.5-.77,1.68-2.68,2.59-5.69,.62-2.06,.71-2.33,1.62-2.33,.29,0,.5,.09,.83,.24-.03-.74-.03-1-.03-1.56l-2,.03Zm6.16,16.65c-.06,0-1.06,0-1.06-.29,0-.21,.29-.29,.44-.29,.32-.12,1.77-.56,2.03-.68,6.19-2.53,9.52-7.63,11.64-11.25,.09-.41,.27-1.33,1.38-1.33s2.36,.79,2.36,1.59c0,.5-.44,1.06-.68,1.38-.68,1.38-1.83,2.77-3.62,4.66,3.36,1.95,4.45,3.86,4.45,4.89s-1.18,1.8-1.89,1.8-1.38-.47-1.62-1.03c-.06-.18-1.18-2.8-2.18-4.36-3.62,3.86-7.84,4.92-11.26,4.92Zm7.57-19.51c-.03-1.24-.09-1.77-.15-2.53-.06-.5-.06-.53-.38-.85-.21-.18-.44-.44-.44-.68,0-1,2.06-2.06,3.39-2.06,.94,0,1.44,.44,1.44,1.35l-.09,.83c-.12,1.21-.32,2.77-.41,3.95h3.95c.77-1.24,1.59-1.3,1.8-1.3,.91,0,2.24,1.18,2.24,2.03,0,.26,0,.68-.74,.83h-8.07c-.85,1.06-1.15,1.36-3.98,4.15,.79,.65,1.41,1.24,1.8,1.62,.47-.62,1.71-2.21,2-3.21-.03-.06,0-.41,0-.47,.26-.5,1.03-.71,1.53-.71,1.5,0,1.94,.94,1.94,1.33,0,.65-1.83,3.06-3,4.39-2.68,2.98-6.33,5.27-9.78,5.27-.12,0-.44,0-.44-.21,0-.18,.06-.21,.5-.41,.88-.44,3.3-1.65,6.1-4.68-1.47-.62-2.89-1.15-3.24-1.24-.27-.09-.91-.27-.91-1,0-.47,.38-1.03,.91-1.3,.15-.21,1.71-2.06,2.33-3.54-2.03,.09-2.24,.09-2.56,.24-.53,.24-.85,.38-1.15,.38-.56,0-.71-.56-.71-.88,0-.59,.44-1.38,1.33-1.38,.09,0,.56,.09,.65,.09h4.15Z"/></g><g><path class="cls-4" d="M67.38,8.82c-.56-.3-1.16-.49-1.8-.56-.16-.02-.32-.02-.49-.02h-30.9c-2.65,0-4.8,2.16-4.8,4.8v2.4h-1.82c-.49,0-.88,.4-.88,.88v4.41c0,.49,.39,.88,.88,.88h1.82v3.31h-1.82c-.49,0-.88,.39-.88,.88v4.41c0,.48,.39,.88,.88,.88h1.82v3.31h-1.82c-.49,0-.88,.39-.88,.88v4.41c0,.49,.39,.88,.88,.88h1.82v3.31h-1.82c-.49,0-.88,.39-.88,.88v4.41c0,.49,.39,.88,.88,.88h1.82v2.88c0,2.65,2.15,4.8,4.8,4.8h30.9c.16,0,.33,0,.49-.02,.63-.06,1.24-.25,1.8-.55,.4-.22,.78-.5,1.11-.83,.91-.91,1.41-2.11,1.41-3.4V13.04c0-1.28-.5-2.49-1.41-3.4-.33-.33-.7-.61-1.11-.83Zm-24.42,9.58c-.2-.2-.43-.33-.75-.32-.28,0-.55,.11-.75,.31l-3.52,3.54-.02-11.94h8.53l.02,11.96-3.51-3.56Z"/><g><path class="cls-5" d="M44.75,21.54c-1.39,0-2.52,1.13-2.52,2.52V61.3c0,1.39,1.13,2.52,2.52,2.52h22.49v-4.95c0-2.18,1.77-3.96,3.96-3.96h5.49V24.06c0-1.39-1.13-2.52-2.52-2.52h-29.41Z"/><path class="cls-5" d="M68.68,58.87v4l6.92-6.52h-4.4c-1.39,0-2.52,1.13-2.52,2.52Z"/><rect class="cls-3" x="48.8" y="42.87" width="21.32" height="1.73"/><rect class="cls-3" x="48.8" y="36.81" width="21.32" height="1.73"/><rect class="cls-3" x="48.8" y="30.74" width="21.32" height="1.73"/></g><g><g><polygon class="cls-4" points="65.07 30.55 69.87 34.48 62.47 38.66 65.07 30.55"/><path class="cls-2" d="M65.32,31.4l3.67,3-5.65,3.19,1.98-6.19m-.5-1.7l-.45,1.4-1.98,6.19-.78,2.43,2.22-1.25,5.65-3.19,1.27-.72-1.13-.93-3.67-3-1.14-.93h0Z"/></g><g><path class="cls-4" d="M64.95,30.85l.23-.37c.04-.06,3.9-6.3,6.48-9.56l.31-.39,6.15,4.95-.33,.39c-.26,.31-6.34,7.51-7.99,8.63l-.32,.21-4.53-3.86Z"/><path class="cls-2" d="M72.05,21.23l5.36,4.31s-6.28,7.44-7.89,8.54l-3.92-3.33s3.86-6.24,6.45-9.52m-.16-1.41l-.63,.79c-2.6,3.28-6.36,9.35-6.51,9.61l-.45,.73,.65,.56,3.92,3.33,.58,.5,.63-.43c1.67-1.14,7.44-7.95,8.09-8.72l.66-.78-.8-.64-5.36-4.31-.79-.63h0Z"/></g><g><polygon class="cls-4" points="71.72 20.82 83.36 5.83 94.38 5.83 77.88 25.62 71.72 20.82"/><path class="cls-2" d="M93.31,6.33l-15.51,18.6-5.38-4.19,11.19-14.41h9.7m2.14-1h-12.33l-.3,.39-11.19,14.41-.61,.79,.79,.61,5.38,4.19,.76,.59,.62-.74,15.51-18.6,1.37-1.64h0Z"/></g></g></g></g></g></g></svg>