<?xml version="1.0" encoding="UTF-8"?><svg id="_圖層_2" xmlns="http://www.w3.org/2000/svg" viewBox="0 0 120 120"><defs><style>.cls-1{fill:none;opacity:.5;}.cls-2{fill:#fff;}.cls-3{fill:#0f2c51;}.cls-4{fill:#0e2c50;}</style></defs><g id="_圖層_1-2"><g><rect class="cls-1" width="120" height="120"/><g><g><polygon class="cls-2" points="81.27 32.24 88.56 30.84 88.59 29.84 81.23 31.26 81.27 32.24"/><polygon class="cls-2" points="81.33 33.91 88.5 32.52 88.53 31.53 81.3 32.92 81.33 33.91"/><path class="cls-2" d="M81.36,34.63s.02,.03,.04,.03h6.99s.04-.02,.04-.03l.05-1.42-7.12,1.37v.04Z"/><polygon class="cls-2" points="86.16 29.26 86.16 29.03 83.44 29.03 82.68 29.03 81.15 29.03 81.21 30.58 88.61 29.15 88.62 29.03 86.92 29.03 86.91 29.26 86.16 29.26"/><path class="cls-3" d="M84.8,6.87c-5.82,0-10.56,4.74-10.56,10.56,0,3.81,2.03,7.16,5.08,9.02l.31,7.8c.04,.9,.73,1.64,1.59,1.78,.33,.98,1.8,1.72,3.57,1.72s3.22-.73,3.57-1.7c.96-.05,1.75-.84,1.79-1.81l.27-7.88c2.96-1.87,4.93-5.17,4.93-8.93,0-5.82-4.74-10.56-10.56-10.56Zm3.63,27.76s-.02,.03-.04,.03h-6.99s-.04-.02-.04-.03v-.04s7.12-1.37,7.12-1.37l-.05,1.42Zm.07-2.11l-7.17,1.38-.04-.98,7.24-1.39-.03,1Zm.06-1.68l-7.29,1.4-.04-.98,7.36-1.42-.03,1Zm1.72-12.31l-3.18,5.7-.18,4.8h1.7v.12s-7.41,1.43-7.41,1.43l-.06-1.55h1.54l-.18-4.8-3.18-5.7c-.08-.15-.05-.33,.06-.44,.02-.03,.05-.04,.07-.06,0,0,0,0,0,0,0,0,0,0,0,0,.06-.04,.12-.06,.19-.06h10.18s.07,.01,.11,.02c.06,0,.13,0,.18,.04,.18,.1,.25,.33,.14,.51Z"/><path class="cls-3" d="M86.35,24.11c0-.06,.02-.12,.05-.17l2.07-3.71h0l.24-.42,.62-1.11h-9.04l.62,1.11h0s.23,.41,.23,.41h0l2.08,3.72c.03,.05,.04,.11,.05,.17l.19,4.92h2.73l.19-4.92Z"/></g><g><path class="cls-3" d="M67.68,44.02c-.13,.12-.27,.24-.41,.36-.14,.12-.28,.24-.42,.35-.3,.24-.6,.46-.91,.68l-6.44,13.22-1.28-7.61,1.9-3.06c-.23,.05-.46,.1-.7,.14-.6,.11-1.21,.18-1.83,.22-.34,.02-.68,.04-1.03,.04-1.32,0-2.6-.16-3.84-.46l1.93,3.13-1.21,7.75-7.13-14.01c-.33-.26-.65-.54-.96-.82l-.13,.11c-9.55,8.26-9.42,22.7-9.41,23.31v.51h40.86l-.02-.54c-.68-16.69-7.35-22.21-8.99-23.32Z"/><path class="cls-3" d="M56.56,16.56c-8.46,0-15.33,6.88-15.33,15.34s6.88,15.33,15.33,15.33,15.34-6.88,15.34-15.33-6.88-15.34-15.34-15.34Z"/></g><g><path class="cls-4" d="M34.01,90.15c.18-.32,.77-1.3,1.47-1.3,.82,0,1.94,1.15,1.94,1.97,0,.71-.77,.79-1.56,.79h-2.15c-.35,1.47-1.92,4.66-2.56,5.86,.06,.06,.27,.29,.32,.32h2.15c.29-.56,1.06-.94,1.5-.94,.56,0,1.8,.5,1.8,1.27,0,.06-.09,1-.09,1.15,0,.97,.06,5.75,.06,6.83,0,.83,0,1.06-.71,1.47-.41,.24-1,.47-1.53,.47-1.09,0-1.09-.65-1.09-1.56h-2.15v1.03c0,.85-.97,1.74-2.06,1.74-.65,0-1.21-.35-1.21-.74s.18-2.53,.21-3c.06-1.36,.15-3.65,.18-5.01-1.18,1.36-3.18,2.39-3.57,2.39-.12,0-.32-.09-.32-.26,0-.03,1.56-2,1.83-2.39,2.21-3.39,3.59-8.19,3.59-8.63h-1.53c-.27,0-1.47,.35-1.74,.35-.38,0-.88-.15-.88-.62,0-.62,.5-1.36,1.33-1.36,.15,0,.85,.15,1,.15h5.78Zm-.38,15.12v-6.22h-1.86c-.15,0-.27,.18-.29,.29-.03,.35-.06,5.16-.06,5.92h2.21Zm16.5-6.66c.38-.77,1.09-1.44,1.68-1.44,.8,0,2.12,1.06,2.12,1.92s-.94,.91-1.59,.91h-3.59c0,1.44,0,3.48,.24,9.1,0,.29,.15,1.77,.15,2.09,0,1.09-1.83,1.95-2.62,1.95-.15,0-1.38,0-1.38-1.41,0-.68,.15-3.86,.18-4.6,.06-2.74,.09-6.69,.09-7.13h-1.83c-.27,6.75-1.97,8.66-3.86,10.19-2.12,1.74-4.71,2.18-5.22,2.18-.27,0-.44-.12-.44-.24,0-.15,.09-.18,.91-.65,4.95-2.77,5.27-8.49,5.45-11.49l-1.15,.09c-.09,0-1.24,.35-1.5,.35-.35,0-.82-.18-.82-.68,0-.27,0-1.27,1.27-1.27,.15,0,.85,.12,1,.12h1.21v-2.3c0-2.59-.03-3.62-.18-5.24-.27,0-1.5,.41-1.8,.41-.35,0-.71-.27-.71-.65,0-.5,.32-1.41,1.24-1.41,.24,0,1.27,.12,1.5,.12,2.21,.06,5.69,.03,8.37,0,.47-.74,1.15-1.3,1.62-1.3,.8,0,2,1.09,2,1.94,0,.5-.53,.85-1.24,.85h-2.3c0,.06-.12,1.47-.12,1.59-.09,1.77-.06,4.45-.06,5.98h1.38Zm-4.71,0v-.77c0-1.97-.03-4.21-.06-6.84h-1.74c-.03,3.42-.03,4.68-.03,7.6h1.83Z"/><path class="cls-4" d="M63.4,96.3c.15-.29,.62-.85,1.38-.85,.85,0,1.77,.71,1.77,1.3,0,.09-.06,.27-.09,.35-.12,.47-.12,.8-.12,1.18v2.89c-.18,.62-1.33,1.03-2.15,1.03-1.03,0-1.06-.53-1.06-.85h-2.09c-.15,1-.29,1.91-.32,2.42h2.5c.35-.5,.82-.83,1.41-.83,.85,0,2.03,.86,2.03,1.47,0,.18-.27,.41-.35,.56-.03,.06-.41,2.21-.5,2.62-1.21,4.86-2.65,5.33-4.36,5.33-2.03,0-3.98-2.06-3.98-2.48,0-.06,.03-.18,.15-.21,.21,.09,1.36,.47,2.71,.47,.56,0,1.15-.27,1.47-.77,.5-.8,1.18-3.45,1.33-4.83h-2.65c-.09,1.06-1.21,1.35-2.18,1.35-.21,0-1.3-.03-1.3-.68,0-.06,.65-2.42,.74-2.89,.32-1.41,.32-2,.35-2.83,.03-.44,.62-.59,1-.59,.53,0,1.36,.29,1.74,.65h2.39v-2.42s-.03-.09-.06-.15c-.65-.03-2.83,0-3.33,0-.27,.21-1,.23-1.03,.23-.21,0-.38-.15-.47-.32-.12,.06-1.74,.62-3.18,.62-.41,0-.71,0-.71-.21,0-.15,.12-.21,.44-.32,2-.8,4.45-2.39,6.1-3.98-2.77-.68-3.48-.85-3.48-1.71s.94-1.38,1.53-1.38c.5,0,1.12,0,3.12,1.92,.74-.85,1.53-1.83,1.83-2.56-1.18,0-2.06,0-2.65,.06-.24,.03-1.27,.38-1.5,.38-.15,0-.8-.06-.8-.62,0-.5,.41-1.33,1.21-1.33,.21,0,1,.18,1.18,.18l3.03,.03c.32-.35,1-.91,1.53-.91,.94,0,2,.88,2,1.88,0,.15-.15,.56-.62,.94-1.21,2.42-4.45,5.1-6.07,5.8l2.09,.03Zm11.43,6.84c.27-.41,.83-.74,1.36-.74,.85,0,2.03,.68,2.03,1.38,0,.12-.47,.59-.47,.62-.56,1.27-.91,2.12-2.62,4.18,1.41,1.24,4.36,1.83,6.45,2.06,.06,.03,.71,.09,.71,.24,0,.32-3.27,2.18-4.12,2.18-1.18,0-3.77-1.33-5.39-2.98-.85,.53-3.39,2.15-7.48,2.15-.24,0-.77,0-.77-.35,0-.29,.15-.32,1.36-.62,1.83-.41,3.71-1.47,5.01-2.86-.94-1.88-1.21-2.8-1.5-3.98-.27,.03-1.35,.35-1.56,.35-.32,0-.97-.09-.97-.59,0-.24,0-1.21,1.27-1.21,.18,0,.97,.15,1.12,.15h5.6Zm-2.24-5.63h-1.03c-.27,2.53-1.38,4.01-2.86,4.68-.41,.18-1.65,.71-2.8,.71-.12,0-.44-.06-.44-.26,0-.24,1-.74,1.18-.85,.5-.41,1.74-1.33,1.74-4.54,0-.12-.41-.53-.41-.65,0-.59,1.8-1.18,2.3-1.18,.62,0,1.15,.26,1.33,.88h1c.29-.59,.83-.71,1.15-.77-2.86-2.18-3.98-3.83-5.39-6.69-.03-.09-.44-.74-.47-.79-.09-.12-.65-.47-.65-.59,0-.38,.8-.71,1.41-.71,.41,0,.68,.06,.88,.56,.12,.21,.21,.41,1.21,2.18,.35-.38,1.86-2.33,2.12-2.53,.21-.18,.62-.35,1.06-.35,1.09,0,1.71,.82,1.71,1.59,0,1.06-2,1.77-3.92,2.45,.8,.77,1.47,1.21,1.8,1.44,1.47-1.65,1.86-2.18,2.3-2.56,.24-.24,.8-.41,1.06-.41,.88,0,1.89,.85,1.89,1.62s-.59,1.3-3.65,2.24c2.27,1.18,3.86,1.62,7.51,2.3,.18,0,.5,.03,.5,.24s-2.92,2.42-4.01,2.42c-.88,0-1.12-.09-3.12-1-.03,.06-.21,.26-.24,.32-.03,.15-.18,1.88-.18,2.36s.09,.74,1.21,.74c1.3,0,2.65-.47,3.42-.74,.27-.09,.71-.35,1-.35,.15,0,.35,.06,.35,.24,0,.15-.56,2.21-1.38,2.59-.53,.26-1.24,.26-1.8,.26-1.94,0-5.77-.26-5.77-1.92v-2.92Zm-1.44,6.89c.12,.59,.32,1.36,1.41,2.74,.53-.85,1-1.74,1.41-2.74h-2.83Z"/></g></g></g></g></svg>