<?xml version="1.0" encoding="UTF-8"?><svg id="_圖層_2" xmlns="http://www.w3.org/2000/svg" viewBox="0 0 120 120"><defs><style>.cls-1{fill:none;opacity:.5;}.cls-2{fill:#0f2c51;}.cls-3{fill:#0e2c50;}</style></defs><g id="_圖層_1-2"><g><rect class="cls-1" width="120" height="120"/><g><path class="cls-2" d="M80.15,62.45c1.1,0,2-.89,2-2v-21.36h5.26c1.92,0,3.47-1.55,3.47-3.47,0-1.09-.51-2.07-1.3-2.71l-6.79-5.89v-9.8c0-1.15-.93-2.08-2.07-2.08h-4.29c-1.15,0-2.08,.93-2.08,2.08v2.47l-12.07-10.48c-1.31-1.13-3.24-1.13-4.55,0l-27.4,23.79c-1.09,.95-1.48,2.48-.98,3.84,.51,1.36,1.81,2.25,3.25,2.25h5.25v21.36c0,1.11,.9,2,2,2h11.81v-15.53c0-2.2,1.78-3.98,3.98-3.98h8.74c2.2,0,3.98,1.78,3.98,3.98v15.53h11.8Z"/><g><path class="cls-3" d="M39.28,101.5c-.56,0-.88,.06-1.21,.12-.15,.03-.94,.27-1.12,.27-.44,0-.62-.24-.71-.35-1.33,4.77-5.36,7.19-6.28,7.19-.15,0-.29-.06-.29-.29,0-.12,.44-.5,.53-.59,2.95-3.48,3.68-6.98,3.68-13.61v-.77c0-1.15-.03-3.92-.15-4.89-.03-.15-.53-.8-.53-.94,0-.65,1.74-2,2.71-2,1.18,0,1.24,.77,1.27,1h13.08c.41-.74,1.03-1.21,1.59-1.21,.71,0,2.36,.85,2.36,1.65,0,.15-.21,.8-.24,.94-.03,.24,.03,3.54,.03,3.68,0,.59,0,1.21-1.12,1.62-.12,.03-.83,.26-1.33,.26-1.21,0-1.24-.71-1.27-1.09h-13.14c-.03,1.68-.12,4.8-.62,7.75,.12-.09,.38-.32,.85-.32,.24,0,.47,.06,.88,.12,.38,.06,2.92,.12,2.95,.12v-2.53c-1.65,0-1.77,.06-2.09,.21-.32,.15-.47,.21-.83,.21-.65,0-1.09-.38-1.09-.83,0-.65,.62-1.18,1.36-1.18,.15,0,.77,.12,.91,.12h1.74c0-.68,0-.91-.06-1.24,0-.15-.44-.68-.44-.8,0-.53,1.53-1.38,2.42-1.38,.97,0,1.15,.47,1.15,1.06,0,.24-.15,1.38-.15,1.65v.74h1.86c0-.65-.03-1-.09-1.35,0-.15-.29-.74-.29-.88,0-.56,1.53-1.21,2.3-1.21,.09,0,1.21,0,1.21,.94,0,.09-.03,.26-.06,.35-.12,.35-.12,1.68-.12,2.12h1.56c.29-.56,1.09-1.03,1.65-1.03,.8,0,2,.83,2,1.77,0,.44-.41,.74-1.09,.74h-4.1v2.5l4.04-.03c.35-.68,1.39-1.21,1.92-1.21,.77,0,2.27,1.03,2.27,1.95,0,.74-.8,.74-2.27,.74-1.33,0-7.84-.09-9.31-.12,.21,.65,1.03,2.03,1.56,2.71,.5-.41,2.74-2.24,4.01-2.24,.65,0,1.74,.53,1.74,1.33,0,.5,0,1.5-4.83,1.8,2.89,2.53,7.22,3.62,9.28,4.12,.12,.03,.47,.12,.47,.21,0,.21-1.06,.85-1.36,1.03-1.86,1.12-2.06,1.24-2.62,1.24-.59,0-3.3-.97-5.16-2.48-1.36-1.09-3.65-3.48-4.92-7.69-.38,0-1.06,0-1.36,.03-.06,1.65-.06,2.12-.12,6.36,.41-.06,3.62-.47,3.68-.5,.32,.03,.41,.21,.41,.32,0,.35-2.12,1.59-4.63,2.27-1,.26-4.04,.85-4.89,.85-1.35,0-1.83-.88-1.83-1.47s.62-1.15,1.24-1.18c.44-.03,2.68-.12,2.92-.15,.15-2.92,.15-3.57,.18-6.51h-.12Zm11.14-10.49v-2.83h-13.23c0,1.12,0,1.89-.03,2.83h13.26Zm-4.42,9.1v-2.5h-1.86v2.53l1.86-.03Z"/><path class="cls-3" d="M81.01,89.24c.38-.74,1.21-1.44,1.89-1.44,.91,0,2.45,1.06,2.45,2.03,0,.8-.85,.88-1.5,.88h-17.06c-.06,6.54-.15,13.29-4.48,17.06-.91,.8-2.45,1.74-3.18,1.74-.18,0-.35-.03-.35-.26,0-.15,.94-1.06,1.12-1.27,1.83-2.21,3.15-5.1,3.39-11.52,.03-.56,0-3.24,0-3.86,0-.29-.03-1.47-.21-1.74-.47-.68-.5-.74-.5-.88,0-.77,2.03-1.97,2.92-1.97,.74,0,1.27,.47,1.33,1.24h5.48c-.03-.56-.03-.88-.12-2.21-.06-.06-.35-.29-.41-.35-.09-.09-.21-.24-.21-.41,0-.91,1.83-1.8,2.98-1.8,.41,0,1.33,.12,1.33,1.15,0,.12-.06,.56-.09,.68-.06,.26-.21,2.53-.24,2.95h5.48Zm.91,6.42c.5-.8,1.18-1.42,1.77-1.42,.82,0,2.3,1.09,2.3,2.03,0,.77-.85,.83-1.21,.83h-8.69c-.06,2-.06,2.15-.09,4.33h2.98c.32-.53,1.18-1.03,1.71-1.03,.8,0,2.24,.85,2.24,1.77,0,.06-.15,.35-.18,.44-.09,.21-.09,.32-.09,1.33,0,.79,.12,4.77,.12,5.66,0,1.36-1.83,1.59-2.36,1.59-.44,0-1.47-.09-1.47-.91v-.91h-8.28v.62c0,.68-1.47,1.18-2.27,1.18-1.09,0-1.09-.88-1.09-1.27,0-.83,.15-4.92,.15-5.83v-.97c-.03-.06-.29-.27-.32-.32-.09-.09-.21-.21-.21-.38,0-.8,1.65-1.8,2.53-1.8,.27,0,.94,.15,1.18,.85h2.24v-3.36c0-1.36-.03-2.74-.06-4.1-.06-.06-.35-.29-.41-.35-.12-.09-.24-.24-.24-.38,0-.79,1.56-1.83,2.77-1.83,1.36,0,1.41,.68,1.41,1.03,0,.47-.21,2.71-.24,3.21h5.8Zm-2.92,12.29c0-.71,.03-4.27,.03-5.07h-8.19c-.15,0-.21,.15-.21,.29v4.77h8.37Z"/></g></g></g></g></svg>