<?xml version="1.0" encoding="UTF-8"?><svg id="_圖層_2" xmlns="http://www.w3.org/2000/svg" viewBox="0 0 209.22 248.7"><defs><style>.cls-1{fill:#0e2c50;}.cls-2{fill:#95908a;}.cls-3{fill:#132c53;}.cls-3,.cls-4{fill-rule:evenodd;}.cls-4{fill:#b81c25;}.cls-5{fill:#fff;stroke:#102b50;stroke-miterlimit:10;stroke-width:3px;}</style></defs><g id="_圖層_1-2"><g><g><path class="cls-1" d="M19.5,236.94c.1-.03,2.78-.71,2.88-.71,.2,0,.23,.15,.23,.18,0,.3-.35,.51-3.06,2.15,.02,2.02,.02,3.87,.02,5.28,0,1.14,0,4.07-3.01,4.07-1.62,0-3.31-1.54-3.31-1.8,0-.08,.08-.13,.18-.13,.03,0,.33,.05,.38,.08,.23,.03,.48,.03,.76,.03,2,0,2.33-.28,2.35-6.73-.38,.18-1.62,.68-2.43,.68-.88,0-1.47-.46-1.47-1.31,0-.18,0-.71,.86-.99,.25-.08,2.53-.46,3.01-.53l-.05-4.15h-.96c-.25,0-1.44,.46-1.72,.46-.3,0-.73-.18-.73-.56,0-.4,.28-1.16,1.16-1.16,.15,0,.83,.1,.99,.1h1.24c0-.48-.05-2.71-.18-2.96-.05-.13-.58-.58-.58-.73,0-.88,1.47-1.9,2.48-1.9,.2,0,1.16,0,1.16,1.06,0,.33-.03,.63-.1,1.24-.05,.51-.05,2.45-.05,3.29h.3c.13-.18,.51-.78,1.01-.78,.71,0,1.37,.76,1.37,1.37s-.73,.58-1.11,.58h-1.59l-.03,3.87Zm9.23,7.28c.56-2.55,1.16-5.84,1.42-7.64,.1-.71,.28-1.97,1.77-1.97,.83,0,1.62,.73,1.62,1.54,0,1.26-2.48,6.45-3.24,8.07h3.36c.43-.86,1.21-1.29,1.64-1.29,.81,0,2.1,1.09,2.1,1.95s-1.04,.88-1.42,.88h-12.97c-.43,0-.48,0-.86,.18-.15,.05-.48,.2-.86,.2-.48,0-.73-.35-.73-.68,0-.48,.46-1.42,1.24-1.42,.18,0,1.06,.18,1.26,.18h5.66Zm-1.77-11.81c-.03-1.37-.03-1.64-.1-3.82-.23-.15-.63-.43-.63-.78,0-.73,1.87-1.74,2.88-1.74,.71,0,1.16,.4,1.16,1.11,0,.08-.08,.73-.1,.86-.05,.56-.2,3.01-.28,4.37h2.86c.48-.96,1.26-1.11,1.44-1.11,.76,0,1.75,1.04,1.75,1.79,0,.58-.78,.73-1.52,.73h-9.83c-.25,0-1.44,.35-1.72,.35-.35,0-.78-.2-.78-.66,0-.58,.46-1.31,1.31-1.31,.1,0,.68,.2,.83,.2h2.73Zm-1.8,2.68c1.26,0,1.52,1.16,1.69,2,.38,1.82,.66,4.53,.66,5.18,0,.33-.2,.58-.48,.58-.68,0-3.34-4.98-3.34-6.19,0-.78,.66-1.57,1.47-1.57Z"/><path class="cls-1" d="M45.74,238.58c.25-.35,.58-.66,1.01-.66,.51,0,1.54,.61,1.54,1.24,0,.28-.1,.38-.3,.53-.43,1.11-1.31,2.76-1.92,3.72,1.44,1.14,3.03,2.2,7.84,2.2,.66,0,4.8-.05,7.05-.38,.25-.03,1.49-.28,1.79-.28,.08,0,.28,0,.28,.15,0,.2-1.37,2.02-1.64,2.38-.58,.73-1.64,.73-2.86,.73-7.89,0-10.67-.48-13.58-3.64-1.26,1.49-4.04,2.98-6.22,2.98-.53,0-.83-.13-.83-.25,0-.1,.2-.18,.38-.25,3.44-1.31,4.98-3.46,5.23-3.84-.2-.43-.71-1.47-.91-2.17-1.59,2.15-3.46,2.6-4.04,2.6-.2,0-.28-.05-.28-.18s.73-.76,.86-.88c1.29-1.42,2.53-3.14,3.14-5.46,.15-.23,.28-.43,1.09-.43,0-.18,.03-1.04,.05-1.21-1.77,2.15-4.58,3.01-4.83,3.01-.2,0-.3-.13-.3-.2,0-.13,.08-.15,.66-.61,1.75-1.37,2.86-2.93,3.26-3.54-.35,0-.46-.35-.68-1.11-.66,.96-2.05,2.12-2.93,2.12-.08,0-.25-.02-.25-.18,0-.13,.71-.96,.83-1.14,.56-.81,1.19-2.07,1.37-3.01,0-.03-.05-.15-.05-.18,0-.33,.61-.76,1.16-.76,.61,0,1.06,.33,1.06,.66,0,.51-.1,.68-.51,1.44,.13,.25,.3,.4,1.14,1.04h.15c-.03-.48-.05-2.78-.05-3.31l-2.73,.05c-.2,0-1.14,.25-1.37,.25-.18,0-.63-.08-.63-.46s.2-1.04,1.04-1.04c.05,0,.43,.1,.48,.1h3.14c0-.35-.05-1.19-.2-1.54-.15-.1-.23-.23-.23-.38,0-.76,1.44-1.44,2.15-1.44,.35,0,.86,.2,.86,.71,0,.15-.08,.81-.08,.96,0,.25-.05,1.44-.05,1.69h1.29c.18-.23,.58-.76,1.06-.76,.56,0,1.34,.73,1.34,1.26,0,.61-.56,.61-.81,.61l-2.91-.03-.05,2.15,.03,1.29,.05,.05c.13-.28,.73-1.57,.73-2.63,0-.23,.28-.71,1.01-.71,.58,0,.91,.33,.91,.76,0,.1-.23,1.04-.25,1.11,.13,.38,.71,.91,1.21,1.16,.33,.18,.48,.25,.48,.38,0,.43-.99,1.06-1.37,1.06-.51,0-.94-.78-1.24-1.57-.4,.46-.46,.51-.96,.86,.96,.76,1.74,1.14,2,1.26,1.39,.68,1.54,.76,1.54,.96,0,.43-1.04,1.54-1.82,1.54-.61,0-1.87-1.82-2.28-2.55l.03,1.42c0,.35-.33,.78-1.16,.83,.18,.15,.2,.25,.2,.38,0,.28-.33,.76-.56,1.11h1.44Zm-2.05,.96l-.23,.43c.15,.48,.41,1.21,.96,1.9,.51-1.11,.76-1.87,.89-2.33h-1.62Zm8.77,3.14v.2c0,1.42-1.42,1.42-1.47,1.42-.68,0-.94-.35-.94-.81,0-.53,.18-4.5,.23-5.33,0-.05,.08-2.83,.08-4.17v-.66c0-.13-.35-.63-.35-.76,0-.48,1.16-1.42,1.69-1.42,.3,0,.63,.08,.71,.43h1.04c.23-.58,.53-1.85,.73-2.88-.38,0-2.2-.03-2.6-.03h-.56c-.15,0-.83,.25-1.01,.25-.51,0-.63-.2-.63-.46,0-.53,.33-1.06,.94-1.06,.13,0,.71,.18,.83,.18h8.57c.15-.4,.66-1.06,1.14-1.06,.61,0,1.54,.88,1.54,1.57,0,.56-.51,.56-1.09,.56h-4.73c.15,.08,.28,.15,.28,.38,0,.35-.28,.81-.63,1.37-.1,.18-.71,.99-.83,1.19h3.16c.3-.53,.83-.78,1.06-.78,.53,0,1.49,.78,1.49,1.29,0,.08-.05,.2-.1,.4-.08,.18-.08,.86-.08,1.11,0,.91,.08,4.65,.13,6.37,.03,.35,.1,2.3,.1,2.35,0,1.26-1.47,1.39-1.77,1.39-.94,0-.96-.43-.96-1.11h-5.99l.03,.08Zm0-5.36c0,1.19-.05,3.06-.05,4.25h.76c.03-2.15,.03-3.77,.03-5.64v-3.41h-.61c-.13,0-.13,.23-.13,.28v4.53Zm3.39-2.3l-.03-2.5h-.83l-.03,2.5h.88Zm0,3.24v-2.3h-.88v2.3h.88Zm-.88,3.31h.86c0-.25,.03-.51,.03-1.34v-1.06h-.88v2.4Zm3.49,0v-9.05h-.68c-.03,1.95-.05,2.91-.05,7.96v1.09h.73Z"/><path class="cls-1" d="M84.01,229.99c.35-.76,1.01-1.26,1.59-1.26,.81,0,2.15,1.09,2.15,1.9,0,.76-.96,.78-1.21,.78h-16.99l-2.81,.05c-.3,0-1.67,.51-2,.51-.48,0-.76-.35-.76-.76,0-.63,.73-1.37,1.42-1.37,.2,0,1.14,.15,1.37,.15h7.28c-.03-.28-.08-1.59-.1-1.9-.05-.43-.08-.48-.2-.56-.4-.23-.46-.28-.46-.51,0-.86,1.77-1.67,2.71-1.67,.43,0,1.31,.2,1.31,1.16,0,.08-.05,.46-.08,.56-.13,.88-.15,1.39-.28,2.91h7.05Zm-3.21,5.11c.38-.58,.96-.96,1.42-.96,.63,0,1.92,.51,1.92,1.34,0,.2-.08,.35-.13,.4-.2,.33-.2,.38-.2,.71,0,.86,.15,5.06,.15,6.02,0,.78,0,3.29-3.01,3.29-1.64,0-3.36-1.72-3.36-2,0-.1,.1-.1,.28-.1,.15,0,1.29,.13,1.52,.13,1.24,0,1.39-.66,1.47-1.44,.03-.35,0-5.44,0-6.19h-4.07v3.92c0,.99,.1,6.04,.1,6.17,0,2.33-1.59,2.33-1.77,2.33-.4,0-1.31-.38-1.31-1.39,0-.18,.08-1.01,.08-1.19,.15-2.28,.25-7.31,.3-9.84h-3.19c-.3,0-.38,.33-.38,.58v7.23c0,.88-.96,1.82-1.92,1.82-.43,0-1.16-.25-1.16-.91,0-.28,.15-2.28,.18-2.83,.05-.71,.23-3.11,.23-5.36,0-.15,0-.35-.1-.51-.08-.13-.28-.4-.28-.53,0-.61,1.64-1.44,2.28-1.44,.28,0,.81,.18,.91,.76h3.44c0-.35,0-1.52-.2-1.72-.3-.28-.33-.3-.33-.46,0-.58,1.47-1.31,2.35-1.31,1.04,0,1.04,.68,1.04,.99,0,.08-.03,.15-.03,.3-.05,.51-.13,1.09-.18,2.2h3.97Z"/><path class="cls-1" d="M95.81,232.9c.2-.38,.66-.71,1.09-.71,.68,0,1.39,.68,1.39,1.34,0,.25-.13,.46-.43,.53-.3,.05-2.02,.03-2.5,.03l-.1,5.81c.38-.1,2.55-.61,2.68-.61,.2,0,.23,.08,.23,.15,0,1.01-6.04,3.97-7.76,3.97-.63,0-1.74-.48-1.74-1.42s.81-1.09,1.49-1.21c.33-.08,2.05-.33,2.43-.43,.03-3.41,.05-4.65,.08-6.27l-1.04,.02c-.23,0-1.24,.4-1.49,.4-.1,0-.76,0-.76-.53,0-.4,.28-1.21,1.01-1.21,.13,0,.81,.1,.96,.1l1.31,.03c-.02-1.11-.05-3.03-.05-3.94-.58-.56-.66-.63-.66-.91,0-.81,1.59-1.8,2.58-1.8,.3,0,1.24,.1,1.24,1.06,0,.13-.1,.71-.13,.83-.05,.46-.05,.66-.25,4.75h.43Zm14.18,3.03c.2-.48,.91-1.14,1.44-1.14,.71,0,1.95,.91,1.95,1.72,0,.53-.63,.61-1.09,.61h-9.3c-.08,.3-.23,.63-.68,1.49h5.79c.33-.46,.99-.71,1.37-.71,.66,0,1.82,.71,1.82,1.37,0,.05-.1,.28-.2,.46-.05,.08-.08,.2-.08,.38-.28,4.5-.48,8.12-3.94,8.12-1.62,0-3.08-1.87-3.08-2.02,0-.08,.03-.08,.18-.08,.25,0,1.44,.13,1.72,.13,1.21,0,1.49-.68,1.75-1.54,.58-2.07,.66-4.17,.66-4.63,0-.43,0-.61-.46-.61,.23,.1,.28,.28,.28,.35,0,.05-.03,.83-1.24,2.78-2.33,3.79-6.73,5.46-8.92,5.46-.28,0-.73-.08-.73-.23,0-.03,.05-.15,.23-.25,.4-.18,1.06-.48,1.47-.68,3.59-1.95,5.29-4.2,6.04-5.87,.1-.25,.4-1.04,.4-1.21,0-.08-.02-.2-.1-.25h-.71c.13,.08,.2,.18,.2,.3,0,1.24-5.03,6.3-9.38,6.3-.13,0-.56,0-.56-.2,0-.1,.1-.15,.94-.58,4.6-2.33,5.94-5.03,6.19-5.61,0-.2-.05-.2-.4-.2-1.95,2.65-4.7,3.49-5.36,3.49-.13,0-.35-.08-.35-.23,0-.1,1.11-.94,1.31-1.11,2.1-1.9,2.93-4.17,2.93-4.6h-.4c-1.09,0-1.19,0-1.39,.03-.23,.05-1.24,.4-1.47,.4-.25,0-.71-.13-.71-.53,0-.43,.35-1.21,1.16-1.21,.13,0,.63,.13,.76,.13h11.98Zm-4.07-8.75c.25-.48,.91-.94,1.47-.94,.63,0,1.64,.61,1.64,1.24,0,.13-.23,.68-.23,.81,0,.83,.15,4.96,.15,5.33,0,.53,0,.78-.58,1.14-.28,.15-.81,.38-1.39,.38-.99,0-1.01-.4-1.01-.96h-4.17c-.08,.91-.94,1.34-1.59,1.34-1.04,0-1.04-.4-1.04-1.11,0-.76,.08-4.37,.08-5.18,0-.61,0-.68-.15-.86-.23-.25-.28-.3-.28-.46,0-.53,1.34-1.44,1.95-1.44,.15,0,.83,.08,1.01,.71h4.15Zm.05,3.03v-1.92h-3.97c-.1,0-.2,.08-.2,.2v1.72h4.17Zm0,2.86v-1.74h-4.17v1.74h4.17Z"/><path class="cls-1" d="M121.49,228.47c.35-.68,1.16-.76,1.34-.76,.68,0,1.52,.58,1.52,1.31,0,.13-.03,.15-.23,.56-.05,.13-.05,.38-.05,2.76,0,.18,.05,6.04,.05,7.18,0,.4,0,.66-.3,.94-.18,.18-.68,.58-1.44,.58-1.01,0-1.01-.38-1.01-1.24h-2.96v.99c0,.83-1.21,1.11-1.85,1.11-.88,0-.88-.58-.88-.94,0-.1,.2-6.42,.23-7.41,0-.53,.05-3.14,0-3.46-.03-.03-.23-.2-.28-.25-.1-.08-.18-.18-.18-.3,0-.61,1.26-1.85,2.02-1.85,.18,0,.78,0,1.06,.78h2.96Zm11.43-.76c.48-.76,1.01-1.06,1.49-1.06,.66,0,1.79,.58,1.79,1.52,0,.28-.1,.46-.15,.56-.25,.48-.28,.53-.28,1.01,0,2.07,.28,12.26,.28,14.56,0,1.57,0,3.77-2.88,3.77-1.9,0-3.67-1.97-3.67-2.1,0-.08,.08-.15,.13-.15,.23,0,1.39,.13,1.64,.13,1.42,0,1.74-.51,1.74-2v-4.4h-4.42c-.25,1.64-.73,4.91-5.11,7-2.22,1.09-4.2,1.31-5.36,1.31-.18,0-.48,0-.48-.28,0-.25,.83-.46,1.14-.53,.99-.23,1.9-.63,2.78-1.16,4.4-2.68,4.4-6.6,4.4-11.28,0-2.15-.05-3.49-.1-4.45-.03-.61-.05-.66-.25-.78-.35-.25-.38-.35-.38-.51,0-.78,1.52-1.97,2.38-1.97,.02,0,.96,0,1.16,.81h4.15Zm-11.53,10.95v-4.02h-2.93l-.05,4.02h2.98Zm0-5.21v-3.49c0-.1,0-.18-.02-.23h-2.63c-.1,0-.28,.03-.28,.15v3.56h2.93Zm11.61-.51c-.03-1.85-.03-1.97-.08-3.92h-3.94c-.3,0-.3,.23-.3,.56,0,.08,.05,3.06,.05,3.36h4.27Zm.03,5.41l-.03-4.17h-4.27v.51c0,.78,0,2.4-.05,3.67h4.35Z"/><path class="cls-1" d="M144.88,245.41c0,1.42-.94,2.17-2.02,2.17-.15,0-1.14-.1-1.14-.86,0-.43,.1-2.55,.1-2.86,.1-2.17,.18-8.6,.18-11.43,0-1.01-.05-1.24-.48-1.69-.25-.25-.3-.38-.3-.53,0-.81,1.72-2.23,2.53-2.23,.18,0,.96,.15,1.24,.96h7.96c.56-.83,1.16-1.16,1.57-1.16,.73,0,2.15,.68,2.15,1.59,0,.15-.05,.35-.15,.66-.18,.46-.18,.53-.18,1.09,0,1.64,.08,6.52,.15,9.81,.02,.73,.13,3.92,.13,4.58,0,.51,0,.91-.71,1.31-.71,.4-1.42,.4-1.57,.4-1.29,0-1.29-.63-1.29-1.82h-8.17Zm8.22-13.15c0-.76,0-1.21-.05-1.92h-7.69c-.51,0-.51,.61-.51,1.04,0,.66-.03,3.56-.03,4.15v.66h8.27v-3.92Zm0,5.39h-8.27v6.37h8.27v-6.37Z"/><path class="cls-1" d="M175.21,231.76c.58-.78,1.32-1.24,1.82-1.24,.83,0,2.3,1.14,2.3,2.07,0,.15,0,.76-1.37,1.04-1.47,1.04-9.61,6.52-9.73,6.62-.48,.46-1.34,1.21-1.34,1.49,.33,.03,.73,.15,.94,.2,.61,.15,3.54,1.14,4.2,1.34,2.02,.61,4.98,1.47,8.32,1.47,1.06,0,1.85-.08,2.28-.15,.13-.03,.71-.13,.81-.13,.15,0,.38,.05,.38,.3,0,.51-3.13,3.14-4.85,3.14-1.42,0-3.54-.56-9.46-3.64-2.07-1.09-2.68-1.39-3.67-1.44-.2,.18-1.04,1.21-1.21,1.44-.71,.81-1.01,1.16-1.49,1.16-.89,0-1.64-.94-1.64-1.62,0-.18,0-.38,.68-.94,.51-.4,1.39-1.01,1.92-1.42,4.42-3.39,6.78-5.18,9.58-8.47-2.3,.13-5.54,.33-7.79,.46-.25,.05-1.42,.53-1.69,.53-.33,0-.78-.3-.78-.73,0-.48,.35-1.47,1.29-1.47,.13,0,.71,.1,.83,.1h4.6c-.03-1.49-.03-2.4-.05-2.96-.03-.13-.08-.18-.2-.28-.35-.3-.46-.35-.46-.53,0-.68,1.92-1.74,2.81-1.74,.61,0,1.29,.3,1.29,.94,0,.08-.15,1.31-.18,1.47-.23,1.67-.28,2.05-.33,3.08l2.2-.1Z"/><path class="cls-1" d="M193,243.29c-.28,0-1.42,.43-1.67,.43-.43,0-.71-.18-.71-.63,0-.58,.46-1.14,1.04-1.14,.13,0,.68,.1,.81,.1h3.26v-2.4h-4.07c-2.07,2.12-4.35,2.76-5.18,2.76-.15,0-.35,0-.38-.2,.05-.08,.43-.4,.66-.61,2.28-1.97,3.41-4.1,3.59-4.5,.3-.68,.51-1.11,1.49-1.11,.81,0,1.59,.48,1.59,1.14,0,.38-.43,1.04-.73,1.34h3.01c0-.38,0-.71-.03-1.06-.03-.03-.18-.13-.2-.15-.1-.08-.3-.2-.3-.46,0-.78,1.64-1.52,2.55-1.52,.56,0,1.04,.35,1.04,.96s-.13,1.59-.15,2.2h4.37c.35-.68,1.04-1.24,1.47-1.24,.71,0,1.9,.99,1.9,1.77,0,.68-.86,.68-1.29,.68h-6.5c0,.38-.03,2.05-.03,2.4h2.81c.48-.83,1.09-.86,1.21-.86,.66,0,1.67,.68,1.67,1.44,0,.66-.78,.66-1.14,.66h-4.58l.03,2.6h6.47c.4-.61,.96-1.19,1.69-1.19,.78,0,2.12,1.01,2.12,1.82,0,.76-1.06,.76-1.54,.76h-17.67c-.28,0-.73,0-.99,.05-.25,.05-1.37,.4-1.59,.4-.15,0-1.01-.02-1.01-.63s.56-1.42,1.37-1.42c.33,0,1.82,.18,2.12,.18,.96,0,5.28,.02,6.17,.02,0-.4,.05-2.22,.05-2.6h-2.73Zm-.68-8.14c-.3,.48-1.16,.68-1.67,.68-.3,0-1.11,0-1.11-.76,0-.53,.25-5.44,.25-6.47,0-.23-.1-.33-.38-.56-.1-.05-.2-.15-.2-.33,0-.76,1.44-1.87,2.22-1.87,.15,0,.96,0,1.21,1.01h8.6c.43-.73,1.21-1.09,1.64-1.09,.66,0,1.97,.78,1.97,1.54,0,.13-.02,.23-.13,.38-.03,.05-.2,.28-.2,.33v1.14c0,.83,.1,4.53,.1,5.28,0,.71,0,.96-.88,1.31-.51,.2-1.11,.28-1.47,.28-.96,0-.99-.58-1.01-.89h-8.95Zm9-7h-8.5c-.13,0-.23,.03-.25,.15-.03,.02-.05,2-.05,2.15h8.8v-2.3Zm0,3.49h-8.8v2.33h8.8v-2.33Z"/></g><g><circle class="cls-5" cx="104.61" cy="104.61" r="103.11"/><g><g><g><path class="cls-3" d="M142.64,114.5s.05-.05,.07-.08c.41-.84,.27-.78,1.2-1.17,.85-.36,1.69-.73,2.6-.9,.11-.02,.21-.08,.31-.12,.49-.16,.97-.35,1.48-.47,.79-.19,1.58-.39,2.35-.63,.21-.06,.44-.08,.66-.1,.48-.05,.96-.02,1.42-.18,.2-.07,.44-.03,.66-.04,.7-.02,1.41,.03,2.09-.15,.89-.02,1.77-.09,2.65,.07,.18,.03,.37,.05,.55,.05,1.3,.01,2.59,.03,3.88,.03,.66,0,1.33,.01,1.98-.16,.85-.04,1.69-.14,2.54,.08,.42,.11,.88,.1,1.32,.09,.49-.01,.96,.04,1.42,.17,.25,.07,.5,.13,.76,.17,.44,.07,.75,.27,.86,.73,.03,.13,.18,.22,.27,.33,.04,.06,.1,.13,.1,.19,.01,.37,.01,.73,0,1.1,0,.05-.09,.11-.15,.15-.1,.05-.24,.06-.3,.13-.21,.25-.5,.44-.63,.76-.03,.07-.06,.13-.1,.2-.08,.13-.2,.25-.35,.25-.32,.01-.54,.18-.77,.38-.23,.2-.5,.28-.82,.2-.36-.09-.73-.11-1.1-.15-.33-.04-.67,.02-.98-.15-.59-.08-1.18-.14-1.76,0-.25,.06-.51,.03-.76,.1-.17,.05-.38,.03-.55-.02-.5-.17-1.02-.17-1.53-.16-.33,0-.67,0-1,0-.22,0-.44-.04-.65-.09-.18-.04-.35-.13-.52-.2-.18-.08-.36-.09-.54-.03-.17,.07-.35,.12-.54,.12-.19,0-.37,.02-.54,.11-.17,.09-.35,.11-.54,.1-.37,0-.74-.01-1.11,0-.18,0-.38,.03-.54,.1-.25,.11-.49,.15-.75,.13-.41-.03-.81-.01-1.18,.22-.51,.09-.99,.31-1.52,.24-.13-.02-.28,.06-.42,.1-.17,.06-.35,.13-.51,.2-.24,.11-.5,.17-.76,.13-.29-.04-.56,.19-.85,.07-.03-.01-.08,0-.11,0-.43,.26-.84,.17-1.27,0-.17-.06-.36-.05-.54-.06-.19-.01-.38,.04-.51,.18-.21,.23-.42,.19-.68,.08-.5-.22-1-.46-1.55-.58-.07-.02-.14-.07-.21-.07-.44,.03-.76-.26-1.12-.43-.08-.04-.14-.03-.18,.06-.01,.03-.03,.07-.02,.1,.01,.07,.03,.15,.06,.21,.08,.12,.17,.24,.27,.35,.21,.26,.42,.51,.68,.72,.08,.31,.36,.45,.56,.66,.08,.07,.17,.18,.12,.29-.1,.26-.04,.5,.05,.75,.08,.23,.07,.44-.15,.59-.16,.11-.25,.26-.25,.46,0,.59,0,1.18,0,1.77,0,.28-.06,.5-.32,.65-.1,.06-.12,.18-.09,.29,.13,.5,.32,.98,.44,1.48,.11,.46,.38,.88,.37,1.38,.17,.42,.2,.86,.25,1.3,.02,.15,.05,.29,.09,.43,.14,.51,.16,1.02,.15,1.54,0,.26-.03,.52,0,.77,.02,.27,0,.52-.13,.75-.19,.36-.16,.72-.03,1.07,.07,.18,.13,.34,.09,.53-.08,.36-.14,.72-.01,1.09,.06,.17,.04,.37,.05,.55,.02,.41,0,.82,.06,1.22,.05,.36,.19,.71,.29,1.07,.03,.11,.05,.21,.06,.32,.02,.55,.02,1.11,.03,1.66,0,.19,.03,.37,.03,.55,0,.26,.21,.49,.09,.75-.1,.23,.06,.43,.06,.65,.02,.66,.06,1.33-.11,1.98-.07,.26-.05,.51,.03,.76,.04,.13,0,.29,.04,.43,.01,.05,.11,.13,.16,.12,.99-.16,1.99-.04,2.99-.12,.44-.04,.89,0,1.33,.04,.85,.05,1.7,.03,2.54-.12,.29-.05,.59-.07,.88-.09,.48-.04,.95-.06,1.43-.14,.51-.08,1.03-.09,1.55-.09,.89,0,1.77,0,2.66,.06,.66,.05,1.32,.14,1.99,.18,.7,.04,1.41,.06,2.06,.36,.03,.02,.07,.02,.11,.03,.37,.02,.75-.02,1.1,.09,.36,.11,.72,.15,1.09,.16,.51,.02,1.03-.03,1.53,.19,.19,.08,.44,.04,.66,.05,.22,0,.46-.04,.66,.02,.79,.24,1.63,.07,2.41,.35,.44,.03,.88,.07,1.33,.1,.37,.03,.74,.02,1.1,.13,.21,.06,.44,.05,.66,.06,.33,.02,.66-.02,.98-.16,.8-.36,1.65-.31,2.5-.31,.35,0,.55,.18,.67,.48,.06,.14,.13,.27,.16,.41,.03,.14,.04,.31-.01,.43-.15,.34-.25,.69-.32,1.06-.02,.1-.1,.19-.15,.29-.06,.13-.16,.27-.17,.4-.02,.57-.18,1.09-.44,1.58-.05,.46-.3,.83-.52,1.2-.11,.19-.26,.36-.49,.43-.18,.05-.35,.12-.52,.2-.17,.08-.33,.17-.49,.25-.22,.38-.6,.38-.97,.38-.26,0-.51-.03-.77,.01-.29,.04-.46,.16-.52,.47-.03,.15-.22,.2-.36,.13-.07-.03-.13-.06-.19-.1-.18-.13-.36-.21-.61-.19-.29,.02-.58-.06-.87-.1-.07,0-.15-.02-.22-.03-.07-.02-.15-.04-.21-.08-.44-.29-.99-.27-1.43-.55-.2-.13-.4-.18-.63-.18-.29,0-.59,.02-.89,.02-.22,0-.44-.03-.61-.21-.16-.17-.37-.24-.6-.26-.44-.05-.88-.07-1.31-.2-.38-.11-.81-.08-1.19-.24-.49,0-.92-.22-1.38-.37-.49-.16-1-.24-1.51-.32-.4-.06-.78-.21-1.2-.21-.4,0-.81-.07-1.22-.06-.3,0-.58-.13-.87-.07-.25,.05-.51,.1-.75,.18-.33,.11-.66,.11-.99,.1-.18,0-.36-.06-.54-.09-.33-.06-.66-.11-.96,.09-.48,.08-.93,.21-1.34,.47-.09,.06-.21,.01-.3-.07-.11-.1-.26-.16-.41-.15-.44,.03-.87-.16-1.31-.06-.47-.09-.95-.15-1.43-.04-.06,.01-.14-.03-.21-.05-.11-.03-.22-.1-.32-.07-.54,.13-1.01-.11-1.51-.22-.1-.02-.23-.06-.29-.14-.31-.4-.72-.28-1.11-.22-.11,.02-.2,.1-.31,.11-.14,.02-.31,.05-.44,0-.78-.33-1.59-.62-2.24-1.19-.23-.21-.49-.33-.8-.33-.18,0-.37,.02-.55-.01-.25-.04-.48-.16-.74-.21-.46-.09-.79-.38-.95-.84-.08-.24-.14-.51-.27-.72-.39-.65-.52-1.37-.64-2.1-.14-.88-.24-1.75-.25-2.65,0-.59,0-1.18-.15-1.76,.03-.55-.11-1.1-.03-1.66,.03-.18-.02-.37-.03-.55-.02-.33-.02-.67-.04-1-.01-.26,0-.52-.06-.77-.08-.33-.1-.66-.12-.99,0-.11,.02-.23-.02-.33-.24-.79-.14-1.62-.18-2.42-.04-.77-.01-1.55,0-2.33,0-.18,0-.38,.06-.55,.12-.32,.1-.66,.14-.98,.02-.18,0-.38,.06-.55,.23-.57,.17-1.17,.16-1.75-.02-.81,0-1.63-.01-2.44,0-.29,.01-.59,0-.89-.04-.89,.05-1.76,.41-2.6,.1-.23,.17-.5,.17-.75,0-.79,.28-1.52,.52-2.25,.02-.07,.02-.15,.05-.21,.03-.06,.09-.16,.14-.16,.45,0,.7-.4,1.07-.54,.26-.1,.25-.13,.63-.02Z"/><path class="cls-3" d="M159.61,122.5c-.08-.04-.14-.09-.2-.09-.18,.02-.36,.05-.54,.09-.26,.06-.51,.07-.77,.02-.8-.16-1.61-.19-2.42-.2-.33,0-.67,.01-.99-.08-.15-.04-.29-.03-.44,.02-.07,.02-.14,.05-.22,.05-.44,0-.87,.13-1.31-.06-.4-.17-.84-.26-1.2-.55-.28-.23-.64-.35-.96-.53-.09-.05-.17-.15-.22-.24-.11-.19-.05-.48,.12-.6,.09-.06,.18-.13,.27-.18,.52-.27,1.07-.49,1.63-.68,.21-.07,.43-.11,.65-.14,.26-.03,.52-.06,.77-.06,1.18,0,2.37,0,3.55,0,.67,0,1.33,.02,2,.04,.26,0,.52,.02,.77,.08,.59,.13,1.17,.13,1.75,0,.29-.06,.58-.08,.88-.11,.37-.03,.73-.05,1.09-.15,.35-.09,.73-.03,1.1-.04,.26,0,.51-.01,.76,.09,.13,.05,.29,.08,.43,.07,.56-.02,1.1,.15,1.64,.25,.3,.06,.54,.23,.68,.51,.14,.27,.03,.56-.24,.6-.11,.02-.22,.04-.33,.03-.37-.04-.67,.1-.86,.4-.16,.26-.4,.43-.61,.64-.17,.17-.36,.24-.6,.23-.33,0-.67-.02-1,0-.23,.01-.44-.14-.64-.1-.22,.04-.43,.09-.63-.04-.03-.02-.07-.03-.11-.03-.24,0-.58,.09-1.04,.3,.27,.15,.52,.29,.77,.45,.12,.08,.25,.17,.33,.29,.18,.27,.4,.53,.23,.91-.09,.2-.08,.44-.16,.64-.11,.28,.08,.56-.06,.85-.13,.26-.12,.57-.1,.87,0,.15,.1,.3,.23,.33,.29,.06,.58,.18,.87,.16,.65-.04,1.23,.2,1.84,.33,.07,.02,.13,.07,.2,.09,.51,.15,1.3,.52,1.77,.82,.12,.08,.26,.14,.38,.22,.06,.04,.1,.11,.13,.17,.17,.35,.19,.71,.02,1.07-.13,.29-.41,.5-.7,.43-.34-.08-.65-.02-.98,.04-.47,.09-.95,.16-1.41,.29-.74,.21-1.47,.46-2.22,.66-.15,.04-.25,.17-.28,.32-.06,.33-.08,.66-.13,.99-.03,.18-.04,.38-.12,.54-.33,.67-.36,1.42-.58,2.12-.04,.14,.07,.3,.21,.33,.11,.02,.22,.06,.32,.07,.18,.01,.37,.01,.55,.01,.56,0,1.1,.07,1.64,.23,.32,.1,.63,.19,.97,.22,.29,.03,.57,.14,.86,.19,.26,.05,.48,.17,.66,.37,.25,.27,.5,.55,.78,.79,.31,.27,.51,.63,.75,.96,.06,.09,.04,.32-.04,.42-.07,.09-.15,.17-.21,.26-.2,.27-.57,.35-.74,.65-.03,.05-.12,.09-.19,.11-.36,.09-.7,.23-1.08,.2-.44-.03-.87,.04-1.29,.24-.43,.2-.93,.22-1.39,.36-.07,.02-.16,.05-.21,.03-.52-.25-1.11-.03-1.63-.27-.06-.03-.15-.01-.22,.01-.15,.05-.28,.05-.42-.02-.17-.08-.35-.11-.53,0-.2,.12-.41,.16-.64,.15-.66-.03-1.32,.04-1.98-.13-.13-.03-.28,.03-.43-.03-.55-.21-1.14-.29-1.71-.44-.5-.13-1.03-.11-1.53,.07-.22,.08-.43,.08-.65,.03-.25-.06-.5-.15-.75-.21-.68-.17-1.31-.44-1.89-.88-.47-.35-.99-.64-1.46-1-.45-.33-.81-.74-1.15-1.18-.02-.02-.01-.08,0-.1,.02-.03,.06-.06,.09-.06,.45-.09,.79-.39,1.19-.57,.12-.05,.17-.23,.27-.33,.1-.1,.23-.19,.39-.14,.04,.01,.07,.01,.11,.02,.43,.12,.87,.13,1.32,.09,.33-.03,.67,0,1-.02,.22,0,.45,0,.66-.07,.4-.14,.8-.14,1.2-.14,.63,0,1.26,0,1.88-.01,.25,0,.42-.06,.48-.33,.07-.36,.23-.7,.23-1.08,0-.11,.04-.22,.08-.32,.16-.42,.28-.83,.18-1.28,.08-.25,.15-.5,.06-.75-.02-.06-.09-.15-.14-.15-.58-.01-1.16-.16-1.75-.09-.14,.02-.27,.11-.39,.19-.43,.31-.92,.33-1.37,.14-.59-.24-1.21-.31-1.8-.53-.31-.12-.63-.19-.95-.3-.39-.14-.73-.36-.92-.75-.07-.13-.18-.23-.32-.3-.2-.09-.07-.23-.05-.36,.02-.12-.03-.21-.16-.25-.14-.05-.29-.06-.4-.18-.09-.09-.11-.32-.01-.4,.2-.16,.39-.38,.66-.37,.38,.01,.71-.18,1.08-.22,.14-.02,.29-.07,.41-.15,.64-.38,1.32-.64,2.05-.79,.18-.04,.35-.11,.53-.16,.57-.17,1.14-.29,1.74-.24,.25,.02,1.58-.22,1.84-.3,.03-.01,.06-.04,.1-.05,.12-.05,.21-.26,.17-.37-.05-.14-.1-.28-.16-.41-.15-.34-.32-.67-.45-1.01-.08-.21-.06-.44,.05-.64,.07-.13,.16-.25,.31-.3,.14-.05,.29-.05,.42-.11,.3-.13,.59-.29,.9-.44Z"/></g><path class="cls-3" d="M98.99,150.15c-.02,.06-.03,.13-.07,.17-.04,.04-.11,.06-.17,.07-.01,0-.04-.05-.05-.09-.03-.09,0-.16,.09-.17,.06-.01,.13,.01,.2,.02Z"/><g><path class="cls-3" d="M103.71,150.61c-.17-.09-.29-.17-.43-.21-.14-.04-.29-.06-.43-.06-.11,0-.21,.08-.32,.08-.26,0-.47,.2-.73,.2-.25,0-.51-.03-.79-.05-.11,.13-.22,.28-.34,.41-.13,.15-.32,.13-.47-.04-.13-.14-.22-.29-.23-.49,0-.15-.07-.28-.2-.37-.15-.1-.28-.24-.48-.26-.11,0-.22-.02-.33,0-.28,.03-.5-.1-.73-.21-.06-.03-.15-.09-.15-.14,0-.47-.43-.56-.7-.79-.22-.2-.49-.35-.68-.56-.25-.28-.47-.55-.87-.63-.14-.03-.25-.16-.32-.29-.45-.79-.66-1.42-.75-2.3-.02-.18,0-.37,.05-.54,.15-.44,.19-.86-.06-1.28-.04-.06-.05-.14-.06-.21-.03-.29-.06-.59-.09-.88-.2-.25-.07-.58-.2-.85-.05-.11-.04-.22,.04-.31,.18-.21,.26-.44,.18-.72-.05-.21-.02-.43-.11-.64-.06-.12-.05-.29-.02-.44,.07-.4,.21-.79,.09-1.2,.21-.41,.09-.87,.18-1.3,.1-.48,.06-.95,.01-1.43-.07-.66-.23-1.31-.13-1.98-.15-.54-.1-1.1-.1-1.65,0-.74-.08-1.48-.37-2.17-.17-.42-.13-.88-.32-1.29-.04-.09-.04-.22-.03-.33,.03-.41,0-.8-.14-1.2-.08-.2-.05-.44-.05-.66,0-.96,.01-1.92,.02-2.88,0-.15-.01-.3,.02-.44,.2-.76,.16-1.54,.2-2.31,0-.11-.02-.23,.02-.33,.16-.42,.11-.88,.25-1.3,.18-.55,.07-1.1,.11-1.65,0-.1-.05-.21-.09-.32-.1-.28-.22-.55-.32-.82-.1-.29,.05-.62,.33-.73,.1-.04,.21-.05,.32-.07,.19-.04,.33-.17,.45-.31,.05-.05,.11-.14,.09-.2-.1-.31,.11-.57,.12-.86,.01-.24,.16-.41,.32-.56,.24-.23,.48-.46,.75-.65,.22-.15,.4-.33,.57-.52,.1-.11,.22-.2,.37-.22,.46-.07,.8-.37,1.15-.63,.3-.22,.61-.41,.9-.64,.57-.44,1.21-.66,1.93-.76,.47-.07,.95-.14,1.41-.25,.55-.13,1.09-.18,1.65-.17,.67,0,1.32-.17,1.96-.31,.65-.14,1.27-.4,1.94-.4,.42-.21,.87-.16,1.31-.16,1.78-.01,3.55-.01,5.33,0,.44,0,.88,0,1.31,.15,.2,.07,.44,.04,.66,.04,.67,0,1.32,0,1.98,.19,.46,.13,.95,.09,1.42,.21,.13,.03,.29-.01,.43-.04,.19-.04,.37-.04,.54,.03,.72,.28,1.45,.54,2.19,.77,.1,.03,.22,.07,.3,.14,.38,.36,.92,.48,1.31,.82,.14,.12,.27,.27,.35,.43,.14,.26,.31,.5,.56,.67,.12,.09,.18,.23,.21,.38,.03,.15,.07,.3,.19,.39,.28,.2,.23,.44,.1,.68-.25,.5-.67,.87-.99,1.33-.06,.08-.18,.13-.27,.18-.09,.06-.22,.09-.28,.17-.62,.89-1.64,1.07-2.54,1.45-.17,.07-.35,.11-.53,.14-.14,.02-.3,.04-.43,0-.33-.1-.66-.12-.98-.02-.19,.05-.36,.04-.54,0-.1-.03-.23-.03-.32,0-.32,.13-.65,.13-.98,.13-.26,0-.51,.04-.75,.15-.31,.14-.66,.13-.96-.03-.25-.13-.49-.13-.74-.02-.07,.03-.14,.05-.21,.07-.16,.04-.32,0-.39-.13-.16-.33-.48-.31-.76-.38-.3,.13-.56,0-.85-.07-.28-.07-.59-.06-.88-.07-.7-.03-1.4,.06-2.1,0-.22-.02-.44-.02-.65-.11-.43-.18-.88-.02-1.31-.09-.07-.01-.15,.02-.21,.05-.49,.23-1.02,.15-1.52,.15-.37,0-.74-.05-1.1-.01-.19,.02-.36-.02-.53-.11-.14-.07-.29-.06-.43,0-.2,.07-.36-.01-.5-.15-.15-.15-.34-.19-.51-.11-.3,.15-.58,0-.86,.02-.27,.02-.49,.04-.72-.13-.14-.1-.36-.1-.51-.2-.27-.19-.56-.2-.84-.11-.22,.07-.42,.14-.64,.02-.07-.04-.13,0-.19,.06-.08,.08-.15,.17-.24,.22-.13,.07-.28,.15-.42,.07-.36-.22-.79-.18-1.16-.36-.36-.18-.75-.3-1.13-.44-.21-.08-.39,.01-.38,.22,.01,.7,.03,1.4,.05,2.1,0,.25,.19,.47,.08,.75-.07,.2-.07,.43-.1,.64-.08,.47-.12,.95-.16,1.43,0,.07,.04,.14,.07,.21,.08,.22,.1,.43,0,.64-.08,.17-.16,.34-.16,.53,0,.42-.12,.8-.27,1.18-.13,.33-.15,.64-.03,.97,.03,.07,.05,.14,.05,.21-.05,.92,.38,1.72,.63,2.56,.11,.35,.27,.69,.44,1.01,.16,.29,.32,.58,.33,.93,0,.1,.06,.21,.11,.31,.16,.3,.23,.62,.35,.93,.1,.28,.19,.56,.2,.86,.02,.34,.22,.63,.2,.97-.02,.33,.01,.67,0,1-.03,.64,.18,1.24,.27,1.86,.03,.18,.1,.36,.12,.54,.04,.37,.05,.74,.08,1.1,.02,.37,.23,.69,.24,1.07,.01,.36,.13,.73,.27,1.07,.13,.32,.08,.66,.2,.97,.12,.32,.12,.65,.15,.98,0,.11,.02,.23,.06,.32,.1,.21,.12,.41,.11,.64-.02,.44,.02,.89,.02,1.33,0,.3,.02,.59,.18,.86,.11,.73,.65,1.04,1.27,1.23,.34,.11,.71,.21,1.08,.05,.33,0,.66,.02,1,.01,.3,0,.6,.01,.88-.07,.51-.15,1.02-.14,1.54-.14,.22,0,.45,.01,.67,0,1-.11,1.99-.05,2.99,0,.66,.03,1.33,.04,2-.03,.74-.08,1.48-.02,2.22,0,.18,0,.36,.06,.54,.09,.11,.02,.23,.07,.32,.04,.37-.11,.73-.04,1.09-.03,.14,0,.28-.03,.43,.01,.5,.13,1,.21,1.53,.18,.29-.02,.58,.07,.88,.08,.48,.03,.95,.01,1.43-.09,.61-.13,1.25-.14,1.88-.09,.92,.08,1.84,.06,2.76-.14,.29-.06,.59-.08,.88-.09,.38,0,.69-.24,1.08-.23,.33,.01,.67,.02,.98-.13,.31,.1,.64-.08,.97,.08,.19,.09,.43,.07,.65,.12,.06,.01,.13,.08,.16,.14,.19,.36,.23,.77,.34,1.16,0,.03,0,.07,0,.11-.1,.39-.17,.79-.3,1.18-.16,.5-.43,.94-.9,1.22-.03,.02-.07,.04-.09,.07-.44,.59-1.09,.86-1.73,1.17-.2,.1-.41,.18-.63,.19-.38,.02-.68,.28-1.04,.36-.09,.02-.15,.15-.22,.23-.05,.06-.13,.1-.2,.06-.37-.19-.77-.23-1.18-.18-.33,.05-.66,.01-.97,.17-.15,.08-.36,.05-.55,.05-.52,0-1.04,.02-1.55,.01-.23,0-.44,.05-.63,.16-.21,.12-.42,.11-.62-.03-.12-.09-.26-.14-.41-.09-.61,.22-1.24,.19-1.87,.18-.78,0-1.55-.04-2.33,.02-.48,.03-.96-.04-1.44-.06-.26-.01-.51,.03-.76,.12-.37,.12-.63,.36-.85,.66-.03,.04-.13,.04-.19,.03-.08-.01-.12-.09-.11-.17,.01-.07,.05-.14,.06-.21,.01-.08-.14-.18-.23-.15-.03,.01-.08,.02-.1,.04-.06,.09-.11,.18-.16,.28-.19,.35-.53,.54-.9,.51-.37-.03-.72-.15-1.05-.33-.14-.07-.29-.1-.43-.04-.32,.15-.63,.18-.96,.05-.1-.04-.2,.06-.26,.16-.07,.1-.18,.11-.29,.05-.13-.07-.26-.14-.38-.22-.07-.04-.13-.03-.21,0-.47,.2-.94,.18-1.4,0-.22-.08-.45-.15-.64-.04-.32,.18-.64,.16-.97,.15-.09,0-.15-.04-.13-.09,0-.03,.05-.05,.08-.07,.1-.05,.19-.09,.33-.15Zm6.39-.02s.06,.06,.09,.06c.14,0,.19-.05,.19-.19,0-.03-.06-.08-.06-.08-.06,.03-.12,.07-.17,.12-.02,.02-.03,.06-.05,.09Z"/><path class="cls-3" d="M113.78,140.96c-.18,.06-.22,.1-.19,.19,.02,.07,.06,.13,.09,.2,.05,.09,.15,.19,.04,.29-.08,.07-.18,.15-.27,.16-.22,.04-.44,.05-.63-.11-.42-.36-.78-.5-1.28-.52-.15,0-.29,0-.44-.01l.02,.03c-.07-.08-.13-.22-.21-.23-.44-.06-.87-.15-1.31-.2-.26-.03-.52-.04-.76,.08-.15,.07-.29,.03-.41-.06-.22-.16-.45-.25-.71-.25-.3,0-.58-.05-.86-.17-.28-.12-.58-.09-.87,.02-.05,.02-.16-.02-.18-.07-.1-.25-.35-.27-.55-.32-.24-.07-.51-.07-.76-.08-.34,0-.64-.09-.96-.21-.36-.14-.68-.29-.89-.61-.13-.19-.28-.34-.44-.49-.08-.07-.15-.17-.19-.27-.19-.44-.27-.91-.45-1.35-.06-.16-.02-.37,.14-.5,.16-.12,.21-.26,.15-.48-.06-.25,.17-.55,.39-.57,.55-.06,1.11-.03,1.66,0,.04,0,.08,0,.11,.02,.43,.26,.93,.2,1.39,.31,.48,.12,.96,.12,1.43,.06,.73-.09,1.47-.17,2.21-.15,.11,0,.22-.03,.33-.05,.1-.02,.17-.17,.1-.26-.25-.33-.35-.73-.54-1.09-.12-.24-.13-.5-.02-.75,.09-.2,.17-.41,.19-.63,.03-.28-.02-.48-.35-.59-.52-.17-1.06-.33-1.55-.59-.09-.05-.21-.06-.32-.05-.22,.01-.44,.07-.65,.06-.19,0-.36,.02-.54,.05-.66,.1-1.33,.1-1.98-.09-.11-.03-.21-.06-.31-.11-.4-.19-.79-.39-1.19-.59-.06-.03-.14-.09-.16-.15-.07-.26-.18-.48-.42-.61-.1-.24-.22-.47-.29-.71-.11-.35-.19-.71-.27-1.07-.04-.19-.12-.35-.24-.49-.33-.42-.14-.75,.15-1.08,.04-.05,.13-.05,.2-.06,.03,0,.07,.02,.11,.03,.03,.01,.07,.03,.1,.04,1.15,.66,.92,.57,2.3,.61,.11,0,.22,.01,.33,0,.9-.11,1.76,.08,2.62,.3,.62,.16,1.24,.13,1.87,.05,.06,0,.13-.08,.17-.13,.06-.09,.12-.19,.15-.29,.18-.77,.56-1.44,1.07-2.04,.17-.19,.29-.43,.42-.65,.14-.24,0-.53-.27-.59-.11-.03-.22-.03-.33-.05-.36-.07-.73-.12-1.08-.22-.21-.06-.4-.18-.6-.29-.17-.09-.33-.15-.52-.15-.44,0-.89,.05-1.31-.14-.06-.03-.15,0-.22,.02-.18,.07-.35,.03-.53-.02-.25-.06-.51-.05-.77-.07-.19-.02-.36,.05-.52,.15-.09,.06-.18,.14-.28,.18-.13,.06-.28,.09-.42,.13-.15,.04-.31,.05-.43-.03-.33-.23-.81-.17-1.07-.53-.07-.09-.14-.18-.17-.28-.14-.47-.07-.95,.04-1.42,.01-.06,.09-.13,.16-.14,.71-.18,1.39-.47,2.13-.59,.61-.1,1.21-.3,1.81-.47,.29-.08,.59-.06,.87-.17,.24-.09,.51-.1,.75-.17,.93-.24,1.89-.29,2.81-.58,.38-.12,.81-.07,1.18-.27,.59,.01,1.17-.1,1.76,.11,.46,.17,.95,.12,1.43,.11,.07,0,.16-.02,.21-.05,.22-.15,.48-.16,.74-.21,.18-.03,.37-.08,.52-.18,.38-.25,.73-.26,1.14-.05,.49,.25,1.02,.43,1.52,.66,.37,.17,.73,.35,1.09,.54,.13,.07,.28,.15,.34,.27,.16,.32,.41,.52,.72,.64,.29,.11,.5,.31,.65,.57,.06,.09,.14,.17,.21,.26,.07,.09,.06,.2-.02,.3-.09,.11-.2,.22-.28,.34-.06,.1-.14,.18-.25,.2-.4,.08-.77,.28-1.19,.27-.11,0-.22,.02-.33,.05-.56,.18-1.1,.43-1.66,.6-.17,.05-.34,.15-.5,.25-.16,.1-.33,.15-.53,.14-.22-.02-.45,0-.66-.04-.19-.04-.35-.06-.54-.01-.37,.1-.73,.08-1.09-.05-.14-.05-.28-.08-.43-.1-.34-.03-.66,.02-.95,.3,.11,.12,.23,.24,.34,.36,.13,.13,.25,.27,.38,.41,0,.74,.14,1.46,.39,2.16,.09,.26,.22,.33,.51,.29,.07-.01,.15,0,.22-.03,.11-.03,.21-.06,.31-.11,.74-.31,1.51-.34,2.29-.29,.22,.01,.44,.05,.64,.14,.37,.16,.77,.26,1.09,.53,.11,.09,.26,.14,.4,.18,.18,.05,.33,.14,.47,.27,.15,.15,.35,.26,.53,.39,.25,.19,.34,.62,.17,.89-.14,.21-.3,.41-.45,.62,.04,.18-.06,.24-.22,.29-.35,.12-.68,.3-1.06,.26-.27-.03-.5,.05-.75,.13-.38,.12-.75,.32-1.17,.3-.26,.15-.54,.21-.83,.26-.24,.04-.46,.22-.7,.31-.35,.13-.7,.23-1.05,.35-.29,.11-.53,.48-.51,.79,0,.18,0,.38,.06,.55,.07,.23-.03,.44-.02,.65,.01,.22,.09,.43,.1,.65,0,.22-.05,.44-.08,.66-.01,.09,.09,.2,.19,.24,.35,.12,.72,.18,1.09,.18,.48,0,.96,0,1.44,.04,.48,.04,.97-.02,1.43,.16,.92,.04,1.85,.18,2.76-.03,.48-.11,.95-.09,1.43-.1,.26,0,.5,.13,.7,.29,.19,.15,.17,.4-.03,.53-.37,.23-.43,.36-.33,.71,.03,.11,.1,.21,.11,.31,0,.1-.02,.24-.09,.3-.17,.15-.31,.31-.39,.52-.06,.17-.14,.35-.24,.5-.14,.2-.16,.4-.14,.63,.02,.23-.13,.36-.34,.29-.38-.11-.65,.04-.86,.32-.09,.11-.15,.25-.2,.39-.04,.11-.1,.22-.21,.23-.51,.05-.98,.34-1.51,.26-.18-.03-.35,.07-.53,.14-.39,.15-.67,.45-1.04,.64-.14,.07-.28,.13-.42,.06-.37-.19-.79-.18-1.17-.33-.13-.05-.27-.08-.4-.16-.41-.27-.83-.25-1.25-.02-.06,.03-.13,.08-.2,.1-.23,.06-.44,.04-.56-.21,.06-.03,.14-.04,.16-.08,.03-.05-.03-.1-.09-.07-.06,.03-.08,.09-.05,.17Z"/><path class="cls-3" d="M111.1,141.16c-.14,.24-.15,.25-.39,.2-.03,0-.07-.03-.09-.05-.04-.04,0-.1,.09-.11,.14-.02,.28-.01,.41-.01l-.02-.03Z"/></g><g><path class="cls-3" d="M64.35,118.56c-.06-.06-.13-.11-.17-.17-.15-.25-.18-.25-.38,0l.02-.02c-.28,0-.55,.1-.82,.14-.12,.02-.22,0-.26-.13,.02-.01,.04-.03,.07-.04-.02,.02-.03,.04-.05,.06-.24,0-.47,0-.71,0-.15,0-.31,0-.43-.06-.25-.14-.5-.13-.77-.11-.26,.02-.53,0-.8-.02-.09,0-.18-.01-.26-.05-.19-.09-.39-.12-.6-.11-.39,.02-.68-.17-.89-.48-.15-.21-.35-.4-.38-.68,0-.05-.05-.12-.09-.14-.23-.12-.08-.47-.35-.55-.08-.14-.09-.29-.01-.42,.13-.2,.27-.38,.44-.55,.1-.1,.24-.18,.4-.11,.56,.23,1.15,.23,1.74,.25,.5,.02,1,0,1.5,.12,.16,.04,.35,0,.53,0,.32-.18,.69-.12,1.03-.23,.27-.09,.58-.15,.86-.14,.29,.01,.53-.06,.74-.23,.19-.15,.41-.23,.64-.29,.2-.06,.4-.09,.61-.03,.14,.04,.29,.08,.43,.08,.48-.01,.93,.15,1.4,.19,.11,0,.23,.05,.34,.09,.53,.2,1.08,.27,1.65,.26,.24,0,.47,0,.68-.13,.08-.04,.17-.02,.25,.03,.13,.08,.28,.12,.42,.09,.38-.08,.69,.12,1,.28,.36,.2,.71,.43,1.04,.67,.19,.14,.37,.28,.58,.4,.1,.06,.18,.14,.23,.26,.06,.16,.14,.33,.22,.48,.08,.15,.17,.3,.26,.45-.29,.29-.57,.53-.93,.68-.19,.08-.39,.12-.59,.17-.61,.14-1.22,.17-1.84,.19-.18,0-.36,.02-.52,.07-.3,.09-.59,.09-.87,0-.29-.1-.58-.1-.87-.1-.62,0-1.24-.02-1.86,0-.25,0-.46-.19-.68-.11-.23,.07-.45,.12-.69,.14,0-.07-.03-.12-.09-.13-.11-.02-.22-.03-.33,.04,.15,.02,.29,.04,.43,.06,.09,.08,.17,.16,.26,.24,.11,.1,.2,.21,.24,.36,.04,.14,.09,.28,.14,.42,.06,.18,.05,.35-.04,.51-.04,.08-.08,.16-.12,.24-.09,.16-.13,.32-.14,.51-.03,.48-.16,.92-.49,1.29-.06,.06-.12,.14-.15,.21-.06,.23-.2,.43-.33,.63-.06,.09-.02,.2,.07,.2,.44,0,.89,0,1.33,0,.9-.27,1.82-.1,2.73-.14,.3-.01,.57,.14,.87,.15,.3,0,.59,.02,.89,.05,.09,0,.17,.06,.25,.08,.34,.08,.68,.2,1.03,.27,.32,.06,.61,.23,.93,.3,.32,.06,.64,.12,.95,.21,.25,.08,.49,.21,.77,.2,.08,0,.17,.04,.25,.07,.3,.13,.57,.3,.89,.38,.08,.02,.16,.07,.23,.13,.18,.16,.34,.32,.51,.49,.07,.07,.07,.16,.04,.25-.02,.06-.04,.11-.06,.17,.26,.29,.41,.64,.6,.98,.05,.1,.08,.22,.09,.34,.02,.3,.03,.59,.02,.89-.03,.8-.03,1.6,0,2.4,.01,.38,0,.77,0,1.15,.15,.29-.06,.58,0,.86,.06,.28-.1,.52-.09,.78,0,.03,.01,.07,0,.09-.26,.38-.19,.87-.4,1.26-.03,.05-.04,.11-.04,.17-.04,.29-.02,.59-.09,.87-.06,.28-.25,.53-.31,.82-.03,.14-.09,.28-.13,.42-.03,.11-.02,.26-.08,.34-.25,.31-.26,.72-.45,1.05-.08,.13-.18,.23-.29,.33-.21,.17-.36,.37-.45,.64-.09,.27-.25,.54-.42,.77-.24,.34-.48,.67-.7,1.03-.03,.05-.07,.11-.12,.13-.44,.12-.71,.53-1.15,.64-.09,.02-.17,.03-.25-.02-.05-.03-.1-.06-.15-.09-.09-.07-.19-.14-.28-.21-.09,.06-.16,.11-.24,.15-.09,.06-.12,.05-.21-.05-.04-.04-.06-.11-.11-.13-.18-.1-.37-.17-.55-.27-.07-.04-.13-.13-.15-.21-.05-.14-.08-.29-.09-.43-.01-.24,0-.47,0-.71,0-.08-.07-.19-.14-.21-.17-.04-.34-.09-.52-.11-.14-.01-.3,.05-.44,.03-.35-.05-.7-.13-1.04-.21-.18-.05-.34-.05-.52,.02-.19,.07-.4,.12-.6,.17-.14,.03-.29,.06-.44,.06-.41,0-.83,0-1.24-.04-.2-.02-.4-.02-.6-.02-.18,0-.35,0-.52,.03-.11,.02-.25,.03-.35,0-.43-.16-.88-.1-1.32-.12-.15,0-.3-.02-.44,0-.31,.04-.57-.14-.86-.17-.26-.03-.53-.02-.79-.06-.23-.04-.46-.11-.68-.19-.09-.03-.17-.06-.26-.02-.21,.08-.41,.03-.6-.04-.14-.05-.28-.09-.42-.15-.23-.09-.46-.1-.68-.07-.24,.16-.45,.32-.67,.46-.15,.1-.27,.22-.38,.37-.11,.15-.27,.22-.46,.22-.35,0-.71,.04-1.05-.11-.19-.08-.39-.13-.52-.31-.05-.06-.15-.09-.23-.11-.09-.02-.17-.05-.22-.13-.07-.13-.12-.27-.19-.4-.05-.1-.1-.22-.18-.3-.37-.39-.48-.86-.5-1.38,0-.18-.02-.35-.03-.53-.2-.28-.08-.64-.25-.93-.04-.08-.09-.17-.08-.25,.07-.35-.04-.63-.26-.89-.05-.06-.05-.17-.03-.25,.05-.23,.13-.45,.34-.6,.27-.2,.31-.49,.28-.8-.02-.16-.14-.3-.29-.27-.26,.06-.52,.11-.78,.02-.5-.01-1.01-.06-1.51-.03-.46,.03-.89-.05-1.28-.27-.38-.22-.76-.3-1.19-.28-.57,.03-1.11-.15-1.66-.26-.4-.09-.8-.19-1.2-.31-.34-.1-.69-.15-1.04-.18-.41-.04-.81-.14-1.22-.21-.23-.04-.47-.06-.7-.11-.2-.04-.38-.16-.59-.16-.23,0-.38-.16-.5-.33-.07-.09-.11-.21-.17-.31-.06-.1-.12-.2-.18-.31-.2,.04-.19,.26-.32,.36-.14,.1-.26,.24-.39,.36-.09,.08-.17,.18-.28,.21-.21,.07-.36,.2-.45,.39-.12,.24-.31,.43-.52,.6-.16,.13-.32,.27-.49,.39-.41,.29-.8,.61-1.15,.97-.17,.17-.37,.3-.61,.35-.11,.03-.22,.08-.34,.11-.21,.05-.38,.16-.54,.3-.4,.36-.89,.57-1.38,.77-.16,.07-.35,.07-.51,.13-.31,.1-.61,.22-.91,.34-.36,.13-.72,.26-1.11,.28-.26,.01-.53,.02-.78,.14-.56,.09-1.11,.15-1.65-.07-.16-.07-.35-.07-.52,0-.23,.08-.46,.1-.69,.13-.29,.03-.57,.15-.86,.2-.26,.04-.53,.03-.79,.08-.17,.03-.34,.08-.52,.11-.41,.06-.76-.08-1.1-.26-.07-.04-.13-.12-.17-.2-.07-.16-.14-.32-.26-.46-.08-.09-.11-.2-.14-.32-.04-.17-.11-.34-.13-.51-.03-.17-.07-.36-.03-.53,.13-.49,.15-.99,.19-1.49,0-.06,.12-.17,.18-.17,.03,0,.06-.02,.09-.02,.24-.01,.47,.03,.7-.05,.1-.03,.23,.02,.34,.03,.62,.07,1.24,.08,1.86-.01,.32-.05,.64-.1,.97-.1,.42,0,.83-.07,1.2-.25,.23-.11,.46-.13,.69-.04,.52,.19,1.05,.11,1.57,.02,.41-.07,.8-.21,1.18-.35,.2-.07,.38-.15,.55-.28,.48-.35,.98-.66,1.55-.85,.03,0,.06-.02,.08-.03,.91-.59,1.93-1.03,2.7-1.85,.22-.24,.53-.4,.67-.7,.12-.28,.35-.48,.47-.75,.04-.08,.1-.15,.11-.24,.05-.32,.21-.62,.2-.95,0-.18,.04-.35,.11-.52,.14-.3,.22-.61,.23-.94,0-.11,.04-.23,.09-.34,.28-.62,.4-1.3,.59-1.95,.18-.62,.27-1.27,.5-1.87,0-.3,.16-.57,.19-.86,.04-.3,.16-.57,.22-.86,.01-.06-.06-.2-.12-.22-.06-.02-.11-.05-.17-.05-.4,.04-.75-.12-1.1-.28-.19-.08-.38-.16-.57-.25-.27-.14-.5-.11-.71,.12-.09,.1-.11,.08-.42,0-.02,0-.06,0-.07,0-.14,.28-.39,.22-.62,.19-.14-.02-.28-.1-.42-.12-.18-.03-.36,0-.47,.18-.05,.08-.08,.16-.14,.23-.03,.05-.08,.09-.13,.11-.14,.03-.3-.02-.42,.09-.09,.08-.21,.1-.33,.11-.03-.05-.05-.1-.09-.14-.01-.02-.05-.02-.07-.02-.02,0-.05,.02-.06,.04-.02,.04,.01,.07,.08,.08,.05,0,.11,0,.16,.01-.03,.15-.02,.29,.09,.41,.17,.17,.33,.34,.44,.56,.08,.16,.14,.33,.04,.5-.08,.14-.05,.28,.06,.4,.04,.04,.08,.11,.07,.15-.04,.32-.1,.63-.04,.95-.16,.14-.08,.33-.1,.5-.05,.35-.05,.72-.23,1.03-.12,.2-.02,.4-.09,.6-.02,.05,0,.13,.03,.16,.2,.16,.22,.42,.37,.6,.19,.22,.4,.43,.6,.65,.41,.43,.82,.85,1.23,1.28,.16,.17,.27,.38,.35,.61,.04,.12,.01,.24-.06,.34-.1,.14-.26,.23-.32,.42-.04,.12-.27,.18-.39,.11-.26-.16-.55-.2-.84-.27-.09-.02-.18,0-.26,.02-.26,.08-.47-.03-.65-.19-.38-.32-.75-.66-1.13-1-.06-.06-.14-.1-.22-.15-.02-.01-.06-.01-.09,0-.25,.16-.5,.32-.5,.67,0,.13-.03,.26-.14,.3-.21,.08-.37,.16-.38,.42,0,.12-.1,.21-.18,.3-.1,.11-.16,.25-.18,.4-.02,.18-.13,.24-.3,.25-.12,0-.24,0-.35,.04-.68,.2-1.35,.42-1.97,.75-.33-.05-.59-.27-.92-.33-.14-.02-.26-.13-.38-.21-.19-.13-.37-.31-.63-.27-.21-.11-.42-.22-.61-.35-.06-.04-.11-.15-.12-.23-.02-.18-.02-.35-.02-.53,0-.19-.06-.35-.22-.46-.22-.15-.18-.38-.13-.56,.09-.31,.21-.62,.54-.77,.05-.02,.11-.07,.13-.12,.17-.32,.48-.44,.79-.52,.27-.07,.5-.17,.71-.33,.07-.05,.15-.09,.23-.13,.85-.45,1.39-1.17,1.78-2.03,.09-.19,.17-.37,.27-.56,.18-.34,.31-.69,.32-1.09,0-.42,.24-1.12,.49-1.49,.13-.2,.19-.43,.31-.63,.05-.09-.03-.27-.12-.29-.38-.07-.75-.16-1.12,.04-.07,.04-.18,.06-.25,.04-.2-.06-.41-.09-.59-.16-.24-.1-.48-.21-.74-.27-.05-.01-.09-.08-.12-.12-.04-.07-.06-.19-.12-.23-.22-.12-.26-.29-.21-.52,.07-.32,.1-.64,.17-.96,.05-.23,.11-.46,.21-.67,.19-.4,.25-.84,.4-1.26,.04-.11,.03-.23,.03-.35,0-.43,.22-.47,.59-.33,.19,.07,.39,.14,.58,.21,.54-.3,1.15-.28,1.73-.41,.14-.03,.3,0,.44,.03,.24,.07,.48,.07,.7,0,.24-.08,.38,0,.56,.14,.43,.32,.92,.37,1.43,.26,.14-.03,.29-.08,.43-.08,.86-.01,1.72-.05,2.57,0,.09,0,.18,0,.27,.02,.7,.21,1.41,.09,2.12,.1,.12,0,.22-.09,.26-.21,.1-.28,.18-.56,.29-.83,.1-.25,.24-.47,.34-.72,.2-.53,.36-1.06,.39-1.63,0-.19,.08-.34,.16-.5,.07-.13,.16-.25,.28-.34,.14-.1,.28-.21,.42-.32,.27-.22,.57-.31,.91-.26,.14,.02,.29,.04,.43,.07,.16,.04,.26,.28,.18,.43-.03,.05-.05,.12-.09,.15-.31,.28-.46,.68-.72,1-.09,.11-.17,.26-.18,.4-.04,.3-.15,.57-.27,.84-.13,.3-.25,.6-.34,.91-.06,.2-.08,.4-.11,.61-.01,.06,.09,.2,.14,.2,.32,.01,.65,.02,.98,.04,.33,.01,.65,0,.97,.12,.11,.04,.23,.05,.35,.05,.47,0,.95,0,1.42,0,.15,0,.3,0,.43-.08,.08-.05,.17-.07,.25-.03,.49,.22,1.01,.33,1.52,.47,.3,.08,.54,.24,.7,.5,.03,.05,.06,.11,.11,.13,.35,.12,.42,.39,.41,.7-.01,.3,.02,.59,.14,.87-.1,.13-.3,.2-.28,.42,0,.03-.02,.06-.02,.09-.05,.34-.23,.61-.5,.81-.24,.18-.51,.28-.83,.25-.36-.04-.71,.04-1.03,.2-.34,.17-.69,.17-1.04,.08-.18-.05-.35-.04-.52-.07-.12-.02-.23-.04-.35-.04-1.12,0-2.25,0-3.37,0-.12,0-.24,.01-.35,.04-.05,.01-.12,.06-.14,.1-.05,.14-.08,.28-.11,.43-.04,.14-.12,.29-.11,.43,.04,.51-.22,.98-.19,1.49,0,.15,0,.3-.05,.44-.09,.26-.12,.52-.13,.78,0,.12-.04,.23-.06,.34-.02,.09-.07,.17-.07,.25,0,.48-.13,.93-.17,1.4-.03,.33-.1,.64-.2,.95-.08,.28-.17,.56-.22,.86-.04,.29-.15,.57-.23,.85-.03,.11-.08,.23-.08,.34,.02,.33-.04,.65-.02,.97,.04,.76-.15,.56,.59,1.02,.78,.48,1.61,.72,2.49,.85,.35,.05,.69,.14,1.04,.21,.75,.17,1.49,.35,2.25,.5,.06,.01,.12,.02,.17,.04,.28,.09,.56,.21,.84,.27,.26,.06,.53,.04,.79,.09,.17,.03,.35,.02,.52,.07,.28,.08,.58,.11,.87,.15,.28,.04,.57-.14,.87-.12,.08,0,.17-.04,.24-.09,.15-.09,.31-.17,.45-.28,.19-.15,.37-.14,.58-.07,.09,.03,.17-.03,.18-.13,.02-.3,.07-.58,.2-.85,.05-.1,.02-.23,.05-.35,.02-.08,.05-.19,.11-.23,.19-.13,.25-.32,.31-.52,.02-.09,.02-.19,.06-.26,.2-.32,.19-.67,.21-1.03,0-.19-.07-.34-.16-.49-.09-.14-.06-.23,.12-.35,.11-.07,.21-.14,.2-.26-.02-.43,.18-.8,.35-1.18,.11-.24,.26-.46,.4-.69,.03-.06,.18-.11,.24-.08,.45,.26,.94,.33,1.45,.31,.06,0,.18,.1,.19,.16,0,.03,.01,.06,.02,.09,.07,.39,.04,.76-.16,1.12-.01,.03-.02,.06-.02,.09,.02,.06,.03,.11,.06,.17,.05,.11,.1,.21,.05,.33-.1,.22-.11,.46-.09,.7,.02,.25,.13,.45,.39,.53,.06,.02,.11,.04,.16,.07,.11,.05,.17,.21,.13,.3-.09,.19-.18,.37-.26,.56-.03,.08-.05,.18-.04,.26,.03,.23,.15,.45,0,.68,0,.21,0,.41-.02,.62-.01,.11-.09,.22-.11,.33-.05,.26-.1,.52,.02,.78,.1,.2,.09,.4,0,.6-.06,.12,0,.22,.02,.33,.02,.23-.04,.46,.05,.68-.04,.11-.07,.23-.12,.33-.17,.35-.23,.73-.23,1.12,0,.21,0,.41,0,.62,0,.24-.04,.47-.2,.67-.09,.12-.13,.26-.13,.41,0,.29-.05,.59-.03,.88,.01,.26-.11,.52-.03,.79,.03,.1-.04,.22-.06,.33,0,.02,.05,.07,.05,.06,.16-.08,.33-.14,.47-.24,.56-.35,1.19-.5,1.84-.61,.41-.07,.81-.16,1.21-.24,.06-.01,.11-.05,.16-.07,.06-.03,.12-.16,.09-.23-.18-.38-.17-.81-.26-1.21-.04-.2-.03-.41,0-.62,.12-.82,.11-1.65,.05-2.48-.01-.18-.04-.35,0-.52,.02-.08,.04-.18,.03-.26-.04-.52,.13-.99,.29-1.46,.08-.22,.16-.45,.22-.67,.02-.08,.04-.19,0-.26-.15-.28-.13-.57-.11-.87,0-.12,0-.24,0-.36,.19-.25,.45-.46,.56-.77,.09-.23,.27-.38,.51-.47,.03-.01,.04-.08,.05-.13,0,0-.05-.04-.08-.04-.41,0-.83,0-1.24,0-.35,0-.71,.03-1.05-.11-.05-.02-.12-.01-.17,0-.16,.04-.3,.01-.42-.08-.15-.12-.31-.16-.49-.19-.03,0-.07-.03-.07-.04,0-.05,.01-.11,.04-.15,.06-.06,.14-.11,.21-.15,.12-.08,.14-.18,.1-.3,0-.03,0-.06-.01-.09,.19-.26,.47-.44,.63-.73,.02-.04,.09-.07,.15-.09,.13-.04,.3-.04,.26-.26,0-.02,.02-.05,.04-.06,.29-.07,.55-.2,.86-.22,.38-.02,.75-.19,1.14-.18,.3,0,.4-.2,.49-.43,.01-.03,.03-.05,.03-.08,.06-.28-.03-.6,.24-.83,.13-.26,.27-.53,.4-.79,.33-.31,.48-.74,.68-1.13,.08-.16,.13-.33,.04-.51-.04-.08-.04-.17-.05-.26-.02-.22,.03-.41,.2-.56,.09-.08,.18-.16,.26-.24,.09-.1,.08-.21,.05-.33,.07,.02,.12,0,.15-.05,0-.01-.03-.06-.05-.06-.07,0-.1,.05-.09,.12Zm8.89,10.61h-.01c0-.38,0-.77,0-1.15,0-.09-.06-.17-.14-.21-.16-.08-.31-.17-.49-.18-.18-.01-.36,0-.52-.06-.23-.08-.47-.07-.69-.13-.23-.06-.45-.11-.68-.14-.5-.07-.99-.17-1.46-.33-.11-.04-.23-.05-.35-.06-.06,0-.12,0-.18,0-.16,0-.28,.12-.28,.28-.01,.44-.02,.88-.03,1.33,0,.12,.02,.25-.03,.35-.17,.4-.12,.81-.11,1.22,0,.21,0,.41,0,.62,0,.3-.05,.59-.18,.86-.04,.08-.1,.18-.07,.24,.1,.23-.05,.4-.09,.59-.05,.26-.06,.53-.14,.78-.02,.07,.01,.17,.04,.26,.01,.06,.05,.11,.06,.17,.04,.24,.06,.47-.14,.66-.11,.1-.15,.25-.15,.41,0,.12,0,.24,0,.35,0,.33-.05,.64-.19,.95-.1,.21-.14,.45-.2,.67-.04,.14,.08,.31,.22,.33,.03,0,.06,.02,.09,.02,.42,.03,.81,.15,1.16,.39,.14,.1,.31,.16,.48,.23,.38,.17,.77,.29,1.1,.56,.13,.11,.32,.16,.48,.23,.15,.07,.32,0,.34-.15,.04-.26,.03-.54,.29-.71,.04-.03,.07-.1,.07-.16,0-.19,.12-.33,.19-.49,.09-.21,.23-.42,.21-.67,.17-.38,.15-.81,.3-1.2,.25-.67,.31-1.38,.55-2.05,.02-.05,.04-.12,.03-.17-.03-.33,.19-.62,.18-.95-.01-.34,.17-.62,.22-.94,.04-.29,.12-.57,.12-.87,0-.29,.02-.59,.04-.88Zm-10.42,.51c.06-.28,.21-.49,.46-.63,.13-.07,.25-.15,.38-.22,.18-.11,.38-.16,.59-.14,.18,.01,.35,.02,.53,.06,.29,.07,.57,.15,.82,.31,.36,.06,.65,.26,.9,.52,.07,.07,.14,.04,.19-.05,.12-.22,.08-.47,.16-.69,.08-.22,.22-.43,.27-.65,.06-.23,.11-.46,.19-.68,.05-.13,.04-.29,.04-.44,0-.16-.08-.28-.23-.34-.08-.03-.17-.08-.25-.07-.27,.02-.51-.1-.77-.1-.21,0-.42,.03-.62-.02-.24-.06-.46-.03-.69,0-.08,.01-.17-.03-.25-.06-.11-.05-.22-.1-.34-.07-.18,.05-.35,.02-.52,0-.29-.03-.59-.02-.89-.03-.03,0-.06,.01-.08,.02-.08,0-.13,.12-.09,.2,.07,.16,.16,.32,.22,.48,.06,.18-.07,.34-.07,.52,0,.18-.02,.36-.02,.53,0,.29-.02,.58-.11,.87-.12,.39-.14,.81-.22,1.22-.08,.44-.06,.88-.14,1.32-.05,.26,0,.53,0,.8,0,.06,.03,.11,.04,.17,.03,.11,.16,.22,.26,.19,.23-.06,.45-.13,.69-.13,.11,0,.24-.03,.34-.08,.26-.12,.52-.1,.78-.05,.14,.03,.29,.1,.43,.1,.2,0,.41-.08,.61-.07,.23,0,.46,.07,.7,.11,.06,0,.12,0,.17-.03,.05-.02,.11-.07,.12-.12,.07-.38,.08-.76,.02-1.14-.01-.07-.06-.1-.12-.09-.26,.02-.53,0-.79,.02-.15,0-.28,.02-.43-.02-.24-.06-.44-.17-.62-.33-.32-.28-.69-.45-1.08-.58-.31-.1-.49-.31-.57-.61Zm1.73,7.25c.12-.05,.22,0,.34,.03,.5,.15,.64-.07,.83-.43,.05-.1,.07-.23,.08-.34,0-.18,.04-.34,.1-.51,.1-.28,.14-.57,.2-.86,.03-.13-.15-.28-.29-.25-.09,.02-.17,.04-.25,.07-.11,.03-.22,.08-.34,.09-.65,.02-1.29,.02-1.94,.04-.15,0-.29-.03-.42-.11-.07-.04-.16-.06-.25-.09-.06-.02-.22,.05-.23,.1-.12,.61-.26,1.2-.5,1.78-.06,.15,.05,.29,.22,.28,.39-.03,.76,.07,1.14,.1,.38,.03,.76,0,1.13,.14,.05,.02,.11-.01,.17-.02Z"/><path class="cls-3" d="M38.6,145.4s-.06,0-.09,0c-.16,.08-.32,.13-.51,.06-.22-.09-.44-.17-.67-.22-.32-.07-.65-.05-.96-.16-.07-.03-.17,0-.26,.02-.26,.06-.5,.14-.74,.27-.44,.24-.88,.48-1.26,.81-.07,.06-.12,.05-.23-.04-.07-.06-.13-.12-.19-.17-.15,.05-.3,.09-.43,.15-.08,.04-.13,.11-.19,.17-.04,.04-.08,.09-.13,.11q-.38,.22-.55,.47s-.05,.03-.08,.04c-.05,.02-.11,0-.12-.08-.04-.2-.09-.4-.18-.59-.03-.05-.04-.12-.08-.16-.06-.06-.14-.16-.2-.15-.28,0-.51-.15-.76-.21-.05-.01-.09-.07-.13-.1,.03-.15,.06-.29,.08-.44,.02-.09,0-.18,.04-.26,.3-.64,.37-1.37,.72-1.99,.09-.15,.2-.28,.3-.43,.05-.07,.06-.18,.12-.24,.32-.31,.49-.73,.79-1.06,.22-.24,.46-.45,.78-.57,.17-.06,.32-.15,.48-.22,.2-.09,.21-.16,.09-.43-.02-.05-.06-.11-.06-.16,0-.04,.05-.11,.09-.12,.24-.03,.47,.02,.65,.2,.09,.09,.21,.11,.32,.05,.87-.46,1.67-1.01,2.38-1.69,.11-.1,.18-.22,.24-.36,.08-.19,.17-.38,.29-.54,.26-.36,.41-.79,.73-1.11,.28-.49,.53-.98,.59-1.55,0-.06,.15-.13,.22-.11,.08,.03,.16,.07,.25,.1,.11,.03,.25-.05,.3-.15,.06-.13,.11-.27,.17-.4,.03-.07,.15-.11,.23-.06,.13,.08,.25,.15,.41,.12,.21-.04,.41,0,.61,.08,.27,.11,.54,.23,.83,.3,.24,.05,.41,.24,.51,.46,.06,.12,.13,.19,.25,.23,.08,.03,.09,.07,.05,.14-.02,.05-.04,.12-.02,.16,.05,.07,.11,.15,.19,.17,.6,.14,1.21,.26,1.81,.4,.57,.14,1.14,.31,1.71,.47,.23,.06,.44,.16,.65,.28,.36,.2,.72,.41,1.1,.56,.33,.13,.63,.32,.89,.57,.18,.17,.32,.34,.34,.6,0,.11,.09,.22,.1,.34,.02,.14,.04,.31-.02,.43-.13,.28-.18,.56-.16,.86,.02,.28-.05,.53-.23,.74-.04,.04-.07,.1-.09,.15-.17,.44-.34,.88-.5,1.33-.04,.11-.02,.23-.03,.35,0,.05,.11,.19,.16,.2,.47,.06,.91,.24,1.36,.38,.17,.05,.34,.1,.52,.12,.56,.04,1.09,.25,1.66,.27,.06,0,.12,0,.18,.01,.45,.19,.93,.15,1.4,.16,.12,0,.24,0,.35,.04,.4,.14,.81,.14,1.23,.14,.09,0,.2-.02,.26,.02,.22,.14,.46,.05,.69,.06,.21,0,.41,.05,.62,.07,.24,.02,.47,.02,.71,.02,.71,0,1.42,0,2.13,0,.27,0,.53-.02,.78,.1,.08,.04,.17,.03,.26,.03,.09,0,.18,0,.27,0,.81,.18,1.64,.18,2.46,.3,.23,.04,.47,.04,.71,.04,.47,0,.95,0,1.42,.02,.29,0,.59,.03,.88,.12,.17,.05,.35,.05,.52,.06,.44,.03,.88,.06,1.32,.15,.4,.08,.82,.09,1.22,.18,.2,.04,.41,0,.62,0,.41,.01,.83,.03,1.24,.05,.36,.16,.76,.12,1.13,.22,.47,.12,.94,.06,1.41,.11,.06,0,.12,0,.17-.03,.32-.15,.66-.28,.89-.56,.31-.36,.71-.51,1.17-.53,.06,0,.12,0,.18,0,.13,0,.22,.07,.31,.16,.04,.04,.07,.09,.1,.15,.13,.26,.27,.52,.43,.77,.1,.15,.13,.33,.09,.51-.1,.46-.22,.91-.51,1.31-.3,.4-.57,.83-.84,1.25-.11,.17-.21,.36-.26,.56-.08,.32-.35,.55-.38,.89-.1,.11-.18,.23-.29,.33-.13,.12-.23,.26-.29,.43-.08,.24-.27,.4-.52,.43-.2,.03-.37,.2-.59,.11-.04-.02-.12,.03-.15,.06-.1,.11-.2,.21-.37,.19-.21-.02-.4,.11-.59,.13-.19,.02-.4-.07-.6-.1-.42-.06-.82,.06-1.2,.23-.27,.12-.52,.28-.79,.41-.24,.11-.48,.18-.76,.11-.31-.08-.64-.08-.97-.11-.21-.13-.46-.08-.69-.12-.24-.04-.47-.04-.71,0-.24,.04-.47,.02-.69-.11-.11-.06-.23-.07-.34-.02-.09,.04-.17,.03-.23-.05-.04-.05-.06-.1-.1-.15-.15-.17-.33-.25-.55-.18-.03,0-.06,.02-.08,.03-.13,.04-.23-.03-.33-.08-.14-.07-.06-.19-.06-.3,0-.09-.09-.18-.17-.17-.06,.01-.11,.03-.16,.05-.2,.08-.4,.08-.61,0-.42-.14-.85-.26-1.22-.51-.15-.1-.32-.14-.5-.13-.35,.02-.7-.09-1.06,0-.11,.03-.24,0-.35-.04-.15-.05-.28-.02-.42,.02-.11,.04-.25,.02-.32-.08-.14-.2-.29-.27-.51-.13-.05,.03-.12,.03-.17,.02q-.79-.14-1.29-.05c-.08,.01-.19,0-.25-.05-.14-.12-.28-.21-.48-.14-.22-.1-.46-.1-.69-.12-.13,0-.21-.1-.29-.19-.05-.06-.09-.06-.16-.02-.05,.03-.12,.04-.17,.02-.87-.28-1.77-.41-2.65-.67-.5-.15-1.04-.2-1.52-.46-.05-.03-.11-.04-.17-.04-.6-.05-1.15-.27-1.72-.42-.48-.13-.96-.29-1.46-.35-.09-.01-.18-.03-.26-.06-.41-.18-.84-.26-1.29-.25-.12,0-.23-.04-.35-.06-.23-.05-.4,.02-.52,.22-.03,.05-.05,.12-.1,.14-.15,.07-.25,.14-.16,.32-.05,.07-.08,.17-.15,.21-.21,.1-.3,.27-.3,.49,0,.08-.05,.17-.09,.25-.03,.05-.07,.12-.11,.13-.34,.09-.53,.37-.74,.6-.18,.19-.48,.25-.56,.54-.15,.09-.3,.19-.44,.29-.1,.06-.18,.13-.21,.26-.03,.12-.07,.11-.15-.01-.03-.05-.06-.09-.1-.15-.28,.16-.58,.26-.8,.51h.01c-.17,.16-.3,.35-.4,.57-.04,.08-.1,.15-.2,.15-.2,0-.34,.1-.42,.27-.09,.18-.23,.26-.42,.26-.09,0-.18,0-.27,0-.18,0-.34,.06-.47,.2-.08,.09-.18,.16-.28,.22-.15,.09-.35-.04-.5,.1-.11,.1-.25,.15-.4,.17-.2,.02-.41,.05-.61,.11-.32,.09-.58,0-.8-.24-.02-.02-.03-.05-.05-.07-.13-.13-.17-.14-.3-.08-.14,.06-.27,.12-.4,.18-.08,.04-.2,.01-.23-.05-.14-.26-.36-.46-.52-.7-.14-.21-.29-.36-.51-.46-.09-.04-.15-.22-.1-.31,.08-.16,.14-.32,.1-.51-.05-.23,.04-.39,.24-.51,.09-.05,.12-.19,.08-.23-.04-.04-.08-.09-.13-.11-.26-.06-.51-.11-.77-.17-.29-.07-.37-.23-.24-.51,.05-.11,.11-.21,.17-.31,.09-.12,.21-.21,.36-.23,.14-.03,.29-.02,.44-.04,.17-.03,.35-.07,.51-.13,.28-.1,.54-.22,.84-.26,.2-.03,.39-.14,.55-.28,.24-.22,.53-.37,.81-.53,.56-.32,1.08-.71,1.6-1.09,.19-.14,.39-.28,.5-.49,.08-.16,.3-.2,.33-.39,0-.02-.03-.07-.04-.07-.14,0-.28,0-.42,0-.03,0-.06,0-.09,0-.25-.08-.46-.27-.75-.22-.02,0-.05-.03-.08-.04-.05-.04-.09-.08-.14-.11-.07-.05-.14-.08-.24-.03-.1,.05-.22,.06-.34,.07-.09,0-.16-.06-.18-.15,.08-.04,.1-.07,.04-.06-.01,0-.02,.05-.02,.08Zm3.27-6.72s-.11,.06-.13,.11c-.1,.18-.16,.37-.35,.49-.09,.06-.16,.17-.23,.27-.16,.24-.33,.49-.48,.75-.1,.18-.12,.39-.26,.56-.05,.06,0,.2,.08,.21,.14,.03,.29,.05,.43,.1,.36,.14,.72,.24,1.1,.32,.37,.08,.74,.17,1.12,.22,.38,.05,.75,.14,1.12,.24,.27,.07,.38,.01,.5-.22,.22-.45,.44-.9,.65-1.35,.03-.05,.03-.11,.05-.17,.05-.16,0-.29-.16-.36-.65-.27-1.34-.43-2.02-.62-.08-.02-.17,0-.26,.01-.09,.02-.17,.06-.25,.09-.22,.06-.41,.02-.56-.16-.13-.16-.24-.33-.36-.49Z"/><path class="cls-3" d="M51.56,126.73c-.06,0-.17,.02-.23-.03-.23-.15-.51-.13-.76-.22-.42-.15-.81-.34-1.12-.69-.26-.29-.54-.55-.81-.82-.17-.17-.25-.17-.42,.03-.19,.22-.38,.45-.56,.68-.21,.26-.49,.41-.8,.52-.37,.13-.75,.12-1.13,.16-.47,.04-.87-.1-1.26-.32-.03-.01-.05-.03-.08-.04-.18-.08-.3-.3-.54-.22-.19-.09-.34,.04-.5,.08-.14,.03-.28-.13-.24-.28,.09-.31,.18-.62,.43-.85,.13-.12,.21-.28,.29-.44,.18-.38,.44-.69,.74-.99,.31-.31,.65-.6,.91-.96,.18-.11,.3-.28,.41-.45,.14-.22,.3-.45,.48-.63,.35-.35,.49-.8,.72-1.21,.05-.1,.06-.23,.06-.34,0-.18,.03-.35,.12-.51,.06-.11,.12-.2,.25-.23,.11-.03,.23-.06,.33-.11,.06-.03,.1-.02,.17,0,.14,.04,.29,.1,.43,.08,.51-.07,.99,.14,1.48,.19,.3,.03,.54,.23,.75,.44,.1,.1,.18,.23,.26,.35,.09,.12,.12,.27,.11,.42-.01,.21-.05,.41-.05,.62,0,.3-.06,.58-.22,.84-.04,.07-.04,.17-.06,.25-.02,.12-.07,.22-.16,.3-.2,.18-.37,.39-.46,.64-.08,.23-.28,.38-.39,.58-.01,.02,0,.05,0,.08,.01,.02,.04,.05,.06,.06,.74,.44,1.37,1.02,2.09,1.49,.24,.16,.44,.39,.65,.59,.13,.13,.15,.39,.05,.58-.01,.03-.03,.06-.05,.07-.27,.17-.56,.32-.93,.3Z"/><path class="cls-3" d="M68.72,119.01s-.09,.03-.14,.04c-.02,0-.04-.03-.05-.05,.05-.01,.09-.03,.14-.04,.01,0,.03,.03,.05,.05Z"/><path class="cls-3" d="M63.8,118.38s.05,.03,.08,.04c-.02-.02-.04-.04-.06-.06l-.02,.02Z"/></g></g><g><path class="cls-4" d="M184.35,149.45s0,0,0,0c0,0,0,0,0,0,0,0,0,0-.01,0,0,0,0,0,0,.01Z"/><path class="cls-4" d="M188.03,148.31c-.07-.01-.13-.02-.2,0-.08,.02-.16,.06-.26,.03-.07-.01-.15,.04-.22,.07-.09,.05-.15,.13-.15,.24,0,.13-.02,.26-.02,.39,0,.15,.06,.21,.22,.23,.08,0,.16,0,.24,0,.18,0,.36,0,.53,.05,.12,.04,.25,.05,.38,.08,.05,0,.09,.02,.13,.05,0-.04,.01-.08,.02-.12,.03-.08,.03-.18,.02-.26-.04-.21-.04-.42-.12-.62-.01-.04-.02-.08-.03-.12-.17,.03-.35,.02-.54-.02Z"/><path class="cls-4" d="M184.34,149.63c0-.07,0-.12,0-.18-.07,.04-.06,.1,0,.18Z"/><path class="cls-4" d="M186.37,145.41s0,.01-.01,.02c0,0,0,0,0,0,0,0,0,0,0,0,0,0,0-.01,0-.02Z"/><path class="cls-4" d="M185.23,144.04s-.01,.01-.02,.02c0,0,0,0,0,0,0,0,0,0,0,0,0,0,0-.02,.01-.02Z"/><path class="cls-4" d="M188.69,150.29s0-.1,0-.14c0-.02,0-.04,0-.07-.04,0-.08,.01-.12,.04-.02,0-.05,.02-.06,.01-.1-.08-.19,.08-.28,.02-.09-.05-.18,.05-.26-.04,.05-.08,.11-.16,.16-.24-.12-.12-.14-.13-.25-.14-.15,0-.3-.02-.44-.05-.06-.02-.13,.05-.11,.1,.06,.23,0,.48,.07,.71,.04,.12,.03,.26,.02,.39,0,.18-.19,.26-.35,.18-.05-.03-.1-.06-.16-.08-.27-.1-.37-.19-.54-.48-.03-.06-.09-.1-.13-.15-.2,.25-.4,.49-.7,.6-.14,.05-.19,.03-.26-.1-.02-.04-.05-.09-.07-.13,.02-.24,.15-.4,.36-.51,.12-.06,.19-.17,.27-.28,.09-.13,.19-.26,.27-.39,.05-.08,.08-.18,.13-.26,.07-.12,.16-.23,.23-.34,.03-.05,.05-.11,.09-.17-.16-.02-.27,.06-.38,.12-.12,.06-.25,.11-.32,.24-.11-.02-.21-.04-.28-.11-.01-.09,.03-.15,.07-.22,.35-.05,.65-.23,.95-.39,.09-.14,.02-.29,.05-.44,0-.03-.04-.09-.08-.12-.08-.05-.18-.09-.27-.13-.04-.02-.06-.09-.01-.13,.03-.03,.08-.06,.12-.07,.05-.02,.12-.03,.17-.05,.11-.05,.18-.12,.17-.25,0-.08,0-.16,0-.24,0-.07-.02-.11-.09-.14-.04-.02-.06-.06-.03-.1,.02-.03,.06-.07,.09-.07,.1,0,.2-.01,.3,0,.18,.02,.28,.15,.28,.33,0,.04-.01,.08-.02,.12,0,.03,0,.06,0,.1,.08,.02,.15,.04,.22,.06,.1,.03,.13,.14,.06,.21-.05,.05-.11,.09-.17,.11-.08,.03-.13,.09-.15,.17-.03,.11-.1,.22-.05,.35,.06-.01,.13-.02,.19-.04,.06-.02,.12-.07,.19-.09,.06-.02,.13,.02,.2-.01,.19-.1,.39-.03,.58,.01,.09,.02,.17,.05,.25,.08,0-.02,.02-.04,.03-.06,.05-.08,.08-.16,.08-.25,0-.17,.04-.34,.13-.49,.06-.11,.08-.23,.11-.35,.03-.13,.04-.27,.06-.41,.01-.09,.04-.17,.05-.26,.05-.33,.08-.66,.09-.99,0-.18-.01-.35-.07-.53-.07-.21-.16-.41-.18-.63,0-.08-.06-.15-.1-.22-.07-.12-.18-.19-.28-.26-.11-.08-.15-.18-.16-.3,0-.02,0-.05,0-.07-.09-.15-.19-.3-.26-.46-.01-.03-.03-.06-.06-.08-.1-.07-.21-.15-.32-.21-.31-.17-.43-.25-.7-.5-.05-.04-.1-.09-.15-.12-.19-.09-.39-.16-.61-.14-.19,.01-.39,.02-.58,.06-.23,.05-.46,.09-.7,.07-.04,0-.08,0-.12,0-.11,0-.21,0-.31-.04-.07-.03-.16-.05-.23-.05-.16,0-.33-.04-.47,.07-.04,.03-.08,0-.12,0-.25-.03-.31-.02-.51,.07-.14,.06-.27,.14-.36,.28-.04,.05-.07,.11-.09,.17-.09,.19-.19,.37-.3,.55-.07,.11-.15,.21-.22,.31-.12,.19-.28,.35-.45,.5-.1,.09-.2,.19-.26,.32-.08,.16-.15,.32-.22,.49-.03,.06-.04,.12-.05,.19-.03,.16-.07,.32-.06,.48,0,.07-.01,.15-.03,.22-.05,.24-.11,.47-.17,.71-.02,.08-.03,.16-.04,.25,.04-.07,.09-.12,.18-.14,.05-.01,.1-.04,.15-.06,.3-.19,.59-.38,.9-.56,.11-.06,.23-.11,.35-.14,.15-.04,.24-.12,.29-.26,.12-.34,.25-.68,.32-1.03,.03-.14,.03-.29-.03-.43-.02-.04-.03-.09,.02-.12,.05-.03,.11-.03,.15,.01,.04,.04,.09,.1,.09,.16,0,.18,0,.36-.01,.54-.02,.16-.06,.32-.1,.48-.03,.11-.07,.22-.11,.34,.09,.08,.18,.09,.29,.08,.04-.1,.03-.21,.05-.32,0-.01,.02-.04,.03-.04,.02,0,.06,0,.07,.02,.04,.08,.08,.16,.11,.25,.04,.1,.07,.21,.1,.3-.04,.14-.07,.28-.12,.42-.05,.14-.11,.27-.16,.41,0,.05,.03,.1,.09,.11,.12,.03,.2,.1,.26,.21,.04,.09,.12,.15,.18,.24,.03,.03,.04,.08,.05,.11-.08,.1-.18,.11-.28,.08-.12-.03-.24-.07-.36-.1-.08-.02-.15-.09-.22-.14-.14,.06-.26,.13-.4,.17-.15,.04-.3,.06-.44,.11-.05,.02-.12-.02-.19-.03,.12-.15,.28-.23,.44-.3,.11-.05,.21-.11,.29-.22-.05-.03-.1-.07-.14-.07-.1,0-.19-.07-.29-.02-.03,.02-.11-.05-.11-.1-.01-.14-.03-.27,.08-.38,.03-.03,.05-.07,.07-.11,.02-.04,.03-.08,.04-.12-.17-.02-.3,.02-.41,.15-.15,.18-.36,.27-.54,.41-.05,.05-.12,.08-.17,.13-.15,.15-.32,.18-.52,.08,0,.03,0,.06,0,.1,0,.17,.02,.33,0,.5-.01,.15-.01,.32,.05,.47,.02,.04,.02,.08,.03,.12,.07,.31,.14,.61,.27,.9,.07,.16,.1,.34,.12,.52,.02,.14,.01,.27,.03,.41,.02,.19,.08,.49,.16,.65,.08,.15,.16,.3,.27,.44,.07,.09,.14,.18,.19,.28,.08,.15,.19,.26,.33,.36,.18,.12,.38,.22,.58,.3,.14,.05,.27,.11,.4,.17,.15,.08,.3,.16,.41,.3,.21,.27,.54,.38,.82,.54,.11-.01,.17,.09,.27,.11,.19,.03,.34,.15,.49,.23,.01,.05,.02,.09,.03,.15,.13,.02,.23,.03,.33,0,.07-.03,.14-.02,.21,0,.06,.02,.13,.03,.19,.02,.22-.04,.45-.06,.64-.21,.06-.04,.13-.06,.18-.12,.06-.07,.15-.03,.22-.04,.02,0,.03-.01,.04-.02,.1-.04,.18-.1,.26-.18,.15-.13,.26-.29,.33-.47,.02-.04,.03-.07,.07-.09,.27-.17,.47-.42,.66-.66,.07-.1,.15-.22,.11-.36,0-.04,0-.08,.01-.12,.04-.14,.03-.27,0-.41,0-.05,0-.09,0-.14Zm-4.44-4.78c.35-.09,.7-.18,1.07-.28,0-.03-.01-.06-.03-.09-.05-.06-.14-.08-.18-.16,0-.02-.06-.02-.09-.03-.04-.01-.08-.02-.14-.03,.02-.07,.03-.14,.05-.19,.03-.07,.07-.15,.12-.21,.1-.13,.15-.28,.15-.44-.03,0-.07,0-.1,.02-.05,.02-.09,.06-.14,.09-.21,.12-.48,.17-.72,.02,0-.04,.02-.06,.06-.07,.17-.03,.33-.1,.47-.2,.14-.09,.3-.16,.44-.26,.15-.1,.33-.15,.51-.04,.08,.04,.17,.07,.25,.11,.07,.03,.11,.09,.11,.17,0,.08-.02,.16-.07,.23-.13,.16-.25,.34-.37,.5-.08,.1-.16,.19-.25,.28,.09,.07,.18,.14,.27,.22,.17-.01,.33-.06,.5,0,.03,.01,.07,0,.11,0,.26-.09,.48-.02,.68,.15,.08,.06,.17,.11,.19,.22-.02,.09-.1,.12-.16,.11-.21-.05-.39,.03-.57,.11-.1,.04-.17,.03-.25-.04,.06-.08,.12-.17,.18-.25-.15-.06-.3-.09-.46-.03-.05,.09-.01,.16,.02,.24,.13,.32,.16,.66,.17,1.01,0,.22-.09,.38-.22,.54-.02,.02-.06,.04-.07,.03-.09-.05-.15,.03-.23,.03-.05,0-.1,0-.15,0-.09,0-.19-.02-.28,.02-.18,.08-.32-.05-.47-.13-.01,0-.02-.03-.03-.05-.03-.11-.06-.22-.09-.35,.05,0,.1,0,.14,.02,.11,.04,.21,.01,.31-.04,.15-.08,.29-.19,.4-.32,.08-.1,.15-.2,.14-.34,0-.13,0-.27,0-.41,0-.03-.02-.06-.04-.1-.2,0-.37,.09-.55,.11-.18,.03-.34,.11-.49,.18-.11-.03-.19-.08-.26-.18,.02-.04,.03-.09,.06-.15Zm.35,4.58c-.1-.12-.18-.21-.28-.33,0,.1,.06,.18-.03,.25-.07,.06-.12,.13-.18,.21-.12-.08-.21-.16-.32-.21-.05-.02-.12,0-.13-.08-.04-.24-.17-.44-.26-.67,.19-.38,.38-.77,.67-1.1,.08,.06,.11,.14,.11,.23,0,.09,.02,.18,.1,.26,.07,0,.15,0,.22,.02,.12,.01,.23,.05,.33,.13,.1,.08,.15,.07,.22-.02,.04-.05,.05-.12,.13-.1,.09,.02,.12,.08,.15,.16,.07,.22,.02,.41-.1,.59-.07,.11-.16,.21-.22,.32-.09,.17-.22,.27-.41,.35Z"/><path class="cls-4" d="M184.36,149.44s.05,0,.01-.04c0,.01,0,.03-.01,.04Z"/><path class="cls-4" d="M186.61,149.46c-.07,.29-.22,.48-.25,.72q.25,.12,.41,.09s.02-.07,.02-.11c-.01-.17-.02-.34-.05-.5,0-.05-.06-.09-.13-.2Z"/><path class="cls-4" d="M183.24,146.11c.04-.11,.08-.22,.12-.33,.01-.04,.02-.09-.03-.13h-.22c-.15,.12-.23,.26-.3,.43,.1,.04,.17,.1,.27,.11,.07,0,.13-.02,.15-.08Z"/></g><g><path class="cls-1" d="M90.5,70.6c-.33-.65-.7-1.27-1.07-1.9-.18-.3-.45-.43-.79-.29-.33,.13-.47,.4-.38,.75,.02,.07,.04,.15,.07,.22,.03,.09,.07,.18,.11,.27,.09,.17,.17,.34,.26,.52,.23,.45,.46,.9,.68,1.36,.85,1.58,2.2,3.7,4.13,5.33,.57,.42,1.09,.78,1.58,1.17,.02,.01,.04,.03,.05,.04,2.53,1.65,4.63,2.03,4.72,2.05,.2-.01,.36-.12,.47-.35,.15-.31,.11-.59-.17-.79-.21-.15-.46-.27-.71-.37-1.32-.52-2.65-1-3.83-1.86-2.23-1.62-3.88-3.71-5.12-6.14Z"/><path class="cls-1" d="M99.13,65.45c.18-.07,.35-.2,.42-.38,.07-.18,.03-.38,0-.56-.02-.11-.06-.23-.14-.31,0,0-.02-.02-.03-.02-.04-.03-.09-.05-.14-.07-.51-.22-1.07-.21-1.61-.32-.31-.06-.62-.13-.93-.19-.37-.08-.75-.22-1.13-.21-.2,0-.38,.06-.55,.16-.12,.07-.38,.19-.41,.34-.03,.18,.38,.32,.52,.38,.18,.09,.36,.17,.54,.26,.46,.22,.92,.44,1.4,.63,.63,.26,1.38,.55,2.05,.29Z"/><path class="cls-1" d="M111.94,62.01c.03-.36-.34-.46-.62-.48-1.67-.06-3.22,.67-4.42,1.8-.13,.12-.26,.25-.35,.41-.13,.24-.1,.47-.01,.71,.3,.82,1.34,.99,2,.5,.29-.21,.49-.55,.52-.89,.02-.01,.04-.02,.05-.04,.09-.09,.17-.18,.27-.26,.05-.04,.1-.09,.15-.13,0,0,.02-.02,.02-.02,.02-.01,.04-.03,.05-.04,.2-.16,.41-.31,.62-.45,.02-.02,.05-.03,.07-.05,0,0,.01,0,.03-.02,.01,0,.03-.02,.04-.02,.03-.02,.06-.04,.1-.05,.11-.06,.22-.12,.33-.17,.03-.01,.05-.03,.08-.04,.02,0,.1-.04,.03-.01,.02,0,.03-.01,.04-.02,.03-.01,.05-.02,.08-.03,.12-.05,.25-.09,.37-.14,.08-.03,.35-.15,.41-.28,.07-.08,.13-.18,.14-.29Z"/><path class="cls-1" d="M110.73,65.94c-.58,0-1.03,.45-1.03,1.02,0,.57,.46,1.02,1.03,1.02,.57,0,1.02-.45,1.02-1.03,0-.58-.45-1.02-1.02-1.02Z"/><path class="cls-1" d="M95.43,67.98c0,.55,.44,1.01,.99,1.02,.57,0,1.01-.45,1-1.03,0-.56-.46-1.01-1-1-.53,0-.99,.47-.99,1.02Z"/><path class="cls-1" d="M141.08,75.07c-.18-1.95-1.26-2.77-2.74-3.87-2.16-1.59-4.51-3-6.89-4.23-2.22-1.15-4.44-2.41-6.7-3.53,.1,0,.19,0,.29,0,.67-.12,1.27-.41,1.66-.96,.29-.41,.53-.84,1.02-1.07,.15-.07,.27-.23,.36-.38,0-.01,.01-.02,.02-.03,.45-.74,.77-1.52,.75-2.41,0-.11,.02-.24,.07-.34,.02-.04,.04-.07,.07-.09,.3-.27,.56-.57,.78-.88,.66-.94,.97-2.04,1.11-3.21,.3-2.57-.46-4.76-2.44-6.48-.17-.15-.21-.28-.16-.52,.35-1.86,.06-3.62-.97-5.22-.23-.36-.44-.7-.53-1.14-.3-1.49-1.14-2.62-2.4-3.47-.15-.1-.28-.24-.37-.4-.47-.76-1.01-1.48-1.76-1.95-.64-.4-1.37-.65-2.05-.99-.19-.09-.39-.26-.47-.45-.33-.78-.81-1.41-1.57-1.8-.39-.2-.67-.5-.87-.9-.16-.33-.35-.68-.62-.92-.89-.84-1.94-1.39-3.17-1.59-.13-.02-.28-.09-.37-.18-.45-.44-.86-.91-1.33-1.33-.55-.49-1.2-.76-1.95-.84-.49-.05-1.02,.02-1.47-.32-.31-.23-.65-.42-1-.59-.97-.46-1.95-.43-2.91,.01-.27,.13-.47,.12-.73,0-.99-.47-2.02-.81-3.07-.27-.75,.38-1.47,.74-2.36,.79-1.01,.06-1.91,.56-2.71,1.2-.1,.08-.27,.17-.39,.15-1.24-.27-2.29,.11-3.13,1.01-.45,.48-.91,.74-1.58,.64-.18-.03-.37,.03-.55,.08-1.81,.41-3.49,1.03-4.54,2.74-.2,.32-.51,.62-.84,.79-.57,.31-1.22,.47-1.79,.78-.63,.34-1.12,.79-1.48,1.32-.36,.53-.6,1.14-.73,1.83-.04,.22-.09,.42-.21,.6-.04,.06-.1,.11-.16,.16-.56,.41-1.01,.91-1.39,1.48-.13,.19-.24,.38-.35,.59-.58,1.08-.79,2.24-.71,3.45,0,.12,0,.2-.05,.28-.05,.07-.11,.13-.22,.18-.31,.17-.64,.37-.87,.62-.38,.41-.71,.84-.98,1.28-.81,1.32-1.08,2.79-.57,4.47,.07,.22,0,.53-.12,.74-.51,.87-.8,1.82-.88,2.81-.1,1.26,.03,2.51,.3,3.76,.44,2.02,1.57,3.43,3.52,4.18,.13,.05,.23,.29,.28,.46,.15,.47,.19,.98,.42,1.41,.22,.41,.48,.81,.74,1.21h0s.13,.28,.42,.63c.13,.16,.3,.33,.5,.5-2.12,1.11-4.31,2.07-6.44,3.16-2.02,1.04-4.56,2.07-6.29,3.56-3.09,2.65-3.38,7.49-1.99,11.16,.31,.83,1.66,.47,1.34-.37-.61-1.61-.56-3.49-.65-5.2-.15-2.9,2.14-4.68,4.45-5.87,3.65-1.88,7.46-3.61,11.04-5.63,.03,0,.05-.01,.05-.03,.67,.27,1.51,.53,2.5,.67,.28,.04,.57,.06,.86,.07,.06,0,.11,.01,.16,.03,1.02,.05,2.16-.02,3.42-.32,.95-.38,1.77-.91,2.45-1.63,.01-.01,.03-.03,.04-.04,.11-.12,.21-.24,.3-.37,.07-.09,.13-.18,.19-.27,.05-.08,.11-.16,.16-.24,.13-.21,.25-.43,.36-.66,.12-.24,.28-.47,.36-.72,.03-.08,.06-.14,.1-.2,.14-.18,.35-.22,.62-.21,.46,.01,.94,.04,1.37-.08,1.15-.32,2.09-.89,2.79-1.75,.11-.13,.21-.27,.3-.41,.03-.04,.06-.09,.08-.14,.07-.11,.13-.22,.19-.33,0-.02,.02-.04,.03-.05,.03,0,.05,0,.08,.01,1.26,.83,2.82,1.05,4.39,.84,.15-.02,.31-.05,.46-.08,.43-.04,.85-.15,1.23-.35,.52-.2,1.02-.45,1.45-.78,.26,.03,.52,.04,.78,.03,.06,0,.12-.01,.18-.02,.64,.05,1.32-.1,1.91-.39,.18-.01,.36-.04,.54-.07,.87,.87,1.93,1.48,3.39,1.55,.33,.02,.47,.17,.55,.47,.32,1.2,1.01,2.16,1.97,2.94,.6,.49,1.28,.76,2.04,.75,.37,0,.48,.15,.55,.46,.12,.49,.19,1,.61,1.38,.06,.06,.12,.1,.16,.15,.13,.1,.27,.19,.42,.28-.24,.57-.49,1.14-.7,1.72-1.06,2.87-2.58,5.38-4.77,7.44-1.16,1.09-2.51,1.76-3.86,2.48-.25,.14-.5,.29-.71,.49-.27,.25-.29,.57-.09,.91,.14,.24,.32,.35,.53,.35,.1-.03,2.28-.67,4.78-2.78,.02-.02,.03-.04,.05-.05,.48-.49,.99-.95,1.55-1.48,1.87-2.03,3.07-4.56,3.8-6.42,.19-.53,.39-1.07,.58-1.6,.09-.27,.16-.48,.22-.65,.12-.14,.24-.29,.37-.43,.24-.28,.48-.57,.75-.83h0s.49-.71,1.45-1.24c1.79,.86,3.46,1.94,5.24,2.84,2.04,1.04,4.06,1.98,6.02,3.18,1.79,1.09,4.95,2.42,5.64,4.56,.7,2.19,0,5.54-.46,7.7-.19,.88,1.06,1.22,1.34,.37,.04-.12,.08-.23,.12-.35,.04-.13,.05-.25,.02-.35,.43-2.25,.67-4.62,.46-6.89Z"/><path class="cls-1" d="M115.81,85.82c.14-.71-.16-1.17-.68-1.55-.84-.6-1.74-1.08-2.76-1.31-.59-.13-1.19-.23-1.79-.28-.34-.03-.58,.18-.62,.56-.04,.4,.23,.5,.53,.58,.64,.17,1.28,.31,1.91,.52,.58,.19,1.15,.44,1.7,.71,.33,.16,.34,.39,.06,.59-.4,.29-.81,.62-1.26,.77-1.21,.4-2.45,.71-3.68,1.06-.27,.08-.4-.03-.38-.29,.03-.63,.02-1.27,.14-1.88,.28-1.42,.18-2.78-.48-4.08-.26-.53-.5-1.07-.74-1.61-.36-.84-.06-2.14,.59-2.78,.22-.21,.41-.47,.54-.75,.32-.65,.16-1.36-.38-1.83-.56-.49-1.31-.56-1.91-.19-.41,.25-.57,.64-.4,.99,.15,.32,.46,.41,.94,.29,.19-.05,.39-.06,.66-.09-.18,.68-.61,.96-1.11,1.14-.81,.29-1.65,.26-2.48,.16-1-.12-1.95-.31-2.4-1.41-.13-.33-.59-.37-.88-.16-.32,.24-.37,.58-.18,.9,.23,.39,.54,.74,.78,1.12,.07,.11,.13,.29,.09,.41-.46,1.41-.29,2.76,.39,4.05,.29,.55,.63,1.07,.91,1.62,.35,.68,.37,1.38,.03,2.09-.22,.47-.42,.95-.63,1.44-1.77-1.3-3.59-2.62-5.42-3.96,.62-.5,.71-.72,.51-1.23-.32-.81-.61-1.01-1.38-.95-.43,.03-.86,.08-1.29,.06-.23,0-.48-.08-.66-.21-.72-.52-1.42-1.08-2.12-1.63-.69-.54-1.36-1.1-2.06-1.63-.48-.37-1.04-.18-1.13,.36-.06,.35,.16,.58,.41,.77,.94,.74,1.89,1.48,2.83,2.22,.09,.07,.17,.15,.25,.23-.02,.04-.03,.07-.05,.11-.27-.09-.57-.14-.81-.29-.97-.61-1.91-1.26-2.87-1.89-.39-.26-.78-.53-1.19-.77-.33-.2-.67-.13-.87,.14-.21,.28-.18,.65,.09,.91,.13,.12,.28,.21,.43,.31,.38,.26,.77,.51,1.16,.76-.37,.04-.72,0-1.06-.02-.57-.05-.9,.14-1.09,.68-.18,.5-.35,1.02-.5,1.53-.11,.34-.31,.58-.63,.74-.15,.07-.3,.15-.46,.23-.05-.21-.2-.4-.45-.49-1.27-.45-2.41-1.02-3.7-.35-.51,.26-.93,.74-1.31,1.28-.08-.04-.18-.06-.28-.06-1.31,0-2.49,.14-3.71,.61-1.68,.65-2.78,1.75-4.72,1.59-.9-.07-.89,1.32,0,1.39,1.09,.09,2.49-.09,3.44-.66,1.51-.9,2.76-1.44,4.44-1.53-.19,.32-.37,.62-.55,.87-.53,.73,.68,1.43,1.2,.7,.62-.86,1.12-1.79,1.8-2.6,.71-.86,1.66-.46,2.53-.1-.16,.08-.31,.16-.47,.24-.23,.12-.37,.29-.43,.46-.94,.85-1.27,2.05-1.44,3.35-.37,2.75-.05,5.52-.48,8.28-.14,.88,1.21,1.26,1.34,.37,.31-1.96,.42-3.92,.41-5.9,0-1.68-.23-4.33,1.44-5.33,.14-.09,.24-.2,.29-.32,.66-.32,1.32-.64,1.98-.98,.49-.25,.87-.61,.99-1.2,.08-.39,.23-.77,.35-1.15,.07-.22,.17-.34,.44-.27,.34,.08,.69,.09,1.04,.16,1.7,.34,3.4,.73,5.16,.5,.14-.02,.3,.09,.55,.18-.25,.12-.38,.19-.51,.25-.95,.42-1.89,.84-2.85,1.25-.38,.16-.63,.44-.72,.81-.05,.21,.03,.5,.15,.69,.15,.25,.43,.25,.69,.13,.42-.21,.84-.42,1.27-.62,.15-.07,.3-.13,.5-.21-.59,1.92-1.16,3.77-1.74,5.61-.06,.18-.23,.35-.39,.46-.33,.21-.71,.33-1.03,.55-.78,.53-1.53,.58-2.33,.02-.42-.29-.89-.25-1.33,.03-.88,.54-1.78,1.06-2.66,1.62-.23,.15-.47,.35-.59,.59-.09,.17-.05,.47,.05,.65,.06,.12,.34,.17,.51,.15,.19-.02,.38-.12,.56-.22,.6-.34,1.18-.7,1.78-1.04,1.09-.63,1.09-.64,2.2,0,.43,.25,.81,.25,1.25,0,.75-.42,1.52-.81,2.31-1.15,.52-.23,.82-.57,.94-1.11,0,0,.14-.46,.32-1.05,.15-.48,.32-1.05,.46-1.5,.1-.34,.19-.61,.23-.74,.06-.21,.13-.41,.19-.62,.24-.79,.5-1.59,.76-2.45,.68,.42,1.3,.8,1.91,1.2,1.48,.97,2.96,1.96,4.44,2.94,.1,.07,.2,.12,.31,.19,0,.03-.01,.07-.02,.1-.09,.02-.17,.04-.26,.05-.72-.05-1.43-.1-2.15-.15,0,0-.02,0-.03,0-.42-.06-2.62-.12-3.01-.41,.2-.33,.43-.64,.71-.92,.62-.65-.37-1.64-.99-.99-.83,.88-1.34,1.84-1.61,3.02-.19,.82,.05,1.56,.39,2.27,.13,.46,.34,.99,.66,1.59,.23,.45,.45,.87,.66,1.29,.87,1.1,1.96,1.97,3.34,2.48,.34,.12,.68,.27,1.02,.39,.28,.1,.43,.28,.48,.59,.09,.65,.23,1.3,.3,1.95,.09,.75,.46,1.27,1.15,1.57,.12,.06,.24,.12,.36,.18,1.7,.73,3.47,.83,5.28,.61,.46-.06,.91-.16,1.33-.3,.69-.24,1.32-.61,1.87-1.12,.11-.1,.21-.2,.31-.31,.39-.42,.57-.9,.55-1.47-.03-.55-.03-1.11-.08-1.66-.03-.35,.09-.52,.41-.67,1.42-.67,2.46-1.8,3.12-3.17,.95-1.99,1.34-4.14,1.18-6.36-.03-.43-.15-.88-.07-1.28Zm-10.08-7.87c.19-.02,.37-.02,.59-.04-.04,.38-.18,.77-.1,1.1,.16,.66,.42,1.29,.68,1.92,.32,.75,.83,1.43,.89,2.27,.03,.45,.04,.91-.02,1.36-.16,1.06-.37,2.12-.14,3.23-.42,.09-.78,.15-1.13,.24-.28,.07-.4-.04-.35-.31,.1-.58,.15-1.18,.34-1.73,.58-1.67,.28-3.23-.49-4.74-.18-.36-.42-.69-.58-1.06-.18-.42-.36-.87-.45-1.32-.1-.53,.21-.87,.76-.92Zm-2.88,2.1c-.18-.54-.17-1.16-.16-1.75,.01-.57,.31-.67,1.09-.4-.37,1.24,.04,2.3,.68,3.33,.5,.8,.9,1.66,1,2.61,.04,.35,.05,.75-.07,1.08-.38,1.08-.59,2.17-.52,3.44-.23-.07-.44-.08-.55-.19-.61-.56-.76-1.38-.34-2.09,.83-1.42,.66-2.79-.15-4.15-.36-.61-.76-1.22-.98-1.88Zm4.12,20.78c-1.42,.16-2.83,.08-4.19-.38-.11-.04-.23-.07-.34-.12-.41-.18-.73-.39-.76-.92-.02-.47-.16-.94-.24-1.38,1.43,.12,2.82,.37,4.2,.31,1.38-.06,2.75-.42,4.17-.66,.02,.43,.07,.91,.06,1.39,0,.19-.14,.41-.28,.55-.7,.76-1.62,1.09-2.62,1.21Z"/></g></g><g><path class="cls-2" d="M73.72,172.23h-2.38v-10.37h2.38v.87h-1.28v8.63h1.28v.87Z"/><path class="cls-2" d="M75.28,168.56c.65,.53,1.41,.79,2.28,.79,1.12,0,1.68-.38,1.68-1.15,0-.22-.06-.42-.19-.6-.12-.18-.29-.33-.5-.47-.21-.13-.62-.35-1.24-.64-.76-.36-1.29-.73-1.59-1.11-.3-.37-.45-.82-.45-1.32,0-.73,.29-1.3,.86-1.72,.58-.42,1.31-.63,2.2-.63s1.49,.1,1.92,.31v1.34c-.52-.36-1.17-.54-1.95-.54-.5,0-.9,.1-1.21,.3-.31,.2-.46,.47-.46,.82,0,.32,.11,.58,.34,.78,.22,.2,.7,.48,1.42,.82,.84,.39,1.42,.79,1.74,1.18,.32,.39,.48,.85,.48,1.36,0,.76-.27,1.35-.83,1.75-.55,.4-1.32,.61-2.3,.61-.36,0-.76-.04-1.2-.13-.44-.09-.78-.2-1.01-.35v-1.41Z"/><path class="cls-2" d="M84.06,162.93h0v6.31h0v1.07h-1.31v-1.07h0v-6.31h0v-1.07h1.31v1.07Z"/><path class="cls-2" d="M93.83,170.31h-1.46l-4.04-6.23c-.15-.23-.26-.43-.33-.59h-.03c.03,.22,.05,.63,.05,1.23v5.59h-1.27v-8.45h1.55l3.92,6.11c.19,.29,.31,.49,.37,.61h.03c-.04-.26-.06-.67-.06-1.21v-5.5h1.28v8.45Z"/><path class="cls-2" d="M102.37,169.98c-.63,.32-1.41,.47-2.36,.47-1.22,0-2.2-.38-2.94-1.15-.74-.77-1.1-1.78-1.1-3.05s.41-2.4,1.22-3.25c.82-.85,1.87-1.28,3.16-1.28,.81,0,1.49,.11,2.03,.34v1.33c-.6-.33-1.26-.5-1.98-.5-.92,0-1.66,.3-2.21,.91-.56,.61-.83,1.4-.83,2.38s.26,1.69,.78,2.27c.52,.58,1.22,.87,2.1,.87,.81,0,1.53-.19,2.15-.56v1.24Z"/><path class="cls-2" d="M109.24,170.31h-4.68v-8.45h4.49v1.12h-3.18v2.49h2.95v1.12h-2.95v2.6h3.37v1.12Z"/><path class="cls-2" d="M119.47,170.31h-5.25v-1.07l2.45-2.41c.55-.53,.95-1,1.21-1.39s.39-.81,.39-1.27c0-.94-.5-1.4-1.48-1.4-.74,0-1.46,.31-2.14,.93v-1.23c.69-.5,1.48-.75,2.37-.75,.77,0,1.39,.21,1.85,.62,.46,.41,.69,.98,.69,1.69,0,.52-.15,1.03-.44,1.54-.29,.51-.8,1.12-1.52,1.81l-1.88,1.79v.03h3.75v1.11Z"/><path class="cls-2" d="M134.46,170.31h-5.25v-1.07l2.45-2.41c.55-.53,.95-1,1.21-1.39s.39-.81,.39-1.27c0-.94-.5-1.4-1.48-1.4-.74,0-1.46,.31-2.14,.93v-1.23c.69-.5,1.48-.75,2.37-.75,.77,0,1.39,.21,1.85,.62,.46,.41,.69,.98,.69,1.69,0,.52-.15,1.03-.44,1.54-.29,.51-.8,1.12-1.52,1.81l-1.88,1.79v.03h3.75v1.11Z"/><path class="cls-2" d="M121.52,166.25c0-1.48,.25-2.61,.76-3.38,.51-.77,1.24-1.15,2.21-1.15,1.84,0,2.75,1.44,2.75,4.33,0,1.41-.25,2.5-.75,3.26s-1.23,1.15-2.18,1.15-1.61-.36-2.08-1.08-.7-1.76-.7-3.13Zm1.3-.05c0,2.15,.52,3.23,1.57,3.23s1.54-1.1,1.54-3.3-.5-3.38-1.51-3.38c-1.07,0-1.6,1.15-1.6,3.45Z"/><path class="cls-2" d="M141.54,170.31h-4.98v-1.07h1.85v-6.1l-1.9,.51v-1.12l3.18-.83v7.55h1.84v1.07Z"/><path class="cls-2" d="M145.88,172.23h-2.38v-.87h1.28v-8.63h-1.28v-.87h2.38v10.37Z"/></g></g></g></g></svg>