<?xml version="1.0" encoding="UTF-8"?><svg id="_圖層_2" xmlns="http://www.w3.org/2000/svg" viewBox="0 0 486.31 298.04"><defs><style>.cls-1{fill:#fff;}.cls-2{fill:#122d55;}.cls-3{fill:#122c52;}.cls-4{fill:#132c53;}.cls-5{fill:#0f2c51;}</style></defs><g id="_圖層_1-2"><g><g><polygon class="cls-1" points="136.37 294.92 346 294.92 283.4 255.09 295.21 244.17 299.34 236.54 307.61 234.14 315.25 223.13 310.26 202.08 249.25 165.26 190.35 199.76 190.6 219.75 194.64 231.35 203.91 236.25 209.78 249.26 217.44 254.39 207.5 258.1 136.37 294.92"/><path class="cls-5" d="M241.18,207.27c.67-.29,1.27-.82,1.5-1.54,.23-.7,.07-1.47-.11-2.19-.11-.44-.24-.89-.57-1.19-.04-.03-.07-.06-.11-.09-.16-.11-.34-.19-.52-.27-1.94-.78-4-.65-6.02-.99-1.16-.2-2.32-.4-3.47-.59-1.41-.24-2.82-.74-4.25-.64-.75,.05-1.39,.29-2.02,.72-.42,.29-1.4,.8-1.46,1.38-.08,.72,1.47,1.19,1.99,1.42,.69,.31,1.37,.61,2.06,.92,1.75,.78,3.5,1.57,5.29,2.25,2.38,.91,5.21,1.92,7.69,.82Z"/><path class="cls-5" d="M279.36,201.83c.48-.31,1.93-1,1.75-1.7-.15-.56-1.19-.91-1.65-1.14-.68-.33-1.36-.46-2.1-.4-1.44,.12-2.75,.83-4.11,1.28-1.11,.37-2.23,.75-3.34,1.12-1.94,.65-4,.83-5.8,1.9-.17,.1-.33,.21-.47,.34-.03,.03-.07,.07-.1,.11-.27,.34-.33,.82-.38,1.26-.07,.74-.11,1.52,.22,2.18,.34,.67,1.02,1.1,1.72,1.29,2.62,.7,5.26-.72,7.47-1.99,1.66-.95,3.27-1.99,4.88-3.03,.63-.41,1.26-.82,1.9-1.23Z"/><path class="cls-5" d="M180.28,205.4l-5.14-3.25c-.67-.69-1.22-1.37-1.64-1.99-.97-1.4-1.34-2.44-1.34-2.45h0c-.84-1.53-.51-2.22-1.19-3.81,0,0-.57,.14-1.93,.05-3.39-.23-11.53-8.38-11.42-16.31,.07-4.77,2.84-3.91,1.83-8.11s.71-3.59,2.74-6.69c.48-.73,.81-1.88,.63-2.7-1.37-6.35-.01-11.72,3.19-16.41,1.07-1.57,2.35-3.06,3.8-4.49,.91-.9,2.1-1.56,3.26-2.1,.38-.18,.64-.38,.82-.62,.16-.27,.23-.59,.23-1.02,.03-4.51-4.95-6.56-2.61-10.41,.44-.72,.91-1.42,1.41-2.09,1.48-2.01,3.22-3.75,5.31-5.14,.25-.17,.45-.35,.63-.56,.48-.62,.71-1.37,.9-2.17,.63-2.52,1.64-4.73,3.06-6.59,1.42-1.89,3.27-3.43,5.58-4.53,2.1-1,4.44-1.43,6.54-2.43,1.22-.58,2.41-1.6,3.2-2.73,4.15-6.05,10.28-7.92,16.82-9.01,.65-.11,1.36-.28,1.98-.14,2.32,.52,4.03-.31,5.76-2,3.2-3.11,7.03-4.25,11.37-2.96,.4,.12,1.02-.16,1.41-.44,3-2.17,6.33-3.8,9.91-3.77,3.18,.02,5.8-1.13,8.57-2.36,3.9-1.72,7.46-.2,10.84,1.77,.91,.53,1.61,.61,2.6,.21,3.52-1.42,7.01-1.27,10.32,.66,1.19,.7,2.37,1.48,3.39,2.41,1.5,1.36,3.39,1.22,5.12,1.53,2.64,.47,4.86,1.66,6.69,3.59,1.56,1.65,2.9,3.52,4.39,5.24,.31,.37,.81,.66,1.27,.77,4.3,1.02,7.88,3.32,10.83,6.64,.87,.98,1.47,2.31,1.96,3.57,.59,1.54,1.52,2.7,2.84,3.54,2.59,1.66,4.13,4.1,5.11,7.06,.23,.7,.9,1.38,1.54,1.77,1.91,.65,2.31,1.44,2.31,1.44,.39,.2,1.16-.31,1.22,1.89,.02,.65,.72,1.16,1.21,1.56,4.25,3.42,3.27,1.75,3.93,7.32,.2,1.68,3.68,4.62,4.4,6.01,3.24,6.2,3.87,7.86,2.13,14.66-.22,.87-.12,1.36,.45,1.95,6.6,6.84,5.79,16.61,5.79,16.61,0,0,1.83,10.3-.76,13.62-.86,1.1-1.85,2.13-2.99,3.07-.1,.08-.18,.2-.26,.33-.2,.35-.3,.84-.32,1.23-.14,3.31-1.5,6.11-3.27,8.74-.03,.04-.05,.07-.08,.11-.37,.53-.84,1.08-1.38,1.3-1.79,.73-1.84,4.84-3,6.3-1.52,1.93-3.71,2.87-6.13,3.14-.36-.03-.7-.03-1.05-.04-3.69,.18-3.45,2.99-3.45,2.99,0,0,1.6,5.47-5.48,4.23-7.08-1.24,0,0,0,0-1.01,.89-.79,1.62-2.87,2.9-2.08,1.28-6.42-.51-6.42-.51l-.67-.39c-.48-.36-.08-.1-.53-.5-.15-.19-.33-.38-.53-.6-1.4-1.48-1.16-.88-1.44-2.73-.18-1.19-.52-1.77-1.83-1.84-2.72-.14-5.06-1.33-7.06-3.28-3.2-3.12-5.41-6.82-6.25-11.34-.21-1.12-.67-1.73-1.82-1.87-5.13-.64-8.75-3.14-11.62-6.57-.65,.07-1.31,.12-1.95,.11-2.17,.95-4.61,1.31-6.87,.98-.22,0-.43,.02-.65,.02-.93,0-1.86-.11-2.77-.29-1.62,1.1-3.46,1.94-5.36,2.53-1.4,.62-2.92,.94-4.47,.98-.56,.07-1.11,.13-1.66,.17-5.62,.4-11.07-.81-15.35-4.18-.1-.02-.19-.05-.29-.07-.04,.07-.08,.13-.12,.19-.24,.41-.5,.8-.76,1.19-.11,.16-.22,.33-.33,.48-.37,.51-.76,.99-1.17,1.44-2.69,3-6.2,4.88-10.35,5.79-1.56,.34-3.25,.12-4.87-.04-.97-.1-1.71,0-2.25,.64-.15,.19-.28,.42-.4,.71-.37,.91-1,1.71-1.47,2.58-.45,.83-.94,1.61-1.46,2.35-.2,.29-.42,.57-.63,.85-.25,.32-.5,.65-.76,.96-.38,.44-.77,.88-1.17,1.28-.05,.05-.1,.1-.15,.15-2.58,2.52-5.65,4.28-9.1,5.44-4.53,.79-2.58-1.4-6.18-1.84-.16-.07-.34-.11-.55-.13-1.03-.1-2.03-.27-3.03-.47-3.49-.77-6.4-1.94-8.7-3.11-.03,.06-.1,.09-.19,.1"/><path class="cls-5" d="M250.96,268.43c-15.69,0-30.7-6.41-41.86-18.83-13.68-15.22-12.6-46.3-12.54-47.62,.05-1.25,1.09-2.23,2.36-2.18,1.25,.05,2.23,1.11,2.18,2.36-.01,.3-1.06,30.56,11.38,44.4,10.25,11.41,24.06,17.3,38.52,17.3,9.96,0,20.22-2.8,29.84-8.51,17.61-10.46,22.12-35.76,23.25-46.15,.09-.81,.33-2.96,2.47-2.87,2.15,.1,2.19,2.25,2.2,3.05,0,.38-.08,.74-.24,1.06-1.6,13.88-7.03,37.92-25.36,48.81-10.37,6.16-21.44,9.18-32.2,9.18Z"/><path class="cls-5" d="M265.79,276.87c-.11,0-.23,0-.34-.03-1.24-.19-2.09-1.35-1.9-2.59l1.49-9.77c.19-1.24,1.35-2.09,2.59-1.9,1.24,.19,2.09,1.35,1.9,2.59l-1.49,9.77c-.17,1.12-1.14,1.93-2.24,1.93Z"/><path class="cls-5" d="M230.84,276.85c-.08,0-.15,0-.23-.01-1.25-.12-2.16-1.24-2.03-2.49l.97-9.73c.12-1.25,1.24-2.16,2.48-2.03,1.25,.12,2.16,1.24,2.03,2.49l-.97,9.73c-.12,1.17-1.1,2.04-2.26,2.04Z"/><path class="cls-5" d="M201.14,237.42c-.3,0-.6-.06-.88-.18-14.35-6.07-10.4-25.76-10.23-26.59,.26-1.23,1.46-2.01,2.69-1.76,1.23,.26,2.01,1.46,1.76,2.68-.04,.18-3.35,16.87,7.55,21.49,1.15,.49,1.69,1.82,1.21,2.98-.37,.87-1.21,1.39-2.09,1.39Z"/><path class="cls-5" d="M301.26,239.85c-1.08,0-2.04-.77-2.23-1.87-.22-1.23,.6-2.41,1.83-2.64,11.65-2.09,12.12-19.11,12.12-19.28,.02-1.25,1.05-2.25,2.31-2.23,1.25,.02,2.25,1.05,2.23,2.31-.01,.85-.52,20.92-15.86,23.67-.14,.02-.27,.04-.4,.04Z"/><path class="cls-5" d="M173.72,188.03s-3.16,3.27,1.06,10.63c0,0-.94,12.09,6.26,16.92,0,0,.15,11.36,11.48,12.41,0,0-1.24-12.08-1.2-12s2.27-16.52,2.27-16.52l-19.87-11.43Z"/><path class="cls-5" d="M334.22,194.74s2.27,3.67-2.83,10.3c0,0-1.29,12.03-8.61,15.74,0,0-2.13,11.15-12.52,10.55,0,0,3.25-11.7,3.19-11.63s.87-16.58,.87-16.58l19.9-8.38Z"/><path class="cls-4" d="M204.03,199.91s-1,10.91,2,16.19l-5.81-1.33-3.81-14.86h7.61Z"/><path class="cls-4" d="M299.99,208s1,10.91-2,16.19l5.81-1.33,3.81-14.86h-7.61Z"/><path class="cls-3" d="M206.14,219.59c-.07,0-.13,0-.2-.02l-5.02-1.22c-.46-.11-.74-.57-.63-1.03,.11-.46,.57-.74,1.03-.63l5.02,1.22c.46,.11,.74,.57,.63,1.03-.09,.39-.44,.65-.83,.65Z"/><path class="cls-3" d="M206.14,222.49c-.07,0-.13,0-.2-.02l-5.02-1.22c-.46-.11-.74-.57-.63-1.03,.11-.46,.57-.74,1.03-.63l5.02,1.22c.46,.11,.74,.57,.63,1.03-.09,.39-.44,.65-.83,.65Z"/><path class="cls-3" d="M297.77,227.19c-.38,0-.73-.26-.83-.65-.11-.46,.17-.92,.63-1.03l5.02-1.22c.46-.11,.92,.17,1.03,.63,.11,.46-.17,.92-.63,1.03l-5.02,1.22c-.07,.02-.14,.02-.2,.02Z"/><path class="cls-3" d="M296.83,230.33c-.38,0-.73-.26-.83-.65-.11-.46,.17-.92,.63-1.03l5.02-1.22c.46-.11,.92,.17,1.03,.63,.11,.46-.17,.92-.63,1.03l-5.02,1.22c-.07,.02-.14,.02-.2,.02Z"/><path class="cls-5" d="M221,258.34c-7.12,1.56-9.46,11.37-9.46,11.37,0,0-6.38,18.65,5.13,25.21,0,0,6.37-15.14,13.73-11.1,7.37,4.04,8.6,11.1,8.6,11.1l-8.36-31.63s-2.54-6.51-9.65-4.95Z"/><path class="cls-5" d="M267.47,264s-1.92,22.11-10.17,30.36c0,0,23-19.67,27.32-10.79,5.09,14.01,13.37,11.33,13.37,11.33,0,0-5.4-6.45-14.65-23.84-9.25-17.39-15.87-7.05-15.87-7.05Z"/><path class="cls-5" d="M221.95,219.93c-.26,0-.51-.11-.68-.33-.29-.37-.22-.91,.16-1.19,.33-.25,8.13-6.09,19.62-.61,.42,.2,.6,.71,.4,1.14-.2,.42-.71,.6-1.14,.4-10.51-5.02-17.56,.2-17.85,.42-.15,.12-.34,.17-.52,.17Z"/><path class="cls-5" d="M221.95,215.27c-.26,0-.51-.11-.68-.33-.29-.37-.22-.91,.16-1.19,.33-.25,8.13-6.09,19.62-.61,.42,.2,.6,.71,.4,1.14-.2,.42-.71,.6-1.14,.4-10.51-5.02-17.56,.2-17.85,.42-.15,.12-.34,.17-.52,.17Z"/><circle class="cls-5" cx="232.81" cy="219.94" r="3.97"/><path class="cls-5" d="M261.89,211.21c-.11,0-.23-.02-.34-.07-4.16-1.81-4.02-5.14-3.37-6.65,.19-.43,.69-.63,1.12-.44,.43,.19,.63,.68,.44,1.11-.12,.29-1.07,2.87,2.49,4.42,.43,.19,.63,.69,.44,1.12-.14,.32-.45,.51-.78,.51Z"/><path class="cls-5" d="M224.15,224.2c-.47,0-.85-.37-.85-.84,0-.47,.37-.86,.84-.86l16.15-.18s0,0,0,0c.47,0,.85,.37,.85,.84,0,.47-.37,.86-.84,.86l-16.15,.18s0,0,0,0Z"/><path class="cls-5" d="M284.84,219.93c-.18,0-.36-.06-.52-.18h0c-.29-.22-7.34-5.44-17.85-.42-.43,.2-.93,.02-1.14-.4-.2-.42-.02-.93,.4-1.14,11.49-5.49,19.3,.36,19.62,.61,.37,.29,.44,.82,.16,1.19-.17,.22-.42,.33-.68,.33Z"/><path class="cls-5" d="M284.84,215.27c-.18,0-.36-.06-.52-.18h0c-.3-.22-7.34-5.44-17.85-.42-.43,.2-.93,.02-1.14-.4-.2-.42-.02-.93,.4-1.14,11.49-5.49,19.3,.36,19.62,.61,.37,.29,.44,.82,.16,1.19-.17,.22-.42,.33-.68,.33Z"/><circle class="cls-5" cx="275.18" cy="219.94" r="3.97"/><path class="cls-5" d="M282.64,224.2s0,0,0,0l-16.15-.18c-.47,0-.85-.39-.84-.86,0-.47,.39-.84,.85-.84,0,0,0,0,0,0l16.15,.18c.47,0,.85,.39,.84,.86,0,.47-.39,.84-.85,.84Z"/><path class="cls-5" d="M232.26,229.79c-3.43,0-6.22-1.13-6.42-1.21-.43-.18-.64-.68-.46-1.11,.18-.43,.68-.64,1.11-.46,.07,.03,7.13,2.87,12-.85,.37-.29,.91-.21,1.19,.16,.29,.37,.21,.91-.16,1.19-2.29,1.75-4.92,2.28-7.26,2.28Z"/><path class="cls-5" d="M275.11,229.25c-4.22,0-7.8-1.99-8.01-2.11-.41-.23-.55-.75-.32-1.16,.23-.41,.75-.55,1.16-.32,.07,.04,6.72,3.73,12.01,.65,.41-.24,.93-.1,1.16,.31,.24,.41,.1,.93-.31,1.16-1.87,1.09-3.84,1.47-5.69,1.47Z"/><path class="cls-5" d="M253.79,249.01c-1.94,0-3.51-.41-3.51-2.05s1.57-5.65,3.51-5.65,3.51,4.02,3.51,5.65-1.57,2.05-3.51,2.05Z"/><path class="cls-5" d="M253.94,253.9c-3.43,0-5.94-1.87-5.98-1.9-.25-.19-.3-.54-.11-.79,.19-.25,.55-.3,.79-.11,.2,.15,5.05,3.73,10.3-.01,.26-.18,.61-.12,.79,.13,.18,.26,.12,.61-.13,.79-1.99,1.41-3.94,1.89-5.67,1.89Z"/><path class="cls-5" d="M257.02,239.34c-.18,0-.35-.08-.46-.24-.02-.03-1.2-1.62-2.83-1.73-.98-.07-1.98,.42-2.95,1.44-.22,.23-.58,.24-.8,.02-.23-.22-.24-.58-.02-.8,1.22-1.28,2.51-1.88,3.86-1.79,2.18,.15,3.61,2.12,3.67,2.21,.18,.26,.12,.61-.13,.79-.1,.07-.22,.11-.33,.11Z"/><g><path class="cls-1" d="M157.71,185l-4.75-22.77s6.94-6.12,11.13,8.95c4.19,15.07-6.37,13.81-6.37,13.81Z"/><path class="cls-5" d="M158.27,186.45c-.42,0-.69-.03-.73-.03-.61-.07-1.1-.52-1.22-1.12l-4.75-22.77c-.1-.5,.07-1.02,.45-1.35,.11-.09,2.67-2.3,5.91-1.34,3.23,.96,5.76,4.65,7.52,10.98,1.65,5.94,1.32,10.32-.99,13-2,2.33-4.86,2.63-6.19,2.63Zm-3.73-23.57l4.32,20.7c.97-.09,2.44-.43,3.46-1.63,1.61-1.9,1.75-5.49,.39-10.38-1.43-5.15-3.41-8.35-5.57-9.01-1.05-.32-2.01,0-2.61,.32Z"/></g><path class="cls-5" d="M219.19,254.94s-13.51-8.87-22.77,2.1c0,0-7.58-4.15-19.69,1.72-12.11,5.87-23.21-1.72-23.21-1.72l-14.38,37.87h73.07s-11.52-11.21-6.18-25.62c5.34-14.41,13.16-14.36,13.16-14.36Z"/><g><path class="cls-1" d="M131.95,251.12l24.18-45.88,5.98-45.8,12.94-27.94s7.6,1.14,.5,20.4c-6.14,19.42-7.15,19.25-7.15,19.25l4.9-12.28,6.2-11.28s9.14-12.51,12.68-11.25c0,0,1.93,3.59,.55,6.74,0,0,5.37-1.99,4.37,2.44-1,4.43-5.4,8.77-5.4,8.77l-5.39,9.96s-2.6,10.48-3.38,10.07l5.15-5.91s3.76-4.28,5.51-5.3c2.24-1.3,9.05-3.96,9.99-3.04,1.28,1.26-1.25,8.37-6.04,9.36-3.41,2.76-6.38,5.94-6.38,5.94,0,0-1.57,3.88-4.51,10.27,0,0,2.95,12.93-13.18,26.29l-12.67,45.52s-8.91,42.19-27.19,35.75c-18.28-6.44-1.66-42.08-1.66-42.08Z"/><path class="cls-5" d="M137.36,295.29c-1.39,0-2.8-.25-4.22-.75-3.75-1.32-6.44-3.86-7.99-7.53-5.39-12.83,5.07-35.53,5.52-36.49,0-.02,.02-.04,.03-.06l24.06-45.66,5.95-45.55c.02-.14,.06-.28,.12-.41l12.94-27.94c.26-.57,.88-.9,1.5-.81,.21,.03,2.1,.38,3.44,2.64,1.67,2.83,1.73,7.28,.19,13.28,3.21-4.3,9.89-12.38,13.75-11.02,.33,.12,.61,.36,.78,.67,.07,.13,1.41,2.67,1.19,5.56,1.02-.07,2.16,.08,3,.81,.66,.58,1.34,1.7,.87,3.8-.98,4.35-4.8,8.45-5.63,9.31l-5.21,9.63c-.26,1.03-.5,1.96-.72,2.81l.08-.09c.4-.46,3.97-4.49,5.86-5.59,.09-.05,9.51-4.98,11.7-2.82,1.07,1.05,.81,2.9,.41,4.27-.91,3.09-3.35,6.51-6.8,7.42-2.72,2.24-5.15,4.73-5.81,5.42-.39,.94-1.85,4.46-4.25,9.67,.4,2.61,1.25,14.57-13.4,26.91l-12.54,45.05c-.36,1.7-6.33,28.86-18.75,35.84-1.97,1.11-4,1.66-6.06,1.66Zm-4.14-43.54c-.42,.92-10.28,22.68-5.46,34.16,1.24,2.95,3.3,4.89,6.31,5.95,2.77,.98,5.37,.75,7.95-.7,11.43-6.42,17.32-33.72,17.38-34,0-.03,.01-.06,.02-.09l12.67-45.52c.08-.28,.24-.53,.46-.71,15.28-12.66,12.73-24.76,12.7-24.88-.07-.31-.04-.63,.1-.91,2.9-6.27,4.47-10.16,4.49-10.2,.07-.16,.16-.31,.28-.44,.12-.13,3.08-3.29,6.52-6.07,.18-.14,.38-.24,.61-.29,1.55-.32,3.05-1.6,4.14-3.5,.79-1.39,1.07-2.6,1.1-3.23-1.66,.2-6.09,1.8-8.19,3.02-1.13,.65-3.76,3.42-5.15,5.01l-4.55,5.22c-.43,.8-.73,.93-.99,1.05-.44,.2-.93,.18-1.34-.04-.38-.2-.65-.57-.73-.99-.08-.43,.04-.87,.33-1.19l.4-.46c.62-1.4,1.8-5.51,2.67-9.01,.03-.12,.07-.23,.13-.33l5.39-9.96c.07-.12,.15-.24,.25-.33,.04-.04,4.12-4.11,5.01-8.07,.16-.73,.06-1.01,.03-1.04-.27-.24-1.55-.12-2.52,.24-.53,.19-1.13,.05-1.52-.36-.39-.41-.5-1.02-.27-1.54,.76-1.75,.2-3.77-.2-4.81-1.72,.51-6.24,4.8-10.53,10.65l-6.1,11.09c-4.46,13.44-5.31,13.29-6.44,13.1-.42-.07-.79-.33-1-.7-.21-.37-.24-.82-.08-1.22l4.83-12.11c.67-1.99,1.42-4.32,2.28-7.05,0-.02,.01-.04,.02-.06,4.02-10.89,3.05-15.38,2.12-17.09-.2-.37-.42-.65-.63-.85l-12.21,26.38-5.95,45.59c-.02,.17-.07,.33-.15,.48l-24.17,45.85Z"/></g><path class="cls-5" d="M280.3,260.66s4.03,1.48,12.21,16.94,19.1,17.39,19.1,17.39h51.29l-10.17-23.34s-18.91-12.77-28.37-8.16c0,0-12.13-5.3-21.61-4.26,0,0-10.22-4.85-16.09-4.85s-6.36,6.27-6.36,6.27Z"/><g><g><path class="cls-1" d="M322.67,150.92s-11.94-8.43-6.6-19.09l13.11,13.98,10.39,22.87-5.31,6.56-11.59-24.33Z"/><path class="cls-5" d="M334.26,176.67c-.06,0-.11,0-.17,0-.48-.06-.9-.36-1.11-.8l-11.43-24c-4.49-3.32-11.3-11.58-6.74-20.66,.21-.41,.61-.7,1.06-.77,.46-.07,.92,.1,1.24,.43l13.11,13.98c.11,.11,.19,.24,.26,.38l10.39,22.87c.22,.49,.15,1.06-.19,1.48l-5.31,6.56c-.27,.34-.68,.53-1.1,.53Zm-17.7-42.24c-2.53,8.49,6.52,15.04,6.93,15.33,.2,.14,.36,.33,.46,.55l10.62,22.3,3.34-4.13-9.93-21.86-11.43-12.19Z"/></g><g><path class="cls-1" d="M321.92,168.87l-13.78-8.63s-5.56,7.62,9.82,16.17l8.44,5.73s-8.81,25.02,6.17,32.47l16.01,53.33s4.54,31.16,23.02,28.5c18.48-2.66,.14-36.98,.14-36.98l-26.91-48.6-3.08-38.74-14.23-22.5-22.15-10.83s-2.31,8.64,12.51,13.83l7.07,9.07,2.9,9.08-5.92-1.9Z"/><path class="cls-5" d="M369.32,298.04c-17.24,0-21.79-27.5-22.14-29.78l-15.8-52.66c-13.59-7.37-8.2-27.94-6.66-32.88l-7.5-5.1c-6.54-3.65-10.33-7.64-11.26-11.88-.82-3.73,.96-6.23,1.03-6.33,.44-.6,1.27-.76,1.9-.37l13.63,8.54,3.12,1-1.98-6.21-6.66-8.55c-15.44-5.58-13.12-14.99-13.02-15.4,.11-.41,.4-.75,.78-.92s.83-.17,1.21,.02l22.15,10.83c.24,.12,.44,.29,.58,.52l14.23,22.5c.12,.19,.2,.42,.22,.65l3.06,38.44,26.76,48.34c.51,.96,12.23,23.11,6.88,33.69-1.53,3.02-4.24,4.84-8.05,5.39-.85,.12-1.68,.18-2.47,.18Zm-60.56-135.73c-.19,.71-.3,1.7-.02,2.9,.54,2.34,2.7,5.96,9.9,9.96,.04,.02,.07,.04,.11,.07l8.44,5.73c.53,.36,.75,1.04,.54,1.64-.08,.24-8.22,23.93,5.46,30.73,.35,.17,.61,.49,.73,.86l16.01,53.33c.02,.07,.03,.13,.04,.2,.04,.3,4.56,29.73,21.41,27.3,2.88-.42,4.82-1.68,5.93-3.86,4.69-9.26-6.72-30.83-6.84-31.05l-26.9-48.59c-.1-.18-.16-.37-.17-.57l-3.06-38.4-13.83-21.86-19.82-9.69c.35,2.51,2.35,7,11.64,10.26,.26,.09,.48,.25,.65,.47l7.07,9.07c.1,.13,.18,.28,.23,.44l2.9,9.08c.16,.51,.03,1.06-.35,1.44-.38,.38-.93,.51-1.44,.35l-5.92-1.9c-.11-.04-.22-.09-.32-.15l-12.4-7.77Z"/></g></g><path class="cls-5" d="M219.19,294.92s6.47-11.92,11.65-8.32c5.18,3.59,5.95,8.32,5.95,8.32h-17.6Z"/><path class="cls-5" d="M260.7,295.11s17.37-13.77,20.67-10.32,3.83,9.24,9.38,10.32h-30.05Z"/></g><g><g><path class="cls-2" d="M261.44,14.35c-33.63-.55-61.3,17.31-61.66,39.81-.33,20.39,21.8,24.26,45.77,25.41,2.34,.11,4.32,1.55,5.18,3.74,.85,2.17,.36,4.54-1.26,6.18l-.12,.12c-1.18,1.16-1.57,2.87-1.01,4.46,.56,1.59,1.94,2.69,3.6,2.86,.53,.05,1.06,.09,1.59,.09,2.53,.04,5.07-.43,7.43-1.39,5.16-2.1,9.11-6.34,10.84-11.63,.76-2.33,2.99-3.94,5.55-4,22.89-.53,44.11-3.79,44.44-23.86,.37-22.5-26.7-41.25-60.33-41.8Z"/><g><g><path class="cls-2" d="M308.92,20.1c-2.3-2.23-4.89-4.33-7.72-6.27-2.1-1.44-4.34-2.79-6.68-4.02-.69-.37-1.56-.08-1.91,.62h0c-.35,.69-.07,1.53,.61,1.89,2.24,1.18,4.38,2.47,6.38,3.84,2.69,1.84,5.14,3.84,7.32,5.94,.55,.54,1.43,.55,1.98,0h0c.56-.55,.58-1.46,.01-2.01Z"/><path class="cls-2" d="M275.39,2.7c-6.67-1.59-13.65-2.46-20.77-2.57-10.1-.16-20.18,1.23-29.25,4.05-.75,.23-1.16,1.04-.91,1.79h0c.24,.73,1.03,1.13,1.76,.9,8.78-2.73,18.55-4.08,28.35-3.92,6.91,.11,13.69,.95,20.15,2.5,.75,.18,1.51-.27,1.7-1.02,.19-.76-.27-1.54-1.03-1.73Z"/></g><path class="cls-1" d="M254.47,8.59c32.91,.54,59.3,18.61,58.94,40.36-.29,17.87-18.37,21.9-43.06,22.47-3.1,.07-5.9,2.02-6.86,4.97-1.54,4.72-5.07,8.75-10.03,10.76-2.74,1.11-5.6,1.48-8.35,1.2-2.39-.25-3.45-3.22-1.74-4.91,.04-.04,.09-.09,.13-.13,4.4-4.44,1.39-12.03-4.85-12.33-25.74-1.23-44.73-5.59-44.43-23.98,.35-21.76,27.32-38.96,60.23-38.42Z"/><path class="cls-2" d="M246.58,89.86c2.53,.04,5.07-.43,7.43-1.39,5.16-2.1,9.11-6.34,10.84-11.63,.76-2.33,2.99-3.94,5.55-4,22.89-.53,44.11-3.79,44.44-23.86,.37-22.5-26.7-41.25-60.33-41.8-33.63-.55-61.3,17.31-61.66,39.81-.33,20.39,21.8,24.26,45.77,25.41,2.34,.11,4.32,1.55,5.18,3.74,.85,2.17,.36,4.54-1.26,6.18l-.12,.12c-1.18,1.16-1.57,2.87-1.01,4.46,.56,1.59,1.94,2.69,3.6,2.86,.53,.05,1.06,.09,1.59,.09Zm7.87-79.86c32.08,.52,57.9,17.99,57.56,38.93-.23,14.3-12.31,20.41-41.68,21.09-3.75,.09-7.03,2.47-8.17,5.94-1.47,4.5-4.83,8.11-9.22,9.89-2.43,.99-5.08,1.37-7.67,1.1-.85-.09-1.15-.78-1.23-.99-.07-.21-.26-.93,.33-1.51l.15-.15c2.42-2.44,3.14-5.96,1.89-9.19-1.27-3.25-4.21-5.37-7.67-5.54-26.06-1.25-43.36-5.56-43.08-22.54,.34-20.94,26.72-37.56,58.8-37.03Z"/></g></g><g><path class="cls-5" d="M224.22,47.75c-.29,0-1.72,.39-2.03,.39-.47,0-.75-.29-.75-.6,0-.03,.21-.55,.23-.62-2.11,1.2-4.56,1.59-5.7,1.59-.03,0-1.17,0-1.17-.26,0-.1,.18-.16,.91-.39,4.84-1.56,8.72-4.43,9.11-5.31,.21-.47,.39-.86,1.8-.86,.23,0,1.87,.03,1.87,.62,0,.1-.03,.18-.05,.29,2.03,1.85,5.39,2.71,8.85,3.2,.55,.08,2.08,.26,2.55,.29,.31,.03,.7,.03,.7,.21,0,.29-2.52,2.06-3.31,2.06-.18,0-6.27-.78-9.89-4.71-1.46,1.41-3.57,2.47-4.27,2.84,.16,.08,.29,.13,.42,.13h5.02c.21-.36,.55-.68,1.15-.68,.65,0,1.67,.57,1.67,1.22,0,.6-.83,.6-1.3,.6h-5.81Zm10.75-11.45c.34-.44,.96-.7,1.54-.7,1.02,0,1.82,.7,1.82,1.64,0,.75-1.56,3.31-1.61,3.36-.1,.18-.39,.62-.99,.62-.81,0-.83-.36-.91-3.72h-6.14c0,.36,.08,2.16,.08,2.58,0,.47,0,.6-.18,.83-.31,.39-1.02,.73-1.56,.73-1.25,0-1.25-.75-1.25-1.09,0-.44,.13-2.55,.13-3.05h-6.17c-.31,2.5-.47,3.83-1.56,3.83-.44,0-.73-.47-.83-.81-.18-.52-.83-2.76-.83-3.25,0-.75,.52-1.67,1.69-1.67,.44,0,1.09,.18,1.43,.7h6.27v-1.07c0-.1,0-.44-.03-.55h-3.33c-.34,0-.78,0-1.12,.05-.21,.03-1.25,.34-1.48,.34-.39,0-.91-.26-.91-.68,0-.52,.57-1.17,1.3-1.17,.13,0,.81,.13,.96,.13h11.04c.13-.26,.55-1.02,1.43-1.02,.81,0,1.9,.73,1.9,1.56,0,.57-.73,.78-1.41,.78h-5.49c-.05,.13-.05,.21-.05,.86v.75h6.27Zm-2.47,12.6c.23-.34,.52-.78,1.02-.78,.57,0,2.29,.52,2.29,1.25,0,.13-.05,.29-.21,.57,0,.21,.03,1.69,.03,1.77,0,2.42-1.15,2.47-3.15,2.47-.42,0-3.02-.91-3.02-1.51,0-.13,.23-.13,.34-.13,.18,0,1.2,.05,1.43,.05,1.02,0,1.43-.08,1.43-1.28v-1.17h-4.22c0,.78,.03,2.29,.08,3.05,.03,.39,.05,.76,.05,.99,0,.81-1.3,1.38-2.03,1.38-.16,0-1.2,0-1.2-.89,0-.47,.23-4.09,.23-4.53l-5.15,.03c-.26,0-.55,.13-.78,.23-.57,.26-.91,.34-1.22,.34-.52,0-.81-.31-.81-.68,0-.52,.6-1.25,1.25-1.25,.08,0,.52,.08,.62,.08h13.02Zm-7.76-8.77c.18,0,.55,0,.55,.26,0,.47-2.42,1.95-3.83,1.95-.52,0-1.2-.31-1.2-.86,0-.39,.42-.65,.7-.76,.31-.1,2.79-.49,3.31-.55l.47-.05Zm-2.27-.39c-.39,0-1.87,0-1.87-.89,0-.57,.7-.86,1.15-.86,.57,0,3.46,.91,3.46,1.22,0,.52-1.43,.52-2.73,.52Zm9.01-.03c-.52,0-2.21,0-2.21-.49,0-.29,3.05-1.28,3.38-1.28,.47,0,1.15,.34,1.15,.91,0,.86-.86,.86-2.32,.86Zm2.71,1.61c0,.57-.7,.96-1.33,.96-1.3,0-3.54-1.46-3.54-1.9,0-.18,.36-.23,.47-.23s.44,.03,.55,.05c.39,.03,.62,.08,2.81,.36,.23,.05,1.04,.18,1.04,.75Z"/><path class="cls-5" d="M242.31,50.74c-.68,0-1.48-.47-1.48-1.28s.55-1.2,1.38-1.28c.6-.05,1.46-.16,2.32-.73,.16-.1,.39-.26,.44-.26,.21,0,.23,.16,.23,.29,0,1.04-1.28,3.25-2.89,3.25Zm5.81-3.07c0,.75,.1,4.4,.1,5.23,0,1.17-1.17,1.82-1.98,1.82-.62,0-1.02-.36-1.02-.89,0-.42,.36-7.31,.39-8.69-.81,.18-2.16,.42-2.94,.42-.96,0-1.22-.68-1.22-1.12,0-.47,.42-1.12,1.17-1.12,.23,0,1.38,.08,1.64,.08,.39-.49,.86-1.12,1.28-1.82-2.45-.49-2.71-.55-2.94-.7-.44-.26-.49-.57-.49-.73,0-.39,.47-1.09,1.17-1.41,.52-.81,1.01-1.69,2.26-4.66-.03-.18-.05-.42-.05-.6,0-.83,1.51-1.02,1.93-1.02,.78,0,1.77,.49,1.77,1.09,0,.31-.13,.6-.34,.91-.49,.73-3.12,4.22-3.7,5,.21,.13,.31,.21,1.09,.83,.75-1.22,.83-1.35,1.09-1.93-.21-.86,1.02-1.17,1.59-1.17s1.51,.42,1.51,1.07c0,.44-.39,.94-3.96,5.23,.62,0,.99,.03,2.08,.03l-.65-1.28c0-.21,.21-.21,.29-.21,.47,0,3.05,.75,3.05,2.53,0,.47-.34,1.15-1.28,1.15-.34,0-.65-.08-.83-.6-.05-.1-.21-.65-.26-.75l-.75,.21v3.1Zm3.51,3.07c-.96,0-3.12-2.11-3.12-3.02,0-.44,.68-.91,1.25-.91,.75,0,.83,.42,.91,.73,.13,.68,.55,1.35,.94,1.98,.05,.08,.47,.81,.47,.91,0,.23-.16,.31-.44,.31Zm4.43-2.66h-1.48c-1.17,0-1.28,0-1.61,.16-.47,.23-.75,.29-.94,.29-.68,0-.75-.65-.75-.86,0-.62,.6-1.12,1.2-1.12,.21,0,1.2,.16,1.43,.16h7.71c.34-.6,.96-.86,1.35-.86,.75,0,1.82,.81,1.82,1.56,0,.68-.73,.68-1.12,.68h-4.58v4.27h3.67c.26-.34,.83-1.09,1.59-1.09s1.93,.91,1.93,1.72c0,.7-1.12,.7-1.51,.7h-12.99c-.26,0-1.46,.42-1.74,.42-.36,0-.75-.18-.75-.65,0-.65,.62-1.3,1.28-1.3,.23,0,1.28,.21,1.51,.21h3.98l.03-4.27Zm5.47-13.72c.26-.47,.96-1.09,1.43-1.09,.62,0,1.95,.94,1.95,1.74,0,.6-.75,.73-1.38,.73h-10.91c-.23,0-1.38,.44-1.59,.44-.34,0-.88-.18-.88-.73s.42-1.28,1.28-1.28c.13,0,.75,.16,.88,.16l9.22,.03Zm-6.01,9.48c.31,.47,.34,.73,.34,.81,0,.29-.44,.99-1.33,.99-.73,0-.91-.29-1.54-1.51-.39-.75-.62-1.12-1.04-1.67-1.01-1.3-1.12-1.43-1.12-1.59,0-.13,.05-.18,.23-.42,.6-.78,1.93-2.53,2.06-3.05,.1-.44,.21-.86,1.04-.86,.62,0,1.77,.39,1.77,.89,0,.18-.21,.44-.26,.52-.34,.47-2.13,2.21-2.86,2.92,2.21,2.34,2.45,2.6,2.71,2.97Zm3.67-.55c.18,.23,.68,.86,.68,1.38,0,.73-.86,1.02-1.25,1.02-.83,0-1.01-.39-1.8-1.87-.26-.49-.42-.81-1.64-2.37-.29-.36-.34-.44-.34-.57s.05-.21,.23-.42c.65-.83,1.93-2.47,2.03-3.02,.08-.31,.18-.89,1.09-.89,.62,0,1.72,.39,1.72,.89,0,.68-2.6,2.89-3.1,3.41,.31,.39,2.03,2.03,2.37,2.45Zm4.87,1.15c0,.96-.91,1.17-1.28,1.17-.75,0-.88-.26-1.48-1.35-.47-.86-.57-1.07-1.64-2.5-.47-.62-.57-.78-.57-.86,0-.16,.08-.26,.23-.44,.62-.83,1.9-2.47,2.03-3.02,.08-.31,.21-.91,1.12-.91,.57,0,1.69,.39,1.69,.91,0,.36-.62,1.02-1.07,1.46-.57,.57-1.48,1.38-2.03,1.95,1.9,1.87,2.99,2.99,2.99,3.59Z"/><path class="cls-5" d="M267.99,51.39c-.73,0-1.22-.55-1.22-1.35,0-.34,.1-.78,.65-.99,1.3-.47,1.43-.52,1.85-.99,.42-.44,.47-.49,.57-.49,.16,0,.29,.18,.29,.42,0,1.33-.81,3.41-2.13,3.41Zm7.11-9.84c.26-.52,.68-.68,.88-.68,.13,0,.21,.03,.29,.05l-.08-.13c0-.13,1.04-.86,1.07-.89,1.82-1.56,3.93-4.37,4.74-6.66,.05-.34,.18-1.28,1.46-1.28,.6,0,1.74,.52,1.74,1.17,0,.26-.18,.49-.26,.6,1.33,2.73,5.02,4.3,6.07,4.74,.23,.1,1.56,.49,1.56,.65,0,.18-2.21,1.9-2.86,1.9-.96,0-2.06-1.04-2.58-1.54,.05,.13,.05,.18,.05,.26,0,.55-.47,.55-.96,.55h-4.42c-.18,0-1.02,.31-1.22,.31-.31,0-.7-.13-.7-.55,0-.05,0-.36,.23-.65-1.17,.86-2.94,1.72-3.77,1.54,.62,.29,.91,.81,.91,1.15,0,.55-.7,.55-.94,.55h-1.48v2.42h.7c.42-.52,.94-.68,1.15-.68,.42,0,1.67,.68,1.67,1.35,0,.1-.34,.52-.36,.62-.03,.13-.05,.26-.08,.91-.34,5.52-2.45,7.26-4.22,7.26-1.51,0-2.5-1.74-2.68-2.21,0-.13,.03-.21,.16-.18s.31,.08,.36,.1c.62,.18,1.15,.18,1.28,.18,.86,0,1.64-.44,2.24-2.45-.08,.1-.18,.13-.23,.13-.55,0-.94-2.58-.94-2.68,0-.42,.39-.7,.68-.7,.55,0,.55,.31,.52,1.15,0,.26,.03,1.59,.03,1.87,.31-1.22,.44-2.21,.52-3.62h-4.4c-.26,.6-1.25,.94-1.61,.94-.03,0-.89,0-.89-.81,0-.31,.16-1.87,.16-2.24,.03-.86,.08-3.46,.08-5.28,0-.86-.03-2.21-.05-2.53-.03-.1-.36-.57-.36-.7,0-.6,1.2-1.67,1.87-1.67,.18,0,.94,0,1.12,.99h3.44c.26-.52,.73-.96,1.17-.96s1.64,.73,1.64,1.48c0,.65-.83,.65-1.12,.65h-1.82v2.29h.29c.23-.47,.62-.62,.86-.62,.55,0,1.14,.62,1.14,1.2,0,.52-.6,.55-.81,.55h-1.48v2.13h.29Zm-4.92,6.38c0-.39,.81-.81,1.17-.81,.6,0,.6,.21,.6,2,0,.65-.03,2.16-.94,2.16-.52,0-.7-.57-.7-1.51,0-.23,.03-1.35,.03-1.61-.08-.05-.16-.13-.16-.23Zm2.32-9.63v-2.29h-.94c-.13,0-.21,.18-.21,.34l.03,1.95h1.12Zm0,3.25v-2.13h-1.12v2.13h1.12Zm0,3.51v-2.42h-1.12v2.42h1.12Zm-.23,3.02c0-.05-.16-.29-.16-.34,0-.36,.6-.78,.94-.78,.65,0,.65,.23,.65,2.79,0,.96-.39,1.15-.65,1.15-.55,0-.68-.83-.7-1.38l-.08-1.43Zm4.48,6.87c-.13,0-.6,0-.6-.23,0-.1,1.04-.96,1.22-1.17,1.69-1.8,2.21-4.11,2.5-5.28,.03-.44,.05-1.09,1.17-1.09,.68,0,1.51,.52,1.51,1.12s-.44,1.56-.62,1.93c.03,.05,.47,.81,1.46,1.72,.42,.39,.47,.42,.47,.57,0,.62-1.74,1.2-1.9,1.2-.55,0-1.02-1.35-1.15-1.74-.57,.96-2.32,2.99-4.06,2.99Zm5.15-12.86c.26-.36,.7-.55,.99-.55,.42,0,1.3,.36,1.3,.96,0,.05-.1,.34-.13,.42-.03,.08-.03,.13-.03,.49,0,.39,.08,2.26,.08,2.71,0,.68-.94,.99-1.46,.99-.86,0-.86-.31-.86-.75h-1.04c0,.36,0,1.07-1.59,1.07-.55,0-.68-.26-.68-.65,0-.47,.08-2.76,.08-3.28,0-.18-.05-.26-.16-.36-.13-.1-.16-.16-.16-.29,0-.55,1.15-1.3,1.69-1.3,.36,0,.78,.16,.81,.55h1.15Zm2.99-2.94c.21-.36,.47-.62,.86-.62,.31,0,.57,.16,.73,.23-1.56-1.8-1.98-3.18-2.21-3.98-1.09,2.16-2.99,3.72-3.8,4.37,.1-.05,.18-.1,.47-.1,.1,0,.49,.1,.6,.1h3.36Zm-3.1,6.22v-2.32h-.83c-.16,0-.23,.1-.23,.26v2.06h1.07Zm8.54,8.1c.36,.26,.68,.52,.68,.7,0,.81-2.24,1.28-2.32,1.28-.42,0-.7-.18-.86-.39-.13-.16-.86-1.17-1.43-2.63-1.46,2.34-3.41,3.12-3.96,3.12-.16,0-.42-.05-.42-.29,0-.26,1.04-1.25,1.25-1.48,1.12-1.41,1.72-3.1,1.87-4.3,.21-1.48,.26-2.03,1.35-2.03,.6,0,1.41,.49,1.41,1.17,0,.52-.36,1.56-.65,2.19,1.17,1.33,2.79,2.47,3.07,2.66Zm-2.29-11.38c.21-.34,.62-.6,.99-.6,.42,0,1.56,.47,1.56,1.07,0,.1-.05,.23-.1,.31-.05,.1-.05,.13-.05,.6,0,.42,.08,2.5,.08,2.99,0,.78-1.48,.91-1.67,.91-.91,0-.91-.34-.91-1.02h-1.07c0,1.02-1.43,1.02-1.54,1.02-.16,0-.65,0-.65-.62,0-.47,.08-2.79,.08-3.31,0-.18-.05-.23-.16-.34-.13-.1-.16-.18-.16-.29,0-.55,1.07-1.28,1.61-1.28,.36,0,.73,.16,.75,.55h1.22Zm-.08,3.28v-2.32h-.88c-.13,0-.23,.08-.23,.26v2.06h1.12Z"/></g></g><g><g><path class="cls-2" d="M368.44,27.22c-33.63-.55-61.3,17.31-61.66,39.81-.33,20.39,21.8,24.26,45.77,25.41,2.34,.11,4.32,1.55,5.18,3.74,.85,2.17,.36,4.54-1.26,6.18l-.12,.12c-1.18,1.16-1.57,2.87-1.01,4.46,.56,1.59,1.94,2.69,3.6,2.86,.53,.05,1.06,.09,1.59,.09,2.53,.04,5.07-.43,7.43-1.39,5.16-2.1,9.11-6.34,10.84-11.63,.76-2.33,2.99-3.94,5.55-4,22.89-.53,44.11-3.79,44.44-23.86,.37-22.5-26.7-41.25-60.33-41.8Z"/><g><g><path class="cls-2" d="M415.93,32.96c-2.3-2.23-4.89-4.33-7.72-6.27-2.1-1.44-4.34-2.79-6.68-4.02-.69-.37-1.56-.08-1.91,.62h0c-.35,.69-.07,1.53,.61,1.89,2.24,1.18,4.38,2.47,6.38,3.84,2.69,1.84,5.14,3.84,7.32,5.94,.55,.54,1.43,.55,1.98,0h0c.56-.55,.58-1.46,.01-2.01Z"/><path class="cls-2" d="M382.39,15.57c-6.67-1.59-13.65-2.46-20.77-2.57-10.1-.16-20.18,1.23-29.25,4.05-.75,.23-1.16,1.04-.91,1.79h0c.24,.73,1.03,1.13,1.76,.9,8.78-2.73,18.55-4.08,28.35-3.92,6.91,.11,13.69,.95,20.15,2.5,.75,.18,1.51-.27,1.7-1.02,.19-.76-.27-1.54-1.03-1.73Z"/></g><path class="cls-1" d="M361.48,21.46c32.91,.54,59.3,18.61,58.94,40.36-.29,17.87-18.37,21.9-43.06,22.47-3.1,.07-5.9,2.02-6.86,4.97-1.54,4.72-5.07,8.75-10.03,10.76-2.74,1.11-5.6,1.48-8.35,1.2-2.39-.25-3.45-3.22-1.74-4.91,.04-.04,.09-.09,.13-.13,4.4-4.44,1.39-12.03-4.85-12.33-25.74-1.23-44.73-5.59-44.43-23.98,.35-21.76,27.32-38.96,60.23-38.42Z"/><path class="cls-2" d="M353.58,102.72c2.53,.04,5.07-.43,7.43-1.39,5.16-2.1,9.11-6.34,10.84-11.63,.76-2.33,2.99-3.94,5.55-4,22.89-.53,44.11-3.79,44.44-23.86,.37-22.5-26.7-41.25-60.33-41.8-33.63-.55-61.3,17.31-61.66,39.81-.33,20.39,21.8,24.26,45.77,25.41,2.34,.11,4.32,1.55,5.18,3.74,.85,2.17,.36,4.54-1.26,6.18l-.12,.12c-1.18,1.16-1.57,2.87-1.01,4.46,.56,1.59,1.94,2.69,3.6,2.86,.53,.05,1.06,.09,1.59,.09Zm7.87-79.86c32.08,.52,57.9,17.99,57.56,38.93-.23,14.3-12.31,20.41-41.68,21.09-3.75,.09-7.03,2.47-8.17,5.94-1.47,4.5-4.83,8.11-9.22,9.89-2.43,.99-5.08,1.37-7.67,1.1-.85-.09-1.15-.78-1.23-.99-.07-.21-.26-.93,.33-1.51l.15-.15c2.42-2.44,3.14-5.96,1.89-9.19-1.27-3.25-4.21-5.37-7.67-5.54-26.06-1.25-43.36-5.56-43.08-22.54,.34-20.94,26.72-37.56,58.8-37.03Z"/></g></g><g><path class="cls-5" d="M329.22,46.55c.29-.47,.83-.83,1.25-.83,.62,0,1.82,.62,1.82,1.46,0,.31-.18,.39-.39,.47-1.09,2.34-1.8,3.2-2.21,3.7,.39,.23,1.12,.73,2.63,1.22,.6,.21,2.58,.73,2.94,.73,.05,0,.52,.05,.52,.23,0,.36-2.92,1.74-3.31,1.74-1.28,0-3.54-1.38-4.61-2.58-1.02,.65-2.03,1.09-3.2,1.38,1.12,1.25,4.4,3.15,11.58,3.9,.18,0,.18,.1,.18,.13,0,.13-2.06,2.13-3.18,2.13-.78,0-2.89-.65-4.48-1.56,.03,1.41,.03,1.93,.05,3.18,.37,.08,1.22,.39,1.22,.99,0,.44-.44,.83-.81,1.07-.18,.1-1.48,.65-2.76,1.2,1.74,.57,3.96,.73,6.2,.91,.86,.05,.96,.1,.96,.29-.39,.49-2.45,2.19-3.44,2.19-2.47,0-5.75-1.77-6.98-2.58-.05,.13-.1,.16-.62,.36-2.45,.99-5.08,1.74-7.21,1.74-1.28,0-2-.6-2-1.17,0-.99,.94-.99,2.84-.99h.52l.08-7.16c-2.32,.94-3.8,1.28-5.28,1.28-.47,0-1.04-.13-1.04-.31,0-.05,.75-.26,.89-.31,1.77-.52,6.48-2.37,9.97-5.81,.83-.83,.99-.96,1.56-.96,.39,0,1.35,.29,1.54,.89,.68-.47,1.51-1.2,2.19-2-.78-.99-.86-1.12-1.56-2.16-.47-.29-.68-.42-.68-.55,0-.26,.94-.52,1.35-.52,.47,0,.57,.13,.75,.42,.34,.52,.99,1.15,1.3,1.46,.75-1.35,.94-1.95,1.07-2.34h-2.73c-.21,0-1.22,.29-1.48,.29s-.7-.05-.7-.55c0-.42,.31-1.09,1.09-1.09,.13,0,.65,.13,.78,.13h3.38Zm-7.73,.13c.36-.73,.81-.78,.99-.78,.6,0,1.35,.62,1.35,1.2,0,.49-.7,.55-.94,.55h-2.13c-.03,.26-.05,.49-.08,1.3h.47c.39-.42,.81-.42,.86-.42,.55,0,1.72,.75,1.72,1.35,0,.23-.21,.34-.55,.49-1.35,1.8-4.79,5.78-10.26,5.78-.21,0-1.17-.08-1.17-.29,0-.08,.94-.39,1.09-.44,2.79-.96,3.96-1.95,4.63-2.58-1.2-.03-1.82-.36-1.82-.83,0-.55,.86-1.2,1.54-1.2,.55,0,1.25,.65,1.56,.99,.23-.29,.96-1.12,1.56-1.98h-2.86c-2.08,2.24-4.32,3.1-5.18,3.1-.16,0-.55-.03-.55-.23,0-.08,.05-.13,.6-.52,.65-.49,2.32-1.69,3.31-3.85,.05-.81,.81-.81,1.04-.81,.62,0,1.28,.52,1.61,1.07-.05-1.64-.1-2.19-.13-2.63-.03-.08-.34-.44-.34-.55,0-.52,1.28-1.33,2.08-1.33,.55,0,1.04,.21,1.04,.81,0,.26-.1,1.51-.13,1.8h.68Zm4.43,11.12c.08-.18,.31-.39,.44-.42-.81-.55-1.95-1.56-2.84-2.73-.73,.68-1.46,1.22-4.22,3.05l.1,.1h2.39c0-.21-.03-.31-.1-.44-.1-.1-.26-.29-.26-.39,0-.52,1.28-1.2,1.87-1.2,.39,0,1.02,.26,1.02,.76,0,.18-.21,1.07-.23,1.28h1.82Zm-6.43,4.89c-.03,1.09-.03,2.13-.03,3.12,.52-.03,3.15-.31,3.31-.26-1.43-1.17-2.11-2.19-2.52-2.86h-.75Zm6.35-1.02v-.91h-6.33v.91h6.33Zm0-1.95v-.94h-6.3v.94h6.3Zm-3.93,2.97c.7,.7,1.74,1.38,2.6,1.85,.47-.55,.96-1.2,1.35-1.85h-3.96Z"/><path class="cls-5" d="M337.24,52.07c-.21,0-.7-.03-.7-.23,0-.13,.6-.49,1.51-1.04,2.68-1.64,4.89-3.77,5.42-4.27,.99-.96,1.04-1.04,1.56-1.04,.89,0,1.82,.52,1.82,1.35,0,.1,0,.18-.13,.36,.52,.62,1.01,.86,2.58,1.64,.6,.29,.83,.39,.83,.68,0,.65-1.38,1.3-1.93,1.3-.83,0-2.47-1.87-2.84-2.29-3.1,2.08-6.09,3.54-8.12,3.54Zm5.99,.49c0-.23,0-1.04-.18-1.17-.34-.21-.39-.23-.39-.39,0-.6,1.56-1.28,2.16-1.28,.08,0,1.07,.05,1.07,.78,0,.08-.05,.23-.05,.26-.03,.08-.16,.73-.21,1.8h.44c.44-.44,1.07-.52,1.28-.52,.65,0,1.41,.57,1.41,1.15,0,.08-.1,.34-.13,.39-.1,.34-.1,.57-.1,.91,0,.62,.16,3.9,.16,3.96,0,.83-1.43,1.09-1.93,1.09-.83,0-.86-.47-.86-.73h-3.28v4.61c1.17-.16,2.16-.34,3.2-.6-.52-1.04-.86-1.43-1.17-1.82-.47-.55-.52-.62-.52-.7,0-.21,.26-.26,.42-.26,1.07,0,4.61,1.59,4.61,3.57,0,.68-.78,1.35-1.54,1.35-.65,0-.78-.23-1.01-.81-.03-.05-.21-.36-.23-.44-3.2,1.56-6.17,2.5-7.26,2.5-.75,0-1.51-.49-1.51-1.3,0-1.25,1.59-1.28,2.45-1.28,.03-.44,.05-1.09,.05-2.6,0-.81-.03-6.56-.05-6.66,0-.13-.49-.57-.49-.7,0-.65,1.48-1.64,2.08-1.64,.13,0,.78,.08,1.02,.55h.6Zm2.71,1.07h-3.33v1.46h3.33v-1.46Zm.03,2.58h-3.36v1.48h3.36v-1.48Zm8.46,2c-.18,1.93-.7,5.6-4.45,7.68-2.42,1.33-4.32,1.43-4.97,1.43-.16,0-.6,0-.6-.26,0-.23,1.59-.68,1.88-.81,4.71-2.08,5.65-5,5.78-11.56-.03-.03-.08-.1-.1-.1-.18-.21-.23-.29-.23-.39,0-.7,1.22-1.54,2.06-1.54,.23,0,1.35,.08,1.35,.89,0,.29-.08,.52-.16,.83,.16,1.85,.6,6.85,5.13,10.39,.34,.26,2.16,1.33,2.16,1.46,0,.26-2.99,1.41-3.62,1.41-.86,0-1.46-.81-1.72-1.15-1.22-1.64-2.19-3.77-2.42-8.28h-.08Zm-2.03-6.22c-.96,1.48-2.84,3.33-3.59,3.33-.13,0-.23-.05-.23-.18,0-.03,.75-1.69,.88-2,1.09-2.68,1.54-4.11,1.95-6.9,.16-1.02,.99-1.15,1.43-1.15,.83,0,1.72,.6,1.72,1.33,0,.94-.96,3.07-1.48,4.3h4.19c.44-.55,.99-.96,1.59-.96,.99,0,1.74,.81,1.74,1.56,0,.7-1.22,2.86-1.82,3.64-.34,.47-.6,.81-1.09,.81-.6,0-.6-.44-.6-.68,0-.47,.05-2.66,.05-3.1h-4.74Z"/><path class="cls-5" d="M371.5,53.92c0,.36-.31,1.12-.62,1.67-1.35,2.42-4.19,3.12-5.08,3.12-.99,0-1.95-.75-1.95-1.64,0-.65,.57-1.59,1.56-1.67,2.45-.23,3.64-.42,5.02-1.41,.05-.03,.68-.47,.76-.47,.13,0,.31,0,.31,.39Zm-2,10.1c0-.1,.08-.16,.1-.16s.26,.05,.31,.05c.62,.13,1.38,.18,1.69,.18,2.24,0,2.34-.94,2.34-5.31,0-9.61,0-9.63-.42-9.94-.13-.13-.34-.29-.34-.62,0-.91,2.03-1.93,2.89-1.93,.23,0,1.33,0,1.33,1.28,0,.26-.03,.39-.13,.99-.16,.99-.16,1.87-.16,2.37,0,1.74,.08,9.4,.08,10.96,0,1.77-.13,4.71-3.38,4.71-1.61,0-3.25-.96-4.27-2.42-.03-.05-.05-.1-.05-.16Zm8.96-10c0-.16,.16-.36,.73-.36,2.45,0,8.36,1.2,8.36,3.8,0,.81-.78,1.56-1.67,1.56s-1.38-.42-1.69-.7c-2.58-2.37-3.85-3.12-5-3.75-.21-.08-.73-.34-.73-.55Z"/><path class="cls-5" d="M404.39,50.43c.34-.6,1.09-1.15,1.59-1.15,.65,0,2.26,.91,2.26,1.74,0,.13,0,.16-.13,.47-.26,.7-.26,.94-.26,1.61,0,1.69,.26,10,.26,11.87,0,1.02,0,1.22-.94,1.67-.39,.18-1.07,.42-1.54,.42-1.15,0-1.15-.52-1.15-1.72h-9.92v.52c0,.78-1.41,1.3-2.06,1.3-1.22,0-1.22-.6-1.22-1.74,0-.91,.21-5.41,.23-6.43,.03-1.54,.05-2.99,.05-5.99,0-.31-.03-.68-.18-.86-.31-.31-.36-.36-.36-.52,0-.68,1.54-1.9,2.32-1.9,.5,0,.89,.26,1.12,.7h1.82c.39-.99,.91-2.29,1.59-4.4,.29-.83,.78-1.38,1.64-1.38,1.25,0,2.39,1.02,2.39,1.93s-2.34,2.68-3.88,3.85h6.35Zm.18,6.43c-.03-1.74-.03-2.81-.03-4.45,0-.34,0-.62-.44-.62h-9.16c-.21,0-.42,.26-.42,.44l-.03,4.63h10.07Zm0,1.38h-10.07l.05,5.75h10.02v-5.75Z"/></g></g><g><path class="cls-2" d="M425.98,138.8c-33.63-.55-61.3,17.31-61.66,39.81-.33,20.39,21.8,24.26,45.77,25.41,2.34,.11,4.32,1.55,5.18,3.74,.85,2.17,.36,4.54-1.26,6.18l-.12,.12c-1.18,1.16-1.57,2.87-1.01,4.46,.56,1.59,1.94,2.69,3.6,2.86,.53,.05,1.06,.09,1.59,.09,2.53,.04,5.07-.43,7.43-1.39,5.16-2.1,9.11-6.34,10.84-11.63,.76-2.33,2.99-3.94,5.55-4,22.89-.53,44.11-3.79,44.44-23.86,.37-22.5-26.7-41.25-60.33-41.8Z"/><g><g><path class="cls-2" d="M473.46,144.55c-2.3-2.23-4.89-4.33-7.72-6.27-2.1-1.44-4.34-2.79-6.68-4.02-.69-.37-1.56-.08-1.91,.62h0c-.35,.69-.07,1.53,.61,1.89,2.24,1.18,4.38,2.47,6.38,3.84,2.69,1.84,5.14,3.84,7.32,5.94,.55,.54,1.43,.55,1.98,0h0c.56-.55,.58-1.46,.01-2.01Z"/><path class="cls-2" d="M439.92,127.15c-6.67-1.59-13.65-2.46-20.77-2.57-10.1-.16-20.18,1.23-29.25,4.05-.75,.23-1.16,1.04-.91,1.79h0c.24,.73,1.03,1.13,1.76,.9,8.78-2.73,18.55-4.08,28.35-3.92,6.91,.11,13.69,.95,20.15,2.5,.75,.18,1.51-.27,1.7-1.02,.19-.76-.27-1.54-1.03-1.73Z"/></g><path class="cls-1" d="M419.01,133.04c32.91,.54,59.3,18.61,58.94,40.36-.29,17.87-18.37,21.9-43.06,22.47-3.1,.07-5.9,2.02-6.86,4.97-1.54,4.72-5.07,8.75-10.03,10.76-2.74,1.11-5.6,1.48-8.35,1.2-2.39-.25-3.45-3.22-1.74-4.91,.04-.04,.09-.09,.13-.13,4.4-4.44,1.39-12.03-4.85-12.33-25.74-1.23-44.73-5.59-44.43-23.98,.35-21.76,27.32-38.96,60.23-38.42Z"/><path class="cls-2" d="M411.11,214.3c2.53,.04,5.07-.43,7.43-1.39,5.16-2.1,9.11-6.34,10.84-11.63,.76-2.33,2.99-3.94,5.55-4,22.89-.53,44.11-3.79,44.44-23.86,.37-22.5-26.7-41.25-60.33-41.8-33.63-.55-61.3,17.31-61.66,39.81-.33,20.39,21.8,24.26,45.77,25.41,2.34,.11,4.32,1.55,5.18,3.74,.85,2.17,.36,4.54-1.26,6.18l-.12,.12c-1.18,1.16-1.57,2.87-1.01,4.46,.56,1.59,1.94,2.69,3.6,2.86,.53,.05,1.06,.09,1.59,.09Zm7.87-79.86c32.08,.52,57.9,17.99,57.56,38.93-.23,14.3-12.31,20.41-41.68,21.09-3.75,.09-7.03,2.47-8.17,5.94-1.47,4.5-4.83,8.11-9.22,9.89-2.43,.99-5.08,1.37-7.67,1.1-.85-.09-1.15-.78-1.23-.99-.07-.21-.26-.93,.33-1.51l.15-.15c2.42-2.44,3.14-5.96,1.89-9.19-1.27-3.25-4.21-5.37-7.67-5.54-26.06-1.25-43.36-5.56-43.08-22.54,.34-20.94,26.72-37.56,58.8-37.03Z"/></g></g><g><path class="cls-5" d="M380.26,171.23c-.08,.08-.13,.13-.26,.21,.13,.05,.44,.16,.55,.42,.13,.34,.94,1.56,1.22,2,.29-.26,2.5-2.11,2.58-2.16,.29-.18,.62-.21,.78-.21,.65,0,1.54,.44,1.54,1.28,0,.68-.7,1.02-.99,1.09-.13,.05-2.76,.62-3.05,.68,2.19,1.87,6.04,2.76,7.73,3.02,.23,.03,1.35,.21,1.35,.36,0,.18-2.92,2.21-4.01,2.21-.47,0-5.08-1.17-7.89-6.38-.13-.23-.7-1.43-.78-1.48-.68,.6-1.59,1.25-1.82,1.41v3.38c.6-.1,3.57-.7,3.85-.7,.18,0,.29,.16,.29,.29,0,.42-2.08,1.3-2.68,1.54-2.11,.78-5.34,1.46-6.07,1.46-.81,0-1.46-.62-1.46-1.3,0-.47,.36-.81,.75-.94,.1-.03,1.61-.16,2.42-.21v-2.29c-2.76,1.59-5.88,1.82-6.74,1.82-.31,0-1.35,0-1.35-.34,0-.1,.08-.1,.75-.29,3.77-1.02,7.5-3.28,8.95-4.87h-3.49c-.52,0-1.35,.13-1.46,.18-.47,.13-.94,.29-1.15,.29-.5,0-.78-.23-.78-.6,0-.49,.52-1.22,1.2-1.22,.1,0,.6,.08,.7,.08,.18,.03,.44,.05,1.25,.05h5.49c0-.23-.03-.55-.05-.78-.16-.1-.39-.31-.39-.49,0-.49,1.8-1.02,2.42-1.02,.78,0,.88,.36,.88,.73,0,.21-.13,1.3-.16,1.56h5.39c.23-.42,.91-1.12,1.43-1.12,.62,0,2.06,.76,2.06,1.64,0,.36-.31,.7-.99,.7h-8.04Zm-5.93-11.79c0-.26,0-.94-.05-1.15l-.21-.23c-.1-.13-.13-.23-.13-.34,0-.49,1.38-1.33,2.11-1.33,.55,0,1.07,.34,1.07,.83,0,.1-.08,.52-.1,.62-.21,1.51-.21,3.83-.21,4.66v1.07c0,.52,.05,3.12,.05,3.72,0,1.04-.6,1.8-1.64,1.8-.75,0-1.12-.52-1.12-.89,0-.52,.18-3.02,.21-3.59h-1.09c-.83,4.27-4.66,4.76-4.87,4.76-.13,0-.23-.08-.23-.18s.88-.86,1.04-1.04c1.28-1.35,1.46-2.76,1.56-3.57l-.75,.03c-.16,0-.88,.23-1.04,.23-.23,0-.73-.16-.73-.52,0-.21,.1-.89,1.07-.89,.1,0,.68,.08,.81,.08h4.27c0-.26,.05-1.54,.05-1.82h-2.06c-.08,.57-.08,.68-.44,.89s-.91,.34-1.3,.34-.88-.23-.88-.57c0-.42,.16-2.47,.16-2.94v-.62c-.13-.13-.29-.26-.29-.44,0-.47,1.2-1.17,1.9-1.17,.05,0,1.07,.03,1.07,.6,0,.16-.05,.57-.08,.73-.05,.47-.1,1.8-.1,2.13h1.98v-1.2Zm12.81,1.85c.29-.36,.88-1.09,1.51-1.09,.7,0,2.16,.91,2.16,1.72,0,.62-.73,.68-1.22,.68h-5.15c0,.47-.05,2.71-.05,3.2h1.87c.73-1.09,1.25-1.09,1.38-1.09,.62,0,1.82,.94,1.82,1.72,0,.62-.83,.62-1.33,.62h-8.12c-.23,0-1.41,.29-1.67,.29-.29,0-.75-.05-.75-.57,0-.47,.39-1.04,1.12-1.04,.13,0,.86,.08,1.02,.08h1.87l-.03-3.2h-2.45c-.21,0-1.17,.42-1.41,.42-.7,0-.75-.31-.75-.55,0-.52,.36-1.25,1.09-1.25,.1,0,.65,.08,.78,.08h2.68c-.05-1.46-.08-2.58-.13-2.66-.16-.23-.21-.31-.21-.55,0-.73,1.72-1.64,2.42-1.64,.21,0,1.09,.05,1.09,1.04,0,.13,0,.16-.05,.55-.05,.21-.16,1.67-.18,3.25h2.68Z"/><path class="cls-5" d="M399.77,157.56c.96,0,1.85,.62,1.85,1.41,0,.42-.23,.73-.36,.91-.29,.36-.55,.6-2.86,2.79,0,1.48-.08,8.69-.08,10.33,0,.68,.05,3.98,.05,4.74,0,.55,0,.81-.34,1.22-.44,.6-1.22,.96-1.82,.96s-1.09-.29-1.09-.91c0-.42,.16-2.4,.18-2.86,.23-3.9,.31-8.33,.39-11.61-.6,.31-1.8,.96-2.92,.96-.26,0-.68-.05-.68-.23,0-.05,.08-.1,.83-.65,2.86-2.06,4.53-4.56,5.49-6.09,.13-.36,.31-.96,1.35-.96Zm13.04,4.19c-.03,1.61-2.26,4.09-2.34,4.17,1.9,1.43,5.15,2.06,6.2,2.24l1.12,.21c.18,.03,.23,.05,.23,.18,0,.21-1.98,1.56-2.29,1.77-.36,.23-.75,.49-1.33,.49-.34,0-3.07-.65-5.88-3.36-2.86,2.47-6.25,2.71-6.66,2.73,.03,1.67,.05,3.93,.05,4.95,0,.08,0,.44-.08,.6-.18,.49-1.07,.99-1.56,.99-.23,0-.52-.1-.75-.26-.31-.26-.31-.44-.31-.78,0-.47,.13-2.68,.16-3.2,.05-2,.13-4.74,.13-7.5,0-.05,0-.6-.03-.75-.03-.13-.42-.6-.42-.73,0-.6,1.41-1.59,2.21-1.59,.26,0,.83,.08,.83,.75,0,.23-.16,1.54-.18,1.82,1.3-1.56,2.99-4.84,3.36-6.48,.1-.49,.29-1.3,1.54-1.3,.78,0,1.93,.6,1.93,1.33,0,.57-.96,2.11-1.22,2.53h4.56c.29-.57,.99-1.2,1.56-1.2,.65,0,1.95,.81,1.95,1.69,0,.68-.78,.7-1.28,.7h-1.48Zm1.28,14.45c-.78,.6-4.71,3.51-11.56,3.51-1.85,0-2.21-.36-2.21-.49,0-.21,.31-.26,.42-.29,7.42-1.12,11.01-4.35,11.71-5.18,.55-.65,.65-.75,1.22-.75,.94,0,1.95,.94,1.95,1.56,0,.42-.16,.55-1.54,1.64Zm-8.88-13.3c-1.74,1.67-2.79,1.93-3.31,2.06-.05,2.55-.08,3.2-.08,4.58,1.74-.78,3.62-2.08,4.87-3.67-.65-1.02-1.15-1.82-1.48-2.97Zm3.64,5.83c.81,0,1.61,.68,1.61,1.2,0,.94-4.06,3.41-7.13,3.41-.23,0-1.25,0-1.25-.29,0-.16,.42-.31,.62-.36,.16-.05,.44-.18,.49-.21,3.75-1.74,4.61-3.1,4.79-3.36,.13-.18,.31-.39,.86-.39Zm-3.54,6.01c1.41-.6,4.17-2.34,4.69-3.02,.44-.57,.57-.73,1.07-.73,.65,0,1.61,.78,1.61,1.33,0,.34-.23,.55-.65,.86-.1,.05-4.43,3.12-7.81,3.12-.36,0-1.69-.03-1.69-.42,0-.16,.1-.16,.34-.23,1.33-.39,2.32-.86,2.45-.91Zm1.17-12.99c.29,.94,.7,1.67,1.56,2.84,.36-.57,1.07-1.77,1.22-2.84h-2.79Z"/><path class="cls-5" d="M429.09,162.66c.23-.31,.7-.96,1.35-.96,.89,0,2.08,.91,2.08,1.64,0,.29-.1,.36-.44,.75-.1,.13-.26,.76-.47,1.46-2.5,8.77-8.96,12.31-12.23,12.31-.21,0-.6-.05-.6-.23,0-.08,.68-.44,.86-.55,2.39-1.28,4.95-3.7,6.48-6.46-.57-.34-1.51-.7-2.24-.99-1.07-.44-1.48-.57-1.48-1.2,0-.75,.99-1.38,1.74-1.38,.96,0,2.19,1.48,2.81,2.42,.29-.62,1.51-3.36,1.88-5.6h-3.2c-2.6,3.67-5.31,4.56-6.07,4.56-.1,0-.34-.05-.34-.18,0-.1,.6-.7,.7-.81,.83-.86,3.36-3.72,5-8.07-.03-.1-.05-.47-.05-.55,0-.89,1.04-.99,1.2-.99,1.59,0,2.26,.76,2.26,1.38,0,.68-1.12,2.53-1.67,3.44h2.42Zm7,12.21c.03,.42,.1,2.29,.1,2.68,0,1.35-1.46,1.98-2.32,1.98-1.07,0-1.07-.89-1.07-1.28,0-.49,.16-2.6,.16-3.02,.05-1.59,.23-9.14,.23-9.89,0-5.6-.08-6.01-.23-6.17-.29-.26-.39-.34-.39-.55,0-.7,1.64-1.74,2.58-1.74,.1,0,1.09,0,1.09,.86,0,.23-.13,1.35-.13,1.59-.08,1.28-.13,4.71-.13,5.96,2.06,2.71,5.91,4.03,7.34,4.48,.13,.03,.44,.13,.44,.21,0,.26-2.47,1.85-2.97,1.85-1.09,0-3.59-1.54-4.95-4.32l.23,7.37Z"/><path class="cls-5" d="M445,167.89c-.05,0-.57,0-.57-.21,0-.18,.13-.26,.62-.52,2.79-1.43,4.89-3.41,5.54-4.24,.86-1.07,1.02-1.28,1.77-1.28s1.9,.73,1.9,1.48-1.2,1.64-1.82,2.08c-.03,.6-.05,1.59-.05,2.19,0,1.43,.05,7.73,.05,9.03,0,.94-.03,1.43-.89,2.11-.21,.16-.75,.55-1.38,.55-.31,0-1.28-.13-1.28-1.22,0-.05,.16-2.08,.18-2.45,.13-1.8,.23-3.46,.39-8.9-1.33,.78-3.05,1.38-4.48,1.38Zm3.41-6.79c-1.17,0-2.42-.23-2.42-.62,0-.1,.1-.23,.47-.29,1.04-.16,3.93-1.38,4.61-1.93,.91-.75,.96-.81,1.54-.81,.91,0,1.8,.73,1.8,1.54,0,1.22-3.28,2.11-5.99,2.11Zm15.83,7.37c0,1.07,.05,5.81,.05,6.77,0,1.59,0,4.09-3.23,4.09-1.09,0-2-.47-3.62-1.74-.44-.36-.62-.49-.62-.6s.13-.21,.26-.21c.05,0,.39,.05,.44,.05,.62,.08,1.15,.16,1.98,.16,1.61,0,1.61-.78,1.61-5.28v-3.23c0-.75,0-2.08-.03-2.86l-3.88,.03c-.36,0-.5,.05-1.56,.44-.18,.08-.39,.16-.65,.16-.44,0-.96-.21-.96-.7,0-.7,.55-1.46,1.35-1.46,.18,0,1.04,.18,1.22,.18h9.55c.44-.91,1.2-1.22,1.67-1.22,.83,0,1.98,.7,1.98,1.72,0,.68-.68,.86-1.25,.86h-4.32v2.86Zm0-9.81c.42-.86,1.15-1.2,1.67-1.2,.75,0,2,.76,2,1.74,0,.7-.7,.89-1.46,.89-.81,0-4.45-.05-5.18-.03-.7,0-2.97,.05-3.38,.1-.26,.03-1.28,.49-1.51,.49-.36,0-.96-.21-.96-.75,0-.7,.6-1.43,1.38-1.43,.16,0,.75,.18,.89,.18h6.56Z"/></g><g><g><path class="cls-2" d="M60.34,65.68c33.63-.55,61.3,17.31,61.66,39.81,.33,20.39-21.8,24.26-45.77,25.41-2.34,.11-4.32,1.55-5.18,3.74-.85,2.17-.36,4.54,1.26,6.18l.12,.12c1.18,1.16,1.57,2.87,1.01,4.46-.56,1.59-1.94,2.69-3.6,2.86-.53,.05-1.06,.09-1.59,.09-2.53,.04-5.07-.43-7.43-1.39-5.16-2.1-9.11-6.34-10.84-11.63-.76-2.33-2.99-3.94-5.55-4C21.55,130.81,.33,127.55,0,107.48c-.37-22.5,26.7-41.25,60.33-41.8Z"/><g><g><path class="cls-2" d="M12.85,71.43c2.3-2.23,4.89-4.33,7.72-6.27,2.1-1.44,4.34-2.79,6.68-4.02,.69-.37,1.56-.08,1.91,.62h0c.35,.69,.07,1.53-.61,1.89-2.24,1.18-4.38,2.47-6.38,3.84-2.69,1.84-5.14,3.84-7.32,5.94-.55,.54-1.43,.55-1.98,0h0c-.56-.55-.58-1.46-.01-2.01Z"/><path class="cls-2" d="M46.39,54.03c6.67-1.59,13.65-2.46,20.77-2.57,10.1-.16,20.18,1.23,29.25,4.05,.75,.23,1.16,1.04,.91,1.79h0c-.24,.73-1.03,1.13-1.76,.9-8.78-2.73-18.55-4.08-28.35-3.92-6.91,.11-13.69,.95-20.15,2.5-.75,.18-1.51-.27-1.7-1.02-.19-.76,.27-1.54,1.03-1.73Z"/></g><path class="cls-1" d="M67.3,59.92c-32.91,.54-59.3,18.61-58.94,40.36,.29,17.87,18.37,21.9,43.06,22.47,3.1,.07,5.9,2.02,6.86,4.97,1.54,4.72,5.07,8.75,10.03,10.76,2.74,1.11,5.6,1.48,8.35,1.2,2.39-.25,3.45-3.22,1.74-4.91-.04-.04-.09-.09-.13-.13-4.4-4.44-1.39-12.03,4.85-12.33,25.74-1.23,44.73-5.59,44.43-23.98-.35-21.76-27.32-38.96-60.23-38.42Z"/><path class="cls-2" d="M75.2,141.19c-2.53,.04-5.07-.43-7.43-1.39-5.16-2.1-9.11-6.34-10.84-11.63-.76-2.33-2.99-3.94-5.55-4-22.89-.53-44.11-3.79-44.44-23.86-.37-22.5,26.7-41.25,60.33-41.8,33.63-.55,61.3,17.31,61.66,39.81,.33,20.39-21.8,24.26-45.77,25.41-2.34,.11-4.32,1.55-5.18,3.74-.85,2.17-.36,4.54,1.26,6.18l.12,.12c1.18,1.16,1.57,2.87,1.01,4.46-.56,1.59-1.94,2.69-3.6,2.86-.53,.05-1.06,.09-1.59,.09Zm-7.87-79.86c-32.08,.52-57.9,17.99-57.56,38.93,.23,14.3,12.31,20.41,41.68,21.09,3.75,.09,7.03,2.47,8.17,5.94,1.47,4.5,4.83,8.11,9.22,9.89,2.43,.99,5.08,1.37,7.67,1.1,.85-.09,1.15-.78,1.23-.99,.07-.21,.26-.93-.33-1.51l-.15-.15c-2.42-2.44-3.14-5.96-1.89-9.19,1.27-3.25,4.21-5.37,7.67-5.54,26.06-1.25,43.36-5.56,43.08-22.54-.34-20.94-26.72-37.56-58.8-37.03Z"/></g></g><g><path class="cls-5" d="M38.08,87.02c.34-.65,1.07-1.28,1.67-1.28,.81,0,2.16,.94,2.16,1.8,0,.7-.75,.78-1.33,.78h-15.07c-.05,5.78-.13,11.74-3.96,15.07-.81,.7-2.16,1.54-2.81,1.54-.16,0-.31-.03-.31-.23,0-.13,.83-.94,.99-1.12,1.61-1.95,2.79-4.5,2.99-10.18,.03-.49,0-2.86,0-3.41,0-.26-.03-1.3-.18-1.54-.42-.6-.44-.65-.44-.78,0-.68,1.8-1.74,2.58-1.74,.65,0,1.12,.42,1.17,1.09h4.84c-.03-.49-.03-.78-.1-1.95-.05-.05-.31-.26-.36-.31-.08-.08-.18-.21-.18-.36,0-.81,1.61-1.59,2.63-1.59,.36,0,1.17,.1,1.17,1.02,0,.1-.05,.49-.08,.6-.05,.23-.18,2.24-.21,2.6h4.84Zm.81,5.67c.44-.7,1.04-1.25,1.56-1.25,.73,0,2.03,.96,2.03,1.8,0,.68-.75,.73-1.07,.73h-7.68c-.05,1.77-.05,1.9-.08,3.83h2.63c.29-.47,1.04-.91,1.51-.91,.7,0,1.98,.75,1.98,1.56,0,.05-.13,.31-.16,.39-.08,.18-.08,.29-.08,1.17,0,.7,.1,4.22,.1,5,0,1.2-1.61,1.41-2.08,1.41-.39,0-1.3-.08-1.3-.81v-.81h-7.31v.55c0,.6-1.3,1.04-2,1.04-.96,0-.96-.78-.96-1.12,0-.73,.13-4.35,.13-5.15v-.86c-.03-.05-.26-.23-.29-.29-.08-.08-.18-.18-.18-.34,0-.7,1.46-1.59,2.24-1.59,.23,0,.83,.13,1.04,.75h1.98v-2.97c0-1.2-.03-2.42-.05-3.62-.05-.05-.31-.26-.36-.31-.1-.08-.21-.21-.21-.34,0-.7,1.38-1.61,2.45-1.61,1.2,0,1.25,.6,1.25,.91,0,.42-.18,2.4-.21,2.84h5.13Zm-2.58,10.86c0-.62,.03-3.77,.03-4.48h-7.24c-.13,0-.18,.13-.18,.26v4.22h7.39Z"/><path class="cls-5" d="M63.34,90.8c.39-.65,1.15-1.02,1.59-1.02,.65,0,1.95,.75,1.95,1.43,0,.18-.31,.89-.31,1.04v2.71c0,1.51,.26,8.15,.26,9.5,0,.34,0,.94-.81,1.2-.6,.18-1.61,.31-1.77,.31-.42,0-.91-.26-.91-.75v-.96h-12.7c0,.34,0,.62-.08,.94-.21,.91-1.3,1.22-2.08,1.22-.57,0-1.07-.26-1.07-.89,0-.31,.1-1.74,.1-2.03,.23-5.47,.31-7.68,.31-9.61,0-.7,0-1.2-.13-1.48-.05-.1-.31-.52-.31-.6,0-.65,1.61-1.74,2.29-1.74,.1,0,.78,0,.99,.7h3.54c.55-2.26,.65-2.86,.75-3.67-2.19,0-5.05,0-6.64,.13-.34,.03-1.69,.47-1.98,.47-.49,0-.81-.34-.81-.78,0-.6,.68-1.41,1.28-1.41,.29,0,1.46,.21,1.69,.21,.26,0,1.43-.03,1.67-.03h15.28c.34-.65,1.2-1.35,1.72-1.35,.86,0,2.21,1.04,2.21,1.98,0,.65-.91,.78-1.38,.78h-9.06c-.1,.96-1.67,2.71-2.5,3.67l6.9,.03Zm-12.5,1.17c-.23,0-.23,.83-.23,1.2v9.81h2.24c0-.81,.03-4.32,.03-5.05v-5.96h-2.03Zm7.44,0h-2.76v2.81h2.76v-2.81Zm0,3.96h-2.76v2.6h2.76v-2.6Zm0,3.75h-2.76v3.31h2.76v-3.31Zm5.05-7.68h-2.21c-.03,1.95,0,8.25,0,11.01h2.21v-11.01Z"/><path class="cls-5" d="M92.79,102.54c.55-.91,1.22-1.17,1.54-1.17,.78,0,1.8,1.12,1.8,1.77s-.73,.68-1.22,.68h-8.33c.03,1.12,.03,1.22-.08,1.46-.31,.78-1.35,1.02-1.93,1.02-.47,0-1.02-.31-1.02-1.02,0-.31,.08-1.74,.1-2.08,.05-1.56,.26-9.32,.31-11.06-.47,.49-1.12,.99-1.74,1.15,.03,.52,.05,1.07,.05,1.25,0,.91-1.22,1.12-1.95,1.12s-.75-.36-.78-.62h-.91c-.03,.57-.03,1.2-.03,1.74h1.46c.44-.65,.96-.7,1.15-.7,.62,0,1.35,.62,1.35,1.22s-.7,.6-1.02,.6h-2.99c0,.44-.03,.86-.05,1.61h2.27c.29-.42,.7-.73,1.17-.73,.57,0,1.38,.68,1.38,1.33,0,.49-.55,.52-.94,.52l-3.85-.03c.49,1.04,1.56,2.24,3.62,3.41,.83,.49,.94,.55,.94,.7,0,.34-1.67,1.12-2.24,1.12-1.15,0-2.63-2.21-3.07-3.72-1.12,3.8-5.86,4.4-6.3,4.4-.05,0-.47,0-.47-.23,0-.13,.08-.16,.44-.34,1.54-.75,3.67-2.11,4.24-5.31h-2.79c-.18,0-1.09,.31-1.3,.31-.47,0-.62-.1-.62-.55,0-.55,.44-1.02,.99-1.02,.13,0,.75,.13,.91,.13h3.05c.03-.47,.05-.7,.08-1.61h-2.03c-.18,0-.96,.26-1.15,.26-.49,0-.75-.26-.75-.55,0-.47,.52-.94,.99-.94,.1,0,.55,.1,.65,.1h2.32c.03-.49,.03-1.28,.03-1.74h-1.02c-.05,.81-1.59,.89-1.82,.89-.86,0-.86-.49-.86-.73,0-.18,.1-2.6,.1-3.1,0-.1-.03-.26-.08-.36-.05-.05-.26-.34-.26-.42,0-.55,1.38-1.22,2.19-1.12-.29-.16-.36-.18-.36-.49,0-.18,.05-1.12,.05-1.33h-1.35c-.21,0-1.12,.36-1.35,.36-.36,0-.75-.23-.75-.68s.47-.99,1.07-.99c.1,0,.65,.08,.78,.08l1.64,.03v-1.54c0-.08-.05-.13-.1-.18-.29-.21-.31-.23-.31-.39,0-.55,1.48-1.22,2.08-1.22,.16,0,1.12,0,1.12,.86,0,.16-.08,.99-.08,1.17v1.3h1.43v-1.77s-.18-.1-.21-.13c-.13-.13-.16-.21-.16-.29,0-.52,1.25-1.3,1.98-1.3,.49,0,1.2,.18,1.2,.86,0,.03-.1,.62-.1,.75-.03,.42-.05,1.46-.05,1.87h.81c.16-.39,.65-.78,1.09-.78,.57,0,1.48,.62,1.48,1.35,0,.6-.83,.62-1.22,.62h-2.13v1.07c0,.55-1.22,.86-1.8,.86-.16,0-.73-.05-.89-.34-.03-.03-.03-1.46-.03-1.59h-1.43v1.07c0,.52-1.17,.89-2.06,.83,.29,.16,.42,.34,.44,.49h4.74c.31-.36,.91-.57,1.22-.57,.55,0,1.43,.49,1.43,1.09,0,.08-.23,.39-.26,.47-.03,.1-.03,.78-.03,.94,1.69-2.42,2.26-4.19,2.94-6.46-.03-.05-.16-.34-.16-.39,0-.65,1.46-1.17,2.08-1.17,.68,0,1.3,.57,1.3,1.33,0,.6-.75,2.24-1.56,3.64h5.05c.52-.86,1.09-1.04,1.33-1.04,.68,0,1.82,.94,1.82,1.64,0,.62-.94,.65-1.33,.65-.49,0-.73,0-2.92,.03l-.03,2.92h1.12c.26-.39,.65-.91,1.17-.91,.6,0,1.56,.68,1.56,1.41s-.89,.7-1.17,.7h-2.68v2.99h1.12c.49-.91,.99-.94,1.15-.94,.65,0,1.59,.94,1.59,1.54s-.78,.6-1.54,.6h-2.32l.03,3.33h2.03Zm-16.76-8.54v-2.21h-.96v2.21h.96Zm3.51,0v-2.21h-.94v2.21h.94Zm8.46-.18l-.05-2.94h-1.38v2.94h1.43Zm0,4.17v-3.02h-1.43v3.02h1.43Zm0,1.17h-1.43v3.41h1.38l.05-3.41Zm2.71-15.05c.86,0,1.67,.68,1.67,1.41s-1.54,2.63-1.98,3.2c-.49,.6-.7,.83-1.22,.83-.31,0-.52-.18-.52-.44,0-.55,.52-3.31,.6-3.93,.18-.83,1.02-1.07,1.46-1.07Z"/><path class="cls-5" d="M104.22,89.68c.31-.6,.81-.96,1.17-.96,.55,0,1.51,.73,1.51,1.43,0,.62-.6,.7-1.09,.7h-2.19v3.98c.26-.05,1.54-.29,1.82-.36,.36-.08,1.04-.29,1.12-.29s.21,.05,.21,.21c0,.13-.36,.42-.52,.55-.65,.49-1.46,.94-2.55,1.56,0,.76,.08,4.45,.08,5.31,0,1.67,0,4.4-2.97,4.4-1.69,0-3.18-1.56-3.18-1.87,0-.1,.08-.1,.16-.1s1.25,.13,1.48,.13c.83,0,1.38-.57,1.51-1.17,.16-.7,.16-1.22,.26-5.8-.78,.39-1.77,.75-2.6,.75-.73,0-1.48-.65-1.48-1.41,0-.42,.23-.86,.7-1.04,.08-.05,3.1-.52,3.36-.57l-.05-4.27h-1.46c-.21,0-1.2,.42-1.43,.42-.34,0-.78-.16-.78-.62,0-.49,.36-1.15,1.15-1.15,.1,0,.65,.13,.78,.13h1.72c-.03-1.02-.05-1.61-.08-2.11-.05-.75-.05-.83-.21-.96-.49-.39-.55-.44-.55-.6,0-.94,1.46-2,2.47-2,.75,0,1.25,.36,1.25,1.09,0,.21-.1,1.12-.13,1.33-.03,.49-.05,2.76-.05,3.31h.57Zm15.05,13.33c.65,0,1.72-.65,2.32-1.59,.05-.05,.13-.18,.26-.18,.08,0,.21,.05,.21,.31,0,.08-.03,1.12-.16,1.93-.21,1.35-.83,2.94-2.58,2.94s-4.24-1.8-5.94-4.89c-2.21,1.85-4.79,3.02-7.65,3.02-.6,0-1.3-.1-1.3-.34,0-.13,.57-.31,.96-.44,.68-.21,4.37-1.51,6.69-4.3-1.3-3.38-1.72-5.67-1.93-6.82-.31,.08-2.73,.65-2.84,.7-.75,.36-.96,.47-1.38,.47-.55,0-.88-.29-.88-.73,0-.55,.44-1.38,1.28-1.38h.68c.13,0,2.13-.26,2.86-.39-.34-2.76-.47-3.7-.62-5.49-.52-.39-.6-.47-.6-.7,0-.78,1.51-1.95,2.55-1.95,.23,0,1.22,0,1.22,1.17,0,.21-.08,1.25-.08,1.51,0,1.82,.18,4.27,.26,5.08,1.64-.31,1.9-.36,4.19-.83,.26-.86,.86-1.33,1.35-1.33,.65,0,2.26,.7,2.26,1.51,0,.34-.31,.65-.73,.81-.44,.18-5.73,.99-6.79,1.17,.18,1.59,.44,3.12,1.17,5.23,.86-1.61,.99-2.16,1.09-2.63-.13-.21-.13-.47-.13-.49,0-.62,1.28-1.15,1.98-1.15,.47,0,1.51,.21,1.51,1.15,0,1.25-2.16,4.45-2.26,4.58-.1,.13-.65,.75-.75,.91,.36,.6,2.34,3.15,3.77,3.15Zm-4.87-14.06c-.44,0-.44-.29-.44-.44s.68-2.29,1.15-3.33c.39-.89,1.38-1.02,1.64-1.02,.78,0,1.59,.7,1.59,1.43,0,1.2-3.33,3.36-3.93,3.36Z"/></g></g><g><g><path class="cls-2" d="M85.81,183.47c33.63-.55,61.3,17.31,61.66,39.81,.33,20.39-21.8,24.26-45.77,25.41-2.34,.11-4.32,1.55-5.18,3.74-.85,2.17-.36,4.54,1.26,6.18l.12,.12c1.18,1.16,1.57,2.87,1.01,4.46-.56,1.59-1.94,2.69-3.6,2.86-.53,.05-1.06,.09-1.59,.09-2.53,.04-5.07-.43-7.43-1.39-5.16-2.1-9.11-6.34-10.84-11.63-.76-2.33-2.99-3.94-5.55-4-22.89-.53-44.11-3.79-44.44-23.86-.37-22.5,26.7-41.25,60.33-41.8Z"/><g><g><path class="cls-2" d="M38.32,189.22c2.3-2.23,4.89-4.33,7.72-6.27,2.1-1.44,4.34-2.79,6.68-4.02,.69-.37,1.56-.08,1.91,.62h0c.35,.69,.07,1.53-.61,1.89-2.24,1.18-4.38,2.47-6.38,3.84-2.69,1.84-5.14,3.84-7.32,5.94-.55,.54-1.43,.55-1.98,0h0c-.56-.55-.58-1.46-.01-2.01Z"/><path class="cls-2" d="M71.86,171.82c6.67-1.59,13.65-2.46,20.77-2.57,10.1-.16,20.18,1.23,29.25,4.05,.75,.23,1.16,1.04,.91,1.79h0c-.24,.73-1.03,1.13-1.76,.9-8.78-2.73-18.55-4.08-28.35-3.92-6.91,.11-13.69,.95-20.15,2.5-.75,.18-1.51-.27-1.7-1.02-.19-.76,.27-1.54,1.03-1.73Z"/></g><path class="cls-1" d="M92.77,177.71c-32.91,.54-59.3,18.61-58.94,40.36,.29,17.87,18.37,21.9,43.06,22.47,3.1,.07,5.9,2.02,6.86,4.97,1.54,4.72,5.07,8.75,10.03,10.76,2.74,1.11,5.6,1.48,8.35,1.2,2.39-.25,3.45-3.22,1.74-4.91-.04-.04-.09-.09-.13-.13-4.4-4.44-1.39-12.03,4.85-12.33,25.74-1.23,44.73-5.59,44.43-23.98-.35-21.76-27.32-38.96-60.23-38.42Z"/><path class="cls-2" d="M100.67,258.98c-2.53,.04-5.07-.43-7.43-1.39-5.16-2.1-9.11-6.34-10.84-11.63-.76-2.33-2.99-3.94-5.55-4-22.89-.53-44.11-3.79-44.44-23.86-.37-22.5,26.7-41.25,60.33-41.8,33.63-.55,61.3,17.31,61.66,39.81,.33,20.39-21.8,24.26-45.77,25.41-2.34,.11-4.32,1.55-5.18,3.74-.85,2.17-.36,4.54,1.26,6.18l.12,.12c1.18,1.16,1.57,2.87,1.01,4.46-.56,1.59-1.94,2.69-3.6,2.86-.53,.05-1.06,.09-1.59,.09Zm-7.87-79.86c-32.08,.52-57.9,17.99-57.56,38.93,.23,14.3,12.31,20.41,41.68,21.09,3.75,.09,7.03,2.47,8.17,5.94,1.47,4.5,4.83,8.11,9.22,9.89,2.43,.99,5.08,1.37,7.67,1.1,.85-.09,1.15-.78,1.23-.99,.07-.21,.26-.93-.33-1.51l-.15-.15c-2.42-2.44-3.14-5.96-1.89-9.19,1.27-3.25,4.21-5.37,7.67-5.54,26.06-1.25,43.36-5.56,43.08-22.54-.34-20.94-26.72-37.56-58.8-37.03Z"/></g></g><g><path class="cls-5" d="M50.25,208.14c0,.65,.03,2.81,.03,4.22,.18-.05,2.32-.42,2.37-.42,.16,0,.26,.1,.26,.21,0,.34-2.03,1.38-2.58,1.67,.03,.89,.1,4.82,.1,5.62,0,1.28-.08,4.09-2.94,4.09-1.59,0-3.23-1.54-3.23-1.87,0-.1,.1-.13,.13-.13,.08,0,1.17,.16,1.38,.16,1.85,0,1.87-.99,1.9-6.85-.55,.29-1.59,.65-2.26,.65-.94,0-1.43-.75-1.43-1.38,0-.44,.26-.89,.91-1.07,.29-.08,2.34-.34,2.79-.44,.03-1.54-.05-3.67-.08-4.43h-1.15c-.23,0-1.22,.42-1.46,.42-.26,0-.75-.1-.75-.62,0-.44,.31-1.17,1.15-1.17,.13,0,.68,.13,.78,.13h1.41c-.08-2.97-.13-3.02-.57-3.28-.13-.08-.26-.18-.26-.36,0-.96,1.48-2.03,2.47-2.03,1.25,0,1.25,.81,1.25,1.2,0,.23-.1,1.28-.1,1.48-.03,.36-.05,2.37-.05,3.05h.44c.16-.26,.47-.81,.91-.81,.36,0,.86,.34,1.15,.94,.29-.39,1.12-1.25,1.95-1.25,.52,0,.65,.18,.75,.39l3.44-.03c.18-.34,.47-.83,1.2-2.34h-2.06c-1.8,1.22-4.5,2.06-5.75,2.06-.13,0-.52,0-.52-.13,0-.1,.73-.55,.99-.7,.26-.13,3.72-2.19,4.61-3.9-.08-.65,.75-.89,1.25-.89,.6,0,1.82,.44,1.82,1.02s-.52,1.02-1.07,1.54h1.61c.23-.31,.86-.7,1.33-.7,.7,0,1.87,.55,1.87,1.33,0,.42-.23,.55-.73,.83-.08,.03-2.42,1.64-2.79,1.9h.89l3.02-.03c.21-.34,.78-.96,1.46-.96,.75,0,1.82,.86,1.82,1.59,0,.49-.65,.57-1.07,.57h-4.01c0,.05-.08,.23-.1,.26-.05,.16-.08,1.02-.08,1.12-.03,.34,.23,.44,.89,.44,1.38,0,2.32-.29,3.51-.65,.78-.23,.86-.26,.91-.26,.26,0,.34,.18,.34,.31,0,.08-.03,.29-.44,1.04-.6,1.07-.99,1.33-2.32,1.33-.47,0-2.55-.05-3.46-.26,0,.23-.16,1.33-.18,1.54h3.88c.52-.55,.78-.81,1.2-.81,.65,0,1.67,.73,1.67,1.38,0,.55-.62,.55-.91,.55-1.64,0-11.22,0-12.1,.13-.18,2.5-.55,6.12-3.33,8.64-.16,.16-1.02,.89-1.48,.89-.1,0-.18-.05-.18-.18,0-.08,.03-.16,.05-.21,2.47-2.45,2.47-8.43,2.47-9.97,0-1.17,0-3.72-.08-4.66-.03-.03-.21-.16-.23-.18-.26,.26-.68,.31-1.02,.31h-1.56Zm8.2,14.71c0,.42,0,.6-.7,.86-.31,.13-.7,.23-1.04,.23-.52,0-.96-.18-.96-.73,0-.49,.08-2.73,.08-3.18-.03-.03-.29-.36-.29-.47,0-.52,1.33-1.15,2.06-1.15,.36,0,.73,.13,.86,.49h4.89c.21-.36,.86-.73,1.3-.73,.65,0,1.69,.62,1.69,1.12,0,.1-.18,.49-.18,.57,0,.39,.05,2.5,.05,2.81,0,.94-1.07,1.17-1.9,1.17-1.02,0-1.02-.31-1.02-1.02h-4.84Zm1.74-15.46c-.68,1.77-2.32,3.41-4.56,3.8,0,.52-.03,.68-.03,1.04,.26,.03,.57,.03,1.43,.03h2.24v-.91c-.16-.18-.39-.39-.39-.55,0-.42,.68-.94,1.69-1.07-.03-.21-.05-.47-.05-1.17v-1.17h-.34Zm-4.48,.03c0,1.22,0,1.72-.03,3.02,1.04-1.04,1.54-2.11,1.74-3.02h-1.72Zm2.03,8.15c-.08,0-.86,.23-1.04,.23-.29,0-.65-.13-.65-.55,0-.44,.42-.86,.99-.86,.1,0,.52,.05,.6,.05h5.83c.26-.36,.65-.6,.96-.6,.57,0,1.51,.65,1.51,1.12,0,.6-.81,.6-.96,.6h-7.24Zm.13,2.16c-.18,0-.99,.21-1.15,.21-.42,0-.68-.16-.68-.55s.39-.86,.96-.86c.1,0,.52,.05,.6,.05h5.83c.23-.34,.65-.57,.96-.57,.6,0,1.54,.65,1.54,1.12,0,.05,0,.31-.34,.47-.26,.1-.42,.1-1.98,.1l-5.75,.03Zm5.44,2.16h-4.63c-.1,0-.18,.05-.21,.13-.03,.05-.05,1.61-.05,1.77h4.89v-1.9Z"/><path class="cls-5" d="M72.25,219.1c-.75,0-1.74-.62-1.74-1.51,0-1.17,.78-1.43,1.25-1.59,2.21-.76,3.12-2,3.59-2.89,.39-.75,.44-.83,.62-.83s.42,.08,.42,.36c0,6.46-3.75,6.46-4.14,6.46Zm19.86,3.07c-.6,.31-1.07,.31-1.51,.31-.47,0-7.6-.29-11.19-7.08-1.33-2.5-1.9-4.95-2.32-6.66-.08-.36-.1-.39-.42-.52-.29-.1-.55-.21-.55-.52,0-.78,1.43-1.64,2.08-1.64,.23,0,.94,.16,.96,.89,.08,1.74,.34,8.15,7.24,10.93,2.34,.94,5,1.25,7.5,1.43,.94,.05,1.04,.08,1.04,.31,0,.36-2.21,2.21-2.84,2.55Zm-9.94-16.84c-.18-.08-.47-.29-.47-.49,0-.73,1.59-1.48,2.34-1.48,.47,0,1.2,.29,1.2,1.04,0,.34-.16,1.95-.16,2.26,0,2.29-.03,4.09-1.54,4.09-1.17,0-1.38-1.3-1.38-2.5v-2.92Zm9.71,1.04c1.02,0,2.08,.99,2.08,1.82,0,1.74-5.02,3.33-6.27,3.33-.36,0-1.02-.16-1.02-.42,0-.16,.21-.31,.36-.42,1.09-.83,2.29-1.74,3.46-3.25,.21-.89,1.04-1.07,1.38-1.07Z"/><path class="cls-5" d="M110.84,212.2c.39-.55,1.07-1.02,1.51-1.02,.62,0,2.08,.81,2.08,1.64,0,.47-.44,.7-.62,.81-.36,.83-1.35,2.94-2.99,4.87,2.47,2.21,8.62,3.23,8.8,3.25,.75,.13,.83,.13,.83,.31,0,.13-.68,.6-1.17,.94-1.82,1.28-2.03,1.41-2.79,1.41-.26,0-4.11-.57-7.58-4.3-2.58,2.21-6.61,3.59-9.94,3.59-.31,0-1.35-.03-1.35-.34,0-.21,.1-.23,.96-.39,3.98-.75,7.31-3.05,8.49-4.56-1.41-2.21-1.98-4.24-2.13-5-.23,0-.39,0-.65,.1-.86,.29-1.28,.44-1.54,.44s-.62-.18-.62-.68c0-.6,.39-1.25,1.09-1.25,.18,0,1.02,.16,1.2,.16h6.43Zm5.1-3.44c.42-.57,1.07-.96,1.72-.96,.86,0,1.93,.6,1.93,1.67,0,.81-1.38,3.18-1.82,3.7-.36,.47-.7,.6-1.02,.6s-.49-.13-.6-.34c-.1-.23-.18-2.86-.18-3.41h-14.5c-.49,2.99-.6,3.77-1.59,3.77-.39,0-.65-.23-.81-.68-.36-1.17-.94-3.25-.94-3.67,0-.91,.78-1.59,1.77-1.59,.55,0,1.48,.31,1.67,.91h9.5l1.15-3.44c.21-.31,.76-.49,1.25-.49,.68,0,1.77,.39,1.77,1.17,0,.68-1.48,2.13-2.21,2.76h2.92Zm-1.51-7.47c.81,0,2.24,.91,2.24,1.72,0,.65-.39,.99-4.5,1.67-3.44,.57-5.44,.6-7.47,.6-4.01,0-5.31-.52-5.31-.86,0-.29,.34-.29,.81-.29,4.37,0,8.72-.73,12.83-2.26,.34-.36,.94-.57,1.41-.57Zm-11.97,5.21c0-.65,.96-1.12,1.64-1.12,.6,0,1.07,.31,1.22,.55,.23,.36,.42,1.77,.42,2.13,0,.44-.21,.68-.7,.68-.18,0-.39-.05-.73-.23-1.61-.86-1.85-1.61-1.85-2Zm6.53,2.24c-.73,0-2.34-1.28-2.34-2.26,0-.68,.96-1.09,1.64-1.09,1.09,0,1.51,.73,1.51,2.58,0,.47-.13,.78-.81,.78Zm-2.32,4.69c.29,.96,.75,1.95,1.98,3.57,.73-1.12,1.41-2.39,1.74-3.57h-3.72Z"/><path class="cls-5" d="M123.08,220.43c-.68,0-1.22-.47-1.22-1.35,0-.73,.49-.94,.65-.99,1.35-.47,1.54-.55,1.95-.99,.42-.42,.44-.47,.6-.47,.18,0,.26,.16,.26,.39,0,1.33-.83,3.41-2.24,3.41Zm7.73-6.33c.36-.44,1.04-.7,1.3-.7,.55,0,1.54,.73,1.54,1.41,0,.1-.36,.6-.36,.73-.05,.47-.16,1.35-.21,1.74-.6,4.95-2.63,6.46-4.22,6.46-1.46,0-2.63-2.26-2.68-2.37,0-.13,.03-.18,.16-.18,.08,0,.21,.05,.29,.08,.05,.03,.6,.23,1.41,.23s1.56-.36,2.24-2.37c-.55,.49-1.07-2.47-1.07-2.66,0-.39,.34-.7,.68-.7,.1,0,.57,.05,.57,.47,0,.18-.05,1.02-.05,1.2,0,.6,.03,.89,.05,1.12,.13-.52,.39-1.64,.47-3.38h-4.58c-.26,.6-1.22,.94-1.56,.94-.55,0-.91-.29-.91-.83,0-.44,.18-2.63,.18-3.12,.05-2.37,.05-4.14,.05-4.4,0-.44-.03-2.16-.05-2.5,0-.1-.39-.57-.39-.7,0-.57,1.2-1.67,1.9-1.67,.21,0,.91,0,1.07,.99h3.57c.26-.55,.75-.96,1.17-.96,.47,0,1.59,.73,1.59,1.51,0,.62-.75,.62-1.09,.62h-1.82v2.29h.36c.26-.49,.73-.62,.96-.62,.57,0,1.2,.68,1.2,1.22,0,.49-.42,.52-.83,.52h-1.69v2.13h.34c.29-.52,.75-.68,1.02-.68,.52,0,1.28,.6,1.28,1.22,0,.52-.57,.55-.94,.55h-1.69v2.42h.78Zm-3.59,4.01c0,.65,0,2.21-.94,2.21-.52,0-.73-.55-.73-1.51,0-.23,.03-1.35,.03-1.61,0-.03-.16-.18-.16-.23,0-.39,.86-.81,1.17-.81,.62,0,.62,.21,.62,1.95Zm.44-10.78v-2.29h-.99c-.08,0-.18,.13-.18,.34l.03,1.95h1.15Zm.03,3.25v-2.13h-1.17v2.13h1.17Zm0,3.51v-2.42h-1.17v2.42h1.17Zm-.16,3.02c0-.05-.16-.29-.16-.34,0-.36,.6-.78,.96-.78,.55,0,.6,.55,.6,.7,0,.31,.05,1.8,.05,2.13,0,.7-.26,1.09-.65,1.09-.55,0-.7-.76-.73-1.35l-.08-1.46Zm16.45-3.59c.31-.44,.91-.78,1.3-.78,.52,0,1.48,.52,1.48,1.2,0,.08,0,.13-.03,.18-.03,.08-.23,.34-.29,.42-.05,.08-.05,1.8-.05,1.87,0,.68,.08,4.06,.08,4.82,0,1.64-.47,2.76-1.87,2.76-.96,0-1.9-1.17-2.11-1.43-.26,.23-.62,.36-.91,.36-.21,0-.52-.08-.6-.39v-4.45h-.75c0,.55,.05,3.23,.05,3.83,0,.81-.78,1.15-1.15,1.15-.81,0-.81-.52-.81-1.25,0-.52,.08-3.12,.08-3.72h-.73v4.19c0,.83-.7,1.38-1.41,1.38-.55,0-1.07-.34-1.07-.99s.29-3.8,.31-4.53c-.89,2.92-2.71,4.53-3.23,4.53-.03,0-.29,0-.29-.21,0-.08,.34-.62,.39-.7,1.07-1.72,1.98-3.7,1.98-9.74v-2.89c0-.23,0-.7-.1-.81-.36-.34-.42-.36-.42-.49,0-.7,1.33-1.61,2.08-1.61,.31,0,.91,.18,.99,.81h5.73c.55-.94,1.22-.94,1.35-.94,.57,0,1.77,.52,1.77,1.25,0,.08-.18,.49-.21,.6,0,.13,.03,2.86,.03,2.89,0,1.02-1.25,1.22-2.11,1.22-.73,0-.75-.36-.75-.86h-5.8c0,.57-.03,1.17-.05,1.67,.39,.1,.7,.31,.83,.68h6.27Zm-.16-10.13c.21-.52,.86-1.07,1.33-1.07,.68,0,2.03,.76,2.03,1.61,0,.7-.86,.75-1.25,.75-.75,0-4.48-.03-5.31-.03h-3.77c-.18,0-1.33,0-1.69,.16-.73,.31-.86,.36-1.09,.36-.49,0-.86-.26-.86-.68,0-.62,.68-1.28,1.35-1.28,.1,0,.68,.16,.81,.16h8.46Zm-1.09,6.69v-1.98h-5.75v1.98h5.75Zm-4.32,6.95v-2.45h-.57c-.1,0-.16,.16-.16,.26v2.19h.73Zm2.58,0v-2.45h-.75v2.45h.75Zm1.98,1.04c0,.47,.03,2.76,.03,3.28,0,.55,0,.6-.16,.99h.34c.57,0,.65-.21,.65-1.28v-2.99h-.86Zm.89-1.04v-2.45h-.89v2.45h.89Z"/></g></g><g><g><path class="cls-2" d="M141.17,14.24c33.63-.55,61.3,17.31,61.66,39.81,.33,20.39-21.8,24.26-45.77,25.41-2.34,.11-4.32,1.55-5.18,3.74-.85,2.17-.36,4.54,1.26,6.18l.12,.12c1.18,1.16,1.57,2.87,1.01,4.46-.56,1.59-1.94,2.69-3.6,2.86-.53,.05-1.06,.09-1.59,.09-2.53,.04-5.07-.43-7.43-1.39-5.16-2.1-9.11-6.34-10.84-11.63-.76-2.33-2.99-3.94-5.55-4-22.89-.53-44.11-3.79-44.44-23.86-.37-22.5,26.7-41.25,60.33-41.8Z"/><g><g><path class="cls-2" d="M93.68,19.99c2.3-2.23,4.89-4.33,7.72-6.27,2.1-1.44,4.34-2.79,6.68-4.02,.69-.37,1.56-.08,1.91,.62h0c.35,.69,.07,1.53-.61,1.89-2.24,1.18-4.38,2.47-6.38,3.84-2.69,1.84-5.14,3.84-7.32,5.94-.55,.54-1.43,.55-1.98,0h0c-.56-.55-.58-1.46-.01-2.01Z"/><path class="cls-2" d="M127.22,2.59C133.89,.99,140.87,.13,147.99,.01c10.1-.16,20.18,1.23,29.25,4.05,.75,.23,1.16,1.04,.91,1.79h0c-.24,.73-1.03,1.13-1.76,.9-8.78-2.73-18.55-4.08-28.35-3.92-6.91,.11-13.69,.95-20.15,2.5-.75,.18-1.51-.27-1.7-1.02-.19-.76,.27-1.54,1.03-1.73Z"/></g><path class="cls-1" d="M148.13,8.48c-32.91,.54-59.3,18.61-58.94,40.36,.29,17.87,18.37,21.9,43.06,22.47,3.1,.07,5.9,2.02,6.86,4.97,1.54,4.72,5.07,8.75,10.03,10.76,2.74,1.11,5.6,1.48,8.35,1.2,2.39-.25,3.45-3.22,1.74-4.91-.04-.04-.09-.09-.13-.13-4.4-4.44-1.39-12.03,4.85-12.33,25.74-1.23,44.73-5.59,44.43-23.98-.35-21.76-27.32-38.96-60.23-38.42Z"/><path class="cls-2" d="M156.03,89.75c-2.53,.04-5.07-.43-7.43-1.39-5.16-2.1-9.11-6.34-10.84-11.63-.76-2.33-2.99-3.94-5.55-4-22.89-.53-44.11-3.79-44.44-23.86-.37-22.5,26.7-41.25,60.33-41.8,33.63-.55,61.3,17.31,61.66,39.81,.33,20.39-21.8,24.26-45.77,25.41-2.34,.11-4.32,1.55-5.18,3.74-.85,2.17-.36,4.54,1.26,6.18l.12,.12c1.18,1.16,1.57,2.87,1.01,4.46-.56,1.59-1.94,2.69-3.6,2.86-.53,.05-1.06,.09-1.59,.09Zm-7.87-79.86c-32.08,.52-57.9,17.99-57.56,38.93,.23,14.3,12.31,20.41,41.68,21.09,3.75,.09,7.03,2.47,8.17,5.94,1.47,4.5,4.83,8.11,9.22,9.89,2.43,.99,5.08,1.37,7.67,1.1,.85-.09,1.15-.78,1.23-.99,.07-.21,.26-.93-.33-1.51l-.15-.15c-2.42-2.44-3.14-5.96-1.89-9.19,1.27-3.25,4.21-5.37,7.67-5.54,26.06-1.25,43.36-5.56,43.08-22.54-.34-20.94-26.72-37.56-58.8-37.03Z"/></g></g><g><path class="cls-5" d="M122.04,41.83c.21-.49,.68-1.04,1.22-1.04,.91,0,1.67,.99,1.67,1.67,0,.55-.75,.55-1.8,.55h-3.05l.03,7.84h.81c0-1.09,.03-2.39,.03-3.28,0-.6,0-.96-.05-1.17-.03-.08-.26-.47-.26-.57,0-.55,1.2-1.17,1.87-1.17,.39,0,1.12,.21,1.12,.73,0,.16-.08,.96-.08,1.15,0,.68,.03,3.96,.03,4.69,0,.55,0,.75-.49,1.04-.26,.16-.75,.36-1.3,.36-.89,0-.89-.36-.89-.7h-4.32v.42c0,.52-1.12,.91-2.06,.91-.34,0-.7-.29-.7-.62,0-.89,.18-5.13,.18-6.09,0-.18,0-.23-.1-.31-.31-.23-.34-.26-.34-.44,0-.57,1.61-1.15,2.21-1.15,.16,0,.91,.08,.91,.81,0,.16-.1,1.02-.1,1.2l-.03,4.22h.88c.03-1.12,.03-6.59,.05-7.84h-2.68c-.26,0-1.48,.31-1.77,.31-.23,0-.57-.16-.57-.52,0-.39,.31-1.07,1.17-1.07,.13,0,.83,.1,.99,.1h2.86c.03-1.74,.05-2.19-.05-3.67h-.55c-1.2,1.28-3.1,2.42-4.3,2.42-.1,0-.36,0-.36-.18,0-.1,.44-.52,.57-.62,2.34-2.16,4.11-5.62,4.11-6.2,0-.05-.05-.36-.05-.42,0-.6,.7-.94,1.38-.94,.52,0,1.87,.34,1.87,1.07,0,.94-1.2,2.58-2.08,3.67,.42-.03,.62-.03,3.02-.03,.21-.49,.81-.81,1.15-.81,.73,0,1.51,.81,1.51,1.48,0,.49-.49,.55-1.04,.55h-2.5c-.05,1.09-.08,1.51-.08,3.67h1.95Zm8.88,2.63c1.15,4.45,4.43,7.58,6.79,8.72,.08,.05,.26,.13,.26,.23,0,.34-3.18,1.43-3.75,1.43-.36,0-.47-.08-1.02-.52-3.12-3.05-3.31-7.6-3.36-9.29-.47,8.64-7.68,9.48-9.01,9.48-.08,0-.34,0-.34-.1s.13-.16,.81-.44c5.23-2.08,5.91-7.5,6.14-9.5l-2.16,.08c-.21,0-1.22,.34-1.46,.34-.7,0-.78-.49-.78-.7,0-.55,.55-.83,.81-.91h3.8c.08-1.2,.08-1.72,.08-5.02-.26,.03-1.51,0-1.77,.1-.6,.23-.94,.36-1.25,.36s-.73-.26-.73-.65c0-.34,.18-1.2,1.12-1.2,.1,0,.65,.1,.78,.1l1.77-.03v-.83c0-.47-.03-1.54-.05-2.16-.03-.36-.05-.42-.18-.57-.36-.39-.39-.44-.39-.62,0-.68,1.8-1.67,2.55-1.67,1.12,0,1.12,.78,1.12,1.09,0,.13-.08,.76-.08,.91-.03,.1-.05,3.36-.05,3.8l1.12-.03c.29-.47,.99-.99,1.56-.99,.68,0,1.93,.78,1.93,1.46,0,.13-.36,.68-.39,.81-.16,1.07-.39,3.85-.42,5.05l.39-.03c.26-.6,.73-1.04,1.25-1.04,.81,0,1.64,.91,1.64,1.67,0,.68-.42,.68-1.15,.68h-5.6Zm.86-6.38l-1.2,.05c0,1.25-.1,4.69-.13,5.13l1.22-.05,.1-5.13Z"/><path class="cls-5" d="M145.35,46.93c.49-.1,2.94-.78,3.05-.78s.29,0,.29,.16c0,.29-.7,1.02-2.13,1.87-1.87,1.15-5.02,2.32-6.27,2.32-.75,0-1.56-.65-1.56-1.41,0-.83,.55-1.15,.81-1.25,.08-.03,1.8-.26,3.07-.42l.03-5.52h-.78c-.44,0-.55,0-.99,.1-.13,.05-.7,.23-.83,.23-.1,0-.65-.03-.65-.57,0-.26,.1-1.04,.96-1.04,.1,0,.55,.1,.65,.1h1.67c0-.55-.03-4.58-.05-4.74h-1.59c-.18,0-1.09,.31-1.3,.31-.13,0-.73-.08-.73-.55s.36-1.17,1.12-1.17c.13,0,.73,.13,.86,.13h4.82c.34-.7,.68-.91,1.04-.91,.73,0,1.59,.81,1.59,1.54,0,.62-.62,.65-.88,.65h-2.03c-.08,.36-.1,1.09-.1,1.48v3.25h.65c.23-.39,.7-.75,1.07-.75,.62,0,1.3,.73,1.3,1.33,0,.52-.68,.57-1.02,.57h-2.03v5.05Zm5.31,.94c0-.55,1.51-.91,1.95-.91s1.15,.18,1.15,.73c0,.62-.86,4.76-5.52,6.56-.78,.31-2.68,1.04-5.34,1.04-.21,0-.7,0-.7-.23,0-.13,.13-.18,1.17-.44,2.29-.6,6.25-2.16,7.5-6.48-.18-.13-.21-.16-.21-.26Zm6.2-1.56c-.05,1.51-.1,4.27-.1,4.61,0,1.43,.34,1.67,2.16,1.67,2.13,0,3.57-.81,4.66-1.43,.03-.03,.13-.05,.23-.05,.13,0,.29,.05,.29,.23,0,.49-.65,2.19-.91,2.73-.57,1.15-1.54,1.25-2.47,1.25-1.48,0-3.49-.31-4.84-.89-1.69-.7-1.69-1.56-1.69-2.92,0-.75,.08-4.37,.08-5.21h-2.58c-.16,.89-1.25,1.25-1.82,1.25-.91,0-.91-.7-.91-1.09,0-.62,.13-3.77,.13-4.48,.03-1.64,.03-2.99,.03-5.08,0-1.51-.03-1.54-.31-1.87-.73-.81,1.41-1.87,1.98-1.87,.34,0,1.07,.08,1.15,.94h5.31c.31-.6,1.04-1.02,1.56-1.02,.78,0,1.9,.75,1.9,1.48,0,.1-.05,.21-.21,.55-.21,.47-.21,.81-.21,1.35,0,1.48,.18,8.8,.18,9.32,0,1.48-2.03,1.48-2.13,1.48-.99,0-1.04-.68-1.04-.96h-.42Zm.36-8.49v-2.47h-5.05c-.31,0-.39,.26-.39,.39v2.08h5.44Zm0,3.7v-2.5h-5.44v2.5h5.44Zm0,3.7v-2.47h-5.44v2.47h5.44Z"/><path class="cls-5" d="M172.95,41.88c-.26,0-1.46,.47-1.72,.47-.47,0-.78-.29-.78-.7,0-.29,.1-.49,.49-.86-3.1,2.11-5.6,2.5-6.22,2.5-.16,0-.39-.03-.39-.23,0-.13,.08-.18,.83-.62,4.84-2.79,8.62-8.3,9.01-9.55,.18-.52,.42-1.3,1.61-1.3,1.04,0,2.39,.49,2.39,1.41,0,.23-.16,.52-.29,.7,.42,.73,2.89,4.09,10.44,6.38,1.56,.47,1.74,.55,1.74,.7,0,.23-2.79,2.26-3.75,2.26s-2.86-1.2-4.19-2.03c0,.55-.05,.83-1.07,.83h-2.73l-.03,3.1,3.54-.03c.36-.75,.99-1.07,1.35-1.07,.62,0,1.77,.81,1.77,1.61,0,.75-.89,.75-1.67,.75h-5.02l.03,6.4,5.49-.03c.47-.81,1.25-1.33,1.85-1.33,.81,0,2.11,.89,2.11,1.87,0,.7-.68,.89-1.22,.89h-16.66c-.57,0-1.02,.08-1.56,.21-.6,.16-.73,.18-.96,.18-.49,0-.88-.29-.88-.75,0-.57,.62-1.28,1.17-1.28,.21,0,1.17,.23,1.41,.23h6.14c.08-2.26,.08-4.19,.08-6.4l-3.93,.03c-.26,0-1.51,.44-1.8,.44s-.81-.1-.81-.78,.57-1.15,1.17-1.15c.16,0,.91,.18,1.09,.18h4.27c0-.44-.03-2.58-.03-3.07l-2.29,.03Zm-1.61,9.11c-.42,0-2.58-.16-2.58-1.46,0-.52,.49-1.33,1.28-1.33,.62,0,1.04,.26,1.59,.55,.6,.34,1.17,.57,1.48,.65,.23,.08,1.64,.23,1.64,.49,0,.6-2.37,1.09-3.41,1.09Zm8.02-10.39c.6-.89,.86-.86,1.64-.83-1.64-1.43-3.02-3.31-3.9-5.15-2.19,3.33-4.92,5.28-6.04,6.09,.26-.1,.34-.18,.6-.18,.05,0,.36,.08,.44,.08h7.26Zm3.8,9.22c-1.17,.6-3.25,1.33-4.27,1.33-.16,0-.29-.05-.29-.29,0-.21,.16-.36,.29-.47,1.02-.83,1.72-1.67,2-2.03,1.09-1.28,1.22-1.43,1.85-1.43,.75,0,1.67,.68,1.67,1.46s-.81,1.2-1.25,1.43Z"/></g></g></g></g></svg>