<?xml version="1.0" encoding="UTF-8"?><svg xmlns="http://www.w3.org/2000/svg" viewBox="0 0 284.9 447.91"><defs><style>.cls-1{fill:#9f2125;opacity:.1;}.cls-2{fill:#0e2c50;}.cls-3,.cls-4{fill:#595857;}.cls-4{stroke:#fff;stroke-width:.5px;}.cls-4,.cls-5{stroke-miterlimit:10;}.cls-6{mix-blend-mode:darken;}.cls-7{isolation:isolate;}.cls-5{fill:none;stroke:#9f2125;stroke-width:7px;}</style></defs><g class="cls-7"><g id="_圖層_2"><g id="_圖層_1-2"><g><g><path class="cls-3" d="M28.78,289.39c.31-.5,.7-.81,1.12-.81,.7,0,1.71,.81,1.71,1.54,0,.59-.62,.62-1.2,.62h-3.56c0,.53,.08,3.14,.08,3.72,0,1.32-1.85,1.48-1.96,1.48-.56,0-1.15-.25-1.15-.9,0-.08,.22-3.64,.22-4.31h-2.58c-.28,0-1.57,.39-1.88,.39-.42,0-.81-.28-.81-.78,0-.59,.5-1.12,1.2-1.12,.14,0,.81,.17,.98,.17h3.14c0-.36,.06-2.1,.06-2.49h-.9c-.08,.78-1.51,1.04-1.93,1.04-.5,0-.9-.25-.9-.76,0-.78,.17-4.62,.17-5.49v-1.43s-.03-.08-.08-.14c-.25-.22-.28-.25-.28-.42,0-.64,1.46-1.48,2.21-1.48,.39,0,.73,.2,.87,.59h.95c0-.59,0-1.6-.03-2.21h-2.18c-.22,0-1.32,.39-1.57,.39-.36,0-.76-.34-.76-.73,0-.48,.48-1.15,1.23-1.15,.17,0,.95,.2,1.15,.2h2.1c0-.45-.06-1.93-.14-2.02-.11-.11-.39-.36-.39-.48,0-.64,1.79-1.51,2.6-1.51,.22,0,.98,0,.98,.87,0,.2-.14,1.15-.14,1.34l-.06,1.79h1.26c.31-.53,.78-.9,1.15-.9,.67,0,1.57,.81,1.57,1.51s-.84,.7-1.32,.7h-2.72l-.08,2.18h1.06c.48-.64,1.12-.64,1.23-.64,.64,0,1.51,.53,1.51,1.18,0,.08-.25,.45-.28,.53,0,.87,.11,5.21,.11,6.19,0,.5,0,1.68-1.85,1.68-.84,0-.92-.31-.92-.84h-.92c-.03,1.18-.03,1.32,0,2.49h1.9Zm-4.54-7.25v-2.18l-.84-.03c-.11,0-.14,.11-.14,.34v1.88h.98Zm0,1.18h-.98v2.41h.92l.06-2.41Zm3.56-3.36h-.9c-.03,.95-.03,1.29-.03,2.18h.9l.03-2.18Zm.03,5.77v-2.41h-.95v2.41h.95Zm15.32-9.66c.2-.48,.87-1.06,1.32-1.06,.67,0,1.99,.92,1.99,1.74,0,.73-.92,.81-1.4,.81l-5.88-.03-.03,2.55h2.02c.42-.56,.95-.87,1.43-.87,.76,0,1.88,.59,1.88,1.43,0,.08-.22,.48-.22,.59,0,1.46,.17,8.6,.17,10.22,0,1.54,0,3.72-2.8,3.72-.87,0-1.82-.87-2.46-1.65-.5,.87-1.34,1.23-1.76,1.23-1.23,0-1.23-1.15-1.23-1.68,0-.67,.17-3.89,.17-4.62h-1.74c.03,1.4,.03,3.19,.03,4.56,0,.56,0,.92-.45,1.37-.53,.5-1.2,.76-1.6,.76-.56,0-1.06-.39-1.06-1.06,0-.53,.2-3.16,.22-3.75,.11-2.52,.25-5.46,.25-7.98,0-.62,0-.7-.22-.9-.11-.11-.22-.22-.22-.42,0-.67,1.18-1.65,1.9-1.65,.14,0,.95,.06,1.09,.7h1.88v-2.52l-2.97,.06c-.53,0-1.15,.22-1.2,.22-.25,.11-.53,.22-.81,.22-.36,0-.76-.28-.76-.73,0-.53,.39-1.34,1.29-1.34,.14,0,.76,.14,.9,.14l3.56,.03c0-.45-.03-1.37-.06-1.9-.03-.28-.03-.31-.17-.5-.42-.5-.48-.56-.48-.76,0-.78,1.65-2.02,2.63-2.02,.36,0,1.18,.17,1.18,1.04,0,.17-.06,.45-.08,.64-.17,1.4-.22,2.41-.22,3.5l3.95-.08Zm-6.75,7.45v-2.21h-1.6c-.08,0-.17,.08-.2,.2-.03,.14-.03,1.71-.03,2.02h1.82Zm-.06,3.67c0-.76,.03-1.12,.06-2.44h-1.82v2.44h1.76Zm4.96-3.67l-.03-2.24h-2.13v2.24h2.16Zm0,3.67v-2.44h-2.16c.03,1.01,.03,1.43,.06,2.44h2.1Zm-2.1,1.26c.06,2.07,.06,2.24,.08,4.59,.31,.08,.81,.11,1.01,.11,.45,0,1.01-.14,1.01-1.54v-3.16h-2.1Zm1.26-12.71c-.28,0-.36-.11-.36-.34,0-.42,.9-2.83,1.04-3.16,.17-.39,.64-.98,1.48-.98,1.15,0,1.62,1.01,1.62,1.48,0,1.15-3.14,3-3.78,3Z"/><path class="cls-3" d="M50.06,280.46c-.11,0-.31,.08-.39,.08-.92,.39-1.04,.42-1.34,.42-.36,0-.81-.31-.81-.76,0-.56,.42-1.29,1.37-1.29,.14,0,.87,.14,1.04,.14,.59,0,1.57-.03,2.04-.06,.48-.48,.9-.87,1.71-.87,.59,0,1.74,.56,1.74,1.18,0,.14-.2,.73-.22,.87-.03,.14-.03,2.02-.03,2.16,0,.76-.34,.9-1.57,1.34-.36,.22-1.18,.95-1.26,1.15,.59-.11,.92-.11,1.79-.11,.31,0,3.16,.31,3.89,.39,5.38,.56,6.97,.64,9.63,.64s3.61-.06,5.1-.42c.25-.06,1.57-.36,1.6-.36,.17,0,.22,.03,.22,.2,0,.45-1.68,1.99-2.18,2.35-.92,.67-1.4,.73-2.32,.73-.59,0-1.43-.03-4.31-.34v1.6h2.91c.31-.53,1.04-.95,1.54-.95,.67,0,2.07,.81,2.07,1.62,0,.56-.81,.64-.98,.67-.48,.06-4.62,0-5.49,0,0,1.43,0,3.44-.03,3.64-.17,1.26-1.23,2.04-2.69,2.04-2.02,0-3.92-1.85-3.92-2.3,0-.08,.08-.08,.22-.08s1.46,.17,1.74,.17c1.51,0,1.51-.31,1.51-2.07v-1.4c-3.64,.03-8.32,.08-10.81,.08-.62,0-.78,.08-.9,.14-.62,.34-.78,.42-1.29,.42-.78,0-.95-.48-.95-.67,0-.53,.73-1.43,1.57-1.43,.22,0,1.32,.11,1.54,.11,.81,.06,9.13,0,10.84,0,0-.25,0-1.18-.14-1.26-.36-.22-.39-.25-.39-.42,0-.11,.06-.22,.11-.28l-6.19-1.09c-1.62-.28-3.14-.48-3.44-.48-.76,0-1.26,.25-2.32,1.26-.59,.56-.84,.78-1.37,.78-.73,0-1.82-.67-1.82-1.4,0-.45,.28-.62,1.46-1.26,2.41-1.29,2.77-1.51,3.47-2.27v-2.72l-1.93,.08Zm3.86-5.1c-.14,.31-.53,.39-.84,.39-1.15,0-4.4-.78-4.4-2.16,0-.76,.78-1.54,1.62-1.54,1.51,0,3.5,2.46,3.61,3.02v.28Zm6.13,16.46c.2,0,.34,.08,.34,.22,0,.53-2.63,2.8-5.8,2.8-.92,0-2.02-.36-2.02-1.18,0-.87,1.04-1.57,1.71-1.57,.08,0,.48,.14,.59,.14,.22,.06,.39,.06,1.01,.06,.5,0,2.21-.11,2.72-.2,.2-.06,1.18-.25,1.4-.28h.06Zm8.51-18c.31-.64,1.01-1.2,1.6-1.2,.7,0,2.18,.9,2.18,1.65,0,.64-.84,.81-1.32,.81h-6.78c-.03,.45-.73,1.2-1.12,1.62h2.97c.34-.53,1.04-.9,1.43-.9,.56,0,2.04,.76,2.04,1.4,0,.14-.06,.25-.11,.34-.17,.28-.22,.36-.22,.67,0,.76,.11,4.48,.11,5.32,0,1.4-1.79,1.4-2.04,1.4-1.23,0-1.23-.56-1.26-1.04h-6.38c-.14,.67-1.68,.84-1.99,.84-.95,0-.95-.56-.95-1.4,0-.76,.08-4.4,.08-5.21-.03-.08-.31-.39-.31-.48,0-.64,1.32-1.54,2.07-1.54,.14,0,.92,0,1.09,.62h.92c.03-.22,.22-1.4,.25-1.65h-3.22c-.25,0-.7,0-.92,.08-.22,.03-1.29,.5-1.54,.5-.42,0-.76-.34-.76-.76,0-.5,.56-1.2,1.23-1.2,.14,0,.67,.11,.81,.11h3.02c-.06-.08-.98-1.01-1.15-1.2s-.5-.59-.5-.9c0-.7,1.09-1.29,1.96-1.29,1.54,0,1.65,1.26,1.85,3.39h1.93c.42-1.85,.48-2.07,.59-2.41,.17-.5,.45-1.26,1.57-1.26,.73,0,1.79,.59,1.79,1.37,0,.67-.2,.84-2.04,2.3h3.11Zm-2.49,4.93v-.95h-6.13c-.17,0-.31,.08-.31,.22v.73h6.44Zm.03,1.99v-.95h-6.47v.95h6.47Zm0,1.99v-.95h-6.47v.95h6.47Z"/><path class="cls-3" d="M87.69,285.19c-.03,2.97-1.65,6.24-4.51,8.09-2.91,1.9-6.27,2.16-6.83,2.16-.28,0-.45-.14-.45-.28,0-.17,.42-.31,.87-.48,1.57-.59,6.5-2.44,7.45-8.26-.17-.45-.17-.5-.17-.64,0-.28,.08-.45,.2-.59-.81,0-3.81,.03-4.37,.08-.28,0-1.46,.42-1.68,.42-.59,0-.92-.45-.92-.78,0-.62,.7-1.37,1.46-1.37,.11,0,.64,.11,.76,.14,.64,.06,1.46,.06,2.07,.06h14.9c.34-.56,1.2-1.15,1.76-1.15,.73,0,1.96,.9,1.96,1.79,0,.84-1.12,.84-1.48,.84h-1.76c-.59,0-3.16-.03-3.7-.03h-1.2c-.06,.17-.17,.48-.17,.5-.11,.64-.31,4.68-.31,5.66,0,.67,0,1.37,2.44,1.37,2.91,0,4.9-.78,7.36-2.04,.06-.03,.11-.06,.2-.06s.31,0,.31,.25c0,.5-.42,1.76-.64,2.35-.76,2.04-1.88,2.49-3.78,2.49-2.35,0-5.94-.62-7.42-1.29-1.26-.59-1.26-1.62-1.26-2.44,0-1.06,.14-6.22,.06-6.8h-1.12Zm-6.41-8.88c-.48,3.72-.95,4.09-1.57,4.09s-.9-.59-1.06-.92c-.48-1.09-1.09-3.08-1.09-3.89,0-1.2,1.32-1.74,2.13-1.74s1.48,.53,1.74,1.06h5.52c-.03-.76-.08-1.32-.17-1.88-.56-.28-.76-.48-.76-.73,0-.95,1.99-2.04,2.97-2.04,.34,0,1.37,.17,1.37,1.4,0,.17,0,.22-.03,.42-.14,1.01-.25,1.85-.31,2.83h5.99c.28-.53,1.04-1.06,1.88-1.06s1.96,.48,1.96,1.68c0,1.09-.98,2.91-1.43,3.75-.28,.53-.59,1.12-1.26,1.12-.59,0-.98,0-1.09-4.09h-14.78Zm5.12,4.26c-1.62,0-1.79,0-2.46,.06-.25,.03-1.4,.39-1.65,.39-.39,0-.81-.31-.81-.76,0-.48,.36-1.32,1.2-1.32,.11,0,.67,.06,.78,.08,.73,.06,1.4,.08,2.1,.08h3.42c.98,0,2.35,0,3.08-.03,.34-.59,.9-.92,1.4-.92,.78,0,1.9,.92,1.9,1.71s-1.09,.76-1.54,.76c-.36,0-1.99-.06-2.32-.06h-5.1Z"/><path class="cls-3" d="M119.39,285.47c.06-.11,.87-1.76,1.32-2.63,.2-.39,.42-.84,1.4-.84,.45,0,1.62,.14,1.62,1.04s-1.93,1.9-3.25,2.44h5.57c.45-.78,1.32-1.32,1.82-1.32,.81,0,2.3,1.12,2.3,2.04,0,.73-.7,.78-1.37,.78-1.74,0-10.28-.06-12.21-.06s-8.23,0-9.91,.14c-.31,.03-1.71,.39-2.04,.39s-1.04-.14-1.04-.7,.64-1.54,1.43-1.54c.25,0,1.34,.28,1.6,.28,.34,0,6.89-.03,8.18-.03,.03-.87,.06-1.46,.06-3.7h-1.34c-1.6,0-5.12,.06-5.91,.14-.22,.03-1.26,.36-1.51,.36-.56,0-.78-.39-.78-.76,0-.64,.64-1.32,1.34-1.32,.22,0,1.26,.17,1.48,.17h6.72v-1.6h-1.04c-1.68,0-2.52,.08-3.14,.17-.08,.03-1.04,.17-1.06,.17-.5,0-.73-.17-.73-.56,0-.56,.53-1.23,1.2-1.23,.14,0,.95,.17,1.12,.17h3.61l-.03-1.79h-1.79c-1.23,0-3.78,.03-4.84,.25-.14,.03-.76,.22-.9,.22-.53,0-.9-.31-.9-.81,0-.59,.56-1.32,1.34-1.32,.2,0,1.23,.17,1.48,.2,.17,0,3.89,.03,4.23,.03-1.4-.62-2.94-1.88-2.94-2.52,0-.59,.76-1.43,1.71-1.43,.9,0,1.54,.56,1.79,1.26,.17,.48,.53,1.93,.53,2.38,0,.11-.06,.22-.2,.31h3.25c.17-.45,.87-2.63,1.06-3.11,.2-.45,.5-.98,1.32-.98,.92,0,2.1,.56,2.1,1.34,0,.73-.25,.95-2.41,2.74,.56-.03,3.25,.03,3.86-.03,.28-.59,.9-1.12,1.37-1.12,.67,0,1.96,.84,1.96,1.74,0,.62-.78,.84-1.48,.84h-7.28c-.03,.81-.06,1.32-.06,1.79h3.14c.42-.67,.92-.95,1.29-.95,.59,0,1.9,.84,1.9,1.57,0,.67-1.12,.67-1.51,.67h-4.84v1.6h6.02c.48-.67,1.34-1.12,1.82-1.12,.62,0,2.04,.87,2.04,1.62,0,.5-.5,.87-1.09,.87h-8.79v3.72h1.4Zm1.82,3.28c.48-.62,1.37-.98,1.76-.98,.78,0,2.18,.67,2.18,1.46,0,.2-.39,1.01-.39,1.2,0,.56,.14,3.3,.14,3.95,0,1.06-1.48,1.4-2.46,1.4-1.29,0-1.32-.5-1.32-1.12v-.48h-9.32v.56c0,.76-1.51,1.37-2.32,1.37-.76,0-1.12-.34-1.12-.9,0-.7,.22-4.14,.22-4.93,0-.36,0-.39-.14-.5-.34-.28-.36-.28-.36-.48,0-.64,1.99-1.46,2.55-1.46,.2,0,1.09,.14,1.37,.9h9.21Zm-9.91-3.89c-.95,0-2.38-.36-2.38-1.23,0-.64,.95-1.15,1.46-1.15,.34,0,.7,.17,.76,.2,.67,.31,1.37,.59,2.1,.59,.11,0,.67-.06,.81-.06,.36,0,.48,.14,.48,.28,0,.5-1.74,1.37-3.22,1.37Zm9.86,7.95v-2.74h-9.07c-.17,0-.31,.14-.31,.31v2.44h9.38Z"/><path class="cls-3" d="M137.7,295.91c-1.46,0-1.85-1.01-2.18-1.93-.11-.28-.95-2.41-3.36-4.4-.14-.11-.45-.36-.45-.48,0-.25,.28-.31,.48-.31,.48,0,4.06,.42,6.22,2.49,.67,.62,1.29,1.6,1.29,2.46,0,1.15-.76,2.16-1.99,2.16Z"/><path class="cls-3" d="M164.22,274.52c.28,.39,.7,1.01,3.05,2.04,.45,.08,.78,.31,.78,.45,0,.5-1.79,1.06-2.32,1.06-.84,0-1.74-1.12-2.41-2.13-.45,1.01-1.57,2.94-6.69,2.94-.34,0-.62,0-.62-.28,0-.17,.48-.31,1.01-.45,3.47-.95,4.65-2.69,4.65-5.71,0-.08-.03-.45-.03-.53-.03-.06-.11-.14-.2-.17-.14-.11-.25-.17-.25-.34,0-.53,1.68-1.15,2.32-1.15,.25,0,1.04,.08,1.04,.95,0,.39-.2,2.07-.22,2.41,.53-.45,1.09-1.01,1.46-1.54,.22-.34,.7-.42,1.04-.42,.64,0,1.43,.53,1.43,.95,0,1.04-3.64,1.68-3.72,1.68-.14,0-.2,0-.28-.08,0,.11-.03,.28-.03,.31Zm-4.12,6.97c-.14,.78-.53,2.16-.84,2.88-.2,.45-.7,.56-.98,.56-.53,0-.67-.25-.78-.45-.42-.84-1.09-3.3-1.09-3.64,0-.81,.92-1.54,1.99-1.54,.59,0,1.6,.31,1.88,.9h15.85c.39-.62,1.29-.98,1.93-.98,1.09,0,2.1,.7,2.1,1.57,0,.67-1.04,2.63-1.51,3.36-.2,.28-.5,.7-1.15,.7-.84,0-.87-.17-1.2-3.36h-16.18Zm-1.15-8.15c.56,0,1.29-.08,1.76-.36,.06-.03,.17-.06,.25-.06s.36,0,.36,.25c0,.48-1.26,1.96-3.25,1.96-.81,0-1.48-.5-1.48-.95,0-.39,.42-.95,1.15-.95,.36,0,.98,.11,1.2,.11Zm14.25,21.42h-10.25c0,.48,0,.81-.7,1.18-.5,.28-1.04,.39-1.37,.39-.53,0-1.12-.28-1.12-1.01,0-.64,.14-3.53,.14-4.12,0-.25-.06-.34-.34-.59-.08-.08-.17-.17-.17-.34,0-.76,1.68-1.54,2.44-1.54,.11,0,.78,0,1.04,.76h3.19c.25-1.01,.31-1.46,.39-2.1h-1.79c-.08,.53-1.57,.67-1.76,.67-1.12,0-1.12-.39-1.12-.9,0-.45,.06-2.38,.06-2.77,0-.14-.36-.67-.36-.81,0-.7,1.57-1.4,2.18-1.4,.14,0,1.04,.08,1.09,.84h6.61c.42-.62,1.04-.92,1.48-.92,.76,0,1.9,.67,1.9,1.34,0,.14-.06,.25-.25,.56,0,.48,.08,2.58,.08,3.02,0,.36,0,.59-.7,.87-.42,.17-.98,.28-1.51,.28-1.01,0-1.04-.39-1.01-.78h-1.93c-.03,.56-.76,1.62-1.15,2.1h4.84c.48-.73,1.06-.98,1.51-.98,.76,0,2.32,.81,2.32,1.57,0,.28-.11,.42-.34,.7,0,.62,.08,3.3,.08,3.86,0,.45,0,.81-.62,1.18-.5,.28-1.04,.39-1.57,.39-1.23,0-1.32-.5-1.32-1.06v-.39Zm0-4.06h-9.91c-.22,0-.39,.06-.39,.31v2.46h10.3v-2.77Zm-1.88-6.5h-6.41c-.11,0-.25,.06-.25,.34v1.76h6.66v-2.1Zm-2.18-5.24c-.81,.25-2.41,.56-3.47,.56-.25,0-.67,0-.67-.28,0-.17,.62-.36,1.06-.5,4.98-1.6,4.98-4.54,4.98-6.89-.03-.08-.36-.45-.36-.56,0-.64,1.76-1.15,2.38-1.15,.5,0,.95,.31,.95,.7,0,.14-.17,.76-.17,.9,0,.31,.03,1.48,.67,2.69,1.34-1.06,1.6-1.29,2.24-2.04,.17-.34,.67-.59,1.04-.59,.87,0,1.54,.7,1.54,1.29,0,.25-.17,.78-1.09,1.12-.22,.08-1.71,.56-3.33,.81,.34,.62,2.38,2.16,4.14,2.69,1.06,.31,1.12,.34,1.12,.5,0,.2-2.66,1.09-3.25,1.09-.7,0-.95,0-1.68-.64-1.68-1.48-1.82-2.86-1.99-4.37-.17,1.12-.56,3.56-4.12,4.68Zm-.56-5.07c.28,0,1.26-.11,1.62-.22,.17-.06,.31-.11,.39-.11,.2,0,.22,.08,.22,.2,0,.34-1.15,1.68-2.88,1.68-.76,0-1.2-.42-1.2-.78,0-.31,.31-.87,1.09-.9,.34,.11,.7,.14,.76,.14Z"/><path class="cls-3" d="M189.84,287.37c-2.13,.84-4.96,1.99-5.94,1.99-.7,0-1.4-.53-1.4-1.26,0-.56,.48-1.12,1.01-1.26,.25-.06,1.51-.11,1.79-.17,0-.92,.06-5.52,.06-6.55,0-.53,0-2.04-.08-2.49-.03-.14-.53-.73-.53-.9,0-.67,1.6-1.62,2.46-1.62,.73,0,1.23,.39,1.23,1.12,0,.11-.06,.59-.08,.67,0,.14-.2,8.6-.22,9.55,.67-.06,1.23-.11,1.76-.22,0-.76,.08-5.94,.08-6.19,0-.64-.08-3.84-.08-4.56,0-.92-.06-1.26-.08-1.54-.03-.14-.5-.76-.5-.92,0-.62,1.76-1.57,2.63-1.57,.06,0,1.18,0,1.18,.92,0,.14-.22,2.21-.25,2.63-.06,1.71-.08,5.6-.08,7.45,0,1.51,.17,8.99,.17,10.7,0,1.18,0,1.37-.5,1.88-.34,.34-.95,.73-1.6,.73-.59,0-1.29-.28-1.29-1.15,0-.39,.17-2.41,.17-2.86l.11-4.37Zm14.98-10.47c.34-.78,1.06-1.34,1.57-1.34,.67,0,2.16,.87,2.16,1.88,0,.78-.31,.81-3.3,.84,.17,.14,.28,.28,.28,.59,0,2.8-1.51,6.75-3.08,9.38,2.32,2.6,5.57,4.03,7.14,4.7,.42,.17,.56,.22,.56,.36-.14,.48-3.64,2.02-4.26,2.02-.78,0-3.39-2.02-5.29-4.9-3.19,3.44-6.75,3.67-7.28,3.67-.28,0-.31-.2-.31-.28,.03-.11,1.18-.7,1.4-.84,.84-.5,2.91-1.93,4.59-4.54-1.71-3.92-1.82-7.64-1.85-8.82-1.71,2.07-3.33,2.55-3.53,2.55-.14,0-.28-.06-.28-.2,0-.17,.28-.36,.31-.39,1.79-2.24,3.16-5.52,3.75-8.76-.03-.06-.17-.34-.17-.42,0-.56,1.15-1.34,2.02-1.34,.64,0,1.68,.42,1.68,1.32,0,.62-.78,2.88-1.74,4.54h5.63Zm-6.5,1.37c.56,4.45,1.26,5.94,2.16,7.67,1.2-3.11,1.54-5.52,1.54-6.33,0-.14-.17-.81-.17-.98,0-.11,.06-.31,.25-.36h-3.78Z"/><path class="cls-3" d="M218.99,278.52c.11-.2,.5-.76,1.04-.76,.17,0,.31,.03,.45,.11,.06,.03,.34,.25,.42,.28,1.29-1.85,1.71-3.89,1.76-4.34,.06-.56,.14-1.06,1.43-1.06,.39,0,1.12,.28,1.32,.64,1.18-.28,3.61-1.06,5.21-1.85,.17-.2,.73-.76,1.51-.76,.67,0,1.99,.67,1.99,1.54,0,.62-.25,.67-2.21,1.09-1.01,.22-2.8,.62-6.36,.87-.62,2.02-2.41,3.78-4.28,4.37,.11,.22,.17,.42,.17,.59,0,.56-.73,.62-1.09,.62h-2.1v1.37c.53,.62,1.54,1.43,2.13,1.71,.22,.11,.7,.34,.7,.64,0,.67-1.43,1.34-1.76,1.34-.45,0-.53-.11-1.12-1.01,.03,1.4,.11,7.9,.11,9.16s-1.26,1.93-2.1,1.93c-1.06,0-1.15-.53-1.15-1.32,0-.7,.31-7.22,.36-8.6-2.02,3.58-4.28,4.56-4.68,4.56-.11,0-.25-.08-.25-.22,0-.03,1.23-1.99,1.43-2.38,.64-1.26,1.6-3.44,1.76-4.65,.11-.95,.22-1.62,1.48-1.62,.06,0,.22,.03,.31,.06v-.98h-1.46c-.34,0-.7,.08-.84,.14-.31,.14-.76,.36-1.06,.36-.2,0-.7-.11-.7-.7,0-.67,.45-1.26,1.18-1.26,.11,0,.7,.11,.84,.11h2.04l-.06-2.97c-.53,.06-1.23,.08-1.79,.08-.42,0-2.55-.11-2.55-.62,0-.17,.08-.17,.87-.34,3.11-.62,5.63-1.96,6.27-2.35,.31-.48,.84-.73,1.4-.73,.76,0,1.76,.67,1.76,1.51s-2.16,1.68-3,1.99c-.06,1.4-.11,2.35-.11,3.42h.73Zm.9,15.62c-.78,0-1.4-.62-1.4-1.23,0-.2,.11-.95,1.04-1.15,1.37-.28,2.35-.64,3-1.26,.39-.36,.5-.53,.62-.53,.2,0,.36,.17,.36,.59,0,1.37-1.57,3.58-3.61,3.58Zm14.81-9.97c.53-.76,1.15-.98,1.46-.98,.76,0,1.68,.92,1.68,1.43,0,.56-.84,.59-1.06,.59h-2.91c0,.25,.03,1.62,.03,1.65,0,.87-1.57,1.09-2.02,1.09-.95,0-1.12-.34-1.2-.48h-5.82c-.25,0-1.43,.39-1.71,.39-.42,0-.78-.14-.78-.56,0-.53,.53-1.12,1.32-1.12,.14,0,.7,.17,.84,.17h6.19v-.92h-7.62c-.25,0-1.43,.39-1.71,.39-.42,0-.78-.2-.78-.56,0-.53,.5-1.12,1.32-1.12,.14,0,.7,.14,.84,.14h8.01v-.98h-5.82c-.25,0-1.4,.39-1.68,.39-.36,0-.81-.11-.81-.56,0-.56,.53-1.12,1.32-1.12,.11,0,.7,.17,.84,.17h6.08c.36-.45,1.06-.87,1.6-.87,.7,0,1.88,.56,1.88,1.12,0,.08-.14,.45-.17,.53-.06,.25-.06,.84-.06,1.2h.78Zm-1.65-4.28c.48-.67,1.01-.87,1.4-.87,.7,0,1.79,.78,1.79,1.34s-.84,.56-1.2,.56h-11.84c-.06,0-1.18,.34-1.4,.34-.39,0-.7-.17-.7-.5,0-.39,.36-.98,1.12-.98,.11,0,.7,.11,.84,.11h3.81l-.06-1.2h-1.34c-.22,0-1.34,.36-1.6,.36-.34,0-.73-.22-.73-.59,0-.22,0-.9,1.12-.9,.14,0,.78,.11,.92,.11h5.52c.45-.73,1.15-.73,1.26-.73,.73,0,1.6,.67,1.6,1.26,0,.5-.76,.5-1.15,.5h-2.74l-.03,1.18h3.42Zm3.92,13.72c-.76,1.43-1.06,1.9-4.26,1.9-1.37,0-4.03-.17-6.8-1.04-1.68-.5-2.07-.92-2.07-2.35,0-.2,.11-1.76,.11-2.02,0-.14,0-.2-.08-.25-.34-.25-.42-.34-.42-.53,0-.56,1.2-1.34,2.21-1.34s1.04,.59,1.04,.81c0,.45-.34,2.63-.34,3.14,0,.56,.11,.7,.36,.84,.22,.11,1.18,.45,3.05,.45,1.4,0,2.8-.17,4.03-.59,1.06-.36,2.27-.9,3.14-1.46,.2-.14,.31-.22,.53-.22s.42,.11,.42,.34c0,.53-.67,1.88-.92,2.32Zm-8.01-16.18c-1.04,0-2.72-1.4-2.72-2.13,0-.48,.87-1.06,1.65-1.06,1.4,0,1.9,1.48,1.9,2.58,0,.42-.25,.62-.84,.62Zm-1.48,14.56c-.36,0-.45-.2-.45-.45,0-.39,.53-2.77,.59-2.94,.14-.42,.78-.67,1.26-.67,.76,0,1.6,.56,1.54,.98-.08,.7-1.99,3.08-2.94,3.08Zm3.19,.22c-.34,0-.45-.14-.45-.42,0-.25,.31-1.96,.56-2.8,.17-.59,.78-.81,1.37-.81,.73,0,1.6,.5,1.6,.98,0,.84-1.85,3.05-3.08,3.05Zm3.42-14.59c-.76,0-2.86-2.13-2.86-2.77,0-.39,.73-.98,1.62-.98,2.16,0,2.16,3.11,2.16,3.14s0,.62-.92,.62Z"/><path class="cls-3" d="M253.37,290.96c3.84,1.26,6.41,1.62,7.08,1.71,1.06,.14,1.48,.14,5.12,.14,.22,0,.59,0,.59,.28,0,.56-3.53,2.97-5.18,2.97-2.27,0-8.06-2.72-10.72-4.03-1.12-.56-3.3-1.65-4.14-1.88-2.41,3.7-5.46,4.68-6.86,4.68-.31,0-.56-.06-.56-.28s1.12-.78,1.32-.92c3.42-2.44,4.79-7.62,4.79-8.57,0-.06-.2-.34-.2-.39,0-.76,1.54-1.12,2.27-1.12,.62,0,1.46,.36,1.46,1.2,0,.67-.73,2.58-1.46,4.09,1.06,.36,2.18,.73,3.5,1.23v-1.34c0-1.06-.06-6.22-.06-7.39h-.78c-.62,0-2.1,0-2.86,.11-.25,.06-1.43,.5-1.74,.5-.53,0-.9-.2-.9-.81s.53-1.29,1.23-1.29c.22,0,1.29,.14,1.54,.14h9.3c.31-.64,.98-1.18,1.48-1.18,.73,0,1.99,.95,1.99,1.85,0,.7-.76,.7-1.01,.7h-5.21v3.72h3.84c.45-.95,1.09-1.29,1.57-1.29,.81,0,2.02,.92,2.02,1.9,0,.73-.81,.78-1.26,.78h-6.16v4.48Zm6.41-15.6c.45-.62,1.15-1.04,1.88-1.04,1.04,0,2.18,.62,2.18,1.96,0,.95-1.18,2.8-1.99,4-.22,.34-.48,.59-.9,.59-.62,0-.81-.45-.87-.76-.08-.48-.31-2.77-.36-3.3h-15.32c-.2,.98-.42,2.18-.73,3.08-.14,.45-.42,1.12-1.09,1.12-.56,0-.81-.5-.9-.7-.31-.67-1.06-3.42-1.06-4.14,0-1.06,.98-1.82,2.07-1.82,.34,0,1.4,.11,1.82,1.01h5.66v-.84c0-1.15-.14-1.26-.34-1.43-.45-.34-.53-.42-.53-.64,0-.95,1.96-1.96,2.97-1.96,.59,0,1.54,.28,1.54,1.23,0,.06-.08,.34-.11,.42-.2,.73-.25,1.57-.34,3.22h6.41Z"/></g><g><path class="cls-2" d="M98.87,327.74c.42-.54,.9-.94,1.28-.94,.52,0,1.64,.7,1.64,1.4,0,.46-.44,.5-.62,.52-.38,.04-5.96,0-7.08,0,1.38,1.82,4.98,2.92,6.9,3.36,.22,.06,.64,.14,.64,.28,0,.12-2.32,1.58-3.04,1.58-.58,0-3.72-1.04-5.24-4.9,.02,.56,.18,3.34,.18,3.96,0,1.38-1.32,1.38-1.56,1.38-.88,0-.88-.48-.88-.88,0-.46,.14-2.66,.16-3.16-1.4,1.44-4.68,3.16-7.36,3.16-.04,0-.44,0-.44-.16,0-.14,1.3-.62,1.54-.74,1.26-.62,3.22-1.92,4.06-2.92,.36-.42,.58-.7,1.14-.7,.32,0,.78,.16,1.1,.42,0-.1,.02-.56,.02-.66l-6.06,.08c-.24,0-1.34,.32-1.6,.32-.44,0-.58-.3-.58-.58,0-.48,.54-.94,.98-.94,.12,0,.7,.12,.84,.12h6.4c-.04-.56-.06-.62-.12-.68-.2-.2-.22-.2-.22-.32,0-.24,.48-.7,.9-.76-1.18,.02-2.06,.02-3,.02-.06,.92-1.3,.92-1.44,.92-.8,0-.8-.32-.8-.62,0-.34,.1-1.98,.12-2.36,.04-1.3,.08-2.44,.08-2.84-1.02,.84-2.12,1.42-2.84,1.42-.04,0-.24,0-.24-.12,0-.06,.06-.12,.54-.58,1.92-1.9,2.84-3.84,3.22-4.62,.02-.36,.04-1.08,1.14-1.08,.66,0,1.4,.46,1.4,1.02,0,.36-.6,1.3-.92,1.72h2.5c.08-.32,.64-2.5,.7-2.58,.26-.38,.8-.38,.88-.38,.58,0,1.44,.42,1.44,1.06,0,.28-.12,.4-.18,.48-.24,.26-.72,.7-1.66,1.42h3.96c.18-.42,.74-.86,1.08-.86,.44,0,1.46,.66,1.46,1.26,0,.26-.22,.52-.72,.52h-5.06c-.02,.42-.02,.84-.02,1.16h2c.32-.44,.7-.56,.9-.56,.38,0,1.22,.48,1.22,.96,0,.42-.54,.42-.86,.42h-3.3v1.2h2.08c.4-.5,.74-.58,.92-.58,.32,0,1.18,.52,1.18,.96s-.72,.46-.94,.46h-3.26v1.24h3.86c.4-.46,.74-.76,1.08-.76,.5,0,1.34,.7,1.34,1.24,0,.46-.68,.46-.96,.46h-5.52c.2,0,.28,.34,.28,.5,0,.04-.04,.28-.06,.3-.06,.34-.06,.44-.06,.96h5.48Zm-7.54-4.78v-1.2h-2.46l-.02,1.2h2.48Zm0,2.1v-1.26h-2.48v1.26h2.48Zm0-4.12v-1.16h-2.44l-.02,1.16h2.46Z"/><path class="cls-2" d="M117.61,317.81c.4-.58,.88-.8,1.2-.8,.66,0,1.72,.62,1.72,1.28,0,.16-.36,.86-.36,1.04v2.36c0,1.5,.2,9.46,.2,11.22,0,.44,0,.76-.58,1.02-.34,.14-.86,.24-1.22,.24-.28,0-.76-.1-.76-.56v-.84l-10.8-.02v.52c0,.66-1.04,1.04-1.6,1.04-.82,0-.82-.56-.82-1.26,0-.54,.12-3.14,.12-3.74,.08-5.24,.08-6.86,.08-9.26,0-.78,0-.86-.16-1-.24-.18-.28-.22-.28-.4,0-.74,1.26-1.46,1.88-1.46,.24,0,.7,.14,.78,.62h10.6Zm.24,13.9c0-.9,0-2.1,.02-3.32-.08,.12-.16,.24-.6,.24h-2.1c0,.76,.02,1.7,0,1.84-.1,1.02-1,1.12-1.42,1.12-1.04,0-2.1-.92-2.1-1.1,0-.06,.08-.1,.14-.1,.04,0,.78,.1,.92,.1,.56,0,.56-.18,.6-1.86h-4.46c-.18,0-1,.24-1.2,.24-.12,0-.48-.02-.48-.42s.4-.76,.88-.76c.16,0,.88,.14,1.04,.14h4.2v-.28c0-.06-.26-.3-.26-.38,0-.3,.96-.6,1.62-.6,.04,0,.58,0,.58,.44,0,.12-.06,.68-.06,.82h.68c.16-.26,.62-.52,.94-.52,.34,0,.86,.28,1.08,.76v-3.96c0-.72-.04-4.3-.06-5.24h-4.32c-.04,.62-.06,.8-.08,1.16h2.26c.26-.3,.5-.56,.92-.56,.54,0,1.16,.58,1.16,1.04,0,.36-.46,.36-.62,.36h-3.78l-.02,.68h1.32c.2-.22,.34-.4,.72-.4,.48,0,1.22,.38,1.22,.78,0,.08-.16,.48-.16,.58,0,.32,.08,1.78,.08,2.02,0,.54-.8,.66-1.3,.66-.66,0-.66-.16-.66-.32h-1.28l-.02,.84c.24,0,.6,0,.84-.02-.08-.06-.6-.32-.6-.44s.14-.12,.2-.12c.46,0,3.58,.34,3.58,1.48,0,.36-.54,.52-.88,.52-.46,0-.5-.02-1.56-.86-1.18,.22-5.72,.82-6.68,.82-.42,0-.86-.3-.86-.66,0-.46,.6-.68,1.14-.68h2.92c.02-.44,.02-.5,.04-.88h-1.14c-.08,.36-.94,.56-1.3,.56-.16,0-.6-.06-.6-.42,0-.14,.1-2,.1-2.38,0-.2,0-.28-.1-.4-.02-.02-.14-.18-.14-.22,0-.38,.88-.84,1.4-.84,.3,0,.62,.12,.66,.38h1.2v-.7h-2.72c-.14,0-.82,.2-.98,.2-.24,0-.42-.22-.42-.4,0-.28,.4-.76,.82-.76,.1,0,.52,.14,.62,.14h2.62l-.02-.34c-.02-.06-.2-.34-.2-.42,0-.18,.04-.28,.1-.4h-4.08c-.26,0-.26,.82-.26,1.42,0,4.66,.02,11.22,.02,11.42h10.88Zm-8.22-.94c-.7,0-1.2-.36-1.2-.76,0-.7,1.04-.7,1.28-.7,.94,0,1.3-.2,1.8-.5,.16-.1,.28-.16,.36-.16,.26,0,.26,.14,.26,.26,0,.08-.18,.48-.2,.5-.78,1.36-1.96,1.36-2.3,1.36Zm1.8-7.88c0-.26,.02-.36,.02-.66h-1.1c-.08,0-.1,.1-.1,.2v.46h1.18Zm-.02,1.3c0-.24,0-.34,.02-.62h-1.18v.62h1.16Zm3.16-1.3v-.66h-1.28l-.02,.66h1.3Zm0,1.3v-.62h-1.3v.62h1.3Z"/><path class="cls-2" d="M127.39,325.64c-.62,2.82-1.2,4.1-2.2,5.46-.86,1.18-2.14,1.94-2.5,1.94-.18,0-.2-.08-.2-.16,0-.1,.68-.94,.82-1.14,1.98-2.84,2.22-7.32,2.3-8.94-.12-.1-.32-.24-.32-.4,0-.42,.84-.96,1.5-1.12h-2.22c-.16,0-.92,.3-1.1,.3-.28,0-.58-.16-.58-.52s.36-.84,.88-.84c.08,0,.5,.08,.6,.08h1.86v-1.28c0-.3,0-.92-.16-1.04-.3-.24-.36-.3-.36-.44,0-.58,1.34-1.26,2.02-1.26,.46,0,.92,.28,.92,.78,0,.14-.02,.36-.06,.48-.18,1.44-.22,1.84-.28,2.76h.86c.2-.34,.42-.66,.74-.66,.36,0,.9,.42,1.12,1.02,.66-1.06,1.14-2.12,1.46-3.26-.02-.12-.04-.24-.04-.3,0-.68,.82-.98,1.32-.98s1.18,.32,1.18,.8c0,.34-.64,1.48-.88,1.94h4.76c.16-.26,.54-.86,.96-.86,.6,0,1.48,.72,1.48,1.36,0,.36-.44,.5-.8,.5h-7c-1.02,1.46-2.56,2.44-3.32,2.44-.06,0-.24-.02-.24-.12s.6-.8,.72-.96c-.08,.02-.16,.06-.3,.06h-3.28c.8,.1,.8,.52,.8,.9,0,.58-.1,1.28-.22,2.24h.86c.34-.36,.78-.56,1.12-.56,.66,0,1.06,.56,1.06,1.06,0,.06-.18,.36-.22,.44-.04,.1-.04,.18-.06,.46-.26,5.88-1.36,8.12-3.44,8.12-1.24,0-2.14-1.74-2.14-1.9,0-.08,.06-.14,.12-.14,.04,0,.3,.12,.36,.14,.22,.06,.78,.18,1.08,.18,.74,0,1.2-.6,1.54-2.4,.2-1.14,.46-3.22,.48-4.54h-.92l-.08,.36Zm12.62,4.1c.22-.46,.7-.78,1.04-.78,.54,0,1.28,.64,1.28,1.18,0,.48-.62,.52-.84,.52h-4.5c-1.16,0-4.18,0-5.04,.04-.18,.02-1.04,.22-1.22,.22-.32,0-.68-.08-.68-.52,0-.38,.32-.72,.88-.72,.08,0,.54,.06,.62,.06h1.26c.02-1.24,.02-1.98,.02-3.48v-2.24c-.48,0-.6,.04-.8,.1-.08,.02-.64,.18-.68,.18-.34,0-.54-.12-.54-.46,0-.46,.42-.74,.82-.74,.06,0,.36,.06,.42,.06h.78v-.3c0-.16-.02-.68-.04-.82-.22-.24-.28-.32-.28-.4,0-.52,1.02-1.14,1.62-1.14,.06,0,.8,0,.8,.54,0,.16-.12,.9-.12,1.08v1.02h1.88c-.02-.2-.02-.78-.02-1,0-.06,0-.14-.04-.2-.1-.14-.24-.36-.24-.42,0-.52,1.22-1.1,1.88-1.1,.18,0,.72,0,.72,.64,0,.1-.06,.56-.06,.66-.02,.36-.04,.58-.04,1.4h.38c.14-.18,.5-.58,.94-.58,.36,0,1.06,.5,1.06,1.04,0,.4-.42,.44-.66,.44h-1.72l-.04,5.72h1.16Zm-8.32,4.42c-.82,0-1.46-.32-1.46-.9,0-.78,.94-.8,1.22-.8,.44,0,1.56-.12,2.82-.84,.08-.04,.38-.22,.42-.22,.08,0,.28,.02,.28,.18,0,.68-1.28,2.58-3.28,2.58Zm5-4.42c0-.44,0-.98,.02-1.46h-1.94v1.46h1.92Zm.02-4.4v-1.32h-1.92v1.32h1.92Zm0,2.12v-1.26h-1.92v1.26h1.92Zm3.22,7.08c-.74,0-1-.34-1.14-.52-1.36-1.72-2.2-2.36-2.42-2.52-.12-.1-.26-.18-.26-.32,0-.12,.26-.12,.3-.12,.8,0,4.74,.94,4.74,2.58,0,.5-.5,.9-1.22,.9Z"/><path class="cls-2" d="M152.21,318.45c1.32,0,4.14-.02,6.2-.04,.52-.96,1.08-1.08,1.38-1.08,.7,0,1.88,.88,1.88,1.6,0,.16-.08,.38-.32,.52-.26,.16-.42,.16-1.84,.16-.88,0-5.18-.04-6.16-.04-.06,.64-.08,1.26-.1,2.12,1.46,1.68,4.04,2.84,6.18,3.52,.42,.14,.5,.16,.5,.36,0,.24-1.9,1.5-2.62,1.5-.62,0-2.22-.78-4.08-3.4,.02,.96,.08,5.64,.12,6.72,0,.3,.08,1.84,.08,2.2,0,1.44-1.74,1.66-2.06,1.66-.22,0-.84-.12-.84-.8,0-.24,.08-1.42,.08-1.7,.02-.34,.2-5.84,.2-9.94,0-1-.02-1.52-.06-2.24l-4.02,.06h-.36c-.08,0-.88,.02-1.08,.06-.18,.06-1.06,.42-1.28,.42-.3,0-.62-.22-.62-.66s.38-1.12,.98-1.12c.14,0,.8,.12,.96,.12h6.88Z"/><path class="cls-2" d="M169.29,326.1c.22-.36,.54-.64,.96-.64,.52,0,1.46,.56,1.46,1.08,0,.02-.14,.36-.16,.38-.04,.12-.04,.56-.04,.98,0,.58,.04,3.5,.04,4.16,0,.48,0,.64-.38,.84-.34,.2-.84,.34-1.28,.34-.7,0-.7-.24-.72-.76h-2.82v.44c0,.56-.88,.86-1.6,.86s-.7-.36-.7-1.1c0-.7,.08-4.12,.08-4.9,0-.22,0-.54-.1-.64-.2-.2-.2-.22-.2-.32,0-.56,1.18-1.28,1.74-1.28,.14,0,.68,.08,.78,.56h2.94Zm-.1,5.36v-4.36h-2.68c-.12,0-.2,.12-.2,.24-.02,.58,.02,3.46,.02,4.12h2.86Zm5.9-13.54c.4-.58,.8-.82,1.22-.82,.54,0,1.56,.62,1.56,1.14,0,.12-.04,.18-.08,.24-.16,.22-.16,.24-.16,.48,0,.38,.06,3.76,.06,4.28,0,.38,0,.48-.22,.68-.32,.3-1.02,.48-1.56,.48-.78,0-.78-.28-.78-.92h-5.46c-.08,1.02-1.44,1.08-1.54,1.08-.84,0-.84-.58-.84-1,0-.3,.04-1.8,.04-2.14,0-.28,.06-1.66,.06-1.98,0-.22,0-.44-.1-.54-.3-.26-.32-.28-.32-.44,0-.52,1.36-1.2,1.88-1.2,.14,0,.8,.08,.86,.66h5.38Zm.04,4.58v-3.62h-5.32c-.1,0-.16,.06-.16,.16v3.46h5.48Zm3.24,3.6c.32-.44,.78-.62,1.06-.62,.52,0,1.54,.56,1.54,1.1,0,.1-.04,.2-.06,.26-.16,.26-.16,.3-.16,.6,0,.68,.12,4.02,.12,4.78,0,.36,0,.56-.62,.84-.36,.18-.74,.28-1.08,.28-.86,0-.86-.42-.88-.86h-2.86v.36c0,.64-.88,1.02-1.34,1.02-.76,0-.98-.36-.98-.8,0-.82,.16-4.88,.08-5.8-.04-.06-.24-.42-.24-.46,0-.54,1.1-1.22,1.66-1.22,.34,0,.74,.16,.84,.52h2.92Zm-.06,5.36v-4.36c-.16,0-2.72-.02-2.74,0-.18,.04-.18,.08-.18,.58,0,.54,.02,3.18,.02,3.78h2.9Z"/><path class="cls-2" d="M189.53,323.11s.24-.3,.28-.36c.06-.06,.2-.2,.42-.2,.48,0,.9,.54,.9,1,0,.2-.1,.34-.3,.38-.16,.04-.58,.04-4.4,.02l-.06,2.08h1.24c.24-.4,.78-.56,1.04-.56,.42,0,1.18,.36,1.18,.82,0,.1-.24,.64-.26,.78-.04,.32-.04,.5-.04,1.2s.08,4.26,.08,4.34c0,1.16-.98,1.54-1.5,1.54-.82,0-.82-.42-.82-.68,0-.5,.16-2.98,.18-3.54,.08-1.68,.08-2.48,.08-3.06h-1.24c-.1,2.3-.8,5.38-3.52,6.44-.02,0-.06,.02-.08,.02-.1,0-.22-.06-.22-.16,0-.06,.66-.96,.76-1.16,1.1-2.1,1.18-4.6,1.18-7.64,0-2.58-.06-3.48-.08-4.18-.02-.24,0-.28-.1-.36-.3-.2-.34-.22-.34-.38,0-.58,1.26-1.28,1.84-1.28,.76,0,.76,.46,.76,.66,0,.1-.04,.68-.04,.8,0,1.38,0,2.36-.02,3.52h.96c.02-1.32,.04-2.18,.04-3,0-.36,0-1.62-.16-1.78-.22-.2-.24-.22-.24-.34,0-.54,1.4-1.2,1.98-1.2,.36,0,.7,.22,.7,.66,0,.1-.12,.6-.14,.72-.06,.44-.14,2.44-.22,4.9h.16Zm10.12,5.38c.22-.4,.7-.94,1.12-.94,.64,0,1.5,.8,1.5,1.38s-.58,.6-1.38,.6c-.5,0-3.02-.04-3.6-.04l.02,.76c.02,.46,.1,2.64,.1,2.88,0,1.1-.96,1.52-1.38,1.52-.44,0-1.06-.46-1.06-1.16,0-.26,.08-1.52,.1-1.82l.08-2.2-3.84,.02c-.14,0-.8,.24-.96,.24-.26,0-.6-.08-.6-.44,0-.4,.3-.94,.92-.94,.1,0,.5,.14,.6,.14h.44c.38-.94,.54-1.54,.76-2.5,.08-.3,.16-.64,1.06-.64s1.24,.52,1.24,.9c0,.14-.08,.28-.14,.34-.14,.22-1.42,1.58-1.72,1.9h2.26c0-.58,.02-1.4,.02-1.76,0-.1,0-.12-.04-.32-.02-.08-.28-.36-.28-.46,0-.42,1.18-.96,1.74-.96,.44,0,.8,.2,.8,.68,0,.02,0,.12-.02,.16,0,.02-.1,.46-.1,1.36v1.3h2.36Zm-1.54-10.16c.16-.18,.48-.54,1-.54s1.22,.4,1.22,.96c0,.14-.14,.72-.14,.86,0,.74,.12,4.44,.12,4.66,0,.48,0,.54-.18,.7-.28,.26-.88,.44-1.4,.44-.74,0-.74-.24-.74-.7h-4.64c0,.54-1,.72-1.42,.72s-.66-.2-.66-.58c0-.44,.14-3.92,.14-4.66,0-.14,0-.56-.14-.74-.12-.16-.2-.26-.2-.38,0-.5,1.16-1.12,1.5-1.12,.28,0,.68,.1,.76,.38h.68c.12-.36,.26-.84,.44-1.9,.04-.18,.14-.8,1.1-.8,.46,0,1.38,.28,1.38,.86,0,.18-.08,.36-.2,.5-.2,.26-1.02,.98-1.42,1.34h2.8Zm-3.46,2.78v-1.92h-1.18c-.14,0-.16,.16-.16,.26v1.66h1.34Zm0,2.78v-1.94h-1.32v1.94h1.32Zm3.36-2.78c0-.28-.02-1.62-.02-1.92h-1.32v1.92h1.34Zm-.02,2.78v-1.94h-1.32c0,.28,.02,1.64,.02,1.94h1.3Z"/><path class="cls-2" d="M79.75,351.8c-.4,0-1.48,.02-1.78,.14-.56,.22-.74,.3-1.02,.3-.34,0-.72-.14-.72-.54,0-.54,.64-1.14,1.04-1.14,.16,0,.86,.14,1,.14,.12,0,1.48,.02,1.64,.02h3.2c0-.4-.02-2.14-.02-2.5h-.56c-.88,0-1.14,0-1.54,.02-.2,.02-1.14,.3-1.32,.3-.36,0-.68-.16-.68-.5,0-.5,.52-1.02,.9-1.02,.16,0,.82,.14,.96,.14h2.22c0-.84-.02-1.74-.22-1.94-.18-.2-.34-.38-.34-.5,0-.66,1.44-1.4,2.26-1.4,.66,0,.92,.28,.92,.9,0,.1-.06,.42-.08,.5-.08,.44-.14,2.08-.14,2.44l.84,.02c.38-.7,.84-.7,.9-.7,.08,0,.78,.22,1.24,.78,.18-.34,.72-1.34,.86-1.8,.2-.74,.32-1.12,1.08-1.12,.68,0,1.7,.7,1.7,1.36,0,.74-2.02,3.38-3.56,5.02h3.12c.22-.28,.76-.94,1.26-.94,.58,0,1.6,.76,1.6,1.4s-.7,.62-1.26,.62h-5.9c-.32,.24-1.62,1.32-1.88,1.52-.72,.58-1.12,.82-1.48,1.02-.06,.8-.08,.9-.1,1.6,2.22-.84,3.52-1.52,3.84-1.74,1.24-.82,1.28-.84,1.66-.84,.58,0,1.46,.56,1.46,1.26,0,.88-.66,1.04-1.42,1.2-1.86,.42-3.78,.62-5.6,.84-.02,.28-.04,.64-.04,1.12,0,.68,0,1.16,2.6,1.16,3.08,0,4.94-.8,5.18-.9,.2-.08,1.08-.58,1.28-.58,.26,0,.26,.24,.28,.34-.12,.42-.56,1.68-1.04,2.4-.56,.84-1.68,.84-2.38,.84-3.84,0-6.36-.7-7.18-1.34-.78-.6-.78-.72-.72-4.38-.7,.36-3.5,1.74-5.82,1.74-.26,0-.74-.06-.74-.28,0-.16,.1-.2,.98-.54,2.44-.9,5.2-2.3,8.24-4.5l-4.72,.06Zm7.8-3.56c-.58,0-1.52,0-2.16-.02-.06,1.2-.06,1.62-.06,2.5h.3c.34-.32,1.28-1.22,2.08-2.48h-.16Z"/><path class="cls-2" d="M103.41,352.26c.16,.06,.72,.22,.72,.72,0,.26-.62,4.14-3.02,6.14-1.28,1.08-3.62,1.82-4.92,1.82-.04,0-.44,0-.44-.18,0-.14,.06-.16,.54-.34,5.04-1.86,5.32-6.76,5.34-7.04-.02-.04-.24-.28-.24-.34,0-.42,.48-.64,.9-.76-.36,0-3.92,.02-4.06,.04-.16,.02-.92,.34-1.12,.34-.32,0-.64-.22-.64-.6,0-.34,.32-.94,.9-.94,.14,0,.86,.12,1.02,.12h5.48v-3.06h-3.24c-1.46,1.8-3.42,2.3-3.68,2.3-.12,0-.22-.08-.24-.2,.1-.2,.88-.96,1.04-1.14,1.6-2,2.02-3.74,2.02-3.82,0-.06-.04-.3-.04-.36,0-.38,.86-.74,1.38-.74,.34,0,1.32,.16,1.32,.82,0,.46-.4,1.14-.98,2.12h2.38v-1.02c0-.7,0-1.1-.28-1.26-.04-.02-.2-.12-.2-.22,0-.6,1.32-1.5,2.06-1.5,.34,0,.98,.14,.98,.78,0,.08-.08,.48-.1,.56-.02,.16-.1,1.54-.12,2.66h2.62c.26-.48,.8-.96,1.28-.96,.6,0,1.56,.72,1.56,1.42,0,.46-.62,.56-1.12,.56h-4.34c-.04,1.42-.04,1.52-.06,3.06h4.56c.3-.58,.9-1.14,1.3-1.14,.6,0,1.72,.88,1.72,1.58,0,.6-.86,.6-1.12,.6h-5.18c-.02,.08-.1,.5-.1,.6-.14,1.66-.14,4.38-.14,4.72,0,.76,0,.92,.38,1.06,.48,.16,.94,.18,1.5,.18,.98,0,1.98-.1,2.92-.4,.48-.16,.66-.26,2.3-1.18,.02,0,.12-.04,.14-.04,.14,0,.2,.16,.2,.26,0,.12-.1,.62-.28,1.16-.8,2.3-1.44,2.5-2.94,2.5-.14,0-2.56,0-4.5-.5-1.82-.48-1.9-1.18-1.9-2.46,0-.84,.1-4.98,.06-5.92h-1.62Z"/><path class="cls-2" d="M126.87,357.46c0,.1-.06,1.26,0,1.5,.1,.48,1.82,.48,2.4,.48,2.68,0,3.96-.94,4.54-1.38,.08-.06,.42-.32,.5-.32,.1,0,.22,.06,.22,.24,0,.04-.06,.78-.72,2.08-.6,1.2-1.06,1.36-2.52,1.36s-3.38-.2-4.56-.48c-.62-.16-1.56-.46-1.82-1.18-.08-.2-.06-.4-.06-2.3h-.4v.14c-.02,.22-.08,.48-.38,.88-1.86,2.42-5.68,2.92-7.16,2.92-.76,0-1.1-.16-1.1-.36,0-.08,.1-.14,.14-.14,.04-.04,1.08-.24,1.16-.26,3.62-.96,4.86-2.52,4.96-3.04,.02-.06,.02-.12,0-.14h-.1c-.12,.44-.78,.8-1.32,.8-.66,0-.88-.32-.88-.74,0-.22,.08-1.38,.08-1.64,.06-1.54,.04-2.58,.04-2.86,0-.1-.22-.54-.22-.66,0-.42,.88-.9,1.44-.9,.06,0,.86,.04,.88,.38h5.84c.22-.44,.72-.56,1.02-.56,.46,0,1.32,.32,1.32,.78,0,.1-.16,.58-.16,.68,0,.06,.18,3.94,.18,4.68,0,.64-1.18,.88-1.56,.88-.84,0-.84-.62-.84-.84h-.92Zm2.14-13.32c.32-.34,.78-.52,1.06-.52,.42,0,1.32,.44,1.32,.98,0,.08-.26,.46-.28,.56-.02,.06-.12,3.88-.14,4.62,.38-.34,.82-.52,1.22-.52,.7,0,1.5,.46,1.5,1.2,0,.48-.82,1.92-1.1,2.34-.16,.22-.38,.56-.86,.56s-.68,0-.88-2.42h-11.66c-.14,.84-.52,1.84-.56,1.94-.1,.28-.22,.6-.76,.6-.44,0-.54-.28-.62-.46-.1-.24-.72-2.2-.72-2.52,0-.66,.66-1.18,1.44-1.18,.4,0,.84,.16,1.16,.44-.12-2.18-.2-4.06-.2-4.1,0-.08-.06-.12-.1-.16-.24-.18-.26-.2-.26-.3,0-.44,.88-.98,1.46-.98,.28,0,.64,.08,.8,.32,.42-.46,.62-.7,.9-1.08,.1-.1,.28-.36,.82-.36,.68,0,1.28,.48,1.28,.98,0,.4-2.32,1.2-3.04,1.42l.02,.92h.74c.2-.38,.44-.62,.66-.62,.34,0,.86,.46,.86,.88,0,.06-.02,.12-.04,.2,.34-.32,.66-.7,.92-1.06-.94-.38-1.04-.42-1.04-.76,0-.38,.58-.56,.88-.56,.08,0,.18,0,.84,.36,.22-.48,.3-.68,.42-.96,.08-.2,.26-.4,.74-.4s.92,.32,.92,.64-.58,1.08-.84,1.38c.2,.14,.92,.6,.92,.78,0,.12-.12,.28-.38,.28-.28,0-1.06-.24-1.28-.32-.34,.38-1.48,1.16-2.18,1.16-.04,0-.28,0-.28-.14,0-.04,.04-.06,.12-.16-.16,.04-.2,.04-.34,.04h-1.64l.02,1.08h.64c.28-.54,.56-.6,.66-.6,.32,0,.86,.44,.86,.92,0,.44-.5,.44-.62,.44h-1.52l.02,1h8.12c0-.2,.02-.62,.02-.82v-.08h-.64c-.16,0-.88,.3-1.04,.3-.26,0-.48-.12-.48-.44,0-.44,.32-.86,.78-.86,.08,0,.46,.12,.54,.12h.84v-1.1h-.66c-.16,0-.88,.3-1.04,.3-.28,0-.5-.16-.5-.44,0-.4,.3-.86,.82-.86,.08,0,.44,.1,.52,.1h.86v-1.2h-.64c-.16,0-.88,.32-1.04,.32-.26,0-.48-.14-.48-.44,0-.46,.32-.88,.78-.88,.08,0,.46,.12,.54,.12h.84Zm-1.24,9.36v-.78h-5.78v.78h5.78Zm.02,1.6v-.76h-5.8v.76h5.8Zm0,1.56v-.7h-5.8v.7h5.8Zm-.92-7.24c0,.26-.48,.28-.52,.28-.46,0-1.38-.52-1.5-.6-.82,.5-1.68,.8-2.2,.8-.1,0-.58,0-.58-.18,0-.08,.06-.12,.28-.22,.28-.12,.98-.5,1.48-.94-.54-.4-.7-.52-.7-.78,0-.24,.5-.48,.84-.48,.38,0,.72,.26,.88,.4,.46-.7,.56-.84,1-.84,.4,0,.9,.24,.9,.58,0,.32-.56,.76-.88,1,.1,.12,.72,.58,.86,.7,.08,.06,.14,.16,.14,.28Z"/><path class="cls-2" d="M138.51,357.72c1,.76,1.3,1.2,2.04,2.24,.02,.04,.38,.32,.58,.48,.1,.08,.18,.18,.18,.3,0,.46-1.44,.86-1.76,.86-.36,0-.48-.26-.86-.96-.22-.42-.9-1.26-1.9-2.04-.62-.48-.68-.52-.68-.76,0-.4,.92-1.02,1.34-1.08,.2,.32,.54,.56,1.06,.96Z"/><path class="cls-2" d="M155.03,356.16c.2-.32,.56-.7,.94-.7,.46,0,1.14,.54,1.14,1.12,0,.08,0,.32-.28,.4-.14,.02-1.72,0-2.6,0,.02,.78,.04,2.26,.04,2.98,0,.4,0,.62-.38,.88-.32,.24-.76,.38-1.08,.38-.46,0-.9-.16-.9-.64,0-.22,.08-1.28,.1-1.52,.02-.3,.08-1.76,.1-2.08h-.36c-.3,0-1.44,0-1.62,.06-.12,.04-.68,.2-.78,.2-.22,0-.3-.12-.34-.2-1.4,2.94-2.04,3.12-2.7,3.12s-1.34-.56-1.34-1.12c0-.38,.4-.68,.6-.82,.22-.16,1.18-.84,1.86-1.46,1.44-1.32,1.5-1.36,1.7-1.36,.26,0,.26,.14,.26,.4,0,.12-.02,.18-.06,.38,.08-.04,.2-.1,.32-.1,.06,0,.4,.08,.48,.08h2l.04-1.84h-.2c-.04,.36-.04,.46-.42,.68-.24,.16-.74,.24-.98,.24-.62,0-.62-.4-.62-.64,0-.58,.06-3.42,.06-4.08,0-.2-.02-.24-.14-.36-.04-.06-.1-.12-.1-.22,0-.46,.94-1.06,1.48-1.06s.62,.28,.7,.44h.34l-.02-1.58h-1.3c-.16,0-.84,.3-1.02,.3s-.5-.14-.5-.46c0-.38,.32-.82,.82-.82,.08,0,.5,.12,.6,.12h1.38c-.04-.72-.04-.8-.08-1.66-.36-.28-.4-.32-.4-.48,0-.5,1.4-1.24,1.94-1.24,.18,0,.84,.1,.84,.8,0,.1-.06,.5-.06,.58-.08,.7-.12,1.06-.14,2h.7c.16-.36,.62-.72,.96-.72,.54,0,1.1,.62,1.1,1.1,0,.38-.32,.46-.7,.46h-2.1c0,.22-.02,1.34-.04,1.6h.36c.22-.32,.58-.46,.82-.46,.48,0,1.22,.48,1.22,.94,0,.06-.1,.36-.12,.42-.04,.14-.04,.28-.04,.44,0,.48,.08,2.94,.08,3.28,0,.88-1.1,.96-1.3,.96-.8,0-.8-.36-.82-.58h-.24v1.84h.8Zm-6.78-3.72c-2.84,0-3.18-.64-3.18-1.2,0-.66,.7-1.08,1.14-1.08,.84,0,3.2,1.3,3.2,1.88,0,.4-1,.4-1.16,.4Zm1.08-4.9c0,.34-.44,.34-.66,.34-.7,0-3.02-.6-3.02-1.54,0-.6,.56-1.08,1.16-1.08,.66,0,1.76,.7,2.42,1.9,.1,.28,.1,.3,.1,.38Zm5.2,3.98l-.02-1.44h-2.44c-.12,0-.12,.02-.12,.16v1.28h2.58Zm-.02,2.06c0-.18,.02-1.1,.02-1.3h-2.58c.02,.36,.02,.94,.02,1.3h2.54Zm5,1.02c-.12,1.24-.34,3.78-2.76,5.16-.52,.3-1.58,.76-1.94,.76-.08,0-.24-.04-.24-.18,0-.06,.02-.08,.06-.14,.04-.04,.32-.22,.38-.26,2.52-1.88,2.54-4.34,2.54-7.28v-1.38c0-.8-.08-4.28-.1-4.38-.02-.1-.42-.5-.42-.62,0-.48,1.02-1.32,1.56-1.32,.3,0,.82,.22,.94,.74h1.28c.24-.5,.68-.78,1.02-.78,.5,0,1.46,.46,1.46,1,0,.06-.12,.36-.14,.42-.04,.16-.04,.46-.04,.64,0,1.6,.22,9.5,.22,11.28,0,1.12,0,2.78-2.2,2.78-1.28,0-2.48-1.06-2.48-1.18s.16-.12,.26-.12,.64,.04,.76,.04c1.18,0,1.42-.58,1.42-1.86v-3.32h-1.58Zm1.54-5.02c0-.42-.08-2.5-.08-2.98h-1.44c-.06,.3,.04,2.5,.04,2.98h1.48Zm.04,4.12l-.02-3.22h-1.5c0,.86,0,2.32-.02,3.22h1.54Z"/><path class="cls-2" d="M169.57,353.66h-1.46v.8c0,.72-.92,1.02-1.48,1.02-.02,0-.76,0-.76-.64,0-.24,.06-1.42,.06-1.68l.02-5.02s-.2-.24-.26-.28c-.06-.06-.16-.14-.16-.28,0-.62,1.18-1.42,1.74-1.42,.2,0,.78,.14,.86,.64h1.42c.22-.44,.7-.8,1.18-.8s1.22,.34,1.22,.94c0,.12-.26,.66-.26,.8v2.52c0,.48,.08,2.78,.08,3.3,0,.82-.8,1.16-1.48,1.16s-.72-.38-.72-.66v-.4Zm10.98-2.26c.28-.68,.8-1,1.2-1,.56,0,1.54,.66,1.54,1.38,0,.56-.56,.56-1.24,.56-.56,0-3.36-.02-3.98-.02,.78,1.42,1.26,2.26,3.24,4,.46,.4,1.6,1.24,2.68,1.72,.5,.22,.56,.24,.56,.36,0,.2-2.46,1.22-3.02,1.22-1.38,0-2.88-3.08-3.72-5.78,.04,1.74,.1,3.1,.18,4.7,.02,.24,.1,1.44,.1,1.72,0,.74-1.22,1.3-1.7,1.3s-.94-.32-.94-.98c0-.54,.24-4.78,.26-5.68-2.6,4.02-6.56,5.2-7.78,5.2-.16,0-.26-.04-.26-.16,0-.1,.04-.12,.42-.34,1.84-1.04,4.34-3.12,5.7-5.64,.46-.84,.62-1.12,1.24-1.12,.38,0,.62,.16,.72,.22v-.7h-1.82c-.2,0-1.16,.38-1.38,.38-.58,0-.58-.46-.58-.64,0-.5,.38-.8,.8-.8,.1,0,.58,.1,.7,.1h2.32l-.02-2.96h-1.56c-.18,0-1.02,.34-1.22,.34-.18,0-.58-.14-.58-.52,0-.22,.1-.94,.8-.94,.12,0,.68,.1,.82,.1h1.72c0-.22,0-1.18-.04-1.58-.04-.5-.04-.54-.16-.64-.34-.26-.38-.3-.38-.46,0-.66,1.34-1.42,2.1-1.42,.82,0,.88,.54,.88,.84,0,.12-.08,.7-.1,.84-.04,.3-.12,1.74-.14,2.42h1.56c.26-.48,.72-.82,1.1-.82,.5,0,1.4,.54,1.4,1.26,0,.58-.7,.58-1.02,.58h-3.08l-.06,2.96h2.74Zm-10.98,1.34v-4.88c0-.1-.02-.18-.12-.18h-1.12c-.16,0-.22,.1-.22,.22v4.84h1.46Z"/><path class="cls-2" d="M188.73,352.3h-1.5c-.92,0-1.98-.38-1.98-1.26,0-.72,.82-1.14,1.28-1.14,1,0,4.12,1.2,4.12,1.88,0,.48-1.28,.52-1.92,.52Zm1.98,3.72c0,.46-.72,1.56-1.12,2.06-1.34,1.7-1.82,1.7-2.52,1.7-.46,0-1.1-.48-1.1-1.18,0-.18,.12-.52,.38-.74,.2-.18,3.02-1.6,3.58-1.9,.26-.14,.36-.18,.56-.18,.16,.06,.22,.16,.22,.24Zm-.42-8.24c-.64,0-3.6-.46-3.6-1.7,0-.66,.64-1.12,1.32-1.12,1.2,0,2.82,1.82,2.82,2.46,0,.28-.24,.36-.54,.36Zm11.34,4.76c.3-.52,.72-.94,1.08-.94,.62,0,1.4,.8,1.4,1.36s-.7,.58-1.22,.58h-5.7c.52,2.02,2.34,4.14,4.96,5.48,.28,.14,1.88,.78,1.88,.86,0,.1-2.28,1.3-2.98,1.3-1.06,0-4.02-2.14-4.56-7.28-.14,1.4-.76,4.88-4.56,6.24-.86,.3-2.04,.56-2.64,.56-.12,0-.4,0-.4-.18,0-.12,.16-.18,.34-.24,.44-.14,.88-.34,1.3-.54,3.2-1.58,3.78-5.06,3.96-6.2l-3.2,.08c-.24,0-.5,.1-.72,.16-.08,.02-.44,.16-.52,.16-.34,0-.7-.12-.7-.42,0-.26,.26-1.04,.96-1.04,.04,0,.48,.06,.56,.06h3.78c.02-.54,.08-3.16,.1-3.76l-1.62,.04c-.38,0-.66,.12-.72,.16-.38,.16-.42,.18-.56,.18-.44,0-.64-.26-.64-.48,0-.32,.28-1.02,.98-1.02,.1,0,.56,.08,.66,.08h1.88v-.22c0-1.18-.02-1.36-.04-1.98-.02-.42,0-.46-.14-.54-.34-.24-.36-.26-.36-.4,0-.44,1.4-1.32,2.08-1.32,.1,0,.94,0,.94,.78,0,.08-.06,.48-.08,.62-.04,.18-.12,2.68-.14,3.06h1.5c.26-.38,.88-.8,1.36-.8s1.4,.54,1.4,1.02c0,.1-.24,.52-.28,.64s-.24,2.48-.26,3.94h.92Zm-3.1-3.86l-1.54,.02c-.08,2.32-.12,2.98-.16,3.84h1.62l.08-3.86Z"/><path class="cls-2" d="M205.59,357.58c0-.78,.74-1.42,1.6-1.42,1,0,1.64,.76,1.64,1.64,0,1.6-1.36,4.36-2.52,4.36-.22,0-.42-.08-.42-.3,0-.1,.26-.56,.3-.66,.04-.1,.6-1.36,.64-2.44-.78-.04-1.24-.48-1.24-1.18Z"/><path class="cls-2" d="M69.41,371.79c.42-.7,1.22-.7,1.28-.7,.5,0,1.14,.32,1.14,.82,0,.14-.14,.78-.14,.92l.02,2.92c0,.3,.04,1.78,.04,2.1,0,.86-1.46,.94-1.52,.94-.74,0-.72-.28-.7-.76h-2.68v7.06c0,.36,.08,2.12,.08,2.24,0,.74-1.22,1.26-1.7,1.26-.44,0-.76-.28-.76-.76,0-.18,.12-2.2,.14-2.62,.06-2.24,.14-5.48,.14-8.44v-3.54c0-.1-.08-.2-.14-.24-.14-.16-.36-.36-.36-.46,0-.46,1.22-1.38,1.86-1.38,.12,0,.82,.08,.86,.64h2.44Zm.14,2.72v-1.8h-2.4c-.18,0-.3,.16-.3,.26v1.54h2.7Zm.02,2.6v-1.72h-2.72v1.72h2.72Zm8.4-5.32c.36-.68,1-.84,1.32-.84,.6,0,1.4,.62,1.4,1.12,0,.08-.02,.18-.06,.26-.2,.5-.22,.56-.22,.8v5.64l.06,6.84c.02,1.74-.82,2.98-2.64,2.98-1.6,0-2.88-1.38-2.88-1.5,0-.1,.16-.1,.24-.1,.14,0,1.16,.06,1.38,.06,1.26,0,1.6-.74,1.6-2.36v-6.62h-2.92c-.28,.42-1.02,.68-1.38,.68s-.78-.16-.78-.56c0-.22,.06-1.26,.06-1.5,.02-.64,.02-.92,.02-3.5v-.32c0-.12-.06-.2-.12-.26-.22-.18-.28-.24-.28-.36,0-.46,.88-1.16,1.58-1.16,.5,0,.96,.2,1.06,.7h2.56Zm.2,2.72v-1.8h-2.56c-.14,0-.3,.12-.3,.22v1.58h2.86Zm0,2.6v-1.7h-2.86v1.7h2.86Z"/><path class="cls-2" d="M99.15,373.83c.28-.6,.8-1,1.26-1,.64,0,1.7,.86,1.7,1.5,0,.6-.76,.62-.96,.62h-13.44l-2.22,.04c-.24,0-1.32,.4-1.58,.4-.38,0-.6-.28-.6-.6,0-.5,.58-1.08,1.12-1.08,.16,0,.9,.12,1.08,.12h5.76c-.02-.22-.06-1.26-.08-1.5-.04-.34-.06-.38-.16-.44-.32-.18-.36-.22-.36-.4,0-.68,1.4-1.32,2.14-1.32,.34,0,1.04,.16,1.04,.92,0,.06-.04,.36-.06,.44-.1,.7-.12,1.1-.22,2.3h5.58Zm-2.54,4.04c.3-.46,.76-.76,1.12-.76,.5,0,1.52,.4,1.52,1.06,0,.16-.06,.28-.1,.32-.16,.26-.16,.3-.16,.56,0,.68,.12,4,.12,4.76,0,.62,0,2.6-2.38,2.6-1.3,0-2.66-1.36-2.66-1.58,0-.08,.08-.08,.22-.08,.12,0,1.02,.1,1.2,.1,.98,0,1.1-.52,1.16-1.14,.02-.28,0-4.3,0-4.9h-3.22v3.1c0,.78,.08,4.78,.08,4.88,0,1.84-1.26,1.84-1.4,1.84-.32,0-1.04-.3-1.04-1.1,0-.14,.06-.8,.06-.94,.12-1.8,.2-5.78,.24-7.78h-2.52c-.24,0-.3,.26-.3,.46v5.72c0,.7-.76,1.44-1.52,1.44-.34,0-.92-.2-.92-.72,0-.22,.12-1.8,.14-2.24,.04-.56,.18-2.46,.18-4.24,0-.12,0-.28-.08-.4-.06-.1-.22-.32-.22-.42,0-.48,1.3-1.14,1.8-1.14,.22,0,.64,.14,.72,.6h2.72c0-.28,0-1.2-.16-1.36-.24-.22-.26-.24-.26-.36,0-.46,1.16-1.04,1.86-1.04,.82,0,.82,.54,.82,.78,0,.06-.02,.12-.02,.24-.04,.4-.1,.86-.14,1.74h3.14Z"/><path class="cls-2" d="M121.31,376.87c1.04,.3,1.16,.34,1.16,.44,0,.22-2.22,1.74-2.9,1.74-.86,0-4.94-2.16-6.96-6.6-3.08,4.66-7.62,6.68-9.28,6.68-.1,0-.32-.04-.32-.18,0-.1,.06-.14,.62-.48,3.96-2.4,6.5-6.48,6.78-7.34,.16-.52,.32-1.02,1.22-1.02s1.76,.46,1.76,1.1c0,.2-.12,.4-.2,.52,.98,1.62,3.92,3.92,8.12,5.14Zm-6.4,3.8c.58-.72,1.1-.72,1.22-.72,.56,0,1.48,.72,1.48,1.3,0,.12-.02,.18-.06,.28-.14,.3-.16,.34-.16,.56,0,.7,.14,4.04,.14,4.38,0,.4,0,.6-.26,.86-.24,.24-.78,.6-1.44,.6-.96,0-.96-.48-.96-1.28h-5.7v.46c0,.66-.86,1.08-1.4,1.08-.94,0-.94-.62-.94-.98,0-.74,.1-4.38,.1-5.22,0-.26,0-.28-.06-.38-.24-.3-.26-.32-.26-.48,0-.54,1.34-1.14,1.88-1.14,.42,0,.74,.26,.82,.68h5.6Zm-1.04-3.48c.26-.42,.76-.74,1.02-.74,.5,0,1.32,.72,1.32,1.26,0,.46-.4,.5-.58,.52-.26,.04-4.14,0-4.82,0h-1.24c-.2,0-1.2,.34-1.44,.34-.36,0-.64-.28-.64-.58,0-.48,.58-.9,1.02-.9,.06,0,.32,.08,.38,.08l4.98,.02Zm1.04,8.46v-3.96h-5.54c-.22,0-.22,.42-.22,1.08v2.88h5.76Z"/><path class="cls-2" d="M126.95,374.39c-.02-.6-.04-1.12-.12-1.68-.04-.04-.1-.14-.16-.18-.16-.12-.28-.24-.28-.4,0-.58,1.28-1.3,2.04-1.3,.86,0,.88,.54,.88,.88,0,.06-.02,.22-.04,.26-.06,.38-.14,1.38-.22,2.4h1.18c.18-.22,.56-.58,.9-.58,.44,0,1.16,.52,1.16,1.04s-.62,.5-1.02,.5c-3.96,0-5.04,0-6.2,.04-.2,0-1.06,.24-1.24,.24-.24,0-.58-.04-.58-.44,0-.46,.5-.92,.9-.92,.12,0,.66,.12,.78,.14h2.02Zm.04,12.02v.56c0,.6-.9,1-1.54,1-.34,0-.7-.22-.7-.48,0-.04,.12-2.92,.12-3.46,0-.72,0-.8-.08-.9-.16-.16-.24-.26-.24-.34,0-.46,1.16-1.16,1.74-1.16,.1,0,.62,0,.76,.52h1.78c.22-.38,.68-.58,.98-.58,.5,0,1.42,.52,1.42,.98,0,.08-.04,.14-.16,.36-.06,.1-.08,.16-.08,.38,0,.46,.04,2.54,.04,2.96,0,.78-.78,1.12-1.52,1.12-.56,0-.74-.16-.74-.52v-.44h-1.78Zm-.44-5.94c-.18,.02-.88,.22-1.02,.22-.28,0-.7-.12-.7-.52s.36-.82,.86-.82c.1,0,.52,.1,.6,.1h2.4c.2-.24,.6-.48,.84-.48,.46,0,1.18,.44,1.18,1,0,.46-.54,.5-.78,.5h-3.38Zm.74-2.5c-.52,0-.62,.02-.72,.02-.16,.02-.88,.22-1.04,.22-.22,0-.68-.1-.68-.52s.4-.84,.86-.84c.1,0,.52,.08,.6,.08h2.4c.24-.26,.62-.48,.84-.48,.5,0,1.18,.48,1.18,1.04,0,.38-.42,.48-.66,.5-.2,.02-1.7-.02-2.02-.02h-.76Zm1.5,5.04h-1.74s-.06,.06-.06,.14v2.42h1.8v-2.56Zm8.6-2.2c0,.96,.18,5.3,.18,6.1,0,.54-.74,1.42-1.62,1.42-1.02,0-1.02-.76-1.02-.96,0-.5,.1-2.66,.12-3.1,.1-3.28,.1-3.66,.14-6.32-.76,0-1.66,.02-2.52,.06-.2,.02-1.06,.32-1.24,.32-.54,0-.58-.5-.58-.6,0-.38,.34-.88,.96-.88,.12,0,.66,.12,.78,.12h2.6v-.76c0-.62-.04-3.32-.12-3.82-.02-.1-.44-.48-.44-.6,0-.42,1.32-1.32,2.1-1.32,.38,0,.96,.18,.96,.64,0,.16-.08,.88-.1,1-.04,.48-.18,2.88-.18,3.54l-.02,1.32,2.08-.02c.3-.6,.82-1,1.18-1,.66,0,1.52,.9,1.52,1.42,0,.58-.92,.58-1.22,.58h-3.56v2.86Z"/><path class="cls-2" d="M157.71,375.15c.2-.24,.6-.7,1.14-.7s1.4,.56,1.4,1.04c0,.12-.22,.6-.22,.7v2.24l.02,.98c.04,1.82,.06,3.64,.06,5.48,0,.78,0,2.7-2.24,2.7-1.32,0-2.44-1.3-2.44-1.42s.08-.12,.14-.12c.12,0,.62,.08,.72,.08,1.08,0,1.58,0,1.58-1.52v-1.08c-.26,.16-.5,.3-.7,.44-.12,.08-.28,.12-.36,.12-.38,0-.86-1.2-1.08-2.58-.66,1.54-1.8,2.22-1.94,2.3,0,.26,.02,1.4,.02,1.62,0,1.32-1.26,1.48-1.52,1.48-.9,0-.9-.56-.9-.86,0-.54,.06-1.66,.1-2.34-.1,.06-.4,.28-.58,.4-.06,.04-.16,.1-.32,.1-.46,0-.98-1.86-1.04-2.68-.18,.46-.64,1.56-2.06,2.54,0,.36,.02,1.98,.02,2.3,0,.6-.92,1.22-1.48,1.22-.42,0-.88-.34-.88-.72,0-.08,.04-.6,.04-.72,.1-1.66,.24-6.32,.24-8.12v-1.64c-.04-.1-.36-.42-.36-.5,0-.42,1.06-1.26,1.62-1.26,.26,0,.68,.18,.94,.52h3.98c0-.08-.04-2.1-.1-2.38h-5.2c-.26,0-1.34,.36-1.58,.36-.36,0-.68-.16-.68-.56,0-.6,.58-1.16,1.18-1.16,.22,0,1.16,.18,1.36,.18h11.78c.22-.28,.78-.96,1.46-.96s1.66,.82,1.66,1.56c0,.58-.74,.58-1.1,.58h-6.56c-.04,.42-.12,2-.12,2.38h4Zm-9.92,.96c-.3,.06-.3,.78-.3,1.64v5.5c1.04-2,1.04-3.48,1.04-3.56,0-.54,0-.8,.48-.8h.26c-.02-.1-.06-.58-.06-.68-.16,0-.84,.2-.98,.2-.26,0-.38-.1-.38-.3,0-.12,0-.56,.56-.56,.08,0,.32,.04,.38,.04l.5-.04c.18-.28,.46-.46,.74-.46,.48,0,.72,.52,.72,.74s-.32,.34-.54,.4c.06,1.76,.72,3.18,1.3,4.18l.1-6.3h-3.82Zm5.92,0c0,1.78,.02,4.12,.08,6.86,.7-1.12,.94-3.02,.94-3.28,0-.56,0-.8,.48-.8h.24c-.02-.18-.04-.5-.04-.68-.16,0-.84,.2-.98,.2-.22,0-.38-.06-.38-.3,0-.08,0-.56,.52-.56,.08,0,.38,.04,.42,.04l.5-.04c.16-.26,.44-.46,.72-.46,.46,0,.74,.48,.74,.74,0,.24-.38,.36-.54,.4,.08,2.22,1.12,3.88,1.44,4.38,0-.7,0-6.26-.1-6.5h-4.04Z"/><path class="cls-2" d="M175.47,376.69c.38-.46,.88-.7,1.2-.7,.6,0,1.52,.58,1.52,1.16,0,.08-.14,.34-.22,.5-.04,.08-.04,.12-.04,.26,0,.46,.1,4.78,.12,5.72,.02,.48,.1,2.58,.1,3,0,.3,0,.58-.72,.88-.3,.12-.68,.2-1.04,.2-.92,0-.9-.4-.88-1.16h-6.46v.46c0,.54-1.22,.86-1.64,.86-.12,0-.78,0-.78-.74,0-.58,.14-3.08,.16-3.6,.04-1.42,.06-2.94,.06-4.38,0-.34,0-.8-.02-.96-.02-.12-.38-.66-.38-.8,0-.46,1.2-1.22,1.68-1.22,.36,0,.68,.16,.8,.52h1.52c.06-.28,.54-2.6,.54-2.78,0-.08,0-.18-.02-.24l-5.76,.16c-.2,0-1,.32-1.18,.32-.32,0-.66-.22-.66-.58,0-.48,.5-1.14,1.16-1.14,.14,0,.76,.1,.88,.12,.34,.04,1.28,.04,1.7,.04,3.86,0,7.74-.02,11.62-.06,.28-.54,.94-1,1.24-1,.62,0,1.68,.92,1.68,1.6,0,.6-.72,.6-1.4,.6-1.06,0-5.72-.02-6.66-.02,.1,.2,.12,.38,.12,.44,0,.5-1.58,2.42-1.66,2.54h3.42Zm.04,2.66c0-.28-.02-1.48-.02-1.72h-6.3c-.16,0-.18,.18-.18,.28v3.02h6.5v-1.58Zm.02,2.6l-6.52-.02v3.58h6.52v-3.56Z"/><path class="cls-2" d="M186.07,376.01c-.16,0-.9,.2-1.06,.2-.06,0-.5,0-.5-.4,0-.12,.04-.24,.06-.34-1.08,.42-1.76,.42-1.86,.42-.32,0-.38-.06-.38-.14,0-.06,.24-.22,.32-.28,2.42-1.38,3.98-3.46,4.52-4.2,.2-.52,.7-.58,.92-.58,.66,0,1.4,.4,1.4,.9,0,.16-.06,.3-.12,.42,.24,.24,.34,.32,1.2,.8,.4,.22,1.14,.48,1.16,.48,.14,.04,.24,.08,.24,.32,0,.32-.68,1.1-1.3,1.1-.52,0-1.78-1.2-2.28-1.84-.24,.28-.98,1.14-2.84,2.16,.04,0,.26,.06,.32,.06h2.9c.14-.22,.3-.46,.68-.46,.54,0,1.14,.5,1.14,.96,0,.42-.66,.42-.94,.42h-3.58Zm2.28,1.2c.14-.3,.58-.58,.96-.58,.32,0,.6,.12,.94,.42,2.4-1.88,3.62-4.62,3.94-5.32,.08-.8,.72-1.02,1.1-1.02,.66,0,1.46,.4,1.46,.96,0,.08-.24,.52-.28,.58,1.46,2.52,4.22,3.52,5.6,4.04,.02,0,.2,.1,.2,.12,0,.08-.94,.78-1.14,.9-.26,.2-.68,.5-1.06,.5-.32,0-.76-.26-.98-.4,.1,.12,.16,.26,.16,.38,0,.36-.32,.42-.36,.44-.18,.04-1.5,.02-2.24,.02-.02,.74-.02,.92-.04,2.24h2.4c.16-.44,.66-.78,1.04-.78,.5,0,1.4,.7,1.4,1.26,0,.52-.74,.52-.98,.52h-3.86c0,.64,.08,3.8,.08,4.52,0,1.58-.64,2.46-2.06,2.46-1.34,0-2.68-1.3-2.68-1.46,0-.06,.06-.08,.12-.08,.18,0,1.04,.08,1.22,.08,1.04,0,1.16,0,1.2-2.12l.06-3.4h-.62c-.22,0-1.22,.02-1.38,.06-.18,.04-.98,.32-1.18,.32-.22,0-.54-.26-.54-.54,0-.32,.4-.96,.94-.96,.08,0,.54,.12,.64,.12h2.16c0-.56-.02-1.28-.04-2.24h-.22c-.3,0-.92,0-1.18,.02-.16,.02-.94,.28-1.14,.28-.16,0-.5-.12-.5-.44,0-.34,.3-.82,.88-.82,.08,0,.48,.06,.58,.06h4.2c.14-.38,.6-.62,.9-.62,.08,0,.24,.04,.32,.08-1.66-1.62-2.16-3.1-2.42-3.84-1.16,1.96-2.8,3.16-2.94,3.26-.44,.34-1.36,.84-2.46,1.18,.06,.16,.06,.18,.06,.2,0,.06-.02,.14-.06,.24-.12,.26-.18,.36-.18,.78,0,.5,.06,2.98,.06,3.12,0,.5-.3,.9-1.5,.9-.6,0-.6-.26-.6-.46h-2.16v1.3h2.26c.24-.26,.54-.54,.88-.54,.48,0,1.18,.54,1.18,.98,0,.26-.3,.42-.74,.42h-3.58v1.4h2.3c.24-.3,.56-.62,.9-.62,.48,0,1.2,.58,1.2,1.02,0,.28-.32,.46-.74,.46h-3.64c.02,.62,.02,.92-.06,1.06-.2,.36-.78,.66-1.36,.66-.44,0-.76-.22-.76-.58,0-.12,.18-4.82,.2-5.62,.02-1.14,.02-1.36,.02-3.36v-.44c-.22-.16-.36-.28-.36-.38,0-.38,.98-1.26,1.58-1.26,.24,0,.72,.12,.8,.52h2.1Zm0,2.08v-1.28h-2c-.1,0-.16,.1-.16,.18-.02,.12-.02,.92-.02,1.1h2.18Zm0,2.06v-1.28h-2.18v1.28h2.18Zm5,1.6s.22-.16,.36-.16c.16,0,.22,.2,.22,.28,0,.34-.78,2.88-2.7,2.88-.5,0-1.06-.32-1.06-.88,0-.18,0-.6,.6-.74,.08-.02,.64-.14,.68-.16,.68-.22,.72-.24,1.9-1.22Zm8.2,2.78c0,.46-.58,.88-1.1,.88-.68,0-.98-.48-1.1-.66-1.28-2.12-2.1-2.82-2.2-2.9-.2-.16-.24-.2-.24-.28,0-.18,.24-.18,.32-.18,.38,0,3.38,.68,4.2,2.58,.04,.08,.12,.22,.12,.56Z"/><path class="cls-2" d="M209.29,371.97c.24-.32,.52-.66,.96-.66,.58,0,1.46,.58,1.46,1.12,0,.14-.04,.2-.2,.42-.04,.08-.04,.82-.04,.94,0,.54,.08,3.12,.08,3.7,0,.72-1,1-1.54,1-.7,0-.7-.24-.7-.66h-2.72v6.22c0,.36,.04,2.08,.04,2.48,0,.74,0,.82-.36,1.28-.12,.16-.64,.5-1.16,.5-.94,0-.94-.54-.94-.8,0-.18,.16-3.06,.18-3.64,.02-.32,.14-3.7,.12-7.26l-.02-3.34c0-.08-.12-.16-.16-.2-.18-.1-.28-.22-.28-.36,0-.5,1.26-1.34,1.8-1.34,.26,0,.68,.16,.82,.6h2.66Zm.02,2.52v-1.46s0-.14-.04-.14h-2.48c-.12,0-.2,.2-.2,.32v1.28h2.72Zm.02,2.42v-1.54h-2.74v1.54h2.74Zm4.42,2.72c.3-.4,.68-.6,.96-.6,.48,0,1.3,.54,1.3,1.04,0,.12-.02,.14-.16,.5-.08,.18-.08,.22-.08,.52,0,.6,.1,3.54,.1,4.22,0,.3,0,.42-.2,.62-.28,.24-.84,.4-1.3,.4-.66,0-.7-.28-.7-.56v-.34h-3v.6c0,.52-.82,.86-1.36,.86-.68,0-.68-.34-.68-.62,0-.78,.12-4.64,.08-5.52-.02-.02-.16-.16-.18-.2-.1-.1-.12-.18-.12-.24,0-.54,.96-1.2,1.48-1.2,.28,0,.78,.18,.84,.52h3.02Zm-.06,2.4v-1.54h-2.78c-.24,0-.24,.16-.24,.46v1.08h3.02Zm0,2.46v-1.58h-3.02v1.58h3.02Zm3.94-12.52c.34-.46,.8-.84,1.38-.84s1.38,.56,1.38,1.12c0,.14-.3,.72-.3,.86l.06,12.7c0,.84-.1,2.68-2.46,2.68-1.32,0-2.8-1.22-2.8-1.28,0-.14,.16-.16,.26-.16,1.66,0,2.68,0,2.68-2.02v-7.18h-2.74c-.1,.48-1.18,.64-1.56,.64s-.52-.2-.52-.5v-4.9c0-.12-.12-.22-.2-.26-.12-.1-.2-.2-.2-.32,0-.46,1.04-1.18,1.6-1.18,.4,0,.8,.22,.94,.64h2.48Zm.2,2.52v-1.36c0-.22,0-.24-.02-.24h-2.44c-.16,0-.22,.06-.22,.22v1.38h2.68Zm0,2.44v-1.56h-2.68v1.56h2.68Z"/><path class="cls-2" d="M61.14,411.8c-.52,0-1.14-.36-1.14-.98s.42-.92,1.06-.98c.46-.04,1.12-.12,1.78-.56,.12-.08,.3-.2,.34-.2,.16,0,.18,.12,.18,.22,0,.8-.98,2.5-2.22,2.5Zm4.46-2.36c0,.58,.08,3.38,.08,4.02,0,.9-.9,1.4-1.52,1.4-.48,0-.78-.28-.78-.68,0-.32,.28-5.62,.3-6.68-.62,.14-1.66,.32-2.26,.32-.74,0-.94-.52-.94-.86,0-.36,.32-.86,.9-.86,.18,0,1.06,.06,1.26,.06,.3-.38,.66-.86,.98-1.4-1.88-.38-2.08-.42-2.26-.54-.34-.2-.38-.44-.38-.56,0-.3,.36-.84,.9-1.08,.4-.62,.78-1.3,1.74-3.58-.02-.14-.04-.32-.04-.46,0-.64,1.16-.78,1.48-.78,.6,0,1.36,.38,1.36,.84,0,.24-.1,.46-.26,.7-.38,.56-2.4,3.24-2.84,3.84,.16,.1,.24,.16,.84,.64,.58-.94,.64-1.04,.84-1.48-.16-.66,.78-.9,1.22-.9s1.16,.32,1.16,.82c0,.34-.3,.72-3.04,4.02,.48,0,.76,.02,1.6,.02l-.5-.98c0-.16,.16-.16,.22-.16,.36,0,2.34,.58,2.34,1.94,0,.36-.26,.88-.98,.88-.26,0-.5-.06-.64-.46-.04-.08-.16-.5-.2-.58l-.58,.16v2.38Zm2.7,2.36c-.74,0-2.4-1.62-2.4-2.32,0-.34,.52-.7,.96-.7,.58,0,.64,.32,.7,.56,.1,.52,.42,1.04,.72,1.52,.04,.06,.36,.62,.36,.7,0,.18-.12,.24-.34,.24Zm3.4-2.04h-1.14c-.9,0-.98,0-1.24,.12-.36,.18-.58,.22-.72,.22-.52,0-.58-.5-.58-.66,0-.48,.46-.86,.92-.86,.16,0,.92,.12,1.1,.12h5.92c.26-.46,.74-.66,1.04-.66,.58,0,1.4,.62,1.4,1.2,0,.52-.56,.52-.86,.52h-3.52v3.28h2.82c.2-.26,.64-.84,1.22-.84s1.48,.7,1.48,1.32c0,.54-.86,.54-1.16,.54h-9.98c-.2,0-1.12,.32-1.34,.32-.28,0-.58-.14-.58-.5,0-.5,.48-1,.98-1,.18,0,.98,.16,1.16,.16h3.06l.02-3.28Zm4.2-10.54c.2-.36,.74-.84,1.1-.84,.48,0,1.5,.72,1.5,1.34,0,.46-.58,.56-1.06,.56h-8.38c-.18,0-1.06,.34-1.22,.34-.26,0-.68-.14-.68-.56s.32-.98,.98-.98c.1,0,.58,.12,.68,.12l7.08,.02Zm-4.62,7.28c.24,.36,.26,.56,.26,.62,0,.22-.34,.76-1.02,.76-.56,0-.7-.22-1.18-1.16-.3-.58-.48-.86-.8-1.28-.78-1-.86-1.1-.86-1.22,0-.1,.04-.14,.18-.32,.46-.6,1.48-1.94,1.58-2.34,.08-.34,.16-.66,.8-.66,.48,0,1.36,.3,1.36,.68,0,.14-.16,.34-.2,.4-.26,.36-1.64,1.7-2.2,2.24,1.7,1.8,1.88,2,2.08,2.28Zm2.82-.42c.14,.18,.52,.66,.52,1.06,0,.56-.66,.78-.96,.78-.64,0-.78-.3-1.38-1.44-.2-.38-.32-.62-1.26-1.82-.22-.28-.26-.34-.26-.44s.04-.16,.18-.32c.5-.64,1.48-1.9,1.56-2.32,.06-.24,.14-.68,.84-.68,.48,0,1.32,.3,1.32,.68,0,.52-2,2.22-2.38,2.62,.24,.3,1.56,1.56,1.82,1.88Zm3.74,.88c0,.74-.7,.9-.98,.9-.58,0-.68-.2-1.14-1.04-.36-.66-.44-.82-1.26-1.92-.36-.48-.44-.6-.44-.66,0-.12,.06-.2,.18-.34,.48-.64,1.46-1.9,1.56-2.32,.06-.24,.16-.7,.86-.7,.44,0,1.3,.3,1.3,.7,0,.28-.48,.78-.82,1.12-.44,.44-1.14,1.06-1.56,1.5,1.46,1.44,2.3,2.3,2.3,2.76Z"/><path class="cls-2" d="M80.86,412.3c-.56,0-.94-.42-.94-1.04,0-.26,.08-.6,.5-.76,1-.36,1.1-.4,1.42-.76,.32-.34,.36-.38,.44-.38,.12,0,.22,.14,.22,.32,0,1.02-.62,2.62-1.64,2.62Zm5.46-7.56c.2-.4,.52-.52,.68-.52,.1,0,.16,.02,.22,.04l-.06-.1c0-.1,.8-.66,.82-.68,1.4-1.2,3.02-3.36,3.64-5.12,.04-.26,.14-.98,1.12-.98,.46,0,1.34,.4,1.34,.9,0,.2-.14,.38-.2,.46,1.02,2.1,3.86,3.3,4.66,3.64,.18,.08,1.2,.38,1.2,.5,0,.14-1.7,1.46-2.2,1.46-.74,0-1.58-.8-1.98-1.18,.04,.1,.04,.14,.04,.2,0,.42-.36,.42-.74,.42h-3.4c-.14,0-.78,.24-.94,.24-.24,0-.54-.1-.54-.42,0-.04,0-.28,.18-.5-.9,.66-2.26,1.32-2.9,1.18,.48,.22,.7,.62,.7,.88,0,.42-.54,.42-.72,.42h-1.14v1.86h.54c.32-.4,.72-.52,.88-.52,.32,0,1.28,.52,1.28,1.04,0,.08-.26,.4-.28,.48-.02,.1-.04,.2-.06,.7-.26,4.24-1.88,5.58-3.24,5.58-1.16,0-1.92-1.34-2.06-1.7,0-.1,.02-.16,.12-.14,.1,.02,.24,.06,.28,.08,.48,.14,.88,.14,.98,.14,.66,0,1.26-.34,1.72-1.88-.06,.08-.14,.1-.18,.1-.42,0-.72-1.98-.72-2.06,0-.32,.3-.54,.52-.54,.42,0,.42,.24,.4,.88,0,.2,.02,1.22,.02,1.44,.24-.94,.34-1.7,.4-2.78h-3.38c-.2,.46-.96,.72-1.24,.72-.02,0-.68,0-.68-.62,0-.24,.12-1.44,.12-1.72,.02-.66,.06-2.66,.06-4.06,0-.66-.02-1.7-.04-1.94-.02-.08-.28-.44-.28-.54,0-.46,.92-1.28,1.44-1.28,.14,0,.72,0,.86,.76h2.64c.2-.4,.56-.74,.9-.74s1.26,.56,1.26,1.14c0,.5-.64,.5-.86,.5h-1.4v1.76h.22c.18-.36,.48-.48,.66-.48,.42,0,.88,.48,.88,.92,0,.4-.46,.42-.62,.42h-1.14v1.64h.22Zm-3.78,4.9c0-.3,.62-.62,.9-.62,.46,0,.46,.16,.46,1.54,0,.5-.02,1.66-.72,1.66-.4,0-.54-.44-.54-1.16,0-.18,.02-1.04,.02-1.24-.06-.04-.12-.1-.12-.18Zm1.78-7.4v-1.76h-.72c-.1,0-.16,.14-.16,.26l.02,1.5h.86Zm0,2.5v-1.64h-.86v1.64h.86Zm0,2.7v-1.86h-.86v1.86h.86Zm-.18,2.32s-.12-.22-.12-.26c0-.28,.46-.6,.72-.6,.5,0,.5,.18,.5,2.14,0,.74-.3,.88-.5,.88-.42,0-.52-.64-.54-1.06l-.06-1.1Zm3.44,5.28c-.1,0-.46,0-.46-.18,0-.08,.8-.74,.94-.9,1.3-1.38,1.7-3.16,1.92-4.06,.02-.34,.04-.84,.9-.84,.52,0,1.16,.4,1.16,.86s-.34,1.2-.48,1.48c.02,.04,.36,.62,1.12,1.32,.32,.3,.36,.32,.36,.44,0,.48-1.34,.92-1.46,.92-.42,0-.78-1.04-.88-1.34-.44,.74-1.78,2.3-3.12,2.3Zm3.96-9.88c.2-.28,.54-.42,.76-.42,.32,0,1,.28,1,.74,0,.04-.08,.26-.1,.32-.02,.06-.02,.1-.02,.38,0,.3,.06,1.74,.06,2.08,0,.52-.72,.76-1.12,.76-.66,0-.66-.24-.66-.58h-.8c0,.28,0,.82-1.22,.82-.42,0-.52-.2-.52-.5,0-.36,.06-2.12,.06-2.52,0-.14-.04-.2-.12-.28-.1-.08-.12-.12-.12-.22,0-.42,.88-1,1.3-1,.28,0,.6,.12,.62,.42h.88Zm2.3-2.26c.16-.28,.36-.48,.66-.48,.24,0,.44,.12,.56,.18-1.2-1.38-1.52-2.44-1.7-3.06-.84,1.66-2.3,2.86-2.92,3.36,.08-.04,.14-.08,.36-.08,.08,0,.38,.08,.46,.08h2.58Zm-2.38,4.78v-1.78h-.64c-.12,0-.18,.08-.18,.2v1.58h.82Zm6.56,6.22c.28,.2,.52,.4,.52,.54,0,.62-1.72,.98-1.78,.98-.32,0-.54-.14-.66-.3-.1-.12-.66-.9-1.1-2.02-1.12,1.8-2.62,2.4-3.04,2.4-.12,0-.32-.04-.32-.22,0-.2,.8-.96,.96-1.14,.86-1.08,1.32-2.38,1.44-3.3,.16-1.14,.2-1.56,1.04-1.56,.46,0,1.08,.38,1.08,.9,0,.4-.28,1.2-.5,1.68,.9,1.02,2.14,1.9,2.36,2.04Zm-1.76-8.74c.16-.26,.48-.46,.76-.46,.32,0,1.2,.36,1.2,.82,0,.08-.04,.18-.08,.24-.04,.08-.04,.1-.04,.46,0,.32,.06,1.92,.06,2.3,0,.6-1.14,.7-1.28,.7-.7,0-.7-.26-.7-.78h-.82c0,.78-1.1,.78-1.18,.78-.12,0-.5,0-.5-.48,0-.36,.06-2.14,.06-2.54,0-.14-.04-.18-.12-.26-.1-.08-.12-.14-.12-.22,0-.42,.82-.98,1.24-.98,.28,0,.56,.12,.58,.42h.94Zm-.06,2.52v-1.78h-.68c-.1,0-.18,.06-.18,.2v1.58h.86Z"/><path class="cls-2" d="M116.22,413.4c.28-.52,.86-1.02,1.28-1.02,.56,0,1.62,.84,1.62,1.5,0,.58-.72,.64-1.04,.64h-1.52c-.46,0-9.56-.06-10.14-.06-1.7,0-3.34,.02-3.54,.08-.2,0-1.2,.38-1.44,.38-.2,0-.78-.08-.78-.54,0-.56,.6-1.06,1.12-1.06,.1,0,.54,.08,.64,.08h4.66c-.1-.12-.52-.58-.68-.76-.22-.26-.4-.54-.4-.72,0-.54,.96-.86,1.44-.86,.8,0,1.06,.36,1.16,2.34h1.92c.12-2.2,.34-2.36,1.18-2.36,.62,0,1.38,.34,1.38,.8,0,.5-.32,.82-1.06,1.56h4.2Zm-1.18-13.36c0-.06-.02-.14-.06-.2-.02-.06-.22-.3-.22-.36,0-.44,1.14-.96,1.8-.96,.16,0,.74,0,.74,.54,0,.24-.06,1.42-.06,1.68v1.84c0,.3,.04,1.74,.04,2.08,0,.62-1.12,.72-1.4,.72-.9,0-.9-.2-.9-.76-1.88-.04-8.84,0-10.48,0v.32c0,.36-.78,.72-1.34,.72-.66,0-.88-.18-.88-.48,0-.04,.04-.92,.04-1.1l.02-3.82c0-.1-.02-.2-.06-.28-.02-.06-.2-.34-.2-.42,0-.46,1.12-1.02,1.7-1.02,.3,0,.78,.14,.78,.7,0,.06-.08,.96-.08,1.14v3.3h1.28l.02-.94h-.2c-.06,.04-.24,.1-.44,.1-.24,0-.42-.12-.42-.34,0-.18,.16-.46,.48-.46,.08,0,.48,.04,.58,.04l.02-.72h-.22s-.22,.12-.44,.12c-.24,0-.42-.1-.42-.34,0-.18,.16-.46,.48-.46,.08,0,.5,.04,.6,.04v-.72h-.22s-.22,.12-.44,.12c-.42,0-.42-.2-.42-.34,0-.18,.16-.5,.56-.46,.18,.02,.36,.04,.5,.02l-.02-.32c0-.08-.28-.44-.28-.52,0-.34,.86-.86,1.38-.86,.42,0,.68,.16,.68,.54,0,.12-.08,.88-.12,1.14,.08-.02,.44-.28,.54-.28,.28,0,.5,.3,.5,.64,0,.3-.22,.32-.48,.32h-.58l-.02,.7c.08,0,.46-.26,.56-.26,.32,0,.52,.3,.52,.6s-.16,.34-.48,.34h-.6l-.02,.68c.06,0,.12,0,.18-.04,.22-.18,.3-.24,.42-.24,.36,0,.5,.38,.5,.64,0,.28-.16,.32-.48,.32h-.64v.94h1.34v-4.7c0-.1-.02-.22-.1-.32-.1-.16-.18-.3-.18-.36,0-.5,1-.96,1.78-.96,.72,0,.72,.4,.72,.62,0,.02-.08,.72-.12,.88,0,.14-.04,4.42-.04,4.84h1.24v-.94h-.16s-.26,.1-.46,.1c-.32,0-.4-.2-.4-.34,0-.16,.16-.46,.48-.46,.08,0,.48,.04,.56,.04v-.72h-.18s-.24,.12-.46,.12c-.36,0-.4-.24-.4-.34,0-.16,.16-.46,.48-.46,.08,0,.48,.04,.56,.04l.02-.72h-.2s-.24,.12-.46,.12c-.34,0-.4-.22-.4-.34,0-.18,.16-.46,.48-.46,.08,0,.48,.04,.56,.04l-.02-.34c0-.08-.28-.44-.28-.52,0-.32,.82-.86,1.38-.86,.34,0,.68,.14,.68,.52,0,.16-.12,.98-.12,1.16,.08,0,.44-.26,.52-.26,.22,0,.54,.22,.54,.62,0,.3-.22,.32-.48,.32h-.62v.7c.1,0,.48-.28,.58-.28,.32,0,.52,.36,.52,.64s-.16,.32-.48,.32h-.64l-.02,.68c.14,0,.16-.02,.32-.12,.1-.08,.18-.14,.3-.14,.28,0,.52,.28,.52,.62,0,.28-.18,.32-.48,.32h-.66l-.02,.94h1.44l.06-3.64Zm-.58,6.02c.24-.36,.7-.62,1-.62,.54,0,1.68,.54,1.68,1.1,0,.5-.52,.52-.82,.52h-11.06c-1.06,0-1.18,0-1.86,.28-.18,.08-.3,.1-.46,.1-.14,0-.74-.02-.74-.46,0-.48,.52-1.02,1.02-1.02,.1,0,.58,.1,.7,.1h10.54Zm-1.78,1.86c.32-.56,.92-.62,1.02-.62,.4,0,1.46,.5,1.46,.96,0,.08-.02,.16-.08,.22-.1,.1-.1,.16-.1,.28,0,.16,.04,1.8,.04,1.86,0,.7-1.42,.82-1.5,.82-.36,0-.82-.14-.88-.54h-6.08c-.28,.46-1.18,.64-1.42,.64-.72,0-.72-.34-.72-.6,0-.04,.06-1.82,.06-2.16,0-.04-.16-.14-.18-.16-.04-.04-.1-.12-.1-.22,0-.52,1.3-1.04,1.82-1.04,.12,0,.66,.06,.74,.56h5.92Zm-.06,2.12v-1.22h-5.74c-.06,0-.2,.08-.2,.14v1.08h5.94Z"/><path class="cls-2" d="M135.72,399.95c.32-.42,.76-.68,1.3-.68,.62,0,1.48,.34,1.48,1.24,0,.56-.54,1.58-1.02,2.4-.2,.34-.48,.8-.98,.8-.26,0-.42-.12-.54-.28-.14-.2-.16-.44-.26-2.52h-11.68c-.38,2.66-.64,2.84-1.22,2.84-.24,0-.52-.06-.66-.44-.06-.18-.74-2.4-.74-2.88,0-.68,.54-1.18,1.36-1.18,.46,0,1.06,.22,1.28,.7h4.58c-.02-.28-.06-.74-.12-1.14-.02-.04-.26-.16-.32-.2-.08-.06-.16-.16-.16-.3,0-.66,1.54-1.3,2.24-1.3,.46,0,.92,.28,.92,.88,0,.06-.06,.36-.08,.44-.06,.36-.14,1.24-.16,1.62h4.78Zm-2.02,8.18c.12-.38,.74-.62,1.08-.62,.5,0,1.36,.38,1.36,.94,0,.08-.2,.54-.2,.64,0,.8,.14,4.44,.14,4.96,0,.48,0,.6-.22,.82-.28,.28-.78,.48-1.28,.48-.9,0-.9-.28-.9-.9h-7.86v.04c0,.74-.72,.98-1.4,.98-.42,0-.9-.16-.9-.62,0-.36,.14-4.44,.14-5.26,0-.22-.02-.26-.1-.38-.2-.28-.22-.3-.22-.4,0-.44,1.22-1.12,1.74-1.12,.16,0,.74,.06,.82,.44h7.8Zm-.6-6c.2-.4,.64-.66,1-.66,.54,0,1.4,.56,1.4,1.12,0,.46-.48,.5-.86,.5h-6c-.32,0-3,0-3.16,.06-.48,.18-.72,.26-.9,.26-.32,0-.64-.14-.64-.5,0-.44,.34-.9,.94-.9,.08,0,.52,.1,.64,.12h7.58Zm-1.3,1.94c.22-.32,.7-.48,.98-.48,.48,0,1.38,.48,1.38,.96,0,.06-.02,.1-.14,.3-.06,.08-.06,.12-.06,.24,0,.14,.04,1.52,.04,1.6,0,.64-1.38,.84-1.6,.84-.66,0-.68-.36-.68-.64h-4.06c-.1,.52-1.24,.6-1.38,.6-.74,0-.8-.34-.8-.62,0-.24,.04-1.5,.04-1.78,0-.08-.26-.36-.26-.44,0-.42,1.12-.98,1.64-.98,.32,0,.66,.1,.76,.4h4.14Zm-3.16,6.62v-1.7h-2.38c-.2,0-.46,0-.46,.2v1.5h2.84Zm0,2.86v-1.96h-2.84v1.96h2.84Zm3.12-7.46c0-.46,0-.92-.02-1.22h-3.54c-.36,0-.56,0-.56,.2v1.02h4.12Zm1.94,4.6c0-.24-.02-1.42-.02-1.7h-2.84v1.7h2.86Zm0,.9h-2.86v1.96h2.84l.02-1.96Z"/><path class="cls-2" d="M140.82,411.58c0-.78,.74-1.42,1.6-1.42,1,0,1.64,.76,1.64,1.64,0,1.6-1.36,4.36-2.52,4.36-.22,0-.42-.08-.42-.3,0-.1,.26-.56,.3-.66,.04-.1,.6-1.36,.64-2.44-.78-.04-1.24-.48-1.24-1.18Z"/><path class="cls-2" d="M154.44,399.53v-.44c0-.08,0-.36-.02-.46-.02-.08-.26-.38-.26-.46,0-.46,1.1-.92,1.66-.92,.62,0,.74,.32,.74,.64,0,.14-.08,.74-.08,.86v.78h1.34v-.82c-.02-.1-.3-.46-.3-.56,0-.56,1.32-.98,1.76-.98,.12,0,.72,.06,.72,.66,0,.28-.1,1.46-.1,1.7h1.74c.22-.4,.7-.74,1.06-.74,.5,0,1.38,.58,1.38,1.16,0,.54-.66,.54-.86,.54h-3.3v.34c0,.44-.54,.58-.92,.66,.14,.1,.3,.24,.3,.46,0,.24-.06,.3-.68,.82h2.2c.46-.54,.82-.62,1-.62,.46,0,1.14,.44,1.14,.96,0,.44-.56,.46-.94,.46h-3.08l-.02,.74h1.56c.2-.22,.44-.5,.84-.5s1.12,.44,1.12,.84-.72,.4-.98,.4h-2.56v.76h1.64c.2-.26,.46-.48,.82-.48,.4,0,1.08,.4,1.08,.8s-.62,.4-.86,.4h-2.68v.8h2.82c.26-.36,.64-.68,1.08-.68s1.28,.54,1.28,1.04-.58,.5-1,.5h-7.86c-.06,.74-1.22,.74-1.44,.74s-.72-.02-.72-.44c0-.26,.12-3.24,.16-3.98-.66,.36-1.06,.56-1.64,.7,.2,1.02,.36,1.92,.36,3.66,0,5.28-2.1,6.16-3.34,6.16-1.56,0-2.56-1.8-2.56-1.92,0-.06,.02-.06,.08-.06,.04,0,1.38,.2,1.66,.2,.74,0,1.3-.46,1.62-2.1,.18-.94,.24-1.76,.24-2.72,0-.48,0-1-.02-1.64-1.38,3.28-3.74,4.34-3.86,4.34-.2,0-.26-.14-.26-.18,0-.14,.4-.68,.46-.78,.46-.76,1.42-2.48,1.96-5,.2-.96,.28-1.36,1.04-1.36,.06,0,.08,.02,.18,.04-.14-.54-.24-.78-.46-1.34-.34,.26-1.86,1.38-2.78,1.38-.06,0-.24,0-.24-.12,0-.08,.46-.5,.58-.6,.72-.66,1.42-1.58,1.64-1.88-.76-.98-1.44-1.88-1.8-2.18-.1-.08-.22-.22-.22-.36,0-.12,.2-.14,.26-.14,.24,0,1.28,.26,2.62,1.58,.34-.58,.78-1.42,.94-1.98,.12-.42,.7-.64,.96-.64,1.04,0,1.42,.5,1.42,.88,0,.96-1.88,2.86-2.12,3.08,.76,1.06,1.18,1.94,1.54,3.28,.9-.7,2.1-2.34,2.36-2.94,.06-.48,.34-.64,.56-.64-.04-.08,0-.62,0-.74-.82-.02-1.14-.02-1.46,.06-.08,.02-.72,.2-.82,.2-.04,0-.54,0-.54-.42,0-.36,.26-.9,.88-.9,.12,0,.6,.1,.7,.1h1.28Zm4.6,9.58c.14-.18,.58-.68,1.02-.68,.5,0,1.54,.38,1.54,1.04,0,.28-.22,.42-.34,.5-.48,.74-1.14,1.52-1.74,2.16,.38,.18,1.14,.58,2.68,.92,.4,.1,2.14,.38,2.48,.38,.08,0,.18,.1,.18,.16,0,.14-2.06,1.66-2.82,1.66s-2.44-.66-4.16-1.98c-2.42,1.4-4.22,1.5-6.28,1.5-.64,0-1.04-.16-1.04-.32,0-.08,.72-.2,.84-.22,.76-.12,2.96-.48,5.12-2.2-.7-.94-.94-1.38-1.2-2.04-.16,0-.68,.02-.84,.04-.14,.02-.76,.26-.9,.26-.34,0-.5-.2-.5-.42,0-.38,.28-.78,.72-.78,.14,0,.66,.04,.78,.04l4.46-.02Zm-2.26-5.54h-1.58v.74h1.58v-.74Zm0,1.48h-1.58v.76h1.58v-.76Zm0,1.46h-1.58v.82h1.58v-.82Zm1.02-6.02h-1.34c.02,.66,.02,.88-.82,1,.24,.2,.3,.38,.3,.54,0,.26-.28,.6-.4,.74h1.44c.22-1.32,.24-1.48,.88-1.54-.06-.08-.06-.1-.06-.22v-.52Zm-1.34,9.44c.28,.52,.66,.9,1.16,1.32,.4-.44,.76-.94,.96-1.32h-2.12Z"/><path class="cls-2" d="M173.44,402.93c.28-.52,.68-.8,.98-.8,.68,0,1.34,.8,1.34,1.26,0,.5-.74,.52-1.1,.52h-2.2l.02,1.46c.82,1.26,2.66,2.32,2.76,2.36,.3,.14,.5,.26,.5,.44,0,.4-1.1,.94-1.58,.94-.8,0-1.62-1.6-1.76-1.86,0,.8,.16,4.78,.16,5.68s0,1.04-.32,1.36c-.34,.34-.9,.58-1.48,.58-.86,0-.86-.44-.86-.8,0-.52,.24-3.66,.28-4.34l.14-3c-1.1,1.98-3.58,4.18-4.84,4.18-.04,0-.34,0-.34-.16,0-.08,.26-.34,.32-.4,1.32-1.32,2.66-3.66,3.08-4.9,.18-.52,.32-.96,1.16-.96,.2,0,.46,.04,.66,.14v-.72h-2.38s-.62,.24-.68,.26c-.18,.06-.4,.14-.62,.14-.32,0-.58-.24-.58-.6,0-.44,.28-.9,.9-.9,.12,0,.7,.12,.84,.12h2.52c0-.76-.02-1.7-.04-2.4-.56,.06-1.28,.08-1.84,.08-.96,0-2.26-.12-2.26-.5,0-.1,.2-.14,.66-.2,1.52-.24,3.94-.64,6.06-1.84,.26-.42,.74-.66,1.08-.66,.48,0,1.48,.5,1.48,1.1s-.5,.82-2.92,1.66c-.06,.84-.08,1.64-.1,2.76h.96Zm2.68-1.78s-.16-.16-.16-.28c0-.4,1.12-1.22,1.76-1.22,.6,0,1,.26,1,.88,0,.2-.1,1.22-.1,1.46-.06,1.58-.04,1.96-.04,5.48,0,.46,0,1.32-.18,1.96-.14,.52-.7,1.08-1.2,1.08-.82,0-.82-.6-.82-1.1,0-.7,.04-4.1,.04-4.86v-2.16c0-.3,0-.82-.04-1.04-.04-.04-.22-.18-.26-.2Zm6.36,6.18c0,.68,.04,4.08,.04,4.84,0,.64,0,1.32-.5,1.96-.62,.82-1.6,.9-1.98,.9-1.52,0-2.9-1.52-2.9-1.6,0-.1,.1-.1,.24-.1,.18,0,1.06,.08,1.26,.08,1.56,0,1.62-.56,1.62-5.32v-7.34c0-.42,0-1.38-.16-1.54-.32-.28-.34-.3-.34-.46,0-.66,1.6-1.36,2.18-1.36,.32,0,.86,.2,.86,.72,0,.08-.1,.52-.12,.62-.2,1.64-.2,6.64-.2,8.6Z"/><path class="cls-2" d="M191.32,402.93c.08-.14,.36-.54,.74-.54,.12,0,.22,.02,.32,.08,.04,.02,.24,.18,.3,.2,.92-1.32,1.22-2.78,1.26-3.1,.04-.4,.1-.76,1.02-.76,.28,0,.8,.2,.94,.46,.84-.2,2.58-.76,3.72-1.32,.12-.14,.52-.54,1.08-.54,.48,0,1.42,.48,1.42,1.1,0,.44-.18,.48-1.58,.78-.72,.16-2,.44-4.54,.62-.44,1.44-1.72,2.7-3.06,3.12,.08,.16,.12,.3,.12,.42,0,.4-.52,.44-.78,.44h-1.5v.98c.38,.44,1.1,1.02,1.52,1.22,.16,.08,.5,.24,.5,.46,0,.48-1.02,.96-1.26,.96-.32,0-.38-.08-.8-.72,.02,1,.08,5.64,.08,6.54s-.9,1.38-1.5,1.38c-.76,0-.82-.38-.82-.94,0-.5,.22-5.16,.26-6.14-1.44,2.56-3.06,3.26-3.34,3.26-.08,0-.18-.06-.18-.16,0-.02,.88-1.42,1.02-1.7,.46-.9,1.14-2.46,1.26-3.32,.08-.68,.16-1.16,1.06-1.16,.04,0,.16,.02,.22,.04v-.7h-1.04c-.24,0-.5,.06-.6,.1-.22,.1-.54,.26-.76,.26-.14,0-.5-.08-.5-.5,0-.48,.32-.9,.84-.9,.08,0,.5,.08,.6,.08h1.46l-.04-2.12c-.38,.04-.88,.06-1.28,.06-.3,0-1.82-.08-1.82-.44,0-.12,.06-.12,.62-.24,2.22-.44,4.02-1.4,4.48-1.68,.22-.34,.6-.52,1-.52,.54,0,1.26,.48,1.26,1.08s-1.54,1.2-2.14,1.42c-.04,1-.08,1.68-.08,2.44h.52Zm.64,11.16c-.56,0-1-.44-1-.88,0-.14,.08-.68,.74-.82,.98-.2,1.68-.46,2.14-.9,.28-.26,.36-.38,.44-.38,.14,0,.26,.12,.26,.42,0,.98-1.12,2.56-2.58,2.56Zm10.58-7.12c.38-.54,.82-.7,1.04-.7,.54,0,1.2,.66,1.2,1.02,0,.4-.6,.42-.76,.42h-2.08c0,.18,.02,1.16,.02,1.18,0,.62-1.12,.78-1.44,.78-.68,0-.8-.24-.86-.34h-4.16c-.18,0-1.02,.28-1.22,.28-.3,0-.56-.1-.56-.4,0-.38,.38-.8,.94-.8,.1,0,.5,.12,.6,.12h4.42v-.66h-5.44c-.18,0-1.02,.28-1.22,.28-.3,0-.56-.14-.56-.4,0-.38,.36-.8,.94-.8,.1,0,.5,.1,.6,.1h5.72v-.7h-4.16c-.18,0-1,.28-1.2,.28-.26,0-.58-.08-.58-.4,0-.4,.38-.8,.94-.8,.08,0,.5,.12,.6,.12h4.34c.26-.32,.76-.62,1.14-.62,.5,0,1.34,.4,1.34,.8,0,.06-.1,.32-.12,.38-.04,.18-.04,.6-.04,.86h.56Zm-1.18-3.06c.34-.48,.72-.62,1-.62,.5,0,1.28,.56,1.28,.96s-.6,.4-.86,.4h-8.46s-.84,.24-1,.24c-.28,0-.5-.12-.5-.36,0-.28,.26-.7,.8-.7,.08,0,.5,.08,.6,.08h2.72l-.04-.86h-.96c-.16,0-.96,.26-1.14,.26-.24,0-.52-.16-.52-.42,0-.16,0-.64,.8-.64,.1,0,.56,.08,.66,.08h3.94c.32-.52,.82-.52,.9-.52,.52,0,1.14,.48,1.14,.9,0,.36-.54,.36-.82,.36h-1.96l-.02,.84h2.44Zm2.8,9.8c-.54,1.02-.76,1.36-3.04,1.36-.98,0-2.88-.12-4.86-.74-1.2-.36-1.48-.66-1.48-1.68,0-.14,.08-1.26,.08-1.44,0-.1,0-.14-.06-.18-.24-.18-.3-.24-.3-.38,0-.4,.86-.96,1.58-.96s.74,.42,.74,.58c0,.32-.24,1.88-.24,2.24,0,.4,.08,.5,.26,.6,.16,.08,.84,.32,2.18,.32,1,0,2-.12,2.88-.42,.76-.26,1.62-.64,2.24-1.04,.14-.1,.22-.16,.38-.16s.3,.08,.3,.24c0,.38-.48,1.34-.66,1.66Zm-5.72-11.56c-.74,0-1.94-1-1.94-1.52,0-.34,.62-.76,1.18-.76,1,0,1.36,1.06,1.36,1.84,0,.3-.18,.44-.6,.44Zm-1.06,10.4c-.26,0-.32-.14-.32-.32,0-.28,.38-1.98,.42-2.1,.1-.3,.56-.48,.9-.48,.54,0,1.14,.4,1.1,.7-.06,.5-1.42,2.2-2.1,2.2Zm2.28,.16c-.24,0-.32-.1-.32-.3,0-.18,.22-1.4,.4-2,.12-.42,.56-.58,.98-.58,.52,0,1.14,.36,1.14,.7,0,.6-1.32,2.18-2.2,2.18Zm2.44-10.42c-.54,0-2.04-1.52-2.04-1.98,0-.28,.52-.7,1.16-.7,1.54,0,1.54,2.22,1.54,2.24s0,.44-.66,.44Z"/><path class="cls-2" d="M215.88,411.82c2.74,.9,4.58,1.16,5.06,1.22,.76,.1,1.06,.1,3.66,.1,.16,0,.42,0,.42,.2,0,.4-2.52,2.12-3.7,2.12-1.62,0-5.76-1.94-7.66-2.88-.8-.4-2.36-1.18-2.96-1.34-1.72,2.64-3.9,3.34-4.9,3.34-.22,0-.4-.04-.4-.2s.8-.56,.94-.66c2.44-1.74,3.42-5.44,3.42-6.12,0-.04-.14-.24-.14-.28,0-.54,1.1-.8,1.62-.8,.44,0,1.04,.26,1.04,.86,0,.48-.52,1.84-1.04,2.92,.76,.26,1.56,.52,2.5,.88v-.96c0-.76-.04-4.44-.04-5.28h-.56c-.44,0-1.5,0-2.04,.08-.18,.04-1.02,.36-1.24,.36-.38,0-.64-.14-.64-.58s.38-.92,.88-.92c.16,0,.92,.1,1.1,.1h6.64c.22-.46,.7-.84,1.06-.84,.52,0,1.42,.68,1.42,1.32,0,.5-.54,.5-.72,.5h-3.72v2.66h2.74c.32-.68,.78-.92,1.12-.92,.58,0,1.44,.66,1.44,1.36,0,.52-.58,.56-.9,.56h-4.4v3.2Zm4.58-11.14c.32-.44,.82-.74,1.34-.74,.74,0,1.56,.44,1.56,1.4,0,.68-.84,2-1.42,2.86-.16,.24-.34,.42-.64,.42-.44,0-.58-.32-.62-.54-.06-.34-.22-1.98-.26-2.36h-10.94c-.14,.7-.3,1.56-.52,2.2-.1,.32-.3,.8-.78,.8-.4,0-.58-.36-.64-.5-.22-.48-.76-2.44-.76-2.96,0-.76,.7-1.3,1.48-1.3,.24,0,1,.08,1.3,.72h4.04v-.6c0-.82-.1-.9-.24-1.02-.32-.24-.38-.3-.38-.46,0-.68,1.4-1.4,2.12-1.4,.42,0,1.1,.2,1.1,.88,0,.04-.06,.24-.08,.3-.14,.52-.18,1.12-.24,2.3h4.58Z"/></g><rect class="cls-1" x="61.09" y="61.23" width="162.72" height="162.72" rx="18.32" ry="18.32"/><g class="cls-6"><g><path class="cls-4" d="M167.01,154.63c3.96-3.82,7.87-7.62,11.8-11.39,2.37-2.26,5.17-2.87,8.21-1.71,2.92,1.11,4.51,3.37,4.8,6.48,.19,2.04-.45,3.85-1.75,5.44-6.09,7.49-12.19,14.98-18.25,22.5-1.61,2-3.59,2.94-6.15,2.93-8.41-.04-16.83-.09-25.24,.04-1.83,.03-3.73,.57-5.46,1.22-1.78,.67-2.97,1.9-2.62,4.21,.29,1.9-.62,3.59-1.97,4.96-3.04,3.08-6.09,6.15-9.16,9.19-1.59,1.57-3.04,1.57-4.63-.02-7.47-7.44-14.93-14.9-22.37-22.37-1.56-1.56-1.53-3.01,.06-4.62,3-3.03,6.03-6.04,9.06-9.04,1.82-1.8,4.04-2.56,6.51-1.94,1.27,.32,1.77-.12,2.41-1.05,5.33-7.72,14.53-11.39,23.46-9.38,1.21,.27,2.46,.58,3.53,1.16,2.34,1.26,4.79,1.54,7.38,1.49,4.62-.08,9.24-.02,13.87-.01,3.14,0,3.74,.18,6.54,1.92Zm-37.29,24.09c3.41-3.58,7.53-4.23,12.03-4.15,7.76,.14,15.52,0,23.28,.07,1.71,.02,2.86-.55,3.92-1.88,5.77-7.21,11.62-14.37,17.44-21.55,1.51-1.86,1.58-3.74,.17-5.06-1.47-1.38-3.39-1.21-5.19,.52-3.58,3.45-7.13,6.94-10.74,10.36-.92,.87-1.35,1.7-1.28,3.05,.2,4-2.67,7.53-6.56,7.68-5.97,.24-11.96,.11-17.94,.08-1.23,0-2.03-.76-2.05-2.01-.03-1.24,.73-1.97,1.96-2.12,.58-.07,1.18-.05,1.77-.05,4.98,0,9.95,.02,14.93-.01,2.51-.02,4.03-1.68,3.67-3.91-.27-1.7-1.63-2.74-3.79-2.76-5.09-.04-10.19-.07-15.28,0-2.9,.04-5.57-.52-8.24-1.73-7.97-3.63-18.18-.29-22.46,7.24-.26,.46-.25,1.47,.07,1.8,4.67,4.79,9.41,9.5,14.31,14.41Zm-10.99,16.11c3.06-3.03,5.87-5.73,8.6-8.52,1.18-1.21,1.19-2.78,0-3.99-5.61-5.68-11.27-11.33-16.94-16.95-1.11-1.1-2.58-1.25-3.7-.18-2.93,2.81-5.71,5.77-8.72,8.84,6.91,6.93,13.8,13.83,20.76,20.81Z"/><path class="cls-4" d="M142.17,100.42c-1.36-2.78-2.65-5.38-3.9-7.99-1.2-2.5-.44-3.47,2.34-3.73,2.33-.22,4.62-.9,6.91-1.44,2.24-.53,4.43-1.32,6.69-1.66,2.7-.41,5.11,.6,7.26,2.27,1.24,.96,1.46,2.05,.74,3.42-1.28,2.47-2.53,4.96-3.78,7.45-.26,.51-.48,1.05-.75,1.64,.43,.17,.69,.3,.97,.39,14.41,4.52,24.06,19.17,22.42,35.75-.14,1.41-.68,2.44-2.25,2.42-1.31-.01-1.99-1.13-1.85-2.88,.8-10.13-2.16-18.89-9.8-25.74-12.81-11.49-32.38-7.67-40.61,7.84-3.78,7.11-4.6,14.6-2.75,22.41,.11,.46,.25,.92,.37,1.37,.46,1.73,.04,2.87-1.26,3.16-1.68,.38-2.4-.68-2.71-2.08-.46-2.08-.97-4.16-1.25-6.26-1.93-14.46,6.22-29.13,19.33-34.84,1.19-.52,2.42-.94,3.87-1.5Zm.43-7.69c1.02,1.92,1.9,3.39,2.59,4.95,.65,1.47,1.48,2.21,3.22,1.91,1.26-.22,2.59,.02,3.89-.03,.47-.02,1.19-.14,1.36-.45,1.53-2.77,2.97-5.59,4.57-8.65-5.82-2.18-10.24,2.06-15.63,2.27Z"/><path class="cls-4" d="M155.51,120.59c.01,1.9-1.16,2.6-2.51,2.17-.89-.28-1.82-.62-2.71-.57-.56,.03-1.42,.63-1.54,1.12-.15,.6,.14,1.61,.6,1.99,.94,.77,2.12,1.27,3.22,1.84,2.23,1.14,3.99,2.62,3.9,5.41-.09,2.66-1.4,4.42-3.88,5.41-.39,.16-.66,.95-.74,1.49-.15,.99-.47,1.92-1.56,1.69-.58-.12-1.36-1.02-1.4-1.61-.08-1.09-.56-1.38-1.47-1.59-.74-.17-1.65-.35-2.1-.86-.52-.59-.98-1.63-.83-2.34,.23-1.06,1.27-1.23,2.32-.88,1,.33,2.05,.83,3.04,.78,.78-.04,1.94-.69,2.15-1.32,.21-.64-.35-1.83-.95-2.35-.96-.84-2.23-1.32-3.37-1.95-1.96-1.1-3.47-2.51-3.39-4.99,.07-2.52,1.31-4.2,3.63-5.2,.42-.18,.56-.96,.9-1.42,.47-.64,1-1.22,1.5-1.83,.5,.61,1.33,1.18,1.41,1.85,.13,.99,.63,1.17,1.37,1.53,.97,.47,1.81,1.22,2.42,1.65Z"/><path class="cls-4" d="M108.71,169.72c1.28,0,2.35,1.05,2.39,2.36,.04,1.4-1.01,2.51-2.39,2.51-1.31,0-2.36-1.02-2.4-2.33-.05-1.37,1.06-2.53,2.4-2.54Z"/></g></g><rect class="cls-5" x="3.5" y="3.5" width="277.9" height="440.91" rx="8" ry="8"/></g></g></g></g></svg>