<?xml version="1.0" encoding="UTF-8"?><svg id="_圖層_2" xmlns="http://www.w3.org/2000/svg" viewBox="0 0 231.54 200.03"><defs><style>.cls-1{fill:#fff;}.cls-2{fill:#122d55;}.cls-3{fill:#0f2c51;}</style></defs><g id="_圖層_1-2"><g><g><path class="cls-1" d="M184.24,173.32s-4.41-5.26-12.32-5.6l-3.03-.26,.35-1.94,15.9-4.63,14.44-12.61,4.01-10.44,2.67-2.33,5.43-15.55s-11.93-14.97-12.1-15.17-47.92-18.7-47.92-18.7l-28.98,26.14-5.7,20.71,3.45,7.59,6.4,4.91,5.03,2.07,5.5,7.95,13.03,6.84,3.04,1.41v3.42l-3.04-.95s-8.65,.09-11.69,5.09,2.18,27.68,2.18,27.68l45.99,.36h2l7.67-20.92,2.35-3.41,2.2-4.6,.47-9.38-.87-5.1-1.86-3.8-2.22-1.22-.59,1.28-2.53-3.84-4.45-4.07-1.15,1.49-2.18-3.11-1.33,.86-1.13,1.51,1.8,3.15-.04,2.72,2.68,6.9,1.19,13.76-2.75,4.83-1.86-3.03"/><path class="cls-3" d="M164.72,166.15c13.33,.32,25.93-5.33,34.47-16.27,9.32-11.93,6.76-34.84,6.64-35.81-.06-.55-.57-.95-1.13-.88-.56,.06-.96,.56-.9,1.12,.03,.23,2.58,23.07-6.23,34.35-8.13,10.41-20.13,15.79-32.83,15.48-6.39-.15-12.96-1.75-19.31-4.86-14.22-6.97-19.16-25.89-20.62-33.7-.13-.69-.29-1.56-1.26-1.44-.97,.12-.91,1.02-.87,1.68,.01,.21,.09,.4,.21,.55,1.96,10.14,7.34,27.7,21.64,34.72,6.63,3.25,13.51,4.92,20.19,5.08Z"/><polygon class="cls-1" points="187.94 163.48 186.92 154.78 194.81 150.17 196.59 151.85 198.05 151.29 200.53 155.08 187.94 163.48"/><path class="cls-3" d="M204.67,137.8c.08,0,.17-.03,.25-.09,5.91-4.58,4.7-18.33,4.64-18.91-.05-.55-.35-.9-.67-.8-.32,.1-.53,.63-.48,1.18h0c.01,.13,1.13,12.78-3.94,16.7-.3,.23-.44,.83-.31,1.33,.09,.37,.29,.59,.51,.59Z"/><path class="cls-3" d="M129.24,147.5c.53,.01,.98-.38,1.04-.9,.06-.55-.35-1.05-.91-1.1-9.53-.97-10.9-14.23-10.91-14.36-.05-.55-.55-.96-1.11-.91-.56,.05-.97,.54-.92,1.09,.06,.61,1.53,15.05,12.73,16.18,.03,0,.05,0,.08,0Z"/><path class="cls-3" d="M200.84,137.17c.06,0,.12-.01,.18-.04l3.19-1.55c.25-.12,.37-.47,.28-.78-.09-.31-.37-.47-.61-.35l-3.19,1.55c-.25,.12-.37,.47-.28,.78,.07,.24,.24,.38,.43,.39Z"/><path class="cls-3" d="M200.66,139.17c.06,0,.12-.01,.18-.04l3.19-1.55c.25-.12,.37-.47,.28-.78-.09-.31-.37-.47-.61-.35l-3.19,1.55c-.25,.12-.37,.47-.28,.78,.07,.24,.24,.38,.43,.39Z"/><path class="cls-3" d="M135.84,143.03c.42-.03,.75-.34,.73-.69-.02-.35-.38-.62-.81-.6l-5.56,.33c-.43,.02-.77,.33-.75,.69,.02,.35,.38,.62,.81,.6l5.56-.33h.02Z"/><path class="cls-3" d="M136.62,145.1c.42-.03,.75-.34,.73-.69-.02-.35-.38-.62-.81-.6l-5.56,.33c-.45,.03-.77,.33-.75,.69,.02,.35,.38,.62,.81,.6l5.56-.33h.02Z"/><path class="cls-3" d="M157.9,125.66c-.16,0-.32-.06-.45-.17h0c-.22-.2-5.6-4.86-12.31-.96-.32,.19-.73,.08-.92-.24-.19-.32-.08-.73,.24-.92,7.57-4.4,13.82,1.06,13.88,1.12,.28,.25,.3,.67,.05,.95-.13,.15-.32,.22-.5,.22Z"/><path class="cls-3" d="M191.34,125.49c-.16,0-.33-.06-.46-.18-.2-.19-5.01-4.52-10.87-.37-.3,.21-.72,.14-.94-.16-.21-.3-.14-.72,.16-.94,6.76-4.79,12.5,.43,12.56,.48,.27,.25,.29,.68,.03,.95-.13,.14-.31,.21-.49,.21Z"/><path class="cls-3" d="M137.32,169.67c8.35-5.47,18.69-7,26.43,29.46l-24.39-.1s-10.38-23.9-2.04-29.36Z"/><polygon class="cls-3" points="162.73 167.83 163.52 176.35 150.38 166.16 162.73 167.83"/><polygon class="cls-3" points="168.45 167.39 174.35 167.94 177.11 175.02 171.53 169.8 168.45 167.39"/><polygon class="cls-3" points="163.68 169.06 175.21 183.15 164.89 178.05 163.68 169.06"/><polygon class="cls-3" points="169.56 169.01 176.63 175.73 175.98 182.91 169.56 169.01"/><path class="cls-3" d="M175.66,168.48s7.32,13.36,6.64,15.55c-.67,2.19-17.27,1.76-17.27,1.76l-7.55-13.12,6.19,4.83v1.18l12.92,6.07,.97-8.73,.85,.08-2.75-7.62Z"/><path class="cls-3" d="M185.8,175.73s-.82-5.12-7.59-6.67l5.29,11.44,2.3-4.78Z"/><path class="cls-3" d="M188.85,200.03c-.1,0-.21-.02-.31-.06-.46-.17-.7-.69-.53-1.15l8.31-22.22c.05-.14,.14-.27,.26-.37,4.61-3.92,4.43-11.04,4.43-11.11-.08-3.96-.88-10.79-2.69-12.34-.36-.3-.6-.45-.74-.53-.04,.25-.04,.66,.01,1,.08,.49-.26,.95-.75,1.02-.49,.08-.95-.26-1.02-.74-.08-.53-.27-2.32,.85-2.95,1.12-.62,2.4,.48,2.82,.84,3.01,2.58,3.29,12.53,3.31,13.65,.01,.31,.22,7.87-4.88,12.37l-8.23,22.01c-.13,.36-.48,.58-.84,.58Z"/><path class="cls-3" d="M173.68,199.76c-.15,0-.3-.04-.43-.11-.43-.24-.59-.79-.35-1.22l14.25-25.73c.24-1.48,2.11-14.13-2.9-21.32-.08-.12-.13-.25-.15-.39-.05-.37-.24-2.24,.98-2.88,1.24-.65,2.74,.53,3.76,1.47,3.36,3.09,3.69,7.32,3.69,8.87,2.6,1.54,6.31,5.37,4.45,10.69-.16,.47-.67,.71-1.14,.55-.47-.16-.71-.67-.55-1.14,1.95-5.61-3.83-8.66-4.08-8.78-.32-.17-.52-.51-.49-.87,0-.05,.34-4.83-3.09-7.99-1.01-.93-1.52-1.13-1.7-1.17-.06,.16-.09,.5-.07,.82,5.55,8.24,3.14,22.02,3.03,22.61-.02,.1-.05,.19-.1,.27l-14.32,25.87c-.16,.3-.47,.46-.79,.46Z"/><path class="cls-3" d="M199.16,162.64c-.39,0-.75-.26-.86-.66l-1.15-4.17s-.02-.07-.02-.11c0-.05-.82-5.06-5.5-10.16-1.05-1.14-1.73-1.76-2.16-2.09,0,0,0,0,0,.01,0,.02,.01,.05,.02,.07,.11,.47-.18,.94-.64,1.07-.46,.12-.94-.14-1.08-.59-.03-.07-.25-.52-1.21-1.65-.61-.72-1.28-.4-1.59-.19-.48,.53-.31,1.01-.26,1.1l1.59,3.26c.22,.45,.03,.98-.41,1.2-.45,.22-.98,.03-1.2-.41l-1.59-3.28c-.3-.62-.51-1.99,.65-3.18,.03-.03,.06-.06,.09-.08,.91-.7,2.75-1.16,4.1,.42,.09,.1,.17,.2,.25,.3,.03-.02,.05-.03,.08-.05,.99-.56,2.26,.22,4.69,2.88,4.85,5.29,5.83,10.41,5.94,11.05l1.14,4.12c.13,.48-.15,.97-.63,1.1-.08,.02-.16,.03-.24,.03Zm-11.41-16.69s0,.03,.02,.06c0,0,0,0,0,0,0-.02,0-.03-.01-.05Z"/><path class="cls-3" d="M172.04,156.66c-.22,0-.43-.11-.56-.3-.2-.31-.12-.73,.19-.93,1.76-1.15,2.65-2.28,2.58-3.25-.09-1.15-1.53-2.06-2.08-2.31-.18-.08-.32-.25-.37-.44-.05-.2-.01-.4,.11-.57,1.17-1.6,1.56-2.88,1.16-3.82-.64-1.5-3.13-1.84-3.16-1.84-.37-.05-.63-.38-.58-.75,.05-.37,.38-.63,.75-.58,.13,.02,3.27,.43,4.23,2.64,.54,1.26,.25,2.79-.88,4.53,.81,.52,2.05,1.55,2.17,3.04,.12,1.52-.96,3.02-3.19,4.48-.11,.07-.24,.11-.37,.11Z"/><circle class="cls-3" cx="148.91" cy="130.1" r="4.38"/><circle class="cls-3" cx="183.73" cy="130.1" r="4.38"/><path class="cls-3" d="M152.81,167.79s-.08,0-.12-.01c-.37-.07-.61-.42-.54-.78l.62-3.42c.07-.37,.42-.61,.78-.54,.37,.07,.61,.42,.54,.78l-.62,3.42c-.06,.33-.34,.55-.66,.55Z"/><path class="cls-3" d="M169.23,168.21s-.05,0-.08,0c-.37-.04-.63-.38-.59-.74l.31-2.68c.04-.37,.38-.63,.74-.59,.37,.04,.63,.38,.59,.74l-.31,2.68c-.04,.34-.33,.6-.67,.6Z"/><path class="cls-3" d="M159.77,119.53c.49-.23,.94-.63,1.1-1.16,.16-.52,.03-1.09-.11-1.61-.09-.32-.19-.65-.44-.87-.03-.02-.05-.04-.08-.07-.12-.08-.25-.14-.39-.19-1.46-.54-2.99-.41-4.5-.62-.87-.13-1.73-.25-2.6-.38-1.05-.15-2.11-.5-3.18-.4-.56,.05-1.04,.24-1.49,.56-.31,.22-1.03,.62-1.07,1.04-.05,.53,1.11,.85,1.5,1.01,.52,.21,1.03,.43,1.55,.64,1.31,.55,2.63,1.09,3.97,1.57,1.79,.63,3.9,1.32,5.74,.47Z"/><path class="cls-3" d="M178.56,118.49c-.49-.23-.94-.63-1.1-1.16-.16-.52-.03-1.09,.11-1.61,.09-.32,.19-.65,.44-.87,.03-.02,.05-.04,.08-.07,.12-.08,.25-.14,.39-.19,1.46-.54,2.99-.41,4.5-.62,.87-.13,1.73-.25,2.6-.38,1.05-.15,2.11-.5,3.18-.4,.56,.05,1.04,.24,1.49,.56,.31,.22,1.03,.62,1.07,1.04,.05,.53-1.11,.85-1.5,1.01-.52,.21-1.03,.43-1.55,.64-1.31,.55-2.63,1.09-3.97,1.57-1.79,.63-3.9,1.32-5.74,.47Z"/><path class="cls-3" d="M231.45,87.33c-.51-3.65-2.51-2.71-2.15-6.03,.36-3.32-.87-2.68-2.7-4.85-.43-.51-.79-1.36-.73-2.01,.42-5-1.11-8.97-3.96-12.25-.96-1.1-2.06-2.11-3.29-3.07-.77-.6-1.73-.99-2.65-1.29-.3-.1-.52-.23-.67-.39-.14-.19-.23-.43-.27-.76-.45-3.45,3.1-5.51,.97-8.23-.4-.51-.82-1-1.26-1.46-1.3-1.39-2.78-2.56-4.48-3.41-.2-.1-.37-.23-.52-.37-.42-.43-.66-.98-.89-1.57-.71-1.86-1.68-3.46-2.93-4.74-1.25-1.31-2.78-2.3-4.63-2.92-1.67-.56-3.48-.66-5.15-1.22-.97-.33-1.97-.99-2.66-1.78-3.7-4.23-8.49-5.05-13.51-5.24-.5-.02-1.05-.08-1.5,.08-1.7,.62-3.06,.15-4.52-.96-2.7-2.06-5.69-2.57-8.83-1.15-.29,.13-.78-.02-1.11-.2-2.46-1.37-5.12-2.29-7.82-1.92-2.39,.33-4.47-.3-6.67-.96-3.09-.93-5.63,.58-7.98,2.42-.63,.49-1.15,.63-1.93,.42-2.78-.74-5.39-.29-7.7,1.52-.83,.65-1.64,1.37-2.32,2.18-1,1.19-2.43,1.27-3.7,1.68-1.94,.62-3.5,1.75-4.69,3.41-1.01,1.42-1.85,2.98-2.8,4.44-.2,.31-.55,.59-.88,.72-3.13,1.2-5.61,3.32-7.51,6.15-.56,.84-.89,1.91-1.13,2.93-.3,1.24-.89,2.22-1.8,2.99-1.79,1.52-2.72,3.55-3.17,5.9-.11,.56-.55,1.14-.99,1.51-1.6,1.33,2.71-5.01,1.25-3.53-1.72,1.74-2.76,4.04-3.58,6.43-.16,.48-.43,.96-.76,1.31-2.87,3.04-2.29,1.66-2.26,5.99,0,1.31-2.33,3.9-2.74,5.03-1.85,5.06-2.16,6.4-.21,11.44,.25,.64,.22,1.03-.15,1.54-4.31,5.89-2.77,13.29-2.77,13.29,0,0-.4,8.06,1.87,10.35,.75,.76,1.59,1.45,2.54,2.05,.08,.05,.16,.13,.22,.23,.18,.25,.31,.61,.36,.91,.37,2.22,1.42,4.04,2.74,5.7-.04,1.3,.46,3.42,3.06,6.1,0,0,1.52,8.97,7.71,11.18,0,0,2.19,8.24,10.74,6.96,0,0-3.13-8.56-3.08-8.52,.01,.01-.06-.71-.18-1.82,1.82,1.28,4.18,1.73,6.59,3.64,4.5,3.57,5.2,5.8,5.2,5.8l6.92-.35-1.43-3.88c-.22-.59-2.86-8.04-1.53-15.25,1.61-2.41,2.6-5.09,2.77-8.13,.05-.88,.57,2.25,5.24,2.56,4.68,.31,6.28-3.27,8.11-6.17,.5-.01,.99-.04,1.48-.1,1.72,.51,3.59,.55,5.26,.08,.16-.02,.33-.03,.49-.05,.7-.1,1.39-.26,2.06-.49,1.33,.69,2.78,1.14,4.28,1.41,1.11,.34,2.28,.43,3.45,.31,.43,0,.85,0,1.26-.03,4.27-.25,8.25-1.71,11.15-4.71,.07-.02,.14-.05,.21-.08,.04,.05,.08,.09,.11,.14,.22,.29,.45,.57,.69,.83,.1,.11,.19,.23,.29,.34,.33,.35,.67,.68,1.02,.99,2.31,2.03,5.13,3.13,8.34,3.42,1.2,.11,2.46-.23,3.66-.51,.72-.17,1.29-.16,1.76,.27,.13,.13,.25,.29,.36,.5,.36,.66,.92,1.21,1.35,1.83,.42,.59,.86,1.14,1.32,1.65,.18,.2,.37,.4,.56,.59,.22,.22,.44,.45,.66,.66,.33,.3,.66,.6,1,.87,.04,.03,.08,.06,.12,.1,.29,.22,.51,.36,.69,.43l-.42,16.85,4-1.94s-.08-4.76,1.7-9.15c.77-1.9,1.69-2.94,2.41-4.13,.18,.59,.28,.95,.29,.94,.04-.06-.23,9.04-.23,9.04,11.07-1.36,10.31-9.87,10.31-9.87,6.69-3.97,4.81-12.98,4.81-12.98,1.91-3.06,1.83-5.13,1.35-6.41,2.71-1.62,6.89-7.82,6.13-13.23Z"/></g><g><path class="cls-2" d="M56.53,14.85c33.05-2.9,61.52,12.73,63.46,34.84,1.76,20.03-19.75,25.4-43.25,28.21-2.29,.27-4.14,1.82-4.83,4.05-.68,2.2-.04,4.49,1.68,5.99l.13,.11c1.24,1.06,1.74,2.71,1.31,4.31-.44,1.61-1.72,2.78-3.34,3.07-.52,.09-1.04,.16-1.56,.21-2.49,.22-5.02-.07-7.41-.85-5.22-1.7-9.4-5.59-11.48-10.68-.91-2.24-3.22-3.67-5.74-3.54C22.94,81.65,1.83,79.93,.1,60.2-1.83,38.09,23.48,17.74,56.53,14.85Z"/><g><g><path class="cls-2" d="M10.22,23.83c2.11-2.35,4.51-4.61,7.15-6.71,1.96-1.56,4.07-3.05,6.29-4.43,.66-.41,1.53-.19,1.92,.48h0c.39,.66,.18,1.5-.47,1.9-2.12,1.32-4.13,2.74-6.01,4.23-2.51,2-4.79,4.13-6.79,6.36-.51,.57-1.37,.64-1.95,.15h0c-.59-.5-.67-1.4-.15-1.98Z"/><path class="cls-2" d="M41.99,4.36c6.45-2.04,13.26-3.38,20.26-3.99,9.93-.87,19.94-.2,29.06,1.93,.75,.18,1.21,.95,1.02,1.7h0c-.19,.74-.93,1.18-1.67,1.01-8.83-2.07-18.54-2.71-28.17-1.87-6.79,.6-13.4,1.9-19.65,3.87-.73,.23-1.5-.16-1.74-.88-.25-.74,.15-1.54,.89-1.77Z"/></g><path class="cls-1" d="M62.98,8.69C30.64,11.53,5.94,31.16,7.82,52.54c1.54,17.56,19.61,20.26,43.94,19.09,3.06-.15,5.94,1.58,7.1,4.41,1.85,4.53,5.6,8.25,10.62,9.88,2.77,.9,5.61,1.06,8.29,.59,2.34-.41,3.17-3.41,1.37-4.95-.05-.04-.09-.08-.14-.12-4.64-4.06-2.21-11.74,3.91-12.47,25.24-3.02,43.61-8.64,42.03-26.71-1.88-21.38-29.61-36.41-61.95-33.58Z"/><path class="cls-2" d="M76.45,88.09c-2.49,.22-5.02-.07-7.41-.85-5.22-1.7-9.4-5.59-11.48-10.68-.91-2.24-3.22-3.67-5.74-3.54-22.55,1.08-43.66-.63-45.39-20.36C4.49,30.55,29.8,10.2,62.86,7.3c33.05-2.9,61.52,12.73,63.46,34.84,1.76,20.03-19.75,25.4-43.25,28.21-2.29,.27-4.14,1.82-4.83,4.05-.68,2.2-.04,4.49,1.68,5.99l.13,.11c1.24,1.06,1.74,2.71,1.31,4.31-.44,1.61-1.72,2.78-3.34,3.07-.52,.09-1.04,.16-1.56,.21ZM63.1,10.08C31.58,12.84,7.4,31.84,9.2,52.42c1.23,14.05,13.54,19.21,42.49,17.82,3.7-.18,7.09,1.94,8.45,5.27,1.77,4.33,5.32,7.64,9.76,9.09,2.46,.8,5.1,.99,7.62,.55,.83-.14,1.08-.85,1.14-1.06,.06-.21,.19-.93-.43-1.47l-.16-.14c-2.55-2.23-3.51-5.65-2.5-8.91,1.02-3.29,3.76-5.58,7.16-5.99,25.55-3.06,42.27-8.51,40.81-25.2-1.81-20.58-28.92-35.08-60.45-32.31Z"/></g></g><g><path class="cls-3" d="M35.77,32.69c-.02,1.05-.04,1.48-.05,2.55,2.16,.68,5.63,1.75,9.36,1.75,.3,0,1.82-.09,2.16-.09,.12,0,.29,.04,.29,.21,0,.21-2.09,1.98-3.64,1.98-1.82,0-10.37-3.58-10.94-3.56-.07,0-.16,.02-.23,.02-.39,.84-1.62,2.32-2.71,2.32-.09,0-.25-.02-.25-.16,0-.09,.34-.43,.39-.52,1.3-1.8,1.64-4.3,1.64-4.65,0-.12,0-.14-.09-.29-.04-.04-.07-.12-.07-.18,0-.39,.82-.75,1.25-.75s.87,.27,.87,.86c0,.43-.23,1.46-.53,2.51,.09,0,.71,.12,.8,.12,.04-.68,.02-3.56,0-4.01-.07-.09-.29-.3-.29-.41,0-.39,.66-.91,1.35-.91,.78,0,.78,.39,.78,.68,0,.25-.05,1.44-.05,1.71h.8c.18-.43,.55-.55,.78-.55,.45,0,.96,.48,.96,.94,0,.41-.5,.43-.8,.43h-1.78Zm.82-4.28c.14-.32,.46-.62,.78-.62,.43,0,1.11,.52,1.11,1,0,.41-.52,.46-.98,.46h-4.79c-.25,0-1.02,0-1.21,.09-.29,.11-.62,.23-.78,.23-.37,0-.55-.29-.55-.46,0-.3,.41-.75,.86-.75,.07,0,.43,.05,.5,.05h2.37v-1.82h-.12c-.53,0-1.14,.02-1.21,.02-.11,.02-.68,.2-.82,.2-.3,0-.52-.12-.52-.43,0-.34,.37-.77,.78-.77,.05,0,.39,.07,.46,.07,.02,0,.45,.02,1.39,.02,0-.64-.02-.89-.07-1.57-.04-.07-.34-.41-.34-.5,0-.55,.98-1.1,1.64-1.1,.11,0,.89,0,.89,.77,0,.04-.09,.86-.09,.94-.02,.21-.05,1.19-.07,1.46,.18,0,.29,0,.61-.02,.16-.36,.43-.48,.66-.48,.45,0,1.07,.5,1.07,.98,0,.41-.46,.41-.8,.41h-1.59c0,.27-.04,1.53-.04,1.82h.87Zm7.33-4.28c.12-.27,.46-.62,.75-.62,.46,0,1.39,.53,1.39,1.12,0,.09-.04,.14-.12,.23-.02,.02-.12,.12-.16,.14-.07,.11-.09,.73-.11,.87-.53,3.8-2.01,3.8-2.55,3.8-1.09,0-2-1.05-2-1.27,0-.05,.02-.11,.11-.11,.16,0,.96,.09,1.14,.09,.21,0,.66,0,1-.8,.29-.68,.5-1.84,.55-2.69-.18,0-1.28,.05-1.35,.05,.09,.05,.14,.14,.14,.25,0,.12-.37,1.82-1.75,3.17-.91,.89-2.28,1.64-3.28,1.64-.12,0-.25-.05-.25-.18,0-.07,.37-.32,.61-.46,1.55-.98,2.66-3.1,2.66-4.19,0-.02-.04-.18-.04-.21l-1.02,.11c-.14,.02-.5,.07-.55,.09-.09,.04-.52,.16-.57,.16s-.48,0-.48-.41c0-.37,.32-.87,.82-.87,.05,0,.32,.09,.39,.09h4.67Zm-.64,6.34c.2-.34,.53-.55,.84-.55,.43,0,1.32,.45,1.32,.89,0,.05,0,.09-.04,.14-.11,.16-.14,.2-.14,.39,0,.52,.05,3.21,.05,3.26,0,.37,0,.53-.23,.77-.27,.25-.77,.41-1.1,.41-.2,0-.71-.04-.71-.41v-.52h-2.8c0,.36,0,.46-.39,.71-.2,.14-.57,.23-.82,.23-.34,0-.64-.14-.64-.5,0-.55,.11-3.24,.11-3.85,0-.14,0-.18-.05-.29-.07-.16-.11-.23-.11-.3,0-.43,.91-.82,1.37-.82,.29,0,.59,.12,.64,.43h2.71Zm0,3.56v-2.76h-2.51c-.27,0-.27,.14-.27,.29-.02,.48-.02,2-.02,2.48h2.8Z"/><path class="cls-3" d="M57.3,32.4c-3.42,2.09-5.49,2.32-6.79,2.32-.3,0-.61-.07-.61-.21,0-.12,.07-.16,.82-.43,3.62-1.32,5.77-3.35,6.36-4.05,.12-.29,.52-.59,1.12-.59,.66,0,1.43,.43,1.43,.89,0,.37-.25,.62-1.14,1.21h2.69c.34-.45,.73-.71,1.07-.71,.53,0,1.55,.78,1.55,1.37,0,.09-.02,.45-.59,.62-4.31,4.97-8.47,5.79-13.28,5.79-.29,0-1.05,0-1.05-.32,0-.21,.11-.23,.7-.3,2.25-.3,5.13-.89,7.43-2.51-.3-.11-1.37-.45-1.53-.52-.23-.09-.54-.21-.54-.53,0-.57,.87-1.1,1.35-1.1,.94,0,1.64,1.32,1.76,1.59,1.64-1.39,2.07-1.94,2.41-2.51h-3.17Zm-1.66-6.45c-1.96,1.12-4.05,1.5-4.63,1.48-.29,0-.55,0-.55-.18,0-.11,.07-.12,.66-.37,.89-.37,2.55-1.1,4.56-3.3,.12-.46,.62-.64,.91-.64,.48,0,1.46,.39,1.46,.91,0,.39-.68,1.02-1.03,1.25h2.51c.59-.59,.64-.66,.94-.66,.53,0,1.64,.48,1.64,1.27,0,.39-.41,.61-.61,.7-2.21,2.53-5.83,4.62-10.51,4.62-.64,0-1.16-.18-1.16-.36,0-.09,.09-.11,.96-.27,1.87-.34,3.64-.96,5.03-1.8-.07-.04-1.23-.41-1.41-.48-.32-.11-.54-.29-.54-.62,0-.52,.78-.94,1.18-.94,.34,0,.84,0,1.91,1.48,.69-.59,1.57-1.41,2.01-2.09l-3.33,.02Z"/><path class="cls-3" d="M69.86,25.4c.02-.29,.05-1.09,1.18-1.09,.53,0,1.25,.32,1.25,.93,0,1.18-3.65,5.29-6.45,5.29-.36,0-.45-.11-.45-.18s.32-.27,.45-.36c.48-.34,2.96-2.16,4.03-4.6Zm.66,5.04c-.2,0-1.07,.37-1.28,.37-.29,0-.59-.18-.59-.46,0-.37,.37-.93,.91-.93,.14,0,.87,.09,1.03,.09h5.45c.14-.27,.3-.61,.75-.61,.62,0,1.68,.8,1.68,1.37,0,.11-.07,.2-.18,.34-.07,.09-.07,.39-.09,.59-.21,4.03-.7,7.08-3.24,7.08-.8,0-1.94-.5-2.66-1.84,0-.05,.05-.07,.09-.07s.12,.02,.16,.04c.55,.14,1.02,.25,1.55,.25,.66,0,.94-.32,1.23-.98,.52-1.21,.77-3.37,.8-5.33-1.18,0-1.41,0-3.46,.04,.59,.16,.86,.52,.86,.96,0,.98-.71,3.33-2.41,5.13-1.94,2.07-4.17,2.17-4.3,2.17-.07,0-.27-.02-.27-.16,0-.12,1.16-.78,1.37-.94,2.35-1.82,3.39-5.01,3.39-5.92,0-.09-.07-.53-.07-.62,0-.07,0-.43,.45-.61l-1.18,.04Zm12.23-1.12c.25,.09,.37,.14,.37,.2,0,.14-.09,.2-.25,.3-.07,.05-1.92,1.16-2.44,1.16-1.03,0-3.28-2.55-4.53-4.38-.27-.39-1.3-2.37-1.64-2.57-.5-.3-.54-.32-.54-.43,0-.32,.82-.52,1.07-.52,.5,0,.62,.2,.77,.5,1.98,3.15,3.83,4.42,7.18,5.74Z"/><path class="cls-3" d="M88.31,37.73c.75,.18,1.43,.18,1.52,.18,.64,0,1.27-.21,1.27-1.6,0-.29-.04-.61-.05-.91-.61,0-4.87,.02-5.06,.04-.23,.02-1.21,.27-1.41,.27-.36,0-.64-.18-.64-.52,0-.45,.48-.84,.94-.84,.18,0,.93,.11,1.09,.11h4.92c-.04-.32-.18-.73-.36-1.02-.09-.07-.25-.18-.25-.36,0-.3,.73-.5,.94-.5,.46,0,.93,.36,1.1,.66,.57-.43,1.14-.91,1.5-1.21l-6.11,.04c-.14,0-.8,.21-.93,.21-.43,0-.64-.21-.64-.46,0-.39,.46-.73,.89-.73,.11,0,.55,.09,.64,.09h7.11c.3-.32,.7-.46,.93-.46,.48,0,1.41,.5,1.41,1.03,0,.32-.32,.52-.54,.61-1.07,.45-2.78,1.12-3.85,1.57,.12,.29,.14,.36,.2,.53h5.13c.29-.48,.82-.77,1.14-.77,.53,0,1.43,.53,1.43,1.12s-.68,.59-.98,.59h-6.54c.04,.36,.07,1.1,.07,1.41,0,1.71-1.27,2.39-2.48,2.39-1.34,0-2.64-1.19-2.64-1.37,0-.09,.11-.09,.16-.09h.09Zm8.84-12.67c.23-.48,.8-.87,1.18-.87,.57,0,1.44,.61,1.44,1.25,0,.59-.77,.59-1.41,.59-1.02,0-5.49-.05-6.4-.05-3.14,0-5.51,.07-5.74,.11-.21,.04-1.07,.27-1.25,.27-.21,0-.59-.09-.59-.46,0-.41,.34-.98,.98-.98,.11,0,.52,.11,.61,.12,.27,.04,.64,.04,.84,.04h4.19c0-.14-.07-.8-.07-.94,0-.09-.09-.16-.14-.2-.25-.2-.29-.27-.29-.36,0-.57,1.27-1,1.87-1,.52,0,.82,.3,.82,.82,0,.07-.16,1.5-.18,1.68h4.13Zm-8.09,4.97c-.04,.53-.94,.62-1.21,.62-.14,0-.8,0-.8-.52,0-.36,.11-1.98,.11-2.32,0-.14-.02-.16-.18-.34-.04-.04-.09-.11-.09-.2,0-.39,1.07-.84,1.5-.84,.34,0,.66,.18,.75,.53h5.76c.11-.16,.39-.57,.82-.57,.46,0,1.37,.39,1.37,.86,0,.09-.14,.41-.14,.48,0,.32,.05,1.84,.05,1.94,0,.66-.8,.87-1.39,.87s-.77-.11-.78-.53h-5.76Zm5.79-2.25h-5.61c-.07,0-.2,.05-.2,.2v1.25h5.81v-1.44Z"/><path class="cls-3" d="M29.74,51.9c.16-.05,1.66-.48,1.69-.48,.11,0,.14,.04,.14,.14,0,.29-1.46,1.28-1.84,1.5,.02,.43,.07,3.51,.07,3.76,0,1.03-.14,2.91-2.12,2.91-1.19,0-2.35-1.14-2.35-1.32,0-.09,.11-.09,.16-.09,.04,0,.23,.04,.27,.05,.27,.04,.5,.05,.93,.05,1.16,0,1.16-.68,1.18-2.14l.04-2.6c-.94,.43-1.68,.64-1.98,.64-.43,0-.94-.36-.94-.87,0-.09,0-.64,.61-.8,.36-.09,1.98-.43,2.3-.5l-.04-2.99h-1c-.18,0-.94,.27-1.1,.27-.25,0-.43-.16-.43-.39,0-.39,.3-.8,.82-.8,.09,0,.5,.11,.59,.11h1.1c0-.23-.04-1.25-.04-1.46,0-.53,0-.66-.14-.78-.16-.12-.29-.23-.29-.34,0-.61,.93-1.3,1.64-1.3,.8,0,.8,.5,.8,.77,0,.34-.09,1.84-.09,2.14v.98h.21c.25-.45,.57-.59,.75-.59,.48,0,.91,.57,.91,1,0,.39-.52,.41-.77,.41h-1.1l.02,2.74Zm8.54-5.31c.2-.41,.73-.71,1.07-.71,.43,0,1.25,.5,1.25,.98,0,.07-.07,.27-.12,.39-.09,.23-.09,.3-.09,.98,0,.36,0,3.92-.04,4.06-.12,.45-.93,.64-1.41,.64-.7,0-.7-.39-.7-.71v-.36h-4.65c-.02,.55-.11,3.64-.11,4.03,0,.87,.04,1.51,2.96,1.51,1.23,0,3.01-.14,4.85-1.32,.11-.05,.52-.32,.57-.32,.16,0,.2,.12,.2,.2,0,.25-.59,2.5-1.39,3.01-.53,.34-1.32,.36-1.96,.36-1.57,0-1.92,0-3.6-.32-3.03-.57-3.39-1.37-3.39-3.35,0-1.18,.09-6.47,.09-7.43,0-.48,0-.53-.16-.71-.09-.11-.14-.16-.14-.3,0-.61,.86-1.19,1.39-1.19,.21,0,.71,.11,.82,.55l4.56,.02Zm-3.23,.86h-1.21c-.14,0-.16,.14-.18,.48,0,.14-.04,1.94-.05,3.05h1.44v-3.53Zm3.26,0h-1.43v3.58h1.43v-3.58Z"/><path class="cls-3" d="M57.58,58.36c.21-.39,.8-.73,1.09-.73,.46,0,1.23,.61,1.23,1.16s-.36,.53-2.25,.53h-7.38c-.71,0-.73,0-1.1,.11-.16,.05-.37,.11-.55,.11-.27,0-.64-.12-.64-.46,0-.48,.52-.86,.94-.86,.11,0,.57,.14,.68,.14l3.19,.02v-1.41l-1.28,.02c-.16,0-.94,.25-1.12,.25-.14,0-.62-.09-.62-.41,0-.43,.37-.89,.87-.89,.11,0,.61,.16,.71,.16l1.41,.02c0-.23,0-.61-.02-.86-.04-.05-.2-.3-.2-.32,0-.16,.11-.27,.21-.32-.34,.04-1.18,.14-1.75,.14-.53,0-.71-.29-.73-.68-.64,1.51-1.78,2.74-3.12,3.21-.02,.91-.04,2.74-1.98,2.74-1.14,0-2.41-.84-2.41-1.19,0-.05,.05-.09,.11-.09,.04,0,.27,.04,.32,.04,.16,.04,.3,.04,.84,.04,.93,0,1.03-.93,1.07-1.28,.07-.64,.12-3.15,.12-3.71-.77,.48-1.5,.73-1.89,.73-.52,0-.96-.5-.96-1.02,0-.41,.25-.64,.48-.75,.3-.14,1.98-.39,2.35-.48l-.02-2.8h-.89c-.18,0-.96,.34-1.14,.34-.16,0-.5-.12-.5-.48,0-.2,.09-.77,.75-.77,.11,0,.59,.09,.7,.09h1.07c-.02-.77-.04-1.19-.05-1.44-.04-.52-.05-.62-.21-.77-.21-.18-.27-.21-.27-.34,0-.61,.94-1.35,1.66-1.35,.87,0,.87,.53,.87,.84,0,.25-.09,1.46-.09,1.73v1.34h.16c.12-.23,.29-.59,.68-.59,.52,0,.93,.53,.93,.98,0,.34-.27,.43-.73,.43h-1.05v2.51c.34-.14,1.39-.46,1.5-.46,.07,0,.09,.05,.09,.11,0,.29-.82,.86-1.55,1.37l.05,3.74c1.52-1.8,1.85-3.19,1.85-6.65v-2.48c0-.45-.07-.5-.18-.55-.25-.16-.29-.18-.29-.3,0-.5,.93-1.34,1.5-1.34,.37,0,.73,.25,.87,.64h3.01c.25,0,1.5-.02,1.78-.02,.27-.46,.68-.66,.96-.66,.46,0,1.37,.5,1.37,1.07,0,.11-.05,.18-.09,.23-.14,.21-.16,.25-.16,.39,0,.34,.05,1.91,.05,2.17,0,.7-1.21,.86-1.41,.86-.7,0-.7-.34-.71-.57-.68,0-4.03-.02-4.79-.02,0,.2-.04,1.16-.04,1.37h6.33c.16-.46,.64-.77,.98-.77,.41,0,1.25,.61,1.25,1.14,0,.5-.7,.5-.89,.5-.62,0-3.69-.02-4.38-.02-.27,.5-.57,1.1-.98,1.73,.8-.02,1.87-.05,2.3-.09-.18-.21-.62-.73-.94-1.09,0-.07,.11-.14,.2-.14,1,0,3.3,.8,3.3,2.07,0,.46-.5,.78-.94,.78s-.53-.14-1.07-.93c-.21,.07-.98,.23-1.3,.3,0,.23-.02,1.41-.02,1.68l1.21-.04c.25-.45,.62-.55,.82-.55,.43,0,1.19,.43,1.19,.96,0,.46-.62,.48-1,.48h-2.25l-.02,1.41,2.91-.02Zm-5.92-4.88c.21-.75,.34-1.41,.39-1.68h-1.27c-.04,.46-.11,1.03-.37,1.87,.16-.18,.36-.21,.46-.21l.78,.02Zm4.06-4.79v-1.62h-4.72c-.02,.53-.04,1.18-.04,1.62h4.76Z"/><path class="cls-3" d="M69.34,54.02c.04,.09-.07,.86-.27,1.62,.29-.29,.55-.29,.61-.29,.34,0,.43,.11,1.14,.93,.05,.05,.09,.09,.39,.41,.02,.02,.14,.16,.14,.29,0,.14-.07,.25-.45,.25s-1.62-.27-2.05-.93c-1,2.78-3.35,3.19-3.71,3.19-.09,0-.21,0-.21-.14,0-.04,.53-.46,.64-.55,1.69-1.55,1.91-4.28,1.91-4.53,0-.11-.02-.14-.11-.21-.27,.11-.55,.23-.7,.23-.37,0-.43-.18-.43-.36,0-.36,.32-.78,.75-.78,.07,0,.39,.09,.46,.09l3.21-.02c-.07-.36-.14-.8-.2-1.18-.07,.14-.23,.43-.75,.43s-.55-.2-.64-.84c-1.03,.39-2.23,.68-2.67,.68s-.75-.41-.75-.71c0-.57,.55-.55,1.21-.53,.23-.41,.39-.68,.57-1.09-.2-.09-1.09-.36-1.25-.45-.07,.14-.2,.21-.62,.21h-.75c0,.62,0,.87-.02,1.51,.23,.34,.48,.73,1.41,1.37,.27,.18,.3,.2,.3,.3,0,.37-.61,.89-1.02,.89s-.61-.71-.75-1.18c.02,1.02,.11,5.47,.11,6.38,0,1-1.19,1.34-1.44,1.34-.07,0-.73,0-.73-.68,0-.46,.29-5.54,.32-6.59-.66,1.39-2.12,2.73-2.74,2.73-.12,0-.2-.02-.2-.14,0-.05,.04-.12,.39-.7,.84-1.39,1.41-3.15,1.51-3.78,.09-.53,.2-.87,.91-.87,.05,0,.11,.02,.16,.04v-.62h-1.21c-.09,0-.5,.18-.57,.2-.05,.02-.2,.05-.34,.05-.27,0-.45-.14-.45-.43,0-.34,.3-.75,.78-.75,.09,0,.48,.09,.57,.09h1.21c0-1.37-.07-2.28-.07-2.32-.02-.11-.34-.46-.34-.55,0-.45,1.05-1.18,1.68-1.18,.36,0,.77,.11,.77,.62,0,.11-.09,.57-.11,.66-.07,.66-.11,1.89-.12,2.91h.05c.18-.41,.45-.71,.62-.71,.25,0,.45,.32,.53,.46,.09-.14,.18-.21,.3-.3,.25-.53,.66-1.69,.66-1.96,0-.04-.02-.2-.02-.21,0-.41,.69-.68,1.07-.68,.43,0,1,.32,1,.73s-1.09,1.98-1.46,2.48c.11,.11,.18,.14,.39,.36,.02-.05,.23-.5,.29-.78,.07-.39,.43-.55,.82-.55,.11,0,.55,.02,.78,.32-.11-.91-.12-1.02-.2-2.05-.02-.14-.07-.2-.34-.43-.05-.05-.14-.14-.14-.25,0-.52,1.05-1.3,1.75-1.3,.75,0,.75,.46,.75,.86,0,.21-.04,1.18-.04,1.37,0,3.85,.41,5.74,.66,6.83h.66c.02-.61,.12-1.57,.94-1.57,.48,0,.8,.32,.8,.52,0,.43-.57,.8-1.02,1.05l1.18-.02c.2-.36,.48-.61,.89-.61,.5,0,1.12,.53,1.12,1,0,.43-.53,.43-.75,.43h-3.65c.14,.75,.5,1.41,.62,1.66,.16-.45,.18-.48,.2-.73,.05-.52,.62-.66,.86-.66,.5,0,1.21,.32,1.21,.78s-.69,1.43-1.34,2c.48,.73,1.25,1.27,1.85,1.27,.45,0,.69-.21,.89-.39,.02-.02,.45-.41,.48-.41,.16,0,.16,.23,.16,.34,0,1.25-.5,2.58-1.73,2.58-.73,0-1.96-.62-3.01-2.41-.66,.45-1.94,1.32-3.81,1.32-.18,0-.7,0-.7-.18,0-.09,.32-.2,.5-.25,1.28-.41,2.3-1.05,3.17-2.05-.54-1.32-.77-1.89-.96-2.87h-1.57Zm.61-5.4c-.11,.32-.52,.87-1.75,2.48,.29,0,.41-.02,.82-.02-.02-.16-.16-.71-.2-.75,.02-.12,.12-.14,.18-.14,.2,0,.86,.21,1.3,.8-.07-.41-.25-1.6-.36-2.37Zm2.69,3.15c-.36,0-.62-.34-.62-.7,0-.62,.45-.61,.93-.59,.21-.3,.3-.5,.5-.87-.16-.05-1.3-.46-1.32-.48-.07-.04-.3-.2-.3-.45,0-.2,.11-.39,.41-.62,.37-.84,.73-1.75,.73-1.98,0-.04-.04-.16-.04-.2,0-.41,.82-.64,1.19-.64,.45,0,.91,.29,.91,.64,0,.41-.98,1.78-1.55,2.53,.04,.04,.39,.3,.46,.36,.27-.53,.37-.75,.39-.94,.04-.41,.43-.55,.8-.55s1,.16,1,.59c0,.25-.11,.39-1.07,1.68,.69,.09,1.75,.86,1.75,1.6,0,.3-.23,.84-.84,.84-.52,0-.59-.25-.66-.5-.02-.05-.07-.36-.09-.41-1.92,.62-2.14,.7-2.58,.7Zm2.16-1.89c-.18,.21-.41,.5-.52,.62,.27,0,.52,0,.75-.02-.11-.32-.14-.43-.23-.61Z"/><path class="cls-3" d="M82.77,54.18c0,.5-1.25,.62-1.35,.62-.07,0-.61,0-.61-.52,0-.57,.14-3.07,.14-3.58,0-.07-.25-.37-.25-.45,0-.34,1.12-.84,1.55-.84,.09,0,.52,0,.62,.37h7.65c.14-.25,.3-.32,.52-.37-.41-.23-.78-.48-1.25-.82-.07,.36-.43,.36-.77,.36h-4.06c-.18,0-.89,.25-1.05,.25-.32,0-.52-.16-.52-.45,0-.04,.02-.14,.04-.21-2.44,1.35-4.38,1.41-4.67,1.41-.11,0-.43,0-.43-.12,0-.09,.14-.14,.68-.37,2.96-1.27,5.69-4.1,6.27-5.06,.09-.27,.23-.66,1.03-.66,.5,0,1.1,.21,1.34,.52,.11,.12,.11,.23,.11,.41,0,.04-.02,.16-.18,.34,1.21,1.39,3.94,2.82,7.29,3.49,.12,.02,.75,.14,.77,.16,0,.04,0,.05-.02,.07-.05,.05-1.8,1.41-2.51,1.41-.2,0-.32,0-.71-.12,.18,.18,.32,.36,.32,.5,0,.09-.02,.11-.16,.34-.07,.11-.07,.16-.07,.34,0,.41,.14,2.28,.14,2.57,0,.71-.64,.96-1.34,.96-.82,0-.82-.3-.82-.53h-7.7Zm1.19,5.45c0,.3,0,.46-.36,.66-.32,.18-.68,.25-.93,.25-.68,0-.68-.29-.68-.55,0-.18,.14-3.55,.14-3.94,0-.12-.02-.14-.14-.32-.05-.07-.09-.14-.09-.21,0-.36,1.11-.78,1.5-.78,.29,0,.55,.16,.64,.45h5.42c.16-.27,.52-.45,.78-.45,.41,0,1.34,.36,1.34,.8,0,.05-.02,.14-.05,.27-.09,.18-.09,.39-.09,.55,0,.48,.09,2.66,.09,3.1,0,.93-1.35,.93-1.41,.93-.73,0-.73-.14-.73-.75h-5.44Zm1.82-8.06c0-.34,0-.68-.02-1h-2.76c-.21,0-.21,.09-.21,1.12v1.68h2.99v-1.8Zm-2.48-.14c0-.37,.34-.7,.8-.7,.43,0,.59,.23,.64,.3,.18,.23,.53,1.44,.53,1.96,0,.23-.18,.3-.25,.3-.29,0-1.73-1.25-1.73-1.87Zm6.15,4.46h-5.33c-.14,0-.18,.07-.18,.23v.78h5.51v-1.02Zm0,1.82h-5.51v1.09h5.51v-1.09Zm-1.51-9.62c.12-.18,.32-.37,.64-.48-.43-.39-1.07-1.03-1.62-2.05-1.25,1.41-2.37,2.26-2.67,2.44,.07,.02,.41,.09,.48,.09h3.17Zm2.57,5.29v-2.8h-2.87c-.02,.27-.02,.64-.02,.96v1.84h2.89Zm-2.14-.07c-.09,0-.25-.05-.25-.27,0-.12,.12-1.05,.37-1.73,.16-.48,.5-.55,.78-.55,.52,0,.8,.36,.8,.8,0,.61-1.35,1.75-1.71,1.75Z"/><path class="cls-3" d="M102.73,48.99c-.12-.66-.3-1.71-.3-2.01,0-1,.66-1.75,1.57-1.75,.73,0,1.5,.48,1.5,1.78,0,.61-.78,5.95-.86,7.09-.09,1.59-.11,1.82-.68,1.82-.34,0-.41-.18-.45-.32-.02-.05-.16-1.94-.2-2.32-.18-1.96-.5-3.81-.59-4.3Zm1.25,10.68c-.77,0-1.43-.61-1.43-1.39s.61-1.43,1.43-1.43,1.43,.62,1.43,1.43-.68,1.39-1.43,1.39Z"/></g></g></g></svg>