<?xml version="1.0" encoding="UTF-8"?><svg id="_圖層_2" xmlns="http://www.w3.org/2000/svg" viewBox="0 0 209.22 248.7"><defs><style>.cls-1{fill:#b62622;}.cls-2{fill:#b81c25;}.cls-3{fill:#221714;}.cls-4{fill:#95908a;}.cls-5{fill:#fff;stroke:#b81c25;stroke-miterlimit:10;stroke-width:3px;}</style></defs><g id="_圖層_1-2"><g><g><path class="cls-2" d="M24.16,234.44c0,.35-.3,1.09-.61,1.62-1.31,2.35-4.07,3.03-4.93,3.03-.96,0-1.9-.73-1.9-1.59,0-.63,.56-1.54,1.52-1.62,2.38-.23,3.54-.4,4.88-1.37,.05-.03,.66-.46,.73-.46,.13,0,.3,0,.3,.38Zm-1.95,9.81c0-.1,.08-.15,.1-.15s.25,.05,.3,.05c.61,.13,1.34,.18,1.64,.18,2.17,0,2.28-.91,2.28-5.16,0-9.33,0-9.36-.4-9.66-.13-.13-.33-.28-.33-.61,0-.88,1.97-1.87,2.81-1.87,.23,0,1.29,0,1.29,1.24,0,.25-.03,.38-.13,.96-.15,.96-.15,1.82-.15,2.3,0,1.69,.08,9.13,.08,10.64,0,1.72-.13,4.58-3.29,4.58-1.57,0-3.16-.94-4.15-2.35-.03-.05-.05-.1-.05-.15Zm8.7-9.71c0-.15,.15-.35,.71-.35,2.38,0,8.12,1.16,8.12,3.69,0,.78-.76,1.52-1.62,1.52s-1.34-.4-1.64-.68c-2.5-2.3-3.74-3.03-4.85-3.64-.2-.08-.71-.33-.71-.53Z"/><path class="cls-2" d="M54.01,238.41c-.3,1.39-1.09,5.21-5.21,7.36-1.95,1.04-4.32,1.57-5.61,1.57-.48,0-.83,0-.83-.25,0-.18,.2-.25,.86-.46,1.09-.35,3.82-1.26,6.07-4.3,2.25-3.08,2.45-6.37,2.45-10.9,0-2.15,0-2.38-.25-2.55-.46-.33-.53-.4-.53-.66,0-.96,2.07-2.1,2.91-2.1,.58,0,1.21,.43,1.21,1.21,0,.23-.18,1.21-.2,1.42-.05,.66-.15,3.36-.15,4.96,0,.33,.25,2.93,1.85,5.56,1.26,2.05,3.51,4.45,7.96,6.37,.38,.18,.61,.28,.61,.4,0,.25-3.67,1.77-4.32,1.77-.35,0-.73-.1-1.64-.78-4.12-3.19-4.63-8.52-4.83-10.59-.05,.15-.28,1.67-.33,1.97Zm-3.46-5.59c0,.76-2.55,3.79-5.03,3.79-1.14,0-1.82-.68-1.82-1.49,0-.61,.48-1.49,1.44-1.49,.2,0,1.04,.13,1.21,.13,1.59,0,2.83-.51,3.94-1.19,.13,0,.25,.13,.25,.25Zm10.85-2.3c.96,0,1.77,.94,1.77,1.74,0,1.47-4.27,3.14-6.98,3.14-.2,0-.51,0-.51-.25,0-.08,.88-.73,1.04-.83,1.59-1.19,2.58-2.05,3.13-2.83,.4-.56,.86-.96,1.54-.96Z"/><path class="cls-2" d="M76.94,230.04c.83,.4,.94,.46,.94,.73,0,.4-1.29,1.29-1.87,1.29-.46,0-1.34-.58-2.68-2.4-2.96,2.78-6.02,3.59-6.85,3.59-.08,0-.46,0-.46-.2,0-.18,1.16-.91,1.39-1.09,1.72-1.34,2.6-2.07,4.42-4.42,.48-.63,.66-.88,1.39-.88,.78,0,1.57,.56,1.57,1.31,0,.13-.03,.3-.13,.53,.63,.76,1.54,1.21,2.28,1.54Zm-3.56,13.93c.71-.1,1.04-.15,1.74-.28,.15-.02,1.14-.23,1.21-.23,.13,0,.28,.08,.28,.25,0,.3-1.34,1.16-3.01,1.8-2.48,.94-4.96,1.37-5.49,1.37-.83,0-1.52-.53-1.52-1.26,0-.46,.35-1.09,1.16-1.14,2.55-.2,2.76-.2,3.11-.2v-6.57c-.15,0-2.2,.03-2.23,.05-.15,.03-.83,.23-1.01,.23-.48,0-.73-.15-.73-.56,0-.51,.43-.99,1.06-.99,.1,0,.66,.13,.78,.13h2.12v-2h-1.14c-.13,0-.78,.2-.94,.2-.4,0-.66-.2-.66-.58,0-.43,.33-.86,.89-.86,.1,0,.68,.1,.81,.1h4.3c.2-.28,.56-.66,.94-.66,.58,0,1.37,.61,1.37,1.26,0,.51-.71,.53-1.14,.53h-1.92v2h.68c.28-.35,.61-.71,.94-.71,.61,0,1.29,.63,1.29,1.31,0,.53-.46,.53-1.06,.53h-1.85v6.27Zm-3.29-1.16c-.91,0-2.68-1.74-2.68-2.53,0-.53,.78-1.01,1.42-1.01,.1,0,.96,0,1.16,.81,.53,2.02,.58,2.25,.58,2.38,0,.3-.35,.35-.48,.35Zm3.87-.05c-.25,0-.33-.15-.33-.33,0-.23,.28-1.67,.46-2.22,.18-.56,.53-.99,1.11-.99,.66,0,1.29,.46,1.29,1.06,0,.76-1.72,2.48-2.53,2.48Zm13.6-6.83c.58-.51,.76-.66,1.06-.66,.66,0,1.57,.89,1.57,1.42,0,.1-.3,.48-.35,.53,0,.96,.05,5.66,.05,6.73,0,1.52-.03,4.07-3.16,4.07-1.26,0-2.73-1.42-2.93-1.64,0-.03-.05-.08-.05-.1,0-.08,.08-.1,.13-.1,.18,0,1.11,.05,1.31,.05,1.49,0,1.9-.51,1.9-2.53v-6.83h-7.48c-.35,0-.38,.38-.38,.66-.03,.58-.03,1.37-.03,8.24,0,1.85-1.47,1.85-1.72,1.85-.51,0-1.04-.2-1.04-.81s.25-3.72,.3-4.42c.08-1.24,.1-2.73,.1-4.2,0-.28,0-.58-.1-.76-.03-.03-.25-.46-.25-.53,0-.66,.94-1.47,1.64-1.47,.43,0,.61,.2,.71,.33,0-2.38-.03-5.08-.05-5.84,0-.38-.02-.51-.18-.66-.23-.2-.3-.28-.3-.46,0-.71,1.24-1.69,1.95-1.69,.28,0,.86,.18,.99,.63h3.84c.2-.28,.58-.81,1.16-.81s1.79,.78,1.79,1.49c0,.05-.28,.61-.28,.63-.05,.1-.13,2.96-.13,3.36l-.08,3.51Zm-3.56,2.63c.38-.58,.78-.58,.91-.58,.51,0,1.54,.58,1.54,1.16,0,.13-.05,.18-.1,.25-.13,.18-.15,.23-.15,.48,0,.48,.05,2.83,.05,3.39,0,.81-.94,1.04-1.64,1.04-.76,0-.76-.2-.76-1.09h-1.52v.53c0,.63-.94,1.06-1.44,1.06-.83,0-.83-.51-.83-.81,0-.56,.08-3.31,.08-3.92,0-.15,0-.25-.08-.35-.13-.15-.25-.28-.25-.4,0-.73,1.09-1.31,1.72-1.31,.48,0,.68,.38,.78,.56h1.69Zm.96-7.31v-2.12c0-.18-.05-.35-.23-.35h-3.14c-.33,0-.35,.4-.35,.61v6.55h.88c0-.15-.05-2.88-.05-3.44,0-.18,0-.23-.08-.3-.18-.13-.28-.23-.28-.35,0-.46,.96-1.29,1.54-1.29,.3,0,.86,.23,.96,.71h.73Zm-1.11,10.9c0-.83,0-1.29,.02-2.63h-1.34c-.08,0-.15,.05-.18,.1-.02,.05-.02,1.67-.02,2.53h1.52Zm1.14-6.22v-3.67h-.76v3.67h.76Z"/><path class="cls-2" d="M112.2,229.99c.35-.76,1.01-1.26,1.59-1.26,.81,0,2.15,1.09,2.15,1.9,0,.76-.96,.78-1.21,.78h-16.99l-2.81,.05c-.3,0-1.67,.51-2,.51-.48,0-.76-.35-.76-.76,0-.63,.73-1.37,1.42-1.37,.2,0,1.14,.15,1.37,.15h7.28c-.03-.28-.08-1.59-.1-1.9-.05-.43-.08-.48-.2-.56-.4-.23-.46-.28-.46-.51,0-.86,1.77-1.67,2.71-1.67,.43,0,1.31,.2,1.31,1.16,0,.08-.05,.46-.08,.56-.13,.88-.15,1.39-.28,2.91h7.05Zm-3.21,5.11c.38-.58,.96-.96,1.42-.96,.63,0,1.92,.51,1.92,1.34,0,.2-.08,.35-.13,.4-.2,.33-.2,.38-.2,.71,0,.86,.15,5.06,.15,6.02,0,.78,0,3.29-3.01,3.29-1.64,0-3.36-1.72-3.36-2,0-.1,.1-.1,.28-.1,.15,0,1.29,.13,1.52,.13,1.24,0,1.39-.66,1.47-1.44,.03-.35,0-5.44,0-6.19h-4.07v3.92c0,.99,.1,6.04,.1,6.17,0,2.33-1.59,2.33-1.77,2.33-.4,0-1.31-.38-1.31-1.39,0-.18,.08-1.01,.08-1.19,.15-2.28,.25-7.31,.3-9.84h-3.19c-.3,0-.38,.33-.38,.58v7.23c0,.88-.96,1.82-1.92,1.82-.43,0-1.16-.25-1.16-.91,0-.28,.15-2.28,.18-2.83,.05-.71,.23-3.11,.23-5.36,0-.15,0-.35-.1-.51-.08-.13-.28-.4-.28-.53,0-.61,1.64-1.44,2.28-1.44,.28,0,.81,.18,.91,.76h3.44c0-.35,0-1.52-.2-1.72-.3-.28-.33-.3-.33-.46,0-.58,1.47-1.31,2.35-1.31,1.04,0,1.04,.68,1.04,.99,0,.08-.03,.15-.03,.3-.05,.51-.13,1.09-.18,2.2h3.97Z"/><path class="cls-2" d="M124,232.9c.2-.38,.66-.71,1.09-.71,.68,0,1.39,.68,1.39,1.34,0,.25-.13,.46-.43,.53-.3,.05-2.02,.03-2.5,.03l-.1,5.81c.38-.1,2.55-.61,2.68-.61,.2,0,.23,.08,.23,.15,0,1.01-6.04,3.97-7.76,3.97-.63,0-1.74-.48-1.74-1.42s.81-1.09,1.49-1.21c.33-.08,2.05-.33,2.43-.43,.03-3.41,.05-4.65,.08-6.27l-1.04,.02c-.23,0-1.24,.4-1.49,.4-.1,0-.76,0-.76-.53,0-.4,.28-1.21,1.01-1.21,.13,0,.81,.1,.96,.1l1.31,.03c-.03-1.11-.05-3.03-.05-3.94-.58-.56-.66-.63-.66-.91,0-.81,1.59-1.8,2.58-1.8,.3,0,1.24,.1,1.24,1.06,0,.13-.1,.71-.13,.83-.05,.46-.05,.66-.25,4.75h.43Zm14.18,3.03c.2-.48,.91-1.14,1.44-1.14,.71,0,1.95,.91,1.95,1.72,0,.53-.63,.61-1.09,.61h-9.3c-.08,.3-.23,.63-.68,1.49h5.79c.33-.46,.99-.71,1.37-.71,.66,0,1.82,.71,1.82,1.37,0,.05-.1,.28-.2,.46-.05,.08-.08,.2-.08,.38-.28,4.5-.48,8.12-3.94,8.12-1.62,0-3.08-1.87-3.08-2.02,0-.08,.03-.08,.18-.08,.25,0,1.44,.13,1.72,.13,1.21,0,1.49-.68,1.74-1.54,.58-2.07,.66-4.17,.66-4.63,0-.43,0-.61-.46-.61,.23,.1,.28,.28,.28,.35,0,.05-.03,.83-1.24,2.78-2.33,3.79-6.73,5.46-8.93,5.46-.28,0-.73-.08-.73-.23,0-.03,.05-.15,.23-.25,.4-.18,1.06-.48,1.47-.68,3.59-1.95,5.28-4.2,6.04-5.87,.1-.25,.4-1.04,.4-1.21,0-.08-.03-.2-.1-.25h-.71c.13,.08,.2,.18,.2,.3,0,1.24-5.03,6.3-9.38,6.3-.13,0-.56,0-.56-.2,0-.1,.1-.15,.94-.58,4.6-2.33,5.94-5.03,6.19-5.61,0-.2-.05-.2-.4-.2-1.95,2.65-4.7,3.49-5.36,3.49-.13,0-.35-.08-.35-.23,0-.1,1.11-.94,1.31-1.11,2.1-1.9,2.93-4.17,2.93-4.6h-.4c-1.09,0-1.19,0-1.39,.03-.23,.05-1.24,.4-1.47,.4-.25,0-.71-.13-.71-.53,0-.43,.35-1.21,1.16-1.21,.13,0,.63,.13,.76,.13h11.98Zm-4.07-8.75c.25-.48,.91-.94,1.47-.94,.63,0,1.64,.61,1.64,1.24,0,.13-.23,.68-.23,.81,0,.83,.15,4.96,.15,5.33,0,.53,0,.78-.58,1.14-.28,.15-.81,.38-1.39,.38-.99,0-1.01-.4-1.01-.96h-4.17c-.08,.91-.94,1.34-1.59,1.34-1.04,0-1.04-.4-1.04-1.11,0-.76,.08-4.37,.08-5.18,0-.61,0-.68-.15-.86-.23-.25-.28-.3-.28-.46,0-.53,1.34-1.44,1.95-1.44,.15,0,.83,.08,1.01,.71h4.15Zm.05,3.03v-1.92h-3.97c-.1,0-.2,.08-.2,.2v1.72h4.17Zm0,2.86v-1.74h-4.17v1.74h4.17Z"/><path class="cls-2" d="M152.51,234.03c.3-.53,.86-.81,1.21-.81,.61,0,1.44,.71,1.44,1.37,0,.51-.53,.61-.96,.61h-8.55c-.18,0-1.42,.05-1.57,.08-.18,.03-.99,.28-1.16,.28-.43,0-.78-.13-.78-.58s.46-1.04,1.01-1.04c.1,0,.66,.1,.78,.1h3.56c-.99-.38-2.28-1.62-2.28-2.23,0-.51,.83-.96,1.47-.96,1.59,0,1.64,2.07,1.64,2.45,0,.48,0,.63-.38,.73h2.07c-.4-.15-.4-.35-.4-.66,0-.66,.13-2.55,1.59-2.55,.66,0,1.52,.4,1.52,.94,0,.66-1.21,1.9-2.28,2.28h2.05Zm-.88-4.7c.48-.71,1.06-.71,1.16-.71,.61,0,1.54,.66,1.54,1.31,0,.53-.63,.58-1.16,.58-.96,0-5.66-.02-6.73-.02-.71,0-.99,.02-1.29,.05-.18,.03-1.04,.25-1.24,.25-.33,0-.66-.15-.66-.56,0-.46,.46-1.01,.99-1.01,.1,0,.58,.1,.68,.1h2.63c-.08-1.31-.1-1.44-.28-1.57-.38-.25-.4-.25-.4-.46,0-.68,1.67-1.52,2.48-1.52,.4,0,1.14,.18,1.14,.89,0,.38-.23,2.22-.25,2.65h1.39Zm-1.04,7.23c.46-.58,.96-.58,1.04-.58,.63,0,1.67,.48,1.67,1.14,0,.1-.03,.15-.13,.48-.08,.18-.08,.2-.08,.61,0,1.01,.1,5.94,.1,7.05,0,.63,0,2.5-2.25,2.5-1.42,0-2.53-1.47-2.53-1.49,0-.1,.1-.1,.18-.1,.15,0,.99,.08,1.16,.08,.68,0,.71-.18,.71-.94v-2.4h-3.14v3.24c0,.76-.83,1.52-1.79,1.52-.68,0-1.06-.25-1.06-.88,0-.58,.25-3.46,.28-4.1,.05-.78,.15-3.77,.15-4.32,0-.15,0-.38-.08-.56-.03-.1-.28-.51-.28-.61,0-.58,1.34-1.24,1.92-1.24,.15,0,.83,.05,.91,.61h3.21Zm-.13,5.31v-1.62h-3.11c0,.23-.03,1.37-.03,1.62h3.14Zm0-2.63v-1.62h-2.88c-.15,0-.2,.13-.2,.23v1.39h3.08Zm7.1,4.8v.61c0,.25,.02,.51,.35,.63,.35,.15,1.52,.33,2.63,.33,2.63,0,4.02-.56,4.63-.78,.2-.08,1.16-.58,1.24-.58,.03,0,.28,0,.28,.25,0,.4-.4,1.69-.71,2.33-.48,.96-1.14,1.09-2.35,1.09-3.79,0-6.35-.73-6.73-.86-1.87-.66-1.87-1.54-1.87-2.73,0-1.04,.08-6.12,.08-7.28-.2-.2-.33-.46-.33-.58,0-.68,1.29-1.37,1.95-1.37,.3,0,1.01,.2,1.11,.63h2.93v-2.43h-2.71c0,.38,0,.53-.43,.83-.35,.2-1.01,.33-1.39,.33-1.01,0-1.01-.43-1.01-.86,0-.08,.13-4,.13-4.73,0-.35-.03-.43-.13-.63-.25-.43-.28-.48-.28-.63,0-.63,1.67-1.37,2.43-1.37,.68,0,.99,.28,.99,.83,0,.2-.18,1.14-.2,1.34l-.05,.73h3.79c.33-.66,.91-1.11,1.39-1.11,.63,0,1.85,.73,1.85,1.57,0,.46-.43,.71-1.14,.71h-5.92c0,.28-.03,1.62-.03,1.92h2.71c.33-.51,.86-.83,1.31-.83,.58,0,1.85,.61,1.85,1.26,0,.1-.25,.51-.3,.58,0,.53,.05,3.14,0,3.36-.1,.53-1.16,.88-2.02,.88-.73,0-.83-.23-.86-.73h-3.06c0,.23-.03,1.31-.03,1.57h3.72c.38-.46,.86-.61,1.14-.61,.53,0,1.37,.56,1.37,1.16,0,.28-.28,.48-.76,.48h-5.49c0,.18-.03,1.06-.03,1.26h4.02c.43-.56,.94-.56,1.04-.56,.58,0,1.42,.56,1.42,1.16,0,.38-.46,.48-.78,.48h-5.71v1.24h4.45c.35-.53,.81-.78,1.11-.78,.51,0,1.52,.68,1.52,1.29,0,.33-.35,.58-.83,.58h-6.27Z"/><path class="cls-2" d="M179.03,242.3c.13,0,.33,.1,.33,.3,0,.99-6.73,3.14-10.14,3.14-1.04,0-1.82-.53-1.82-1.16,0-.81,.63-1.21,1.09-1.26,.18-.03,1.85,0,2.2,0,3.36,0,7.41-.81,8.17-.99,.03,0,.15-.03,.18-.03Zm-3.46-13.96c.28-.51,.68-.81,1.09-.81,.68,0,1.57,.76,1.57,1.47,0,.63-.61,.61-2.53,.61-2.35-.03-2.45-.03-4.35-.03-.2,0-.76,.03-1.11,.08-.2,.03-1.19,.25-1.42,.25-.51,0-.68-.33-.68-.63,0-.48,.51-1.16,1.24-1.16,.1,0,.58,.13,.68,.15,.53,.08,1.19,.08,1.77,.08h3.74Zm-.38,3.89c.28-.43,.78-.66,1.11-.66,.56,0,1.69,.68,1.69,1.29,0,.13-.23,.63-.23,.76,0,.56,.08,3.41,.08,3.57,0,.83-1.24,1.04-1.9,1.04-.88,0-.96-.3-.96-.78h-3.21c-.05,.66-1.09,1.09-1.62,1.09-1.06,0-1.06-.43-1.06-1.19,0-.56,.1-3.16,.1-3.74-.03-.05-.2-.23-.23-.28-.1-.1-.13-.2-.13-.28,0-.58,1.31-1.37,1.97-1.37,.18,0,.83,.1,.96,.56h3.41Zm-2.28,7.74c.08,.68,.08,1.62,.08,2.35,0,.43-.4,.56-.63,.56-.94,0-2.33-2.45-2.33-3.16,0-.61,.94-1.01,1.52-1.01,1.21,0,1.34,1.04,1.37,1.26Zm2.12-3.69v-2.91h-3.19c-.1,0-.13,.13-.13,.25v2.65h3.31Zm-.38,6.55c-.08,0-.66,0-.66-.58,0-.33,.18-2.78,.3-3.08,.18-.33,.73-.56,1.14-.56,.56,0,1.57,.4,1.57,1.06,0,.71-1.37,3.16-2.35,3.16Zm3.79,5.39c-.68,0-1.57-.53-1.57-1.21,0-.4,.33-.99,1.09-1.09,2.71-.33,3.14-.38,4.58-1.44,.15-.13,.35-.28,.53-.28,.28,0,.28,.23,.28,.33,0,.83-1.59,3.69-4.9,3.69Zm2.33-19.11c-.23,0-1.34,.48-1.59,.48-.38,0-.68-.38-.68-.78,0-.46,.35-1.09,1.11-1.09,.18,0,.99,.13,1.19,.13h3.41c.99,0,2.63,0,4.35-.05,.43-.73,.99-1.04,1.42-1.04,.76,0,1.85,.88,1.85,1.59s-.86,.68-1.34,.68h-4.55c.08,.05,.23,.1,.23,.35,0,.48-.76,1.74-1.26,2.55h1.92c.28-.48,1.06-.73,1.39-.73,.66,0,1.72,.76,1.72,1.44,0,.08-.08,.2-.2,.38-.1,.15-.1,.4-.1,.78,0,1.19,.15,6.93,.15,8.24,0,.48,0,1.49-1.92,1.49-1.09,0-1.11-.51-1.11-.89h-4.35c-.08,.94-1.06,1.19-1.57,1.19-1.16,0-1.16-.61-1.16-1.47,0-1.04,.18-6.09,.18-7.23v-1.9s-.33-.56-.33-.68c0-.46,1.14-1.29,1.77-1.29,.05,0,.99,.03,1.16,.66h.4c.15-1.29,.2-1.97,.2-2.88l-2.28,.05Zm5.97,6.12l-.03-2.12h-4.1c-.13,0-.2,.1-.2,.25v1.87h4.32Zm0,3.14v-2h-4.32v2h4.32Zm0,3.13l-.03-1.97-4.3-.02v2h4.32Zm-1.92,2.23c0-.18,.25-.18,.33-.18,1.52,0,6.09,1.74,6.09,3.69,0,.71-.71,1.16-1.47,1.16-.96,0-1.31-.48-1.72-1.01-1.06-1.39-1.44-1.77-3.06-3.41-.05-.03-.18-.2-.18-.25Z"/></g><g><circle class="cls-5" cx="104.61" cy="104.61" r="103.11"/><g><g><g><g><path class="cls-3" d="M94.32,108.24h6.79v-4.74c0-2.15,2.03-3.11,4.53-3.11h0v7.85s8.43-.18,11.1-.6c.52-.08,.21,2.3,.21,2.3h-11.31v9.55s11.93-.33,15.27-1.07c.51-.11,.57,2.77,.57,2.77h-12.22v15.52c-.15,.91,.45,1.36,1.81,1.36h4.75c1.51,0,2.41-.51,2.72-1.54l1.13-5.21,2.26,6.92c-.15,2.39-1.66,3.58-4.53,3.58h-7.92c-3.62,.11-5.2-1.14-4.75-3.75v-16.89h-21.27v-1.71h17.65v-9.55h-7.24c-2.77,5.84-9.5,8.53-9.5,8.53,3.92-3.3,5.88-8.3,5.88-15.01h5.43c-.3,1.59-.76,3.19-1.36,4.78Z"/><path class="cls-3" d="M97.88,122.62c-.18,.55-.09,1.3-.15,1.85-.15,1.52-.35,3.05-.63,4.59-.4,2.25-.81,4.57-1.69,6.79-.66,1.66-1.63,3.35-2.91,4.69-1.13,1.18-3.15,2.55-4.45,1.69-.49-.33-.71-.97-.69-1.64,.07-2.44,2.15-4.28,3.86-5.98,3.46-3.45,5.23-7.62,6.65-11.98Z"/></g><g><path class="cls-3" d="M140.27,116.98h29.3v3.58c.91-1.25,2.24,.77,3.89-.85v-5.63h-3.66l.68-13.99h-4.07v1.02h-5.43v1.54h5.35l-.15,2.9h-5.2v1.54h5.2l-.23,3.07h-4.98v1.54h4.98l-.23,3.75h-21.05v-3.58h4.98v-1.54h-5.04l-.11-3.07h5.16v-1.54h-5.2v-2.39l7.32-1.6s.78-.21,1.05-.28c-1.96-1.02-3.39-1.71-4.3-2.05-1.36,1.02-2.72,2.05-4.07,3.07v-2.39h-4.3l.45,14.33h-4.07s.01,6.76,.11,6.73c3.1-1.14,3.63-4.17,3.63-4.17Z"/><path class="cls-3" d="M143.1,118.52v14.67h4.53v-1.19h15.16v1.19h4.53v-15.01h-4.53v1.36h-15.16v-1.02h-4.53Zm19.69,2.56v9.38h-15.16v-2.22h12.16s.07-2.17-.33-2.12c-3.56,.45-11.83,.58-11.83,.58v-2.05h12.77s.06-2.22-.34-2.16c-3.16,.46-12.44,.62-12.44,.62v-2.05h15.16Z"/><path class="cls-3" d="M171.84,132.49l-1.13,3.77c-.3,1.36-1.36,1.99-3.17,1.88h-4.97c-3.03,.03-1.81-5.12-1.81-5.12h-4.08s-1.47,8.19,4.07,8.19h8.83c2.86,.23,4.15-.74,3.85-2.9l-1.58-5.81Z"/><path class="cls-3" d="M149.99,133.09c-.42,3.8-8.52,7.89-12.01,9.41,.44-.19,1.07-.2,1.52-.3,1.25-.27,2.5-.58,3.74-.94,1.83-.53,3.71-1.08,5.47-1.97,1.31-.67,2.62-1.58,3.6-2.69,.67-.75,1.47-2.6,1.38-3.51h-3.7Z"/><path class="cls-3" d="M152.95,112.94s-2.78-2.29,0-5.74c2.78-3.45,3.33-7.12,3.33-7.12,0,0-.21,2.18,2.03,6.37,2.85,5.33-1.04,7.94-1.04,7.94,0,0,1.39-2.69,.96-4.31-.44-1.63-1.54-2.22-1.87-4.57,0,0-.13,1.98-1.48,3.25-1.96,1.86-.74,4.3,.04,5.75l-1.96-1.57Z"/></g><g><path class="cls-3" d="M45.73,133.79s-.51,5.63,4.3,5.63h8.37c2.56,0,3.92-.68,4.07-2.05l.9-4.36,2.26,5.9c.15,2.5-1.81,3.69-5.88,3.58h-12.45c-4.23,0-6.26-1.31-6.11-3.92v-9.04c-1.36,.8-3.32,1.99-5.88,3.58-1.66,1.02-5.88,2.22-5.88,2.22,5.28-3.52,9.2-6.25,11.77-8.19v-.37c0-2.15,2.03-3.9,4.53-3.9h0v1.36c2.56-2.05,4.83-3.98,6.79-5.8H30.8v-1.71h15.16v-7.16h-11.54v-1.71h11.54v-3.52c0-2.26,2.13-3.31,4.75-3.31h0v6.82h9.28l.45-2.39h5.66c-1.36,3.98-3.92,7.74-7.69,11.26,0,0,7.99-.39,9.91-.77,.7-.14,.5,2.48,.5,2.48h-12.22c-3.32,2.73-6.94,5.35-10.86,7.85v7.51Zm13.58-24.22h-8.6v7.16h3.17c2.26-2.27,4.07-4.66,5.43-7.16Z"/><path class="cls-3" d="M47.13,131.86c.45-.11,1.05-.01,1.49-.03,1.22-.04,2.45-.12,3.69-.26,1.81-.19,3.69-.39,5.5-.94,1.36-.41,2.75-1.05,3.87-1.93,1-.78,2.17-2.2,1.55-3.19-.24-.38-.74-.57-1.28-.58-1.95-.06-3.51,1.39-4.95,2.57-2.91,2.39-6.32,3.51-9.87,4.35Z"/></g></g><g><path class="cls-1" d="M92.23,77.97l8.15,8.15v5.31s2.13,0,2.13,0v-5.31s8.15-8.15,8.15-8.15l-9.21-9.22-9.22,9.21Zm10.27,5.14v-6.82s-2.13,0-2.13,0v6.82s-5.14-5.14-5.14-5.14l6.21-6.2,6.2,6.21-5.14,5.14Z"/><path class="cls-1" d="M92.35,34.03c-7.5,1.79-11.97,5.31-12.16,5.46l-.4,.32v25.74s10.77,10.81,10.77,10.81l1.51-1.5-10.16-10.18v-1.23s5.26,0,5.26,0v-1.06s-5.26,0-5.26,0v-3.3s8.85,0,8.85,0v-1.06s-8.85,0-8.85,0v-9.09s8.57,5.22,8.57,5.22l.55-.91-9.12-5.56v-.11s9.15-6.31,9.15-6.31l-.6-.88-8.55,5.9v-5.41c1.22-.86,5.12-3.37,10.93-4.76,6.42-1.53,16.48-1.91,28.16,4.85v1.01c-.95-.74-2.11-1.15-3.33-1.15-1.45,0-2.81,.56-3.83,1.59-1.02,1.02-1.59,2.38-1.59,3.83,0,1.45,.56,2.81,1.59,3.83,1.02,1.02,2.38,1.59,3.83,1.59,.47,0,.93-.06,1.37-.17,.71-.18,1.37-.51,1.95-.97v3.39c-.66,.82-1.6,1.39-2.66,1.57-1.15,.2-2.3-.07-3.25-.74-.95-.67-1.58-1.67-1.78-2.82-.05-.29-.32-.48-.61-.43-.29,.05-.48,.32-.43,.61,.24,1.43,1.03,2.67,2.21,3.51,1.18,.84,2.62,1.16,4.05,.92,.15-.03,.3-.06,.45-.1,.75-.2,1.44-.55,2.03-1.03v6.48c-.2-.38-.46-.74-.77-1.05-.81-.82-1.9-1.26-3.05-1.26-2.38,0-4.32,1.93-4.32,4.31,0,1.15,.45,2.24,1.26,3.05,.81,.82,1.9,1.26,3.05,1.26,.09,0,.18-.01,.27-.02l-6.83,6.69,1.49,1.52,11.02-10.8v-25.84s-.51-.31-.51-.31c-12.52-7.43-23.36-7.03-30.26-5.39Zm24.82,33.08c-.87,0-1.68-.34-2.3-.95-.61-.61-.95-1.43-.95-2.3,0-1.51,1.04-2.78,2.43-3.15,.26-.07,.54-.1,.82-.1,.87,0,1.68,.34,2.3,.95,.61,.61,.95,1.43,.95,2.3,0,1.79-1.46,3.25-3.25,3.25Zm3.83-18.08c-.08,.09-.16,.19-.25,.27-.82,.82-1.92,1.27-3.08,1.27-1.16,0-2.26-.45-3.08-1.28-.82-.82-1.27-1.92-1.27-3.08,0-1.16,.45-2.26,1.28-3.08,.56-.56,1.24-.94,1.98-1.13,.36-.09,.73-.14,1.1-.14,1.16,0,2.26,.45,3.08,1.28,.09,.09,.17,.18,.25,.27v5.61Z"/><path class="cls-1" d="M92.49,42.31v10.16c0,.14,.05,.28,.15,.38,.1,.1,.24,.16,.38,.16h6.7s.09,0,.13-.01c.09-.02,.17-.07,.24-.14,.1-.1,.16-.24,.16-.38v-10.16s-1.06,0-1.06,0v9.62s-5.64,0-5.64,0v-9.62s-1.06,0-1.06,0Z"/><path class="cls-1" d="M110.41,53.01v-10.16c0-.14-.05-.28-.15-.38-.1-.1-.24-.16-.38-.16h-6.7c-.29,0-.53,.24-.53,.53v10.16s1.06,0,1.06,0v-9.62s5.64,0,5.64,0v9.62s1.06,0,1.06,0Z"/><path class="cls-1" d="M96.37,65.96c.37,0,.73-.05,1.07-.14,1.84-.48,3.2-2.15,3.2-4.13,0-2.36-1.91-4.27-4.27-4.27-2.36,0-4.27,1.91-4.27,4.27,0,2.36,1.91,4.27,4.27,4.27Zm-.8-7.38c.26-.07,.53-.1,.81-.1,1.77,0,3.21,1.44,3.21,3.21,0,1.77-1.44,3.21-3.21,3.21-1.77,0-3.21-1.44-3.21-3.21,0-1.49,1.02-2.75,2.4-3.1Z"/><path class="cls-1" d="M106.53,65.97c.37,0,.73-.05,1.08-.14,.73-.19,1.39-.57,1.94-1.11,.81-.81,1.25-1.88,1.25-3.02,0-1.14-.44-2.21-1.25-3.02-.81-.81-1.88-1.25-3.02-1.25-1.14,0-2.21,.44-3.02,1.25-.81,.81-1.25,1.88-1.25,3.02,0,2.36,1.91,4.27,4.27,4.27Zm-2.27-6.54c.41-.41,.91-.69,1.45-.84,.26-.07,.54-.1,.81-.1,.86,0,1.66,.33,2.27,.94,.61,.61,.94,1.41,.94,2.27,0,.86-.33,1.66-.94,2.27-.61,.61-1.41,.94-2.27,.94-.86,0-1.66-.33-2.27-.94-.61-.61-.94-1.41-.94-2.27,0-.86,.33-1.66,.94-2.27Z"/></g></g><g><path class="cls-4" d="M70.95,160.88h-2.36v-10.3h2.36v.87h-1.27v8.57h1.27v.86Z"/><path class="cls-4" d="M72.5,157.23c.64,.52,1.4,.79,2.27,.79,1.11,0,1.67-.38,1.67-1.14,0-.22-.06-.42-.18-.6-.12-.18-.29-.33-.5-.46-.21-.13-.62-.34-1.23-.64-.76-.36-1.28-.73-1.58-1.1-.3-.37-.45-.81-.45-1.31,0-.72,.29-1.29,.86-1.71,.57-.42,1.3-.62,2.19-.62s1.48,.1,1.91,.31v1.33c-.52-.36-1.16-.54-1.93-.54-.5,0-.9,.1-1.2,.3s-.46,.47-.46,.82c0,.31,.11,.57,.33,.77,.22,.2,.69,.47,1.41,.81,.83,.39,1.41,.78,1.73,1.17,.32,.39,.48,.84,.48,1.35,0,.76-.27,1.34-.82,1.74-.55,.4-1.31,.6-2.28,.6-.36,0-.76-.04-1.19-.13-.44-.09-.77-.2-1.01-.35v-1.4Z"/><path class="cls-4" d="M81.22,151.64h0v6.26h0v1.07h-1.3v-1.06h0v-6.26h0v-1.07h1.3v1.06Z"/><path class="cls-4" d="M90.93,158.97h-1.45l-4.02-6.19c-.15-.23-.26-.42-.33-.59h-.03c.03,.22,.05,.63,.05,1.22v5.56h-1.26v-8.39h1.54l3.9,6.07c.18,.29,.31,.49,.37,.6h.03c-.04-.26-.06-.66-.06-1.2v-5.47h1.27v8.39Z"/><path class="cls-4" d="M99.41,158.64c-.62,.31-1.4,.47-2.35,.47-1.21,0-2.19-.38-2.92-1.15-.73-.77-1.1-1.77-1.1-3.03s.41-2.39,1.22-3.23c.81-.85,1.86-1.27,3.13-1.27,.81,0,1.48,.11,2.01,.34v1.32c-.59-.33-1.25-.5-1.97-.5-.91,0-1.65,.3-2.2,.9-.55,.6-.83,1.39-.83,2.36s.26,1.68,.78,2.25c.52,.57,1.21,.86,2.09,.86,.81,0,1.52-.19,2.14-.56v1.23Z"/><path class="cls-4" d="M106.23,158.97h-4.65v-8.39h4.46v1.12h-3.16v2.47h2.93v1.11h-2.93v2.58h3.35v1.12Z"/><path class="cls-4" d="M116.4,158.97h-5.22v-1.06l2.43-2.4c.54-.53,.94-.99,1.2-1.38s.39-.81,.39-1.26c0-.93-.49-1.39-1.47-1.39-.74,0-1.45,.31-2.12,.93v-1.22c.68-.5,1.47-.75,2.35-.75,.77,0,1.38,.2,1.84,.62,.46,.41,.69,.97,.69,1.68,0,.51-.15,1.02-.43,1.53-.29,.51-.79,1.11-1.51,1.8l-1.86,1.78v.03h3.73v1.1Z"/><path class="cls-4" d="M118.23,154.93c0-1.47,.25-2.59,.75-3.35,.51-.76,1.24-1.14,2.19-1.14,1.82,0,2.74,1.43,2.74,4.3,0,1.4-.25,2.48-.75,3.24-.5,.76-1.22,1.14-2.17,1.14s-1.6-.36-2.07-1.07-.7-1.75-.7-3.11Zm1.29-.05c0,2.14,.52,3.21,1.56,3.21s1.53-1.09,1.53-3.27-.5-3.36-1.5-3.36c-1.06,0-1.59,1.14-1.59,3.43Z"/><path class="cls-4" d="M125.4,154.93c0-1.47,.25-2.59,.75-3.35,.51-.76,1.24-1.14,2.19-1.14,1.82,0,2.74,1.43,2.74,4.3,0,1.4-.25,2.48-.75,3.24-.5,.76-1.22,1.14-2.17,1.14s-1.6-.36-2.07-1.07-.7-1.75-.7-3.11Zm1.29-.05c0,2.14,.52,3.21,1.56,3.21s1.53-1.09,1.53-3.27-.5-3.36-1.5-3.36c-1.06,0-1.59,1.14-1.59,3.43Z"/><path class="cls-4" d="M133.07,157.68c.47,.27,.97,.41,1.52,.41,.73,0,1.3-.28,1.69-.83,.39-.56,.59-1.34,.59-2.34-.01,0-.02,0-.03,0-.36,.66-.97,.99-1.81,.99-.71,0-1.29-.25-1.75-.74s-.68-1.11-.68-1.86c0-.84,.26-1.53,.77-2.06,.52-.53,1.19-.8,2.01-.8,.87,0,1.55,.34,2.02,1.01s.72,1.63,.72,2.86c0,1.5-.3,2.68-.9,3.53-.6,.85-1.47,1.28-2.59,1.28-.6,0-1.13-.1-1.57-.29v-1.14Zm.81-4.53c0,.52,.13,.93,.4,1.24,.26,.31,.63,.46,1.1,.46,.41,0,.75-.14,1.02-.42s.41-.63,.41-1.04c0-.54-.13-1-.41-1.38-.27-.38-.63-.57-1.09-.57-.42,0-.77,.16-1.04,.49-.27,.33-.4,.73-.4,1.2Z"/><path class="cls-4" d="M141.97,160.88h-2.36v-.86h1.27v-8.57h-1.27v-.87h2.36v10.3Z"/></g></g></g></g></g></svg>