<?xml version="1.0" encoding="UTF-8"?><svg id="_圖層_2" xmlns="http://www.w3.org/2000/svg" viewBox="0 0 289.55 83.89"><defs><style>.cls-1,.cls-2{fill:#122d55;}.cls-3{fill:#132c53;}.cls-2,.cls-4{fill-rule:evenodd;}.cls-4{fill:#c30d23;}</style></defs><g id="_圖層_1-2"><g><g><g><path class="cls-2" d="M233.84,7.42s.06-.06,.08-.1c.49-1.01,.33-.93,1.44-1.41,1.02-.43,2.02-.88,3.12-1.08,.13-.02,.25-.1,.37-.14,.59-.19,1.17-.42,1.77-.56,.95-.22,1.89-.47,2.82-.75,.25-.08,.52-.09,.79-.12,.57-.06,1.15-.03,1.71-.21,.24-.08,.53-.04,.79-.04,.84-.02,1.68,.04,2.51-.18,1.06-.02,2.12-.11,3.18,.08,.22,.04,.44,.06,.66,.06,1.55,.02,3.1,.04,4.65,.03,.8,0,1.6,.01,2.38-.19,1.01-.05,2.02-.16,3.04,.09,.51,.13,1.06,.12,1.58,.11,.58-.01,1.15,.05,1.7,.21,.3,.08,.6,.16,.91,.2,.53,.08,.9,.32,1.03,.88,.04,.15,.22,.26,.33,.4,.05,.07,.12,.15,.12,.23,.01,.44,.01,.88,0,1.32,0,.06-.11,.14-.18,.18-.11,.06-.28,.07-.36,.15-.25,.3-.6,.53-.75,.92-.03,.08-.08,.16-.12,.23-.1,.16-.23,.29-.41,.3-.39,.02-.65,.21-.92,.46-.27,.24-.6,.33-.99,.24-.43-.1-.88-.13-1.31-.18-.39-.04-.8,.03-1.17-.17-.7-.09-1.42-.17-2.11,0-.3,.08-.61,.04-.91,.12-.2,.05-.45,.04-.65-.03-.6-.21-1.22-.21-1.84-.19-.4,0-.8,.01-1.2,0-.26-.01-.53-.04-.78-.1-.21-.05-.41-.16-.62-.24-.21-.09-.43-.11-.65-.03-.21,.08-.42,.15-.64,.15-.22,0-.44,.02-.64,.13-.2,.11-.42,.13-.64,.12-.44,0-.89-.01-1.33,0-.22,0-.45,.03-.64,.12-.29,.14-.59,.18-.9,.16-.49-.03-.97-.02-1.41,.26-.61,.11-1.18,.37-1.82,.29-.16-.02-.34,.07-.51,.12-.21,.07-.41,.15-.62,.24-.29,.13-.59,.2-.9,.15-.35-.05-.67,.22-1.02,.08-.04-.01-.09,0-.13,.01-.51,.31-1.01,.2-1.52,0-.2-.08-.43-.06-.65-.08-.23-.01-.45,.05-.61,.22-.26,.28-.51,.23-.82,.1-.6-.27-1.2-.55-1.85-.7-.09-.02-.17-.09-.25-.08-.53,.03-.91-.31-1.34-.52-.1-.05-.17-.03-.21,.08-.02,.04-.03,.08-.02,.12,.02,.09,.03,.18,.08,.25,.1,.15,.21,.29,.32,.42,.25,.31,.51,.61,.82,.87,.09,.38,.43,.54,.68,.79,.09,.09,.2,.22,.15,.35-.12,.31-.04,.6,.06,.9,.1,.27,.08,.52-.18,.71-.19,.14-.3,.31-.3,.56,0,.71,0,1.42,0,2.13,0,.33-.07,.6-.39,.78-.12,.07-.14,.22-.11,.35,.15,.6,.39,1.17,.53,1.77,.13,.55,.46,1.05,.44,1.65,.2,.5,.24,1.03,.3,1.56,.02,.18,.06,.35,.11,.52,.17,.61,.19,1.22,.17,1.85,0,.31-.03,.62,0,.93,.03,.32,0,.63-.15,.9-.22,.43-.19,.86-.03,1.28,.08,.21,.16,.4,.1,.63-.1,.43-.17,.86-.02,1.31,.07,.2,.05,.44,.06,.66,.03,.49,0,.98,.07,1.46,.06,.43,.23,.85,.34,1.28,.03,.13,.06,.26,.07,.39,.02,.66,.02,1.33,.04,1.99,0,.22,.04,.44,.04,.66,0,.31,.25,.58,.11,.9-.12,.27,.07,.51,.07,.78,.02,.8,.08,1.6-.13,2.38-.08,.31-.06,.61,.03,.91,.05,.16,.01,.35,.04,.51,.01,.06,.13,.16,.19,.15,1.19-.19,2.39-.05,3.58-.15,.53-.04,1.06,0,1.59,.04,1.02,.07,2.03,.03,3.04-.15,.35-.06,.7-.08,1.06-.11,.57-.05,1.14-.07,1.72-.17,.61-.1,1.23-.11,1.85-.11,1.06,0,2.13,0,3.18,.07,.79,.06,1.58,.16,2.38,.21,.84,.05,1.68,.07,2.47,.44,.04,.02,.08,.03,.13,.03,.44,.03,.9-.02,1.32,.1,.44,.13,.86,.17,1.3,.19,.62,.03,1.23-.03,1.83,.22,.23,.1,.52,.04,.79,.05,.26,0,.55-.05,.79,.03,.94,.29,1.95,.09,2.88,.42,.53,.04,1.06,.08,1.59,.12,.44,.04,.88,.02,1.32,.15,.25,.07,.53,.06,.79,.07,.4,.02,.8-.02,1.17-.19,.96-.43,1.98-.37,2.99-.37,.41,0,.66,.22,.81,.57,.07,.16,.16,.32,.19,.49,.03,.17,.05,.37-.01,.52-.18,.41-.29,.83-.38,1.26-.02,.12-.12,.23-.18,.35-.07,.16-.19,.32-.2,.48-.03,.68-.21,1.3-.53,1.9-.06,.55-.36,.99-.63,1.44-.14,.23-.31,.43-.58,.51-.21,.06-.42,.14-.62,.23-.2,.09-.39,.2-.59,.31-.27,.45-.72,.46-1.16,.46-.31,0-.61-.03-.92,.01-.35,.05-.56,.2-.62,.56-.03,.18-.27,.24-.43,.16-.08-.04-.16-.08-.23-.13-.22-.15-.43-.25-.73-.23-.34,.02-.7-.08-1.04-.12-.09-.01-.18-.02-.26-.04-.09-.02-.18-.05-.25-.09-.52-.35-1.19-.33-1.72-.66-.23-.15-.48-.22-.75-.22-.35,0-.71,.02-1.06,.02-.27,0-.53-.04-.73-.25-.19-.2-.44-.28-.71-.31-.53-.06-1.05-.08-1.57-.23-.46-.14-.97-.09-1.43-.28-.59,0-1.11-.26-1.65-.44-.58-.19-1.2-.29-1.81-.38-.48-.08-.94-.25-1.43-.25-.49,0-.97-.08-1.46-.07-.36,0-.69-.16-1.05-.09-.3,.06-.61,.11-.9,.21-.39,.13-.79,.13-1.18,.12-.22,0-.43-.07-.65-.11-.39-.07-.79-.13-1.15,.11-.57,.09-1.12,.25-1.61,.56-.11,.07-.25,.02-.36-.08-.13-.12-.31-.2-.49-.18-.53,.04-1.04-.2-1.57-.07-.57-.11-1.13-.17-1.71-.05-.07,.02-.16-.04-.25-.06-.13-.03-.27-.12-.38-.09-.64,.16-1.21-.13-1.81-.27-.12-.03-.27-.08-.35-.17-.37-.48-.86-.34-1.33-.26-.13,.02-.25,.12-.37,.13-.17,.02-.37,.06-.52,0-.94-.39-1.9-.74-2.68-1.42-.28-.25-.58-.39-.96-.39-.22,0-.45,.02-.66-.01-.3-.05-.58-.19-.89-.25-.55-.11-.95-.46-1.14-1.01-.1-.29-.17-.61-.32-.87-.47-.78-.62-1.65-.76-2.52-.17-1.05-.29-2.1-.3-3.17,0-.7,0-1.42-.18-2.11,.04-.66-.13-1.32-.04-1.99,.03-.21-.03-.44-.04-.66-.02-.4-.03-.8-.05-1.2-.02-.31,0-.63-.08-.92-.1-.39-.12-.79-.15-1.18,0-.13,.02-.27-.02-.4-.29-.95-.16-1.93-.22-2.9-.05-.93-.02-1.86,0-2.79,0-.22,0-.46,.07-.66,.14-.39,.13-.78,.17-1.18,.03-.22,0-.46,.07-.66,.28-.68,.21-1.4,.19-2.1-.02-.97,0-1.95-.01-2.92,0-.35,.01-.71,0-1.06-.04-1.07,.05-2.11,.49-3.11,.12-.28,.21-.6,.21-.9,0-.95,.33-1.82,.62-2.7,.03-.08,.02-.18,.06-.26,.04-.07,.11-.19,.17-.19,.54,0,.83-.48,1.29-.65,.31-.12,.29-.16,.75-.03Z"/><path class="cls-2" d="M254.16,17c-.1-.05-.17-.11-.24-.1-.22,.02-.44,.06-.65,.11-.31,.07-.61,.08-.92,.02-.96-.2-1.93-.22-2.9-.24-.4,0-.8,.01-1.19-.1-.18-.05-.35-.03-.52,.02-.08,.03-.17,.06-.26,.06-.52,0-1.04,.16-1.57-.07-.48-.21-1-.31-1.44-.66-.34-.27-.77-.42-1.15-.64-.11-.06-.2-.17-.26-.28-.14-.22-.06-.57,.15-.72,.11-.08,.21-.16,.33-.22,.63-.33,1.28-.59,1.95-.81,.25-.08,.51-.14,.77-.17,.31-.04,.62-.07,.93-.07,1.42,0,2.84,0,4.25,0,.8,0,1.59,.03,2.39,.05,.31,.01,.62,.03,.92,.09,.7,.16,1.4,.16,2.1,0,.34-.08,.7-.1,1.05-.13,.44-.04,.87-.06,1.31-.17,.42-.11,.88-.04,1.32-.05,.31,0,.62-.02,.92,.1,.16,.06,.35,.09,.52,.09,.68-.03,1.31,.18,1.96,.3,.36,.07,.64,.27,.82,.61,.17,.32,.04,.67-.29,.72-.13,.02-.27,.05-.39,.03-.44-.05-.8,.12-1.03,.48-.2,.31-.48,.51-.73,.77-.2,.21-.44,.28-.72,.28-.4,0-.8-.02-1.19,0-.27,.01-.52-.16-.77-.13-.27,.04-.51,.1-.76-.05-.04-.02-.08-.03-.13-.03-.29,0-.69,.11-1.24,.36,.32,.18,.63,.35,.92,.53,.15,.09,.3,.21,.4,.35,.22,.32,.47,.64,.28,1.09-.1,.24-.09,.52-.19,.76-.13,.34,.1,.67-.08,1.02-.16,.31-.14,.69-.12,1.05,0,.18,.12,.36,.28,.4,.34,.08,.7,.22,1.04,.2,.77-.05,1.47,.23,2.2,.39,.08,.02,.16,.08,.24,.1,.61,.18,1.55,.62,2.12,.98,.15,.09,.31,.17,.46,.26,.07,.05,.12,.13,.16,.2,.21,.42,.22,.85,.03,1.28-.16,.34-.49,.6-.84,.51-.41-.1-.78-.03-1.17,.05-.56,.11-1.13,.19-1.68,.35-.89,.25-1.77,.55-2.66,.79-.18,.05-.3,.21-.33,.38-.07,.39-.1,.79-.16,1.18-.03,.22-.05,.45-.14,.64-.39,.81-.43,1.71-.69,2.54-.05,.16,.08,.36,.25,.4,.13,.03,.26,.07,.39,.08,.22,.02,.44,.02,.66,.01,.67,0,1.32,.09,1.96,.28,.38,.11,.75,.23,1.16,.27,.35,.03,.68,.16,1.03,.23,.32,.06,.58,.2,.79,.44,.3,.33,.6,.66,.93,.95,.38,.33,.62,.75,.89,1.15,.08,.11,.05,.38-.05,.5-.08,.1-.18,.2-.25,.31-.24,.32-.68,.41-.89,.77-.04,.07-.14,.11-.22,.13-.43,.1-.84,.27-1.3,.24-.53-.04-1.04,.05-1.54,.29-.51,.25-1.11,.27-1.66,.43-.08,.02-.19,.06-.26,.03-.62-.3-1.33-.04-1.95-.32-.07-.03-.18-.01-.26,.02-.18,.07-.34,.06-.51-.02-.21-.1-.42-.14-.63,0-.24,.15-.5,.19-.76,.18-.79-.04-1.59,.05-2.37-.16-.15-.04-.34,.03-.51-.04-.66-.26-1.37-.35-2.05-.52-.6-.15-1.23-.13-1.83,.08-.26,.09-.52,.1-.78,.03-.3-.08-.59-.18-.89-.25-.82-.21-1.57-.53-2.26-1.05-.56-.43-1.18-.77-1.75-1.19-.54-.4-.98-.88-1.37-1.41-.02-.03-.01-.09,0-.12,.02-.03,.07-.07,.11-.07,.53-.11,.95-.47,1.43-.68,.14-.06,.2-.28,.33-.4,.12-.12,.27-.23,.47-.17,.04,.01,.09,.02,.13,.03,.52,.14,1.04,.16,1.58,.11,.4-.04,.8-.01,1.2-.03,.26-.01,.54,0,.79-.08,.47-.16,.95-.17,1.44-.17,.75,0,1.5,0,2.26-.01,.3,0,.51-.07,.57-.4,.09-.43,.28-.84,.27-1.29,0-.13,.05-.26,.09-.38,.19-.5,.33-1,.22-1.54,.09-.3,.18-.6,.07-.9-.03-.07-.11-.18-.17-.18-.7-.01-1.39-.19-2.09-.11-.16,.02-.33,.13-.47,.23-.52,.37-1.1,.39-1.65,.17-.7-.28-1.45-.37-2.15-.64-.37-.14-.76-.23-1.13-.36-.47-.17-.87-.43-1.1-.9-.08-.16-.21-.28-.38-.36-.24-.11-.08-.28-.06-.43,.02-.15-.04-.25-.19-.3-.17-.05-.34-.07-.47-.21-.11-.11-.13-.38-.02-.48,.24-.19,.47-.46,.79-.44,.46,.02,.85-.22,1.29-.27,.17-.02,.35-.09,.49-.17,.77-.46,1.58-.77,2.46-.95,.22-.04,.42-.13,.63-.19,.68-.21,1.37-.34,2.09-.29,.3,.02,1.89-.26,2.21-.35,.04-.01,.07-.04,.11-.06,.14-.07,.25-.31,.21-.45-.06-.17-.12-.33-.19-.49-.18-.4-.39-.8-.54-1.21-.09-.25-.07-.52,.07-.77,.09-.16,.19-.3,.37-.36,.17-.05,.35-.06,.51-.13,.36-.16,.7-.35,1.07-.53Z"/></g><path class="cls-2" d="M181.55,50.12c-.03,.07-.04,.16-.08,.2-.05,.05-.13,.07-.2,.08-.01,0-.05-.06-.07-.1-.03-.1,0-.19,.1-.21,.07-.01,.16,.02,.24,.03Z"/><g><path class="cls-2" d="M187.21,50.67c-.2-.1-.35-.2-.51-.25-.16-.05-.34-.07-.52-.07-.13,0-.26,.09-.38,.09-.32,0-.57,.24-.88,.23-.3,0-.61-.04-.95-.06-.13,.16-.26,.33-.41,.5-.16,.18-.38,.15-.57-.05-.15-.17-.26-.35-.27-.59,0-.19-.09-.34-.24-.44-.18-.12-.34-.29-.58-.31-.13,0-.27-.02-.4,0-.33,.04-.6-.12-.88-.25-.07-.03-.18-.11-.18-.17,0-.56-.52-.67-.83-.94-.27-.23-.58-.41-.82-.67-.3-.33-.57-.66-1.04-.75-.17-.03-.3-.19-.38-.35-.54-.95-.79-1.7-.89-2.75-.02-.21,0-.45,.06-.65,.18-.53,.23-1.03-.08-1.53-.04-.07-.06-.16-.07-.25-.04-.35-.07-.7-.11-1.05-.24-.3-.09-.7-.24-1.02-.06-.13-.04-.27,.05-.37,.21-.25,.31-.53,.22-.86-.06-.25-.02-.52-.13-.77-.07-.15-.06-.35-.03-.52,.08-.48,.25-.94,.1-1.43,.25-.5,.11-1.05,.22-1.56,.12-.58,.07-1.13,.01-1.71-.08-.79-.27-1.57-.16-2.37-.18-.65-.12-1.32-.12-1.98,0-.89-.1-1.77-.44-2.6-.21-.5-.15-1.05-.38-1.54-.05-.11-.05-.26-.04-.39,.03-.49,0-.96-.17-1.43-.09-.24-.06-.53-.06-.79,0-1.15,.02-2.3,.02-3.45,0-.18-.02-.36,.03-.53,.24-.91,.19-1.85,.24-2.77,0-.13-.02-.28,.02-.4,.19-.5,.14-1.05,.3-1.56,.21-.65,.08-1.32,.13-1.98,0-.12-.06-.26-.11-.38-.13-.33-.26-.65-.38-.99-.12-.34,.06-.75,.4-.88,.12-.05,.26-.06,.39-.09,.23-.05,.39-.2,.54-.37,.06-.06,.13-.17,.11-.23-.12-.37,.13-.68,.15-1.02,.01-.29,.19-.49,.39-.67,.29-.27,.58-.55,.9-.78,.26-.18,.48-.39,.68-.63,.12-.14,.26-.24,.44-.27,.55-.08,.96-.45,1.38-.75,.36-.26,.73-.5,1.08-.76,.69-.53,1.45-.79,2.31-.91,.56-.08,1.14-.17,1.69-.3,.66-.15,1.31-.21,1.97-.21,.81,0,1.58-.21,2.35-.38,.77-.17,1.52-.47,2.32-.48,.5-.25,1.04-.19,1.57-.19,2.13-.01,4.25-.01,6.38,0,.53,0,1.06,0,1.57,.18,.24,.08,.53,.05,.79,.05,.8,0,1.59,0,2.37,.23,.55,.15,1.14,.11,1.71,.25,.16,.04,.35-.02,.52-.05,.22-.05,.44-.05,.65,.03,.87,.33,1.74,.64,2.63,.92,.12,.04,.27,.08,.36,.16,.46,.44,1.1,.57,1.57,.98,.16,.14,.32,.32,.42,.51,.17,.32,.37,.6,.67,.8,.15,.1,.21,.28,.25,.46,.04,.17,.08,.36,.23,.46,.33,.24,.27,.52,.12,.82-.3,.6-.81,1.05-1.19,1.59-.07,.1-.21,.15-.32,.22-.11,.07-.27,.1-.33,.2-.74,1.06-1.96,1.29-3.04,1.74-.2,.08-.42,.14-.64,.17-.17,.03-.36,.04-.52,0-.39-.12-.79-.14-1.18-.03-.22,.06-.43,.05-.65,0-.12-.03-.27-.04-.39,0-.38,.16-.78,.16-1.18,.16-.31,0-.61,.05-.9,.18-.38,.17-.79,.16-1.16-.04-.3-.16-.59-.16-.88-.02-.08,.04-.16,.06-.25,.09-.19,.05-.38,0-.46-.16-.19-.4-.57-.37-.91-.45-.36,.15-.68,0-1.02-.08-.34-.09-.7-.07-1.06-.08-.84-.03-1.68,.08-2.52,0-.27-.02-.53-.03-.78-.13-.51-.21-1.05-.02-1.57-.11-.08-.01-.18,.02-.26,.06-.59,.27-1.22,.18-1.83,.19-.44,0-.88-.06-1.32-.02-.23,.02-.43-.03-.64-.13-.16-.08-.34-.07-.52,0-.24,.09-.43-.02-.6-.18-.18-.18-.4-.23-.61-.13-.35,.18-.69,0-1.03,.02-.32,.02-.59,.05-.87-.16-.17-.12-.44-.12-.61-.24-.33-.23-.67-.24-1.01-.13-.26,.09-.5,.16-.76,.02-.08-.04-.15,0-.23,.07-.09,.1-.18,.21-.29,.27-.15,.08-.33,.18-.5,.08-.43-.26-.94-.22-1.39-.43-.43-.21-.9-.36-1.35-.53-.25-.1-.47,.02-.46,.26,.01,.84,.03,1.68,.06,2.52,.01,.3,.22,.56,.1,.9-.08,.23-.08,.51-.12,.77-.09,.56-.14,1.14-.2,1.71,0,.08,.05,.17,.08,.25,.1,.26,.12,.52,0,.77-.1,.2-.19,.4-.19,.63,0,.5-.14,.96-.32,1.42-.15,.39-.18,.77-.03,1.16,.03,.08,.06,.17,.06,.26-.06,1.1,.45,2.06,.75,3.07,.13,.42,.32,.82,.53,1.21,.19,.35,.38,.7,.4,1.12,0,.12,.07,.25,.13,.37,.19,.35,.28,.74,.41,1.11,.12,.34,.23,.67,.24,1.02,.02,.4,.26,.75,.24,1.16-.02,.4,.02,.8,0,1.19-.03,.76,.21,1.48,.33,2.22,.03,.22,.12,.43,.15,.64,.05,.44,.06,.88,.09,1.32,.03,.44,.28,.82,.29,1.28,.01,.43,.16,.87,.32,1.28,.16,.38,.1,.79,.24,1.17,.15,.38,.15,.78,.18,1.18,.01,.13,.02,.27,.08,.38,.12,.25,.14,.49,.13,.77-.02,.53,.02,1.06,.02,1.59,0,.36,.02,.71,.21,1.03,.14,.87,.77,1.25,1.52,1.48,.41,.13,.85,.26,1.29,.06,.4,0,.8,.02,1.19,.01,.35,0,.72,.02,1.06-.08,.61-.18,1.22-.16,1.84-.17,.27,0,.53,.02,.8-.01,1.19-.13,2.39-.06,3.58,0,.8,.04,1.59,.05,2.39-.04,.88-.09,1.77-.02,2.66,0,.22,0,.43,.07,.65,.11,.13,.02,.27,.09,.39,.05,.44-.13,.87-.05,1.31-.03,.17,0,.34-.03,.52,.01,.6,.16,1.2,.25,1.83,.22,.35-.02,.7,.08,1.05,.1,.57,.04,1.14,.02,1.72-.11,.74-.16,1.49-.17,2.25-.1,1.11,.1,2.21,.08,3.3-.16,.34-.08,.7-.1,1.06-.11,.45-.01,.83-.29,1.29-.27,.39,.02,.8,.03,1.17-.16,.38,.12,.77-.09,1.16,.1,.23,.11,.52,.08,.77,.14,.07,.02,.15,.1,.19,.17,.23,.44,.28,.92,.4,1.39,.01,.04,0,.09,0,.13-.12,.47-.21,.95-.35,1.41-.19,.6-.52,1.13-1.08,1.46-.04,.02-.08,.05-.11,.08-.52,.71-1.31,1.03-2.07,1.4-.24,.11-.49,.22-.76,.23-.45,.02-.81,.33-1.24,.43-.1,.02-.18,.18-.26,.28-.07,.07-.15,.11-.24,.07-.45-.23-.92-.28-1.41-.21-.39,.05-.79,.02-1.17,.2-.18,.09-.43,.06-.65,.06-.62,.01-1.24,.02-1.86,.02-.28,0-.52,.06-.76,.19-.25,.14-.5,.13-.75-.03-.15-.1-.31-.17-.5-.11-.73,.26-1.49,.22-2.23,.22-.93,0-1.86-.05-2.79,.02-.57,.04-1.15-.04-1.72-.07-.31-.01-.61,.04-.91,.14-.44,.14-.76,.43-1.02,.8-.03,.05-.16,.05-.23,.04-.1-.02-.15-.11-.13-.21,.02-.09,.06-.17,.07-.25,.02-.1-.17-.22-.27-.18-.04,.02-.1,.02-.12,.05-.07,.11-.13,.22-.19,.33-.22,.42-.63,.65-1.08,.61-.45-.04-.86-.18-1.26-.39-.16-.08-.35-.12-.51-.04-.38,.18-.75,.22-1.15,.06-.12-.05-.23,.07-.31,.19-.08,.12-.21,.13-.34,.06-.15-.08-.31-.17-.46-.26-.09-.05-.16-.03-.25,0-.56,.24-1.13,.21-1.68,0-.26-.1-.54-.18-.77-.05-.38,.22-.76,.19-1.16,.18-.11,0-.18-.05-.16-.11,0-.03,.06-.06,.09-.08,.12-.06,.23-.11,.4-.18Zm7.65-.03s.07,.07,.1,.07c.17,0,.23-.07,.23-.23,0-.03-.07-.09-.07-.09-.07,.04-.14,.09-.2,.14-.03,.03-.04,.07-.06,.11Z"/><path class="cls-2" d="M199.27,39.11c-.22,.08-.27,.12-.23,.23,.03,.08,.07,.16,.11,.24,.05,.11,.18,.23,.05,.35-.09,.09-.21,.18-.33,.2-.26,.04-.52,.06-.75-.13-.51-.43-.93-.6-1.53-.62-.18,0-.35,0-.53-.01l.03,.03c-.08-.1-.16-.27-.25-.28-.52-.07-1.04-.18-1.56-.24-.31-.04-.62-.04-.91,.1-.18,.09-.35,.04-.5-.07-.26-.19-.53-.3-.86-.3-.35,0-.7-.06-1.03-.2-.33-.15-.69-.11-1.04,.02-.06,.02-.19-.03-.21-.08-.12-.3-.42-.32-.66-.39-.29-.08-.61-.09-.91-.09-.41,0-.77-.11-1.15-.26-.43-.16-.81-.35-1.07-.72-.15-.22-.33-.41-.53-.59-.1-.09-.18-.2-.23-.32-.22-.53-.33-1.09-.54-1.62-.08-.19-.03-.44,.17-.6,.19-.15,.25-.32,.18-.57-.08-.3,.2-.66,.47-.69,.66-.07,1.33-.04,1.99,0,.04,0,.1,0,.13,.02,.51,.31,1.11,.24,1.66,.37,.58,.15,1.14,.14,1.71,.07,.88-.11,1.76-.2,2.64-.18,.13,0,.26-.04,.39-.06,.12-.02,.2-.2,.12-.31-.3-.4-.42-.88-.64-1.31-.15-.29-.15-.6-.02-.9,.11-.24,.2-.49,.23-.76,.03-.34-.02-.58-.41-.71-.63-.21-1.27-.4-1.86-.7-.11-.06-.26-.07-.38-.06-.26,.01-.52,.09-.78,.08-.23-.01-.43,.02-.65,.06-.79,.12-1.59,.12-2.37-.11-.13-.04-.26-.07-.37-.13-.48-.23-.95-.47-1.42-.71-.07-.04-.17-.1-.19-.17-.08-.31-.22-.57-.51-.74-.12-.28-.26-.56-.35-.85-.13-.42-.23-.85-.32-1.28-.05-.23-.15-.41-.28-.59-.39-.5-.17-.9,.18-1.29,.05-.05,.16-.06,.24-.07,.04,0,.08,.02,.13,.03,.04,.01,.08,.03,.12,.05,1.37,.79,1.1,.68,2.76,.73,.13,0,.27,.01,.4,0,1.08-.13,2.11,.1,3.14,.36,.74,.19,1.49,.15,2.24,.07,.07,0,.15-.09,.2-.16,.07-.11,.15-.23,.17-.35,.21-.93,.67-1.72,1.28-2.44,.2-.23,.34-.51,.5-.78,.17-.29,.01-.63-.32-.71-.13-.03-.26-.04-.39-.06-.43-.08-.87-.15-1.29-.27-.25-.07-.49-.21-.71-.34-.2-.11-.4-.18-.63-.18-.53,0-1.06,.06-1.57-.17-.07-.03-.18,0-.26,.02-.22,.08-.42,.03-.64-.02-.3-.07-.61-.06-.92-.09-.23-.02-.43,.06-.62,.18-.11,.08-.21,.16-.33,.21-.16,.07-.33,.11-.5,.15-.18,.04-.37,.06-.52-.04-.4-.27-.97-.2-1.29-.63-.08-.11-.16-.22-.2-.34-.17-.57-.08-1.14,.05-1.7,.02-.07,.11-.15,.19-.17,.86-.21,1.67-.56,2.55-.71,.74-.12,1.45-.36,2.17-.56,.35-.1,.71-.08,1.04-.2,.29-.11,.61-.12,.9-.2,1.11-.28,2.27-.34,3.37-.69,.46-.15,.97-.09,1.41-.32,.7,.01,1.41-.12,2.1,.14,.55,.2,1.14,.14,1.71,.13,.09,0,.19-.02,.25-.06,.27-.18,.58-.2,.88-.25,.22-.04,.44-.1,.62-.22,.45-.3,.87-.32,1.36-.06,.59,.3,1.22,.52,1.82,.79,.44,.2,.88,.42,1.3,.65,.15,.08,.34,.18,.41,.32,.19,.38,.49,.63,.87,.77,.35,.13,.6,.37,.78,.68,.07,.11,.17,.2,.25,.31,.08,.11,.08,.24-.02,.36-.11,.14-.24,.26-.33,.41-.07,.12-.17,.22-.29,.25-.48,.09-.92,.33-1.42,.32-.13,0-.27,.02-.39,.06-.67,.22-1.31,.52-1.99,.72-.21,.06-.4,.18-.59,.29-.2,.12-.4,.18-.63,.16-.26-.02-.54,0-.79-.05-.22-.05-.42-.08-.65-.01-.44,.13-.87,.09-1.31-.06-.16-.06-.34-.1-.51-.11-.41-.04-.8,.03-1.13,.36,.13,.14,.27,.29,.41,.43,.15,.16,.3,.32,.46,.49,0,.89,.17,1.75,.46,2.59,.11,.31,.26,.4,.61,.35,.09-.01,.18,0,.26-.03,.13-.03,.25-.08,.38-.13,.88-.37,1.8-.4,2.74-.34,.27,.02,.52,.06,.77,.17,.44,.19,.92,.31,1.31,.63,.13,.11,.31,.17,.48,.22,.22,.06,.39,.16,.56,.33,.19,.18,.42,.32,.63,.47,.3,.22,.41,.74,.2,1.07-.16,.26-.36,.49-.54,.74,.05,.22-.07,.28-.27,.35-.42,.14-.82,.36-1.27,.31-.32-.04-.6,.06-.9,.16-.46,.15-.9,.39-1.4,.35-.31,.19-.64,.25-1,.31-.29,.05-.56,.26-.84,.37-.41,.16-.84,.27-1.26,.42-.35,.13-.63,.58-.61,.95,0,.22,0,.45,.07,.66,.09,.27-.04,.52-.02,.78,.02,.26,.11,.52,.11,.78,0,.26-.06,.52-.09,.79-.01,.11,.1,.24,.23,.29,.42,.14,.86,.21,1.3,.22,.58,0,1.15,0,1.73,.05,.57,.04,1.16-.02,1.71,.19,1.1,.05,2.22,.22,3.31-.03,.58-.13,1.14-.11,1.71-.12,.31,0,.59,.15,.84,.35,.22,.18,.21,.48-.04,.63-.44,.28-.51,.43-.39,.85,.04,.13,.12,.25,.13,.37,0,.12-.03,.29-.11,.36-.21,.18-.37,.37-.47,.63-.08,.21-.16,.42-.29,.6-.17,.24-.19,.48-.16,.75,.02,.27-.16,.43-.41,.35-.46-.13-.78,.05-1.03,.38-.1,.14-.18,.3-.24,.47-.05,.13-.12,.26-.25,.27-.61,.07-1.17,.41-1.81,.32-.22-.03-.42,.09-.63,.17-.46,.18-.81,.54-1.24,.76-.16,.08-.33,.16-.5,.07-.44-.23-.95-.21-1.4-.39-.16-.06-.33-.09-.48-.2-.49-.32-1-.3-1.5-.03-.08,.04-.15,.09-.24,.12-.28,.07-.53,.05-.67-.25,.07-.03,.16-.04,.19-.1,.03-.06-.04-.12-.11-.08-.08,.03-.09,.11-.06,.2Z"/><path class="cls-2" d="M196.06,39.35c-.17,.29-.18,.29-.47,.24-.04,0-.08-.03-.1-.06-.04-.05,0-.12,.1-.13,.16-.02,.33-.01,.49-.02l-.03-.03Z"/></g><g><path class="cls-2" d="M140.07,12.28c-.07-.07-.15-.13-.2-.21-.18-.3-.22-.3-.46,0l.02-.02c-.34,0-.65,.12-.98,.17-.14,.02-.26,0-.32-.16,.03-.02,.05-.03,.08-.05-.02,.02-.04,.05-.06,.07-.28,0-.57,0-.85,0-.18,0-.38,.01-.52-.07-.3-.17-.6-.16-.92-.13-.32,.02-.64,0-.95-.02-.1,0-.22-.01-.31-.06-.23-.11-.47-.14-.72-.13-.47,.02-.81-.2-1.07-.57-.18-.26-.42-.48-.45-.82,0-.06-.06-.14-.11-.17-.27-.14-.09-.56-.42-.66-.1-.17-.11-.35-.02-.5,.15-.23,.33-.46,.52-.65,.12-.12,.29-.21,.48-.13,.67,.28,1.38,.28,2.08,.3,.6,.02,1.2-.01,1.79,.14,.2,.05,.42,0,.63,0,.38-.21,.83-.14,1.23-.28,.33-.11,.69-.18,1.03-.16,.35,.01,.63-.07,.88-.27,.23-.19,.49-.27,.76-.35,.24-.07,.48-.11,.73-.03,.17,.05,.35,.1,.52,.1,.57-.01,1.12,.18,1.68,.23,.14,.01,.27,.06,.4,.11,.64,.23,1.3,.32,1.98,.31,.29,0,.56,0,.82-.15,.09-.05,.2-.03,.3,.04,.15,.1,.34,.14,.51,.1,.46-.1,.83,.14,1.19,.34,.43,.24,.85,.51,1.24,.81,.23,.17,.45,.34,.69,.48,.12,.07,.22,.17,.28,.31,.08,.2,.17,.39,.27,.58,.1,.18,.21,.36,.31,.53-.34,.34-.68,.64-1.12,.82-.23,.1-.46,.15-.7,.2-.73,.17-1.47,.2-2.21,.23-.21,0-.43,.02-.63,.08-.35,.11-.71,.11-1.04,0-.35-.12-.69-.12-1.05-.11-.74,0-1.49-.03-2.23,0-.3,0-.55-.22-.82-.13-.27,.09-.54,.14-.82,.17,0-.08-.04-.14-.11-.15-.13-.03-.26-.04-.39,.05,.18,.03,.35,.05,.52,.08,.1,.1,.21,.19,.31,.29,.13,.12,.24,.26,.29,.44,.05,.17,.11,.34,.17,.5,.07,.21,.05,.42-.05,.62-.05,.1-.1,.19-.15,.28-.11,.19-.16,.39-.17,.61-.03,.58-.19,1.11-.58,1.55-.07,.08-.15,.16-.18,.26-.08,.28-.24,.51-.39,.75-.07,.11-.03,.23,.08,.23,.53,0,1.06,0,1.59,0,1.08-.32,2.18-.12,3.27-.17,.36-.02,.68,.17,1.04,.18,.35,0,.71,.03,1.06,.06,.1,0,.2,.07,.3,.1,.41,.1,.81,.24,1.23,.33,.38,.08,.73,.28,1.11,.35,.38,.08,.76,.14,1.14,.26,.3,.09,.58,.26,.92,.24,.1,0,.2,.05,.3,.09,.35,.16,.69,.36,1.07,.45,.1,.02,.2,.09,.27,.16,.21,.19,.41,.39,.61,.59,.08,.08,.09,.19,.05,.29-.02,.07-.05,.13-.08,.2,.31,.34,.5,.77,.72,1.17,.07,.12,.1,.27,.11,.41,.02,.35,.04,.71,.02,1.06-.03,.96-.03,1.91,0,2.87,.01,.46,0,.92,0,1.38,.18,.35-.08,.69-.01,1.04,.07,.33-.12,.62-.11,.93,0,.03,.02,.08,0,.1-.31,.45-.23,1.04-.48,1.51-.03,.06-.04,.13-.05,.2-.04,.35-.03,.71-.1,1.04-.08,.34-.3,.63-.37,.99-.03,.17-.1,.34-.15,.51-.04,.14-.02,.31-.1,.41-.3,.37-.31,.86-.54,1.26-.09,.16-.21,.28-.35,.39-.25,.2-.43,.44-.53,.77-.11,.33-.3,.64-.5,.93-.29,.4-.57,.81-.84,1.23-.04,.06-.08,.14-.14,.15-.53,.14-.85,.63-1.38,.76-.1,.03-.21,.04-.31-.02-.06-.04-.12-.07-.18-.11-.11-.08-.22-.17-.33-.25-.1,.07-.19,.13-.28,.18-.11,.07-.15,.06-.25-.06-.05-.05-.07-.13-.13-.16-.22-.11-.45-.2-.66-.32-.08-.05-.15-.15-.18-.25-.05-.17-.09-.34-.1-.52-.02-.28,0-.57,0-.85,0-.1-.09-.23-.16-.25-.21-.05-.41-.11-.62-.13-.17-.01-.36,.06-.52,.04-.42-.06-.83-.15-1.24-.26-.22-.06-.41-.06-.62,.02-.23,.09-.47,.14-.71,.2-.17,.04-.35,.08-.52,.08-.5,0-.99,0-1.49-.04-.24-.02-.48-.02-.72-.02-.21,0-.42,0-.63,.03-.14,.02-.3,.04-.42,0-.52-.19-1.05-.12-1.58-.15-.18,0-.36-.03-.53,0-.37,.05-.68-.17-1.03-.2-.32-.03-.64-.03-.95-.08-.28-.04-.55-.14-.82-.22-.1-.03-.21-.07-.31-.03-.25,.1-.49,.04-.72-.05-.17-.06-.34-.11-.5-.17-.27-.11-.55-.11-.81-.09-.28,.2-.54,.39-.81,.56-.18,.12-.33,.26-.45,.44-.13,.18-.32,.27-.55,.26-.42,0-.85,.04-1.26-.13-.23-.09-.46-.16-.63-.37-.06-.07-.18-.11-.28-.13-.11-.02-.21-.06-.26-.16-.09-.15-.15-.32-.23-.48-.07-.12-.12-.26-.22-.36-.44-.46-.58-1.03-.6-1.65,0-.21-.03-.42-.04-.64-.24-.34-.1-.77-.29-1.12-.05-.09-.11-.21-.09-.3,.08-.42-.04-.76-.31-1.07-.06-.07-.06-.21-.04-.3,.06-.28,.16-.54,.41-.72,.32-.24,.38-.58,.34-.95-.02-.2-.17-.36-.34-.32-.31,.08-.62,.13-.93,.02-.6-.02-1.21-.08-1.8-.04-.56,.04-1.07-.06-1.53-.32-.45-.26-.92-.35-1.42-.33-.68,.03-1.33-.17-1.98-.31-.48-.1-.96-.23-1.44-.37-.41-.12-.82-.18-1.25-.22-.49-.04-.97-.17-1.46-.25-.28-.05-.56-.07-.84-.14-.24-.05-.45-.2-.71-.19-.28,0-.45-.19-.6-.39-.08-.11-.13-.25-.2-.37-.07-.12-.14-.25-.21-.38-.23,.05-.23,.31-.39,.43-.17,.12-.31,.29-.47,.43-.11,.09-.21,.21-.33,.26-.25,.09-.43,.24-.54,.47-.14,.29-.37,.52-.62,.72-.19,.16-.38,.32-.58,.46-.49,.35-.96,.73-1.38,1.16-.2,.21-.44,.36-.73,.42-.14,.03-.27,.1-.4,.13-.25,.06-.46,.19-.65,.35-.48,.43-1.07,.68-1.66,.92-.19,.08-.41,.09-.61,.16-.37,.12-.73,.27-1.09,.4-.43,.16-.86,.31-1.33,.33-.32,.02-.64,.02-.94,.17-.67,.1-1.33,.18-1.98-.09-.2-.08-.42-.08-.63,0-.27,.1-.55,.12-.83,.15-.35,.04-.68,.18-1.03,.24-.31,.05-.64,.04-.95,.09-.21,.04-.41,.1-.62,.13-.49,.07-.91-.1-1.32-.31-.09-.04-.16-.15-.2-.24-.09-.2-.17-.39-.31-.55-.1-.11-.14-.24-.17-.38-.05-.21-.13-.41-.16-.61-.04-.21-.09-.44-.04-.63,.15-.59,.18-1.19,.22-1.79,0-.07,.15-.2,.22-.21,.04,0,.07-.02,.1-.02,.28-.01,.56,.03,.84-.06,.12-.04,.27,.03,.41,.04,.74,.08,1.49,.09,2.22-.01,.39-.06,.77-.12,1.16-.12,.51,0,.99-.08,1.44-.3,.27-.13,.55-.15,.82-.05,.63,.23,1.26,.13,1.89,.02,.49-.09,.95-.25,1.42-.42,.24-.09,.46-.18,.66-.33,.57-.42,1.17-.8,1.85-1.02,.03-.01,.07-.02,.1-.04,1.09-.71,2.32-1.24,3.23-2.21,.26-.28,.64-.48,.8-.84,.15-.33,.42-.57,.57-.9,.04-.1,.12-.18,.14-.28,.06-.38,.25-.74,.24-1.14,0-.21,.05-.42,.14-.62,.16-.36,.27-.73,.27-1.13,0-.14,.05-.28,.11-.41,.34-.75,.47-1.55,.7-2.33,.22-.74,.32-1.52,.6-2.25,0-.36,.19-.68,.23-1.03,.05-.36,.19-.68,.26-1.03,.02-.08-.07-.24-.14-.26-.07-.02-.14-.07-.2-.06-.48,.05-.9-.15-1.32-.33-.23-.1-.46-.19-.68-.3-.33-.17-.6-.14-.85,.14-.11,.12-.13,.1-.5-.01-.02,0-.07,0-.08,0-.17,.34-.47,.26-.74,.23-.17-.02-.34-.12-.51-.14-.22-.03-.43,0-.56,.21-.06,.09-.1,.19-.16,.27-.04,.05-.1,.11-.16,.13-.17,.04-.36-.02-.51,.11-.11,.1-.25,.12-.39,.13-.03-.06-.06-.11-.1-.16-.02-.02-.06-.03-.09-.02-.03,0-.06,.02-.08,.04-.02,.05,.01,.09,.1,.1,.06,.01,.13,0,.2,.01-.04,.18-.02,.35,.11,.49,.2,.2,.39,.41,.52,.67,.1,.19,.17,.39,.04,.6-.1,.17-.07,.33,.07,.48,.04,.05,.09,.13,.08,.19-.05,.38-.12,.76-.05,1.14-.2,.17-.09,.39-.12,.6-.06,.42-.06,.86-.28,1.23-.14,.24-.02,.48-.1,.71-.02,.05,0,.16,.04,.19,.23,.19,.26,.5,.44,.72,.23,.27,.48,.52,.72,.77,.49,.51,.98,1.02,1.47,1.53,.2,.21,.33,.46,.42,.73,.05,.14,.02,.29-.07,.4-.12,.17-.31,.28-.38,.5-.05,.15-.32,.22-.46,.13-.31-.2-.66-.24-1-.33-.11-.03-.21,0-.31,.03-.31,.09-.56-.04-.78-.22-.46-.39-.9-.8-1.36-1.19-.08-.07-.17-.12-.26-.17-.03-.02-.08-.01-.1,0-.3,.19-.6,.39-.6,.8,0,.15-.04,.31-.17,.36-.25,.09-.45,.19-.45,.5,0,.15-.12,.25-.21,.36-.12,.14-.19,.29-.21,.48-.03,.21-.16,.29-.36,.3-.14,0-.28,.01-.41,.05-.81,.24-1.61,.5-2.36,.9-.4-.06-.71-.33-1.1-.4-.16-.03-.32-.15-.46-.25-.23-.16-.44-.37-.76-.32-.25-.14-.5-.26-.73-.42-.08-.05-.13-.17-.14-.27-.03-.21-.02-.42-.02-.64,0-.22-.07-.42-.26-.55-.26-.18-.22-.45-.16-.67,.1-.37,.25-.74,.65-.92,.06-.03,.13-.08,.16-.14,.2-.38,.57-.53,.94-.62,.32-.08,.6-.2,.86-.39,.08-.06,.18-.11,.28-.16,1.02-.54,1.67-1.41,2.13-2.43,.1-.22,.2-.45,.32-.67,.22-.41,.38-.83,.38-1.31,0-.5,.29-1.34,.59-1.79,.16-.24,.23-.52,.37-.76,.06-.1-.03-.33-.15-.35-.45-.08-.9-.19-1.34,.05-.08,.05-.21,.08-.3,.05-.24-.07-.49-.1-.71-.19-.29-.11-.58-.25-.89-.32-.06-.01-.1-.09-.14-.15-.05-.09-.07-.23-.14-.27-.26-.15-.31-.35-.26-.62,.08-.38,.12-.77,.21-1.15,.06-.27,.13-.55,.25-.8,.23-.48,.3-1.01,.49-1.51,.05-.13,.04-.28,.04-.42,0-.51,.27-.57,.7-.4,.23,.09,.46,.17,.7,.25,.65-.36,1.38-.33,2.07-.49,.16-.04,.36,0,.52,.04,.29,.08,.57,.09,.84,0,.28-.1,.46,0,.67,.16,.51,.38,1.1,.45,1.71,.31,.17-.04,.34-.09,.52-.1,1.03-.01,2.06-.06,3.08,0,.11,0,.22-.01,.32,.02,.84,.25,1.69,.11,2.54,.12,.15,0,.26-.11,.31-.25,.12-.33,.21-.67,.35-.99,.12-.29,.29-.57,.4-.86,.24-.63,.44-1.28,.47-1.96,.01-.22,.1-.41,.2-.6,.08-.16,.19-.3,.34-.4,.17-.12,.34-.25,.5-.38,.32-.26,.68-.37,1.09-.31,.17,.03,.35,.05,.52,.09,.19,.04,.31,.34,.21,.52-.04,.06-.05,.14-.1,.18-.38,.34-.55,.82-.86,1.2-.11,.13-.2,.31-.22,.47-.05,.36-.18,.68-.32,1-.16,.35-.29,.72-.41,1.09-.07,.23-.09,.48-.14,.73-.01,.07,.1,.23,.17,.24,.39,.02,.78,.03,1.17,.04,.39,.02,.78,0,1.16,.14,.13,.05,.28,.06,.42,.06,.57,0,1.13,0,1.7,0,.18,0,.36,0,.52-.1,.1-.05,.2-.08,.3-.04,.58,.26,1.21,.4,1.82,.56,.36,.09,.64,.29,.84,.6,.04,.06,.08,.13,.13,.15,.41,.14,.51,.46,.49,.84-.01,.36,.03,.7,.17,1.04-.12,.16-.35,.24-.34,.5,0,.03-.02,.07-.03,.1-.06,.41-.28,.73-.6,.97-.28,.21-.62,.34-.99,.3-.44-.05-.85,.05-1.24,.24-.41,.2-.83,.2-1.24,.09-.21-.05-.42-.05-.62-.08-.14-.02-.28-.05-.42-.05-1.35,0-2.69,0-4.04,0-.14,0-.28,.02-.42,.05-.06,.01-.14,.07-.16,.12-.06,.17-.09,.34-.14,.51-.05,.17-.15,.34-.14,.51,.04,.61-.26,1.18-.23,1.78,0,.17,0,.36-.06,.52-.1,.31-.14,.62-.15,.94,0,.14-.05,.28-.08,.41-.02,.1-.09,.2-.08,.3,0,.57-.16,1.12-.21,1.68-.03,.39-.12,.76-.24,1.14-.1,.34-.21,.67-.26,1.03-.05,.35-.18,.68-.28,1.02-.04,.13-.1,.27-.09,.41,.02,.39-.04,.78-.02,1.17,.05,.91-.18,.68,.71,1.22,.93,.57,1.92,.86,2.98,1.02,.42,.06,.83,.16,1.24,.25,.9,.2,1.79,.41,2.69,.6,.07,.01,.14,.03,.21,.05,.34,.11,.67,.25,1.01,.33,.31,.07,.63,.05,.95,.1,.21,.03,.41,.02,.62,.08,.34,.1,.69,.14,1.04,.19,.34,.05,.68-.17,1.04-.15,.1,0,.2-.05,.29-.1,.18-.1,.37-.21,.54-.34,.22-.18,.45-.17,.7-.09,.11,.04,.21-.04,.21-.15,.02-.35,.08-.7,.24-1.02,.06-.12,.02-.28,.06-.42,.02-.1,.06-.23,.14-.28,.23-.15,.3-.38,.37-.62,.03-.1,.02-.22,.08-.31,.24-.38,.23-.8,.25-1.23,0-.23-.08-.41-.19-.59-.11-.17-.07-.28,.15-.42,.13-.08,.25-.16,.24-.31-.02-.52,.21-.96,.42-1.41,.13-.29,.32-.55,.48-.83,.04-.07,.21-.13,.28-.09,.54,.32,1.13,.4,1.74,.37,.07,0,.21,.13,.23,.2,0,.03,.02,.07,.02,.1,.09,.47,.04,.92-.19,1.34-.02,.03-.02,.07-.03,.1,.02,.07,.04,.14,.07,.2,.06,.13,.12,.25,.06,.4-.12,.27-.13,.55-.11,.84,.02,.31,.15,.54,.46,.64,.07,.02,.14,.05,.2,.08,.13,.07,.2,.25,.15,.36-.1,.22-.22,.45-.31,.68-.04,.09-.06,.21-.04,.31,.04,.27,.19,.54,0,.82,0,.25,0,.5-.03,.74-.02,.14-.1,.26-.13,.4-.06,.31-.12,.62,.03,.93,.11,.24,.11,.48,0,.72-.07,.14,.01,.27,.02,.4,.02,.27-.05,.55,.06,.82-.05,.13-.08,.27-.14,.4-.21,.42-.27,.88-.28,1.34,0,.25,.01,.5,0,.74,0,.29-.04,.56-.24,.8-.11,.14-.16,.31-.16,.5,0,.35-.06,.7-.04,1.05,.01,.31-.13,.62-.04,.95,.03,.11-.05,.26-.08,.4,0,.02,.05,.08,.06,.08,.19-.09,.39-.17,.57-.28,.67-.42,1.43-.6,2.2-.73,.49-.08,.97-.19,1.45-.29,.07-.01,.13-.06,.19-.09,.07-.03,.15-.19,.11-.27-.22-.46-.21-.97-.32-1.45-.05-.24-.03-.5,0-.74,.15-.99,.14-1.98,.06-2.97-.02-.21-.04-.42,.01-.63,.03-.1,.04-.21,.03-.32-.05-.62,.15-1.18,.35-1.75,.09-.27,.19-.53,.26-.81,.03-.1,.05-.23,0-.31-.17-.33-.16-.68-.13-1.04,.01-.14,0-.28,0-.43,.23-.3,.53-.55,.68-.92,.11-.28,.33-.45,.61-.56,.04-.01,.05-.1,.06-.16,0,0-.06-.05-.09-.05-.5,0-.99,0-1.49,0-.42,0-.85,.04-1.26-.13-.06-.02-.14-.01-.21,0-.19,.05-.36,.01-.5-.1-.18-.14-.37-.2-.59-.23-.03,0-.09-.04-.09-.05,0-.06,.01-.14,.05-.17,.07-.07,.17-.13,.26-.18,.14-.09,.16-.21,.12-.36-.01-.03-.01-.07-.02-.1,.23-.31,.57-.53,.75-.87,.03-.05,.11-.09,.18-.11,.16-.05,.36-.05,.31-.31,0-.02,.03-.06,.05-.07,.34-.08,.66-.24,1.03-.26,.46-.03,.89-.23,1.36-.22,.36,.01,.48-.24,.58-.52,.01-.03,.03-.07,.04-.1,.07-.34-.03-.72,.29-.99,.16-.32,.32-.63,.48-.95,.39-.38,.57-.88,.82-1.35,.1-.19,.15-.39,.05-.61-.04-.09-.05-.21-.06-.31-.02-.26,.03-.49,.24-.67,.1-.09,.21-.19,.31-.29,.11-.12,.1-.26,.05-.4,.08,.03,.14,.01,.18-.06,0-.01-.04-.07-.06-.07-.08,0-.12,.06-.11,.15Zm10.65,12.71h-.02c0-.46,0-.92,0-1.38,0-.11-.07-.2-.16-.25-.19-.09-.37-.21-.59-.22-.21-.01-.43,0-.63-.07-.27-.09-.56-.08-.83-.15-.27-.07-.54-.13-.82-.16-.6-.08-1.18-.21-1.75-.39-.13-.04-.27-.06-.41-.07-.07,0-.14,0-.21,0-.19,0-.33,.14-.34,.33-.02,.53-.02,1.06-.04,1.59,0,.14,.02,.3-.03,.42-.2,.48-.14,.97-.13,1.47,0,.25,0,.5,0,.74,0,.36-.06,.7-.22,1.03-.04,.09-.12,.22-.09,.29,.13,.27-.06,.47-.11,.71-.06,.31-.07,.63-.17,.94-.03,.09,.02,.21,.04,.31,.01,.07,.06,.13,.07,.2,.05,.28,.07,.56-.17,.79-.13,.13-.18,.3-.18,.49,0,.14,0,.28,0,.42,.01,.39-.06,.77-.22,1.13-.11,.25-.17,.54-.24,.81-.04,.16,.1,.37,.26,.4,.03,0,.07,.02,.1,.02,.5,.03,.96,.18,1.39,.47,.17,.12,.38,.19,.57,.28,.45,.2,.92,.35,1.31,.67,.16,.13,.38,.19,.57,.27,.18,.08,.39,0,.41-.19,.05-.31,.04-.64,.35-.86,.05-.03,.08-.12,.09-.19,0-.22,.14-.39,.23-.59,.11-.26,.27-.5,.25-.8,.21-.46,.18-.97,.35-1.44,.29-.8,.37-1.65,.66-2.45,.03-.07,.04-.14,.04-.21-.03-.4,.23-.75,.21-1.14-.02-.41,.2-.75,.26-1.13,.05-.35,.14-.69,.14-1.05,0-.35,.03-.71,.05-1.06Zm-12.48,.61c.07-.34,.25-.59,.55-.75,.15-.09,.3-.18,.46-.27,.22-.13,.46-.19,.71-.17,.21,.02,.42,.03,.63,.08,.34,.08,.68,.18,.99,.37,.43,.07,.78,.31,1.08,.62,.09,.09,.16,.05,.22-.05,.14-.26,.09-.56,.19-.82,.1-.27,.26-.51,.33-.78,.07-.27,.13-.55,.23-.81,.06-.16,.04-.35,.05-.52,0-.19-.1-.34-.28-.4-.1-.04-.2-.1-.3-.09-.32,.02-.61-.12-.93-.12-.25,0-.51,.03-.74-.02-.29-.07-.55-.04-.83,0-.1,.02-.21-.03-.3-.07-.13-.06-.26-.13-.4-.09-.21,.06-.42,.03-.63,0-.35-.03-.71-.03-1.06-.03-.03,0-.07,.02-.1,.02-.09,0-.15,.14-.11,.24,.09,.19,.2,.38,.27,.58,.08,.21-.08,.41-.09,.62,0,.21-.02,.43-.02,.64,0,.35-.03,.69-.13,1.05-.14,.47-.17,.97-.26,1.46-.09,.52-.07,1.06-.17,1.58-.06,.31,0,.64,0,.95,0,.07,.03,.14,.05,.21,.03,.13,.2,.26,.31,.23,.27-.08,.54-.15,.83-.16,.14,0,.28-.04,.41-.1,.31-.15,.62-.12,.94-.06,.17,.03,.34,.12,.51,.12,.24,0,.49-.09,.73-.09,.28,0,.56,.09,.84,.13,.07,0,.15,0,.21-.04,.06-.03,.13-.09,.14-.14,.09-.45,.1-.91,.03-1.37-.01-.08-.08-.12-.15-.11-.32,.03-.63,.01-.94,.02-.18,0-.33,.02-.51-.03-.28-.08-.53-.2-.74-.4-.38-.33-.82-.54-1.3-.69-.37-.12-.59-.37-.68-.73Zm2.07,8.69c.14-.06,.27-.01,.4,.03,.6,.18,.76-.08,.99-.52,.06-.12,.09-.27,.09-.41,0-.21,.05-.41,.12-.61,.12-.33,.17-.68,.24-1.03,.03-.15-.18-.34-.35-.3-.1,.02-.2,.05-.3,.08-.13,.04-.27,.1-.4,.1-.77,.02-1.55,.02-2.32,.04-.18,0-.34-.04-.5-.13-.09-.05-.2-.07-.29-.1-.07-.02-.26,.06-.27,.12-.14,.73-.31,1.44-.6,2.13-.07,.18,.06,.35,.27,.33,.46-.04,.91,.08,1.37,.12,.45,.04,.92,.01,1.36,.17,.06,.02,.13-.02,.2-.03Z"/><path class="cls-2" d="M109.22,44.44s-.08,0-.11,0c-.2,.09-.38,.16-.61,.07-.26-.11-.53-.2-.8-.27-.38-.09-.78-.06-1.15-.19-.09-.03-.21,0-.31,.03-.31,.08-.6,.17-.89,.32-.53,.29-1.05,.57-1.51,.97-.09,.08-.15,.06-.28-.05-.08-.07-.15-.14-.22-.2-.18,.06-.35,.11-.51,.18-.09,.04-.15,.14-.23,.21-.05,.05-.1,.1-.16,.14q-.46,.27-.66,.57s-.06,.03-.09,.05c-.06,.02-.13-.01-.15-.1-.05-.24-.11-.48-.22-.71-.03-.06-.05-.14-.1-.19-.07-.07-.16-.19-.24-.18-.33,0-.61-.18-.91-.25-.06-.01-.11-.08-.15-.12,.03-.18,.07-.35,.1-.53,.02-.1,0-.22,.05-.31,.35-.77,.44-1.64,.86-2.39,.1-.18,.24-.34,.36-.52,.06-.09,.07-.21,.14-.28,.39-.37,.59-.88,.95-1.27,.27-.29,.55-.54,.93-.68,.2-.07,.39-.17,.58-.27,.24-.11,.25-.19,.11-.51-.03-.06-.08-.13-.07-.19,0-.05,.07-.14,.11-.14,.29-.04,.56,.02,.78,.23,.11,.11,.25,.13,.39,.06,1.04-.55,2-1.21,2.85-2.02,.13-.12,.22-.27,.29-.44,.1-.23,.21-.45,.35-.65,.32-.43,.5-.94,.88-1.32,.33-.58,.64-1.18,.71-1.86,0-.07,.18-.16,.26-.13,.1,.03,.19,.09,.3,.12,.13,.03,.3-.06,.35-.18,.07-.16,.13-.32,.2-.48,.04-.09,.18-.13,.27-.07,.15,.1,.3,.17,.49,.14,.25-.05,.49,0,.73,.1,.33,.13,.65,.27,1,.35,.28,.07,.49,.29,.61,.55,.07,.14,.16,.22,.29,.28,.09,.04,.1,.08,.07,.17-.03,.06-.05,.15-.02,.19,.06,.08,.14,.19,.22,.21,.72,.17,1.45,.31,2.17,.48,.69,.17,1.36,.37,2.05,.56,.28,.08,.53,.19,.78,.33,.43,.24,.86,.49,1.32,.68,.39,.16,.75,.39,1.07,.69,.21,.2,.39,.4,.4,.72,0,.14,.11,.27,.12,.4,.02,.17,.05,.38-.02,.52-.16,.33-.22,.67-.2,1.03,.02,.33-.06,.63-.28,.89-.05,.05-.09,.11-.11,.18-.2,.53-.41,1.06-.59,1.59-.04,.13-.03,.28-.04,.42,0,.06,.13,.23,.19,.24,.56,.07,1.09,.29,1.63,.45,.2,.06,.41,.12,.62,.14,.67,.05,1.31,.3,1.98,.33,.07,0,.15-.01,.21,.02,.54,.22,1.11,.18,1.67,.19,.14,0,.29,0,.42,.05,.48,.17,.97,.16,1.47,.17,.11,0,.23-.02,.31,.03,.27,.16,.55,.06,.82,.07,.25,0,.49,.06,.74,.08,.28,.02,.57,.02,.85,.02,.85,0,1.7,0,2.55,0,.32,0,.64-.02,.94,.12,.09,.04,.21,.03,.31,.04,.11,0,.22-.01,.32,.01,.97,.21,1.97,.22,2.95,.37,.28,.04,.56,.04,.85,.05,.57,.01,1.13,0,1.7,.02,.35,0,.7,.04,1.05,.15,.2,.06,.42,.06,.63,.08,.53,.03,1.05,.07,1.58,.18,.48,.1,.98,.11,1.47,.22,.24,.05,.49,0,.74,.01,.49,.02,.99,.04,1.49,.06,.43,.19,.91,.15,1.35,.26,.56,.15,1.13,.08,1.69,.13,.07,0,.15,0,.21-.03,.38-.18,.79-.34,1.07-.67,.37-.43,.85-.61,1.4-.63,.07,0,.14,0,.21,0,.15,0,.27,.09,.37,.19,.05,.05,.09,.11,.12,.18,.16,.32,.32,.63,.52,.92,.12,.18,.16,.4,.11,.61-.12,.56-.27,1.09-.61,1.56-.36,.48-.68,.99-1,1.5-.13,.21-.25,.43-.32,.67-.1,.38-.42,.66-.45,1.07-.11,.13-.22,.28-.35,.4-.16,.15-.27,.31-.34,.52-.1,.28-.32,.48-.62,.52-.24,.03-.44,.24-.71,.13-.04-.02-.14,.03-.18,.08-.13,.13-.24,.26-.45,.23-.26-.03-.48,.13-.71,.16-.23,.03-.48-.09-.72-.12-.51-.08-.98,.07-1.43,.27-.32,.15-.62,.33-.94,.49-.29,.14-.58,.21-.92,.13-.38-.09-.77-.09-1.16-.13-.26-.16-.55-.1-.83-.14-.28-.04-.56-.05-.85,0-.29,.05-.56,.03-.82-.13-.13-.08-.27-.08-.41-.02-.11,.05-.2,.03-.27-.06-.04-.06-.07-.12-.11-.18-.18-.2-.39-.3-.66-.22-.03,0-.07,.02-.1,.03-.15,.05-.27-.04-.4-.09-.17-.08-.08-.23-.07-.36,0-.11-.11-.22-.2-.2-.07,.02-.13,.04-.19,.07-.24,.09-.48,.09-.73,.01-.5-.17-1.01-.31-1.46-.61-.18-.12-.38-.17-.6-.16-.42,.02-.84-.1-1.27,0-.13,.03-.29,0-.42-.05-.18-.06-.34-.02-.51,.03-.14,.04-.3,.02-.39-.1-.17-.24-.35-.33-.62-.16-.05,.03-.14,.04-.21,.03q-.94-.16-1.55-.06c-.1,.02-.23,0-.3-.06-.17-.15-.34-.25-.57-.16-.26-.12-.55-.12-.83-.14-.16-.01-.25-.11-.34-.22-.06-.07-.11-.07-.19-.03-.06,.03-.14,.05-.2,.03-1.04-.33-2.13-.49-3.17-.81-.6-.18-1.25-.24-1.82-.56-.06-.03-.13-.04-.2-.05-.71-.06-1.38-.32-2.06-.51-.58-.16-1.15-.35-1.75-.42-.1-.01-.21-.03-.31-.07-.49-.22-1.01-.31-1.55-.3-.14,0-.28-.04-.42-.07-.27-.05-.48,.03-.63,.26-.04,.06-.06,.14-.12,.17-.18,.08-.3,.17-.19,.38-.06,.08-.1,.21-.18,.25-.25,.13-.35,.32-.36,.59,0,.1-.06,.2-.11,.29-.03,.06-.08,.14-.14,.16-.4,.11-.63,.44-.89,.72-.21,.23-.58,.3-.68,.65-.18,.11-.36,.23-.53,.34-.12,.08-.21,.16-.26,.31-.04,.15-.08,.14-.17-.02-.03-.06-.07-.11-.12-.18-.33,.19-.7,.31-.96,.61h.01c-.2,.19-.36,.42-.47,.68-.04,.1-.12,.18-.23,.18-.24,0-.41,.12-.5,.32-.11,.22-.27,.31-.51,.31-.11,0-.21,0-.32,0-.22,0-.41,.07-.56,.24-.09,.1-.21,.19-.33,.26-.18,.11-.41-.05-.6,.12-.13,.12-.3,.18-.48,.2-.24,.03-.49,.06-.73,.13-.39,.1-.69-.01-.96-.29-.02-.03-.03-.06-.06-.09-.16-.16-.2-.17-.36-.1-.16,.07-.32,.14-.48,.21-.1,.04-.24,.02-.28-.06-.16-.31-.43-.55-.62-.84-.16-.25-.34-.43-.61-.56-.11-.05-.17-.26-.12-.37,.09-.19,.17-.38,.12-.61-.06-.27,.04-.47,.29-.61,.1-.06,.14-.23,.09-.28-.05-.05-.1-.11-.16-.13-.31-.08-.62-.14-.92-.2-.35-.08-.45-.28-.28-.61,.06-.13,.13-.25,.21-.37,.11-.15,.26-.25,.43-.28,.17-.03,.35-.02,.53-.05,.21-.04,.42-.08,.61-.16,.33-.12,.65-.26,1.01-.31,.24-.03,.47-.17,.65-.33,.29-.27,.63-.44,.97-.63,.67-.38,1.29-.86,1.92-1.31,.23-.16,.47-.33,.6-.59,.1-.19,.36-.23,.4-.46,0-.02-.03-.08-.05-.08-.17,0-.34,0-.5,0-.04,0-.07,0-.11,0-.29-.09-.55-.32-.89-.26-.02,0-.06-.03-.09-.05-.06-.04-.11-.09-.17-.13-.09-.06-.17-.09-.28-.04-.12,.06-.27,.08-.41,.08-.11,0-.19-.07-.22-.19,.1-.05,.11-.08,.05-.07-.01,0-.02,.06-.03,.1Zm3.92-8.05c-.06,.04-.13,.08-.16,.13-.12,.21-.19,.44-.42,.58-.11,.07-.19,.2-.27,.32-.2,.29-.39,.59-.57,.89-.12,.21-.14,.47-.31,.67-.06,.08,0,.23,.1,.26,.17,.04,.35,.06,.51,.12,.43,.17,.87,.29,1.32,.38,.45,.09,.89,.21,1.35,.27,.45,.06,.9,.17,1.34,.28,.33,.09,.46,.01,.59-.26,.27-.54,.52-1.08,.78-1.62,.03-.06,.04-.13,.06-.2,.06-.19,0-.35-.19-.43-.78-.33-1.61-.52-2.42-.74-.1-.03-.21,0-.31,.02-.1,.02-.2,.08-.3,.11-.26,.08-.49,.03-.67-.19-.15-.19-.29-.39-.44-.59Z"/><path class="cls-2" d="M124.74,22.06c-.07,0-.2,.02-.28-.03-.28-.18-.61-.16-.91-.27-.51-.18-.97-.41-1.34-.82-.31-.34-.64-.66-.97-.98-.2-.2-.3-.2-.51,.04-.23,.27-.45,.54-.67,.81-.25,.31-.59,.49-.96,.62-.44,.15-.9,.15-1.36,.19-.56,.05-1.04-.12-1.51-.38-.03-.02-.06-.04-.09-.05-.22-.09-.36-.36-.65-.27-.22-.1-.4,.05-.6,.09-.17,.04-.34-.16-.28-.34,.11-.37,.21-.74,.52-1.02,.15-.14,.25-.34,.34-.53,.21-.46,.53-.83,.88-1.18,.37-.37,.78-.72,1.09-1.15,.22-.13,.35-.33,.49-.54,.17-.27,.36-.53,.58-.76,.42-.41,.59-.96,.86-1.45,.06-.12,.08-.27,.08-.41,0-.22,.04-.42,.14-.61,.07-.13,.15-.24,.3-.28,.14-.04,.27-.07,.4-.13,.07-.03,.12-.03,.2,0,.17,.05,.35,.12,.51,.1,.61-.08,1.18,.16,1.77,.23,.36,.04,.64,.28,.89,.53,.12,.12,.21,.28,.32,.42,.11,.15,.15,.32,.14,.5-.02,.25-.06,.49-.06,.74,0,.36-.07,.7-.27,1.01-.05,.08-.05,.2-.07,.3-.03,.14-.08,.26-.19,.36-.24,.22-.44,.46-.55,.77-.1,.27-.33,.45-.47,.69-.01,.02,0,.07,0,.09,.02,.03,.05,.06,.08,.07,.88,.52,1.64,1.22,2.5,1.78,.29,.19,.53,.46,.78,.71,.16,.15,.18,.47,.06,.7-.02,.03-.03,.07-.06,.08-.33,.2-.67,.38-1.11,.37Z"/><path class="cls-2" d="M145.3,12.82c-.06,.02-.11,.04-.16,.04-.02,0-.04-.04-.06-.06,.06-.02,.11-.04,.17-.04,.02,0,.04,.04,.06,.06Z"/><path class="cls-2" d="M139.41,12.07s.06,.03,.09,.05c-.02-.02-.05-.05-.07-.07l-.02,.02Z"/></g></g><g><path class="cls-4" d="M283.8,49.29s0,0,0,0c0,0,0,0,0-.01,0,0,0,0-.01,0,0,0,0,0,0,.01Z"/><path class="cls-4" d="M288.21,47.91c-.08-.02-.16-.02-.24,0-.1,.02-.19,.07-.31,.04-.08-.02-.18,.04-.26,.09-.11,.06-.18,.15-.18,.29,0,.16-.02,.31-.02,.46,0,.18,.08,.26,.26,.27,.09,0,.19,0,.29,0,.22,0,.43,0,.64,.06,.15,.04,.3,.06,.45,.1,.05,.01,.11,.03,.16,.06,0-.05,.01-.1,.03-.15,.03-.1,.04-.21,.02-.31-.05-.25-.05-.5-.14-.74-.02-.05-.03-.09-.03-.14-.21,.03-.42,.02-.65-.03Z"/><path class="cls-4" d="M283.79,49.5c0-.08,0-.15,.01-.21-.09,.05-.08,.11-.01,.21Z"/><path class="cls-4" d="M286.22,44.44s0,.01-.01,.02c0,0,0,0,0,0,0,0,0,0,0,0,0,0,0-.02,0-.03Z"/><path class="cls-4" d="M284.85,42.8s-.02,.01-.02,.02c0,0,0,0,0,0,0,0,0,0,0,0,0,0,.01-.02,.02-.03Z"/><path class="cls-4" d="M289,50.29c0-.06,0-.11,0-.17,0-.03,0-.05,0-.08-.05,0-.09,.02-.14,.04-.02,.01-.05,.03-.07,.02-.12-.09-.23,.09-.34,.03-.1-.06-.21,.06-.31-.04,.06-.09,.13-.19,.2-.28-.15-.14-.17-.16-.3-.17-.18-.01-.36-.02-.53-.06-.07-.02-.15,.05-.14,.12,.07,.28,0,.57,.09,.85,.04,.14,.03,.31,.03,.46,0,.21-.22,.32-.42,.21-.06-.03-.12-.07-.19-.09-.32-.12-.44-.22-.64-.57-.04-.07-.1-.13-.15-.18-.24,.3-.47,.58-.84,.72-.17,.06-.22,.04-.31-.12-.03-.05-.06-.1-.08-.15,.03-.29,.18-.48,.43-.61,.14-.07,.23-.21,.32-.33,.11-.15,.22-.31,.32-.47,.06-.1,.1-.22,.16-.32,.09-.14,.19-.27,.28-.41,.04-.06,.06-.13,.1-.21-.19-.02-.32,.07-.46,.14-.15,.08-.31,.13-.39,.29-.13-.02-.25-.04-.34-.13-.01-.1,.03-.18,.08-.26,.42-.06,.78-.27,1.14-.47,.11-.17,.02-.35,.06-.52,0-.04-.05-.11-.09-.14-.1-.06-.21-.1-.32-.16-.05-.03-.07-.11-.02-.15,.04-.04,.09-.07,.15-.09,.06-.03,.14-.03,.2-.06,.13-.05,.22-.14,.2-.3,0-.1,0-.19,0-.29,0-.08-.03-.13-.11-.17-.05-.02-.07-.07-.04-.12,.02-.04,.07-.08,.1-.08,.12,0,.24-.01,.36,0,.21,.03,.34,.18,.33,.4,0,.05-.02,.09-.02,.14,0,.03,0,.07,0,.12,.09,.03,.18,.05,.27,.08,.12,.04,.15,.17,.07,.26-.06,.06-.13,.11-.2,.14-.1,.04-.15,.1-.18,.2-.03,.14-.12,.26-.05,.42,.08-.02,.16-.02,.23-.05,.08-.03,.15-.08,.22-.11,.08-.02,.16,.03,.24-.01,.23-.12,.46-.04,.69,.01,.1,.03,.2,.06,.3,.09,.01-.03,.02-.05,.04-.08,.06-.09,.1-.19,.09-.3,0-.21,.05-.4,.15-.58,.07-.13,.1-.27,.13-.41,.03-.16,.05-.33,.07-.49,.02-.1,.05-.21,.06-.31,.05-.39,.1-.78,.1-1.18,0-.21-.02-.42-.08-.63-.08-.25-.19-.49-.22-.75-.01-.09-.07-.18-.12-.26-.08-.14-.21-.23-.34-.31-.14-.09-.19-.21-.19-.36,0-.03,0-.06-.01-.08-.11-.18-.22-.36-.31-.56-.01-.03-.04-.07-.07-.09-.13-.09-.25-.18-.38-.26-.38-.2-.51-.3-.84-.6-.06-.05-.11-.11-.18-.14-.23-.1-.47-.19-.73-.17-.23,.02-.47,.02-.69,.08-.28,.07-.55,.11-.84,.09-.05,0-.1,0-.15,0-.13,0-.25,0-.37-.05-.09-.03-.19-.05-.28-.05-.19,0-.39-.05-.57,.08-.04,.03-.09,0-.14,0-.3-.04-.37-.03-.61,.08-.17,.07-.33,.17-.43,.33-.04,.06-.08,.13-.11,.21-.1,.23-.23,.45-.36,.66-.08,.13-.19,.25-.27,.38-.15,.23-.33,.42-.54,.6-.12,.1-.24,.23-.31,.38-.09,.19-.18,.39-.26,.58-.03,.07-.05,.15-.06,.23-.03,.19-.08,.38-.07,.58,0,.08-.02,.17-.03,.26-.06,.28-.13,.57-.2,.85-.02,.1-.04,.2-.05,.29,.04-.08,.1-.15,.21-.17,.06-.01,.12-.04,.18-.08,.36-.22,.71-.46,1.07-.67,.13-.08,.28-.13,.42-.16,.18-.04,.29-.15,.34-.31,.14-.41,.29-.81,.38-1.24,.04-.17,.04-.35-.04-.51-.02-.05-.04-.11,.02-.14,.06-.03,.13-.03,.18,.01,.05,.05,.11,.12,.11,.19,0,.22,0,.43-.02,.65-.02,.19-.07,.38-.12,.57-.03,.13-.09,.27-.13,.4,.1,.09,.21,.11,.35,.09,.05-.12,.04-.25,.06-.38,0-.02,.02-.05,.04-.05,.03,0,.07,.01,.08,.03,.05,.1,.09,.2,.13,.3,.04,.12,.08,.25,.11,.36-.05,.17-.09,.34-.14,.5-.06,.16-.13,.32-.2,.49,0,.06,.04,.11,.11,.13,.14,.04,.24,.12,.31,.26,.05,.1,.15,.19,.22,.28,.03,.04,.04,.09,.06,.14-.1,.12-.22,.13-.34,.1-.15-.04-.29-.09-.44-.12-.1-.02-.18-.11-.26-.17-.16,.07-.31,.16-.48,.2-.18,.05-.36,.08-.53,.13-.06,.02-.14-.02-.22-.04,.14-.18,.34-.28,.53-.36,.13-.06,.25-.13,.35-.26-.06-.03-.11-.09-.17-.08-.12,0-.23-.08-.35-.02-.04,.02-.13-.06-.13-.12-.01-.16-.03-.33,.1-.46,.04-.04,.06-.09,.09-.13,.02-.05,.03-.1,.05-.15-.2-.03-.36,.03-.49,.18-.18,.21-.44,.32-.64,.49-.07,.06-.14,.1-.2,.16-.19,.18-.39,.22-.62,.1,0,.04,0,.08,0,.11,0,.2,.03,.4,.01,.6-.01,.18-.01,.38,.06,.56,.02,.04,.02,.09,.03,.14,.08,.37,.17,.74,.33,1.08,.09,.19,.12,.41,.15,.62,.02,.16,.02,.33,.03,.49,.02,.23,.1,.59,.2,.78,.1,.18,.2,.36,.32,.52,.08,.11,.16,.22,.23,.34,.09,.18,.23,.32,.39,.43,.22,.15,.45,.27,.7,.36,.16,.06,.33,.13,.48,.21,.18,.09,.36,.19,.49,.36,.26,.33,.64,.45,.99,.65,.13-.01,.2,.11,.32,.13,.23,.03,.4,.18,.59,.28,.01,.06,.02,.11,.04,.17,.15,.02,.27,.04,.4,0,.09-.03,.17-.02,.26,0,.07,.02,.16,.04,.23,.02,.27-.05,.54-.07,.77-.25,.07-.05,.15-.07,.21-.15,.07-.08,.18-.04,.27-.04,.02,0,.03-.02,.05-.02,.12-.05,.22-.13,.31-.21,.17-.16,.31-.35,.4-.57,.02-.05,.03-.08,.08-.11,.33-.2,.57-.5,.79-.8,.09-.12,.17-.26,.14-.43,0-.05,0-.1,.02-.14,.04-.16,.04-.33,.01-.49,0-.06,0-.11,0-.17Zm-5.32-5.72c.42-.11,.84-.22,1.28-.34-.01-.03-.01-.08-.04-.1-.06-.08-.17-.1-.21-.19-.01-.03-.07-.03-.11-.04-.05-.01-.1-.02-.17-.04,.02-.09,.03-.16,.06-.23,.04-.09,.09-.17,.15-.25,.12-.16,.18-.33,.18-.53-.04,0-.08,0-.12,.02-.06,.03-.11,.07-.16,.1-.25,.14-.57,.2-.86,.02,0-.05,.02-.08,.07-.09,.2-.04,.39-.12,.57-.23,.17-.11,.36-.19,.53-.31,.18-.12,.4-.17,.61-.05,.09,.05,.2,.09,.3,.13,.09,.04,.13,.11,.13,.21,0,.1-.02,.19-.09,.27-.15,.2-.29,.4-.45,.6-.09,.12-.2,.22-.3,.34,.11,.09,.22,.17,.33,.26,.2-.02,.4-.07,.6,0,.04,.01,.09,0,.13,0,.31-.1,.57-.02,.81,.17,.09,.08,.2,.13,.23,.26-.02,.1-.12,.14-.2,.13-.25-.06-.47,.04-.68,.13-.12,.05-.21,.03-.3-.04,.07-.1,.15-.2,.22-.3-.18-.07-.36-.11-.55-.04-.07,.11-.01,.19,.02,.28,.15,.39,.19,.79,.21,1.21,0,.26-.11,.46-.26,.64-.02,.02-.07,.05-.08,.04-.1-.06-.18,.03-.27,.04-.06,0-.12,0-.18,0-.11,0-.22-.03-.34,.02-.22,.1-.39-.06-.56-.15-.02,0-.03-.03-.03-.05-.04-.13-.07-.26-.11-.41,.06,0,.11,0,.16,.02,.13,.05,.25,.02,.37-.05,.19-.1,.35-.22,.48-.38,.1-.11,.18-.24,.17-.41,0-.16,.01-.32,.01-.49,0-.04-.03-.08-.05-.13-.23,0-.44,.1-.66,.13-.22,.03-.41,.13-.59,.22-.13-.04-.23-.1-.31-.22,.02-.05,.04-.11,.07-.18Zm.42,5.49c-.12-.14-.22-.25-.34-.4,0,.12,.07,.22-.04,.31-.08,.07-.14,.16-.22,.25-.14-.1-.25-.19-.38-.25-.06-.03-.14,0-.15-.1-.04-.29-.2-.53-.31-.8,.23-.46,.46-.92,.81-1.32,.1,.07,.13,.16,.13,.27,0,.11,.02,.21,.11,.31,.08,0,.17,0,.27,.02,.14,.02,.27,.05,.39,.15,.12,.1,.18,.09,.26-.02,.04-.05,.06-.14,.15-.12,.11,.02,.15,.09,.18,.19,.08,.26,.02,.49-.12,.71-.09,.13-.19,.25-.26,.38-.11,.2-.27,.32-.49,.42Z"/><path class="cls-4" d="M283.82,49.27s.06,0,.02-.04c0,.01-.01,.03-.02,.04Z"/><path class="cls-4" d="M286.51,49.29c-.09,.35-.27,.58-.3,.86q.3,.14,.49,.11s.03-.09,.02-.13c-.02-.2-.03-.4-.06-.6,0-.06-.07-.11-.15-.24Z"/><path class="cls-4" d="M282.47,45.28c.05-.13,.1-.26,.14-.39,.02-.05,.03-.11-.04-.16h-.26c-.17,.14-.28,.31-.35,.52,.12,.05,.21,.12,.33,.13,.09,0,.15-.02,.19-.1Z"/></g><g><path class="cls-3" d="M27.77,49.76c-.36-.7-.76-1.37-1.15-2.04-.19-.32-.49-.46-.85-.32-.36,.14-.5,.43-.41,.8,.02,.08,.04,.16,.07,.23,.03,.1,.07,.2,.12,.29,.09,.19,.19,.37,.28,.56,.24,.49,.49,.97,.74,1.46,.92,1.7,2.37,3.99,4.45,5.74,.61,.45,1.17,.84,1.7,1.26,.02,.01,.04,.03,.06,.04,2.73,1.78,4.99,2.19,5.09,2.21,.22-.01,.39-.13,.51-.38,.17-.33,.12-.64-.18-.85-.23-.17-.5-.29-.77-.4-1.43-.56-2.86-1.08-4.13-2-2.41-1.75-4.18-4-5.52-6.62Z"/><path class="cls-3" d="M37.06,44.22c.2-.07,.38-.21,.45-.41,.07-.19,.04-.41,0-.61-.03-.12-.06-.25-.15-.34,0,0-.02-.02-.03-.03-.04-.03-.1-.06-.15-.08-.55-.24-1.15-.22-1.73-.34-.33-.07-.66-.14-1-.2-.4-.08-.81-.24-1.22-.22-.22,0-.41,.06-.59,.18-.13,.08-.41,.21-.44,.36-.03,.2,.41,.34,.56,.41,.2,.09,.39,.19,.59,.28,.5,.24,.99,.47,1.5,.68,.68,.28,1.48,.59,2.21,.31Z"/><path class="cls-3" d="M50.86,40.51c.03-.39-.37-.5-.67-.51-1.8-.07-3.47,.73-4.76,1.93-.14,.13-.28,.27-.38,.45-.14,.26-.11,.51-.02,.77,.32,.88,1.44,1.06,2.16,.54,.31-.23,.52-.59,.56-.96,.02-.01,.04-.03,.05-.04,.09-.1,.19-.19,.29-.28,.05-.05,.1-.1,.16-.14,.01,0,.02-.02,.03-.02,.02-.02,.04-.03,.06-.05,.21-.17,.44-.34,.67-.48,.03-.02,.05-.03,.08-.05,0,0,.02,0,.03-.02,.02,0,.04-.02,.04-.02,.03-.02,.07-.04,.1-.06,.12-.06,.24-.13,.36-.18,.03-.01,.06-.03,.09-.04,.02,0,.11-.05,.03-.01,.02,0,.04-.02,.04-.02,.03-.01,.06-.02,.09-.04,.13-.05,.26-.1,.4-.15,.09-.03,.38-.16,.45-.3,.08-.09,.14-.19,.15-.31Z"/><path class="cls-3" d="M49.56,44.74c-.62,0-1.11,.48-1.11,1.1,0,.61,.5,1.1,1.11,1.1,.61,0,1.1-.49,1.1-1.11,0-.62-.48-1.1-1.1-1.1Z"/><path class="cls-3" d="M33.08,46.94c0,.6,.48,1.09,1.06,1.1,.61,0,1.09-.48,1.08-1.11,0-.6-.49-1.09-1.08-1.08-.58,0-1.07,.51-1.07,1.1Z"/><path class="cls-3" d="M82.26,54.58c-.2-2.1-1.36-2.99-2.95-4.17-2.32-1.72-4.86-3.23-7.43-4.56-2.39-1.24-4.79-2.59-7.21-3.8,.1,0,.21-.01,.32,0,.72-.13,1.36-.44,1.78-1.03,.32-.45,.57-.91,1.1-1.15,.16-.07,.29-.24,.39-.41,0-.01,.02-.02,.02-.03,.48-.8,.83-1.64,.8-2.6,0-.11,.02-.26,.07-.36,.02-.04,.04-.07,.07-.1,.33-.29,.6-.61,.84-.95,.71-1.01,1.05-2.2,1.2-3.46,.32-2.77-.5-5.13-2.63-6.99-.18-.16-.23-.3-.18-.56,.38-2.01,.06-3.9-1.05-5.63-.25-.39-.47-.75-.57-1.23-.32-1.6-1.23-2.83-2.58-3.73-.16-.11-.3-.26-.4-.43-.5-.82-1.09-1.59-1.89-2.11-.68-.44-1.48-.7-2.21-1.07-.2-.1-.42-.28-.5-.48-.36-.84-.87-1.51-1.69-1.94-.42-.22-.72-.53-.93-.97-.17-.36-.38-.73-.67-1-.96-.9-2.09-1.5-3.41-1.71-.14-.02-.3-.1-.4-.2-.49-.47-.93-.98-1.44-1.43-.59-.52-1.29-.82-2.1-.91-.53-.05-1.1,.02-1.58-.34-.33-.25-.7-.45-1.08-.63-1.04-.49-2.1-.47-3.13,.02-.29,.14-.51,.13-.79,0-1.06-.5-2.17-.87-3.31-.3-.81,.41-1.58,.8-2.54,.85-1.08,.06-2.06,.6-2.92,1.29-.11,.09-.29,.18-.42,.16-1.34-.29-2.47,.12-3.37,1.08-.49,.52-.99,.8-1.7,.69-.19-.03-.4,.04-.59,.08-1.95,.45-3.76,1.11-4.89,2.95-.21,.35-.55,.66-.91,.86-.61,.33-1.31,.5-1.93,.84-.68,.37-1.2,.85-1.59,1.42-.39,.57-.65,1.23-.79,1.97-.04,.23-.1,.46-.23,.65-.05,.06-.11,.12-.18,.17-.6,.44-1.09,.98-1.5,1.59-.14,.2-.26,.41-.38,.63-.63,1.16-.85,2.41-.77,3.72,0,.12,0,.22-.05,.3-.05,.07-.12,.14-.23,.2-.34,.18-.68,.39-.94,.67-.41,.44-.76,.9-1.05,1.38-.87,1.42-1.17,3.01-.62,4.82,.07,.23,0,.58-.13,.8-.55,.94-.86,1.96-.94,3.02-.11,1.36,.03,2.71,.33,4.05,.48,2.18,1.69,3.7,3.79,4.5,.15,.06,.25,.31,.3,.5,.16,.5,.21,1.06,.45,1.52,.24,.45,.52,.87,.8,1.3h0s.13,.3,.46,.68c.14,.17,.32,.36,.54,.54-2.28,1.2-4.65,2.23-6.94,3.41-2.18,1.12-4.92,2.24-6.78,3.84-3.33,2.86-3.64,8.07-2.15,12.02,.34,.9,1.79,.51,1.45-.4-.66-1.74-.6-3.76-.7-5.6-.16-3.12,2.3-5.05,4.79-6.32,3.94-2.02,8.03-3.89,11.89-6.07,.03,0,.05-.01,.06-.03,.72,.29,1.62,.57,2.69,.73,.31,.04,.61,.07,.93,.07,.06,0,.12,.01,.17,.03,1.1,.06,2.33-.03,3.68-.34,1.02-.41,1.91-.98,2.63-1.76,.01-.01,.03-.03,.04-.04,.11-.13,.22-.26,.33-.4,.07-.09,.14-.19,.21-.29,.06-.09,.12-.17,.17-.26,.14-.22,.27-.46,.39-.71,.12-.26,.3-.51,.39-.78,.03-.09,.06-.15,.1-.21,.15-.19,.37-.24,.67-.23,.49,.01,1.01,.04,1.47-.09,1.24-.35,2.26-.96,3.01-1.88,.11-.14,.22-.29,.32-.44,.03-.05,.06-.1,.09-.15,.07-.12,.14-.23,.21-.36,.01-.02,.02-.04,.03-.06,.03,0,.06,.01,.09,.01,1.36,.89,3.04,1.13,4.73,.9,.16-.02,.33-.05,.5-.08,.47-.04,.92-.16,1.33-.37,.56-.21,1.1-.49,1.57-.84,.28,.03,.56,.04,.84,.03,.06,0,.13-.01,.2-.02,.69,.05,1.42-.1,2.06-.42,.2-.01,.39-.04,.59-.07,.94,.94,2.08,1.59,3.65,1.67,.35,.02,.5,.18,.59,.51,.35,1.29,1.09,2.32,2.13,3.16,.65,.53,1.38,.82,2.2,.81,.4,0,.51,.16,.59,.5,.13,.53,.21,1.08,.66,1.48,.07,.06,.12,.11,.17,.16,.14,.11,.3,.21,.45,.3-.26,.61-.52,1.22-.76,1.85-1.14,3.09-2.78,5.8-5.13,8.02-1.24,1.17-2.71,1.9-4.16,2.68-.27,.15-.54,.31-.77,.52-.29,.27-.31,.62-.1,.98,.15,.26,.34,.38,.58,.37,.1-.03,2.45-.72,5.15-3,.02-.02,.04-.04,.06-.06,.52-.53,1.07-1.02,1.67-1.59,2.01-2.19,3.31-4.91,4.1-6.92,.21-.57,.42-1.15,.62-1.72,.1-.29,.17-.52,.23-.7,.13-.16,.26-.31,.4-.47,.26-.3,.52-.62,.81-.9h0s.53-.77,1.57-1.34c1.93,.92,3.73,2.09,5.64,3.06,2.2,1.12,4.38,2.14,6.49,3.42,1.93,1.18,5.34,2.61,6.07,4.91,.75,2.36,0,5.97-.5,8.3-.2,.95,1.14,1.32,1.45,.4,.04-.13,.08-.25,.13-.38,.05-.14,.05-.26,.03-.38,.47-2.42,.72-4.98,.49-7.42Z"/><path class="cls-3" d="M55.03,66.17c.15-.77-.17-1.26-.73-1.67-.9-.65-1.88-1.16-2.97-1.41-.63-.14-1.28-.24-1.93-.3-.36-.03-.63,.19-.67,.6-.04,.43,.25,.54,.57,.63,.69,.18,1.38,.33,2.06,.56,.63,.21,1.24,.47,1.83,.76,.35,.17,.37,.42,.06,.63-.43,.31-.87,.67-1.36,.83-1.31,.43-2.64,.77-3.97,1.15-.29,.08-.43-.03-.41-.31,.04-.68,.02-1.37,.15-2.03,.31-1.53,.19-2.99-.52-4.4-.29-.57-.54-1.15-.79-1.73-.39-.91-.07-2.31,.64-3,.23-.23,.44-.51,.58-.8,.34-.7,.17-1.47-.41-1.97-.6-.53-1.41-.61-2.06-.2-.44,.27-.61,.69-.44,1.06,.16,.35,.5,.44,1.02,.31,.21-.05,.42-.06,.71-.1-.19,.73-.66,1.03-1.2,1.23-.87,.32-1.77,.28-2.67,.17-1.07-.13-2.1-.33-2.59-1.52-.15-.36-.64-.4-.95-.17-.34,.26-.39,.62-.19,.97,.25,.42,.58,.79,.85,1.2,.08,.12,.14,.32,.1,.44-.49,1.52-.32,2.97,.42,4.37,.31,.59,.67,1.15,.98,1.74,.38,.74,.4,1.49,.03,2.26-.24,.5-.45,1.02-.68,1.55-1.91-1.4-3.87-2.83-5.84-4.27,.67-.53,.77-.78,.55-1.32-.35-.87-.66-1.09-1.48-1.02-.46,.04-.93,.08-1.39,.07-.24,0-.52-.09-.71-.23-.77-.56-1.53-1.16-2.28-1.75-.74-.58-1.47-1.19-2.22-1.76-.52-.4-1.12-.19-1.21,.39-.06,.38,.17,.62,.45,.83,1.02,.8,2.03,1.6,3.05,2.4,.1,.08,.18,.16,.27,.24-.02,.04-.04,.08-.06,.11-.29-.1-.62-.15-.87-.31-1.04-.66-2.06-1.35-3.09-2.04-.42-.28-.84-.57-1.28-.83-.36-.21-.72-.14-.94,.15-.23,.3-.19,.7,.1,.98,.14,.13,.3,.22,.46,.33,.41,.28,.83,.55,1.25,.82-.4,.05-.77,0-1.14-.02-.62-.05-.97,.16-1.18,.74-.2,.54-.37,1.09-.54,1.65-.11,.37-.34,.63-.68,.8-.16,.08-.33,.16-.49,.24-.06-.22-.21-.43-.49-.52-1.37-.49-2.59-1.1-3.99-.38-.55,.28-1,.8-1.41,1.38-.09-.04-.19-.06-.31-.06-1.41,0-2.68,.15-4,.66-1.81,.7-2.99,1.88-5.09,1.72-.97-.08-.96,1.43,0,1.5,1.17,.09,2.68-.1,3.71-.71,1.63-.97,2.97-1.55,4.79-1.65-.2,.34-.4,.66-.59,.94-.57,.79,.74,1.54,1.3,.76,.66-.92,1.21-1.93,1.94-2.8,.77-.92,1.79-.49,2.73-.1-.17,.09-.34,.17-.5,.26-.25,.13-.4,.31-.47,.5-1.01,.91-1.37,2.21-1.55,3.61-.4,2.96-.05,5.95-.52,8.93-.15,.95,1.3,1.35,1.45,.4,.33-2.11,.45-4.22,.44-6.36,0-1.81-.25-4.66,1.55-5.74,.15-.09,.25-.21,.31-.35,.71-.35,1.42-.69,2.13-1.06,.53-.27,.94-.66,1.07-1.29,.09-.42,.25-.83,.38-1.24,.07-.23,.18-.36,.47-.29,.36,.09,.75,.1,1.12,.18,1.84,.37,3.67,.79,5.56,.54,.15-.02,.32,.1,.6,.19-.27,.13-.41,.21-.55,.27-1.02,.45-2.04,.91-3.07,1.34-.41,.17-.68,.48-.78,.87-.06,.23,.03,.53,.16,.74,.16,.27,.46,.27,.74,.14,.46-.22,.91-.45,1.37-.67,.16-.08,.33-.14,.54-.22-.64,2.07-1.24,4.06-1.88,6.04-.06,.19-.25,.38-.43,.49-.35,.22-.76,.36-1.11,.6-.84,.57-1.65,.62-2.51,.02-.45-.32-.96-.27-1.44,.03-.95,.58-1.92,1.15-2.86,1.75-.25,.16-.51,.38-.64,.63-.09,.18-.05,.51,.05,.7,.07,.12,.37,.18,.55,.17,.21-.02,.41-.13,.6-.24,.64-.37,1.27-.75,1.91-1.13,1.17-.68,1.18-.69,2.37,0,.46,.27,.87,.26,1.34,0,.81-.45,1.64-.87,2.49-1.24,.56-.25,.89-.62,1.01-1.2,0,0,.15-.5,.34-1.13,.16-.52,.34-1.13,.49-1.62,.11-.36,.2-.66,.24-.8,.07-.22,.14-.45,.21-.67,.26-.85,.53-1.72,.82-2.64,.73,.46,1.4,.87,2.06,1.3,1.6,1.05,3.19,2.11,4.78,3.16,.11,.07,.22,.13,.33,.2,0,.04-.01,.07-.02,.11-.09,.02-.18,.04-.28,.05-.77-.05-1.54-.11-2.32-.16-.01,0-.02,0-.03,0-.45-.07-2.82-.13-3.24-.44,.21-.35,.46-.68,.76-1,.67-.7-.39-1.77-1.06-1.06-.89,.94-1.44,1.99-1.74,3.25-.21,.88,.06,1.68,.42,2.45,.14,.5,.37,1.06,.71,1.72,.25,.48,.49,.94,.71,1.39,.94,1.19,2.11,2.13,3.6,2.67,.37,.13,.73,.29,1.1,.42,.3,.11,.47,.3,.51,.63,.1,.7,.25,1.4,.33,2.1,.09,.81,.5,1.37,1.24,1.7,.13,.06,.26,.13,.39,.19,1.83,.78,3.74,.89,5.69,.66,.5-.06,.98-.17,1.43-.33,.74-.26,1.42-.66,2.02-1.21,.11-.11,.23-.21,.33-.33,.42-.45,.62-.97,.59-1.59-.03-.59-.03-1.19-.08-1.78-.03-.37,.09-.56,.44-.72,1.53-.72,2.65-1.94,3.36-3.41,1.03-2.14,1.44-4.46,1.27-6.85-.03-.46-.16-.94-.07-1.38Zm-10.86-8.48c.2-.02,.4-.03,.64-.04-.04,.41-.19,.83-.11,1.19,.17,.71,.45,1.39,.74,2.06,.34,.81,.9,1.54,.96,2.45,.03,.49,.05,.98-.02,1.46-.17,1.15-.4,2.28-.15,3.48-.46,.09-.84,.16-1.22,.26-.3,.07-.43-.04-.38-.33,.11-.63,.16-1.27,.37-1.87,.63-1.8,.3-3.48-.53-5.11-.2-.39-.46-.74-.63-1.14-.2-.46-.39-.93-.48-1.42-.11-.58,.22-.94,.82-.99Zm-3.1,2.27c-.19-.58-.18-1.25-.17-1.88,.01-.61,.34-.72,1.18-.43-.4,1.34,.05,2.48,.73,3.59,.54,.86,.97,1.79,1.08,2.81,.04,.38,.05,.81-.07,1.16-.41,1.16-.64,2.34-.56,3.71-.25-.08-.47-.09-.6-.2-.65-.6-.81-1.48-.37-2.25,.9-1.54,.72-3-.17-4.47-.39-.65-.82-1.31-1.05-2.03Zm4.44,22.39c-1.53,.18-3.04,.09-4.52-.41-.12-.04-.25-.08-.37-.13-.44-.19-.79-.43-.82-1-.03-.51-.17-1.01-.26-1.48,1.54,.13,3.04,.4,4.53,.34,1.49-.06,2.97-.46,4.5-.71,.02,.46,.08,.98,.06,1.5,0,.2-.15,.44-.3,.6-.76,.82-1.74,1.18-2.82,1.3Z"/></g><g><path class="cls-1" d="M138.97,67.1c-.35,.16-.73,.32-1.15,.5,0,.39-.09,.49-.22,.49-.17,0-.32-.28-.79-1.04l.05-.09c.45-.02,.92-.16,1.32-.27,.25-.07,.51-.15,.79-.23v-2.51h-1.01l-.91,.07-.16-.56,1.06,.07h1.01v-1.86c0-.48-.05-.72-.21-1.02l.06-.07c1.31,.21,1.53,.28,1.53,.49,0,.16-.12,.22-.6,.34v2.13h.3l.51-.61h.18l.76,.73v.29h-1.75v2.24c.49-.17,1.08-.38,1.79-.65l.08,.28c-.73,.38-1.28,.65-1.87,.91v.79l.05,3.11c0,.91-.6,1.22-1.56,1.26-.03-.4-.18-.58-1.02-.84l.05-.29c.83,.11,1.28,.13,1.4,.13,.23,0,.28-.1,.28-.32v-3.49Zm6.12,3.83c.58-2.13,.91-3.83,1.13-5.18,.05-.35,.09-.88,.08-1.35l.09-.05c1.22,.38,1.44,.5,1.44,.67,0,.13-.12,.21-.58,.28-.48,2.01-.92,3.55-1.71,5.63h1.91l.64-.76h.18l.89,.88v.29h-7.16l-.91,.07-.16-.56,1.06,.07h3.1Zm-.41-9.18c0-.48-.05-.72-.21-1.02l.06-.07c1.32,.21,1.57,.28,1.57,.49,0,.13-.12,.19-.57,.32v1.86h1.74l.57-.68h.18l.83,.8v.29h-6.04l-.91,.07-.16-.56,1.06,.07h1.87v-1.57Zm-1.94,2.67c1.05,1.86,1.52,3.78,1.52,4.96,0,.66-.21,.85-.51,.85-.26,0-.42-.12-.44-.89-.04-1.54-.32-3.19-.86-4.81l.29-.11Z"/><path class="cls-1" d="M169.37,69.59v.59l-.13,.12-.65,.02,.07-2.85v-3.29c0-.55,0-.85-.14-1.22l.08-.07c.35,.16,.61,.3,.89,.48h1.15c.17-.55,.31-1.11,.4-1.68h-1.7l-.88,.07,.25,.23v.29h-2.59v2.75c1.54,.44,2.14,.96,2.14,1.36,0,.26-.12,.39-.32,.39-.14,0-.3-.11-.48-.35-.36-.49-.8-.83-1.32-1.08l.05,1.05-.13,.12-.66,.02,.1-1.29c-.64,.77-1.4,1.38-2.59,1.94l-.13-.26c1.09-.68,1.94-1.44,2.67-2.56v-2.1h-1.47l-.91,.07-.16-.56,1.06,.07h1.47v-.23c0-.43-.03-.65-.13-.91l.06-.07c1.04,.18,1.32,.27,1.32,.43,0,.1-.13,.21-.58,.28v.51h1.15l.53-.57h.18l.44,.43-.14-.52,1.06,.07h4.01l.57-.68h.18l.83,.8v.29h-2.9c-.26,.58-.57,1.15-.92,1.68h2.33l.39-.4h.18c.45,.32,.73,.52,.73,.67,0,.12-.16,.19-.43,.3v3.74l.07,2.29-.13,.12-.66,.02v-.52h-4.21Zm-2.09-2.32c.67,.51,.7,.61,.7,.72,0,.12-.1,.18-.48,.29-.34,.6-.71,1.11-1.15,1.56,.99,.77,2.33,1.01,4.48,1.01,1.31,0,2.93-.06,4.26-.24v.27c-.4,.1-.69,.3-.73,.69-1.13,.06-2.1,.07-2.98,.07-2.76,0-4.36-.35-5.43-1.41-.8,.72-1.76,1.24-2.93,1.63l-.14-.26c1.04-.48,1.94-1.08,2.67-1.83-.32-.44-.56-.91-.78-1.4-.43,.48-.95,.89-1.62,1.29l-.19-.24c.89-.7,1.41-1.4,1.74-1.99,.18-.32,.27-.52,.34-.84l.09-.02c.95,.24,1.08,.33,1.08,.48,0,.11-.14,.17-.56,.19l-.27,.4h1.4l.32-.38h.18Zm-3.34-4.73c.84,.26,.99,.37,.99,.48,0,.12-.12,.2-.49,.22-.08,.21-.17,.4-.29,.6,.71,.21,.96,.49,.96,.69,0,.23-.17,.34-.3,.34-.16,0-.22-.07-.35-.29-.1-.18-.23-.33-.45-.5-.23,.38-.52,.71-.86,1.04l-.23-.19c.41-.6,.65-1.04,.8-1.6,.08-.28,.12-.48,.13-.74l.09-.04Zm1.08,5.57c.25,.48,.52,.91,.88,1.3,.35-.41,.64-.87,.87-1.35h-1.71l-.04,.05Zm2.13-5.61c.84,.26,.97,.37,.97,.48,0,.12-.12,.19-.49,.22-.09,.19-.19,.39-.31,.57,.73,.26,1.06,.56,1.06,.88,0,.23-.18,.34-.34,.34-.18,0-.25-.07-.35-.29-.09-.2-.23-.46-.52-.7-.21,.3-.47,.6-.79,.89l-.23-.19c.45-.6,.64-1.02,.75-1.41,.08-.28,.13-.48,.16-.74l.09-.04Zm3.14,1.27h-.91v5.4h.91v-5.4Zm1.66,1.35v-1.35h-.97v1.35h.97Zm-.97,.41v1.54h.97v-1.54h-.97Zm0,1.95v1.68h.97v-1.68h-.97Zm2.62,1.68v-5.4h-.96v5.4h.96Z"/><path class="cls-1" d="M194.36,63.97c0-.41-.04-.65-.18-.98l.06-.07c1.19,.15,1.44,.23,1.44,.4,0,.13-.13,.21-.52,.3v.8h1.84l.4-.37h.18c.54,.39,.8,.56,.8,.71,0,.12-.06,.16-.44,.28v1.44l.06,1.6-.13,.12-.74,.02v-.32h-2.55c.45,.68,1.04,1.28,1.72,1.77,.65-.37,1.24-.8,1.81-1.34,.22-.21,.29-.33,.38-.5l.09-.02c.84,.55,1.01,.69,1.01,.85,0,.1-.08,.16-.19,.16s-.21-.01-.54-.06c-.79,.46-1.41,.79-2.2,1.13,.8,.5,1.8,.79,3.68,1.02l-.05,.27c-.45,.01-.71,.21-.89,.59-1.49-.35-2.49-.83-3.33-1.52-.8-.66-1.39-1.32-1.93-2.34h-1.85v2.69c.93-.11,1.88-.26,3.03-.5l.08,.28c-1.53,.51-2.66,.8-4.2,1.13-.04,.37-.1,.48-.26,.48-.19,0-.27-.11-.83-1.13l.05-.09c.35,.01,.71-.01,1.09-.05,.08-.01,.16-.01,.23-.02v-5.46c0-.49-.04-.73-.16-1.05-.78,.4-1.61,.74-2.5,1.05l-.14-.26c2.27-.99,3.93-2.17,5.08-3.64,.32-.4,.43-.62,.49-.94l.09-.05c1.13,.4,1.37,.56,1.37,.73,0,.12-.08,.18-.47,.17,1.56,1.55,3.37,2.44,5.7,2.94v.27c-.48,.04-.67,.22-.84,.65-2.01-.78-3.75-1.89-5.21-3.73-.91,1.11-2.05,2.01-3.34,2.71,.29,.1,.56,.21,.83,.34h1.97v-.46Zm-2.07,1.96h4.86v-1.08h-4.86v1.08Zm0,.41v1.16h4.86v-1.16h-4.86Z"/><path class="cls-1" d="M216.37,63.61c0,.95-.29,1.55-.89,1.55-.29,0-.49-.18-.49-.43,0-.21,.09-.3,.43-.62,.39-.38,.47-.83,.52-1.6h.31c.06,.26,.09,.48,.12,.68h3.97v-1.52c0-.46-.05-.71-.21-1l.07-.07c1.34,.21,1.53,.28,1.53,.48,0,.15-.12,.21-.6,.32v1.8h1.06c.32-.44,.62-.94,.79-1.26,.18-.34,.29-.56,.32-.84l.09-.04c.82,.33,1.18,.52,1.18,.66,0,.17-.12,.21-.6,.17-.45,.51-.88,.94-1.31,1.3h2.4l.48-.51h.18c.79,.62,.97,.82,.97,.96,0,.17-.14,.21-.7,.28-.41,.44-.79,.83-1.24,1.16l-.25-.18c.26-.4,.51-.87,.66-1.29h-8.79Zm6.3,1.08l.4-.46h.18c.71,.51,.86,.61,.86,.76,0,.11-.12,.2-.47,.3v1.07l.08,1.5-.13,.12-.78,.02v-.5h-1.67v1.51h2.66l.57-.68h.18l.83,.8v.29h-4.24v1.69h3.69l.64-.76h.18l.89,.88v.29h-10.43l-.91,.07-.16-.56,1.06,.07h4.23v-1.69h-2.89l-.91,.07-.16-.56,1.06,.07h2.89v-1.51h-1.7v.41l-.13,.12-.76,.02,.08-1.57v-1.05c0-.49-.05-.82-.18-1.21l.08-.07c.4,.17,.71,.33,1.06,.52h3.89Zm-5.28-3.63c1.11,.46,1.65,1.06,1.65,1.46s-.25,.51-.48,.51c-.19,0-.34-.1-.45-.45-.14-.44-.36-.83-.91-1.29l.19-.23Zm1.24,6.03h4.17v-1.99h-4.17v1.99Z"/></g><rect class="cls-1" x="100.63" y="64.84" width="33.26" height=".49"/><rect class="cls-1" x="229.33" y="64.84" width="33.26" height=".49"/><g><path class="cls-1" d="M136.88,83.32l.9-6.68h.1l2.56,5.48,2.54-5.48h.1l.91,6.68h-.62l-.62-4.77-2.23,4.77h-.16l-2.25-4.81-.62,4.81h-.61Z"/><path class="cls-1" d="M145.45,76.64h.64v2.51l2.52-2.51h.85l-3.03,3,3.26,3.68h-.84l-2.76-3.11v3.11h-.64v-6.68Z"/><path class="cls-1" d="M150.85,76.64h.64v2.51l2.52-2.51h.85l-3.03,3,3.26,3.68h-.84l-2.76-3.11v3.11h-.64v-6.68Z"/><path class="cls-1" d="M158.93,76.64h1.25c.7,0,1.17,.03,1.42,.09,.37,.09,.68,.29,.91,.58,.23,.3,.35,.67,.35,1.1,0,.36-.08,.68-.24,.96-.16,.28-.39,.48-.69,.62-.3,.14-.71,.21-1.24,.22l2.26,3.1h-.78l-2.27-3.1h-.36v3.1h-.63v-6.68Zm.63,.65v2.27h1.08c.42,0,.73-.03,.93-.12,.2-.08,.36-.22,.47-.41,.11-.19,.17-.39,.17-.62s-.06-.43-.17-.61-.26-.31-.45-.39c-.19-.08-.5-.12-.93-.12h-1.11Z"/><path class="cls-1" d="M167.01,76.64l2.94,6.68h-.68l-.99-2.2h-2.71l-.98,2.2h-.7l2.98-6.68h.15Zm-.08,1.42l-1.08,2.42h2.15l-1.07-2.42Z"/><path class="cls-1" d="M170.86,83.32l.9-6.68h.1l2.56,5.48,2.54-5.48h.1l.91,6.68h-.62l-.62-4.77-2.23,4.77h-.16l-2.25-4.81-.62,4.81h-.61Z"/><path class="cls-1" d="M179.43,76.64h3.61v.65h-2.98v2.09h2.96v.65h-2.96v2.62h2.96v.65h-3.58v-6.68Z"/><path class="cls-1" d="M184.35,83.32v-6.68h.14l4.19,5.12v-5.12h.62v6.68h-.14l-4.16-5.06v5.06h-.65Z"/><path class="cls-1" d="M195.69,82.07l.54-.34c.38,.74,.81,1.1,1.31,1.1,.21,0,.41-.05,.59-.16s.33-.24,.42-.42c.1-.18,.15-.36,.15-.56,0-.22-.07-.44-.21-.66-.2-.3-.56-.65-1.08-1.07-.53-.42-.85-.72-.98-.91-.22-.31-.33-.66-.33-1.02,0-.29,.07-.56,.2-.79,.13-.24,.32-.43,.55-.56s.5-.21,.78-.21c.3,0,.57,.08,.83,.23,.26,.16,.53,.44,.82,.86l-.51,.41c-.24-.33-.44-.55-.61-.66s-.35-.16-.55-.16c-.25,0-.46,.08-.62,.25-.16,.16-.24,.36-.24,.6,0,.15,.03,.29,.08,.42,.06,.14,.16,.28,.31,.44,.08,.08,.35,.31,.81,.67,.54,.43,.92,.81,1.12,1.14,.2,.33,.3,.67,.3,1,0,.48-.17,.9-.52,1.26s-.77,.54-1.27,.54c-.38,0-.73-.11-1.04-.32-.31-.22-.6-.58-.86-1.09Z"/><path class="cls-1" d="M200.31,77.29v-.65h3.45v.65h-1.4v6.02h-.64v-6.02h-1.4Z"/><path class="cls-1" d="M204.91,76.64h.63v4.03c0,.48,0,.78,.03,.89,.03,.26,.1,.48,.22,.66,.11,.18,.29,.33,.53,.44,.24,.12,.47,.18,.71,.18,.21,0,.41-.05,.6-.14,.19-.09,.35-.22,.48-.39s.22-.37,.28-.6c.04-.17,.06-.52,.06-1.04v-4.03h.63v4.03c0,.6-.05,1.08-.17,1.45s-.33,.69-.66,.96c-.33,.27-.73,.41-1.2,.41-.51,0-.94-.13-1.31-.39-.36-.26-.61-.6-.73-1.02-.08-.26-.12-.73-.12-1.41v-4.03Z"/><path class="cls-1" d="M210.85,83.32v-6.68h1.31c.94,0,1.63,.08,2.05,.24,.61,.23,1.09,.62,1.43,1.18,.34,.56,.52,1.23,.52,2,0,.67-.14,1.26-.41,1.77s-.63,.88-1.06,1.13c-.44,.24-1.05,.36-1.83,.36h-2Zm.6-.63h.73c.87,0,1.47-.06,1.81-.17,.47-.16,.85-.46,1.12-.88s.41-.94,.41-1.56-.15-1.19-.44-1.65-.7-.77-1.23-.94c-.39-.13-1.04-.19-1.95-.19h-.45v5.39Z"/><path class="cls-1" d="M217.5,76.64h.63v6.68h-.63v-6.68Z"/><path class="cls-1" d="M222.79,76.47c.95,0,1.75,.34,2.39,1.01s.96,1.51,.96,2.49-.32,1.81-.96,2.49c-.64,.68-1.42,1.02-2.35,1.02s-1.72-.34-2.37-1.02-.96-1.5-.96-2.46c0-.64,.15-1.24,.44-1.78,.29-.55,.69-.98,1.2-1.29,.51-.31,1.05-.47,1.64-.47Zm.03,.65c-.47,0-.91,.13-1.33,.39-.42,.26-.74,.6-.98,1.04-.24,.44-.35,.92-.35,1.46,0,.79,.26,1.46,.78,2.01,.52,.55,1.14,.82,1.88,.82,.49,0,.94-.13,1.36-.38,.42-.25,.74-.6,.97-1.03s.35-.92,.35-1.45-.12-1.01-.35-1.44c-.23-.43-.56-.77-.98-1.03s-.87-.39-1.35-.39Z"/></g></g></g></svg>