<?xml version="1.0" encoding="UTF-8"?><svg id="_圖層_2" xmlns="http://www.w3.org/2000/svg" viewBox="0 0 160.53 154.05"><defs><style>.cls-1,.cls-2{fill:#122d55;}.cls-3{fill:#132c53;}.cls-2,.cls-4{fill-rule:evenodd;}.cls-4{fill:#c30d23;}</style></defs><g id="_圖層_1-2"><g><g><path class="cls-1" d="M36.66,139.21c-.32,.14-.66,.29-1.05,.45,0,.35-.08,.44-.2,.44-.15,0-.29-.25-.72-.94l.05-.08c.41-.02,.83-.14,1.2-.24,.22-.07,.46-.13,.72-.21v-2.28h-.92l-.82,.07-.14-.51,.96,.07h.92v-1.69c0-.43-.05-.65-.19-.93l.06-.07c1.19,.19,1.39,.25,1.39,.44,0,.14-.11,.2-.54,.31v1.93h.27l.46-.55h.16l.69,.66v.26h-1.59v2.03c.45-.15,.97-.34,1.62-.59l.07,.25c-.66,.34-1.16,.59-1.69,.83v.72l.05,2.82c0,.83-.54,1.1-1.41,1.14-.02-.36-.16-.53-.93-.76l.05-.27c.75,.1,1.16,.12,1.27,.12,.21,0,.26-.09,.26-.29v-3.16Zm5.54,3.47c.53-1.93,.82-3.47,1.02-4.69,.05-.32,.08-.8,.07-1.23l.08-.04c1.1,.34,1.3,.45,1.3,.61,0,.12-.11,.19-.53,.25-.43,1.82-.83,3.21-1.55,5.1h1.73l.58-.68h.16l.81,.8v.27h-6.48l-.82,.07-.14-.51,.96,.07h2.81Zm-.38-8.32c0-.43-.05-.65-.19-.93l.06-.07c1.2,.19,1.42,.25,1.42,.44,0,.12-.11,.18-.52,.29v1.69h1.57l.52-.62h.16l.75,.73v.26h-5.47l-.82,.07-.14-.51,.96,.07h1.69v-1.42Zm-1.76,2.42c.95,1.69,1.37,3.42,1.37,4.5,0,.6-.19,.77-.46,.77-.24,0-.38-.11-.4-.81-.04-1.39-.29-2.89-.78-4.36l.26-.1Z"/><path class="cls-1" d="M64.2,141.46v.53l-.12,.11-.59,.02,.06-2.58v-2.98c0-.5,0-.77-.13-1.1l.07-.07c.32,.14,.55,.28,.81,.43h1.05c.15-.5,.28-1.01,.36-1.52h-1.54l-.8,.07,.22,.21v.26h-2.35v2.5c1.4,.4,1.94,.87,1.94,1.24,0,.23-.11,.35-.29,.35-.13,0-.27-.1-.43-.32-.33-.44-.73-.75-1.2-.98l.05,.95-.12,.11-.6,.02,.09-1.17c-.58,.7-1.27,1.25-2.35,1.76l-.12-.23c.99-.62,1.76-1.3,2.42-2.32v-1.9h-1.33l-.82,.07-.14-.51,.96,.07h1.33v-.21c0-.39-.02-.59-.12-.83l.06-.07c.94,.17,1.2,.24,1.2,.39,0,.09-.12,.19-.53,.25v.46h1.05l.48-.52h.16l.4,.39-.13-.47,.96,.07h3.63l.52-.62h.16l.75,.73v.27h-2.63c-.24,.53-.52,1.04-.83,1.52h2.11l.35-.36h.16c.41,.29,.66,.47,.66,.61,0,.11-.14,.18-.39,.28v3.39l.06,2.08-.12,.11-.6,.02v-.48h-3.82Zm-1.89-2.1c.61,.46,.63,.55,.63,.65,0,.11-.09,.17-.43,.26-.31,.54-.65,1.01-1.05,1.41,.89,.7,2.11,.92,4.06,.92,1.19,0,2.65-.06,3.86-.22v.24c-.36,.09-.62,.28-.66,.63-1.02,.06-1.9,.07-2.7,.07-2.5,0-3.95-.32-4.92-1.28-.73,.65-1.6,1.13-2.65,1.48l-.13-.23c.94-.43,1.76-.98,2.42-1.66-.29-.4-.5-.83-.7-1.27-.39,.43-.86,.81-1.47,1.17l-.18-.22c.81-.63,1.28-1.27,1.57-1.8,.16-.29,.25-.48,.31-.76l.08-.02c.86,.22,.97,.3,.97,.43,0,.1-.13,.15-.5,.18l-.25,.36h1.27l.29-.34h.16Zm-3.03-4.29c.76,.23,.89,.33,.89,.43,0,.11-.11,.18-.45,.2-.07,.19-.15,.36-.26,.54,.65,.19,.87,.44,.87,.63,0,.21-.15,.31-.27,.31-.14,0-.2-.07-.32-.27-.09-.17-.21-.3-.41-.45-.21,.34-.47,.64-.78,.94l-.21-.18c.38-.54,.59-.94,.73-1.45,.07-.25,.11-.43,.12-.67l.08-.03Zm.97,5.05c.22,.43,.47,.83,.8,1.18,.32-.38,.58-.78,.79-1.23h-1.55l-.04,.04Zm1.93-5.08c.76,.23,.88,.33,.88,.43,0,.11-.11,.18-.45,.2-.08,.18-.18,.35-.28,.52,.66,.23,.96,.51,.96,.8,0,.21-.16,.31-.31,.31-.16,0-.22-.07-.32-.26-.08-.18-.21-.42-.47-.63-.19,.28-.42,.54-.72,.81l-.21-.18c.41-.54,.58-.93,.68-1.28,.07-.25,.12-.43,.14-.67l.08-.03Zm2.84,1.15h-.82v4.89h.82v-4.89Zm1.5,1.23v-1.23h-.88v1.23h.88Zm-.88,.38v1.39h.88v-1.39h-.88Zm0,1.77v1.52h.88v-1.52h-.88Zm2.37,1.52v-4.89h-.87v4.89h.87Z"/><path class="cls-1" d="M86.84,136.37c0-.38-.04-.59-.16-.88l.06-.07c1.08,.13,1.3,.21,1.3,.36,0,.12-.12,.19-.47,.28v.73h1.67l.36-.33h.16c.49,.35,.73,.51,.73,.64,0,.11-.06,.14-.4,.25v1.3l.06,1.45-.12,.11-.67,.02v-.29h-2.31c.41,.62,.94,1.16,1.56,1.6,.59-.33,1.13-.73,1.64-1.21,.2-.19,.26-.3,.34-.45l.08-.02c.76,.5,.92,.63,.92,.77,0,.09-.07,.14-.18,.14s-.19-.01-.49-.05c-.72,.42-1.28,.72-2,1.03,.73,.45,1.63,.72,3.34,.93l-.05,.24c-.41,.01-.65,.19-.81,.53-1.35-.32-2.26-.75-3.02-1.38-.73-.6-1.26-1.19-1.75-2.12h-1.68v2.44c.85-.1,1.7-.23,2.75-.45l.07,.25c-1.39,.46-2.41,.73-3.81,1.03-.04,.33-.09,.43-.23,.43-.18,0-.25-.1-.75-1.03l.05-.08c.32,.01,.65-.01,.99-.04,.07-.01,.14-.01,.21-.02v-4.95c0-.44-.04-.66-.14-.95-.7,.36-1.46,.67-2.27,.95l-.13-.23c2.06-.89,3.56-1.97,4.6-3.3,.29-.36,.39-.56,.45-.85l.08-.04c1.02,.36,1.25,.51,1.25,.66,0,.11-.07,.17-.42,.15,1.41,1.4,3.05,2.21,5.17,2.66v.24c-.43,.03-.61,.2-.76,.59-1.82-.71-3.39-1.71-4.72-3.38-.82,1.01-1.86,1.82-3.03,2.45,.26,.09,.51,.19,.75,.31h1.79v-.42Zm-1.88,1.78h4.4v-.98h-4.4v.98Zm0,.38v1.05h4.4v-1.05h-4.4Z"/><path class="cls-1" d="M106.79,136.04c0,.86-.26,1.4-.81,1.4-.26,0-.45-.17-.45-.39,0-.19,.08-.28,.39-.56,.35-.34,.42-.75,.47-1.45h.28c.06,.23,.08,.43,.11,.62h3.59v-1.38c0-.42-.05-.64-.19-.91l.06-.07c1.21,.19,1.39,.25,1.39,.43,0,.13-.11,.19-.54,.29v1.63h.96c.29-.4,.56-.85,.72-1.14,.16-.31,.26-.51,.29-.76l.08-.03c.74,.3,1.07,.48,1.07,.6,0,.15-.11,.19-.54,.15-.41,.46-.8,.85-1.19,1.18h2.17l.43-.46h.16c.72,.56,.88,.74,.88,.87,0,.15-.13,.19-.63,.25-.38,.4-.72,.75-1.13,1.05l-.22-.17c.24-.36,.46-.78,.6-1.17h-7.96Zm5.71,.98l.36-.42h.16c.65,.46,.78,.55,.78,.68,0,.1-.11,.18-.42,.28v.97l.07,1.36-.12,.11-.7,.02v-.45h-1.51v1.37h2.41l.52-.62h.16l.75,.73v.27h-3.84v1.53h3.35l.58-.68h.16l.81,.8v.26h-9.45l-.82,.07-.14-.51,.96,.07h3.83v-1.53h-2.62l-.82,.07-.14-.51,.96,.07h2.62v-1.37h-1.54v.38l-.12,.11-.69,.02,.07-1.42v-.95c0-.44-.05-.74-.16-1.09l.07-.07c.36,.15,.65,.3,.96,.47h3.52Zm-4.78-3.29c1.01,.42,1.49,.96,1.49,1.33s-.22,.46-.43,.46c-.18,0-.31-.09-.41-.41-.13-.4-.33-.75-.82-1.17l.18-.21Zm1.13,5.47h3.78v-1.8h-3.78v1.8Z"/></g><rect class="cls-1" x="1.91" y="137.15" width="30.14" height=".44"/><rect class="cls-1" x="118.53" y="137.15" width="30.14" height=".44"/><g><g><path class="cls-2" d="M115.13,87.94s.05-.05,.07-.08c.4-.82,.27-.76,1.17-1.15,.83-.35,1.65-.71,2.54-.88,.11-.02,.2-.08,.3-.11,.48-.16,.95-.34,1.44-.46,.77-.18,1.54-.38,2.3-.61,.21-.06,.43-.08,.64-.1,.46-.05,.93-.02,1.39-.17,.2-.06,.43-.03,.65-.04,.68-.01,1.37,.03,2.04-.15,.86-.02,1.73-.09,2.59,.07,.18,.03,.36,.05,.54,.05,1.26,.01,2.53,.03,3.79,.03,.65,0,1.3,.01,1.94-.15,.83-.04,1.65-.13,2.48,.07,.41,.1,.86,.1,1.29,.09,.48-.01,.93,.04,1.39,.17,.24,.07,.49,.13,.74,.17,.43,.07,.73,.26,.84,.72,.03,.12,.18,.21,.27,.33,.04,.06,.09,.12,.1,.19,.01,.36,.01,.71,0,1.07,0,.05-.09,.11-.15,.14-.09,.05-.23,.05-.29,.13-.21,.25-.49,.43-.61,.75-.03,.07-.06,.13-.1,.19-.08,.13-.19,.24-.34,.25-.31,.01-.53,.17-.75,.37-.22,.2-.49,.27-.8,.19-.35-.08-.71-.1-1.07-.14-.32-.03-.66,.02-.96-.14-.57-.07-1.16-.14-1.72,0-.25,.06-.5,.03-.74,.1-.16,.04-.37,.03-.53-.02-.49-.17-.99-.17-1.5-.16-.32,0-.65,0-.97,0-.21,0-.43-.04-.64-.09-.17-.04-.34-.13-.5-.2-.17-.07-.35-.09-.53-.03-.17,.06-.34,.12-.52,.12-.18,0-.36,.02-.53,.11-.16,.09-.34,.1-.52,.1-.36,0-.72-.01-1.08,0-.18,0-.37,.03-.53,.1-.24,.11-.48,.15-.73,.13-.4-.03-.79-.01-1.15,.21-.49,.09-.96,.3-1.49,.24-.13-.02-.28,.05-.41,.1-.17,.06-.34,.12-.5,.2-.24,.1-.48,.16-.74,.12-.29-.04-.54,.18-.83,.07-.03-.01-.08,0-.1,0-.42,.25-.82,.17-1.24,0-.16-.06-.35-.05-.53-.06-.19-.01-.37,.04-.5,.18-.21,.23-.41,.19-.67,.08-.49-.22-.98-.45-1.51-.57-.07-.02-.14-.07-.2-.07-.43,.03-.74-.26-1.09-.42-.08-.04-.14-.02-.17,.06-.01,.03-.03,.07-.02,.1,.01,.07,.03,.15,.06,.2,.08,.12,.17,.23,.26,.35,.21,.25,.41,.5,.67,.71,.08,.31,.35,.44,.55,.64,.07,.07,.16,.18,.12,.29-.1,.26-.04,.49,.05,.73,.08,.22,.07,.43-.14,.58-.16,.11-.24,.26-.24,.45,0,.58,0,1.15,0,1.73,0,.27-.06,.49-.32,.63-.1,.05-.11,.18-.09,.29,.12,.49,.32,.95,.43,1.45,.1,.45,.37,.86,.36,1.34,.16,.41,.19,.84,.24,1.27,.02,.14,.05,.28,.09,.42,.14,.49,.15,1,.14,1.5,0,.25-.03,.51,0,.76,.02,.26,0,.51-.12,.74-.18,.35-.16,.7-.02,1.04,.07,.17,.13,.33,.08,.52-.08,.35-.14,.7-.01,1.06,.06,.17,.04,.36,.05,.54,.02,.4,0,.8,.06,1.19,.05,.35,.19,.69,.28,1.04,.03,.1,.05,.21,.06,.32,.01,.54,.02,1.08,.03,1.62,0,.18,.03,.36,.03,.54,0,.25,.21,.47,.09,.74-.1,.22,.05,.42,.06,.63,.02,.65,.06,1.3-.11,1.94-.07,.26-.05,.49,.03,.74,.04,.13,0,.28,.04,.42,.01,.05,.11,.13,.15,.12,.97-.16,1.95-.04,2.92-.12,.43-.03,.87,0,1.3,.03,.83,.05,1.66,.03,2.48-.12,.28-.05,.57-.07,.86-.09,.47-.04,.93-.06,1.4-.14,.49-.08,1.01-.09,1.51-.09,.86,0,1.73,0,2.59,.06,.65,.05,1.29,.13,1.94,.17,.68,.04,1.37,.06,2.01,.36,.03,.01,.07,.02,.11,.03,.36,.02,.74-.01,1.07,.09,.35,.11,.7,.14,1.06,.16,.5,.02,1-.03,1.49,.18,.19,.08,.43,.04,.64,.04,.22,0,.45-.04,.65,.02,.77,.24,1.59,.07,2.35,.34,.43,.03,.86,.06,1.29,.1,.36,.03,.72,.02,1.07,.12,.2,.06,.43,.05,.65,.06,.33,.02,.65-.01,.95-.15,.78-.35,1.61-.3,2.44-.3,.34,0,.54,.18,.66,.47,.06,.13,.13,.26,.15,.4,.02,.14,.04,.3-.01,.42-.14,.33-.24,.68-.31,1.03-.02,.1-.1,.19-.15,.28-.06,.13-.16,.26-.16,.39-.02,.55-.17,1.06-.43,1.55-.05,.44-.29,.81-.51,1.18-.11,.19-.25,.35-.48,.42-.17,.05-.34,.12-.51,.19-.16,.07-.32,.17-.48,.25-.22,.37-.58,.38-.95,.37-.25,0-.5-.03-.75,.01-.29,.04-.45,.16-.51,.46-.03,.15-.22,.2-.35,.13-.06-.03-.13-.06-.19-.1-.18-.12-.35-.2-.6-.19-.28,.02-.57-.06-.85-.1-.07,0-.14-.01-.21-.03-.07-.02-.14-.04-.2-.08-.43-.28-.97-.27-1.4-.54-.19-.12-.39-.18-.61-.18-.29,0-.58,.02-.86,.01-.22,0-.43-.03-.59-.2-.15-.16-.36-.23-.58-.26-.43-.05-.86-.06-1.28-.19-.38-.11-.79-.08-1.16-.23-.48,0-.9-.21-1.34-.36-.48-.15-.98-.23-1.48-.31-.39-.06-.76-.21-1.17-.2-.4,0-.79-.06-1.19-.06-.29,0-.56-.13-.85-.07-.25,.05-.5,.09-.74,.17-.32,.11-.64,.11-.96,.09-.18,0-.35-.05-.53-.09-.32-.06-.64-.11-.94,.09-.46,.08-.91,.2-1.31,.46-.09,.05-.2,.01-.29-.07-.11-.1-.25-.16-.4-.15-.43,.03-.85-.16-1.28-.06-.46-.09-.92-.14-1.39-.04-.06,.01-.13-.03-.2-.05-.1-.03-.22-.09-.31-.07-.52,.13-.99-.11-1.47-.22-.1-.02-.22-.06-.28-.14-.31-.39-.7-.28-1.09-.21-.1,.02-.2,.09-.3,.11-.14,.02-.3,.05-.43,0-.76-.32-1.55-.6-2.18-1.16-.23-.2-.48-.32-.78-.32-.18,0-.36,.02-.54-.01-.25-.04-.47-.16-.72-.21-.45-.09-.77-.37-.93-.82-.08-.24-.14-.49-.26-.71-.38-.64-.51-1.34-.62-2.05-.14-.86-.24-1.71-.25-2.58,0-.57,0-1.16-.15-1.72,.03-.54-.11-1.08-.03-1.62,.02-.17-.02-.36-.03-.54-.02-.32-.02-.65-.04-.97-.01-.25,0-.51-.06-.75-.08-.32-.1-.64-.12-.96,0-.11,.02-.22-.02-.32-.24-.78-.13-1.58-.18-2.37-.04-.76-.01-1.52,0-2.28,0-.18,0-.37,.06-.54,.11-.31,.1-.64,.14-.96,.02-.18,0-.38,.06-.53,.23-.56,.17-1.14,.15-1.71-.02-.79,0-1.59-.01-2.38,0-.29,0-.58,0-.86-.03-.87,.04-1.72,.4-2.54,.1-.23,.17-.49,.17-.73,0-.77,.27-1.48,.5-2.2,.02-.07,.02-.15,.05-.21,.03-.06,.09-.15,.14-.15,.44,0,.68-.39,1.05-.53,.25-.1,.24-.13,.61-.02Z"/><path class="cls-2" d="M131.69,95.74c-.08-.04-.14-.09-.2-.09-.18,.02-.36,.05-.53,.09-.25,.06-.5,.07-.75,.02-.78-.16-1.57-.18-2.37-.2-.32,0-.65,.01-.97-.08-.14-.04-.28-.03-.43,.02-.07,.02-.14,.05-.21,.05-.43,0-.85,.13-1.28-.06-.39-.17-.82-.25-1.17-.54-.28-.22-.63-.34-.94-.52-.09-.05-.16-.14-.22-.23-.11-.18-.05-.47,.12-.58,.09-.06,.17-.13,.27-.18,.51-.27,1.05-.48,1.59-.66,.2-.07,.42-.11,.63-.14,.25-.03,.5-.05,.76-.06,1.15,0,2.31,0,3.47,0,.65,0,1.3,.02,1.95,.04,.25,0,.51,.02,.75,.08,.57,.13,1.14,.13,1.71,0,.28-.06,.57-.08,.86-.11,.36-.03,.71-.05,1.07-.14,.34-.09,.72-.03,1.08-.04,.25,0,.5-.01,.75,.08,.13,.05,.28,.08,.42,.07,.55-.02,1.07,.14,1.6,.24,.3,.06,.52,.22,.67,.5,.14,.26,.03,.55-.24,.59-.11,.02-.22,.04-.32,.03-.36-.04-.65,.1-.84,.39-.16,.25-.39,.42-.59,.62-.16,.17-.36,.23-.58,.23-.32,0-.65-.02-.97,0-.22,.01-.43-.13-.62-.1-.22,.03-.42,.08-.62-.04-.03-.02-.07-.03-.1-.03-.23,0-.56,.09-1.01,.29,.26,.15,.51,.28,.75,.44,.12,.08,.25,.17,.32,.28,.18,.26,.39,.52,.23,.89-.08,.19-.08,.43-.15,.62-.1,.27,.08,.55-.06,.83-.13,.25-.11,.56-.1,.85,0,.15,.1,.3,.23,.33,.28,.06,.57,.18,.84,.16,.63-.04,1.2,.19,1.79,.32,.07,.01,.13,.06,.2,.09,.5,.15,1.27,.51,1.72,.8,.12,.08,.25,.13,.37,.22,.06,.04,.1,.1,.13,.17,.17,.34,.18,.69,.02,1.04-.13,.28-.4,.49-.69,.42-.33-.08-.64-.02-.95,.04-.46,.09-.92,.16-1.37,.28-.73,.2-1.44,.45-2.17,.65-.15,.04-.25,.17-.27,.31-.06,.32-.08,.64-.13,.96-.03,.18-.04,.37-.12,.52-.32,.66-.35,1.39-.56,2.07-.04,.13,.07,.29,.2,.33,.11,.02,.21,.06,.32,.06,.18,.01,.36,.01,.54,.01,.54,0,1.08,.07,1.6,.23,.31,.09,.61,.19,.94,.22,.28,.02,.56,.13,.84,.19,.26,.05,.47,.16,.65,.36,.24,.27,.49,.53,.76,.77,.31,.27,.5,.61,.73,.93,.06,.09,.04,.31-.04,.41-.07,.08-.14,.16-.21,.25-.19,.26-.55,.34-.72,.63-.03,.05-.11,.09-.18,.11-.35,.08-.68,.22-1.06,.19-.43-.03-.84,.04-1.26,.23-.42,.2-.9,.22-1.35,.35-.07,.02-.15,.05-.21,.03-.5-.25-1.08-.03-1.59-.26-.06-.03-.15-.01-.21,.01-.14,.05-.27,.05-.41-.02-.17-.08-.35-.11-.52,0-.19,.12-.4,.16-.62,.15-.64-.03-1.29,.04-1.93-.13-.12-.03-.27,.03-.42-.03-.54-.21-1.11-.28-1.67-.43-.49-.13-1-.1-1.49,.06-.22,.07-.42,.08-.64,.03-.24-.06-.48-.14-.73-.21-.67-.17-1.28-.43-1.84-.86-.46-.35-.96-.63-1.43-.97-.44-.32-.8-.72-1.12-1.15-.02-.02-.01-.07,0-.1,.02-.03,.05-.05,.09-.06,.44-.09,.77-.38,1.16-.56,.11-.05,.17-.23,.27-.33,.1-.1,.22-.19,.38-.13,.03,.01,.07,.01,.11,.02,.42,.12,.85,.13,1.29,.09,.32-.03,.65,0,.97-.02,.22,0,.44,0,.64-.07,.39-.13,.78-.14,1.17-.14,.61,0,1.23,0,1.84-.01,.25,0,.41-.05,.47-.33,.07-.35,.23-.68,.22-1.05,0-.1,.04-.21,.07-.31,.15-.41,.27-.81,.18-1.25,.08-.24,.15-.49,.06-.74-.02-.06-.09-.15-.14-.15-.57-.01-1.13-.16-1.7-.09-.13,.02-.27,.1-.38,.18-.42,.3-.9,.32-1.34,.14-.57-.23-1.18-.3-1.75-.52-.3-.11-.62-.19-.92-.3-.38-.14-.71-.35-.9-.73-.06-.13-.17-.23-.31-.29-.2-.09-.06-.23-.05-.35,.02-.12-.03-.2-.16-.24-.14-.04-.28-.06-.39-.17-.09-.09-.11-.31-.01-.39,.19-.16,.39-.37,.64-.36,.38,.01,.7-.18,1.05-.22,.14-.02,.28-.07,.4-.14,.62-.37,1.29-.63,2-.77,.18-.04,.35-.1,.52-.16,.55-.17,1.11-.28,1.7-.24,.25,.02,1.54-.21,1.8-.29,.03,0,.06-.04,.09-.05,.11-.05,.21-.25,.17-.37-.05-.14-.1-.27-.15-.4-.15-.33-.32-.65-.44-.99-.08-.2-.06-.43,.05-.63,.07-.13,.16-.25,.3-.29,.13-.04,.29-.05,.41-.11,.29-.13,.57-.28,.87-.43Z"/></g><path class="cls-2" d="M72.51,122.74c-.02,.06-.03,.13-.07,.17-.04,.04-.11,.05-.16,.07-.01,0-.04-.05-.05-.08-.03-.08,0-.15,.09-.17,.06-.01,.13,.01,.2,.02Z"/><g><path class="cls-2" d="M77.12,123.18c-.16-.08-.28-.17-.42-.21-.13-.04-.28-.06-.42-.06-.1,0-.21,.07-.31,.08-.26,0-.46,.2-.72,.19-.25,0-.5-.03-.77-.05-.1,.13-.21,.27-.33,.4-.13,.15-.31,.12-.46-.04-.13-.14-.21-.29-.22-.48,0-.15-.07-.28-.2-.36-.15-.1-.28-.24-.47-.25-.11,0-.22-.02-.32,0-.27,.03-.49-.1-.72-.21-.06-.03-.15-.09-.15-.14,0-.46-.42-.54-.68-.77-.22-.19-.48-.34-.67-.55-.24-.27-.46-.54-.85-.61-.14-.03-.24-.15-.31-.28-.44-.77-.64-1.38-.73-2.24-.02-.17,0-.37,.05-.53,.14-.43,.19-.84-.06-1.25-.04-.06-.05-.13-.06-.2-.03-.29-.06-.57-.09-.86-.19-.25-.07-.57-.2-.83-.05-.1-.04-.22,.04-.3,.17-.21,.25-.43,.18-.7-.05-.21-.02-.42-.11-.63-.05-.12-.05-.29-.02-.43,.07-.39,.21-.77,.09-1.17,.21-.4,.09-.85,.18-1.27,.1-.47,.06-.92,.01-1.39-.07-.64-.22-1.28-.13-1.93-.15-.53-.1-1.07-.1-1.61,0-.73-.08-1.44-.36-2.12-.17-.41-.12-.86-.31-1.26-.04-.09-.04-.21-.03-.32,.03-.4,0-.78-.14-1.17-.07-.19-.05-.43-.05-.64,0-.94,.01-1.88,.02-2.81,0-.14-.01-.3,.02-.43,.19-.74,.15-1.5,.2-2.26,0-.11-.02-.23,.02-.32,.15-.41,.11-.86,.25-1.27,.17-.53,.07-1.08,.1-1.61,0-.1-.05-.21-.09-.31-.1-.27-.21-.53-.31-.8-.1-.28,.05-.61,.32-.71,.1-.04,.21-.05,.31-.07,.19-.04,.32-.16,.44-.3,.05-.05,.1-.14,.09-.19-.1-.3,.11-.55,.12-.83,.01-.23,.16-.4,.32-.55,.24-.22,.47-.45,.74-.64,.21-.15,.39-.32,.55-.51,.09-.11,.21-.2,.36-.22,.45-.07,.78-.36,1.13-.61,.29-.21,.6-.4,.88-.62,.56-.43,1.18-.64,1.88-.74,.46-.06,.93-.14,1.38-.25,.54-.13,1.07-.17,1.61-.17,.66,0,1.28-.17,1.91-.31,.63-.14,1.24-.39,1.89-.39,.41-.2,.85-.15,1.28-.16,1.73-.01,3.47,0,5.2,0,.43,0,.86,0,1.28,.14,.2,.07,.43,.04,.64,.04,.65,0,1.29,0,1.93,.19,.45,.13,.93,.09,1.39,.2,.13,.03,.28-.01,.42-.04,.18-.04,.36-.04,.53,.03,.71,.27,1.42,.52,2.14,.75,.1,.03,.22,.06,.29,.13,.37,.36,.9,.46,1.28,.8,.13,.12,.26,.26,.34,.42,.14,.26,.3,.49,.54,.65,.12,.08,.17,.23,.21,.37,.03,.14,.07,.29,.19,.38,.27,.19,.22,.43,.1,.67-.25,.49-.66,.85-.97,1.29-.06,.08-.17,.12-.26,.18-.09,.06-.22,.08-.27,.16-.6,.87-1.6,1.05-2.48,1.42-.16,.07-.34,.11-.52,.14-.14,.02-.29,.03-.42,0-.32-.09-.64-.11-.96-.02-.18,.05-.35,.04-.53,0-.1-.02-.22-.03-.31,0-.31,.13-.63,.13-.96,.13-.25,0-.49,.04-.73,.15-.31,.14-.64,.13-.94-.03-.25-.13-.48-.13-.72-.02-.06,.03-.13,.05-.2,.07-.15,.04-.31,0-.38-.13-.16-.32-.47-.3-.74-.37-.29,.12-.55,0-.83-.07-.27-.07-.57-.05-.86-.07-.68-.03-1.37,.06-2.05,0-.22-.02-.43-.02-.64-.11-.42-.17-.86-.02-1.28-.09-.07-.01-.15,.02-.21,.05-.48,.22-.99,.14-1.49,.15-.36,0-.72-.05-1.08-.01-.19,.02-.35-.02-.52-.11-.13-.07-.28-.05-.42,0-.2,.07-.35-.01-.49-.14-.15-.15-.33-.19-.49-.1-.29,.15-.56,0-.84,.02-.26,.02-.48,.04-.71-.13-.14-.1-.35-.09-.5-.19-.27-.18-.54-.2-.82-.1-.21,.07-.41,.13-.62,.02-.07-.04-.12,0-.18,.06-.07,.08-.15,.17-.24,.22-.12,.07-.27,.15-.41,.07-.35-.21-.77-.18-1.13-.35-.35-.17-.73-.29-1.1-.43-.2-.08-.38,.01-.38,.21,.01,.68,.03,1.37,.05,2.05,0,.24,.18,.46,.08,.74-.07,.19-.07,.42-.1,.63-.08,.46-.11,.93-.16,1.39,0,.07,.04,.14,.06,.21,.08,.21,.1,.42,0,.63-.08,.16-.15,.33-.15,.51,0,.41-.12,.79-.26,1.16-.12,.32-.14,.63-.03,.95,.02,.07,.05,.14,.05,.21-.05,.9,.37,1.68,.61,2.5,.1,.35,.26,.67,.43,.99,.15,.28,.31,.57,.32,.91,0,.1,.06,.21,.11,.3,.16,.29,.23,.61,.34,.91,.1,.28,.18,.55,.2,.84,.02,.33,.22,.61,.2,.95-.02,.32,.01,.65,0,.97-.03,.62,.17,1.21,.27,1.81,.03,.18,.1,.35,.12,.53,.04,.36,.05,.72,.08,1.08,.02,.36,.22,.67,.23,1.05,0,.35,.13,.71,.26,1.04,.13,.31,.08,.65,.2,.95,.12,.31,.12,.64,.15,.96,0,.11,.02,.22,.06,.31,.1,.2,.12,.4,.11,.63-.02,.43,.02,.86,.02,1.3,0,.29,.02,.58,.17,.84,.11,.71,.63,1.02,1.24,1.2,.34,.1,.69,.21,1.05,.05,.32,0,.65,.02,.97,.01,.29,0,.59,.01,.86-.07,.5-.15,1-.13,1.5-.14,.22,0,.44,.01,.65,0,.97-.11,1.95-.05,2.92,0,.65,.03,1.3,.04,1.95-.03,.72-.08,1.44-.01,2.17,0,.18,0,.35,.06,.53,.09,.11,.02,.22,.07,.31,.04,.36-.11,.71-.04,1.07-.03,.14,0,.27-.03,.42,.01,.49,.13,.98,.2,1.49,.18,.28-.02,.57,.06,.86,.08,.47,.03,.93,.01,1.4-.09,.6-.13,1.22-.14,1.83-.08,.9,.08,1.8,.06,2.69-.13,.28-.06,.57-.08,.86-.09,.37,0,.68-.24,1.05-.22,.32,.01,.65,.02,.96-.13,.31,.1,.63-.07,.95,.08,.18,.09,.42,.07,.63,.11,.06,.01,.12,.08,.16,.14,.18,.36,.23,.75,.33,1.13,0,.03,0,.07,0,.11-.09,.38-.17,.77-.29,1.15-.16,.49-.42,.92-.88,1.19-.03,.02-.06,.04-.09,.07-.43,.58-1.07,.84-1.68,1.14-.19,.09-.4,.18-.62,.19-.37,.02-.66,.27-1.01,.35-.08,.02-.15,.15-.21,.23-.05,.06-.12,.09-.2,.06-.37-.19-.75-.23-1.15-.17-.32,.04-.64,.01-.95,.16-.15,.07-.35,.05-.53,.05-.51,0-1.01,.02-1.52,.01-.22,0-.43,.05-.62,.16-.2,.12-.41,.11-.61-.03-.12-.09-.26-.14-.4-.09-.59,.22-1.21,.18-1.82,.18-.76,0-1.51-.04-2.27,.02-.47,.03-.94-.03-1.41-.06-.26-.01-.5,.03-.74,.11-.36,.12-.62,.35-.83,.65-.03,.04-.13,.04-.19,.03-.08-.01-.12-.09-.1-.17,.01-.07,.05-.14,.06-.21,.01-.08-.14-.18-.22-.15-.03,.01-.08,.02-.1,.04-.06,.09-.11,.18-.16,.27-.18,.34-.52,.53-.88,.5-.36-.03-.7-.15-1.02-.32-.13-.07-.28-.1-.42-.03-.31,.14-.61,.18-.94,.05-.1-.04-.19,.06-.26,.15-.07,.1-.17,.11-.28,.05-.13-.07-.25-.14-.37-.21-.07-.04-.13-.02-.2,0-.45,.19-.92,.17-1.37,0-.21-.08-.44-.15-.63-.04-.31,.18-.62,.15-.95,.15-.09,0-.14-.04-.13-.09,0-.03,.05-.05,.08-.07,.09-.05,.19-.09,.32-.15Zm6.24-.02s.06,.06,.08,.06c.14,0,.19-.05,.19-.19,0-.03-.06-.08-.06-.07-.06,.03-.11,.07-.16,.12-.02,.02-.03,.06-.05,.09Z"/><path class="cls-2" d="M86.96,113.77c-.18,.06-.22,.1-.19,.19,.02,.07,.06,.13,.09,.19,.04,.09,.15,.18,.04,.28-.08,.07-.17,.14-.27,.16-.21,.04-.43,.05-.61-.11-.41-.35-.76-.49-1.25-.51-.14,0-.29,0-.43-.01l.02,.03c-.07-.08-.13-.22-.2-.23-.43-.06-.85-.14-1.27-.2-.25-.03-.51-.03-.74,.08-.15,.07-.29,.03-.4-.06-.21-.15-.43-.24-.7-.25-.29,0-.57-.05-.84-.17-.27-.12-.56-.09-.85,.02-.05,.02-.16-.02-.17-.06-.1-.25-.34-.26-.53-.31-.24-.07-.5-.07-.75-.07-.33,0-.63-.09-.94-.21-.35-.13-.66-.28-.87-.59-.12-.18-.27-.34-.43-.48-.08-.07-.14-.16-.18-.26-.18-.43-.27-.89-.44-1.32-.06-.16-.02-.36,.14-.49,.15-.12,.2-.26,.15-.47-.06-.24,.17-.54,.38-.56,.54-.06,1.08-.03,1.62,0,.04,0,.08,0,.11,.02,.42,.26,.91,.19,1.35,.31,.47,.12,.93,.11,1.39,.05,.72-.09,1.43-.17,2.16-.14,.11,0,.21-.03,.32-.05,.1-.01,.16-.16,.1-.25-.24-.32-.34-.71-.52-1.07-.12-.23-.12-.49-.02-.73,.09-.2,.16-.4,.19-.62,.03-.28-.02-.47-.34-.58-.51-.17-1.03-.32-1.52-.57-.09-.05-.21-.06-.31-.05-.21,.01-.43,.07-.64,.06-.18,0-.35,.02-.53,.05-.65,.09-1.29,.1-1.93-.09-.1-.03-.21-.06-.3-.11-.39-.19-.78-.38-1.16-.58-.06-.03-.14-.08-.15-.14-.07-.25-.18-.47-.41-.6-.1-.23-.21-.46-.29-.69-.1-.34-.19-.69-.26-1.05-.04-.18-.12-.34-.23-.48-.32-.41-.14-.73,.14-1.05,.04-.04,.13-.05,.2-.06,.03,0,.07,.02,.1,.03,.03,.01,.07,.02,.1,.04,1.12,.64,.9,.56,2.25,.6,.11,0,.22,.01,.33,0,.88-.11,1.72,.08,2.56,.29,.61,.15,1.21,.12,1.82,.05,.06,0,.12-.07,.16-.13,.06-.09,.12-.19,.14-.29,.17-.76,.54-1.4,1.05-1.99,.16-.19,.28-.42,.41-.63,.14-.23,0-.51-.26-.58-.1-.02-.21-.03-.32-.05-.35-.07-.71-.12-1.05-.22-.2-.06-.4-.17-.58-.28-.16-.09-.33-.15-.51-.15-.43,0-.87,.05-1.28-.14-.06-.03-.15,0-.21,.02-.18,.07-.34,.03-.52-.02-.24-.06-.5-.05-.75-.07-.19-.02-.35,.04-.51,.15-.09,.06-.18,.13-.27,.17-.13,.06-.27,.09-.41,.13-.14,.04-.3,.05-.42-.03-.33-.22-.79-.17-1.05-.52-.06-.09-.13-.18-.16-.28-.14-.46-.07-.93,.04-1.39,.01-.06,.09-.12,.15-.14,.7-.18,1.36-.46,2.08-.58,.6-.1,1.18-.3,1.77-.46,.28-.08,.58-.06,.85-.17,.24-.09,.49-.1,.74-.16,.91-.23,1.85-.28,2.74-.56,.37-.12,.79-.07,1.15-.26,.57,.01,1.15-.09,1.72,.11,.44,.16,.93,.11,1.4,.1,.07,0,.15-.01,.21-.05,.22-.15,.47-.16,.72-.21,.18-.03,.36-.08,.51-.18,.37-.24,.71-.26,1.11-.05,.48,.25,.99,.42,1.49,.64,.36,.16,.71,.34,1.06,.53,.12,.07,.28,.15,.33,.26,.15,.31,.4,.51,.71,.63,.28,.11,.49,.3,.64,.56,.05,.09,.14,.17,.2,.25,.07,.09,.06,.19-.02,.3-.09,.11-.2,.21-.27,.33-.06,.1-.14,.18-.24,.2-.39,.08-.75,.27-1.16,.26-.11,0-.22,.02-.32,.05-.55,.18-1.07,.42-1.62,.59-.17,.05-.33,.15-.48,.24-.16,.1-.33,.15-.51,.13-.21-.01-.44,0-.64-.04-.18-.04-.34-.06-.53-.01-.36,.1-.71,.08-1.06-.05-.13-.05-.28-.08-.42-.09-.33-.03-.65,.02-.92,.3,.11,.12,.22,.23,.33,.35,.12,.13,.24,.26,.38,.4,0,.73,.14,1.43,.38,2.11,.09,.25,.21,.32,.49,.28,.07-.01,.15,0,.22-.03,.1-.03,.21-.06,.31-.1,.72-.3,1.47-.33,2.23-.28,.22,.01,.43,.05,.63,.14,.36,.16,.75,.25,1.06,.52,.11,.09,.25,.14,.39,.18,.18,.05,.32,.13,.46,.27,.15,.15,.34,.26,.52,.39,.25,.18,.33,.6,.16,.87-.13,.21-.29,.4-.44,.6,.04,.18-.05,.23-.22,.29-.34,.11-.67,.29-1.04,.25-.26-.03-.49,.05-.73,.13-.37,.12-.73,.32-1.14,.29-.25,.15-.52,.21-.81,.25-.24,.04-.45,.21-.69,.3-.34,.13-.69,.22-1.02,.35-.28,.1-.51,.47-.5,.77,0,.18,0,.37,.06,.54,.07,.22-.03,.43-.02,.64,.01,.21,.09,.42,.09,.64,0,.21-.05,.43-.08,.64-.01,.09,.08,.2,.19,.23,.34,.11,.7,.17,1.06,.18,.47,0,.94,0,1.41,.04,.47,.03,.94-.02,1.39,.16,.9,.04,1.81,.18,2.7-.03,.47-.11,.93-.09,1.4-.1,.26,0,.48,.12,.69,.28,.18,.15,.17,.39-.03,.52-.36,.22-.42,.35-.32,.69,.03,.1,.1,.2,.1,.3,0,.1-.02,.23-.09,.29-.17,.14-.3,.3-.38,.51-.06,.17-.13,.34-.23,.49-.13,.19-.15,.39-.13,.61,.02,.22-.13,.35-.33,.29-.37-.11-.63,.04-.84,.31-.09,.11-.15,.25-.2,.38-.04,.11-.1,.21-.21,.22-.5,.05-.95,.33-1.48,.26-.18-.03-.34,.07-.51,.14-.38,.15-.66,.44-1.01,.62-.13,.07-.27,.13-.41,.06-.36-.19-.77-.17-1.14-.32-.13-.05-.26-.08-.39-.16-.4-.26-.81-.24-1.22-.02-.06,.03-.13,.08-.19,.09-.23,.06-.43,.04-.54-.21,.05-.02,.13-.04,.16-.08,.03-.05-.03-.09-.09-.07-.06,.02-.08,.09-.05,.16Z"/><path class="cls-2" d="M84.34,113.96c-.13,.23-.14,.24-.38,.2-.03,0-.06-.03-.08-.05-.04-.04,0-.1,.08-.11,.13-.02,.27-.01,.4-.01l-.02-.03Z"/></g><g><path class="cls-2" d="M38.71,91.9c-.05-.06-.12-.1-.16-.17-.15-.24-.18-.25-.38,0l.02-.02c-.28,0-.53,.09-.8,.14-.12,.02-.21,0-.26-.13,.02-.01,.04-.02,.07-.04-.02,.02-.03,.04-.05,.06-.23,0-.46,0-.69,0-.14,0-.31,0-.42-.05-.24-.13-.49-.13-.75-.11-.26,.02-.52,0-.78-.02-.09,0-.18-.01-.25-.05-.19-.09-.38-.11-.59-.1-.38,.02-.66-.16-.87-.47-.15-.21-.34-.39-.37-.67,0-.05-.05-.12-.09-.14-.22-.12-.08-.46-.34-.54-.08-.13-.09-.29-.01-.41,.12-.19,.27-.37,.43-.53,.1-.1,.24-.17,.39-.11,.55,.23,1.12,.23,1.7,.25,.49,.02,.98,0,1.46,.11,.16,.04,.34,0,.52,0,.31-.17,.68-.12,1.01-.23,.27-.09,.56-.14,.84-.13,.28,.01,.51-.06,.72-.22,.19-.15,.4-.22,.62-.29,.2-.06,.39-.09,.59-.03,.14,.04,.28,.08,.42,.08,.47-.01,.91,.15,1.37,.19,.11,0,.22,.05,.33,.09,.52,.19,1.06,.26,1.61,.25,.24,0,.46,0,.67-.12,.08-.04,.17-.02,.24,.03,.13,.08,.27,.11,.41,.08,.38-.08,.68,.11,.97,.28,.35,.19,.69,.42,1.01,.66,.18,.14,.37,.28,.56,.39,.1,.06,.18,.14,.23,.25,.06,.16,.14,.32,.22,.47,.08,.15,.17,.29,.25,.43-.28,.28-.56,.52-.91,.67-.19,.08-.38,.12-.57,.16-.59,.14-1.19,.17-1.8,.18-.17,0-.35,.02-.51,.07-.29,.09-.58,.09-.85,0-.28-.1-.56-.1-.85-.09-.61,0-1.21-.02-1.82,0-.24,0-.45-.18-.67-.11-.22,.07-.44,.11-.67,.14,0-.07-.03-.11-.09-.13-.11-.02-.21-.03-.32,.04,.15,.02,.29,.04,.42,.06,.08,.08,.17,.15,.25,.24,.1,.1,.2,.21,.24,.36,.04,.14,.09,.27,.14,.41,.06,.17,.04,.34-.04,.5-.04,.08-.08,.15-.12,.23-.09,.15-.13,.32-.14,.49-.02,.47-.15,.9-.48,1.26-.06,.06-.12,.13-.14,.21-.06,.23-.2,.42-.32,.61-.06,.09-.02,.19,.07,.19,.43,0,.86,0,1.3,0,.88-.26,1.78-.1,2.67-.14,.3-.01,.56,.14,.85,.14,.29,0,.58,.02,.86,.05,.08,0,.16,.06,.25,.08,.34,.08,.66,.2,1,.27,.31,.06,.6,.23,.9,.29,.31,.06,.62,.12,.93,.21,.25,.07,.48,.21,.75,.19,.08,0,.17,.04,.25,.07,.29,.13,.56,.29,.87,.37,.08,.02,.16,.07,.22,.13,.17,.15,.34,.31,.5,.48,.06,.07,.07,.15,.04,.24-.02,.05-.04,.11-.06,.17,.26,.28,.4,.63,.58,.96,.05,.1,.08,.22,.09,.33,.02,.29,.03,.58,.02,.87-.03,.78-.03,1.56,0,2.34,.01,.38,0,.75,0,1.13,.15,.28-.06,.57,0,.84,.05,.27-.1,.5-.09,.76,0,.03,.01,.06,0,.08-.25,.37-.19,.84-.39,1.23-.03,.05-.04,.11-.04,.17-.04,.28-.02,.58-.09,.85-.06,.27-.25,.52-.31,.81-.03,.14-.09,.27-.12,.41-.03,.11-.02,.25-.08,.33-.24,.31-.25,.7-.44,1.03-.07,.13-.17,.23-.29,.32-.2,.17-.35,.36-.44,.62-.09,.27-.24,.52-.41,.75-.24,.33-.47,.66-.68,1-.03,.05-.07,.11-.11,.12-.43,.11-.7,.51-1.13,.62-.08,.02-.17,.03-.25-.02-.05-.03-.1-.06-.15-.09-.09-.07-.18-.14-.27-.2-.09,.06-.16,.11-.23,.15-.09,.05-.12,.05-.21-.05-.04-.04-.06-.11-.1-.13-.18-.09-.37-.16-.54-.26-.07-.04-.12-.13-.15-.2-.04-.14-.08-.28-.08-.42-.01-.23,0-.46,0-.69,0-.08-.07-.19-.13-.2-.17-.04-.33-.09-.5-.11-.14-.01-.29,.05-.43,.03-.34-.05-.68-.12-1.01-.21-.18-.05-.33-.05-.5,.02-.19,.07-.39,.12-.58,.16-.14,.03-.28,.06-.43,.06-.41,0-.81,0-1.21-.03-.2-.02-.39-.02-.59-.02-.17,0-.34,0-.51,.03-.11,.02-.24,.03-.34,0-.42-.16-.86-.1-1.29-.12-.14,0-.29-.02-.43,0-.3,.04-.56-.14-.84-.16-.26-.03-.52-.02-.77-.06-.23-.04-.45-.11-.67-.18-.09-.03-.17-.06-.25-.02-.21,.08-.4,.03-.59-.04-.13-.05-.28-.09-.41-.14-.22-.09-.45-.09-.66-.07-.23,.16-.44,.31-.66,.45-.15,.09-.27,.22-.37,.36-.11,.15-.26,.22-.45,.22-.35,0-.69,.03-1.03-.1-.19-.08-.38-.13-.51-.3-.05-.06-.15-.09-.23-.1-.09-.02-.17-.05-.21-.13-.07-.13-.12-.26-.19-.39-.05-.1-.1-.21-.18-.29-.36-.38-.47-.84-.49-1.34,0-.17-.02-.35-.03-.52-.2-.27-.08-.63-.24-.91-.04-.07-.09-.17-.08-.24,.06-.34-.04-.62-.25-.87-.05-.05-.05-.17-.03-.25,.05-.23,.13-.44,.33-.59,.26-.19,.31-.47,.28-.78-.02-.16-.14-.29-.28-.26-.25,.06-.5,.11-.76,.02-.49-.01-.98-.06-1.47-.03-.45,.03-.87-.05-1.25-.26-.37-.21-.75-.29-1.16-.27-.56,.02-1.08-.14-1.62-.25-.39-.08-.79-.19-1.17-.3-.33-.1-.67-.15-1.02-.18-.4-.04-.79-.14-1.19-.2-.23-.04-.46-.06-.68-.11-.19-.04-.37-.16-.58-.16-.23,0-.37-.15-.49-.32-.07-.09-.11-.2-.16-.3-.05-.1-.11-.2-.17-.31-.19,.04-.18,.26-.31,.35-.14,.1-.25,.23-.38,.35-.09,.08-.17,.17-.27,.21-.2,.07-.35,.19-.44,.39-.12,.24-.3,.42-.51,.58-.16,.13-.31,.26-.47,.38-.4,.29-.78,.59-1.13,.95-.16,.17-.36,.29-.59,.34-.11,.03-.22,.08-.33,.11-.2,.05-.37,.15-.53,.29-.39,.35-.87,.55-1.35,.75-.16,.07-.34,.07-.5,.13-.3,.1-.59,.22-.89,.33-.35,.13-.7,.25-1.08,.27-.26,.01-.52,.02-.76,.14-.54,.08-1.08,.15-1.61-.07-.16-.07-.35-.06-.51,0-.22,.08-.45,.1-.68,.12-.28,.03-.56,.15-.84,.19-.25,.04-.52,.03-.77,.07-.17,.03-.33,.08-.51,.1-.4,.05-.74-.08-1.07-.25-.07-.04-.13-.12-.16-.19-.07-.16-.14-.32-.25-.45-.08-.09-.11-.2-.14-.31-.04-.17-.1-.33-.13-.5-.03-.17-.07-.36-.03-.51,.13-.48,.15-.97,.18-1.46,0-.05,.12-.16,.18-.17,.03,0,.06-.02,.08-.02,.23-.01,.46,.02,.69-.05,.1-.03,.22,.02,.34,.03,.6,.06,1.21,.07,1.81-.01,.31-.05,.63-.1,.94-.1,.41,0,.81-.07,1.17-.25,.22-.11,.45-.12,.67-.04,.51,.19,1.03,.11,1.54,.02,.4-.07,.78-.2,1.15-.35,.19-.07,.37-.15,.54-.27,.47-.34,.96-.65,1.51-.83,.03,0,.06-.01,.08-.03,.89-.58,1.89-1.01,2.63-1.8,.22-.23,.52-.39,.65-.68,.12-.27,.34-.47,.46-.73,.04-.08,.1-.15,.11-.23,.05-.31,.2-.6,.19-.93,0-.17,.04-.34,.11-.5,.13-.29,.22-.59,.22-.92,0-.11,.04-.23,.09-.33,.28-.61,.39-1.27,.57-1.9,.18-.61,.26-1.24,.49-1.83,0-.29,.15-.56,.19-.84,.04-.29,.15-.56,.21-.84,.01-.06-.06-.19-.12-.21-.05-.02-.11-.05-.16-.05-.39,.04-.73-.12-1.07-.27-.18-.08-.37-.15-.55-.25-.27-.14-.49-.11-.7,.11-.09,.1-.1,.08-.41,0-.02,0-.06,0-.06,0-.14,.28-.38,.21-.61,.19-.14-.02-.27-.09-.41-.12-.18-.03-.35,0-.46,.17-.05,.07-.08,.15-.13,.22-.03,.04-.08,.09-.13,.1-.14,.03-.29-.02-.41,.09-.09,.08-.2,.1-.32,.11-.03-.05-.05-.09-.09-.13-.01-.02-.05-.02-.07-.02-.02,0-.05,.02-.06,.03-.02,.04,.01,.07,.08,.08,.05,0,.11,0,.16,.01-.03,.15-.02,.29,.09,.4,.16,.17,.32,.33,.43,.54,.08,.16,.14,.32,.03,.49-.08,.14-.05,.27,.05,.39,.04,.04,.07,.1,.07,.15-.04,.31-.1,.62-.04,.93-.16,.14-.07,.32-.1,.49-.05,.34-.05,.7-.23,1-.12,.19-.02,.39-.08,.58-.02,.04,0,.13,.03,.16,.19,.15,.21,.41,.36,.58,.19,.22,.39,.42,.59,.63,.4,.42,.8,.83,1.2,1.25,.16,.17,.27,.38,.35,.59,.04,.12,.01,.23-.05,.33-.1,.14-.25,.23-.31,.41-.04,.12-.26,.18-.38,.11-.25-.16-.54-.2-.82-.26-.09-.02-.17,0-.25,.02-.25,.08-.46-.03-.64-.18-.38-.32-.74-.65-1.11-.97-.06-.06-.14-.1-.21-.14-.02-.01-.06-.01-.08,0-.24,.16-.49,.31-.49,.65,0,.12-.03,.25-.14,.29-.2,.08-.36,.16-.37,.41,0,.12-.09,.21-.17,.29-.1,.11-.16,.24-.17,.39-.02,.17-.13,.24-.3,.24-.11,0-.23,0-.34,.04-.66,.19-1.32,.41-1.92,.73-.33-.05-.58-.27-.9-.33-.13-.02-.26-.13-.37-.21-.19-.13-.36-.3-.62-.26-.2-.11-.41-.21-.6-.34-.06-.04-.11-.14-.11-.22-.02-.17-.01-.35-.02-.52,0-.18-.06-.34-.21-.45-.21-.15-.18-.37-.13-.55,.08-.3,.2-.6,.53-.75,.05-.02,.1-.07,.13-.11,.17-.31,.47-.43,.77-.51,.26-.06,.49-.16,.7-.32,.07-.05,.15-.09,.23-.13,.83-.44,1.36-1.15,1.74-1.98,.08-.18,.16-.36,.26-.54,.18-.33,.31-.67,.31-1.07,0-.41,.24-1.09,.48-1.46,.13-.2,.18-.42,.3-.62,.05-.08-.03-.27-.12-.28-.37-.06-.74-.16-1.1,.04-.07,.04-.17,.06-.25,.04-.19-.05-.4-.08-.58-.16-.24-.09-.47-.2-.72-.26-.05-.01-.09-.07-.11-.12-.04-.07-.06-.19-.12-.22-.21-.12-.26-.28-.21-.51,.07-.31,.1-.63,.17-.94,.05-.22,.11-.45,.21-.66,.19-.39,.24-.82,.4-1.23,.04-.1,.03-.23,.03-.34,0-.42,.22-.46,.57-.33,.19,.07,.38,.14,.57,.2,.53-.3,1.13-.27,1.69-.4,.13-.03,.29,0,.43,.03,.23,.07,.47,.07,.68,0,.23-.08,.37,0,.55,.13,.42,.31,.9,.36,1.4,.26,.14-.03,.28-.08,.42-.08,.84-.01,1.68-.05,2.51,0,.09,0,.18,0,.26,.02,.68,.21,1.38,.09,2.07,.1,.12,0,.21-.09,.25-.21,.1-.27,.18-.55,.28-.81,.1-.24,.24-.46,.33-.7,.19-.51,.36-1.04,.38-1.59,0-.18,.08-.33,.16-.49,.07-.13,.15-.24,.27-.33,.14-.1,.28-.2,.41-.31,.26-.21,.55-.3,.89-.25,.14,.02,.28,.04,.42,.07,.16,.03,.25,.28,.17,.42-.03,.05-.04,.11-.08,.15-.31,.27-.45,.67-.7,.98-.09,.11-.16,.25-.18,.39-.04,.29-.15,.55-.26,.82-.13,.29-.24,.59-.33,.89-.06,.19-.08,.39-.11,.59-.01,.06,.08,.19,.14,.19,.32,.01,.64,.02,.95,.04,.32,.01,.64,0,.94,.12,.11,.04,.23,.05,.34,.05,.46,0,.92,0,1.39,0,.14,0,.29,0,.42-.08,.08-.04,.17-.06,.25-.03,.48,.21,.98,.32,1.48,.46,.29,.08,.52,.23,.69,.49,.03,.05,.06,.11,.11,.12,.34,.11,.41,.38,.4,.68-.01,.29,.02,.57,.14,.85-.1,.13-.29,.2-.28,.41,0,.03-.02,.06-.02,.08-.05,.33-.23,.6-.49,.79-.23,.17-.5,.28-.81,.24-.36-.04-.7,.04-1.01,.19-.34,.16-.68,.16-1.01,.07-.17-.04-.34-.04-.51-.06-.11-.02-.23-.04-.34-.04-1.1,0-2.2,0-3.29,0-.11,0-.23,.01-.34,.04-.05,.01-.12,.06-.13,.1-.05,.13-.07,.28-.11,.42-.04,.14-.12,.28-.11,.42,.03,.5-.21,.96-.19,1.45,0,.14,0,.29-.05,.43-.08,.25-.12,.5-.13,.77,0,.11-.04,.23-.06,.34-.02,.08-.07,.17-.07,.25,0,.47-.13,.91-.17,1.37-.03,.32-.1,.62-.19,.93-.08,.27-.17,.55-.21,.84-.04,.28-.15,.55-.23,.83-.03,.11-.08,.22-.08,.33,.02,.32-.04,.64-.02,.95,.04,.74-.15,.55,.58,1,.76,.47,1.57,.7,2.43,.83,.34,.05,.68,.13,1.01,.21,.73,.16,1.46,.34,2.19,.49,.06,.01,.11,.02,.17,.04,.27,.09,.54,.2,.82,.27,.25,.06,.52,.04,.77,.08,.17,.03,.34,.02,.51,.07,.27,.08,.57,.11,.85,.15,.28,.04,.55-.14,.85-.12,.08,0,.17-.04,.24-.08,.15-.08,.3-.17,.44-.28,.18-.15,.37-.14,.57-.07,.09,.03,.17-.03,.17-.12,.02-.29,.06-.57,.19-.83,.05-.1,.02-.23,.05-.34,.02-.08,.05-.19,.11-.23,.19-.12,.24-.31,.3-.5,.02-.08,.02-.18,.06-.25,.2-.31,.19-.66,.2-1,0-.19-.07-.33-.16-.48-.09-.14-.06-.23,.12-.34,.11-.06,.2-.13,.2-.25-.02-.42,.17-.78,.34-1.15,.11-.23,.26-.45,.39-.67,.03-.06,.17-.11,.23-.08,.44,.26,.92,.32,1.42,.3,.06,0,.17,.1,.18,.16,0,.03,.01,.06,.02,.08,.07,.38,.03,.75-.15,1.09-.01,.02-.02,.06-.02,.08,.02,.05,.03,.11,.06,.16,.05,.1,.1,.2,.04,.32-.09,.22-.11,.45-.09,.68,.02,.25,.12,.44,.38,.52,.06,.02,.11,.04,.16,.06,.1,.05,.17,.2,.13,.29-.08,.18-.18,.36-.25,.55-.03,.08-.05,.17-.03,.25,.03,.22,.15,.44,0,.67,0,.2,0,.4-.02,.6-.01,.11-.08,.21-.11,.33-.05,.25-.1,.51,.02,.76,.09,.19,.09,.39,0,.58-.06,.12,0,.22,.02,.32,.02,.22-.04,.45,.04,.67-.04,.11-.07,.22-.12,.32-.17,.35-.22,.71-.23,1.09,0,.2,0,.4,0,.61,0,.23-.04,.46-.19,.65-.09,.11-.13,.25-.13,.4,0,.29-.05,.57-.03,.86,.01,.26-.11,.5-.03,.77,.03,.09-.04,.21-.06,.32,0,.02,.04,.07,.05,.06,.16-.07,.32-.14,.46-.23,.55-.34,1.16-.49,1.79-.6,.4-.07,.79-.15,1.18-.23,.06-.01,.1-.05,.16-.07,.06-.03,.12-.16,.09-.22-.18-.37-.17-.79-.26-1.18-.04-.19-.03-.41,0-.6,.12-.81,.11-1.61,.05-2.42-.01-.17-.04-.34,0-.51,.02-.08,.03-.17,.03-.26-.04-.5,.13-.97,.28-1.43,.07-.22,.15-.44,.22-.66,.02-.08,.04-.19,0-.25-.14-.27-.13-.56-.11-.85,0-.11,0-.23,0-.35,.19-.25,.43-.45,.55-.75,.09-.23,.27-.37,.49-.46,.03-.01,.04-.08,.05-.13,0,0-.05-.04-.07-.04-.4,0-.81,0-1.21,0-.35,0-.69,.03-1.03-.1-.05-.02-.12-.01-.17,0-.15,.04-.29,.01-.41-.08-.14-.11-.3-.16-.48-.18-.03,0-.07-.03-.07-.04,0-.05,.01-.11,.04-.14,.06-.06,.14-.1,.21-.15,.11-.07,.13-.17,.1-.3,0-.03,0-.06-.01-.09,.18-.25,.46-.43,.61-.71,.02-.04,.09-.07,.14-.09,.13-.04,.29-.04,.25-.25,0-.02,.02-.05,.04-.06,.28-.07,.54-.2,.84-.21,.37-.02,.73-.19,1.11-.18,.29,0,.39-.2,.48-.42,.01-.03,.02-.05,.03-.08,.06-.28-.03-.59,.23-.81,.13-.26,.26-.51,.39-.77,.32-.31,.47-.72,.66-1.1,.08-.16,.13-.32,.04-.5-.04-.08-.04-.17-.05-.25-.02-.21,.03-.4,.19-.55,.09-.08,.17-.15,.25-.24,.09-.09,.08-.21,.04-.32,.06,.02,.12,0,.15-.05,0-.01-.03-.06-.05-.06-.07,0-.1,.05-.09,.12Zm8.68,10.36h-.01c0-.37,0-.75,0-1.12,0-.09-.06-.17-.13-.2-.15-.07-.3-.17-.48-.18-.17-.01-.35,0-.51-.06-.22-.08-.46-.06-.68-.13-.22-.06-.44-.1-.67-.13-.49-.07-.96-.17-1.43-.32-.11-.03-.22-.05-.34-.06-.06,0-.12,0-.17,0-.16,0-.27,.11-.27,.27-.01,.43-.02,.86-.03,1.3,0,.11,.02,.24-.03,.34-.16,.39-.11,.79-.1,1.2,0,.2,0,.4,0,.61,0,.29-.05,.57-.18,.84-.04,.07-.1,.18-.07,.24,.1,.22-.05,.39-.09,.58-.05,.25-.06,.51-.14,.76-.02,.07,.01,.17,.03,.25,.01,.06,.05,.11,.06,.16,.04,.23,.06,.46-.13,.65-.11,.1-.15,.25-.14,.4,0,.12,0,.23,0,.35,0,.32-.05,.63-.18,.92-.09,.21-.14,.44-.2,.66-.04,.13,.08,.3,.21,.33,.03,0,.06,.02,.08,.02,.41,.03,.79,.15,1.13,.38,.14,.1,.31,.16,.47,.23,.37,.16,.75,.29,1.07,.55,.13,.11,.31,.15,.47,.22,.15,.07,.31,0,.34-.15,.04-.26,.03-.52,.28-.7,.04-.03,.07-.1,.07-.15,0-.18,.12-.32,.18-.48,.09-.21,.22-.41,.2-.65,.17-.37,.15-.79,.29-1.17,.24-.65,.3-1.35,.54-2,.02-.05,.03-.11,.03-.17-.02-.33,.18-.61,.17-.93-.01-.33,.17-.61,.21-.92,.04-.28,.12-.56,.12-.85,0-.29,.02-.58,.04-.86Zm-10.17,.5c.06-.28,.2-.48,.45-.61,.13-.07,.25-.14,.37-.22,.18-.11,.37-.16,.58-.14,.17,.01,.35,.02,.51,.06,.28,.06,.56,.15,.8,.3,.35,.06,.63,.25,.88,.5,.07,.07,.13,.04,.18-.04,.12-.21,.07-.46,.15-.67,.08-.22,.21-.42,.27-.64,.06-.22,.11-.45,.19-.66,.05-.13,.03-.28,.04-.43,0-.15-.08-.28-.23-.33-.08-.03-.17-.08-.25-.07-.26,.02-.5-.1-.76-.1-.2,0-.41,.03-.6-.02-.23-.05-.45-.03-.67,0-.08,.01-.17-.02-.25-.06-.11-.05-.21-.1-.33-.07-.17,.05-.34,.02-.51,0-.29-.03-.58-.02-.87-.03-.03,0-.05,.01-.08,.02-.08,0-.13,.12-.09,.2,.07,.16,.16,.31,.22,.47,.06,.17-.07,.33-.07,.51,0,.17-.01,.35-.02,.52,0,.29-.02,.57-.11,.85-.11,.38-.14,.79-.21,1.19-.08,.43-.06,.86-.14,1.29-.05,.25,0,.52,0,.78,0,.06,.03,.11,.04,.17,.03,.11,.16,.21,.25,.19,.22-.06,.44-.12,.68-.13,.11,0,.23-.03,.33-.08,.25-.12,.51-.09,.76-.05,.14,.03,.28,.1,.42,.1,.2,0,.4-.08,.6-.07,.23,0,.45,.07,.68,.1,.05,0,.12,0,.17-.03,.05-.02,.11-.07,.12-.12,.07-.37,.08-.74,.02-1.11-.01-.07-.06-.1-.12-.09-.26,.02-.51,0-.77,.02-.14,0-.27,.02-.42-.02-.23-.06-.43-.17-.61-.32-.31-.27-.67-.44-1.06-.57-.3-.09-.48-.3-.56-.6Zm1.69,7.08c.11-.05,.22,0,.33,.03,.49,.15,.62-.07,.81-.42,.05-.1,.07-.22,.07-.33,0-.17,.04-.33,.1-.5,.09-.27,.14-.56,.2-.84,.03-.12-.14-.27-.28-.25-.08,.02-.16,.04-.25,.06-.11,.03-.22,.08-.33,.08-.63,.02-1.26,.02-1.89,.04-.15,0-.28-.03-.41-.1-.07-.04-.16-.06-.24-.08-.06-.02-.21,.05-.22,.09-.11,.59-.26,1.18-.49,1.73-.06,.14,.05,.29,.22,.27,.38-.03,.74,.07,1.11,.1,.37,.03,.75,0,1.11,.14,.05,.02,.11-.01,.16-.02Z"/><path class="cls-2" d="M13.56,118.11s-.06,0-.09,0c-.16,.07-.31,.13-.49,.06-.21-.09-.43-.16-.66-.22-.31-.07-.63-.05-.94-.16-.07-.03-.17,0-.25,.02-.25,.06-.49,.13-.72,.26-.43,.23-.86,.47-1.23,.79-.07,.06-.12,.05-.23-.04-.07-.05-.13-.11-.18-.17-.15,.05-.29,.09-.42,.15-.07,.03-.13,.11-.19,.17-.04,.04-.08,.08-.13,.11q-.38,.22-.54,.46s-.05,.03-.08,.04c-.05,.02-.1,0-.12-.08-.04-.2-.09-.39-.18-.58-.03-.05-.04-.11-.08-.15-.06-.06-.13-.15-.2-.15-.27,0-.5-.14-.75-.2-.05-.01-.09-.06-.12-.09,.03-.14,.06-.29,.08-.43,.02-.08,0-.18,.04-.26,.29-.63,.36-1.34,.7-1.94,.08-.15,.2-.28,.29-.42,.05-.07,.06-.17,.11-.23,.32-.3,.48-.72,.78-1.04,.22-.24,.45-.44,.76-.56,.16-.06,.32-.14,.47-.22,.19-.09,.21-.16,.09-.42-.02-.05-.06-.11-.06-.16,0-.04,.05-.11,.09-.12,.24-.03,.46,.02,.64,.19,.09,.09,.21,.11,.32,.05,.85-.45,1.63-.99,2.33-1.65,.11-.1,.18-.22,.24-.36,.08-.18,.17-.37,.29-.53,.26-.35,.4-.77,.71-1.08,.27-.48,.52-.96,.58-1.52,0-.06,.15-.13,.21-.11,.08,.03,.16,.07,.24,.09,.1,.03,.24-.05,.29-.14,.06-.13,.11-.26,.17-.39,.03-.07,.14-.11,.22-.06,.12,.08,.24,.14,.4,.11,.2-.04,.4,0,.59,.08,.27,.11,.53,.22,.81,.29,.23,.05,.4,.24,.5,.45,.06,.11,.13,.18,.24,.23,.07,.03,.08,.07,.05,.14-.02,.05-.04,.12-.02,.15,.05,.07,.11,.15,.18,.17,.59,.14,1.18,.25,1.77,.39,.56,.14,1.11,.31,1.67,.46,.22,.06,.43,.16,.63,.27,.35,.2,.7,.4,1.08,.55,.32,.13,.61,.32,.87,.56,.17,.16,.32,.33,.33,.58,0,.11,.09,.22,.1,.33,.02,.14,.04,.31-.02,.42-.13,.27-.18,.55-.16,.84,.02,.27-.05,.52-.22,.73-.04,.04-.07,.09-.09,.15-.17,.43-.33,.86-.48,1.3-.04,.1-.02,.23-.03,.34,0,.05,.1,.19,.15,.19,.46,.06,.89,.24,1.33,.37,.16,.05,.33,.1,.51,.11,.55,.04,1.07,.25,1.62,.27,.06,0,.12,0,.17,.01,.44,.18,.91,.14,1.37,.16,.11,0,.24,0,.34,.04,.39,.14,.79,.13,1.2,.14,.09,0,.19-.02,.26,.02,.22,.13,.45,.05,.67,.06,.2,0,.4,.05,.6,.07,.23,.02,.46,.02,.69,.02,.69,0,1.39,0,2.08,0,.26,0,.52-.02,.77,.1,.07,.04,.17,.03,.26,.03,.09,0,.18,0,.26,0,.79,.17,1.6,.18,2.4,.3,.23,.03,.46,.04,.69,.04,.46,0,.92,0,1.39,.01,.29,0,.57,.03,.85,.12,.16,.05,.34,.05,.51,.06,.43,.03,.86,.05,1.29,.14,.39,.08,.8,.09,1.19,.18,.19,.04,.4,0,.6,0,.4,.01,.81,.03,1.21,.05,.35,.16,.74,.12,1.1,.21,.45,.12,.92,.06,1.38,.11,.06,0,.12,0,.17-.03,.31-.15,.64-.28,.87-.54,.31-.35,.69-.5,1.14-.51,.06,0,.12,0,.17,0,.12,0,.22,.07,.3,.15,.04,.04,.07,.09,.1,.14,.13,.26,.26,.51,.42,.75,.1,.15,.13,.32,.09,.5-.1,.45-.22,.89-.5,1.28-.29,.39-.56,.81-.82,1.22-.11,.17-.21,.35-.26,.54-.08,.31-.34,.54-.37,.87-.09,.11-.18,.23-.28,.32-.13,.12-.22,.25-.28,.42-.08,.23-.26,.39-.51,.42-.19,.03-.36,.2-.58,.11-.04-.01-.11,.03-.15,.06-.1,.1-.2,.21-.36,.19-.21-.02-.39,.11-.58,.13-.19,.02-.39-.07-.59-.1-.41-.06-.8,.06-1.17,.22-.26,.12-.51,.27-.77,.4-.23,.11-.47,.17-.75,.1-.31-.07-.63-.08-.94-.11-.21-.13-.45-.08-.67-.11-.23-.03-.46-.04-.69,0-.23,.04-.46,.02-.67-.1-.11-.06-.22-.06-.33-.02-.09,.04-.16,.03-.22-.05-.04-.05-.06-.1-.09-.14-.14-.17-.32-.24-.54-.18-.03,0-.05,.02-.08,.03-.12,.04-.22-.03-.32-.08-.14-.07-.06-.19-.06-.29,0-.09-.09-.18-.16-.16-.05,.01-.11,.03-.16,.05-.2,.08-.39,.07-.59,0-.41-.14-.83-.25-1.19-.5-.15-.1-.31-.14-.49-.13-.34,.02-.69-.08-1.03,0-.1,.03-.23,0-.34-.04-.15-.05-.27-.02-.41,.02-.11,.04-.25,.02-.32-.08-.14-.19-.29-.27-.5-.13-.04,.03-.11,.03-.17,.02q-.77-.13-1.26-.05c-.08,.01-.19,0-.24-.05-.14-.12-.28-.2-.46-.13-.22-.1-.45-.1-.68-.12-.13,0-.21-.09-.28-.18-.05-.06-.09-.06-.15-.02-.05,.03-.12,.04-.17,.02-.85-.27-1.73-.4-2.58-.66-.49-.15-1.02-.2-1.48-.45-.05-.03-.11-.04-.17-.04-.58-.05-1.12-.26-1.68-.41-.47-.13-.94-.28-1.42-.35-.09-.01-.17-.03-.25-.06-.4-.18-.82-.25-1.26-.25-.11,0-.23-.04-.34-.06-.22-.04-.39,.02-.51,.22-.03,.05-.05,.12-.09,.14-.15,.06-.24,.14-.16,.31-.05,.07-.08,.17-.15,.2-.21,.1-.29,.26-.3,.48,0,.08-.05,.16-.09,.24-.03,.05-.07,.11-.11,.13-.33,.09-.51,.36-.73,.59-.17,.19-.47,.24-.55,.53-.14,.09-.29,.18-.43,.28-.1,.06-.17,.13-.21,.25-.03,.12-.07,.11-.14-.01-.03-.05-.06-.09-.1-.15-.27,.15-.57,.26-.79,.5h.01c-.16,.16-.29,.34-.39,.56-.03,.08-.09,.15-.19,.15-.19,0-.33,.1-.41,.26-.09,.18-.22,.25-.41,.25-.09,0-.17,0-.26,0-.18,0-.33,.06-.46,.2-.07,.08-.17,.15-.27,.21-.15,.09-.34-.04-.49,.1-.1,.1-.24,.15-.39,.16-.2,.02-.4,.05-.59,.1-.31,.09-.56,0-.78-.23-.02-.02-.03-.05-.05-.07-.13-.13-.16-.14-.3-.08-.13,.06-.26,.12-.39,.17-.08,.03-.19,.01-.23-.05-.13-.26-.35-.45-.51-.68-.13-.2-.28-.35-.5-.45-.09-.04-.14-.21-.1-.31,.07-.16,.14-.31,.1-.49-.05-.22,.03-.39,.24-.5,.08-.05,.11-.19,.08-.23-.04-.04-.08-.09-.13-.1-.25-.06-.5-.11-.75-.17-.29-.06-.36-.23-.23-.5,.05-.1,.1-.21,.17-.3,.09-.12,.21-.2,.35-.23,.14-.03,.29-.02,.43-.04,.17-.03,.34-.07,.5-.13,.27-.1,.53-.21,.82-.26,.2-.03,.38-.14,.53-.27,.24-.22,.51-.36,.79-.51,.55-.31,1.05-.7,1.57-1.06,.19-.13,.38-.27,.49-.48,.08-.16,.29-.19,.33-.38,0-.02-.02-.07-.04-.07-.14,0-.27,0-.41,0-.03,0-.06,0-.09,0-.24-.08-.45-.26-.73-.21-.02,0-.05-.02-.07-.04-.05-.03-.09-.07-.13-.11-.07-.05-.14-.07-.23-.03-.1,.05-.22,.06-.33,.07-.09,0-.16-.06-.18-.15,.08-.04,.09-.07,.04-.06-.01,0-.01,.05-.02,.08Zm3.19-6.56s-.1,.06-.13,.11c-.1,.17-.16,.36-.34,.48-.09,.06-.16,.17-.22,.26-.16,.24-.32,.48-.47,.73-.1,.17-.12,.38-.25,.55-.05,.06,0,.19,.08,.21,.14,.03,.29,.04,.42,.1,.35,.14,.71,.23,1.07,.31,.37,.08,.73,.17,1.1,.22,.37,.05,.74,.14,1.1,.23,.27,.07,.37,.01,.48-.21,.22-.44,.43-.88,.64-1.32,.02-.05,.03-.11,.05-.16,.05-.16,0-.28-.16-.35-.64-.27-1.31-.42-1.97-.6-.08-.02-.17,0-.25,.01-.08,.02-.16,.06-.24,.09-.21,.06-.4,.02-.55-.15-.12-.15-.24-.32-.36-.48Z"/><path class="cls-2" d="M26.21,99.87c-.06,0-.16,.02-.22-.03-.23-.15-.5-.13-.74-.22-.41-.15-.79-.33-1.09-.67-.25-.28-.53-.53-.79-.8-.16-.17-.25-.16-.41,.03-.18,.22-.37,.44-.55,.66-.21,.25-.48,.4-.78,.51-.36,.13-.73,.12-1.11,.16-.46,.04-.85-.09-1.23-.31-.03-.01-.05-.03-.08-.04-.18-.07-.29-.3-.53-.22-.18-.09-.33,.04-.49,.08-.14,.03-.28-.13-.23-.27,.09-.3,.17-.6,.42-.83,.12-.11,.21-.28,.28-.43,.17-.37,.43-.68,.72-.97,.31-.3,.64-.58,.89-.94,.18-.11,.29-.27,.4-.44,.14-.22,.29-.43,.47-.62,.34-.34,.48-.78,.7-1.18,.05-.1,.06-.22,.06-.33,0-.18,.03-.34,.11-.5,.05-.1,.12-.19,.24-.23,.11-.03,.22-.06,.33-.11,.06-.03,.1-.02,.16,0,.14,.04,.28,.1,.42,.08,.5-.07,.96,.13,1.44,.19,.29,.03,.52,.23,.73,.43,.1,.1,.17,.23,.26,.35,.09,.12,.12,.26,.11,.41-.01,.2-.05,.4-.05,.6,0,.29-.06,.57-.22,.82-.04,.07-.04,.16-.06,.24-.02,.12-.07,.22-.16,.3-.19,.18-.36,.38-.45,.63-.08,.22-.27,.37-.38,.57,0,.02,0,.05,0,.07,.01,.02,.04,.04,.06,.06,.72,.43,1.34,.99,2.04,1.45,.24,.16,.43,.38,.64,.58,.13,.13,.14,.38,.05,.57-.01,.03-.03,.05-.05,.07-.27,.17-.55,.31-.91,.3Z"/><path class="cls-2" d="M42.97,92.34s-.09,.03-.13,.03c-.02,0-.03-.03-.05-.05,.05-.01,.09-.03,.14-.04,.01,0,.03,.03,.05,.05Z"/><path class="cls-2" d="M38.17,91.73s.05,.03,.08,.04c-.02-.02-.04-.04-.06-.06l-.02,.02Z"/></g></g><g><polygon class="cls-4" points="155.85 122.06 155.86 122.05 155.86 122.05 155.85 122.05 155.85 122.06"/><path class="cls-4" d="M159.44,120.94c-.07-.01-.13-.02-.2,0-.08,.02-.16,.05-.25,.03-.06-.01-.15,.04-.22,.07-.09,.05-.15,.12-.15,.23,0,.13-.02,.25-.02,.38,0,.15,.06,.21,.21,.22,.08,0,.16,0,.23,0,.18,0,.35,0,.52,.05,.12,.04,.25,.05,.37,.08,.04,0,.09,.02,.13,.05,0-.04,.01-.08,.02-.12,.02-.08,.03-.17,.02-.26-.04-.2-.04-.41-.11-.61-.01-.04-.02-.08-.03-.11-.17,.03-.34,.02-.53-.02Z"/><path class="cls-4" d="M155.84,122.23c0-.07,0-.12,0-.17-.07,.04-.06,.09,0,.17Z"/><path class="cls-4" d="M157.82,118.11s0,.01-.01,.02c0,0,0,0,0,0,0,0,0,0,0,0,0,0,0-.01,0-.02Z"/><path class="cls-4" d="M156.71,116.78s-.01,.01-.02,.02c0,0,0,0,0,0,0,0,0,0,0,0,0,0,0-.01,.01-.02Z"/><path class="cls-4" d="M160.09,122.88s0-.09,0-.14c0-.02,0-.04,0-.06-.04,0-.08,.01-.11,.03-.02,0-.04,.02-.05,.01-.1-.08-.19,.07-.27,.02-.08-.05-.17,.05-.25-.04,.05-.08,.11-.15,.16-.23-.12-.11-.14-.13-.25-.14-.15,0-.29-.01-.43-.05-.06-.01-.12,.04-.11,.1,.06,.23,0,.46,.07,.69,.04,.12,.03,.25,.02,.38,0,.17-.18,.26-.34,.17-.05-.03-.1-.05-.15-.07-.26-.1-.36-.18-.52-.47-.03-.06-.08-.1-.12-.15-.19,.25-.39,.48-.69,.58-.14,.05-.18,.03-.25-.1-.02-.04-.05-.08-.07-.12,.02-.23,.15-.39,.35-.5,.11-.06,.19-.17,.26-.27,.09-.12,.18-.25,.26-.38,.05-.08,.08-.18,.13-.26,.07-.11,.15-.22,.23-.33,.03-.05,.05-.1,.08-.17-.15-.02-.26,.06-.37,.12-.12,.06-.25,.11-.31,.24-.11-.01-.2-.04-.28-.1-.01-.08,.03-.15,.07-.21,.34-.05,.64-.22,.93-.38,.09-.13,.02-.29,.05-.43,0-.03-.04-.09-.07-.11-.08-.05-.17-.09-.26-.13-.04-.02-.05-.09-.01-.12,.03-.03,.08-.05,.12-.07,.05-.02,.11-.03,.17-.05,.11-.04,.18-.12,.16-.25,0-.08,0-.16,0-.23,0-.06-.02-.11-.09-.14-.04-.02-.06-.06-.03-.1,.02-.03,.05-.06,.09-.07,.1,0,.2-.01,.29,0,.17,.02,.27,.15,.27,.32,0,.04-.01,.08-.02,.12,0,.03,0,.05,0,.1,.08,.02,.15,.04,.22,.06,.1,.03,.13,.14,.05,.21-.05,.05-.1,.09-.17,.11-.08,.03-.13,.08-.14,.17-.03,.11-.1,.21-.04,.35,.06-.01,.13-.02,.19-.04,.06-.02,.12-.07,.18-.09,.06-.02,.13,.02,.2-.01,.19-.09,.38-.03,.57,.01,.08,.02,.16,.05,.25,.08,0-.02,.02-.04,.03-.06,.05-.08,.08-.15,.07-.24,0-.17,.04-.33,.12-.48,.06-.11,.08-.22,.1-.34,.03-.13,.04-.27,.06-.4,.01-.09,.04-.17,.05-.25,.04-.32,.08-.64,.09-.96,0-.17-.01-.34-.07-.51-.07-.2-.15-.4-.18-.61,0-.07-.06-.14-.1-.21-.06-.11-.17-.19-.28-.26-.11-.07-.15-.17-.15-.29,0-.02,0-.05,0-.07-.09-.15-.18-.29-.25-.45-.01-.03-.03-.06-.06-.07-.1-.07-.2-.15-.31-.21-.31-.17-.42-.24-.69-.49-.05-.04-.09-.09-.15-.12-.19-.08-.38-.15-.6-.14-.19,.01-.38,.02-.56,.06-.23,.05-.45,.09-.68,.07-.04,0-.08,0-.12,0-.1,0-.2,0-.3-.04-.07-.03-.15-.04-.23-.04-.16,0-.32-.04-.46,.07-.04,.03-.07,0-.11,0-.25-.03-.3-.02-.5,.07-.14,.06-.27,.14-.35,.27-.04,.05-.06,.11-.09,.17-.08,.19-.19,.36-.3,.54-.07,.11-.15,.2-.22,.31-.12,.19-.27,.34-.44,.49-.1,.09-.2,.18-.26,.31-.07,.16-.15,.32-.21,.48-.02,.06-.04,.12-.05,.18-.02,.16-.07,.31-.05,.47,0,.07-.01,.14-.03,.21-.05,.23-.1,.46-.16,.69-.02,.08-.03,.16-.04,.24,.04-.07,.09-.12,.17-.14,.05-.01,.1-.04,.14-.06,.29-.18,.58-.37,.88-.55,.1-.06,.22-.1,.34-.13,.15-.04,.23-.12,.28-.25,.12-.33,.24-.66,.31-1.01,.03-.14,.03-.28-.03-.42-.02-.04-.03-.09,.02-.12,.05-.03,.11-.03,.15,.01,.04,.04,.09,.1,.09,.16,0,.18,0,.35-.01,.53-.02,.16-.06,.31-.1,.47-.03,.11-.07,.22-.11,.33,.08,.08,.17,.09,.28,.08,.04-.1,.03-.21,.05-.31,0-.01,.02-.04,.03-.04,.02,0,.06,0,.07,.02,.04,.08,.08,.16,.11,.24,.04,.1,.06,.2,.09,.29-.04,.14-.07,.27-.12,.41-.05,.13-.11,.26-.16,.4,0,.05,.03,.09,.09,.11,.12,.03,.2,.1,.25,.21,.04,.09,.12,.15,.18,.23,.02,.03,.04,.08,.05,.11-.08,.1-.18,.11-.27,.08-.12-.03-.23-.07-.35-.1-.08-.02-.15-.09-.21-.14-.13,.06-.26,.13-.39,.17-.14,.04-.29,.06-.43,.11-.05,.02-.12-.02-.18-.03,.12-.15,.27-.23,.43-.3,.11-.05,.2-.11,.28-.21-.05-.03-.09-.07-.14-.07-.1,0-.18-.06-.28-.02-.03,.02-.11-.05-.11-.09-.01-.13-.03-.27,.08-.37,.03-.03,.05-.07,.07-.11,.02-.04,.03-.08,.04-.12-.16-.02-.29,.02-.4,.14-.14,.17-.36,.26-.52,.4-.05,.05-.12,.08-.17,.13-.15,.15-.31,.18-.51,.08,0,.03,0,.06,0,.09,0,.16,.02,.33,0,.49-.01,.15-.01,.31,.05,.46,.01,.04,.02,.08,.03,.12,.07,.3,.14,.6,.27,.88,.07,.16,.1,.33,.12,.51,.02,.13,.01,.27,.02,.4,.02,.19,.08,.48,.16,.63,.08,.15,.16,.29,.26,.43,.07,.09,.13,.18,.18,.28,.08,.15,.19,.26,.32,.35,.18,.12,.37,.22,.57,.29,.13,.05,.26,.11,.39,.17,.15,.07,.3,.16,.4,.29,.21,.27,.52,.37,.8,.53,.1,0,.17,.09,.26,.1,.19,.03,.33,.14,.48,.22,.01,.05,.02,.09,.03,.14,.12,.02,.22,.03,.32,0,.07-.03,.14-.02,.21,0,.06,.02,.13,.03,.19,.02,.22-.04,.44-.06,.63-.2,.06-.04,.13-.06,.17-.12,.06-.07,.14-.03,.22-.04,.01,0,.03-.01,.04-.02,.1-.04,.18-.1,.26-.17,.14-.13,.25-.28,.33-.46,.02-.04,.03-.07,.07-.09,.27-.16,.46-.41,.65-.65,.07-.09,.14-.21,.11-.35,0-.04,0-.08,.01-.12,.03-.13,.03-.27,0-.4,0-.05,0-.09,0-.14Zm-4.33-4.66c.34-.09,.68-.18,1.04-.28,0-.03-.01-.06-.03-.08-.05-.06-.14-.08-.17-.16,0-.02-.06-.02-.09-.03-.04-.01-.08-.02-.14-.03,.02-.07,.03-.13,.05-.19,.03-.07,.07-.14,.12-.21,.09-.13,.15-.27,.15-.43-.03,0-.07,0-.1,.02-.05,.02-.09,.06-.13,.09-.21,.12-.47,.16-.7,.02,0-.04,.02-.06,.06-.07,.17-.03,.32-.1,.46-.19,.14-.09,.29-.16,.43-.25,.15-.1,.32-.14,.5-.04,.08,.04,.16,.07,.24,.11,.07,.03,.11,.09,.11,.17,0,.08-.02,.15-.07,.22-.12,.16-.24,.33-.37,.49-.07,.09-.16,.18-.25,.28,.09,.07,.18,.14,.27,.21,.16-.01,.33-.06,.49,0,.03,.01,.07,0,.1,0,.25-.08,.46-.02,.66,.14,.08,.06,.16,.11,.19,.21-.02,.08-.1,.12-.16,.1-.2-.05-.38,.03-.56,.1-.1,.04-.17,.03-.25-.04,.06-.08,.12-.16,.18-.24-.15-.06-.3-.09-.45-.03-.05,.09-.01,.16,.02,.23,.12,.32,.16,.65,.17,.98,0,.21-.09,.37-.22,.52-.02,.02-.05,.04-.07,.03-.08-.05-.15,.02-.22,.03-.05,0-.1,0-.15,0-.09,0-.18-.02-.28,.02-.18,.08-.32-.05-.46-.12-.01,0-.02-.03-.03-.04-.03-.11-.06-.21-.09-.34,.05,0,.09,0,.13,.02,.11,.04,.21,.01,.31-.04,.15-.08,.28-.18,.39-.31,.08-.09,.14-.2,.14-.33,0-.13,0-.26,0-.4,0-.03-.02-.06-.04-.1-.19,0-.36,.08-.54,.11-.18,.03-.33,.1-.48,.18-.11-.03-.19-.08-.25-.18,.02-.04,.03-.09,.05-.15Zm.35,4.47c-.1-.11-.18-.21-.27-.32,0,.1,.05,.18-.03,.25-.07,.05-.11,.13-.18,.2-.12-.08-.21-.15-.31-.2-.05-.02-.11,0-.13-.08-.04-.23-.16-.43-.25-.65,.19-.37,.38-.75,.66-1.08,.08,.05,.11,.13,.11,.22,0,.09,.02,.17,.09,.25,.07,0,.14,0,.22,.01,.12,.01,.22,.04,.32,.12,.1,.08,.14,.07,.22-.02,.03-.04,.05-.11,.12-.1,.09,.02,.12,.08,.15,.16,.07,.21,.02,.4-.1,.58-.07,.1-.15,.2-.21,.31-.09,.16-.22,.26-.4,.34Z"/><path class="cls-4" d="M155.86,122.05s.05,0,.01-.04c0,.01,0,.02-.01,.04Z"/><path class="cls-4" d="M158.06,122.06c-.07,.28-.22,.47-.24,.7q.24,.11,.4,.09s.02-.07,.02-.11c-.01-.16-.02-.33-.05-.49,0-.05-.06-.09-.13-.19Z"/><path class="cls-4" d="M154.76,118.8c.04-.1,.08-.21,.11-.32,.01-.04,.02-.09-.03-.13h-.21c-.14,.11-.23,.25-.29,.42,.09,.04,.17,.1,.27,.1,.07,0,.12-.02,.15-.08Z"/></g><g><path class="cls-3" d="M64.23,45.07c-.32-.63-.68-1.24-1.04-1.85-.17-.29-.44-.42-.77-.29-.32,.13-.45,.39-.37,.73,.02,.07,.04,.14,.06,.21,.03,.09,.07,.18,.11,.26,.08,.17,.17,.34,.25,.5,.22,.44,.45,.88,.67,1.32,.83,1.54,2.15,3.61,4.03,5.2,.56,.41,1.06,.76,1.54,1.14,.02,.01,.03,.03,.05,.04,2.47,1.61,4.52,1.98,4.61,2,.2-.01,.35-.12,.46-.34,.15-.3,.1-.58-.16-.77-.21-.15-.45-.26-.69-.36-1.29-.51-2.59-.98-3.74-1.82-2.18-1.59-3.78-3.62-5-5.99Z"/><path class="cls-3" d="M72.65,40.05c.18-.07,.34-.19,.41-.37,.07-.17,.03-.37,0-.55-.02-.11-.05-.23-.14-.3,0,0-.02-.02-.03-.02-.04-.03-.09-.05-.13-.07-.5-.22-1.04-.2-1.57-.31-.3-.06-.6-.12-.9-.18-.37-.07-.73-.21-1.11-.2-.2,0-.37,.06-.54,.16-.11,.07-.37,.19-.4,.33-.03,.18,.37,.31,.51,.38,.18,.08,.35,.17,.53,.25,.45,.21,.9,.43,1.36,.62,.61,.25,1.34,.53,2.01,.28Z"/><path class="cls-3" d="M85.16,36.69c.03-.35-.33-.45-.61-.46-1.63-.06-3.14,.66-4.31,1.75-.13,.12-.26,.25-.34,.4-.13,.23-.1,.46-.01,.7,.29,.8,1.31,.96,1.95,.49,.29-.21,.48-.54,.51-.87,.02-.01,.04-.02,.05-.04,.08-.09,.17-.17,.26-.25,.05-.04,.1-.09,.14-.13,0,0,.02-.02,.02-.02,.02-.01,.03-.03,.05-.04,.19-.16,.4-.3,.61-.44,.02-.02,.05-.03,.07-.05,0,0,.01,0,.03-.02,.01,0,.03-.02,.04-.02,.03-.02,.06-.04,.09-.05,.11-.06,.21-.11,.32-.17,.03-.01,.05-.02,.08-.04,.02,0,.1-.04,.03-.01,.02,0,.03-.01,.04-.02,.03-.01,.05-.02,.08-.03,.12-.05,.24-.09,.36-.13,.08-.03,.34-.15,.4-.27,.07-.08,.12-.17,.13-.28Z"/><path class="cls-3" d="M83.98,40.53c-.56,0-1,.44-1,1,0,.55,.45,1,1,1,.56,0,1-.44,1-1,0-.56-.44-1-1-.99Z"/><path class="cls-3" d="M69.04,42.52c0,.54,.43,.99,.96,.99,.56,0,.99-.44,.98-1.01,0-.54-.45-.98-.97-.98-.52,0-.97,.46-.97,1Z"/><path class="cls-3" d="M113.61,49.44c-.18-1.9-1.23-2.71-2.68-3.77-2.11-1.56-4.4-2.93-6.73-4.13-2.17-1.12-4.34-2.35-6.54-3.44,.09,0,.19,0,.29,0,.66-.11,1.24-.4,1.62-.94,.29-.4,.52-.82,.99-1.05,.14-.07,.26-.22,.35-.37,0-.01,.01-.02,.02-.03,.43-.72,.76-1.48,.73-2.36,0-.1,.02-.23,.06-.33,.02-.04,.04-.07,.06-.09,.29-.27,.55-.55,.76-.86,.65-.92,.95-2,1.08-3.14,.29-2.51-.45-4.65-2.39-6.33-.17-.15-.2-.27-.16-.5,.34-1.82,.06-3.53-.95-5.1-.22-.35-.43-.68-.52-1.12-.29-1.45-1.11-2.56-2.34-3.38-.14-.1-.27-.24-.36-.39-.46-.74-.98-1.44-1.72-1.91-.62-.39-1.34-.63-2-.97-.18-.09-.38-.26-.45-.44-.32-.76-.79-1.37-1.53-1.76-.38-.2-.65-.48-.85-.88-.16-.32-.35-.66-.6-.9-.87-.82-1.9-1.36-3.09-1.55-.13-.02-.27-.09-.36-.18-.44-.43-.84-.89-1.3-1.3-.54-.47-1.17-.75-1.9-.82-.48-.05-.99,.02-1.43-.31-.3-.23-.64-.41-.98-.57-.94-.45-1.9-.42-2.84,.01-.26,.12-.46,.11-.72,0-.96-.46-1.97-.79-3-.27-.74,.37-1.43,.72-2.3,.77-.98,.06-1.86,.55-2.64,1.17-.1,.08-.27,.17-.38,.14-1.21-.26-2.24,.11-3.06,.98-.44,.47-.89,.72-1.54,.63-.17-.03-.36,.03-.54,.07-1.77,.4-3.41,1.01-4.43,2.67-.19,.31-.5,.6-.82,.78-.56,.3-1.19,.46-1.74,.76-.61,.33-1.09,.77-1.44,1.29-.35,.51-.59,1.11-.71,1.79-.04,.21-.09,.41-.21,.59-.04,.06-.1,.11-.16,.16-.55,.4-.99,.89-1.36,1.45-.12,.18-.24,.38-.35,.57-.57,1.05-.77,2.18-.69,3.37,0,.11,0,.2-.04,.27-.04,.07-.11,.12-.21,.18-.31,.16-.62,.36-.85,.61-.37,.4-.69,.82-.96,1.25-.79,1.29-1.06,2.72-.56,4.37,.06,.21,0,.52-.12,.72-.5,.85-.78,1.78-.86,2.74-.1,1.23,.03,2.45,.29,3.67,.43,1.97,1.53,3.35,3.44,4.08,.13,.05,.22,.28,.28,.45,.15,.46,.19,.96,.41,1.37,.22,.4,.47,.79,.73,1.18h0s.12,.27,.41,.62c.13,.15,.29,.32,.49,.49-2.07,1.09-4.21,2.02-6.29,3.09-1.97,1.01-4.45,2.03-6.14,3.48-3.02,2.59-3.3,7.31-1.95,10.9,.31,.81,1.62,.46,1.31-.36-.59-1.57-.55-3.41-.63-5.08-.15-2.83,2.09-4.57,4.34-5.73,3.57-1.83,7.28-3.52,10.77-5.5,.03,0,.04-.01,.05-.03,.65,.27,1.47,.52,2.44,.66,.28,.03,.56,.06,.84,.07,.06,0,.11,.01,.15,.02,.99,.05,2.11-.02,3.34-.31,.92-.37,1.73-.89,2.39-1.59,.01-.01,.02-.03,.04-.04,.1-.11,.2-.23,.3-.36,.07-.09,.13-.17,.19-.26,.05-.08,.11-.15,.16-.23,.13-.2,.25-.42,.35-.64,.11-.24,.27-.46,.35-.7,.03-.08,.06-.14,.09-.19,.14-.18,.34-.22,.6-.21,.44,.01,.91,.04,1.33-.08,1.12-.31,2.04-.87,2.72-1.71,.1-.13,.2-.26,.29-.4,.03-.04,.05-.09,.08-.13,.06-.11,.13-.21,.19-.33,0-.02,.02-.03,.03-.05,.03,0,.05,0,.08,.01,1.23,.81,2.75,1.03,4.28,.82,.15-.02,.3-.05,.45-.08,.42-.04,.83-.15,1.2-.34,.51-.19,1-.44,1.42-.76,.25,.03,.51,.04,.76,.02,.06,0,.12-.01,.18-.02,.62,.05,1.29-.09,1.86-.38,.18-.01,.35-.04,.53-.07,.85,.85,1.89,1.44,3.31,1.52,.32,.02,.46,.17,.53,.46,.32,1.17,.99,2.1,1.93,2.87,.59,.48,1.25,.74,2,.73,.36,0,.46,.14,.54,.45,.11,.48,.19,.98,.6,1.34,.06,.05,.11,.1,.16,.15,.13,.1,.27,.19,.41,.27-.24,.55-.47,1.11-.68,1.68-1.04,2.8-2.52,5.26-4.65,7.26-1.13,1.06-2.45,1.72-3.77,2.42-.25,.13-.49,.28-.7,.47-.26,.24-.28,.56-.09,.88,.14,.24,.31,.35,.52,.34,.09-.03,2.22-.65,4.67-2.72,.02-.02,.03-.03,.05-.05,.47-.48,.97-.93,1.51-1.44,1.82-1.98,3-4.45,3.71-6.27,.19-.52,.38-1.04,.56-1.56,.09-.26,.16-.47,.21-.64,.12-.14,.24-.28,.36-.42,.24-.27,.47-.56,.73-.81h0s.48-.69,1.42-1.21c1.75,.84,3.38,1.89,5.11,2.77,1.99,1.01,3.97,1.94,5.88,3.1,1.75,1.07,4.84,2.36,5.5,4.45,.68,2.14,0,5.41-.45,7.52-.18,.86,1.03,1.19,1.31,.36,.04-.11,.08-.23,.11-.34,.04-.13,.04-.24,.02-.34,.42-2.2,.66-4.51,.45-6.72Z"/><path class="cls-3" d="M88.94,59.94c.13-.69-.15-1.14-.67-1.51-.82-.59-1.7-1.05-2.69-1.27-.57-.13-1.16-.22-1.75-.27-.33-.03-.57,.18-.61,.55-.04,.39,.23,.49,.52,.57,.62,.17,1.25,.3,1.86,.51,.57,.19,1.12,.43,1.66,.69,.32,.16,.33,.38,.05,.57-.39,.28-.79,.6-1.23,.75-1.18,.39-2.4,.69-3.59,1.04-.26,.08-.39-.03-.37-.28,.03-.61,.02-1.24,.14-1.84,.28-1.39,.17-2.71-.47-3.99-.26-.51-.49-1.04-.72-1.57-.35-.82-.06-2.09,.58-2.71,.21-.21,.4-.46,.53-.73,.31-.64,.15-1.33-.37-1.79-.54-.48-1.28-.55-1.87-.18-.4,.25-.55,.63-.4,.96,.15,.31,.45,.4,.92,.28,.19-.05,.38-.06,.64-.09-.18,.66-.6,.93-1.09,1.11-.79,.29-1.61,.25-2.42,.16-.97-.11-1.9-.3-2.34-1.37-.13-.32-.58-.36-.86-.15-.31,.24-.36,.56-.17,.88,.23,.38,.52,.72,.77,1.09,.07,.11,.13,.29,.09,.4-.45,1.38-.29,2.69,.38,3.96,.28,.53,.61,1.04,.89,1.58,.34,.67,.37,1.35,.03,2.04-.22,.45-.41,.92-.62,1.4-1.73-1.27-3.51-2.56-5.29-3.87,.61-.48,.7-.7,.5-1.2-.31-.79-.6-.98-1.35-.93-.42,.03-.84,.08-1.26,.06-.22,0-.47-.08-.65-.21-.7-.51-1.38-1.05-2.07-1.59-.67-.53-1.33-1.08-2.01-1.59-.47-.36-1.01-.18-1.1,.35-.06,.34,.16,.56,.4,.76,.92,.72,1.84,1.45,2.76,2.17,.09,.07,.16,.15,.25,.22-.02,.03-.03,.07-.05,.1-.26-.09-.56-.14-.79-.28-.94-.6-1.87-1.23-2.8-1.84-.38-.25-.76-.52-1.16-.75-.32-.19-.65-.12-.85,.14-.21,.27-.18,.64,.09,.89,.12,.12,.27,.2,.42,.3,.38,.25,.75,.49,1.13,.74-.36,.04-.7,0-1.04-.02-.56-.05-.88,.14-1.07,.67-.18,.49-.34,.99-.49,1.49-.1,.34-.3,.57-.62,.72-.15,.07-.3,.15-.44,.22-.05-.2-.19-.39-.44-.47-1.24-.44-2.35-1-3.61-.35-.5,.26-.91,.72-1.28,1.25-.08-.04-.17-.06-.28-.06-1.27,0-2.43,.14-3.63,.6-1.64,.63-2.71,1.71-4.61,1.56-.88-.07-.87,1.29,0,1.36,1.06,.08,2.43-.09,3.36-.65,1.47-.88,2.69-1.4,4.34-1.49-.18,.31-.36,.6-.54,.85-.51,.71,.67,1.39,1.17,.69,.6-.84,1.1-1.75,1.76-2.54,.7-.84,1.62-.45,2.47-.09-.15,.08-.31,.16-.46,.24-.23,.12-.37,.28-.42,.45-.91,.83-1.24,2.01-1.41,3.27-.36,2.68-.05,5.39-.47,8.09-.13,.86,1.18,1.23,1.31,.36,.3-1.92,.41-3.82,.4-5.76,0-1.64-.22-4.22,1.4-5.2,.14-.08,.23-.19,.28-.31,.65-.31,1.29-.63,1.93-.96,.48-.25,.85-.6,.97-1.17,.08-.38,.23-.75,.35-1.13,.07-.21,.16-.33,.43-.26,.33,.08,.68,.09,1.01,.16,1.66,.33,3.32,.72,5.04,.49,.14-.02,.29,.09,.54,.17-.25,.12-.37,.19-.5,.24-.93,.41-1.85,.82-2.78,1.22-.37,.16-.62,.43-.71,.79-.05,.2,.03,.48,.14,.67,.15,.24,.42,.25,.67,.12,.41-.2,.82-.41,1.24-.61,.14-.07,.3-.12,.49-.2-.58,1.87-1.13,3.68-1.7,5.48-.06,.17-.22,.35-.39,.45-.32,.2-.69,.33-1.01,.54-.76,.52-1.49,.56-2.27,.02-.41-.29-.87-.24-1.3,.03-.86,.53-1.74,1.04-2.59,1.58-.23,.14-.46,.34-.58,.57-.09,.17-.05,.46,.05,.64,.06,.11,.33,.17,.5,.15,.19-.02,.37-.12,.54-.22,.58-.33,1.15-.68,1.73-1.02,1.06-.62,1.07-.62,2.14,0,.42,.25,.79,.24,1.22,0,.73-.41,1.48-.79,2.25-1.13,.51-.22,.8-.56,.92-1.09,0,0,.14-.45,.31-1.02,.14-.47,.31-1.02,.44-1.47,.1-.33,.18-.59,.22-.72,.06-.2,.13-.41,.19-.61,.24-.77,.48-1.56,.74-2.39,.66,.41,1.27,.78,1.87,1.18,1.45,.95,2.89,1.91,4.33,2.87,.1,.06,.2,.12,.3,.18,0,.03-.01,.07-.02,.1-.08,.02-.17,.04-.25,.05-.7-.05-1.4-.1-2.1-.15,0,0-.02,0-.03,0-.41-.06-2.55-.12-2.94-.4,.19-.32,.42-.62,.69-.9,.6-.64-.36-1.6-.96-.96-.81,.86-1.3,1.8-1.57,2.94-.19,.8,.05,1.52,.38,2.22,.13,.45,.34,.96,.65,1.55,.23,.44,.44,.85,.64,1.26,.85,1.08,1.91,1.93,3.26,2.42,.33,.12,.66,.26,.99,.38,.27,.1,.42,.28,.46,.57,.09,.64,.22,1.27,.3,1.91,.08,.74,.45,1.24,1.12,1.54,.12,.05,.23,.12,.35,.17,1.66,.71,3.39,.81,5.15,.6,.45-.05,.88-.15,1.29-.3,.67-.23,1.29-.59,1.83-1.1,.1-.1,.2-.19,.3-.3,.38-.41,.56-.88,.53-1.44-.02-.54-.03-1.08-.07-1.62-.03-.34,.08-.51,.4-.66,1.39-.66,2.4-1.76,3.04-3.09,.93-1.94,1.31-4.04,1.15-6.21-.03-.42-.14-.85-.07-1.25Zm-9.84-7.68c.18-.02,.37-.02,.58-.04-.04,.37-.18,.75-.1,1.08,.16,.64,.41,1.26,.67,1.87,.31,.73,.81,1.39,.87,2.22,.03,.44,.04,.89-.02,1.33-.15,1.04-.36,2.07-.14,3.15-.41,.09-.76,.15-1.1,.23-.27,.07-.39-.04-.34-.3,.1-.57,.15-1.15,.33-1.69,.57-1.63,.27-3.15-.48-4.63-.18-.35-.41-.67-.57-1.03-.18-.41-.35-.85-.43-1.29-.1-.52,.2-.85,.74-.9Zm-2.81,2.05c-.18-.53-.17-1.14-.15-1.71,.01-.56,.3-.65,1.07-.39-.36,1.21,.04,2.25,.66,3.25,.49,.78,.88,1.62,.97,2.55,.04,.35,.05,.73-.06,1.05-.37,1.05-.58,2.12-.51,3.36-.22-.07-.43-.08-.54-.19-.59-.54-.74-1.34-.33-2.04,.81-1.39,.65-2.72-.15-4.05-.36-.59-.74-1.19-.95-1.84Zm4.03,20.29c-1.39,.16-2.76,.08-4.09-.37-.11-.04-.23-.07-.33-.12-.4-.17-.71-.39-.74-.9-.02-.46-.16-.92-.23-1.34,1.4,.12,2.76,.36,4.1,.31,1.35-.06,2.69-.41,4.07-.64,.02,.42,.07,.89,.05,1.36,0,.19-.14,.4-.27,.54-.69,.74-1.58,1.07-2.56,1.18Z"/></g><g><path class="cls-1" d="M34.76,153.9l.82-6.05h.09l2.32,4.96,2.3-4.96h.09l.82,6.05h-.56l-.56-4.33-2.02,4.33h-.15l-2.04-4.36-.56,4.36h-.55Z"/><path class="cls-1" d="M42.52,147.85h.58v2.27l2.28-2.27h.77l-2.74,2.71,2.95,3.33h-.76l-2.5-2.82v2.82h-.58v-6.05Z"/><path class="cls-1" d="M47.42,147.85h.58v2.27l2.28-2.27h.77l-2.74,2.71,2.95,3.33h-.76l-2.5-2.82v2.82h-.58v-6.05Z"/><path class="cls-1" d="M54.74,147.85h1.14c.63,0,1.06,.03,1.29,.08,.34,.08,.61,.26,.83,.53,.21,.27,.32,.6,.32,1,0,.33-.07,.62-.22,.87-.15,.25-.35,.44-.63,.57-.27,.13-.65,.19-1.12,.2l2.05,2.81h-.71l-2.05-2.81h-.32v2.81h-.57v-6.05Zm.57,.59v2.06h.98c.38,0,.66-.03,.85-.11s.33-.2,.43-.37c.1-.17,.15-.36,.15-.57s-.05-.39-.16-.55c-.1-.17-.24-.29-.41-.36s-.45-.11-.84-.11h-1.01Z"/><path class="cls-1" d="M62.06,147.85l2.66,6.05h-.62l-.9-1.99h-2.46l-.89,1.99h-.64l2.7-6.05h.14Zm-.07,1.29l-.98,2.19h1.95l-.97-2.19Z"/><path class="cls-1" d="M65.55,153.9l.82-6.05h.09l2.32,4.96,2.3-4.96h.09l.82,6.05h-.56l-.56-4.33-2.02,4.33h-.15l-2.04-4.36-.56,4.36h-.55Z"/><path class="cls-1" d="M73.31,147.85h3.27v.59h-2.7v1.9h2.68v.59h-2.68v2.38h2.68v.59h-3.25v-6.05Z"/><path class="cls-1" d="M77.77,153.9v-6.05h.12l3.8,4.64v-4.64h.56v6.05h-.13l-3.77-4.58v4.58h-.59Z"/><path class="cls-1" d="M88.05,152.77l.48-.31c.34,.67,.74,1,1.18,1,.19,0,.37-.05,.54-.14s.3-.22,.38-.38,.13-.33,.13-.51c0-.2-.06-.4-.19-.6-.18-.27-.5-.59-.98-.97s-.77-.66-.89-.83c-.2-.29-.3-.59-.3-.93,0-.26,.06-.5,.18-.72,.12-.22,.29-.39,.5-.51s.45-.19,.7-.19c.27,0,.52,.07,.75,.21,.23,.14,.48,.4,.74,.78l-.47,.38c-.21-.3-.4-.5-.55-.6s-.32-.14-.49-.14c-.23,0-.42,.07-.56,.22-.15,.15-.22,.33-.22,.55,0,.13,.03,.26,.08,.38,.05,.12,.15,.26,.28,.4,.08,.08,.32,.28,.74,.61,.49,.39,.83,.73,1.02,1.03,.18,.3,.28,.6,.28,.91,0,.44-.16,.82-.47,1.14s-.7,.49-1.15,.49c-.35,0-.66-.1-.94-.29-.28-.2-.54-.52-.78-.99Z"/><path class="cls-1" d="M92.23,148.44v-.59h3.13v.59h-1.27v5.46h-.58v-5.46h-1.27Z"/><path class="cls-1" d="M96.4,147.85h.57v3.65c0,.43,0,.7,.02,.81,.03,.24,.09,.44,.2,.6s.26,.29,.48,.4c.21,.11,.43,.16,.65,.16,.19,0,.37-.04,.54-.13s.32-.2,.43-.35c.12-.15,.2-.33,.26-.55,.04-.15,.06-.47,.06-.95v-3.65h.57v3.65c0,.54-.05,.98-.15,1.31s-.3,.62-.6,.87c-.3,.25-.66,.37-1.08,.37-.46,0-.85-.12-1.18-.35-.33-.23-.55-.54-.66-.93-.07-.24-.1-.66-.1-1.27v-3.65Z"/><path class="cls-1" d="M101.78,153.9v-6.05h1.18c.85,0,1.47,.07,1.86,.22,.55,.21,.99,.56,1.3,1.07,.31,.51,.47,1.11,.47,1.81,0,.61-.12,1.14-.37,1.6-.25,.46-.57,.8-.96,1.02-.39,.22-.95,.33-1.66,.33h-1.82Zm.55-.57h.66c.79,0,1.34-.05,1.64-.16,.43-.15,.77-.41,1.01-.8,.25-.38,.37-.86,.37-1.41,0-.58-.13-1.08-.4-1.5-.27-.41-.64-.7-1.11-.85-.36-.12-.95-.17-1.77-.17h-.4v4.89Z"/><path class="cls-1" d="M107.81,147.85h.57v6.05h-.57v-6.05Z"/><path class="cls-1" d="M112.61,147.7c.86,0,1.59,.31,2.17,.92,.58,.61,.87,1.36,.87,2.26s-.29,1.64-.87,2.25c-.58,.62-1.29,.93-2.13,.93s-1.56-.31-2.14-.92c-.58-.61-.87-1.36-.87-2.23,0-.58,.13-1.12,.4-1.62s.63-.88,1.08-1.17c.46-.28,.95-.42,1.49-.42Zm.02,.59c-.42,0-.82,.12-1.2,.35s-.67,.55-.89,.94c-.21,.4-.32,.84-.32,1.32,0,.72,.23,1.33,.71,1.82s1.04,.74,1.7,.74c.44,0,.85-.11,1.23-.34,.38-.23,.67-.54,.88-.93,.21-.39,.32-.83,.32-1.32s-.11-.91-.32-1.3c-.21-.39-.51-.7-.89-.93-.38-.23-.79-.35-1.22-.35Z"/></g></g></g></svg>