<?xml version="1.0" encoding="UTF-8"?><svg id="_圖層_2" xmlns="http://www.w3.org/2000/svg" viewBox="0 0 196.89 33.65"><defs><style>.cls-1{fill:#0e2c50;}</style></defs><g id="_圖層_1-2"><g><path class="cls-1" d="M11.4,1.49L2.69,16.66l8.49,15.03-1.96,1.42L0,16.66,9.29,.11l2.11,1.38Z"/><path class="cls-1" d="M30.64,17.93c-1.71,0-3.59-.73-3.59-2.29,0-1.27,1.42-2.07,2.4-2.07,1.56,0,7.41,2.03,7.41,3.41,0,.83-1.34,.94-6.21,.94Zm2.11,12.27c-.69,.62-1.16,.87-2.32,.87-.44,0-2.43-.4-2.43-2.36,0-.44,.54-1.23,1.12-1.53,1.42-.69,3.7-1.67,5.08-2.36,1.02-.47,2.94-1.42,3.19-1.42,.11,0,.4,.11,.4,.51,0,.73-2.54,4.07-5.05,6.28Zm3.12-21.56c-1.02,0-6.5-.83-6.5-3.08,0-1.23,1.2-2.03,2.4-2.03,2.25,0,5.12,3.38,5.12,4.46,0,.51-.47,.65-1.02,.65Zm20.29,4.9c.54-1.02,1.49-1.6,2.18-1.6,1.13,0,2.65,1.27,2.65,2.36,0,.83-.91,.91-1.6,.91h-15.17c-.91,0-4.28,0-5.19,.07-.33,.04-1.78,.54-2.14,.54s-.87-.18-.87-.8c0-.58,.36-1.67,1.56-1.67,.18,0,1.09,.14,1.31,.14,.47,.04,3.74,.04,6.79,.04v-2.5h-.15c-.62,0-2,0-2.36,.04-.29,.04-1.63,.44-1.92,.44s-.91-.18-.91-.73c0-.58,.4-1.45,1.42-1.45,.15,0,.98,.14,1.16,.14l2.76,.04c0-.36-.04-2.14-.04-2.54-1.09,0-3.34,0-4.14,.04-.36,0-2,.62-2.36,.62-.4,0-.91-.25-.91-.94s.44-1.56,1.49-1.56c.18,0,.91,.14,1.09,.14h4.79c-.07-1.67-.11-1.85-.29-2.03-.51-.44-.58-.51-.58-.8,0-.98,2.54-2.43,3.59-2.43,.76,0,1.81,.33,1.81,1.2,0,.18-.11,1.09-.15,1.31-.04,.83-.11,1.38-.11,2.76h3.59c.4-.69,1.34-1.38,2.07-1.38,.98,0,2.36,1.16,2.36,2.29,0,.76-1.05,.8-1.67,.8h-6.39c-.04,.91-.07,1.85-.07,2.54h2.25c.33-.58,1.02-1.16,1.71-1.16,.83,0,2.11,.87,2.11,1.92,0,.69-.83,.76-1.31,.76h-4.76l-.04,2.5h6.42Zm-4.21,3.81c.54-.83,1.23-1.27,1.74-1.27,1.02,0,2.72,.94,2.72,2.11,0,.22-.07,.33-.11,.4-.25,.4-.25,.47-.25,.91,0,1.45,.29,8.46,.29,10.05,0,4.1-3.27,4.1-3.85,4.1-2.18,0-4.57-2.25-4.57-2.76,0-.15,.15-.15,.36-.15,.15,0,1.63,.18,1.92,.18,1.2,0,1.85-.36,1.85-1.67v-2.79h-7.88v4.75c0,1.05-1.42,2.36-2.61,2.36-.62,0-1.52-.47-1.52-1.23,0-.4,.11-1.09,.15-1.49,.4-2.94,.54-7.8,.54-10.93,0-.47-.04-.69-.07-.83-.04-.11-.4-.65-.4-.8,0-.83,1.89-1.92,2.79-1.92,.36,0,1.09,.22,1.23,.98h7.66Zm.11,7.48l-.04-2.29h-7.84v2.29h7.88Zm-.07-3.85v-2.14h-7.44c-.11,0-.33,.11-.33,.29v1.85h7.77Z"/><path class="cls-1" d="M90.28,7.62c.58-1.05,1.52-1.78,2.29-1.78,1.13,0,3.12,1.6,3.12,2.79,0,.8-1.05,.91-1.31,.94-.76,.11-10.13,0-12.02,0-.04,1.02-.22,6.03-.22,7.15,0,.4,.87,2.76,1.12,3.34,.8,1.81,1.38,2.5,2,3.23,1.49-1.34,1.82-1.82,2.03-2.18-.33-.25-1.2-.62-1.74-.83-.33-.04-1.13-.18-1.13-.87,0-.73,1.13-1.45,1.82-1.45,.62,0,1.49,.58,2.54,1.23,.25-.33,.58-1.02,.65-1.31,.22-.69,.83-.69,1.16-.69,.8,0,2.25,.65,2.25,1.42,0,.62-1.02,1.85-1.38,2.32,2.25,1.6,2.98,2.18,2.98,2.72,0,.36-.4,.73-.98,.73-.4,0-3.3-1.6-3.85-1.92-.73,.58-1.67,1.23-3.41,1.82,2.21,2.29,5.34,3.48,8.49,4.61,.36,.15,2.14,.69,2.54,.83,.18,.07,.29,.11,.29,.22,0,.18-2.72,1.82-3.12,2.03-.51,.33-1.67,1.02-2.69,1.02-.51,0-1.09-.07-2.94-1.23-2.4-1.49-6.39-4.61-7.3-12.12-2.32,11.62-14.12,12.16-15.97,12.16-.25,0-.65-.04-.65-.33s2.21-.91,2.61-1.09c2.83-1.2,6.5-3.41,8.78-7.37-.11,.04-.25,.07-.33,.07-.44,0-1.74-.69-2.36-1.05-2.8,2.36-5.37,2.76-6.1,2.76-.07,0-.94,0-.94-.33,0-.22,.51-.47,.69-.58,.94-.58,2.61-1.74,3.34-2.9-.18-.18-1.34-.69-1.6-.8-.87-.29-1.09-.36-1.09-.8,0-.65,1.27-1.31,2-1.31,.4,0,1.81,.76,2.43,1.2,.11-.18,.51-.87,.62-1.09,.4-.73,.51-.91,1.31-.91,.87,0,2.03,.65,2.03,1.42,0,.62-.62,1.42-1.09,2,.47,.33,1.38,.98,1.52,1.45,1.6-3.67,1.6-6.61,1.6-12.56-1.42,0-8.71,.04-9.22,.11-.29,.04-1.78,.54-2.14,.54-.4,0-1.13-.15-1.13-1.02,0-.73,.76-1.96,1.81-1.96,.36,0,2.03,.36,2.43,.36h8.17v-1.16c0-.73,0-2.18-.4-2.5-.62-.47-.62-.51-.62-.76,0-1.09,2.36-2.4,3.85-2.4,1.02,0,1.78,.33,1.78,1.38,0,.18-.15,1.09-.18,1.31,0,.07-.07,.98-.15,2.4l-.07,1.74h7.84Zm-12.42,7.99c0,.47-.54,.8-1.02,.8-.15,0-2.65-1.31-2.94-1.45-2.8,2.21-5.19,2.69-5.99,2.69-.29,0-.94-.07-.94-.36,0-.14,.11-.18,.76-.58,1.13-.65,2.5-1.82,3.27-2.9-.36-.22-1.05-.47-1.49-.65-.8-.29-1.2-.44-1.2-.94,0-.65,1.16-1.38,1.85-1.38,.44,0,1.92,.87,2.58,1.27,.11-.18,.51-.87,.62-1.09,.4-.69,.51-.91,1.27-.91,.91,0,2.07,.65,2.07,1.42,0,.62-.58,1.38-1.02,1.92,1.81,1.45,2.18,1.74,2.18,2.18Zm15.72,.33c0,.58-.62,.83-.98,.83-.25,0-.76-.22-.91-.29-.4-.18-2.29-1.2-2.72-1.42-1.63,1.34-3.77,2.47-5.7,2.47-.15,0-.65,0-.65-.33,0-.18,.07-.25,.65-.65,.33-.22,1.67-1.12,2.94-2.69-.4-.18-1.45-.62-1.89-.8-.4-.14-.91-.33-.91-.87,0-.65,1.16-1.38,1.85-1.38,.25,0,1.05,.25,2.47,1.23,.36-.54,.4-.62,.69-1.23,.04-.8,.83-.8,1.34-.8,.47,0,2.11,.58,2.11,1.45,0,.62-.76,1.52-1.13,1.96,2.54,1.85,2.83,2.03,2.83,2.5Z"/><path class="cls-1" d="M99.46,10.71c-.29,0-.98-.04-.98-.33,0-.18,.83-.69,2.11-1.45,3.74-2.29,6.82-5.26,7.55-5.95,1.38-1.34,1.45-1.45,2.18-1.45,1.23,0,2.54,.73,2.54,1.89,0,.14,0,.25-.18,.51,.73,.87,1.42,1.2,3.59,2.29,.83,.4,1.16,.54,1.16,.94,0,.91-1.92,1.82-2.69,1.82-1.16,0-3.45-2.61-3.96-3.19-4.32,2.9-8.49,4.94-11.33,4.94Zm8.35,.69c0-.33,0-1.45-.25-1.63-.47-.29-.54-.33-.54-.54,0-.83,2.18-1.78,3.01-1.78,.11,0,1.49,.07,1.49,1.09,0,.11-.07,.33-.07,.36-.04,.11-.22,1.02-.29,2.5h.62c.62-.62,1.49-.73,1.78-.73,.91,0,1.96,.8,1.96,1.6,0,.11-.14,.47-.18,.54-.14,.47-.14,.8-.14,1.27,0,.87,.22,5.45,.22,5.52,0,1.16-2,1.53-2.69,1.53-1.16,0-1.2-.65-1.2-1.02h-4.57v6.42c1.63-.22,3.01-.47,4.46-.83-.73-1.45-1.2-2-1.63-2.54-.65-.76-.73-.87-.73-.98,0-.29,.36-.36,.58-.36,1.49,0,6.43,2.21,6.43,4.97,0,.94-1.09,1.89-2.14,1.89-.91,0-1.09-.33-1.42-1.12-.04-.07-.29-.51-.33-.62-4.46,2.18-8.6,3.49-10.13,3.49-1.05,0-2.11-.69-2.11-1.82,0-1.74,2.21-1.78,3.41-1.78,.04-.62,.07-1.53,.07-3.63,0-1.12-.04-9.15-.07-9.29,0-.18-.69-.8-.69-.98,0-.91,2.07-2.29,2.9-2.29,.18,0,1.09,.11,1.42,.76h.83Zm3.78,1.49h-4.65v2.03h4.65v-2.03Zm.04,3.59h-4.68v2.07h4.68v-2.07Zm11.8,2.79c-.25,2.69-.98,7.8-6.21,10.71-3.38,1.85-6.03,2-6.93,2-.22,0-.83,0-.83-.36,0-.33,2.21-.94,2.61-1.12,6.57-2.9,7.88-6.97,8.06-16.12-.04-.04-.11-.15-.15-.15-.25-.29-.33-.4-.33-.54,0-.98,1.71-2.14,2.87-2.14,.33,0,1.89,.11,1.89,1.23,0,.4-.11,.73-.22,1.16,.22,2.58,.83,9.55,7.15,14.48,.47,.36,3.01,1.85,3.01,2.03,0,.36-4.17,1.96-5.04,1.96-1.2,0-2.03-1.12-2.4-1.6-1.71-2.29-3.05-5.26-3.38-11.54h-.11Zm-2.83-8.68c-1.34,2.07-3.96,4.65-5.01,4.65-.18,0-.33-.07-.33-.25,0-.04,1.05-2.36,1.23-2.8,1.52-3.74,2.14-5.74,2.72-9.62,.22-1.42,1.38-1.6,2-1.6,1.16,0,2.4,.83,2.4,1.85,0,1.31-1.34,4.28-2.07,5.99h5.84c.62-.76,1.38-1.34,2.21-1.34,1.38,0,2.43,1.12,2.43,2.18,0,.98-1.71,3.99-2.54,5.08-.47,.65-.83,1.13-1.52,1.13-.83,0-.83-.62-.83-.94,0-.65,.07-3.7,.07-4.32h-6.61Z"/><path class="cls-1" d="M147.12,18.26c.4-.65,.98-1.16,1.74-1.16,.94,0,2.65,1.02,2.65,1.96,0,.04-.25,.65-.29,.69-.07,.22-.07,1.02-.07,1.78,0,1.05,.07,6.35,.07,7.55,0,.87,0,1.16-.69,1.52-.62,.36-1.53,.62-2.32,.62-1.27,0-1.27-.44-1.31-1.38h-5.12v.8c0,1.02-1.6,1.56-2.9,1.56s-1.27-.65-1.27-2c0-1.27,.15-7.48,.15-8.89,0-.4,0-.98-.18-1.16-.36-.36-.36-.4-.36-.58,0-1.02,2.14-2.32,3.16-2.32,.25,0,1.23,.15,1.42,1.02h5.34Zm-.18,9.73v-7.91h-4.86c-.22,0-.36,.22-.36,.44-.04,1.05,.04,6.28,.04,7.48h5.19Zm10.71-24.58c.73-1.05,1.45-1.49,2.21-1.49,.98,0,2.83,1.12,2.83,2.07,0,.22-.07,.33-.14,.44-.29,.4-.29,.44-.29,.87,0,.69,.11,6.82,.11,7.77,0,.69,0,.87-.4,1.23-.58,.54-1.85,.87-2.83,.87-1.42,0-1.42-.51-1.42-1.67h-9.91c-.15,1.85-2.61,1.96-2.79,1.96-1.53,0-1.53-1.05-1.53-1.82,0-.54,.07-3.27,.07-3.88,0-.51,.11-3.01,.11-3.59,0-.4,0-.8-.18-.98-.54-.47-.58-.51-.58-.8,0-.94,2.47-2.18,3.41-2.18,.25,0,1.45,.15,1.56,1.2h9.76Zm.07,8.31V5.15h-9.66c-.18,0-.29,.11-.29,.29v6.28h9.95Zm5.88,6.53c.58-.8,1.42-1.12,1.92-1.12,.94,0,2.79,1.02,2.79,2,0,.18-.07,.36-.11,.47-.29,.47-.29,.54-.29,1.09,0,1.23,.22,7.3,.22,8.68,0,.65,0,1.02-1.12,1.52-.65,.33-1.34,.51-1.96,.51-1.56,0-1.56-.76-1.6-1.56h-5.19v.65c0,1.16-1.6,1.85-2.43,1.85-1.38,0-1.78-.65-1.78-1.45,0-1.49,.29-8.86,.15-10.53-.07-.11-.44-.76-.44-.83,0-.98,2-2.21,3.01-2.21,.62,0,1.34,.29,1.52,.94h5.3Zm-.11,9.73v-7.91c-.29,0-4.94-.04-4.97,0-.33,.07-.33,.14-.33,1.05,0,.98,.04,5.77,.04,6.86h5.26Z"/><path class="cls-1" d="M196.89,16.55l-9.29,16.52-2.11-1.34,8.64-15.17-8.42-15.06,1.96-1.42,9.22,16.48Z"/></g></g></svg>