<?xml version="1.0" encoding="UTF-8"?><svg id="_圖層_2" xmlns="http://www.w3.org/2000/svg" viewBox="0 0 196.89 33.69"><defs><style>.cls-1{fill:#0e2c50;}</style></defs><g id="_圖層_1-2"><g><path class="cls-1" d="M11.4,1.49L2.69,16.66l8.49,15.03-1.96,1.42L0,16.66,9.29,.11l2.11,1.38Z"/><path class="cls-1" d="M55.94,20.04c.62-.83,1.56-1.6,2.32-1.6,.94,0,3.01,1.27,3.01,2.47s-1.23,1.23-3.34,1.23c-1.74,0-10.27-.11-12.2-.15,2.61,5.52,11.25,7.41,13.69,7.95,1.2,.25,1.31,.29,1.31,.47s-4.25,3.01-5.81,3.01c-1.23,0-8.57-2.36-10.27-10.89-.4,1.92-1.34,5.08-4.79,7.26-3.63,2.29-8.31,2.47-10.78,2.47-.22,0-.62,0-.62-.4,0-.29,.15-.33,1.49-.65,2.65-.62,9.58-2.29,11-9.22h-3.12c-1.2,0-5.01,0-6.24,.18-.36,.04-2.14,.58-2.58,.58-.25,0-1.16-.07-1.16-.94s.65-2,1.81-2c.22,0,1.27,.22,1.52,.22h10.06l.04-.62c0-.11-.47-.62-.47-.76,0-.83,1.74-1.71,2.98-1.71,1.13,0,1.89,.22,1.89,1.02,0,.29-.22,1.74-.25,2.07h10.53Zm-2.76-4.97c.44-.8,1.52-1.45,2.18-1.45,.94,0,2.61,1.09,2.61,2.36,0,1.05-.94,1.05-2.47,1.05-2.5,0-13.83-.15-15.75-.15-3.56,0-5.37,.07-5.81,.15-.4,.04-2.32,.62-2.76,.62-.29,0-1.16-.22-1.16-1.02s.51-1.78,1.78-1.78c.25,0,1.45,.22,1.74,.22h7.88c0-.4,.04-2.32,.04-2.76h-2.18c-1.13,0-1.82,.07-2.18,.11-.33,.07-1.96,.58-2.32,.58-.33,0-1.05-.18-1.05-.98,0-.54,.33-1.56,1.49-1.56,.25,0,1.52,.18,1.81,.18h4.43c0-.8-.04-1.82-.07-2.58l-6.61,.11c-.44,0-2.47,.69-2.94,.69-.58,0-1.09-.29-1.09-.91,0-.76,.47-2.03,1.81-2.03,.4,0,2.25,.29,2.69,.29,1.42,.07,2,.04,6.64,.04h10.67c.44-.8,1.34-1.45,2.03-1.45,1.05,0,2.61,1.02,2.61,2.32,0,.91-1.02,1.02-2,1.02-2.4,0-5.59-.04-9.66-.07-.04,1.05-.07,1.82-.07,2.58h4.72c.36-.58,1.16-1.2,1.74-1.2,.8,0,2.21,.83,2.21,1.96,0,.83-.91,.91-1.23,.94-.51,.07-6.24,0-7.44,0,0,.84,0,1.85,.04,2.72h7.66Zm-12.16-9.04c-.51,0-4.54-1.85-4.54-3.78,0-1.13,1.31-1.82,2.29-1.82,1.09,0,1.92,.69,2.32,1.6,.25,.62,.73,2.58,.73,3.23,0,.51-.44,.76-.8,.76Zm8.93-2.65c-1.23,1.12-3.74,2.65-4.39,2.65-.29,0-.73-.22-.73-.62,0-.47,1.02-3.3,1.16-3.67,.4-.98,.87-1.74,2.14-1.74,1.16,0,2.47,.91,2.47,1.89,0,.62-.36,1.23-.65,1.49Z"/><path class="cls-1" d="M71.18,19.28h-2.65v1.45c0,1.31-1.67,1.85-2.69,1.85-.04,0-1.38,0-1.38-1.16,0-.44,.11-2.58,.11-3.05l.04-9.11c.04-.07-.36-.44-.47-.51-.11-.11-.29-.25-.29-.51,0-1.12,2.14-2.58,3.16-2.58,.36,0,1.42,.25,1.56,1.16h2.58c.4-.8,1.27-1.45,2.14-1.45s2.21,.62,2.21,1.71c0,.22-.47,1.2-.47,1.45v4.57c0,.87,.15,5.04,.15,5.99,0,1.49-1.45,2.11-2.69,2.11s-1.31-.69-1.31-1.2v-.73Zm19.93-4.1c.51-1.23,1.45-1.81,2.18-1.81,1.02,0,2.8,1.2,2.8,2.5,0,1.02-1.02,1.02-2.25,1.02-1.02,0-6.1-.04-7.22-.04,1.42,2.58,2.29,4.1,5.88,7.26,.83,.73,2.9,2.25,4.86,3.12,.91,.4,1.02,.44,1.02,.65,0,.36-4.46,2.21-5.48,2.21-2.5,0-5.23-5.59-6.75-10.49,.07,3.16,.18,5.63,.33,8.53,.04,.44,.18,2.61,.18,3.12,0,1.34-2.21,2.36-3.09,2.36s-1.71-.58-1.71-1.78c0-.98,.44-8.68,.47-10.31-4.72,7.3-11.91,9.44-14.12,9.44-.29,0-.47-.07-.47-.29,0-.18,.07-.22,.76-.62,3.34-1.89,7.88-5.66,10.35-10.24,.83-1.52,1.13-2.03,2.25-2.03,.69,0,1.12,.29,1.31,.4v-1.27h-3.3c-.36,0-2.11,.69-2.5,.69-1.05,0-1.05-.83-1.05-1.16,0-.91,.69-1.45,1.45-1.45,.18,0,1.05,.18,1.27,.18h4.21l-.04-5.37h-2.83c-.33,0-1.85,.62-2.21,.62-.33,0-1.05-.25-1.05-.94,0-.4,.18-1.71,1.45-1.71,.22,0,1.23,.18,1.49,.18h3.12c0-.4,0-2.14-.07-2.87-.07-.91-.07-.98-.29-1.16-.62-.47-.69-.54-.69-.83,0-1.2,2.43-2.58,3.81-2.58,1.49,0,1.6,.98,1.6,1.53,0,.22-.15,1.27-.18,1.52-.07,.54-.22,3.16-.25,4.39h2.83c.47-.87,1.31-1.49,2-1.49,.91,0,2.54,.98,2.54,2.29,0,1.05-1.27,1.05-1.85,1.05h-5.59l-.11,5.37h4.97Zm-19.93,2.43V8.75c0-.18-.04-.33-.22-.33h-2.03c-.29,0-.4,.18-.4,.4v8.78h2.65Z"/><path class="cls-1" d="M110.93,13.29c0,.51-.44,1.56-.87,2.32-1.89,3.38-5.84,4.36-7.08,4.36-1.38,0-2.72-1.05-2.72-2.29,0-.91,.8-2.21,2.18-2.32,3.41-.33,5.08-.58,7.01-1.96,.07-.04,.94-.65,1.05-.65,.18,0,.44,0,.44,.54Zm-2.8,14.08c0-.15,.11-.22,.15-.22s.36,.07,.44,.07c.87,.18,1.92,.25,2.36,.25,3.12,0,3.27-1.31,3.27-7.41,0-13.39,0-13.43-.58-13.87-.18-.18-.47-.4-.47-.87,0-1.27,2.83-2.69,4.03-2.69,.33,0,1.85,0,1.85,1.78,0,.36-.04,.54-.18,1.38-.22,1.38-.22,2.61-.22,3.3,0,2.43,.11,13.11,.11,15.28,0,2.47-.18,6.57-4.72,6.57-2.25,0-4.54-1.34-5.95-3.38-.04-.07-.07-.15-.07-.22Zm12.49-13.94c0-.22,.22-.51,1.02-.51,3.41,0,11.65,1.67,11.65,5.3,0,1.13-1.09,2.18-2.32,2.18s-1.92-.58-2.36-.98c-3.59-3.3-5.37-4.36-6.97-5.23-.29-.11-1.02-.47-1.02-.76Z"/><path class="cls-1" d="M150.57,21.93h-6.68c-.83,0-1.96,0-2.76,.15-.29,.07-1.52,.4-1.78,.4-.51,0-1.2-.15-1.2-1.02,0-.98,.98-1.71,1.89-1.71,.22,0,1.23,.22,1.42,.22,.73,.11,2.03,.11,2.47,.11h6.57v-.25c-.4-.4-.54-.54-.54-.76,0-.8,1.16-1.16,1.56-1.31-.47-.69-1.85-2.61-1.85-3.23,0-.8,1.27-1.56,2.43-1.56,2,0,2.18,1.31,2.18,2.54,0,.54-.04,1.74-.14,2.21,.33,.11,.44,.4,.44,.65,0,.29-.18,1.45-.18,1.71,2.58,0,5.12,0,7.99-.04,.83-1.56,1.63-1.85,2.11-1.85,1.12,0,3.12,1.34,3.12,2.65,0,1.05-1.45,1.09-1.92,1.09h-10.6c1.82,2.43,6.43,5.12,13.87,6.35,.73,.11,1.52,.25,1.52,.51,0,.36-3.96,3.3-5.05,3.3-2.07,0-8.75-2.76-11.14-9.04,.04,.62,.07,3.38,.11,3.92,.04,.65,.25,3.52,.25,4.1,0,1.89-1.71,2.61-2.61,2.61-.54,0-1.31-.25-1.63-.69-.18-.22-.18-.36-.18-.94,0-.22,.29-5.95,.33-7.08-.98,1.78-7.95,6.39-13.58,6.39-.58,0-1.16-.15-1.16-.36,0-.25,.4-.4,1.49-.8,3.34-1.23,7.55-4.54,9.04-6.28,.73-.83,1.23-1.45,2.29-1.45,.33,0,1.49,.18,1.92,1.09l.04-1.63Zm7.95-14.52c0,.69-2.07,1.38-2.76,1.38-.62,0-1.31-.29-1.31-.98,0-.22,.07-1.2,.07-1.38h-3.96v1.52c0,.94-1.92,1.49-2.69,1.49-.33,0-1.31-.11-1.31-.8,0-.36,.04-1.89,.04-2.21l-5.19,.14c-.47,0-2.43,.73-2.83,.73-.58,0-1.23-.36-1.23-1.02,0-.8,.65-1.92,1.78-1.92,.33,0,1.74,.29,2.03,.29l5.48,.07c0-.22-.07-1.42-.11-1.74-.07-.07-.11-.11-.22-.18-.15-.11-.33-.29-.33-.51,0-.83,2.43-1.81,3.41-1.81,.22,0,1.34,0,1.34,1.09,0,.33-.15,2.76-.18,3.16h3.96v-.73c0-.33,0-.73-.04-.98-.04-.18-.58-.76-.58-.94,0-.8,2.36-1.74,3.38-1.74,1.16,0,1.6,.73,1.42,1.85-.14,.91-.14,2.03-.14,2.54l5.05-.07c.54-1.05,1.45-1.78,2.18-1.78,1.02,0,2.83,1.45,2.83,2.61,0,1.02-.98,1.02-1.71,1.02-1.31,0-7.19-.07-8.39-.07v.98Zm.44,.54c1.02,0,2.83,.94,2.83,1.96,0,1.31-1.96,1.74-2.87,1.96-4.25,.94-9.84,1.05-12.38,1.05-2.79,0-6.39-.51-6.39-1.34,0-.33,.91-.4,.98-.4,1.85,0,8.49-.65,10.64-.98,3.3-.51,4.5-.91,5.66-1.34,.33-.4,.73-.91,1.53-.91Zm-11.54,11.29c-.47,0-4.54-2.65-4.54-4.07,0-1.02,1.2-1.71,2.14-1.71s1.63,.58,1.81,.94c.47,.83,1.27,3.67,1.27,4.21,0,.4-.4,.62-.69,.62Zm8.49,.14c-.33,0-.51-.25-.51-.36,0-.14,2.69-4.39,3.05-5.19,.36-.83,.69-1.49,1.85-1.49,1.27,0,2.5,.98,2.5,2.14,0,1.56-6.1,4.9-6.9,4.9Z"/><path class="cls-1" d="M196.89,16.55l-9.29,16.52-2.11-1.34,8.64-15.17-8.42-15.06,1.96-1.42,9.22,16.48Z"/></g></g></svg>