<?xml version="1.0" encoding="UTF-8"?><svg id="_圖層_2" xmlns="http://www.w3.org/2000/svg" viewBox="0 0 399.02 224.04"><defs><style>.cls-1{fill:#fff;}.cls-2{fill:#0f2c51;}.cls-3{fill:#0e2c50;}.cls-4{fill:#102b50;stroke:#102b50;stroke-miterlimit:10;}</style></defs><g id="_圖層_1-2"><g><g><path class="cls-3" d="M13.75,167.78c.82-1.03,2.4-2.46,4.24-2.46,1.37,0,4.31,.89,4.31,3.42,0,1.16-.68,2.05-1.37,2.87-1.57,1.92-6.3,9.31-6.3,10.27,0,.27,.27,.48,.34,.55,.62,.41,7.6,5.2,7.6,12.32,0,.82-.21,8.21-6.71,8.21-.75,0-2.33,0-6.5-2.4,0,2.4,.27,12.87,.27,15.06,0,1.85-.07,2.53-1.64,3.7-1.3,1.03-2.94,1.51-3.9,1.51-.55,0-2.87-.27-2.87-2.46,0-1.16,.27-6.3,.34-7.39,.34-9.51,.55-19.71,.55-29.15,0-.75,0-8.21-.21-8.55-.14-.34-1.44-1.23-1.64-1.44-.14-.21-.27-.48-.27-.68,0-1.71,3.76-5.61,5.88-5.61,.41,0,2.33,.27,3.29,2.26h4.58Zm-3.9,3.01c-.41,0-.55,.55-.55,.75v5.54c0,4.86,0,18.41,.07,22.1h1.85c3.7,0,4.11-3.29,4.11-6.23s-.21-5.95-4.24-8.9c-.55-.48-.68-.68-.68-1.44,0-.48,1.92-10.2,2.26-11.91l-2.81,.07Zm42.7,41.54c0,7.46-4.65,8.96-8.49,8.96-5.75,0-11.36-5.13-11.36-6.02,0-.34,.41-.48,.55-.48,.48,0,2.33,.41,2.67,.48,.27,.07,1.16,.07,2.53,.07,6.09,0,6.09-3.76,6.09-7.8,0-8.21,.14-21.35,0-29.56,0-2.26-.27-3.35-.48-4.24H27.58c-.68,0-3.49,1.5-4.11,1.5-.75,0-2.26-.62-2.26-1.71,0-1.64,1.3-3.97,3.7-3.97,.34,0,1.92,.48,2.26,.48h25.73c1.51-3.08,3.35-3.35,4.11-3.35,2.05,0,5.41,2.53,5.41,4.93,0,2.12-2.26,2.12-3.97,2.12h-5.68c-.14,1.78-.21,3.7-.21,5.13v33.46Zm-21.83-14.23v3.42c0,1.99-2.6,3.29-4.38,3.29-.62,0-3.01-.27-3.01-1.85,0-.07,.21-4.45,.21-5,.21-4.24,.21-8.69,.21-11.22l-.34-.34c-.55-.41-.82-.68-.82-1.09,0-1.71,3.83-4.45,5.68-4.45,1.16,0,2.4,.55,2.53,1.78h3.9c.75-1.09,1.99-1.92,3.35-1.92,1.85,0,4.24,1.44,4.24,3.28,0,.34-.14,.55-.34,.96-.34,.75-.34,.96-.34,1.64,0,1.92,.27,10.2,.27,11.91,0,3.08-3.63,3.7-4.72,3.7-2.81,0-2.81-.89-2.81-4.11h-3.63Zm3.76-12.59h-3.15c-.27,0-.68,.07-.75,.55,0,.27,.07,7.94,.07,9.24h3.83v-9.79Z"/><path class="cls-3" d="M92.11,193.31c1.71,3.9,4.11,9.31,12.32,14.37,1.16,.68,6.57,3.97,13.69,5.82,1.3,.34,7.94,1.64,9.44,1.92,.68,.27,.75,.34,.75,.55,0,.48-1.16,1.23-2.67,2.26-5.89,3.97-6.71,4.04-7.94,4.04-1.5,0-6.36-.82-12.73-5.13-12.04-8.28-15.12-18.96-16.56-23.82h-4.52v20.6c3.9-.34,6.64-.82,10.81-1.57,.41-.14,1.51-.27,1.92-.27,.55,0,1.3,.14,1.3,.75,0,3.01-18.68,8.76-25.46,8.76-1.37,0-5.2-.48-5.2-3.49,0-3.9,3.97-3.9,9.1-3.9,0-4.86-.07-28.88-.07-34.35,0-2.88,0-3.22-.62-3.9-1.09-1.16-1.16-1.23-1.16-1.85,0-1.92,3.83-5.13,6.02-5.13,1.44,0,3.08,1.03,3.7,2.6h5.68c-.14-3.08-.14-3.42-.27-4.58-.14-.14-1.09-.75-1.23-.96-.55-.41-.68-.75-.68-1.03,0-2.26,4.79-5.13,7.12-5.13,.89,0,3.49,.48,3.49,3.29,0,1.23-.96,7.12-1.03,8.42h6.5c1.5-1.78,3.35-2.4,4.52-2.4,1.57,0,4.38,1.16,4.38,3.29,0,.27-.07,.75-.21,1.1-.41,1.5-.48,1.71-.48,2.67,0,.89,.27,13.75,.27,14.23,0,4.04-4.93,4.52-5.47,4.52-1.09,0-3.22-.14-3.35-1.64h-11.36Zm11.7-3.15v-6.23h-19.85l-.07,6.23h19.92Zm.07-9.51v-4.79c0-.41-.07-.89-.62-.89h-18.41c-.62,0-.89,.62-.89,1.16v4.52h19.92Zm9.99,12.87c1.78,0,3.76,1.71,3.76,3.56,0,4.79-13.21,6.3-17.66,6.3-.96,0-1.57-.41-1.57-.96,0-.68,1.85-1.85,2.94-2.53,2.87-1.78,8.14-5.06,10.33-5.95,.75-.27,1.5-.41,2.19-.41Z"/><path class="cls-3" d="M184.77,205.15c1.09-2.05,3.15-3.15,4.52-3.15,2.19,0,5.95,2.67,5.95,4.93s-2.05,2.19-5.68,2.19c-2.05,0-21.01-.21-24.91-.21-6.23,0-25.94,.34-26.62,.48-.55,.07-3.08,.68-3.7,.68-1.23,0-2.53-.68-2.53-1.98,0-1.71,1.78-3.56,3.76-3.56,.75,0,4.17,.62,4.93,.62h44.28Zm-5.47-36.96c.96-1.37,2.05-2.81,3.83-2.81,1.98,0,5.47,2.4,5.47,4.45,0,1.71-2.12,1.78-3.7,1.78h-18.61l-.21,4.52h5.34c.55-1.09,2.33-1.85,3.08-1.85,1.44,0,5.34,1.99,5.34,3.83,0,.34-.55,1.64-.62,1.98-.07,.48-.07,1.03-.07,2.12,0,4.72,.07,9.38,.34,14.24l.21,3.7c.14,2.33-3.9,3.49-6.02,3.49-2.6,0-2.6-.96-2.6-2.33h-17.59c-.55,2.12-3.56,2.74-4.79,2.74-2.67,0-2.67-1.44-2.67-2.87,0-1.3,.34-7.94,.34-9.44,.14-5.06,.14-8.62,.14-10.54,0-.82,0-.96-.27-1.23-.82-.82-.89-.89-.89-1.37,0-1.64,3.83-4.11,5.61-4.11,.27,0,2.19,.14,2.74,1.64h5.06v-4.45h-16.08c-.62,0-3.56,1.1-4.31,1.1s-2.12-.41-2.12-1.64c0-1.44,1.3-3.42,3.35-3.42,.34,0,1.99,.41,2.4,.41h16.63c0-.55,0-2.74-.27-3.01-1.23-1.16-1.37-1.3-1.37-1.64,0-1.98,5.06-4.24,7.19-4.24,1.16,0,2.94,.62,2.94,2.4,0,.14-.21,1.51-.21,1.64-.07,.75-.14,1.16-.34,4.93h12.73Zm-35.38,54c-2.6,0-5.75-1.57-5.75-3.97,0-1.85,1.92-3.49,4.31-3.49,.55,0,3.22,.14,3.83,.14,5.06,0,8.76-2.4,9.51-2.88,.27-.21,1.03-.68,1.5-.68s1.37,.48,1.37,1.09c0,.41-.41,1.03-.68,1.37-2.6,4.17-8.08,8.42-14.1,8.42Zm27.24-38.73v-4.31h-16.7c-.41,0-.68,.27-.68,.62v3.7h17.38Zm0,7.46v-4.31h-17.38v4.31h17.38Zm0,7.19v-4.04h-17.38v4.04h17.38Zm-4.04,12.52c7.05,0,20.33,4.79,20.33,9.72,0,1.71-1.78,3.7-4.17,3.7s-2.94-.41-7.12-4.11c-3.35-2.87-6.57-5.75-9.72-7.53-.82-.48-1.09-.62-1.23-.96,.07-.82,1.37-.82,1.92-.82Z"/><path class="cls-3" d="M207.76,177.57c-.07,0-3.49,0-4.45,.21-.48,.07-2.74,.62-3.29,.62-1.03,0-2.12-.41-2.12-1.71,0-1.44,1.44-2.87,3.08-2.87,.62,0,3.56,.55,4.24,.55h4.38c-.07-.89-.21-5.54-.96-6.02-.62-.48-1.03-.75-1.03-1.1,0-1.98,4.31-4.31,6.84-4.31,1.03,0,3.15,.34,3.15,2.81,0,.21-.14,1.23-.21,1.44-.34,2.26-.62,4.86-.75,7.12h.75c.68-1.03,1.71-2.05,3.01-2.05,1.78,0,4.04,1.92,4.04,3.76,0,1.57-2.46,1.57-3.49,1.57h-13.21Zm38.53,3.49c.27,5.06,.89,9.24,2.53,17.25,1.23-3.42,1.78-5.27,2.05-7.46-.21-.55-.48-1.16-.48-1.57,0-1.37,3.56-2.74,5.47-2.74,3.15,0,3.76,1.71,3.76,3.15,0,3.49-4.72,11.29-7.32,15.6,.75,1.51,4.38,8.55,7.39,8.55,1.85,0,3.22-2.4,4.11-3.9,.27-.41,.34-.55,.62-.55,.62,0,.75,.55,.75,5.48,0,2.74-.21,4.17-.96,6.02-.62,1.57-2.87,2.33-4.72,2.33-3.63,0-8.83-3.97-12.8-13.28-.75,.75-7.87,7.67-16.7,7.67-.34,0-1.5,0-1.5-.41,0-.34,.41-.55,1.23-.96,5.68-3.08,10.68-6.84,14.17-12.32-1.03-3.22-1.71-5.82-2.46-9.44-.34,5.61-1.44,8.9-1.78,9.79-.68,1.92-2.26,6.09-6.43,6.09-1.16,0-2.67-.27-4.04-4.31-.96,2.19-2.81,6.23-8.14,9.31v1.23c0,1.3-2.6,2.74-4.86,2.74-2.74,0-2.74-.82-2.74-3.22h-3.28v2.87c0,1.92-3.56,2.94-5.34,2.94-.82,0-2.33-.48-2.33-1.99,0-.55,.48-11.91,.48-14.03,0-.96,0-1.09-.34-1.44-.62-.62-.82-.82-.82-1.09,0-1.51,3.83-4.11,5.89-4.11,.21,0,2.33,0,2.67,1.71h3.49c.68-1.3,1.92-1.98,2.87-1.98,1.57,0,4.72,1.64,4.72,3.35,0,.21-.41,1.1-.48,1.3-.14,.34-.14,.55-.14,1.09,0,1.23,.21,7.32,.21,8.69,2.94-6.09,3.08-13.41,3.08-20.46v-6.37c0-2.26,0-3.76-.27-4.31-.07-.34-1.44-1.3-1.44-1.64,0-1.57,3.08-4.59,5.27-4.59,.48,0,1.85,.27,2.6,1.51h8.28c-.07-1.03-.48-5.47-.68-6.78-.41-2.94-.48-3.28-1.03-3.63-1.37-.82-1.44-.96-1.44-1.44,0-2.05,5.34-5.2,7.73-5.2,.62,0,2.88,0,2.88,3.01,0,.55-.21,3.29-.21,3.9v5.68c0,.89,0,2.6,.14,4.45h6.5c1.03-1.85,2.67-2.94,4.04-2.94,1.92,0,5.2,2.46,5.2,4.52,0,1.64-2.46,1.92-4.38,1.92h-11.02Zm-28.13,9.03c1.71,0,3.83,1.78,3.83,3.49,0,1.44-1.78,1.44-2.74,1.44s-5.82-.07-6.91-.07c-1.23,0-3.49,.07-4.65,.14-.48,.07-2.67,.48-3.15,.48-1.23,0-2.19-.89-2.19-1.92,0-1.23,1.44-2.39,3.08-2.39,.55,0,3.15,.48,3.7,.48,.41,0,4.93,.07,6.23-.07,.75-1.09,1.92-1.57,2.81-1.57Zm.07-8.55c1.78,0,3.9,1.92,3.9,3.56,0,1.16-1.3,1.3-1.71,1.37-.96,.14-6.71,0-7.94,0s-3.49,.07-4.65,.14c-.48,.07-2.67,.48-3.15,.48-1.16,0-2.26-.82-2.26-1.92,0-1.37,1.64-2.46,3.15-2.46,.55,0,3.29,.48,3.9,.48,1.3,0,4.58,.07,5.95-.07,.62-.82,1.71-1.57,2.81-1.57Zm-4.72,31.69v-9.44h-2.94c-.21,0-.41,0-.41,.55v8.9h3.35Zm17.38-19.85c-.07,4.93-.21,7.46-1.23,11.09,1.23,.55,2.05,.68,2.46,.68,2.05,0,2.67-9.86,2.74-11.98l-3.97,.21Zm4.17-3.08c1.03-1.71,1.37-2.19,2.46-2.19,1.37,0,2.53,1.09,2.94,1.44-.41-2.6-.68-4.31-1.16-8.49h-7.39c-.82,0-.89,.55-.96,.89,0,.07,.07,5.75,.07,8.62l4.04-.27Zm13.07-16.22c0-.41,2.6-8.55,4.65-9.99,.96-.68,1.78-.68,2.33-.68,2.53,0,4.45,2.26,4.45,4.04,0,2.46-8.08,7.6-10.27,7.6-1.09,0-1.16-.34-1.16-.96Z"/><path class="cls-3" d="M284.74,191.87c4.65-1.03,6.09-1.37,7.53-1.64h.21c.48,0,.55,.34,.55,.55,0,.75-.89,1.23-8.14,5.27,.14,6.3,.21,11.63,.21,13.55,0,4.17,0,11.98-7.67,11.98-4.93,0-9.24-3.83-9.24-4.65,0-.14,.14-.34,.41-.34,.14,0,2.81,.27,3.29,.27,3.56,0,4.31-1.09,4.72-1.92,.82-1.3,.82-2.87,1.1-16.63-2.74,1.44-5.89,2.26-7.6,2.26-2.33,0-3.35-2.33-3.35-3.9,0-1.44,.89-2.33,1.85-2.67,.68-.27,7.6-1.3,9.03-1.51l-.14-11.84h-3.08c-.68,0-3.76,1.23-4.45,1.23-.96,0-2.19-.62-2.19-1.71,0-.62,0-2.94,3.01-2.94,.34,0,1.92,.27,2.26,.27h4.38c0-1.03-.14-3.7-.21-5.68-.14-2.19-.14-2.46-.75-2.94-1.03-.82-1.09-.89-1.09-1.37,0-2.12,3.42-5.2,6.36-5.2,2.12,0,3.42,.96,3.42,2.94,0,1.03-.34,5.95-.34,7.05v5.2h1.09c.41-.68,1.23-2.12,2.6-2.12,1.92,0,3.49,1.98,3.49,3.63,0,1.51-1.71,1.64-3.01,1.64h-4.24v11.22Zm38.6,19.85c.75-1.92,2.94-3.22,4.11-3.22,1.92,0,5.2,2.74,5.2,4.79,0,1.85-2.05,1.98-3.9,1.98h-27.37v.75c0,2.46,0,5.68-5.13,5.68-2.74,0-2.74-2.05-2.74-3.01,0-2.53,.82-28.74,.96-34.15-2.87,2.26-6.23,4.04-7.53,4.04-.34,0-.82,0-.82-.48,0-.07,.34-.55,.41-.68,3.49-3.76,5.27-6.57,8.28-12.8,1.37-2.74,3.22-6.64,3.22-9.17,0-1.92,1.85-2.81,3.49-2.81,1.98,0,5.13,1.37,5.13,3.63,0,1.16-1.71,5.27-4.72,10.61l19.37,.07c.62-1.44,2.19-2.87,3.56-2.87,1.85,0,4.72,2.26,4.72,4.52,0,1.51-1.64,1.92-2.94,1.92h-11.09l-.14,7.66h4.45c.68-1.09,2.4-2.12,3.42-2.12,1.57,0,4.31,1.57,4.31,3.7,0,1.71-2.19,1.85-3.29,1.85h-8.9v7.8h4.65c.75-1.44,2.33-2.4,3.29-2.4,1.71,0,4.31,2.26,4.31,4.11,0,1.64-1.78,1.64-3.42,1.64h-8.83l.14,8.96h7.8Zm-15.67-23.54l-.07-7.73h-6.23v7.73h6.3Zm0,11.09v-7.8h-6.3v7.8h6.3Zm0,3.29h-6.3v9.31h6.23l.07-9.31Zm3.63-26.01c-1.03,0-1.44-.75-1.44-1.23,0-.68,1.37-8.55,1.78-10.13,.21-.96,1.51-3.08,3.97-3.08,2.12,0,4.79,1.51,4.79,3.7,0,3.22-5.61,8.55-6.98,9.85-.96,.48-1.64,.89-2.12,.89Z"/><path class="cls-3" d="M390.47,198.92c.48-1.57,2.46-3.08,3.7-3.08,1.85,0,4.79,2.53,4.79,4.45,0,1.37-1.51,1.44-2.6,1.44h-31.14c-.34,1.3-.48,1.92-.62,3.01h21.9c1.16-1.3,2.26-1.64,2.81-1.64,1.85,0,5.34,2.53,5.34,4.45,0,.27-.62,1.23-.75,1.44-1.98,8.21-4.38,14.85-11.77,14.85-4.72,0-8.14-5.13-8.14-5.89,0-.27,.34-.27,.48-.27,.07,0,.55,.14,.62,.14,.89,.27,3.42,.62,4.52,.62,4.24,0,6.02-5.68,6.43-9.65,0-.21,.07-.82,.07-1.23l-22.24,.21c-.55,1.5-3.7,1.98-5.2,1.98s-2.12-.82-2.12-1.44,1.03-3.56,1.16-4.17c.14-.41,1.64-6.02,1.92-8.62h-2.05c-.55,0-3.01,.82-3.63,.82-1.23,0-1.44-.68-1.44-1.37,0-.62,.14-2.6,2.46-2.6,.27,0,1.71,.27,2.05,.27h2.87c0-.62-.07-3.7-.07-4.38h-1.92c-.55,0-3.35,.75-4.04,.75-.82,0-1.37-.27-1.37-1.3,0-.75,.34-2.6,2.26-2.6,.34,0,1.92,.34,2.26,.34h2.74v-.62c0-.41-.07-1.16-.14-1.5,0-.14-.55-.82-.55-1.03,0-.55,.82-.82,1.64-1.3h-8.69v3.22c0,14.03-.21,23.68-6.77,31.48-2.4,2.81-6.16,5.34-7.6,5.34-.41,0-.82,0-.82-.41,0-.48,2.4-3.08,2.81-3.7,5.13-7.12,5.13-22.17,5.13-29.29v-3.15c0-.82,0-2.4-.62-3.01-.96-.89-1.09-1.03-1.09-1.51,0-1.51,4.38-4.45,6.23-4.45,.55,0,2.53,.34,2.81,2.33h11.7l-.14-1.64c0-.27-.41-.55-.55-.68-.41-.27-.68-.55-.68-.96,0-1.3,3.83-3.08,6.37-3.08s2.6,.96,2.6,1.98l-.55,4.38h14.51c1.16-2.26,2.88-2.94,3.97-2.94,1.92,0,5.34,2.4,5.34,4.45,0,1.09-1.57,1.64-3.01,1.64h-14.24c0,.62-.21,3.83-.21,4.52h4.04c1.64-1.78,2.67-1.98,3.08-1.98,1.57,0,5.06,1.78,5.06,3.22,0,.34-.14,.62-.27,.82-.55,.89-.62,.96-.62,1.5,0,.41,.14,5,.14,5.61,0,2.33-4.86,2.87-5.47,2.87-2.19,0-2.26-1.23-2.26-2.05h-14.51c-.34,1.78-.34,1.98-.62,3.42h24.71Zm-1.16-31.75c1.23-2.46,3.22-3.08,4.24-3.08,2.12,0,5.47,2.53,5.47,4.65,0,1.64-1.37,1.78-1.92,1.85-.27,0-11.7-.07-16.97-.07,0,.75,0,2.33-.07,2.46-.55,.96-3.35,1.71-4.79,1.71s-3.01-.27-3.01-1.57v-2.6h-9.38c0,.27,.07,1.71,0,1.92-.34,1.44-3.7,2.26-5.41,2.26-1.1,0-2.33-.48-2.33-1.71,0-.34,.14-2.05,.14-2.46l-11.63,.21c-.68,0-3.76,1.03-4.45,1.03-.96,0-2.19-.41-2.19-1.57,0-1.44,1.23-3.49,3.08-3.49,.55,0,2.94,.48,3.49,.48h11.84c0-.48-.07-1.57-.14-2.19-.07-.07-.55-.41-.68-.55-.14-.14-.34-.34-.34-.68,0-1.71,4.52-3.42,6.3-3.42,.75,0,2.6,0,2.6,2.4,0,.07-.27,4.24-.27,4.45h9.51c0-.55,0-1.71-.07-2.33-.14-.21-.96-1.1-.96-1.37,0-1.57,4.52-3.29,6.43-3.29,2.26,0,2.6,1.51,2.6,2.53,0,.62-.34,3.76-.34,4.45h9.24Zm-32.51,44.35c.55-.41,.96-.68,1.51-.68s.89,.27,.89,.75c0,2.87-3.7,7.32-8.62,7.32-1.78,0-4.17-1.09-4.17-2.67,0-1.92,1.85-2.53,3.49-2.53,2.87,0,5.54-1.03,6.91-2.19Zm3.08,0c0-1.37,2.94-2.05,4.38-2.05,.89,0,2.67,0,2.67,2.53,0,.55-.27,3.15-.34,3.7-.07,1.09-.27,3.63-3.22,3.63s-2.87-2.4-3.15-6.91c-.07-.14-.34-.75-.34-.89Zm10.47-18.82v-4.45h-3.97c-.07,.75-.07,1.1-.07,4.45h4.04Zm-.07-7.19c0-.96,0-1.78-.14-2.33-.07-.14-.48-.89-.48-1.09,0-.41,.68-.89,1.5-1.09h-4.58c0,.96-.07,2.05-.14,4.52h3.83Zm-2.6,25.59c0-1.37,2.74-2.12,4.11-2.12,2.6,0,2.74,1.78,2.74,6.3,0,1.37-.48,3.29-3.08,3.29-1.51,0-2.4-.82-2.67-1.57-.07-.14-.62-4.65-.68-5.2,0-.07-.41-.55-.41-.68Zm13.55,5.68c-2.33,0-6.16-4.24-6.16-5.95,0-1.3,2.39-1.92,3.49-1.92s2.33,0,2.67,.89c.27,.82,1.71,4.65,2.05,5.54-.07,1.03-1.16,1.44-2.05,1.44Zm-.21-24.09v-4.45h-3.9c0,.62-.07,3.76-.14,4.45h4.04Z"/></g><g><polygon class="cls-1" points="147.74 124.46 147.74 111.24 154.88 90.41 157.85 87.96 167.63 85.26 173.91 86.85 175.39 88.87 175.39 94.37 173.45 95.84 173.91 101.29 190.21 96.26 191.28 92.91 181.34 85.26 177.15 75.65 171.94 69.26 173.91 53.4 222.78 45.08 235.86 68.57 232.53 78.54 225.93 81.84 216.37 91.22 212.22 92.91 212.25 97.13 216.37 98.01 229.46 103.59 237.98 106.11 247.35 113.72 248.59 118.47 247.35 123.38 147.74 124.46"/><polygon class="cls-2" points="157.85 123.38 157.26 112.03 161.87 107.52 163.18 103.59 169.02 103.59 170.92 123.96 157.85 123.38"/><path class="cls-2" d="M235.16,105.52l-5.7,18.99,17.89-.05,1.24-5.99s1.05-4.7-7.79-9.01l-5.65-3.94Z"/><g><path class="cls-2" d="M194.65,64.27c.34-.14,.65-.39,.78-.75,.12-.35,.06-.73-.02-1.1-.05-.22-.11-.45-.26-.61-.02-.02-.04-.03-.05-.05-.08-.06-.17-.1-.25-.14-.96-.42-1.99-.39-3-.6-.58-.12-1.15-.24-1.73-.36-.7-.14-1.4-.42-2.12-.39-.37,.01-.7,.12-1.02,.32-.22,.14-.71,.38-.75,.66-.05,.36,.72,.62,.97,.74,.34,.17,.68,.33,1.02,.5,.86,.42,1.73,.84,2.61,1.22,1.18,.5,2.57,1.05,3.83,.54Z"/><path class="cls-2" d="M218.32,65.54c.28-.05,1.09-.1,1.13-.46,.04-.29-.38-.65-.55-.84-.25-.28-.54-.47-.9-.58-.69-.22-1.43-.14-2.15-.19-.59-.04-1.17-.08-1.76-.12-1.02-.07-2.01-.38-3.05-.22-.1,.01-.19,.03-.28,.07-.02,0-.04,.02-.06,.03-.19,.11-.31,.32-.42,.51-.17,.33-.34,.68-.31,1.05,.03,.38,.26,.7,.55,.93,1.08,.82,2.57,.66,3.84,.5,.95-.12,1.89-.3,2.84-.48,.37-.07,.74-.14,1.11-.21Z"/><path class="cls-4" d="M187.89,72.22c-.26,0-.5-.15-.59-.41-.1-.31,.07-.65,.38-.76l4.63-1.54-4.85-2.08c-.3-.13-.45-.48-.31-.79,.13-.3,.48-.45,.79-.31l6.31,2.7c.23,.1,.37,.33,.36,.58-.01,.25-.17,.46-.41,.54l-6.13,2.03c-.06,.02-.11,.03-.17,.03Z"/><circle class="cls-2" cx="213.42" cy="72.21" r="2.43"/><path class="cls-2" d="M202.94,87.95c-1.09,.04-2.26-.06-3.49-.29-3.77-.72-6.44-2.29-7.94-4.67-1.97-3.13-1.11-6.47-1.07-6.61,.13-.49,.61-.8,1.11-.73l19.86,2.99c.54,.08,.91,.58,.84,1.12-.02,.17-.59,4.07-3.9,6.45-1.51,1.08-3.32,1.67-5.4,1.74Zm-10.71-10.18c-.07,.98,0,2.64,.97,4.18,1.19,1.88,3.42,3.14,6.61,3.75,3.05,.58,5.53,.21,7.36-1.11,1.73-1.24,2.52-3.05,2.86-4.14l-17.81-2.68Z"/><path class="cls-2" d="M168.18,59.27l-2.36-1.91c-.29-.38-.53-.75-.7-1.08-.4-.75-.53-1.29-.53-1.29h0c-.33-.81-.12-1.14-.37-1.96,0,0-.29,.04-.96-.09-1.67-.31-5.25-4.83-4.74-8.76,.31-2.37,1.63-1.78,1.37-3.93-.26-2.15,.55-1.74,1.74-3.17,.28-.33,.51-.89,.47-1.31-.32-3.24,.66-5.83,2.52-7.98,.62-.72,1.34-1.39,2.14-2.02,.5-.39,1.13-.66,1.74-.86,.2-.07,.34-.15,.44-.26,.09-.13,.15-.28,.17-.5,.27-2.24-2.09-3.55-.7-5.33,.26-.34,.53-.65,.82-.96,.85-.91,1.81-1.68,2.93-2.25,.13-.07,.24-.15,.34-.24,.27-.28,.43-.64,.57-1.03,.46-1.22,1.08-2.26,1.89-3.1,.81-.86,1.82-1.52,3.03-1.93,1.1-.38,2.29-.46,3.39-.84,.64-.22,1.29-.66,1.74-1.18,2.41-2.77,5.56-3.35,8.86-3.52,.33-.02,.69-.06,.99,.04,1.12,.39,2.02,.07,2.97-.66,1.77-1.36,3.73-1.71,5.81-.82,.19,.08,.52-.02,.73-.14,1.61-.91,3.36-1.53,5.14-1.31,1.58,.19,2.94-.23,4.39-.68,2.03-.63,3.71,.32,5.28,1.5,.42,.31,.76,.4,1.28,.25,1.83-.5,3.55-.23,5.08,.92,.55,.41,1.09,.87,1.55,1.39,.67,.76,1.61,.8,2.45,1.05,1.29,.39,2.32,1.1,3.12,2.17,.68,.91,1.24,1.91,1.88,2.86,.14,.2,.37,.38,.59,.46,2.08,.75,3.72,2.1,5,3.92,.38,.54,.6,1.23,.77,1.89,.21,.8,.6,1.43,1.21,1.93,1.19,.97,1.82,2.28,2.13,3.8,.08,.36,.37,.74,.66,.97,1.07,.85-1.82-3.22-.85-2.28,1.15,1.11,1.85,2.6,2.41,4.14,.11,.31,.29,.62,.51,.84,1.91,1.94,1.52,1.06,1.54,3.86,0,.85,1.56,2.51,1.84,3.24,1.26,3.27,1.47,4.13,.23,7.42-.16,.42-.14,.67,.11,.99,2.89,3.78,1.93,8.59,1.93,8.59,0,0,.32,5.23-1.15,6.73-.49,.5-1.04,.95-1.66,1.35-.05,.03-.1,.09-.15,.15-.12,.16-.2,.4-.23,.59-.26,1.64-1.09,2.95-2.12,4.16-.01,.02-.03,.03-.05,.05-.21,.24-.48,.49-.76,.57-.93,.26-1.19,2.3-1.85,2.96-.87,.87-2.01,1.22-3.22,1.21-.18-.04-.35-.06-.52-.08-1.84-.12-1.89,1.29-1.89,1.29,0,0,.48,2.81-2.96,1.79s0,0,0,0c-.55,.38-.48,.76-1.59,1.28-1.11,.52-3.16-.62-3.16-.62l-.31-.23c-.22-.21-.04-.05-.24-.28-.07-.1-.14-.21-.23-.33-.61-.81-.53-.5-.56-1.44-.02-.6-.16-.91-.8-1.02-1.34-.23-2.44-.95-3.32-2.03-1.41-1.73-2.3-3.7-2.46-6-.04-.57-.23-.9-.8-1.03-2.51-.61-4.17-2.06-5.39-3.93-.33,0-.65-.02-.98-.06-1.13,.35-2.36,.39-3.47,.1-.11,0-.22-.01-.32-.03-.46-.06-.92-.16-1.36-.3-.87,.46-1.83,.77-2.81,.95-.73,.23-1.5,.3-2.27,.23-.28,0-.56,0-.83,0-2.81-.12-5.45-1.04-7.38-2.95-.05-.02-.09-.03-.14-.05-.02,.03-.05,.06-.07,.09-.14,.19-.29,.37-.45,.55-.06,.07-.13,.15-.19,.22-.21,.23-.43,.45-.66,.65-1.51,1.34-3.35,2.08-5.47,2.29-.79,.08-1.62-.13-2.41-.3-.48-.1-.85-.09-1.16,.19-.08,.09-.16,.19-.24,.33-.23,.43-.59,.79-.88,1.2-.27,.39-.56,.75-.86,1.08-.12,.13-.24,.26-.36,.39-.14,.15-.28,.29-.43,.43-.21,.2-.43,.39-.66,.57-.03,.02-.05,.04-.08,.06-1.42,1.11-3.05,1.81-4.83,2.19-2.3,.13-1.2-.84-2.96-1.27-.08-.04-.16-.07-.26-.1-.5-.11-.99-.25-1.48-.4-1.69-.58-3.07-1.33-4.14-2.04-.02,.03-.05,.04-.1,.04"/><path class="cls-2" d="M203.4,95.48c-9.1,.34-17.76-3.38-23.71-10.73-6.49-8.02-4.95-23.48-4.89-24.14,.07-.62,.62-1.08,1.25-1.01,.62,.07,1.08,.62,1.01,1.25-.02,.15-1.5,15.18,4.39,22.47,5.47,6.76,13.46,10.19,21.87,9.88,4.22-.16,8.54-1.25,12.7-3.34,9.3-4.66,12.4-17.12,13.3-22.26,.07-.4,.26-1.47,1.33-1.35,1.07,.12,1.02,1.19,1,1.59,0,.19-.07,.37-.16,.53-1.25,6.87-4.78,18.68-14.45,23.52-4.47,2.24-9.12,3.42-13.66,3.59Z"/></g><path class="cls-2" d="M190.71,100.56c-.6-.04-1.06-.67-1.04-1.44l.16-6.27c.02-.8,.55-1.44,1.17-1.44,.63,0,1.12,.65,1.1,1.44l-.16,6.27c-.02,.8-.55,1.44-1.17,1.44-.02,0-.04,0-.06,0Z"/><path class="cls-2" d="M213.24,100.89c-.62,.07-1.22-.62-1.33-1.55l-.64-5.32c-.11-.93,.3-1.75,.93-1.82s1.22,.62,1.33,1.55l.64,5.32c.11,.93-.3,1.75-.93,1.82Z"/><path class="cls-2" d="M176.06,74.74c-.18,0-.37-.03-.55-.12-6.98-3.48-4.39-13.2-4.28-13.61,.17-.61,.79-.96,1.4-.79,.6,.17,.96,.79,.79,1.4-.03,.12-2.19,8.33,3.1,10.97,.56,.28,.79,.96,.51,1.52-.19,.39-.57,.61-.98,.63Z"/><path class="cls-2" d="M227.11,82.84c-.59,.02-1.1-.41-1.17-1.01-.07-.62,.38-1.19,1-1.26,5.91-.68,6.65-9.17,6.66-9.25,.05-.63,.6-1.09,1.22-1.04,.63,.05,1.09,.6,1.04,1.22-.03,.43-.92,10.44-8.67,11.33-.03,0-.06,0-.09,0Z"/><path class="cls-2" d="M163.88,50.76s-1.68,1.53,.2,5.35c0,0-.85,6.01,2.6,8.65,0,0-.28,5.68,5.35,6.56,0,0-.24-6.07-.22-6.03s1.65-8.19,1.65-8.19l-9.57-6.34Z"/><path class="cls-2" d="M246.27,61.22s1.17,1.96-1.74,5.06c0,0-.93,6-4.99,7.53,0,0-1.37,5.52-7.02,4.73,0,0,1.99-5.74,1.96-5.71s.79-8.31,.79-8.31l11-3.3Z"/><path class="cls-2" d="M164.59,104.64c-.76,.03-1.26,.01-1.33,0-.48-.02-.85-.42-.84-.9,.02-.48,.42-.86,.9-.84,.08,0,5.29,.17,8.16-1.75,.85-.57,1.34-1.17,1.39-1.71,.06-.56-.35-.99-.35-.99-.28-.28-.34-.7-.14-1.05,1.05-1.84-.13-4.76-.68-5.73-.22-.38-.11-.87,.24-1.13,.04-.03,.05-.05,.05-.05,.07-.22-.44-1.03-1.08-1.62l-4.01-2.96-9.87,3.65c-.06,.02-.12,.04-.18,.05h0s-.67,.12-.91,.59c-.2,.4-.09,1.07,.32,1.9,.08,.16,.11,.35,.08,.53-.21,1.24-.26,3.97,.91,4.46,.44,.19,.65,.7,.47,1.14s-.69,.65-1.14,.47c-2.47-1.03-2.15-4.92-2-6.08-.58-1.27-.64-2.36-.18-3.24,.57-1.09,1.72-1.41,2.1-1.48l10.24-3.79c.28-.1,.58-.06,.82,.12l4.43,3.26s.04,.03,.06,.05c.29,.26,1.76,1.64,1.69,3.01-.01,.29-.09,.57-.23,.81,.55,1.18,1.63,4,.66,6.36,.26,.41,.53,1.05,.46,1.85-.1,1.11-.83,2.12-2.16,3.02-2.4,1.61-5.95,1.97-7.87,2.04Z"/><path class="cls-2" d="M166.79,91.77l-4.8,.18c-.4,.01-.76-.24-.87-.63-.11-.38,.05-.79,.4-.99,.34-.2,2.37-.88,4.01-1.41,.34-.11,.71,0,.94,.27l.96,1.16c.21,.26,.26,.61,.12,.91-.14,.3-.43,.5-.76,.51Z"/><path class="cls-2" d="M175.05,95.97c-.73,.03-1.39-.6-1.63-.84-.35-.33-.36-.88-.02-1.23,.33-.35,.88-.36,1.23-.03,0-.06,0-.12-.02-.18,0-.07-.01-.15,0-.23,0-.02,.3-2.44-.17-4.65-.27-1.29-3.2-1.78-4.57-1.81-.48-.01-.86-.41-.85-.89,.01-.48,.41-.87,.89-.85,.57,.01,5.6,.22,6.23,3.19,.48,2.24,.27,4.58,.21,5.12,.07,.61,.08,1.82-.78,2.26-.17,.09-.35,.13-.52,.14Z"/><path class="cls-2" d="M176.44,121.78c-.52,.07-1.04-.23-1.22-.75l-1.71-19.68c-.11-.3-.08-.63,.07-.91s.41-.49,.71-.57c.31-.08,6.19-1.64,9.15-2.33,.67-.16,1.35,.32,1.4,1.04,.04,.56-.38,1.06-.93,1.19-2.24,.53-5.63,1.4-7.84,1.99l1.27,18.43c.2,.56,0,1.22-.53,1.48-.12,.06-.24,.1-.36,.11Z"/><path class="cls-2" d="M248.07,122.16c-.1,0-.21,0-.31-.03-.61-.15-.98-.77-.83-1.38l.55-2.48c.37-3.58-1.54-4.79-4.7-6.79-1.25-.79-2.67-1.68-4.04-2.85-4.41-3.73-19.01-7.64-19.17-7.68-.61-.16-.97-.78-.81-1.39s.78-.97,1.39-.81c.71,.19,15.26,4.08,20.07,8.15,1.25,1.06,2.54,1.87,3.79,2.66,3.24,2.05,6.3,3.98,5.74,9.04,0,.05-.01,.1-.03,.14l-.57,2.55c-.12,.5-.57,.85-1.06,.87Zm.53-3.69h0s0,0,0,0Z"/><path class="cls-2" d="M170.63,124.64c-.5-.08-.9-.49-.96-1.01l-1.91-19.58c-.06-.62,.4-1.18,1.02-1.24,.62-.06,1.18,.4,1.24,1.02l1.91,19.58c.06,.62-.4,1.18-1.02,1.24-.1,0-.19,0-.29,0Z"/><path class="cls-2" d="M224.05,123.38c-.15,.02-.31,0-.46-.04-.6-.18-.94-.82-.76-1.42l5.22-18.54c.18-.6,.82-.94,1.42-.76,.6,.18,.94,.82,.76,1.42l-5.22,18.54c-.14,.45-.52,.75-.96,.8Z"/><path class="cls-2" d="M230.72,123.56c-.15,.02-.31,0-.47-.05-.6-.19-.93-.83-.74-1.43l4.63-16.83c.19-.6,.83-.93,1.43-.74,.6,.19,.93,.83,.74,1.43l-4.63,16.83c-.14,.44-.52,.74-.96,.79Z"/><path class="cls-2" d="M147.66,122.19h-.01c-.53,.01-.98-.41-.99-.94-.23-9.41,1.22-13.38,1.28-13.55l6.16-17.87c.17-.51,.73-.77,1.23-.6,.51,.17,.77,.73,.6,1.23l-6.17,17.9c-.02,.06-1.39,3.88-1.17,12.84,.01,.53-.4,.97-.93,.99Z"/><path class="cls-2" d="M157.55,121.82c-.53,.02-.98-.4-1-.93l-.34-9.2c-.01-.39,.2-.75,.56-.91,4.71-2.2,5.54-6.95,5.57-7.15,.09-.53,.58-.88,1.11-.8,.53,.08,.89,.58,.8,1.1-.04,.23-.93,5.56-6.08,8.31l.32,8.58c.02,.53-.4,.98-.93,1Z"/><g><polygon class="cls-2" points="207.67 105.04 213.77 113.03 216.71 98.14 213.99 97.16 207.67 105.04"/><polygon class="cls-2" points="207.84 113.58 206.12 108.36 201.96 119.09 207.84 113.58"/><polygon class="cls-2" points="193.82 114.28 196.43 118.82 196.08 109.46 193.82 114.28"/><path class="cls-2" d="M186.99,96.91l.57,15.12,7.94-7.42c-3.02-3.88-4.85-6.82-5.87-8.35l-2.65,.65Z"/><path class="cls-2" d="M219.26,99.05s-.44,.13-.52,.52l-3.24,16.38c-.09,.44-.42,.79-.86,.89-.07,.02-.14,.03-.22,.03-.36,.01-.72-.15-.95-.45l-4.09-5.36,.83,2.51c.14,.42,.02,.88-.3,1.19l-10.05,9.41c-.21,.19-.47,.3-.73,.31-.23,0-.47-.05-.68-.19,0,0,0,0-.01-.01-.12,.09-.24,.17-.39,.21-.09,.03-.18,.04-.27,.04-.41,.02-.81-.2-1.03-.57l-5.2-9.04c-.18-.32-.2-.71-.04-1.05l2-4.26-6.21,5.8c-.2,.19-.47,.3-.73,.31-.16,0-.32-.02-.48-.09-.41-.17-.69-.56-.7-1.01l-.61-16.37-.91,.54-9.25,2.27,1.82,22.34v1.13h46.82l6.2-21.89-10.21-3.57Z"/><path class="cls-1" d="M198.08,104.29s.01,.04,.02,.05c0-.02-.01-.04-.02-.05Z"/><path class="cls-1" d="M205.16,104.55c.04-.1,.1-.2,.18-.29-.07,.09-.13,.18-.18,.29Z"/></g></g></g></g></svg>