<?xml version="1.0" encoding="UTF-8"?><svg id="_圖層_2" xmlns="http://www.w3.org/2000/svg" viewBox="0 0 138.92 134.56"><defs><style>.cls-1{fill:#0e2c50;}.cls-2{fill:#921d24;fill-rule:evenodd;}</style></defs><g id="_圖層_1-2"><g><g><path class="cls-1" d="M131.93,38.33c-9.7-15.33-26.36-22.44-40.55-25.72-1.85-2.47-4.59-4.75-8.2-6.81C63.76-5.26,42.64,2.83,41.76,3.18c-.07,.03-4.39,1.76-7.88,5.78-14.78,2.53-24.96,11.62-25.51,12.12-.09,.08-8.02,7.39-6.17,17.49-.04,.13-.06,.27-.06,.41,0,.12,.08,1.37,.51,3.1-.29,.63-.58,1.29-.84,2-2.96,7.98-2.28,17.28,1.96,26.88,2.88,6.5,7.98,11.51,14.22,15.38,.06,.07,.13,.13,.21,.18,.22,.14,21.63,14.32,27.52,22.2,2.83,3.79,9.59,6.72,18.07,7.85,2.44,.33,4.86,.48,7.22,.48,9.11,0,17.37-2.37,22.94-6.74,.08-.06,.15-.13,.21-.21,.06-.08,6.39-8.18,23.84-20.44,0,0,0,0,0,0,1.23-.77,2.45-1.59,3.66-2.48,4.71-3.47,14.51-10.68,16.77-22.85,2.25-12.14-4.12-22.21-6.52-26Zm-39.8-5.77s0,0-.01,0c0,0,0,0,0,0,0,0,0,0,0,0ZM19.76,45.25l-8.39-3.21c-.39-.57-.76-1.22-1.1-1.99l12.05,4.96c-.94,.11-1.81,.19-2.56,.24Zm-1.8,.15c-.83,.13-3.34,.26-5.62-2.15l5.62,2.15Zm3.8-19.64c.08,.1,.33,.39-.13,1.23-.3,.35-.56,.69-.81,1.04l-5.35-1.91c.62-.27,1.26-.53,1.96-.77l.3-.1h0c.75-.27,3.33-.31,4.02,.51Zm-7.28,.84l5.89,2.1c-.32,.51-.58,1.02-.8,1.52l-6.89-2.53c.54-.39,1.14-.76,1.8-1.1Zm-5.3,5.93l9.45,3.9c.08,.72,.19,1.3,.28,1.7l-9.97-3.96c.03-.57,.1-1.11,.24-1.64Zm2.77-4.26l7.32,2.69c-.24,.66-.42,1.31-.53,1.93l-8.15-3.22c.39-.49,.84-.96,1.35-1.4Zm-1.82,2.06l8.5,3.36c-.07,.67-.08,1.3-.06,1.87l-9.16-3.78c.19-.5,.43-.98,.72-1.45Zm13.75,14.48l-14.02-5.76c-.16-.42-.31-.87-.45-1.35-.03-.09-.04-.18-.07-.27l17.39,6.85c-.95,.21-1.92,.39-2.85,.53Zm4.17-.85l-18.93-7.45c-.1-.51-.15-1-.18-1.49l10.39,4.13c.38,.58,.99,1.11,1.8,1.55,1.17,.64,2.86,1.12,4.54,1.11,.04,.04,.08,.07,.13,.09l3.88,1.56c-.53,.18-1.08,.35-1.65,.5Zm2.73-.91l-3.52-1.42c.24-.06,.49-.12,.72-.2,.71-.18,1.36-.37,1.94-.58l2.64,1.28c-.52,.34-1.12,.64-1.78,.91Zm2.5-1.43l-2.34-1.14c.89-.36,1.61-.74,2.21-1.12l1.4,.65c-.09,.17-.18,.33-.29,.51-.24,.4-.57,.76-.98,1.1Zm1.62-2.31l-1.02-.47c.78-.62,1.25-1.21,1.53-1.7,.06,.3,.05,.95-.51,2.17Zm-5.44-11.33c.03,.09,.06,.19,.09,.28-1.34,.5-2.11,1.04-2.27,1.16-.24,.14-1.06,.77-1.89,3.23-.3,.9-.25,1.54,.16,1.93,.71,.66,2.12,.12,2.35,.01,.03-.02,1.67-1.1,3.65-2.13,.13,.18,.26,.36,.39,.54-1.21,.56-2.42,1.21-3.15,1.89-.87,.8-2.99,1.45-3.97,1.03-.18-.08-.35-.19-.35-.66-.02-3.59,.79-6.19,4.82-7.25,.06-.02,.11-.03,.17-.04Zm1.55,3.65c.03,.06,.07,.11,.11,.17-1.95,1.01-3.53,2.06-3.59,2.1-.38,.15-1.19,.34-1.44,.1-.16-.15-.14-.55,.05-1.1,.79-2.35,1.53-2.8,1.53-2.8,.03-.01,.05-.03,.07-.05,.01,0,.71-.54,2.06-1.05,.31,.88,.71,1.76,1.22,2.62Zm38.76-8.97c-.04-.11-1.02-2.69-5.61-4.31-4.34-1.53-7.31-.76-7.68-.66-.28,.04-1.26,.34-2.91,2.35-.6,.73-.78,1.35-.54,1.86,.42,.87,1.94,.86,2.19,.85,.05-.01,4.7-1.06,7.88-.85,.49,.03,1.12,.15,1.28,.54,.07,.16,.06,.36,0,.57-.2-.2-.47-.34-.78-.35-.55-.02-5.41-.21-7.66,.69-1.1,.44-3.31,.3-4.08-.45-.14-.14-.26-.3-.1-.74,1.26-3.36,2.94-5.51,7.08-5.06,4.69,.51,7.95,1.74,8.53,1.97,.47,.32,3.07,2.2,3.47,5.03,.27,1.94-.55,3.99-2.44,6.1-2.23,2.49-4.67,3.9-6.9,4.68,2.85-1.73,7.18-4.58,8.09-6.47,1.38-2.84,.22-5.64,.18-5.74Zm27.7,15.3c.18,.03,.38,0,.56-.05,.13-.04,.38-.06,.47,0,.05,.03,.15,.19,.2,.56,.02,.2-.03,.26-.07,.3-.33,.38-1.42,.58-2.08,.59-.07,0-.13,0-.2,.02-.3,.05-6.95,1.25-9.17,5.63-.6-.23-1.2-.47-1.82-.7,2.4-3.18,6.62-7.2,12.12-6.35Zm-7.01,8.38c-.36-.15-.71-.31-1.08-.46,.1-.19,.22-.37,.35-.54,.71-.45,1.3-1.01,1.8-1.63,.75-.49,1.56-.88,2.32-1.17-.94,1.5-2.2,2.79-3.38,3.8Zm20.8,15.9c-.83-.37-1.79-.67-2.89-.9-1.67-1.36-3.63-2.82-5.94-4.31-.19-.13-.38-.26-.56-.38-6.82-4.5-17.28-9.94-30.54-12.44-4.93-1.08-9.64-1.61-14.1-1.72,.48-.33,.95-.67,1.41-1.03,1.07-.04,2.12-.12,3.13-.25,5.24,.39,10.82,1.38,16.66,3.21,18.05,5.65,27.69,12.91,32.83,17.82Zm-14.64-13.39c-.04,.11-.08,.22-.11,.33-.24-.12-.49-.25-.73-.37,.45-.42,.91-.88,1.35-1.37-.16,.43-.32,.89-.5,1.41Zm-25.74,35.69s-.01,.08-.02,.12c-.09,.03-.17,.06-.26,.09-1.92,.55-4.29,1.13-6.55,1.57-.1-.34-.23-.68-.4-1.02,2.15-.37,4.72-.98,7.72-2-.19,.33-.35,.68-.45,1.05,0,.03,0,.07-.01,.1,0,.03-.03,.05-.03,.08ZM32.26,50.34l-.39-1.03c.22-.05,.48-.11,.78-.19l.53,.92c-.31,.1-.62,.2-.92,.3Zm3.44-1.2l-.44-.97c.48-.22,.99-.47,1.51-.77l.51,1.08c-.52,.23-1.05,.44-1.59,.65Zm18.79-11.12l.17,1.05c-.33-.01-.65-.03-.97-.05v-1.1c.22,.03,.49,.07,.8,.1Zm24.44-1.13l.22,1.38c-.55,.13-1.11,.25-1.66,.35v-1.41c.48-.1,.97-.2,1.44-.31Zm-17.07,1.92l-.07-1.59c.32-.1,.64-.21,.97-.34l.08,1.87c-.08-.01-.14-.02-.14-.02-.13-.02-.26-.02-.39,0-.15,.03-.3,.05-.45,.07Zm6.63-1.19c.42,.04,.83,.07,1.24,.09l-.05,1.52c-.39,0-.77,0-1.14-.02l-.06-1.59Zm4.4,1.52l-.05-1.42c.54-.02,1.08-.05,1.6-.1l.07,1.39c-.55,.05-1.09,.09-1.62,.13Zm-7.22-1.89l.08,1.82c-.88-.07-1.6-.14-2.12-.21l-.1-2.28s0,0,0,0c.16,.19,.39,.33,.65,.39,.5,.11,1,.2,1.49,.29Zm-4.66,.2l.06,1.47c-.41,.05-.82,.09-1.24,.12l-.1-1.28c.42-.08,.85-.18,1.28-.3Zm44.91,17.33c.14-.39,.27-.77,.4-1.1,.08-.21,.15-.42,.22-.63,.89,.83,1.58,1.86,2.07,3.09,.12,.3,.22,.61,.31,.92-.88-.7-1.85-1.43-2.89-2.17-.03-.04-.06-.08-.1-.12Zm4.87,.52c-.61-1.55-1.67-3.33-3.56-4.72,.05-.22,.08-.44,.12-.66,2.13,.91,3.66,2.46,4.51,4.66,.68,1.74,.89,3.72,.75,5.71-.3-.28-.61-.57-.93-.86-.11-1.43-.38-2.83-.89-4.13Zm1.76,11.24c.95,3.33-4.56,9.41-10.22,13.13-3.86,2.54-9.45,2.95-14.25,1.05-3.34-1.33-5.61-3.57-6.22-6.14-.68-2.89-.33-5.13,1.08-6.86,2.73-3.35,9.46-4.91,20-4.62,5.6,.15,9.01,1.37,9.6,3.44Zm-31.86,18.94c-.59,.15-1.26,.28-2,.37-.28,.03-.56,.05-.83,.05-.63,0-1.17-.1-1.66-.24,1.27-.19,2.68-.36,3.9-.4,.19,.08,.39,.15,.59,.22Zm.24-1.79c-.13,0-.27,0-.41,0-2.04,0-4.7,.42-6.43,.74-.23-.22-.38-.4-.45-.49-.14-.18-.31-.32-.5-.43,1.11-1.23,3.26-2.06,5.74-2.06s4.81,.9,5.88,2.22c-.12,.05-.23,.12-.33,.2-.02,.02-.2,.16-.53,.35-.71-.25-1.67-.48-2.97-.52Zm-38.77-11.69s-1.53-1.32-.11-2.37c.22-.16,.44-.23,.67-.23,1.29,0,2.68,2.11,2.68,2.11,0,0,4.34,4.92,8.22,4.92,.19,0,.37-.01,.56-.04,.2-.03,.39-.04,.58-.04,3.43,0,3.32,4.43,3.32,4.43,0,0-11.72-.23-15.92-8.79Zm6.81-29.38l.56,1.32c-.51,.22-1.02,.43-1.52,.62l-.49-1.41c.49-.17,.98-.35,1.45-.53Zm4.72,5.76c.84,.04,1.69,.09,2.56,.15-.15,.51-.21,.89-.23,1.03-.04,.2-.07,.4-.1,.6-1.05-.03-2.11-.03-3.18-.02,.4-.57,.72-1.15,.94-1.75,0,0,0-.01,0-.02Zm3.87,1.49s.01-.07,.02-.1c0-.02,.25-2.23,2.09-3.68,1.13-.89,2.63-1.34,4.47-1.34,.55,0,1.14,.04,1.75,.12,3.03,.4,5.18,1.36,6.22,2.79,.33,.46,.51,.9,.61,1.28-.25,.15-.49,.31-.72,.49-1.04,.83-1.66,1.87-2.02,2.75l-.77,.82s-.03,.1,0,.14c.02,.02,.04,.03,.07,.03,.03,0,.05-.01,.07-.03l.45-.48c-.07,.22-.13,.42-.17,.6-1.63,.31-3.93,.54-6.63,.24-5.19-.58-5.42-2.16-5.43-2.19,0-.07-.05-.11-.1-.15-.06-.48,0-.92,.07-1.28Zm16.1-2.69c.93,.24,1.87,.5,2.82,.79-.84,.01-1.61,.13-2.31,.35-.11-.36-.27-.74-.51-1.14Zm21.04,13.78c-.51,.05-1.01,.1-1.49,.16-2.34-1.4-5.03-2.84-8.02-4.2,.09-.22,.16-.45,.22-.68,3.58,1.56,6.65,3.16,9.3,4.73Zm-43.35-7.93l-2.93,.65c.53-.24,1.06-.52,1.57-.86,.7,.04,1.12,.13,1.35,.21Zm2.46-.62c.56,0,1.11,0,1.66,0-.46,.17-1,.36-1.59,.57,0-.19-.02-.38-.07-.57Zm25.39,19.31c-.9,.59-1.86,1.18-2.86,1.75-.41-.12-.79-.24-1.18-.37-.02-.05-.04-.09-.06-.14,1.52-.83,2.92-1.71,4.21-2.63-.07,.45-.1,.91-.11,1.39Zm-2.49-2.47c-1.25,.36-2.42,.76-3.5,1.19-.58-.35-1.23-.61-1.8-.79,2.33-.97,4.99-1.8,8.03-2.36-.86,.67-1.77,1.33-2.73,1.96Zm-8.26-.87c-.69-.2-1.38-.3-1.86-.35-.02-.03-.05-.05-.08-.08,4.24-2.25,9.85-4.23,17.28-4.62-.35,.37-.7,.73-1.08,1.1-5.83,.6-10.51,2.13-14.27,3.94Zm-1.49-3.57l1.78-2.39c1.94-.81,4.1-1.53,6.53-2.08,.3,.03,.6,.06,.92,.07,.38,.01,.74,.02,1.08,.02,2.6,0,4.46-.37,5.79-1.14,.51-.02,1.03-.05,1.55-.05,.64,.3,1.28,.6,1.89,.91-.04,.05-.08,.1-.11,.15-8.43-.08-15.11,2.31-19.44,4.51Zm-3.42,.66c-.27,.29-.52,.59-.77,.88-.06,0-.13-.01-.19-.01-.18-.18-.38-.33-.59-.48,2.37-3.32,5.05-6.62,7.58-9.44,.06,.22,.14,.44,.23,.66l-6.27,8.4Zm-15.75-5.19l-1.04-.34c.83-.36,1.69-.71,2.54-1.04-.47,.4-.98,.86-1.5,1.38Zm3.73-.16c2.78-2.16,5.79-3.55,8.37-4.4,.7,.25,1.53,.44,2.51,.55-.05,.06-.1,.11-.15,.17-2.87,.84-6.8,2.37-10.63,5.1-.35-.2-.77-.37-1.19-.52,.37-.33,.73-.64,1.08-.91Zm4.5,1.99l1.53-.34-1.17,1.57c-.33-.08-.63-.12-.88-.14-.06-.06-.13-.11-.19-.16,.23-.31,.47-.62,.7-.93Zm2.76,2.43c2.13-2.89,4.46-5.71,6.66-8.17,.25,0,.5,0,.73-.02l-3.04,4.07c-1.09,1.37-2.21,2.85-3.3,4.39-.41-.13-.78-.23-1.05-.28Zm10.72-10.53c-.02,.1-.03,.2-.05,.3-1.41,.4-3.3,.56-5.77,.49-3.35-.11-4.87-1.18-5.55-2.07-.1-.13-.18-.26-.26-.39,.7,.56,2.14,1.21,5.09,1.55,.9,.1,1.76,.14,2.57,.14,1.56,0,2.93-.16,4.02-.36-.03,.16-.04,.28-.05,.34Zm-27.6,6.84l5.84,1.89s.09,.03,.14,.04c1.04,.2,2.38,.61,2.74,.91,.17,.14,.38,.23,.61,.26,1.07,.13,2.44,.58,2.68,.99,.22,.38,.64,.61,1.08,.59,.01,0,1.47-.05,2.32,.88,.16,.17,.37,.28,.59,.34-.17,.05-.32,.11-.47,.18l-.65-.41c-.18-.12-.42-.06-.54,.12-.12,.18-.06,.42,.12,.54l.33,.21c-.17,.15-.31,.32-.44,.49l-.65-.42c-.18-.12-.42-.06-.54,.12-.12,.18-.06,.42,.12,.54l.68,.44c-.14,.32-.22,.63-.25,.87-.03,.21,.13,.41,.34,.43,.02,0,.03,0,.05,0,.19,0,.36-.15,.39-.34,0-.03,.04-.25,.15-.53l1.63,1.04c-.2,.46-.26,.83-.26,.87-.03,.21,.12,.41,.34,.44,.02,0,.03,0,.05,0,.19,0,.36-.14,.39-.34,0,0,.04-.24,.16-.54l.98,.63c.07,.04,.14,.06,.21,.06,.13,0,.26-.06,.33-.18,.12-.18,.06-.42-.12-.54l-.93-.6-.08-.05c.13-.17,.31-.33,.51-.48l.04,.02,2.17,1.36c.06,.04,.14,.06,.21,.06,.13,0,.26-.07,.33-.18,.12-.18,.06-.42-.12-.54l-1.79-1.12s.03-.01,.05-.02c.21-.05,.34-.27,.28-.47-.05-.21-.27-.34-.47-.28-.26,.06-.49,.15-.69,.25l-1.45-.91c.09-.02,.16-.05,.26-.06,.21-.03,.35-.21,.34-.41,.85,.25,1.82,.67,2.22,1.22,.23,.32,.61,.5,1.02,.48,.02,0,2.12-.07,2.87,1.13,.21,.33,.56,.53,.95,.55,1.12,.04,2.6,.39,2.94,.83,.12,.15,.27,.27,.44,.35-.27,.18-.51,.41-.7,.68-.91,.4-3.07,1.5-3.82,3.21-.01,.03-.02,.06-.03,.09-.19,.39-.28,.82-.23,1.32,0,0,0,0,0,0,0,.09,.02,.18,.04,.28,0,.07,.01,.13,.03,.2-.18,.41-.41,1.05-.46,1.75-.2-.21-.38-.47-.53-.79-.15-.35-.47-.6-.84-.68-.86-.18-1.86-.6-2.11-.89,.03-.28-.04-.55-.19-.79-.18-.27-.46-.45-.77-.5-.93-.17-1.99-.59-2.26-.89,.07-.29,.03-.59-.11-.85-.16-.29-.43-.49-.75-.57-.72-.18-1.54-.54-1.81-.78,0-.24-.06-.48-.19-.68-.17-.26-.44-.45-.75-.51-.87-.18-1.86-.6-2.11-.89,.06-.55-.27-1.08-.81-1.25-.94-.3-1.97-.88-2.16-1.21,.09-.57-.26-1.13-.83-1.3-.65-.19-1.39-.58-1.57-.8-.08-.34-.31-.62-.62-.77-.71-.35-1.5-.86-1.74-1.12-.06-.25-.21-.48-.42-.64-1.03-.8-2.09-1.86-2.21-2.18-.01-.08-.04-.16-.06-.23,.16,.03,.37,.07,.61,.14Zm16.66,8.5l-1.48-.95-.16-.1c.13-.17,.28-.33,.47-.47l.16,.1,1.46,.92c-.18,.16-.33,.33-.46,.5Zm1.07,10.75s0-.06,0-.09c.02-.32,.04-.66,.08-1.02,.04-.01,.09-.02,.13-.03,.55,.32,1.14,.55,1.62,.69-.6,.15-1.21,.3-1.83,.44Zm-14.64-12.51c.08,.06,.15,.12,.23,.18-.18,.26-.36,.52-.51,.78-.06-.04-.12-.08-.18-.12,.15-.28,.3-.56,.46-.84Zm2.01,1.74c.06,.08,.14,.14,.21,.22-.22,.33-.41,.65-.58,.97-.05-.07-.11-.16-.18-.25,.16-.31,.35-.62,.55-.94Zm2.74,2.17c.21,.31,.51,.58,.84,.8-.16,.42-.31,.83-.44,1.24-.37-.24-.73-.5-1.07-.76,.21-.42,.43-.84,.67-1.28Zm3.2,2.28c.28,.32,.65,.59,1.07,.83-.03,.08-.05,.17-.07,.25-.1,.01-.19,.02-.3,.02-.36,0-.75-.07-1.14-.18,.14-.3,.28-.61,.44-.92Zm13.63,5.89c.29-.54,.77-1.45,.38-2.63-.21-.63-.21-.64,2.01-2.16,.33-.23,.7-.48,1.11-.76,.91-.63,1.72-.94,2.23-.83,.29,.06,.39,.23,.39,.22,.03,.06,.06,.12,.1,.17,.66,.9,.29,1.87,.28,1.9-.08,.19-.11,.4-.09,.61,.09,.77-.33,1.04-.67,1.13-.57,.12-.97,.64-.94,1.22,.03,.49-1.15,1.29-2.18,1.65-.06,.02-.12,.05-.18,.08-1.04,.56-1.7,.08-1.83-.02-.2-.18-.45-.28-.7-.3-.01-.01-.03-.02-.04-.03,.04-.07,.08-.16,.12-.23Zm12.81-1.91c-1.36-.39-2.72-.88-4.05-1.41,0-.05,0-.1,0-.15,.05-.15,.09-.32,.12-.5,1.43,.42,2.99,.77,4.65,1,.21,.47,.46,.93,.75,1.37-.52-.07-1.02-.17-1.48-.3Zm9.28-16.48c.29,.16,.58,.32,.87,.48-.54,.12-1.06,.26-1.55,.4,.24-.3,.46-.59,.68-.88Zm-4.62-6.83s-.01,.09-.01,.14c0,1.24-.33,2.16-1.02,2.82-1.14,1.1-3.29,1.56-6.76,1.44-2.17-.07-3.77-.69-4.63-1.78-.59-.76-.8-1.74-.58-2.78,0-.03,.01-.06,.01-.09,0-.02,.21-2.17,1.92-3.54,.94-.75,2.17-1.12,3.66-1.12,.47,0,.97,.04,1.49,.11,2.54,.36,4.3,1.19,5.23,2.45,.86,1.17,.68,2.31,.67,2.35Zm-29.69-12.94l-.04-.09c.06,0,.12,0,.17,0-.05,.03-.09,.06-.14,.08Zm-.69,.4c-.41,.24-.83,.46-1.25,.68l-.56-1.28s.06-.03,.1-.05c.49,.04,.99,.08,1.51,.11l.21,.54Zm-2.51-.24l.56,1.28c-.49,.24-.98,.47-1.47,.69l-.55-1.31c.5-.21,.99-.43,1.46-.66Zm-4.94,3.58l-.62-1.47c.41-.11,.81-.23,1.19-.36l.5,1.44c-.37,.14-.72,.27-1.07,.39Zm-1.38-1.27l.64,1.52c-.41,.14-.8,.26-1.17,.38l-.69-1.61c.41-.09,.82-.19,1.22-.29Zm2.76,4.62s-.04,.05-.07,.07c-.09,.09-.18,.17-.27,.25,.11-.11,.23-.22,.34-.32Zm1.04,1.18c1.64-1.65,2.47-3.15,2.86-4.09,.26-.12,.51-.24,.77-.36,.74,1.55-.32,4.03-2.58,5.8-1.44,1.13-3.04,1.72-4.36,1.72-.94,0-1.73-.3-2.22-.92-.1-.12-.17-.26-.24-.4,.19,.05,.68,.16,1.35,.16,1.16,0,2.85-.34,4.41-1.9Zm-10.68,9.02c-.82,.53-1.61,1.13-2.34,1.8-2.29,.82-4.05,1.91-5.4,3.04-.01,0-.03,.02-.04,.03-.5-.55-1.16-1.13-1.93-1.45,2.53-1.35,6.04-2.5,9.71-3.42Zm-5.96,6.47c-.05,.1-.1,.2-.14,.3-.05-.05-.09-.09-.14-.13,.09-.06,.19-.11,.28-.16Zm6.83-4.26c.08,.22,.17,.42,.29,.61,.07,.2,.18,.41,.31,.61-1.49,1.56-2.76,3.39-3.66,5.36-.13,.21-.23,.42-.34,.63-.6-.31-1.18-.7-1.73-1.11,1.08-2.4,2.92-4.59,5.14-6.1Zm2.15,3.01c.29,.27,.59,.52,.85,.73,.14,.28,.41,.64,.91,1.04-.15,.16-.29,.32-.44,.48-.83,.94-1.48,1.88-1.99,2.81-.39-.1-.8-.17-1.24-.17-.25,0-.51,.02-.78,.05-.11,.01-.23,.02-.36,.02-.07,0-.15-.01-.22-.02,.75-1.8,1.91-3.5,3.25-4.94Zm15.88,18.28c.16,.02,.31,.03,.44,.04,0,.1,.02,.19,.03,.28-.16-.04-.33-.1-.49-.16,.01-.05,.02-.11,.03-.16Zm7.89-.25c.49,.14,.93,.2,1.25,.22,0,0,0,0,0,0,.05,.04,.12,.07,.18,.1-1.73,.42-3.24,.69-4.53,.85-.2-.11-.41-.2-.64-.27,1.14-.22,2.39-.52,3.74-.9Zm38.26-21.29c-.63-.02-1.24-.03-1.85-.03-.14-.09-.28-.19-.42-.28-3.97-2.62-9.18-5.56-15.46-8.05-.14-.38-.34-.77-.63-1.17-.17-.23-.36-.45-.57-.66,8.72,3.3,15.07,6.93,19.68,10.23-.25-.01-.5-.02-.76-.03Zm-45.67-14.46c-1.12-.1-2.21-.18-3.28-.23-.03-.44-.13-.86-.29-1.25,1.6-.03,3.23-.01,4.9,.07-.55,.44-.98,.92-1.33,1.4Zm0-7.16l-.06-1.06c.53-.03,1.09-.09,1.69-.18l.1,1.2c-.57,.03-1.14,.04-1.72,.04Zm-14.6,2.93c.43-.6,.83-1.25,1.21-1.95,.59,.14,1.2,.28,1.82,.4,.09,.02,.65,.11,1.54,.24-1.4,.52-2.92,.97-4.57,1.31Zm.1,2.38l.72,1.67c-.85,.25-1.55,.43-2.06,.56l-.9-2.1s0,0,0,0c.22,.12,.48,.17,.75,.13,.51-.08,1-.17,1.49-.26Zm-4.28,1.85l.58,1.34c-.36,.19-.74,.37-1.12,.55l-.55-1.16c.36-.22,.73-.47,1.09-.73Zm1.66,.74c-.13,.08-.26,.15-.39,.22l-.63-1.45c.26-.21,.53-.43,.79-.66l.74,1.72c-.08,.02-.13,.03-.14,.03-.13,.03-.25,.07-.37,.14Zm5.99,.74c-.82,.8-1.61,1.65-2.23,2.34-.36-.02-.61-.08-.69-.1-.13-.04-.27-.05-.41-.05-.06,0-.13,.01-.19,.02,.05-.41,.17-.83,.36-1.26,.85-.23,1.93-.54,3.15-.95Zm-25.1,14.07c2.39-3.95,13.48-6.63,21.84-8.03,.65,.38,1.43,.59,2.3,.6l-7.7,1.71c-5.49,.63-9.03,2.55-11.32,4.58-.98,.6-1.82,1.24-2.49,1.93-.85-.28-1.78-.46-2.76-.52,.04-.09,.07-.17,.12-.26Zm5.27,1.91c.22-.16,.44-.23,.67-.23,1.29,0,2.68,2.11,2.68,2.11,0,0,4.34,4.92,8.22,4.92,.19,0,.37-.01,.56-.04,.2-.03,.39-.04,.58-.04,.3,0,.56,.04,.81,.1,0,0,0,0,0,0-.04,1.1,.6,1.96,1,2.38,.36,.7,.76,1.33,1.2,1.93-1.66-.1-9.52-.84-13.98-6.26,.09-.33,.14-.68,.14-1.03,0-.21-.02-.41-.04-.55,0-.01,0-.02,0-.03,0-.02,0-.03,0-.05-.19-1.2-.91-2.26-2-3.08,.05-.05,.1-.09,.17-.14Zm4.01,9.24c-.14-.02-.28-.04-.43-.05-.3-.31-.51-.64-.64-.95,.35,.28,.71,.54,1.07,.78,0,.07-.02,.15,0,.22Zm-2.26,2.3c.23-.6,.81-.8,1.45-.8,1.11,0,2.39,.57,2.39,.57,0,0,2.54,.73,5.23,.73,.12,0,.24,0,.37,0,2.62,.62,4.61,.68,4.81,.68,.01,0,.02,0,.03,0,.29,0,.57-.09,.8-.23,.43,.47,.89,.9,1.36,1.29-2.01,.8-4.82,1.62-7.85,1.62-2.37,0-4.88-.51-7.23-1.94,0,0-2-.29-1.37-1.94Zm8.59,5.44c2.9,0,5.59-.69,7.67-1.45,.11,.02,.22,.04,.34,.06,.2,.68,.6,1.2,.88,1.5,.51,1,1.12,1.88,1.78,2.68-.42,.02-.84,.03-1.27,.03-3.31,0-6.94-.65-9.84-2.84,.15,0,.29,.01,.44,.01Zm10.17-.83s-.59-.51-.7-1.15c2,1.31,4.15,2.15,6.06,2.68,1.62,1.36,3.93,2.9,6.11,2.9,.19,0,.37-.01,.56-.04,.2-.03,.39-.04,.58-.04,3.43,0,3.32,4.43,3.32,4.43,0,0-11.72-.23-15.92-8.79Zm25.51,4.99c.34,.46,2.12,2.6,5.48,2.6,.32,0,.66-.02,1.02-.06,4.16-.51,6.27-2.12,6.53-2.33,.02,.11,.03,.22,.03,.34,0,2.19-2.94,3.97-6.56,3.97s-6.56-1.78-6.56-3.97c0-.18,.03-.36,.07-.54Zm13.37-2.63c.46,.24,.95,.46,1.46,.66,2.27,.9,4.71,1.35,7.1,1.35,3.38,0,6.68-.89,9.31-2.61,3.46-2.27,7.78-6.07,9.97-9.87-1.08,6.48-11.37,12.04-11.48,12.1-.04,.02-.1,.06-.14,.09-.02,.02-2.53,1.96-10.29,.84-2.73-.4-4.61-1.41-5.92-2.55Zm29.23-14.58c.04-.58-.01-1.14-.15-1.68,.06,.07,.12,.13,.17,.2,.42,.48,.77,.87,1.08,1.19-.11,.08-.23,.16-.34,.25-.16,.12-.31,.25-.46,.38-.1-.11-.2-.22-.3-.34Zm.17-4.83c-.14-.15-.28-.3-.43-.46,.36-2.16,.4-4.41-.04-6.52-.11-1.43-.53-2.72-1.28-3.83-.3-.45-.65-.85-1.01-1.21-1.06-1.32-2.58-2.55-4.77-3.34,0-.02,0-.05,0-.07,3.81,.51,6.36,2.35,7.58,5.49,1.17,3,.95,6.75-.06,9.93Zm-11.03-9.99c-.07,.19-.15,.4-.22,.61-.33-.22-.67-.44-1.02-.66,.77-2.03,1.47-4.33,1.6-6.24,.26,.12,.53,.22,.82,.31-.02,1.66-.3,3.68-1.17,5.97Zm-25.07-10.85c-.15,.03-.31,.03-.47,.01-.36-.11-.71-.21-1.07-.32-.14-.06-.27-.13-.4-.19,.08-.14,.18-.3,.28-.47,.89-.15,1.78-.33,2.67-.55-.39,.55-.73,1.06-1.01,1.52Zm.85-3.92l-.22-1.39c6.1-1.65,9.6-4.64,9.84-4.85,.02-.02,.04-.04,.06-.06,.05-.05,.31-.32,.68-.77-.62,1.1-1.39,2.1-2.33,2.97-2.18,2.03-5.03,3.3-8.03,4.09Zm-3.22-.74v1.4c-.46,.07-.93,.14-1.4,.19l-.07-1.39c.5-.06,.99-.12,1.47-.2Zm-4.63,.41l.05,1.43c-.56,.02-1.11,.04-1.64,.05l.05-1.49c.52,.02,1.04,.02,1.54,.01Zm-4.35-.22l.06,1.65c-.43-.02-.84-.04-1.22-.06l-.08-1.75c.42,.06,.83,.12,1.24,.16Zm-11.22,.56l.06,1.03c-.37,0-.73-.01-1.09-.02l-.16-1.02c.27,.01,.56,.02,.87,.02,.1,0,.22,0,.33,0Zm-3.58,.88c-.53-.04-1.04-.08-1.53-.13v-.78c.52-.02,1.03-.07,1.53-.15v1.06Zm-2.31-.2c-2.56-.26-4.38-.58-4.41-.58-6.17-1.17-10.5-3.64-12.88-7.34,3.2,3.51,7.36,4.81,8.1,5.01,3.41,1.48,6.45,2.21,9.2,2.23v.68Zm-8.99,.67c-1.05,1.79-2.29,3.18-3.55,4.24,.96-1.24,2.14-2.82,3.14-4.37,.13,.05,.27,.09,.41,.14Zm-7.07,9.04l.42,.94c-.34,.13-.69,.25-1.03,.37l-.52-.9c.35-.11,.72-.25,1.12-.41Zm-3.41,1.1l.38,.99c-.51,.15-1,.29-1.47,.43l-.28-.73c.48-.21,.94-.43,1.37-.68Zm-2.1,.99l.24,.63c-2.49,.66-4.3,1.02-4.33,1.02-6.19,1.1-11.11,.33-14.66-2.28,3.16,1.6,6.38,1.86,8.13,1.86,.6,0,1.03-.03,1.22-.05,3.72,.17,6.82-.22,9.39-1.19Zm-10.27,7.01h0c.05-.04,1.53-1.22,4.3-2.71,.75-.08,1.52-.19,2.31-.33,.4-.08,9.89-1.92,15.87-5.4,0,0,0,0,0,0-.18,.72-.21,1.43-.09,2.09-6.09,1.02-12.53,2.82-19.28,5.62-.06,.02-.12,.05-.17,.09-.13,.08-3,1.89-5.61,5.39-.28-.05-.41-.13-.43-.18-.23-.63,.98-2.82,3.1-4.57Zm1.36,6.05c2.58,0,4.81,.9,5.88,2.22-.12,.05-.23,.12-.33,.2-.02,.02-.2,.16-.53,.35-.71-.25-1.67-.48-2.97-.52-.13,0-.27,0-.41,0-2.04,0-4.7,.42-6.43,.74-.23-.22-.38-.4-.45-.49-.14-.18-.31-.32-.5-.43,1.11-1.23,3.26-2.06,5.74-2.06Zm-.46,4.42c-.19,.02-.37,.03-.55,.03-.63,0-1.17-.1-1.66-.24,.62-.09,1.27-.18,1.91-.25,.09,.15,.19,.31,.3,.46Zm-6.03-.99c.34,.46,2.12,2.6,5.48,2.6,.32,0,.66-.02,1.02-.06,4.16-.51,6.27-2.12,6.53-2.33,.02,.11,.03,.22,.03,.34,0,2.19-2.94,3.97-6.56,3.97s-6.56-1.78-6.56-3.97c0-.18,.03-.36,.07-.54Zm10.75,5.27c.35,.29,.76,.56,1.25,.79,.29,.14,.96,.46,1.64,.46,.07,0,.14,0,.21-.02,0,0,0,0,0,0-.48,.39-.72,.86-.83,1.14-.44,1.14-.17,2,.13,2.51,.56,.95,1.56,1.33,2.12,1.47,1.46,.85,3.06,1.44,4.76,1.75,2.9,3.09,7.08,4.66,12.45,4.66,.32,0,.65,0,.96-.02,.73,.81,1.78,1.5,3.17,1.5,0,.31,.08,.61,.23,.88,.09,.16,.2,.3,.33,.44-6-1.2-11.32-2.75-15.33-4.53-10.07-4.47-13.08-8.3-13.96-10.33,1.04-.12,2.01-.37,2.87-.72Zm39.99,16.39s0-.03,0-.05c2.92-.56,5.61-1.3,6.73-1.62,.66,1.5,2.21,2.71,4.25,3.37-3.83-.04-7.69-.25-11.46-.61,.29-.28,.47-.66,.48-1.09Zm22.29-1.66c.5,.04,1.02,.07,1.55,.07,1.56,0,3.22-.19,4.86-.58,1.16,.12,2.21,.18,3.13,.18,4.44,0,6.27-1.17,6.7-1.5,.71-.38,5.64-3.13,9.05-7.09,.11-.06,.22-.13,.33-.2,.6-.45,.92-1.02,1.07-1.62,0,0,0-.01,.01-.02,.53,.55,1.22,.93,2.02,1.12,0,0,.02,.01,.02,.02,.23,.22,.54,.33,.86,.32,.15,0,.37-.02,.62-.05-4.29,3.77-11.16,7.98-19.53,10.58-4.43,1.06-9.35,1.7-14.45,1.98,1.8-.68,3.15-1.82,3.76-3.19Zm34.28-12.8c-1.44,1.13-3.04,1.72-4.36,1.72-.94,0-1.73-.3-2.22-.92-.06-.08-.1-.16-.15-.25,.02-.04,.04-.08,.06-.12,.24,.06,.66,.13,1.21,.13,1.16,0,2.85-.34,4.41-1.9,2.56-2.56,3.13-4.79,3.2-5.06,.07,.07,.14,.14,.2,.21,1.17,1.49,.12,4.26-2.34,6.2Zm-2.44-2.2c.11-.11,.23-.22,.34-.33-.02,.02-.04,.05-.07,.07-.09,.09-.18,.17-.27,.25Zm3.06-4.56s-.07,.28-.23,.67c-.57,.22-1.25,.56-2.02,1.13-1.37,1.01-3,2.73-4.08,3.95-.14,0-.26-.02-.37-.03,.29-.94,.43-1.91,.38-2.9,.41-.51,.9-1,1.47-1.45,1.44-1.13,3.04-1.72,4.35-1.72,.21,0,.42,.02,.61,.05-.05,.1-.09,.2-.11,.31Zm-4.18-2.18c-.11-.12-.21-.24-.32-.36,.64-1.49,1.11-3.14,1.34-4.96,.21-1.64,.14-3.14-.17-4.5-.14-1.19-.41-2.35-.83-3.44-.48-1.23-1.26-2.61-2.5-3.82,1.73,.94,2.98,2.37,3.73,4.29,1.55,3.96,.66,9.24-1.25,12.79Zm-8.89-19.51s-.1,0-.15,0c-3.13-.05-5.64-1.62-5.61-3.52,0-.16,.03-.31,.07-.46,.29,.4,1.83,2.31,4.8,2.31,.25,0,.51-.01,.77-.04,3.6-.39,5.45-1.75,5.67-1.93,.01,.1,.02,.19,.02,.29-.03,1.86-2.51,3.34-5.57,3.34Zm-.52-3.25c.11,0,.22-.02,.33-.03-.03,0-.06,0-.09,.01-.08,0-.16,0-.24,.01Zm5.11-1.61s-.23,.17-.59,.37c-.58-.19-1.33-.34-2.29-.39-.18,0-.37-.01-.56-.01-1.63,0-3.66,.28-5.09,.51-.25-.23-.41-.43-.47-.51-.12-.17-.27-.29-.44-.4,.99-.94,2.71-1.56,4.68-1.56,.05,0,.1,0,.15,0,2.13,.03,3.96,.77,4.92,1.84-.1,.05-.2,.09-.29,.16Zm-11.77,.44s-.02,.05-.03,.08c-.07,.29-.1,.55-.11,.81-.01,.68,.17,1.32,.5,1.91,.04,1.75-.2,3.95-1.17,6.49-.07,.18-.14,.37-.21,.57-.34-.2-.69-.4-1.04-.6,1.08-2.84,2.03-6.24,1.44-8.3,.06-.8,.06-1.55,.02-2.23,.11-.02,.21-.03,.3-.04,.02,.06,.03,.13,.05,.2,.07,.26,.16,.6,.25,1.02,0,.03,0,.06-.01,.09Zm-7.85,6.29c-.21-.1-.43-.2-.64-.3,1.59-1.49,3.2-3.43,4.09-5.7,.27-.02,.63-.05,1.04-.14-.76,2.5-2.72,4.63-4.48,6.13Zm-5.96-9.04c-1.18,.74-2.28,1.71-3.03,2.94-.55,.64-1.03,1.28-1.46,1.87-.56-.2-1.13-.39-1.71-.59,.72-1.11,1.76-2.53,3.09-3.86,1.88-.83,3.64-1.9,5.14-3.3,.1-.1,.2-.2,.3-.3,1.42-.49,2.98-.68,4.66-.42,.18,.03,.38,0,.56-.05,.13-.04,.38-.06,.47,0,.05,.03,.15,.19,.2,.54-3.25,.05-6,1.4-8.22,3.16ZM42.61,5.37c.21-.08,20.99-8.02,39.4,2.47,5.88,3.35,9.17,7.21,9.77,11.48,.8,5.66-3.44,10.35-3.84,10.78-.59,.49-8.63,6.94-21.52,4.89,1.26-.85,2.51-1.91,3.72-3.25,2.39-2.65,3.4-5.35,3.02-8.02-.6-4.19-4.46-6.62-4.63-6.72-.05-.03-.1-.06-.16-.08-.15-.06-3.76-1.58-9.28-2.18-6.81-.74-8.79,4.57-9.54,6.57-.45,1.21-.21,2.4,.66,3.24,1.49,1.46,4.71,1.71,6.59,.95,1.51-.61,5.34-.59,6.69-.53,.07,0,.14,0,.21-.01,.16,.11,.38,.08,.51-.07,.14-.17,1.36-1.66,.88-2.79-.26-.6-.91-.94-1.95-1.01-3.17-.21-7.56,.75-8.06,.86-.44,0-1.21-.12-1.35-.42-.09-.19,.06-.56,.44-1.02,1.58-1.92,2.42-2.07,2.42-2.07,.03,0,.06,0,.09-.02,.03,0,2.94-.87,7.22,.64,4.21,1.48,5.13,3.82,5.14,3.86,.01,.03,1.06,2.59-.15,5.11-1.15,2.37-8.84,6.78-10.12,7.5-2.89,.47-5.02,.01-5.19-.03-.09-.02-.18-.03-.27-.03-.08,0-.16,0-.24,.02-3.02,.62-6.55,.02-10.81-1.83-.06-.03-.12-.05-.19-.06-.42-.11-10.41-2.72-10.24-13.27,.17-10.7,10.35-14.81,10.78-14.98ZM9.94,22.82c.12-.11,8.98-8,21.88-11.01-.93,1.59-1.66,3.43-2.05,5.53-.08,.11-.15,.23-.2,.36-.07,.21-1.18,3.69-.6,7.96-.1,.02-.19,.05-.29,.07-6.63,1.73-6.59,7.4-6.58,9.53,0,1.29,.65,2.32,1.77,2.8,1.91,.83,5.01-.08,6.5-1.45,.63-.58,1.92-1.23,3.19-1.77,.25,.24,.51,.48,.78,.7-.04,.08-.08,.17-.09,.27,0,.02-.4,2.51-6.71,4.09-.03,0-.06,.02-.09,.03-1.72,.65-4.1,.18-5.57-.62-.82-.45-1.34-.99-1.44-1.47-.3-1.43-1.19-5.77,2.42-9.88,.04-.04,.07-.09,.09-.13,.86-1.53,.48-2.52,0-3.08-1.29-1.52-4.66-1.37-5.75-.97l-.26,.09c-7.78,2.61-10.99,7.68-9.04,14.27,2.32,7.82,6.99,8.87,9.33,8.87,.63,0,1.1-.08,1.3-.12,1.21-.04,14.09-.61,17.06-5.58,.95-1.59,1.41-2.88,1.4-3.9,1.06,.61,2.21,1.16,3.47,1.63-1.78,2.71-4.13,5.57-4.7,6.26-2.54,1.46-4.69,1.79-4.86,1.82-.17,.02-.33,.08-.47,.17-2.6,1.65-6.12,2.35-10.75,2.13-.06,0-.13,0-.2,0-.44,.05-10.7,1.16-14.29-8.76-3.64-10.06,4.41-17.52,4.75-17.83ZM92.4,108.56c-7.7,5.94-19.65,6.84-28.29,5.69-7.75-1.03-14.07-3.69-16.5-6.93-3.25-4.35-10.71-10.32-17.13-15.06,14.79,5.32,31.55,6.72,40.97,7.05,2.18,.08,4.71,.17,7.52,.17,7.83,0,17.77-.71,27.84-4.37-9.63,7.67-13.71,12.59-14.4,13.45Zm43.74-44.65c-2.09,11.26-11.04,17.85-15.86,21.39-17.37,12.78-37.79,12.06-48.75,11.66-16.4-.59-55.62-4.39-65.6-26.95-3.89-8.8-4.61-17.27-2.1-24.55,.93,2.05,2.37,4.24,4.6,6.02,1.81,1.45,3.93,2.45,6.34,3.02-.46,.59-.37,1.01-.32,1.28,.17,.79,.83,1.11,1.49,1.24-1.63,1.73-3.12,4.12-2.48,5.91,.1,.27,.28,.61,.61,.93-.96,.73-1.64,1.63-1.92,2.67,0,.03,0,.07-.01,.1,0,.03-.03,.05-.03,.08-.07,.32-.11,.6-.11,.88,0,2.85,3.01,5.13,7.03,5.48,.79,2.74,4,7.34,15.5,12.44,9.5,4.22,26.13,7.23,42.08,7.23,7.55,0,14.95-.67,21.37-2.21,11.84-3.66,21.32-10.53,24.72-15.73,2.58-2.45,3.4-5.69,1.82-7.7-.12-.16-.25-.28-.34-.37,0,0-.02-.01-.03-.02-.01-.01-.02-.02-.03-.03-.77-.71-1.83-1.09-3.06-1.09-.41,0-.83,.05-1.26,.13,1.92-4.03,2.74-9.59,1.01-14.03-.87-2.24-2.7-4.94-6.56-6.28,.84-.8,1.35-1.8,1.36-2.91,0-.2-.02-.37-.03-.51,0-.01,0-.02,0-.03,0-.02,0-.03,0-.05-.37-2.56-3.36-4.46-7.12-4.52h-.17c-2.05,0-3.9,.57-5.2,1.52-.17-.38-.45-.69-.82-.89-.43-.24-.91-.3-1.34-.29-.13-.57-.36-.99-.61-1.3-.05-.33-.17-.68-.42-1.01-.06-.08-.14-.17-.23-.25-.17-.27-.4-.5-.68-.66-.38-.21-.8-.28-1.19-.29-.27-.67-.69-1.06-1.05-1.28-.8-.49-1.68-.41-2.14-.3-.02,0-.03,0-.05,0-.18-1.26-.79-1.89-1.29-2.2-.02-.01-.04-.02-.06-.03,1.08-2.67,1.47-5.78,1.16-9.31-.01-.16-.06-.32-.14-.45,0-.53-.03-1.07-.11-1.62-.16-1.18-.5-2.33-.99-3.45,13.18,3.42,28.12,10.27,36.81,24.01,2.26,3.58,8.28,13.09,6.2,24.32Z"/><path class="cls-1" d="M75.86,104.07c-.08,.64,.38,1.23,1.02,1.31,.17,.02,2.06,.25,4.63,.25,3.15,0,7.33-.34,10.68-1.81,.59-.26,.86-.96,.6-1.55-.26-.59-.96-.86-1.55-.6-5.48,2.42-13.99,1.39-14.07,1.38-.64-.08-1.23,.38-1.31,1.02Z"/><path class="cls-1" d="M89.68,106.5c-5.48,2.42-13.99,1.39-14.07,1.38-.64-.08-1.23,.38-1.31,1.02s.38,1.23,1.02,1.31c.17,.02,2.06,.25,4.63,.25,3.15,0,7.33-.34,10.68-1.81,.59-.26,.86-.96,.6-1.55-.26-.59-.96-.86-1.55-.6Z"/><path class="cls-1" d="M62.18,72.45s.07,.02,.11,.02c.17,0,.32-.11,.38-.28,.01-.04,.28-.86,1.57-1.13,.21-.04,.35-.25,.3-.46-.04-.21-.25-.35-.46-.3-1.78,.37-2.15,1.62-2.17,1.68-.06,.21,.06,.42,.27,.48Z"/><path class="cls-1" d="M63.91,72.72c-.12,.18-.06,.42,.12,.54,.07,.04,.14,.06,.21,.06,.13,0,.26-.06,.33-.18,0-.01,.72-1.11,1.88-1.31,.21-.04,.36-.24,.32-.45-.04-.21-.24-.36-.45-.32-1.49,.25-2.37,1.6-2.41,1.66Z"/><path class="cls-1" d="M97.21,66.41c-2.69-1.84-7.06-1.49-9.95,.79-2.75,2.17-4.32,6.66-2.31,9.43,1.43,1.97,3.88,3.11,6.46,3.11,.61,0,1.23-.07,1.85-.2,4.39-.96,6.87-3.16,7.35-6.54,.38-2.69-1.76-5.47-3.39-6.59Zm1.07,6.26c-.34,2.37-2.09,3.83-5.52,4.57-2.3,.5-4.67-.3-5.9-2-1.1-1.52-.18-4.59,1.86-6.2,2.06-1.62,5.34-1.94,7.16-.7,1.14,.78,2.61,2.81,2.39,4.32Z"/><path class="cls-1" d="M89.37,69.78c-.43,.05-.74,.44-.69,.86,.03,.26,0,1.02-.31,1.08-.49,.09-.86,.37-1.03,.79-.38,.89,.3,2.04,.52,2.38,.15,.23,.4,.35,.66,.35,.15,0,.29-.04,.43-.13,.36-.24,.46-.72,.23-1.08-.16-.25-.31-.58-.36-.79,0,0,0,0,0-.01,0,0,0,0,0,0,1.16-.32,1.56-1.63,1.42-2.76-.05-.43-.43-.74-.87-.69Z"/><path class="cls-1" d="M63.32,50.04s.04,0,.06,0c.52,0,1.11-.6,1.18-.67,.05-.05,.07-.13,.05-.19,0-.02,0-.03,0-.05,0-.11-.08-.2-.19-.2-.4-.02-1.37-.02-1.59,.37-.05,.08-.1,.24,.04,.46,.11,.16,.26,.26,.44,.28Zm.72-.72c-.22,.18-.49,.35-.69,.33-.04,0-.1-.02-.15-.1-.02-.03-.02-.05-.03-.05,.05-.09,.43-.16,.87-.18Z"/><path class="cls-1" d="M64.69,49.35l-.45,1.01c-.04,.1,0,.21,.1,.26,.03,.01,.05,.02,.08,.02,.07,0,.15-.04,.18-.12l.45-1.01c.04-.1,0-.21-.1-.26-.1-.04-.21,0-.26,.1Z"/><path class="cls-1" d="M66.69,50.04c.35,0,.61-.19,.7-.5,.05-.2,.02-.39-.1-.55-.17-.23-.49-.33-1.01-.33-.45,0-.91,.08-.93,.08-.16,.03-.28,.15-.32,.31s.04,.32,.17,.41c.15,.1,.93,.58,1.49,.58Zm-.41-.99c.42,0,.81,.08,.73,.38-.04,.15-.16,.21-.32,.21-.47,0-1.28-.52-1.28-.52,0,0,.44-.08,.87-.08Z"/><path class="cls-1" d="M65.27,48.7s.03,0,.05,0l.94-.23c.1-.03,.17-.13,.14-.24-.03-.1-.13-.17-.24-.14l-.94,.23c-.1,.03-.17,.13-.14,.24,.02,.09,.1,.15,.19,.15Z"/><path class="cls-1" d="M64.64,48.7c.07,0,.13-.03,.17-.1,.06-.09,.02-.21-.07-.27-.15-.09-.59-.41-.59-.41l-.23,.32s.46,.33,.62,.42c.03,.02,.07,.03,.1,.03Z"/><path class="cls-1" d="M68.13,52.45s.05-.01,.07-.03l2.67-2.87s.03-.1,0-.14c-.04-.04-.1-.04-.14,0l-2.67,2.87s-.03,.1,0,.14c.02,.02,.04,.03,.07,.03Z"/><path class="cls-1" d="M59.77,48.35s.04,.03,.07,.03c.03,0,.05-.01,.07-.03l2.67-2.87s.03-.1,0-.14c-.04-.04-.1-.04-.14,0l-2.67,2.87s-.03,.1,0,.14Z"/><path class="cls-1" d="M58.7,48.6s.05-.01,.07-.03l2.67-2.87s.03-.1,0-.14c-.04-.04-.1-.04-.14,0l-2.67,2.87s-.03,.1,0,.14c.02,.02,.04,.03,.07,.03Z"/><path class="cls-1" d="M68.94,52.42s.04,.03,.07,.03c.03,0,.05-.01,.07-.03l2.67-2.87s.03-.1,0-.14c-.04-.04-.1-.03-.14,0l-2.67,2.87s-.03,.1,0,.14Z"/><path class="cls-1" d="M75.93,54.46s.04,0,.05,0c.45,0,.95-.53,1.05-.63,.05-.05,.06-.12,.04-.18,0-.01,0-.03,0-.05,0-.11-.08-.2-.19-.2-.27-.01-1.18-.03-1.4,.35-.05,.08-.1,.24,.02,.45,.12,.21,.29,.26,.41,.27Zm.58-.68c-.19,.16-.4,.31-.55,.29-.03,0-.07-.02-.11-.08-.02-.03-.02-.05-.02-.05,.04-.07,.32-.14,.68-.16Z"/><path class="cls-1" d="M77.09,53.8l-.39,.94c-.04,.1,0,.21,.11,.26,.02,.01,.05,.01,.07,.01,.08,0,.15-.05,.18-.12l.39-.94s.01-.08,0-.12c.02,.03,.04,.06,.06,.08,.13,.09,.82,.56,1.33,.56,.33,0,.58-.19,.66-.49,.05-.2,.01-.39-.1-.54-.17-.21-.45-.31-.91-.31-.4,0-.81,.08-.82,.08-.15,.03-.28,.15-.31,.3-.02,.07,0,.15,.02,.22-.01,0-.02-.02-.03-.03-.1-.04-.21,0-.26,.11Zm1.4-.29c.36,0,.71,.07,.63,.36-.04,.14-.14,.2-.28,.2-.41,0-1.11-.49-1.11-.49,0,0,.39-.07,.75-.07Z"/><path class="cls-1" d="M77.62,53.2s.03,0,.05,0l.82-.22c.1-.03,.17-.14,.14-.24-.03-.1-.13-.17-.24-.14l-.82,.22c-.1,.03-.17,.14-.14,.24,.02,.09,.1,.15,.19,.15Z"/><path class="cls-1" d="M77.08,53.2c.06,0,.13-.03,.16-.09,.06-.09,.03-.21-.06-.27-.13-.08-.51-.38-.51-.38l-.24,.31s.4,.31,.54,.4c.03,.02,.07,.03,.11,.03Z"/><path class="cls-1" d="M80.1,56.71s.05-.01,.07-.03l2.31-2.69s.03-.1-.01-.14c-.04-.04-.1-.03-.14,.01l-2.31,2.69s-.03,.1,.01,.14c.02,.02,.04,.02,.06,.02Z"/><path class="cls-1" d="M72.85,52.87s.04,.02,.06,.02c.03,0,.05-.01,.07-.03l2.31-2.69s.03-.1-.01-.14c-.04-.04-.1-.03-.14,.01l-2.31,2.69s-.03,.1,.01,.14Z"/><path class="cls-1" d="M71.93,53.1s.05-.01,.07-.03l2.31-2.69s.03-.1-.01-.14c-.04-.04-.1-.03-.14,.01l-2.31,2.69s-.03,.1,.01,.14c.02,.02,.04,.02,.06,.02Z"/><path class="cls-1" d="M80.8,56.69s.04,.02,.06,.02c.03,0,.05-.01,.07-.03l2.31-2.69s.03-.1-.01-.14c-.04-.04-.1-.03-.14,.01l-2.31,2.69s-.03,.1,.01,.14Z"/><path class="cls-1" d="M81.04,57.22s-.02,.07,0,.1c-1.21,.34-3.1,.67-5.37,.35-3.84-.54-3.99-2.01-3.99-2.04,0-.11-.09-.19-.2-.19-.11,0-.19,.09-.19,.2,0,.07,.11,1.81,4.33,2.41,.69,.1,1.34,.14,1.95,.14,3.04,0,5.02-1.01,5.12-1.07,.1-.05,.13-.17,.08-.26-.05-.1-.17-.13-.26-.08-.01,0-.45,.23-1.22,.47l2.23-2.59s.03-.1-.01-.14c-.04-.04-.1-.03-.14,.01l-2.31,2.69Z"/><path class="cls-1" d="M42.09,30.91c.8,.27,6.99,2.32,12.21,2.32,2.27,0,4.35-.39,5.72-1.47,2.08-1.64,3.02-3.06,2.88-4.34-.13-1.12-1.03-1.58-1.14-1.63-.38-.18-.84,0-1.04,.36-.01,.02-1.26,2.21-7.73,1.44-.03,0-.06,0-.09,0-1.84,0-3.9-1.29-4.98-2.56-.6-.71-.91-1.4-.83-1.89,.23-1.44,.93-5.82,5.77-8.37,.05-.03,.09-.06,.14-.09,1.35-1.12,1.34-2.19,1.09-2.88-.66-1.88-3.87-2.94-5.03-2.95h-.28c-8.2-.33-13,3.26-13.52,10.12-.78,10.34,5.88,11.81,6.83,11.96Zm-4.5-5.6l4.49,4.01c-.82-.17-3.21-.94-4.49-4.01Zm6.22,4.51l-6.7-5.98c-.16-.67-.27-1.41-.32-2.25l9.51,8.91c-.92-.23-1.76-.46-2.48-.68Zm4,1.03l-11.05-10.36c0-.45,.02-.92,.05-1.42,0-.09,.02-.18,.03-.27l13.82,12.58c-.97-.14-1.93-.32-2.86-.52Zm13.51-3.07c-.05,.3-.29,.91-1.25,1.85l-.78-.8c.95-.3,1.6-.68,2.04-1.04Zm-2.91,1.27l1.08,1.1c-.14,.12-.29,.24-.45,.38-.36,.29-.81,.5-1.31,.67l-1.78-1.89c.96-.02,1.77-.12,2.46-.26Zm-5.57,.1c.73,.09,1.4,.13,2.02,.15l2,2.13c-.61,.13-1.28,.2-1.99,.22l-2.78-2.57c.25,.03,.5,.06,.75,.06Zm-2.28-.46s.05,.09,.09,.13l3.07,2.83c-.56-.02-1.13-.05-1.71-.11l-15.04-13.69c.09-.51,.21-1,.36-1.46l8.25,7.56c.15,.68,.53,1.38,1.13,2.09,.86,1.01,2.28,2.06,3.85,2.65Zm-2.81-18.32c.31,0,.63,0,.95,.02h.32c.8,.02,3.22,.9,3.58,1.92,.04,.12,.17,.48-.56,1.11-.4,.22-.77,.45-1.13,.68l-4.33-3.69c.38-.02,.77-.03,1.17-.03Zm-2.26,.13l4.76,4.06c-.48,.37-.91,.75-1.29,1.14l-5.54-4.81c.65-.17,1.34-.31,2.07-.39Zm-2.95,.67l5.89,5.11c-.46,.53-.85,1.08-1.18,1.62l-6.48-5.9c.54-.32,1.13-.6,1.76-.83Zm-2.43,1.28l6.75,6.15c-.31,.6-.54,1.18-.72,1.73l-7.21-6.78c.35-.4,.75-.77,1.18-1.1Zm-1.67,1.72l7.45,7c-.19,.7-.28,1.29-.35,1.69l-7.91-7.24c.23-.52,.5-1,.81-1.45Z"/><path class="cls-1" d="M69.58,16.52s.08,.04,.13,.06c2.82,.95,7.45,3.25,7.86,5.38,.05,.26,.2,1.04-1.07,2.12-2.06,1.75-2.86,3.21-2.45,4.46,.57,1.73,3.2,1.97,3.57,2,4.9-.11,8.25-1.5,9.95-4.14,2.55-3.94,.41-9.09,.32-9.31-.03-.06-.06-.12-.1-.17-.42-.55-10.36-13.41-18.29-9.55-2.43,1.18-3.68,2.61-3.72,4.22-.07,2.74,3.4,4.72,3.79,4.93Zm8.08,12.45c-.79-.06-1.96-.41-2.13-.92-.06-.2,.01-.53,.29-.97l2.3,1.86c-.16,0-.3,.02-.46,.03Zm1.62-.1l-2.99-2.42c.25-.29,.58-.62,.99-.98l3.43,3.2c-.45,.08-.93,.15-1.43,.2Zm2.36-.4l-3.78-3.53c.42-.41,.73-.83,.95-1.26l4.22,4.36c-.43,.17-.89,.31-1.38,.43Zm2.13-.78l-4.68-4.84c.08-.39,.08-.78,0-1.19,0-.04-.03-.09-.04-.13l5.63,5.61c-.28,.2-.59,.38-.91,.55Zm2.71-9.91c.1,.25,.36,.99,.55,1.98l-10.55-10.6c4.88,2.27,9.41,7.87,9.99,8.62Zm-11.76-9.28l12.47,12.54s0,0,0,0c.04,.44,.04,.91,.01,1.38l-14.56-14.21c.68,0,1.37,.1,2.07,.29Zm-4.53,.27c.47-.23,.95-.38,1.45-.46l15.46,15.08c-.09,.47-.23,.93-.43,1.38l-16.52-15.98s.03-.02,.04-.02Zm-.77,.41l16.86,16.31s-.02,.04-.03,.05c-.26,.4-.59,.76-.96,1.09l-16.84-16.79c.3-.24,.62-.46,.96-.66Zm-1.53,1.2l6.62,6.61c-1.87-1.03-3.72-1.7-4.25-1.88-.88-.5-2.96-2-2.92-3.49,.01-.44,.22-.86,.55-1.24Z"/></g><g><path class="cls-2" d="M111.16,125.2s.01,0,.02-.01c0,0,0-.02,0-.02,0,0-.02,0-.03,0,0,.01,0,.02,0,.03Z"/><path class="cls-2" d="M120.54,122.26c-.18-.04-.34-.04-.52,0-.21,.05-.41,.14-.66,.09-.17-.04-.39,.09-.56,.19-.24,.12-.39,.32-.39,.61,0,.33-.05,.66-.04,.99,0,.38,.16,.55,.56,.58,.2,.02,.41,0,.61,0,.46-.02,.91,0,1.36,.14,.31,.09,.64,.13,.96,.2,.12,.03,.24,.06,.34,.13,0-.1,.03-.21,.06-.31,.06-.21,.08-.45,.04-.67-.11-.53-.11-1.07-.3-1.59-.04-.1-.06-.2-.07-.3-.45,.07-.89,.05-1.38-.06Z"/><path class="cls-2" d="M111.13,125.64c0-.18,.02-.31,.02-.45-.18,.1-.16,.24-.02,.45Z"/><path class="cls-2" d="M116.31,114.87s-.02,.03-.03,.04c0,0,0,0,0,0,0,0,.01,0,.02,0,0-.02,0-.04,.01-.06Z"/><path class="cls-2" d="M113.4,111.38s-.03,.03-.05,.04c0,0,0,0,0,.02,0,0,.01,0,.02,0,.01-.02,.02-.04,.03-.06Z"/><path class="cls-2" d="M122.24,127.34c0-.12,.01-.24,0-.36,0-.06,0-.11-.02-.17-.1,0-.2,.03-.29,.09-.04,.02-.12,.06-.14,.04-.27-.2-.5,.19-.72,.06-.22-.13-.45,.13-.66-.09,.14-.2,.28-.4,.42-.6-.32-.29-.36-.34-.65-.35-.38-.02-.76-.04-1.13-.13-.16-.04-.33,.11-.29,.26,.15,.6,0,1.21,.19,1.81,.09,.31,.07,.66,.06,.99-.02,.45-.48,.67-.89,.45-.13-.07-.26-.14-.4-.19-.69-.26-.94-.48-1.37-1.22-.09-.15-.22-.27-.32-.39-.51,.64-1.01,1.25-1.79,1.53-.36,.13-.48,.09-.67-.26-.06-.11-.12-.22-.18-.32,.06-.61,.38-1.02,.93-1.3,.3-.15,.48-.44,.68-.71,.24-.33,.48-.66,.69-1,.13-.21,.2-.46,.33-.68,.18-.3,.4-.58,.59-.87,.08-.12,.13-.27,.22-.45-.4-.04-.68,.15-.98,.3-.32,.16-.65,.28-.82,.62-.29-.04-.53-.09-.73-.27-.03-.22,.07-.39,.17-.55,.9-.14,1.67-.58,2.44-1,.23-.35,.05-.75,.13-1.11,.02-.08-.1-.24-.19-.3-.21-.13-.45-.22-.68-.33-.11-.06-.14-.23-.04-.32,.09-.08,.2-.14,.31-.18,.14-.05,.3-.07,.43-.12,.28-.12,.46-.3,.43-.64-.02-.2,0-.41,0-.61,0-.17-.06-.28-.23-.35-.1-.04-.14-.16-.08-.25,.05-.08,.14-.17,.22-.17,.25-.02,.51-.03,.76,0,.45,.06,.71,.39,.7,.85,0,.1-.03,.2-.04,.3,0,.07,0,.14,0,.26,.2,.06,.39,.1,.57,.16,.25,.08,.33,.36,.14,.55-.12,.12-.27,.23-.43,.29-.22,.08-.33,.22-.38,.44-.07,.29-.27,.56-.12,.9,.16-.03,.33-.05,.49-.1,.17-.06,.31-.18,.48-.23,.16-.05,.33,.06,.51-.03,.49-.25,.99-.09,1.48,.03,.22,.05,.43,.13,.64,.2,.02-.05,.05-.11,.09-.16,.13-.2,.21-.4,.2-.64-.02-.45,.1-.86,.32-1.25,.16-.28,.21-.58,.27-.88,.07-.34,.1-.7,.15-1.04,.04-.22,.11-.44,.14-.66,.12-.84,.22-1.67,.22-2.52,0-.46-.03-.89-.18-1.34-.17-.53-.4-1.04-.47-1.61-.02-.19-.15-.38-.26-.56-.17-.3-.45-.49-.72-.67-.29-.19-.39-.45-.4-.77,0-.06,0-.13-.02-.17-.24-.38-.48-.77-.66-1.18-.03-.07-.09-.15-.15-.19-.27-.19-.53-.39-.82-.55-.8-.44-1.09-.63-1.79-1.28-.12-.11-.24-.24-.39-.3-.49-.22-1-.4-1.56-.36-.49,.03-1,.05-1.48,.16-.59,.14-1.17,.24-1.78,.18-.1,0-.21,0-.31,0-.27,0-.53-.01-.8-.1-.19-.07-.4-.12-.6-.12-.41,0-.84-.1-1.21,.17-.09,.07-.19,.02-.3,0-.65-.07-.78-.06-1.31,.17-.36,.16-.69,.37-.92,.7-.09,.14-.17,.29-.23,.44-.22,.49-.49,.95-.77,1.41-.18,.28-.4,.53-.57,.8-.31,.5-.7,.9-1.15,1.28-.26,.22-.52,.48-.67,.81-.19,.41-.38,.83-.56,1.25-.06,.15-.11,.32-.13,.48-.06,.41-.17,.81-.14,1.23,.01,.18-.03,.37-.07,.55-.13,.61-.27,1.21-.42,1.81-.05,.21-.08,.42-.1,.63,.09-.18,.22-.31,.46-.37,.13-.03,.26-.09,.38-.16,.76-.48,1.52-.97,2.29-1.43,.27-.16,.59-.27,.9-.35,.38-.09,.61-.32,.73-.66,.31-.87,.63-1.73,.82-2.64,.08-.36,.07-.74-.08-1.09-.05-.11-.08-.23,.05-.3,.13-.07,.29-.07,.39,.03,.11,.11,.23,.27,.23,.41,.02,.46,.01,.93-.04,1.38-.05,.41-.15,.82-.25,1.22-.07,.29-.18,.57-.28,.86,.22,.2,.46,.24,.74,.2,.11-.26,.07-.54,.12-.81,0-.04,.05-.1,.08-.1,.06,0,.15,.02,.17,.06,.1,.21,.2,.42,.28,.63,.09,.26,.17,.52,.24,.77-.1,.36-.18,.71-.3,1.06-.12,.35-.28,.68-.42,1.04,.01,.14,.08,.24,.24,.28,.3,.08,.52,.25,.66,.54,.11,.22,.31,.4,.46,.6,.06,.09,.09,.2,.13,.29-.21,.25-.46,.28-.72,.21-.31-.08-.61-.19-.93-.26-.21-.05-.38-.24-.55-.35-.35,.15-.67,.34-1.02,.43-.37,.1-.76,.17-1.13,.28-.13,.04-.3-.05-.47-.08,.31-.39,.71-.6,1.13-.78,.29-.12,.52-.28,.74-.55-.12-.07-.24-.19-.36-.18-.25,.01-.48-.17-.74-.04-.09,.04-.28-.13-.29-.25-.03-.35-.07-.69,.21-.98,.08-.08,.14-.19,.19-.29,.05-.1,.07-.21,.1-.31-.43-.06-.77,.06-1.04,.38-.38,.45-.93,.68-1.37,1.05-.14,.12-.3,.22-.44,.34-.4,.38-.82,.46-1.32,.21,0,.08,0,.16,0,.24,0,.43,.06,.85,.03,1.28-.03,.39-.03,.81,.13,1.2,.04,.09,.05,.2,.07,.3,.18,.79,.37,1.57,.7,2.31,.18,.41,.27,.87,.32,1.32,.04,.35,.03,.7,.07,1.05,.05,.48,.2,1.26,.42,1.65,.21,.39,.42,.76,.68,1.11,.17,.23,.35,.47,.48,.72,.2,.38,.49,.68,.83,.91,.46,.32,.96,.57,1.48,.77,.35,.13,.69,.28,1.03,.44,.39,.19,.77,.41,1.05,.76,.55,.7,1.37,.97,2.1,1.38,.27-.03,.43,.24,.68,.27,.49,.07,.86,.38,1.26,.59,.03,.13,.05,.23,.08,.37,.32,.05,.59,.08,.85-.02,.18-.07,.36-.05,.54,.01,.15,.05,.33,.08,.49,.05,.57-.1,1.15-.16,1.63-.52,.15-.11,.33-.15,.46-.31,.15-.18,.38-.08,.57-.09,.04,0,.07-.04,.11-.05,.26-.1,.47-.27,.67-.45,.37-.34,.66-.74,.85-1.21,.04-.1,.07-.18,.17-.24,.7-.43,1.2-1.06,1.69-1.7,.19-.25,.37-.55,.29-.92-.02-.1,0-.21,.04-.31,.09-.35,.08-.7,.02-1.05-.02-.12,0-.24,0-.36Zm-11.33-12.2c.89-.23,1.79-.47,2.72-.72-.02-.07-.03-.16-.08-.22-.13-.16-.36-.21-.45-.42-.03-.05-.15-.06-.24-.09-.11-.03-.21-.05-.35-.09,.05-.19,.07-.35,.13-.49,.08-.19,.19-.37,.31-.54,.25-.34,.39-.71,.39-1.13-.08,.01-.18,.01-.25,.05-.12,.06-.23,.16-.35,.22-.54,.3-1.22,.43-1.84,.05-.01-.11,.05-.17,.15-.19,.44-.09,.83-.26,1.21-.5,.37-.23,.77-.41,1.13-.66,.39-.26,.84-.37,1.31-.1,.2,.11,.42,.19,.63,.28,.19,.09,.28,.24,.28,.44,0,.21-.04,.41-.18,.58-.33,.42-.63,.86-.95,1.27-.19,.25-.42,.47-.64,.72,.23,.18,.46,.37,.7,.56,.42-.03,.85-.15,1.29,.02,.08,.03,.19,0,.27-.02,.65-.22,1.21-.05,1.73,.37,.2,.16,.43,.28,.5,.56-.05,.22-.27,.31-.42,.27-.53-.12-1,.08-1.46,.27-.25,.1-.44,.07-.64-.09,.15-.21,.31-.42,.47-.63-.38-.15-.77-.24-1.17-.08-.14,.23-.03,.41,.05,.6,.32,.83,.41,1.69,.45,2.57,.02,.55-.23,.97-.56,1.37-.04,.05-.14,.11-.17,.09-.22-.13-.39,.06-.58,.09-.14,.02-.26,0-.39,0-.24,0-.48-.06-.72,.05-.47,.21-.83-.12-1.2-.32-.03-.02-.06-.07-.07-.12-.08-.28-.15-.56-.24-.88,.13,.02,.24,.02,.35,.05,.29,.1,.54,.03,.8-.1,.39-.2,.74-.48,1.02-.81,.21-.24,.38-.51,.36-.87-.02-.34,.02-.69,.02-1.04,0-.08-.06-.17-.1-.27-.5,.02-.94,.22-1.41,.28-.46,.07-.87,.27-1.26,.47-.28-.09-.5-.21-.66-.46,.04-.11,.09-.24,.14-.39Zm.9,11.69c-.25-.29-.46-.54-.72-.84-.02,.25,.14,.47-.08,.65-.17,.14-.3,.34-.46,.53-.31-.21-.54-.4-.81-.53-.12-.06-.3,0-.33-.2-.09-.61-.42-1.13-.66-1.71,.49-.98,.98-1.97,1.72-2.81,.21,.14,.28,.35,.28,.58,0,.24,.05,.45,.24,.65,.17,.01,.37,.01,.57,.04,.3,.04,.58,.11,.83,.32,.25,.21,.38,.19,.56-.05,.09-.11,.12-.29,.32-.26,.23,.04,.32,.2,.39,.41,.18,.56,.05,1.05-.26,1.51-.18,.27-.4,.53-.55,.82-.23,.43-.57,.69-1.05,.89Z"/><path class="cls-2" d="M111.19,125.16c.05,0,.12,0,.04-.1-.01,.03-.02,.06-.04,.1Z"/><path class="cls-2" d="M116.94,125.2c-.19,.74-.57,1.23-.63,1.83q.64,.3,1.03,.24c.02-.09,.05-.19,.05-.28-.03-.43-.06-.86-.12-1.28-.02-.13-.15-.24-.33-.51Z"/><path class="cls-2" d="M108.31,116.66c.11-.27,.21-.56,.3-.84,.03-.1,.06-.23-.08-.34h-.56c-.37,.29-.59,.66-.75,1.11,.25,.1,.44,.25,.7,.27,.18,.02,.33-.04,.39-.21Z"/></g></g></g></svg>