<?xml version="1.0" encoding="UTF-8"?><svg id="_圖層_2" xmlns="http://www.w3.org/2000/svg" viewBox="0 0 202.13 275.18"><defs><style>.cls-1{fill:#fff;}.cls-2{fill:#122c52;}.cls-3{fill:#132c53;}.cls-4{fill:#0f2c51;}</style></defs><g id="_圖層_1-2"><g><polygon class="cls-1" points="32.89 270.18 47.35 223.87 64.38 219.94 69.3 217.66 78.59 213.11 78.59 203.64 55.74 189.15 45.31 165.5 37.01 162.49 29.17 145.35 35.96 132.21 92.46 109.22 140.77 115.35 172.85 142.07 168.46 164.45 160.23 174.3 151.9 176.19 144.12 188.56 124.17 202.44 113.65 205.85 113.23 215.64 123.12 218.23 128.16 219.94 171.25 245.96 175.87 271.45 32.89 270.18"/><g><path class="cls-4" d="M85.61,142.82c.72-.34,1.36-.94,1.59-1.73,.22-.77,.03-1.61-.19-2.39-.13-.47-.29-.97-.66-1.29-.04-.03-.08-.07-.12-.1-.17-.12-.37-.2-.57-.28-2.14-.8-4.4-.58-6.61-.9-1.27-.18-2.54-.36-3.81-.54-1.54-.22-3.1-.72-4.67-.57-.81,.08-1.52,.36-2.18,.85-.45,.33-1.5,.92-1.55,1.55-.06,.79,1.65,1.25,2.22,1.49,.76,.31,1.52,.63,2.28,.94,1.94,.8,3.88,1.6,5.85,2.3,2.63,.92,5.75,1.94,8.43,.66Z"/><path class="cls-4" d="M134.89,141.74c.6-.15,2.35-.36,2.41-1.15,.04-.63-.91-1.36-1.31-1.76-.59-.58-1.24-.95-2.04-1.15-1.53-.38-3.14-.11-4.7-.11-1.28,0-2.57-.01-3.85-.02-2.24,0-4.44-.55-6.67-.07-.21,.04-.42,.1-.61,.19-.05,.02-.09,.05-.14,.08-.4,.26-.63,.73-.83,1.18-.33,.74-.65,1.54-.54,2.33,.11,.82,.67,1.5,1.33,1.94,2.47,1.65,5.7,1.1,8.43,.57,2.05-.4,4.09-.91,6.12-1.43,.8-.2,1.6-.4,2.39-.6Z"/><path class="cls-4" d="M23.15,135.33l-5.41-3.84c-.69-.8-1.25-1.57-1.68-2.26-.98-1.58-1.32-2.74-1.32-2.75h0c-.83-1.72-.43-2.46-1.08-4.23,0,0-.63,.12-2.1-.05-3.69-.44-12.1-9.81-11.53-18.45,.34-5.21,3.31-4.1,2.45-8.75-.87-4.65,.97-3.88,3.36-7.15,.56-.77,.98-2.01,.84-2.92-1.13-7.01,.64-12.79,4.4-17.73,1.26-1.65,2.73-3.21,4.4-4.69,1.05-.93,2.38-1.58,3.67-2.11,.43-.17,.72-.37,.93-.63,.19-.29,.29-.64,.31-1.1,.28-4.93-5.03-7.44-2.26-11.51,.52-.77,1.07-1.5,1.65-2.2,1.72-2.11,3.72-3.91,6.07-5.31,.28-.17,.51-.36,.71-.57,.56-.65,.85-1.46,1.11-2.31,.83-2.71,2.05-5.07,3.71-7.02,1.66-1.99,3.75-3.56,6.34-4.63,2.34-.97,4.92-1.31,7.27-2.28,1.36-.57,2.72-1.61,3.64-2.8,4.87-6.37,11.65-8.06,18.83-8.88,.72-.08,1.49-.23,2.16-.05,2.5,.7,4.41-.12,6.39-1.85,3.66-3.21,7.9-4.24,12.55-2.59,.43,.15,1.12-.12,1.57-.4,3.39-2.2,7.11-3.79,11.02-3.56,3.47,.21,6.38-.91,9.48-2.09,4.34-1.65,8.14,.2,11.71,2.54,.96,.63,1.72,.76,2.82,.38,3.91-1.35,7.71-.99,11.2,1.3,1.26,.83,2.49,1.75,3.56,2.82,1.56,1.57,3.62,1.53,5.49,1.96,2.85,.66,5.21,2.09,7.08,4.3,1.6,1.89,2.96,4,4.48,5.97,.32,.42,.85,.77,1.34,.91,4.62,1.36,8.4,4.07,11.43,7.86,.9,1.12,1.47,2.6,1.93,4.01,.56,1.72,1.51,3.03,2.9,4.03,2.73,1.96,4.27,4.71,5.17,7.99,.21,.78,.9,1.55,1.57,2.02,2.05,.81,2.44,1.7,2.44,1.7,.41,.24,1.28-.27,1.22,2.13-.02,.71,.72,1.31,1.23,1.77,4.44,3.97,3.46,2.1,3.88,8.21,.12,1.85,3.75,5.26,4.46,6.81,3.19,6.95,3.77,8.8,1.5,16.13-.29,.93-.21,1.47,.38,2.15,6.81,7.84,5.37,18.47,5.37,18.47,0,0,1.42,11.34-1.59,14.82-1,1.15-2.13,2.22-3.43,3.18-.11,.08-.21,.2-.3,.34-.23,.37-.38,.9-.42,1.32-.33,3.6-1.98,6.59-4.06,9.36-.03,.04-.06,.08-.09,.12-.43,.56-.97,1.14-1.57,1.35-1.99,.7-2.28,5.18-3.62,6.7-1.77,2.02-4.21,2.92-6.85,3.08-.39-.05-.76-.08-1.14-.11-4.03-.01-3.93,3.06-3.93,3.06,0,0,1.43,6.06-6.21,4.31-7.64-1.75,0,0,0,0-1.15,.91-.95,1.73-3.29,3s-6.96-.92-6.96-.92l-.71-.46c-.51-.42-.08-.11-.55-.57-.16-.21-.33-.44-.55-.69-1.44-1.69-1.21-1.03-1.42-3.06-.13-1.3-.47-1.97-1.89-2.12-2.95-.31-5.44-1.73-7.51-3.98-3.32-3.59-5.51-7.76-6.17-12.74-.16-1.23-.63-1.92-1.88-2.14-5.56-.99-9.36-3.93-12.29-7.83-.72,.04-1.43,.05-2.13,.01-2.42,.91-5.1,1.17-7.54,.68-.24,0-.47,0-.71-.01-1.01-.06-2.02-.22-3-.47-1.83,1.11-3.88,1.92-5.99,2.46-1.56,.6-3.23,.86-4.92,.81-.61,.05-1.22,.08-1.82,.09-6.15,.12-12.02-1.51-16.49-5.43-.11-.03-.21-.06-.31-.09-.05,.07-.1,.13-.15,.2-.29,.44-.59,.85-.9,1.25-.13,.17-.25,.35-.39,.51-.43,.53-.88,1.04-1.36,1.51-3.1,3.12-7.03,4.98-11.61,5.73-1.72,.28-3.55-.05-5.3-.32-1.05-.16-1.87-.09-2.49,.57-.17,.2-.33,.44-.47,.75-.45,.98-1.19,1.81-1.75,2.73-.54,.89-1.12,1.7-1.72,2.48-.24,.31-.49,.6-.74,.89-.29,.34-.58,.68-.88,1-.44,.46-.88,.92-1.35,1.34-.06,.05-.11,.1-.17,.15-2.95,2.61-6.39,4.35-10.22,5.43-4.99,.6-2.73-1.67-6.63-2.36-.17-.08-.36-.14-.59-.17-1.11-.17-2.2-.41-3.28-.68-3.76-1.04-6.86-2.48-9.3-3.89-.03,.07-.11,.09-.21,.09"/><path class="cls-4" d="M99.53,209.93c-17.15,0-33.57-7.01-45.76-20.59-14.95-16.64-13.77-50.62-13.71-52.06,.05-1.37,1.19-2.44,2.58-2.38,1.37,.05,2.44,1.21,2.38,2.58-.01,.33-1.15,33.4,12.45,48.54,18.93,21.06,48.96,24.92,74.73,9.6,19.25-11.44,24.18-39.1,25.41-50.45,.1-.89,.35-3.24,2.7-3.14,2.35,.11,2.39,2.46,2.41,3.34,0,.42-.09,.81-.27,1.16-1.75,15.18-7.68,41.45-27.72,53.36-11.33,6.74-23.44,10.03-35.2,10.03Z"/><path class="cls-4" d="M112.84,220.71c-.12,0-.25,0-.38-.03-1.36-.21-2.29-1.47-2.08-2.83l1.62-10.68c.21-1.35,1.47-2.28,2.83-2.08,1.36,.21,2.29,1.47,2.08,2.83l-1.62,10.68c-.19,1.23-1.24,2.11-2.45,2.11Z"/><path class="cls-4" d="M115.72,214.87c-.52,1.58-12.6,15.09-12.6,15.09l17.97,19.02,3.09-30.48-8.45-3.64Z"/><polygon class="cls-4" points="86.46 229.39 75.28 214.51 66.38 218.63 70.39 247.94 86.46 229.39"/><path class="cls-4" d="M77.53,219.13c-.08,0-.17,0-.25-.01-1.36-.14-2.36-1.35-2.22-2.72l1.06-10.64c.14-1.36,1.35-2.36,2.72-2.22,1.36,.14,2.36,1.35,2.22,2.72l-1.06,10.64c-.13,1.28-1.21,2.24-2.47,2.24Z"/><polygon class="cls-4" points="103.12 229.96 110.2 247.89 98.86 262.83 103.12 229.96"/><polygon class="cls-4" points="97.28 263.46 86.46 229.39 80.12 245.25 97.28 263.46"/><path class="cls-4" d="M42.17,167.98c-.32,0-.65-.06-.97-.2-15.68-6.64-11.37-28.16-11.18-29.07,.28-1.34,1.6-2.2,2.94-1.92,1.34,.28,2.2,1.59,1.92,2.93-.04,.19-3.66,18.44,8.26,23.49,1.26,.53,1.85,1.99,1.32,3.25-.4,.95-1.32,1.51-2.29,1.51Z"/><path class="cls-4" d="M154.52,178.68c-1.18,0-2.22-.84-2.44-2.04-.24-1.35,.66-2.64,2-2.88,12.74-2.28,13.25-20.89,13.25-21.08,.03-1.37,1.17-2.47,2.53-2.44,1.37,.02,2.46,1.15,2.44,2.52-.02,.93-.57,22.87-17.34,25.88-.15,.03-.3,.04-.44,.04Z"/><path class="cls-4" d="M12.6,117.38s-3.46,3.57,1.16,11.62c0,0-1.03,13.22,6.84,18.49,0,0,.16,12.42,12.56,13.57,0,0-1.36-13.2-1.31-13.12s2.48-18.06,2.48-18.06l-21.72-12.5Z"/><path class="cls-4" d="M193.59,128.92s2.81,4.1-3.09,11.26c0,0-1.2,13.2-9.84,17.09,0,0-2.24,12.21-14.65,11.27,0,0,3.55-12.79,3.49-12.71s.58-18.22,.58-18.22l23.51-8.68Z"/><path class="cls-4" d="M157.65,271.93l.88-21.91c.06-7-2.39-14.83-11.3-21.46s-20.78-9.41-20.78-9.41l-4,33.53-13.55-13.92,3.95,10.07-12.55,16.58,.76,7.16,56.58-.66Z"/><path class="cls-4" d="M26.54,273.23l-.29-15.61c-.54-11.05,4.35-24.26,13.26-30.88s24.87-6.8,24.87-6.8l4.52,32.55,12.42-14.29-3.61,7.69,19.67,21.33,1.42,6.01H26.54Z"/><path class="cls-4" d="M78,161.4c-.41,0-.82-.02-1.23-.07-6.6-.73-10.76-7.18-10.94-7.45-.64-1.01-.34-2.35,.67-3,1.01-.64,2.35-.34,2.99,.67,.04,.07,3.26,4.98,7.77,5.47,2.5,.27,5.08-.91,7.67-3.49,.85-.85,2.22-.85,3.07,0,.85,.85,.85,2.22,0,3.07-3.19,3.19-6.55,4.8-10,4.8Z"/><path class="cls-4" d="M126.26,164.66c-.41,0-.82-.02-1.23-.07-6.6-.73-10.76-7.18-10.94-7.45-.64-1.01-.34-2.35,.67-3,1.01-.64,2.35-.34,2.99,.67,.04,.07,3.26,4.98,7.77,5.47,2.5,.27,5.08-.91,7.67-3.49,.85-.85,2.22-.85,3.07,0,.85,.85,.85,2.22,0,3.07-3.19,3.19-6.55,4.8-10,4.8Z"/><path class="cls-4" d="M101.67,182.54c-9.25,0-16-12.39-16.28-12.92-.57-1.06-.17-2.37,.89-2.94,1.06-.57,2.37-.17,2.94,.89,1.6,2.96,6.93,10.63,12.45,10.63h.03c3.55-.02,7.01-3.19,10.27-9.43,.56-1.06,1.87-1.47,2.93-.92,1.06,.56,1.47,1.87,.92,2.93-4.07,7.78-8.82,11.74-14.11,11.76h-.05Z"/><path class="cls-3" d="M48.22,135.02s-1.1,11.92,2.19,17.7l-6.35-1.45-4.16-16.25h8.32Z"/><path class="cls-3" d="M153.14,143.87s1.1,11.92-2.19,17.7l6.35-1.45,4.16-16.25h-8.32Z"/><path class="cls-2" d="M50.53,156.53c-.07,0-.15,0-.22-.03l-5.49-1.34c-.5-.12-.81-.63-.68-1.12,.12-.5,.63-.8,1.12-.68l5.49,1.34c.5,.12,.81,.63,.68,1.12-.1,.43-.48,.71-.9,.71Z"/><path class="cls-2" d="M50.53,159.71c-.07,0-.15,0-.22-.03l-5.49-1.34c-.5-.12-.81-.63-.68-1.12,.12-.5,.63-.81,1.12-.68l5.49,1.34c.5,.12,.81,.63,.68,1.12-.1,.43-.48,.71-.9,.71Z"/><path class="cls-2" d="M150.71,164.84c-.42,0-.8-.29-.9-.71-.12-.5,.18-1,.68-1.12l5.49-1.34c.5-.12,1,.18,1.12,.68s-.18,1-.68,1.12l-5.49,1.34c-.07,.02-.15,.03-.22,.03Z"/><path class="cls-2" d="M149.68,168.27c-.42,0-.8-.29-.9-.71-.12-.5,.18-1,.68-1.12l5.49-1.34c.5-.12,1,.18,1.12,.68,.12,.5-.18,1-.68,1.12l-5.49,1.34c-.07,.02-.15,.03-.22,.03Z"/></g><polygon class="cls-1" points="50.56 221.96 48.22 275.18 146.56 272.59 143.19 225.55 133.99 221.29 133.42 261.42 58.08 262.59 58.9 220.44 50.56 221.96"/><g><path class="cls-4" d="M157.14,272.55c-1.2,0-2.17-.97-2.17-2.17v-16.94c0-1.2,.97-2.17,2.17-2.17s2.17,.97,2.17,2.17v16.94c0,1.2-.97,2.17-2.17,2.17Z"/><path class="cls-4" d="M175.87,272.94c-.96,0-1.84-.64-2.1-1.62l-4.61-17.39c-.31-1.16,.38-2.35,1.54-2.66,1.16-.31,2.35,.38,2.66,1.54l4.61,17.39c.31,1.16-.38,2.35-1.54,2.66-.19,.05-.37,.07-.56,.07Z"/><g><g><path class="cls-1" d="M163.65,259.35c-1.14,0-2.38-.13-3.68-.38-5.47-1.07-8.94-3.4-10.29-6.93-2.37-6.18,3.01-13.4,3.24-13.71,.35-.47,.9-.74,1.49-.74h17.76c.86,0,1.61,.59,1.81,1.43,.11,.44,2.52,10.91-2.03,16.67-1.92,2.43-4.71,3.66-8.29,3.66,0,0,0,0,0,0Z"/><path class="cls-4" d="M172.17,239.45s4.27,18.03-8.51,18.03c-1,0-2.1-.11-3.32-.35-16.8-3.28-5.92-17.68-5.92-17.68h17.76m0-3.72h-17.76c-1.17,0-2.27,.55-2.97,1.48-.64,.85-6.18,8.48-3.49,15.49,1.6,4.17,5.52,6.89,11.67,8.09,1.42,.28,2.78,.42,4.03,.42,5.21,0,8.18-2.37,9.75-4.36,5.02-6.34,2.67-17.05,2.38-18.25-.4-1.68-1.9-2.86-3.62-2.86h0Z"/></g><g><path class="cls-1" d="M147.23,242.91c-.2,0-.4-.03-.59-.1-4.5-1.5-12.59-6.72-10.99-15.72,.85-4.77,3.19-5.77,5-5.77,3.64,0,7.34,4.52,8.05,5.42,.03,.04,.06,.08,.08,.12,3.77,5.68,4.88,9.9,3.4,12.88-1.15,2.32-3.57,3.08-4.83,3.16-.04,0-.08,0-.12,0Z"/><path class="cls-4" d="M140.65,223.19c2.91,0,6.58,4.71,6.58,4.71,8.36,12.6,0,13.16,0,13.16,0,0-11.49-3.83-9.75-13.63,.56-3.17,1.78-4.24,3.17-4.24m0-3.72c-1.66,0-5.66,.71-6.83,7.31-1.82,10.26,7.21,16.14,12.24,17.81,.38,.13,.78,.19,1.18,.19,.08,0,.17,0,.25,0,2.05-.14,4.95-1.32,6.37-4.19,1.8-3.63,.65-8.46-3.52-14.74-.05-.08-.11-.16-.17-.23-1.12-1.44-5.13-6.14-9.52-6.14h0Z"/></g><g><path class="cls-1" d="M165.56,230.37c-2.32,0-5.67-3.34-8.08-6.15-.24-.28-.4-.63-.44-1-.34-3.05-3.04-29.92,8.34-34.13,1.21-.45,2.27-.67,3.23-.67,2.11,0,3.25,1.06,3.83,1.94,2.52,3.82-.81,12.36-1.71,14.5-.35,1.83-3.1,16.34-2.52,21.53,.06,.52,.23,2.09-.71,3.14-.49,.54-1.17,.84-1.93,.84Z"/><path class="cls-4" d="M168.61,190.28c6.35,0,.33,14.03,.33,14.03,0,0-3.23,16.42-2.58,22.28,.15,1.39-.18,1.92-.79,1.92-1.95,0-6.67-5.5-6.67-5.5,0,0-3.21-28.35,7.13-32.17,1.03-.38,1.88-.55,2.58-.55m0-3.72h0c-1.18,0-2.45,.26-3.87,.78-5.79,2.14-9.11,9.13-9.87,20.77-.51,7.81,.29,15.01,.33,15.31,.08,.74,.39,1.44,.87,2.01,5.83,6.8,8.59,6.8,9.49,6.8,1.29,0,2.47-.52,3.31-1.46,1.5-1.67,1.26-3.86,1.18-4.59-.47-4.22,1.56-16.1,2.47-20.79,.34-.84,1.16-2.94,1.8-5.33,1.33-4.95,1.23-8.35-.33-10.72-1.18-1.79-3.09-2.78-5.38-2.78h0Z"/></g><g><path class="cls-1" d="M155.21,250.33c-1.79,0-3.38-.19-4.75-.55-1.12-.3-4.51-1.21-4.81-3.97-.1-.87,.16-1.68,.6-2.39-4.18-.92-6.84-3.73-7.31-7.88-1.01-9.07,21.84-13.37,26.43-14.14,.22-.05,.51-.07,.79-.07,4.7,0,6.12,7.58,6.5,10.62,1.89,1.35,3.08,3.08,3.53,5.16,.95,4.37-1.89,8.56-2.01,8.74-.21,.31-.52,.55-.87,.68-.41,.16-10.12,3.81-18.1,3.81h0Z"/><path class="cls-4" d="M166.16,223.19c3.86,0,4.74,9.83,4.74,9.83,6.96,4.18,1.74,11.77,1.74,11.77,0,0-9.71,3.69-17.44,3.69-1.53,0-2.98-.14-4.27-.49-7.78-2.09,0-6.17,0-6.17,0,0-.58,.08-1.47,.08-2.65,0-8.03-.73-8.68-6.56-.87-7.78,24.89-12.1,24.89-12.1,.16-.03,.32-.05,.48-.05m0-3.72c-.38,0-.76,.04-1.14,.11-.66,.11-6.96,1.21-13.26,3.25-3.85,1.25-15.55,5.04-14.67,12.92,.47,4.25,2.93,7.38,6.73,8.88-.07,.44-.08,.91-.03,1.39,.29,2.67,2.37,4.54,6.18,5.56,1.52,.41,3.28,.62,5.23,.62,8.32,0,18.34-3.77,18.76-3.93,.71-.27,1.32-.75,1.74-1.37,.35-.51,3.4-5.13,2.3-10.19-.36-1.64-1.28-3.86-3.61-5.77-.6-4.09-2.48-11.47-8.24-11.47h0Z"/></g></g></g></g></g></svg>