<?xml version="1.0" encoding="UTF-8"?><svg id="_圖層_2" xmlns="http://www.w3.org/2000/svg" viewBox="0 0 244.91 267.53"><defs><style>.cls-1{fill:#fff;}.cls-2{fill:#132c53;}.cls-3{fill:#0f2c51;}</style></defs><g id="_圖層_1-2"><g><polygon class="cls-1" points="93.79 218.13 69.13 201.75 45.62 162.05 56.13 126.15 129.48 107.76 170.45 125.28 185.36 174.71 169.57 211.12 106.9 231.65 93.79 218.13"/><path class="cls-2" d="M195.72,199.62s24.22,8.44,49.19,48.73l-144.27,15.32,80.33-64.06h14.76Z"/><path class="cls-1" d="M185.36,255.98c-13.56-8.15-12.59-37.84-12.59-37.84l2.93-10.64-11.24,4.93s-1.14,23.56,2.04,28.92l-47.33,10.07-25.39,13.62,91.58-9.06Z"/><path class="cls-2" d="M90.48,212.42s-34.82,15.03-28.39,33.72,13.8,17.27,13.8,17.27l52.05-38.88-10.66-6.86-26.79-5.26Z"/><path class="cls-2" d="M106.48,218.41c-1.2,0-2.41-.03-3.66-.08-22.12-.97-39.09-12.95-49.05-34.65-7.41-16.14-8.33-31.75-8.37-32.4-.07-1.37,.98-2.54,2.34-2.61,1.37-.07,2.54,.98,2.61,2.34h0c0,.15,.92,15.44,7.98,30.72,9.28,20.09,24.32,30.74,44.7,31.63,20.54,.9,36.07-5.96,46.17-20.38,7.57-10.81,9.11-21.93,9.12-22.04,.14-1.03,.9-1.86,1.91-2.09,.05-.01,6.33-1.57,9.34-7.27,2.41-4.57,2.18-10.65-.66-18.06-.49-1.28,.15-2.72,1.43-3.21,1.28-.49,2.72,.15,3.21,1.43,3.4,8.85,3.53,16.32,.39,22.23-3.04,5.7-8.29,8.25-10.95,9.22-.72,3.7-3.1,13.22-9.71,22.65-7.32,10.45-21.31,22.57-46.79,22.57Z"/><path class="cls-2" d="M50.7,172.16s2,2.08-5.88-19.72c0,0,12.06,3.83,16.68-9.96,0,0,23.3,8.54,28.93-1.02,0,0,29.32,10.04,37.92-11.57,0,0-.31,15.34,15.68,9.67,0,0,8.38,20.15,30.2,10.86,0,0,20.99,15.44,29.3-14.67,0,0,8.75,6.5,8.21-8.81,0,0,29.97-19.8,3.3-51.23,0,0,4.56-15.5-9.35-23.52,0,0-11.57-37.92-35.39-37.08,0,0-29.04-26.23-66.78-9.56,0,0-39.59-11.38-51.51,12.9,0,0-32.06,8.8-32.89,33.54,0,0-22.52,13.58-7.57,26.68,0,0-14.21,13.28-3.91,24.84,0,0-15.49,11.62-2.34,30.75,0,0-6.69,12.16,8.05,19.31,0,0,5.82,18.66,17.79,10.97,10.51,16.75,13.74,7.84,19.56,7.63Z"/><path class="cls-2" d="M110.21,174.67c-4.67,0-7.81-1.55-8.08-1.69-1.22-.62-1.7-2.12-1.08-3.34,.62-1.22,2.11-1.7,3.33-1.09,.44,.22,10.26,4.85,20.78-6.3,.94-1,2.51-1.04,3.51-.1,1,.94,1.04,2.51,.1,3.51-6.81,7.22-13.56,9.01-18.56,9.01Z"/><path class="cls-3" d="M116.89,151.65c.63-.48,2.59-1.61,2.25-2.57-.27-.76-1.76-1.14-2.42-1.4-.98-.39-1.94-.49-2.97-.33-1.99,.32-3.75,1.46-5.58,2.24-1.51,.64-3.02,1.28-4.53,1.93-2.64,1.12-5.49,1.6-7.87,3.29-.22,.16-.44,.32-.62,.53-.04,.05-.08,.1-.12,.16-.34,.51-.38,1.18-.39,1.8-.02,1.03,.02,2.13,.55,3.01,.54,.9,1.54,1.43,2.54,1.61,3.73,.69,7.25-1.58,10.2-3.59,2.21-1.51,4.34-3.14,6.47-4.76,.84-.64,1.67-1.28,2.51-1.92Z"/><path class="cls-3" d="M53.65,159.68c-.49-.37-2-1.24-1.75-1.97,.2-.58,1.34-.86,1.86-1.05,.76-.29,1.49-.36,2.29-.23,1.54,.26,2.9,1.14,4.32,1.75,1.17,.5,2.34,1,3.51,1.5,2.04,.87,4.24,1.26,6.09,2.56,.17,.12,.34,.25,.48,.41,.03,.04,.07,.08,.09,.12,.27,.39,.3,.9,.31,1.38,.02,.79,0,1.62-.4,2.29-.41,.68-1.18,1.07-1.95,1.21-2.87,.5-5.59-1.26-7.88-2.81-1.72-1.16-3.37-2.42-5.02-3.67-.65-.49-1.3-.99-1.94-1.48Z"/><path class="cls-2" d="M93.09,206.45c-.42,0-.83-.17-1.13-.49-.42-.45-.54-1.1-.3-1.67,.06-.15,6.69-15.19,29.35-10.65,.68,.14,1.19,.72,1.24,1.41,.05,.7-.37,1.34-1.03,1.57l-27.61,9.73c-.17,.06-.34,.09-.52,.09Zm19.7-10.57c-8.28,0-13.1,3.24-15.69,5.96l16.85-5.94c-.39-.01-.78-.02-1.16-.02Z"/><path class="cls-2" d="M121.25,130.54s16.37,11.48,20.77,27.39l10.45-4.86-14-35.54-17.21,13.01Z"/><path class="cls-2" d="M144.93,163.05c-.57,0-1.13-.32-1.4-.87-.38-.77-.06-1.7,.71-2.07l7.31-3.57c.77-.38,1.7-.06,2.07,.71,.38,.77,.06,1.7-.71,2.07l-7.31,3.57c-.22,.11-.45,.16-.68,.16Z"/><path class="cls-2" d="M146.81,168.3c-.57,0-1.13-.32-1.4-.87-.38-.77-.06-1.7,.71-2.07l7.31-3.57c.77-.38,1.7-.06,2.07,.71,.38,.77,.06,1.7-.71,2.07l-7.31,3.57c-.22,.11-.45,.16-.68,.16Z"/><path class="cls-2" d="M68.41,183.75c-3.83,0-7.66-1.98-8.22-2.28-1.21-.65-1.66-2.15-1.01-3.36,.65-1.21,2.15-1.66,3.36-1.02,2.07,1.1,5.88,2.29,7.48,1.36,.71-.41,1.09-1.44,1.14-3.04,.04-1.37,1.17-2.43,2.55-2.41,1.37,.04,2.45,1.18,2.41,2.55-.12,4.29-2.03,6.28-3.61,7.2-1.25,.72-2.67,.99-4.08,.99Z"/><g><path class="cls-1" d="M156.48,204.6s11.18-7.71,7.65-41.12c0,0,.39-7.66,7.71-1.28l.33-9.44s6.27-8.13,14.9,3.27c8.62,11.41,5.9,29.85,5.9,29.85,0,0,.37-8.13,4.81-8.93s3.66,6.41,3.66,6.41c0,0-5.09,34.14-37.31,40.25,0,0-52.25,37.57-63.49,40.06-11.24,2.5-46.3,4.52-16.96-22.46,24.61-17.65,72.8-36.62,72.8-36.62Z"/><path class="cls-2" d="M87.21,267.53c-6.8,0-14.04-1.26-16.59-6.14-2.74-5.25,.98-12.44,11.38-22,.07-.07,.15-.13,.23-.19,23.72-17.02,68.14-34.85,72.97-36.76,1.31-1.2,9.49-9.95,6.45-38.69-.01-.13-.02-.26-.01-.39,.02-.45,.32-4.46,3.45-5.79,1.51-.64,3.05-.41,4.41,.15l.17-5.03c.02-.52,.2-1.02,.52-1.43,.12-.15,2.97-3.78,7.67-3.78h.04c3.85,.02,7.6,2.4,11.13,7.07,4.67,6.17,6.26,14.1,6.69,20.48,.49-.23,1.02-.41,1.6-.51,1.73-.31,3.32,.11,4.49,1.2,2.54,2.36,2.17,7.01,2.08,7.92,0,.03,0,.07-.01,.1-.05,.37-1.4,9.1-6.87,18.7-7.21,12.65-18.23,20.77-31.88,23.52-7.13,5.12-52.82,37.68-63.96,40.15-.13,.03-6.8,1.43-13.97,1.43Zm-1.96-24.38c-11.62,10.71-10.77,14.91-10.23,15.95,2.21,4.23,16.33,4.1,25.08,2.16,8.81-1.96,48.16-29.29,62.58-39.66,.29-.21,.63-.36,.99-.42,12.56-2.38,22.3-9.47,28.96-21.06,4.85-8.45,6.24-16.37,6.35-17.07,.15-1.57-.14-3.29-.5-3.67-.04,0-.12,0-.25,.02-1.35,.25-2.22,2.84-2.59,4.96-.1,1.08-.19,1.76-.21,1.89-.19,1.31-1.37,2.24-2.69,2.11-1.32-.13-2.3-1.26-2.24-2.58,.01-.25,.06-.98,.2-1.95,.39-4.65,.82-17.79-5.61-26.29-2.5-3.3-4.97-5.06-7.15-5.1-1.5-.02-2.69,.8-3.32,1.36l-.29,8.49c-.03,.96-.61,1.81-1.49,2.19-.88,.38-1.9,.22-2.62-.41-1.97-1.71-2.93-1.91-3.16-1.93-.18,.22-.37,.85-.43,1.3,3.57,34.28-8.22,42.84-8.73,43.19-.16,.11-.32,.2-.5,.27-.48,.19-48.03,18.99-72.14,36.24Zm71.23-38.55h0Zm0,0h0Z"/></g></g></g></svg>