<?xml version="1.0" encoding="UTF-8"?><svg id="_圖層_2" xmlns="http://www.w3.org/2000/svg" viewBox="0 0 130.43 120.49"><defs><style>.cls-1{fill:#fff;}.cls-2{fill:#132c53;}.cls-3{fill:#132d55;}</style></defs><g id="_圖層_1-2"><g><g><path class="cls-3" d="M18.68,25.69l73.23-8.43c6.85-.79,13.43,1.69,18.05,6.81,4.62,5.11,6.43,11.91,4.96,18.65l-8.26,37.86c-1.95,8.95-9.38,15.66-18.48,16.71l-8.13,.94c-2.69,.31-4.92,2.27-5.55,4.88-1.33,5.53-4.65,10.34-9.36,13.54-3.04,2.07-6.56,3.38-10.19,3.79-.07,0-.14,.02-.21,.02-1.99,.21-3.88-.73-4.92-2.45-1.05-1.73-1.02-3.86,.09-5.55,.09-.14,.18-.28,.27-.42,1.27-2.07,1.24-4.55-.09-6.64-1.37-2.15-3.77-3.3-6.28-3.02l-9.57,1.1c-10.4,1.2-20.08-5.23-23.01-15.28L.85,52.55c-1.74-5.98-.77-12.39,2.68-17.57,3.45-5.19,8.97-8.57,15.16-9.29Z"/><g><g><path class="cls-3" d="M127.06,36.02c.2-.92,1.11-1.5,2.03-1.3h0c.92,.2,1.5,1.11,1.3,2.03l-7.54,34.53c-.2,.92-1.11,1.5-2.03,1.3h0c-.92-.2-1.5-1.11-1.3-2.03l7.54-34.53Z"/><path class="cls-3" d="M4.97,19.33c4.51-5.96,11.08-9.99,18.44-11.29,.97-.17,1.89,.51,2,1.49,.1,.89-.5,1.71-1.38,1.86-6.53,1.15-12.36,4.72-16.35,10.01-.54,.72-1.55,.89-2.29,.39h0c-.82-.55-1.01-1.67-.42-2.46Z"/><path class="cls-3" d="M51.91,4.7L92.7,.01c.93-.11,1.78,.56,1.89,1.5h0c.11,.94-.56,1.78-1.5,1.89l-40.79,4.69c-.93,.11-1.78-.56-1.89-1.5h0c-.11-.94,.56-1.78,1.5-1.89Z"/></g><path class="cls-1" d="M26.37,17.94L99.61,9.51c13.21-1.52,23.99,10.4,21.16,23.39l-8.26,37.87c-1.8,8.24-8.63,14.42-17.01,15.38l-8.13,.94c-3.4,.39-6.21,2.85-7.01,6.18-1.18,4.93-4.13,9.45-8.66,12.53-2.98,2.02-6.28,3.18-9.63,3.53-2.89,.3-4.83-2.94-3.23-5.36,.1-.15,.2-.31,.3-.47,3.53-5.74-1.33-13.01-8.02-12.24l-9.57,1.1c-9.54,1.1-18.49-4.84-21.18-14.06L9.98,42.63c-3.36-11.53,4.46-23.32,16.4-24.69Z"/><path class="cls-3" d="M62.46,111c3.63-.42,7.15-1.73,10.19-3.79,4.71-3.2,8.03-8.01,9.36-13.54,.63-2.61,2.85-4.57,5.55-4.88l8.13-.94c9.1-1.05,16.52-7.76,18.48-16.71l8.26-37.86c1.47-6.74-.34-13.53-4.96-18.65-4.62-5.11-11.21-7.59-18.05-6.81L26.18,16.24c-6.19,.71-11.71,4.1-15.16,9.29-3.45,5.19-4.42,11.59-2.68,17.57l10.41,35.67c2.93,10.05,12.61,16.48,23.01,15.28l9.57-1.1c2.5-.29,4.91,.87,6.28,3.02,1.33,2.09,1.36,4.57,.09,6.64-.09,.14-.18,.28-.27,.42-1.11,1.69-1.15,3.81-.09,5.55,1.05,1.72,2.93,2.66,4.92,2.45,.07,0,.14-.02,.21-.02ZM99.8,11.2c5.74-.66,11.26,1.42,15.14,5.71,3.88,4.29,5.39,9.98,4.16,15.63l-8.26,37.86c-1.64,7.52-7.89,13.17-15.54,14.05l-8.13,.94c-4.11,.47-7.51,3.48-8.47,7.47-1.13,4.71-3.95,8.8-7.96,11.52-2.64,1.79-5.73,2.93-8.85,3.25-1,.11-1.52-.61-1.65-.83-.14-.23-.54-1.03,.03-1.9,.11-.17,.22-.34,.33-.51,1.94-3.16,1.9-7.09-.12-10.26-2.07-3.26-5.73-5.01-9.54-4.57l-9.57,1.1c-8.74,1.01-16.88-4.4-19.35-12.85L11.61,42.15c-1.46-5.01-.64-10.38,2.24-14.73,2.89-4.35,7.52-7.19,12.71-7.79L99.8,11.2Z"/></g></g><g><path class="cls-2" d="M62.83,29.48c.51-.84,1.11-1.01,1.38-1.01,.65,0,1.83,.8,1.83,1.5s-1.06,.7-1.57,.7h-5.33l.02,.65c.02,.63-1.26,.92-1.86,.92-.77,0-.82-.39-.82-1.01v-.58h-2.73v.8c0,.6-1.23,.87-1.76,.87-.39,0-.89-.17-.89-.63,0-.14,.05-.87,.05-1.04l-4.03,.02c-.22,0-1.28,.34-1.54,.34-.36,0-.77-.17-.77-.63,0-.56,.6-1.13,1.21-1.13,.14,0,.82,.14,.97,.17,.29,.05,.53,.07,.87,.07h3.36v-1.16c-.29-.22-.39-.29-.39-.43,0-.53,1.25-1.21,2.05-1.21,.29,0,1.04,.07,1.04,.82,0,.07-.07,.46-.07,.53-.07,.58-.1,.75-.1,1.47h2.75v-.58c0-.17,0-.46-.02-.6-.02-.02-.17-.17-.22-.19-.1-.1-.15-.19-.15-.29,0-.6,1.38-1.25,2.03-1.25,.17,0,1.09,.05,1.09,.8,0,.07-.07,.46-.07,.56v1.54h3.69Zm-.56,8.4c.31-.43,.89-.8,1.59-.8,.77,0,1.76,.41,1.76,1.45,0,.97-1.47,3.21-1.5,3.24-.19,.29-.48,.53-.92,.53-.63,0-.7-.48-.75-.8-.1-.68-.1-.82-.22-2.54h-6.57c.07,0,.22,.17,.22,.36,0,.34-.17,.53-.92,1.45h2.73c.22-.27,.58-.72,1.18-.72s1.79,.63,1.79,1.4c0,.22-.07,.27-.63,.7-.39,.7-.8,1.47-2.22,2.95-1.74,1.81-4.68,4.06-10.96,4.06-.15,0-.94,0-.94-.29,0-.19,.14-.24,1.5-.51,.48-.1,4.39-1.04,6.59-3.09-.26-.12-1.59-.6-1.91-.72-.24-.1-.56-.24-.56-.6,0-.55,.92-1.13,1.52-1.13,1.18,0,2,1.42,2.1,1.59,.24-.29,1.38-1.62,1.79-2.61h-3.31c-2.08,1.93-4.85,2.99-6.37,2.99-.12,0-.82,0-.82-.22,0-.12,.12-.17,.17-.19,.02-.02,.19-.07,.22-.1,3.04-1.5,5.17-3.77,5.91-4.9,0-.02,.05-.19,.05-.24-.02-.05-.05-.12-.05-.17h-4.54c-.43,2.97-.84,3.4-1.5,3.4-.43,0-.55-.15-.68-.43-.29-.7-.94-2.75-.94-3.36,0-.89,.68-1.5,1.64-1.5,.53,0,1.23,.24,1.5,.8h14.02Zm-2.05-5.26c.31-.58,.87-.84,1.18-.84,.56,0,1.81,.56,1.81,1.18,0,.1-.24,.63-.24,.75,0,.34,.07,2.05,.07,2.44,0,.94-1.54,1.11-1.91,1.11-.99,0-.99-.41-1.01-.8h-9.7c-.1,.55-1.4,.7-1.76,.7-.22,0-.97,0-.97-.72,0-.36,.07-2.12,.07-2.51,0-.22,0-.24-.07-.31-.14-.14-.27-.27-.27-.39,0-.6,1.21-1.33,1.91-1.33,.39,0,1.06,.24,1.13,.72h9.75Zm-8.3,2.87v-1.88h-1.47c0,.75-.02,1.04-.02,1.88h1.5Zm4.1,0v-1.88h-1.54v1.88h1.54Zm4.1,0v-1.88h-1.52c0,.27-.02,1.59-.02,1.88h1.54Z"/><path class="cls-2" d="M68.31,38.3c2.15-2.12,3.02-4.71,3.04-4.8,.31-.94,.46-1.35,1.35-1.35,.19,0,.46,.1,.63,.17l-.02-.77c-.99,0-1.91,.07-1.96,.07-.24,.02-1.26,.46-1.47,.46-.31,0-.7-.22-.7-.63,0-.48,.43-1.11,1.06-1.11,.1,0,.55,.12,.65,.12h2.41c0-.41-.05-1.38-.12-1.93-.05-.1-.36-.51-.36-.63,0-.63,1.47-1.33,2.17-1.33,.36,0,1.01,.14,1.01,.77,0,.1-.07,.63-.1,.72-.12,.96-.19,1.98-.19,2.39h.65c.19-.29,.48-.72,.94-.72,.58,0,1.33,.63,1.33,1.23s-.6,.58-.89,.58h-2.03v1.3c.53,.8,1.3,1.42,2.41,2.1,.46,.27,.51,.31,.51,.48,0,.43-1.38,1.04-1.67,1.04-.31,0-.51,0-1.35-1.52,.02,.72,.17,4.42,.17,4.59,0,.89-1.54,1.3-1.91,1.3-.48,0-.92-.19-.92-.72,0-.8,.22-4.3,.24-5.02-1.5,2.15-3.6,3.57-4.71,3.57-.05,0-.31,0-.31-.14l.12-.22Zm1.98,8.55c-.77,0-1.98-.36-1.98-1.28,0-.82,.6-1.42,1.4-1.42,1.35,0,1.91,0,2.87-.43,.27-.12,1.62-.89,1.64-.89,.1,0,.31,.07,.31,.27,0,.68-1.5,3.77-4.25,3.77Zm19.34-.58c-1.42,2.34-2.39,2.44-3.36,2.44-1.04,0-3.19,0-5.91-.41-4.95-.77-5.26-2.39-5.26-3.55,0-.24,.05-1.38,.05-1.62,0-.07,0-.84-.02-.84-.05-.05-.34-.19-.39-.22-.05-.05-.1-.1-.1-.19,0-.72,1.54-1.38,2.12-1.38s.99,.07,.99,.72c0,.12,0,.24-.05,.53-.29,1.59-.41,2.29-.41,2.9,0,.7,0,1.4,4.03,1.4,2.58,0,4.2,0,6.86-1.01,.29-.12,1.74-.8,1.86-.8,.19,0,.36,.1,.36,.29,0,.43-.56,1.35-.77,1.74Zm-8.13-7.29c0,.48,0,.6-.39,.89-.41,.31-.94,.46-1.21,.46-.6,0-1.04-.27-1.04-.87,0-.87,.15-4.8,.15-5.6v-3.74c0-.17-.07-.24-.34-.51-.05-.05-.12-.15-.12-.27,0-.63,1.45-1.54,2.1-1.54,.39,0,.75,.19,.87,.58h3.86c.31-.58,1.11-.89,1.57-.89,.6,0,1.57,.51,1.57,1.16,0,.14-.15,.8-.15,.92l.02,3.89c0,.89,.12,4.78,.12,5.6,0,.34,0,.58-.51,.87-.43,.27-1.21,.46-1.62,.46-.68,0-.94-.31-.94-.89v-.51h-3.96Zm-.92,1.81c.58,0,1.38,.46,1.38,1.06,0,.84-1.98,2.99-2.8,2.99-.39,0-.46-.24-.46-.46,0-.05,.43-2.41,.58-2.82,.29-.48,.75-.77,1.3-.77Zm4.88-11.32h-3.72c-.19,0-.24,.34-.24,.43v1.76h3.96v-2.2Zm0,3.26h-3.96v2.05h3.96v-2.05Zm0,3.14h-3.96v2.03h3.96v-2.03Zm-2.49,8.96c-.31,0-.51-.22-.51-.51,0-.19,.36-1.67,.46-2.05,.22-.77,.39-1.42,1.54-1.42,.77,0,1.59,.55,1.59,1.13,0,.82-2.22,2.85-3.09,2.85Z"/><path class="cls-2" d="M35.94,64.49c.41-.43,.92-.87,1.5-.87,.51,0,1.45,.39,1.45,1.04,0,.14-.24,.89-.24,1.06,0,.43,.07,2.56,.07,3.04,0,.92-.19,1.09-1.09,1.42-.68,.24-1.13,1.01-1.28,1.23,.41,0,.7,0,1.5,.1,.22,.05,6.3,1.06,7.46,1.25,1.76,.27,3.65,.56,5.6,.56,1.69,0,2.73-.17,3.45-.31,.29-.05,.7-.15,.87-.15,.22,0,.31,.15,.31,.29,0,.22-2.51,2.95-4.66,2.95-1.88,0-4.54-.82-5.48-1.11l-5.79-1.79c-.53-.17-3.45-1.04-3.86-.8-1.45,2.12-1.64,2.37-2.27,2.37-.8,0-1.4-1.01-1.4-1.74,0-.43,.14-.53,.48-.72,2.2-1.26,2.97-2.1,3.43-2.61v-3.93l-1.57,.07c-.22,0-1.23,.41-1.47,.41-.12,0-.68-.05-.68-.6s.43-1.21,1.16-1.21c.12,0,.7,.12,.84,.12l1.67-.07Zm2.03-4.47c-.22,0-4.25-.51-4.25-2.12,0-.82,.72-1.42,1.52-1.42,1.59,0,3.36,2.49,3.36,3.09,0,.36-.39,.46-.63,.46Zm10.74,5.19c.48-.51,.99-.82,1.35-.82,.58,0,1.83,.65,1.83,1.25,0,.07-.22,.41-.22,.48s.02,3.77,.02,4.47c0,1.04-1.74,1.21-2.05,1.21-.99,0-.99-.65-.99-1.64h-5.09c0,.65,0,.75-.36,1.16-.29,.31-.96,.6-1.45,.6-.05,0-.99,0-.99-.94,0-.34,.17-4.18,.19-4.95,.02-.48,.07-3.26,.07-5.94,0-.19,0-.68-.07-.84-.02-.07-.34-.41-.34-.51,0-.58,1.21-1.5,1.88-1.5,.22,0,.77,.1,1.04,.68h.24c.14-.48,.82-2.9,.99-3.45,.22-.77,1.18-.77,1.28-.77,.89,0,1.91,.8,1.91,1.42s-2,2.1-2.95,2.8h3.09c.19-.24,.63-.8,1.21-.8s1.96,.6,1.96,1.23c0,.07-.02,.12-.1,.22-.29,.46-.31,.48-.31,.87,0,.48,.05,2.78,.05,3.28,0,.87-1.35,1.13-1.96,1.13-.85,0-.94-.34-.94-.84h-4.47v2.2h5.17Zm-.7-3.31v-2.87h-4.2c-.22,0-.27,.19-.27,.36v2.51h4.47Zm.7,7.12c0-.39-.02-2.29-.02-2.73h-5.12v2.73h5.14Z"/><path class="cls-2" d="M63.67,72.94c-2.17-.7-3.62-.92-3.84-.8-.39,.53-.97,1.4-1.38,1.93-.19,.27-.53,.46-.92,.46-.87,0-1.42-1.13-1.42-1.79,0-.43,.12-.51,.65-.8,.39-.22,2.24-1.35,3.28-2.51v-3.84l-1.54,.07c-.22,0-1.23,.41-1.47,.41-.29,0-.7-.12-.7-.63s.34-1.21,1.18-1.21c.12,0,.7,.12,.84,.12l1.64-.07c.19-.22,.8-.87,1.52-.87,.51,0,1.45,.39,1.45,1.01,0,.15-.02,.19-.17,.58-.07,.17-.07,.22-.07,.48,0,.48,.05,2.66,.05,3.07,0,.63-.05,.94-.94,1.3-.51,.19-.85,.34-1.42,1.28,1.06,.02,1.91,.17,4.1,.53,6.18,1.06,8.35,1.42,10.4,1.42,1.5,0,1.71-.05,3.74-.39,.17-.02,.48-.07,.6-.07,.22,0,.31,.17,.31,.27,0,.22-2.51,2.99-4.61,2.99-1.59,0-4.03-.65-5.65-1.16l-5.65-1.81Zm-5.82-15.47c0-.89,.87-1.38,1.57-1.38,1.62,0,3.33,2.51,3.33,3.07,0,.34-.31,.48-.65,.48-.41,0-2.39-.36-3.6-1.09-.43-.39-.65-.6-.65-1.09Zm14.34,4.49c2.17,2.27,3.81,3.16,5.62,3.93,.99,.41,1.11,.46,1.11,.63,0,.51-1.28,1.83-2.29,1.83-.8,0-2.32-1.28-3.72-3.69,.17,.63,.27,1.59,.27,2.22,0,4.2-2.46,4.61-3.33,4.61-1.25,0-2.85-1.47-3.21-2.44v-.07c0-.07,.02-.12,.12-.12,.07,0,.46,.1,.56,.12,.68,.15,.96,.19,1.71,.19,1.11,0,1.54-1.79,1.54-3.21v-.39c-3.28,2.9-6.01,3.43-6.86,3.43-.15,0-.7-.02-.7-.27,0-.12,.29-.27,.48-.34,1.04-.43,4.06-2.73,5.21-4.44,.43-.97,1.38-.89,1.54-.82-.17-.8-.22-1.01-.29-1.4-.27,.55-1.62,1.83-3.26,2.8-1.33,.77-2.44,1.11-3.02,1.11-.36,0-.51-.07-.51-.22,0-.12,.12-.19,.36-.34,1.91-1.21,3.43-3.07,3.86-3.62,.89-1.11,.96-1.21,1.45-1.21,.19,0,.46,.07,.55,.1-.12-.27-.27-.56-.41-.87-1.96,1.45-4.44,2.56-5.75,2.56-.19,0-.56,0-.56-.24,0-.14,.12-.22,.56-.41,.22-.1,2.9-1.54,4.47-4.03h-1.35c-.29,0-1.01,0-1.21,.05-.17,.02-.99,.31-1.18,.31-.27,0-.7-.07-.7-.58,0-.46,.53-1.16,1.06-1.16,.1,0,.6,.14,.72,.14,.92,.05,7.97,.02,8.88,0,.27-.39,.77-1.06,1.28-1.06,.58,0,1.88,.85,1.88,1.57,0,.34-.27,.63-.65,.7-.22,.02-4.34,.02-5.17,.02-.22,.34-.31,.48-1.06,1.28,.55,.82,1.13,1.67,1.5,2.58,.97-1.01,2.1-2.05,2.66-2.54,.39-.34,.72-.6,1.16-.6,.63,0,1.47,.68,1.47,1.33s-.63,1.11-3.91,2.25l-.7,.24-.22,.05Z"/><path class="cls-2" d="M92.64,67.37l.19,4.25c.02,.39,.12,2.08,.12,2.41,0,1.16-1.28,2.22-2.15,2.22-.36,0-1.21-.22-1.21-1.38,0-.05,.1-1.91,.12-2.27,.12-2.05,.17-3.69,.19-5.24h-4.54c0,.41-.02,.53-.07,.68-.22,.56-1.26,1.06-1.96,1.06-.92,0-.92-.77-.92-1.3,0-1.01,.19-5.96,.12-6.42-.51-.24-.56-.55-.56-.65,0-.72,1.69-2.03,2.44-2.03,.24,0,.94,0,1.06,1.13h4.39c0-.46,0-2.46-.14-2.9-.05-.17-.63-.75-.63-.89,0-.99,1.83-2.1,2.82-2.1,1.09,0,1.09,.87,1.09,1.06,0,.07-.15,1.16-.17,1.28-.07,.58-.19,2.87-.22,3.55h4.34c.53-.82,1.16-1.13,1.57-1.13,.68,0,2.08,.7,2.08,1.4,0,.27-.31,1.35-.31,1.59,0,.85,.17,5.12,.17,5.31,0,1.35-1.52,1.81-2.15,1.81-1.09,0-1.09-.53-1.09-1.45h-4.61Zm-6.93-6.25c-.24,0-.36,.22-.36,.41v2.22c0,.63,0,1.52,.02,2.34h4.54l.02-4.97h-4.22Zm11.56,3.21c0-.51-.02-2.75-.02-3.21h-4.61v4.97h4.63v-1.76Z"/></g></g></g></svg>