<?xml version="1.0" encoding="UTF-8"?><svg id="_圖層_2" xmlns="http://www.w3.org/2000/svg" viewBox="0 0 174.16 122.51"><defs><style>.cls-1{fill:#0e2c50;}</style></defs><g id="_圖層_1-2"><g><g><path class="cls-1" d="M9.25,92.63c.94-1.19,1.73-1.19,1.98-1.19,.97,0,2.34,1.04,2.34,2.02,0,.22-.04,.29-.4,.76-.07,.11-.07,.25-.07,.47,0,.68,.22,6.01,.22,6.95,0,.47-.22,1.01-1.76,1.51,.25,.18,.36,.29,.36,.58,0,.58-2.74,2.63-3.42,3.06,.4,.14,.5,.22,1.33,.65,.22-.29,1.15-1.44,1.15-1.66,.11-.79,1.22-.94,1.91-.94,.61,0,1.69,.25,1.69,.83,0,.22-.07,.32-.14,.43-.14,.18-2.3,1.91-2.7,2.23,1.87,.36,2.81,1.48,2.81,2.09,0,.83-.97,1.12-1.4,1.12-.68,0-.76-.18-1.15-1.15-1.08,.22-5.44,1.19-5.76,1.19-.43,0-1.04-.29-1.04-.9,0-.36,.22-.79,.61-.86,.32-.07,.5-.07,2.09-.14,.25-.25,.47-.5,1.15-1.26-.68-.14-1.55-.29-2.23-.36-.47-.04-1.12-.11-1.12-.68,0-.07,0-.54,1.01-1.01,.32-.47,1.37-1.87,1.69-2.48,0-.58,0-.72,1.01-.97-.11-.18-.11-.25-.11-.68H4.57c.04,5.51,.11,11.05,.11,16.56,0,.68,0,1.4-.86,2.05-.47,.36-1.15,.68-1.87,.68-.86,0-1.66-.32-1.66-1.26,0-.83,.25-4.86,.29-5.8,.18-3.71,.29-10.04,.25-13.93l-.04-5.62c0-.07-.4-.43-.5-.5-.11-.11-.29-.29-.29-.54,0-.9,2.3-2.27,3.2-2.27,.32,0,1.15,.18,1.44,1.04h4.61Zm.04,4.14v-2.02c0-.11,0-.47-.07-.47H4.97c-.25,0-.4,.32-.4,.54v1.94h4.72Zm.04,3.85v-2.34H4.57v2.34h4.75Zm4.82,14.22c0,2.48-1.26,4.54-4.03,5.65-1.12,.43-2.92,.79-3.85,.79-.29,0-.47-.25-.47-.43,0-.14,.25-.32,.4-.36,1.51-.47,4.36-1.33,4.57-3.96h-.76c0,.79,0,1.04-1.04,1.3-.36,.07-1.15,.18-1.37,.18-.54,0-.79-.29-.79-.79,0-.54,.07-3.35,.07-3.38,0-.14-.36-.68-.36-.83,0-.65,1.87-1.08,2.38-1.08s1.15,.18,1.15,.76c0,.14-.07,.79-.07,.83v1.73h1.01v-.14c0-.22-.07-1.37-.07-1.62,0-.11-.32-.5-.32-.61,0-.54,1.51-1.19,2.27-1.19,.47,0,1.3,.11,1.3,.65v2.52Zm-2.56-5.29c-.07-.14-.14-.22-.47-.72-.72,.58-.79,.65-.97,.76,1.08,0,1.19-.04,1.44-.04Zm8.39-7.31c-.04,.29-.5,.54-.68,.65,.36,.04,1.15,.14,1.15,.72,0,.29-.18,.47-.29,.61-.18,.14-1.08,.9-2.99,2.56l1.19,.61c.4-.47,.76-.94,1.12-1.44v-.18c0-.76,1.33-.94,1.87-.94,.72,0,1.69,.43,1.69,1.01,0,.11-.04,.22-.14,.4-.07,.07-1.8,1.55-2.45,2.05,.86,0,4.1,.83,4.1,2.2,0,.54-.68,1.15-1.73,1.15-.54,0-.58-.04-1.3-1.26-.9,.14-5.44,1.08-5.69,1.08-.72,0-1.15-.58-1.15-1.04,0-.79,.94-.79,1.84-.79,.32-.32,.4-.4,1.01-1.15-.61-.11-2.05-.4-2.3-.43-.4-.04-1.12-.11-1.12-.72,0-.36,.83-.94,1.3-1.15,.54-.68,.94-1.19,1.51-2.34-.04-.36,.04-.47,.14-.58-.25-.07-.86-.22-.97-.65-.04-.18,.04-3.53,.04-4.21v-3.82s-.14-.11-.32-.25c-.29-.25-.4-.4-.4-.68,0-.94,2.12-2.16,3.02-2.16,.29,0,1.19,0,1.55,1.15h4.46c.18-.32,.86-1.51,2.09-1.51,.94,0,2.77,1.01,2.77,2.09,0,.25-.47,1.44-.47,1.73l.04,22.1c0,1.12,0,5.36-4.46,5.36-2.2,0-5.4-2.45-5.4-2.63,0-.14,.11-.22,.25-.22,.25,0,1.87,.25,2.23,.25,3.2,0,3.31-2.12,3.31-3.67v-13.89h-4.82Zm-.61,14.29h-1.12c0,.5,.11,2.95,.11,3.53,0,1.51-1.51,1.55-2.09,1.55-.79,0-1.4-.29-1.4-1.08,0-.47,.14-2.77,.14-3.31v-3.78c0-.11-.36-.54-.36-.65,0-.54,1.87-1.26,2.45-1.26,.25,0,1.26,.14,1.26,.72,0,.18-.11,.97-.14,1.15v1.84h1.19l-.04-1.62s-.43-.47-.43-.61c0-.58,1.66-1.19,2.41-1.19,1.44,0,1.44,.58,1.44,1.4,0,.54,.11,3.2,.11,3.82s-1.4,1.04-2.38,1.04c-1.12,0-1.15-.58-1.15-.9v-.65Zm-.65-6.91c1.3-.04,1.44-.04,2.27-.07-.14-.22-.72-.68-1.01-.94l-1.26,1.01Zm6.08-12.85v-2.05c0-.07,0-.36-.04-.43h-4.46c-.22,0-.32,.18-.32,.36v2.12h4.82Zm0,3.89v-2.38h-4.82v2.38h4.82Z"/><path class="cls-1" d="M45.25,104.87c.5-.5,1.15-.94,1.87-.94,1.15,0,2.48,1.3,2.48,2.27,0,.29-.11,.43-.32,.65-.22,.18-.22,.32-.4,1.69-.76,6.34-1.58,13.43-6.62,13.43-2.52,0-3.89-2.7-4.43-4,0-.14,.11-.22,.36-.22,.11,0,1.08,.4,1.3,.47,.5,.22,1.3,.47,1.84,.47,.65,0,1.22-.04,1.94-1.69,.97-2.3,1.8-7.23,1.98-10.58h-2.84c-1.94,9.32-7.85,12.81-9.21,12.81-.25,0-.36-.11-.36-.29,0-.07,.79-1.08,.83-1.15,1.76-2.45,3.35-5.4,4.18-8.1,.54-1.76,1.55-6.19,1.55-8.06,0-.11-.11-.25-.22-.32-.25-.18-.32-.29-.32-.5,0-.72,2.05-1.84,3.06-1.84s1.66,.43,1.66,1.4c0,.76-.07,1.15-.68,4.5h2.38Zm1.04-7.77c.47-.72,1.01-1.12,1.55-1.12,.79,0,2.16,.97,2.16,1.87s-1.04,1.01-2.02,1.01h-10.8c-.29,0-1.62,.58-1.94,.58-.47,0-1.04-.32-1.04-.97s.61-1.48,1.58-1.48c.14,0,.86,.11,1.04,.11h3.6v-2.66c0-1.19,.04-1.33-.25-1.51-.58-.36-.65-.5-.65-.76,0-1.08,2.3-2.3,3.56-2.3,.61,0,1.66,.36,1.66,1.51,0,.04-.04,.25-.04,.32-.07,.76-.5,4.54-.58,5.4h2.16Zm22.39,5.04c0,.36-3.53,2.23-4.14,2.23-2.16,0-5.8-3.89-7.56-8.24-2.41,3.46-7.67,7.52-11.3,7.52-.18,0-.68-.04-.68-.25,0-.14,.58-.5,1.01-.76,3.49-2.23,5.83-4.93,7.85-8.93,.14-1.48,1.58-2.05,2.45-2.05,1.01,0,2.2,.76,2.2,1.8,0,.36-.18,.65-.32,.9,2.23,3.2,6.34,6.05,10.15,7.42,.25,.11,.36,.14,.36,.36Zm-5.98,19.08c-4.14,0-10.83-4.61-10.83-6.16,0-1.15,1.33-2.09,2.3-2.09,.86,0,1.22,.32,2.41,1.48,1.87,1.76,5.4,4.75,6.62,5.4,.29,.14,.83,.47,.83,.79,0,.4-.83,.58-1.33,.58Zm-4.64-16.52c.83,2.02,1.33,3.28,2.56,5.11,.32,.5,.5,.76,.5,.97,0,.47-.65,.54-.79,.54-2.34,0-6.59-4.46-6.59-6.3,0-.94,1.37-1.58,2.23-1.58,.65,0,1.66,.25,2.09,1.26Z"/><path class="cls-1" d="M80.06,108.18c.36-.5,.83-.94,1.44-.94,.72,0,2.2,.86,2.2,1.76,0,.4-.14,.54-.43,.76-.61,1.58-1.87,3.92-2.74,5.29,2.05,1.62,4.32,3.13,11.16,3.13,.94,0,6.84-.07,10.04-.54,.36-.04,2.12-.4,2.56-.4,.11,0,.4,0,.4,.22,0,.29-1.94,2.88-2.34,3.38-.83,1.04-2.34,1.04-4.07,1.04-11.23,0-15.19-.68-19.33-5.18-1.8,2.12-5.76,4.25-8.85,4.25-.76,0-1.19-.18-1.19-.36,0-.14,.29-.25,.54-.36,4.9-1.87,7.09-4.93,7.45-5.47-.29-.61-1.01-2.09-1.3-3.1-2.27,3.06-4.93,3.71-5.76,3.71-.29,0-.4-.07-.4-.25s1.04-1.08,1.22-1.26c1.84-2.02,3.6-4.46,4.46-7.77,.22-.32,.4-.61,1.55-.61,0-.25,.04-1.48,.07-1.73-2.52,3.06-6.52,4.28-6.88,4.28-.29,0-.43-.18-.43-.29,0-.18,.11-.22,.94-.86,2.48-1.94,4.07-4.18,4.64-5.04-.5,0-.65-.5-.97-1.58-.94,1.37-2.92,3.02-4.18,3.02-.11,0-.36-.04-.36-.25,0-.18,1.01-1.37,1.19-1.62,.79-1.15,1.69-2.95,1.94-4.28,0-.04-.07-.22-.07-.25,0-.47,.86-1.08,1.66-1.08,.86,0,1.51,.47,1.51,.94,0,.72-.14,.97-.72,2.05,.18,.36,.43,.58,1.62,1.48h.22c-.04-.68-.07-3.96-.07-4.72l-3.89,.07c-.29,0-1.62,.36-1.94,.36-.25,0-.9-.11-.9-.65s.29-1.48,1.48-1.48c.07,0,.61,.14,.68,.14h4.46c0-.5-.07-1.69-.29-2.2-.22-.14-.32-.32-.32-.54,0-1.08,2.05-2.05,3.06-2.05,.5,0,1.22,.29,1.22,1.01,0,.22-.11,1.15-.11,1.37,0,.36-.07,2.05-.07,2.41h1.84c.25-.32,.83-1.08,1.51-1.08,.79,0,1.91,1.04,1.91,1.8,0,.86-.79,.86-1.15,.86l-4.14-.04-.07,3.06,.04,1.84,.07,.07c.18-.4,1.04-2.23,1.04-3.74,0-.32,.4-1.01,1.44-1.01,.83,0,1.3,.47,1.3,1.08,0,.14-.32,1.48-.36,1.58,.18,.54,1.01,1.3,1.73,1.66,.47,.25,.68,.36,.68,.54,0,.61-1.4,1.51-1.94,1.51-.72,0-1.33-1.12-1.76-2.23-.58,.65-.65,.72-1.37,1.22,1.37,1.08,2.48,1.62,2.84,1.8,1.98,.97,2.2,1.08,2.2,1.37,0,.61-1.48,2.2-2.59,2.2-.86,0-2.66-2.59-3.24-3.64l.04,2.02c0,.5-.47,1.12-1.66,1.19,.25,.22,.29,.36,.29,.54,0,.4-.47,1.08-.79,1.58h2.05Zm-2.92,1.37l-.32,.61c.22,.68,.58,1.73,1.37,2.7,.72-1.58,1.08-2.66,1.26-3.31h-2.3Zm12.49,4.46v.29c0,2.02-2.02,2.02-2.09,2.02-.97,0-1.33-.5-1.33-1.15,0-.76,.25-6.41,.32-7.59,0-.07,.11-4.03,.11-5.94v-.94c0-.18-.5-.9-.5-1.08,0-.68,1.66-2.02,2.41-2.02,.43,0,.9,.11,1.01,.61h1.48c.32-.83,.76-2.63,1.04-4.1-.54,0-3.13-.04-3.71-.04h-.79c-.22,0-1.19,.36-1.44,.36-.72,0-.9-.29-.9-.65,0-.76,.47-1.51,1.33-1.51,.18,0,1.01,.25,1.19,.25h12.2c.22-.58,.94-1.51,1.62-1.51,.86,0,2.2,1.26,2.2,2.23,0,.79-.72,.79-1.55,.79h-6.73c.22,.11,.4,.22,.4,.54,0,.5-.4,1.15-.9,1.94-.14,.25-1.01,1.4-1.19,1.69h4.5c.43-.76,1.19-1.12,1.51-1.12,.76,0,2.12,1.12,2.12,1.84,0,.11-.07,.29-.14,.58-.11,.25-.11,1.22-.11,1.58,0,1.3,.11,6.62,.18,9.07,.04,.5,.14,3.28,.14,3.35,0,1.8-2.09,1.98-2.52,1.98-1.33,0-1.37-.61-1.37-1.58h-8.53l.04,.11Zm0-7.63c0,1.69-.07,4.36-.07,6.05h1.08c.04-3.06,.04-5.36,.04-8.03v-4.86h-.86c-.18,0-.18,.32-.18,.4v6.44Zm4.82-3.28l-.04-3.56h-1.19l-.04,3.56h1.26Zm0,4.61v-3.28h-1.26v3.28h1.26Zm-1.26,4.72h1.22c0-.36,.04-.72,.04-1.91v-1.51h-1.26v3.42Zm4.97,0v-12.89h-.97c-.04,2.77-.07,4.14-.07,11.34v1.55h1.04Z"/><path class="cls-1" d="M132.55,117.76c.9-1.87,2.3-1.87,2.52-1.87,1.15,0,3.1,1.44,3.1,2.63,0,1.04-1.19,1.15-2.34,1.15-1.4,0-19.37-.04-23-.04v.79c0,1.22-1.8,2.09-2.88,2.09-1.66,0-1.66-.9-1.66-1.84,0-.36,.25-8.57,.29-9.72,.14-7.27,.14-8.17,.14-13.46,0-.58,0-1.94-.18-2.38-.11-.22-.94-1.01-.94-1.26,0-.86,2.41-2.56,3.6-2.56,.4,0,1.58,0,1.84,1.62,7.2,0,10.08,0,17.42-.04,1.08-1.55,2.09-1.69,2.48-1.69,1.15,0,2.92,1.26,2.92,2.45,0,1.04-1.44,1.12-2.56,1.12h-19.58c-.54,0-.9,.11-.9,1.15v21.85h19.73Zm-1.66-5.44c.5-.97,1.58-1.62,2.27-1.62,1.01,0,2.63,1.26,2.63,2.34s-1.4,1.15-2.12,1.15h-17.06c-.29,0-1.73,.54-2.05,.54-.4,0-1.01-.29-1.01-.86,0-.68,.58-1.76,1.58-1.76,.22,0,1.3,.22,1.55,.22h4.75c.04-1.55,.07-2.27,.07-5.65h-2.66c-.32,0-1.76,.61-2.09,.61-.29,0-1.01-.18-1.01-.94,0-.68,.5-1.51,1.58-1.51,.18,0,1.01,.14,1.19,.14h2.99c0-.72-.04-4.25-.04-5.04l-3.67,.07c-.32,0-1.8,.58-2.16,.58-.68,0-1.22-.25-1.22-.94,0-.76,.68-1.62,1.62-1.62,.18,0,1.04,.18,1.22,.18h12.28c.68-1.04,1.48-1.4,1.98-1.4,.86,0,2.59,1.01,2.59,2.16,0,.94-1.04,.97-1.69,.97h-6.7c-.04,2.12-.04,2.95-.07,5.04h2.81c.22-.76,1.22-1.55,1.91-1.55,.94,0,2.23,1.15,2.23,2.2s-1.26,1.04-1.91,1.04h-5.04v5.65h5.25Z"/><path class="cls-1" d="M168.55,117.76c.9-1.87,2.3-1.87,2.52-1.87,1.15,0,3.1,1.44,3.1,2.63,0,1.04-1.19,1.15-2.34,1.15-1.4,0-19.37-.04-23-.04v.79c0,1.22-1.8,2.09-2.88,2.09-1.66,0-1.66-.9-1.66-1.84,0-.36,.25-8.57,.29-9.72,.14-7.27,.14-8.17,.14-13.46,0-.58,0-1.94-.18-2.38-.11-.22-.94-1.01-.94-1.26,0-.86,2.41-2.56,3.6-2.56,.4,0,1.58,0,1.84,1.62,7.2,0,10.08,0,17.42-.04,1.08-1.55,2.09-1.69,2.48-1.69,1.15,0,2.92,1.26,2.92,2.45,0,1.04-1.44,1.12-2.56,1.12h-19.58c-.54,0-.9,.11-.9,1.15v21.85h19.73Zm-1.66-5.44c.5-.97,1.58-1.62,2.27-1.62,1.01,0,2.63,1.26,2.63,2.34s-1.4,1.15-2.12,1.15h-17.06c-.29,0-1.73,.54-2.05,.54-.4,0-1.01-.29-1.01-.86,0-.68,.58-1.76,1.58-1.76,.22,0,1.3,.22,1.55,.22h4.75c.04-1.55,.07-2.27,.07-5.65h-2.66c-.32,0-1.76,.61-2.09,.61-.29,0-1.01-.18-1.01-.94,0-.68,.5-1.51,1.58-1.51,.18,0,1.01,.14,1.19,.14h2.99c0-.72-.04-4.25-.04-5.04l-3.67,.07c-.32,0-1.8,.58-2.16,.58-.68,0-1.22-.25-1.22-.94,0-.76,.68-1.62,1.62-1.62,.18,0,1.04,.18,1.22,.18h12.28c.68-1.04,1.48-1.4,1.98-1.4,.86,0,2.59,1.01,2.59,2.16,0,.94-1.04,.97-1.69,.97h-6.7c-.04,2.12-.04,2.95-.07,5.04h2.81c.22-.76,1.22-1.55,1.91-1.55,.94,0,2.23,1.15,2.23,2.2s-1.26,1.04-1.91,1.04h-5.04v5.65h5.25Z"/></g><g><path class="cls-1" d="M73.9,47.71c-.34-.67-.72-1.31-1.11-1.96-.18-.31-.47-.44-.82-.3-.34,.14-.48,.41-.4,.77,.02,.08,.04,.15,.07,.22,.03,.1,.07,.19,.12,.28,.09,.18,.18,.35,.27,.53,.23,.47,.47,.93,.71,1.4,.88,1.63,2.28,3.82,4.27,5.51,.59,.43,1.12,.81,1.63,1.21,.02,.01,.04,.03,.05,.04,2.62,1.71,4.79,2.1,4.88,2.12,.21-.01,.37-.13,.49-.36,.16-.32,.11-.61-.17-.81-.22-.16-.48-.28-.74-.38-1.37-.54-2.74-1.04-3.96-1.92-2.31-1.68-4-3.83-5.3-6.35Z"/><path class="cls-1" d="M82.82,42.39c.19-.07,.36-.21,.43-.39,.07-.18,.03-.39,0-.58-.03-.12-.06-.24-.14-.32,0,0-.02-.02-.03-.03-.04-.03-.09-.06-.14-.08-.53-.23-1.1-.21-1.66-.33-.32-.06-.64-.13-.96-.19-.39-.08-.77-.23-1.17-.22-.21,0-.39,.06-.57,.17-.12,.07-.4,.2-.42,.35-.03,.19,.4,.33,.54,.4,.19,.09,.37,.18,.56,.27,.48,.23,.95,.45,1.44,.65,.65,.27,1.42,.57,2.12,.3Z"/><path class="cls-1" d="M96.05,38.83c.03-.37-.35-.48-.64-.49-1.72-.06-3.32,.7-4.57,1.85-.14,.13-.27,.26-.36,.43-.14,.25-.11,.49-.01,.74,.31,.85,1.38,1.02,2.07,.52,.3-.22,.5-.57,.54-.92,.02-.01,.04-.02,.05-.04,.09-.09,.18-.18,.27-.27,.05-.05,.1-.09,.15-.14,.01,0,.02-.02,.03-.02,.02-.02,.04-.03,.05-.05,.2-.17,.42-.32,.64-.46,.03-.02,.05-.03,.08-.05,0,0,.02,0,.03-.02,.01,0,.03-.02,.04-.02,.03-.02,.07-.04,.1-.06,.11-.06,.23-.12,.34-.18,.03-.01,.05-.03,.08-.04,.02,0,.1-.04,.03-.01,.02,0,.04-.01,.04-.02,.03-.01,.06-.02,.08-.03,.13-.05,.25-.1,.38-.14,.08-.03,.36-.15,.43-.29,.08-.08,.13-.18,.14-.3Z"/><path class="cls-1" d="M94.8,42.9c-.6,0-1.06,.46-1.06,1.05,0,.58,.48,1.06,1.06,1.06,.59,0,1.06-.47,1.06-1.06,0-.6-.46-1.05-1.06-1.05Z"/><path class="cls-1" d="M79,45c0,.57,.46,1.05,1.02,1.05,.59,0,1.04-.46,1.04-1.07,0-.57-.47-1.04-1.03-1.04-.55,0-1.02,.49-1.03,1.05Z"/><path class="cls-1" d="M126.16,52.33c-.19-2.01-1.3-2.87-2.83-4-2.23-1.65-4.66-3.1-7.12-4.37-2.3-1.19-4.59-2.49-6.92-3.64,.1,0,.2-.01,.3,0,.69-.12,1.31-.43,1.71-.99,.3-.43,.55-.87,1.05-1.11,.15-.07,.28-.23,.37-.39,0-.01,.01-.02,.02-.03,.46-.77,.8-1.57,.77-2.49,0-.11,.02-.25,.07-.35,.02-.04,.04-.07,.07-.1,.31-.28,.58-.59,.8-.91,.68-.97,1.01-2.11,1.15-3.32,.31-2.66-.48-4.92-2.53-6.7-.18-.15-.22-.29-.17-.53,.36-1.92,.06-3.74-1.01-5.4-.24-.37-.45-.72-.55-1.18-.31-1.53-1.18-2.71-2.48-3.58-.15-.1-.29-.25-.38-.41-.48-.79-1.04-1.53-1.82-2.02-.66-.42-1.42-.67-2.11-1.03-.19-.1-.4-.27-.48-.46-.34-.8-.84-1.45-1.62-1.86-.4-.21-.69-.51-.9-.93-.17-.34-.37-.7-.64-.96-.92-.87-2.01-1.44-3.27-1.64-.14-.02-.29-.09-.38-.19-.47-.45-.89-.94-1.38-1.37-.57-.5-1.23-.79-2.01-.87-.51-.05-1.05,.02-1.51-.33-.32-.24-.67-.43-1.03-.61-1-.47-2.01-.45-3,.01-.28,.13-.48,.12-.76,0-1.02-.48-2.08-.83-3.18-.28-.78,.39-1.51,.77-2.44,.82-1.04,.06-1.97,.58-2.8,1.24-.11,.09-.28,.18-.4,.15-1.28-.28-2.37,.12-3.23,1.04-.47,.5-.95,.76-1.63,.67-.18-.03-.38,.04-.57,.08-1.87,.43-3.61,1.06-4.69,2.83-.2,.33-.53,.64-.87,.82-.59,.32-1.26,.48-1.85,.8-.65,.35-1.15,.81-1.53,1.37-.38,.54-.62,1.18-.75,1.89-.04,.23-.09,.44-.22,.62-.05,.06-.1,.12-.17,.17-.58,.42-1.05,.94-1.43,1.53-.13,.2-.25,.4-.37,.61-.6,1.12-.82,2.31-.73,3.57,0,.12,0,.21-.05,.29-.05,.07-.12,.13-.22,.19-.33,.17-.66,.38-.9,.65-.39,.43-.73,.87-1.01,1.32-.83,1.37-1.12,2.88-.59,4.62,.07,.22,0,.55-.13,.76-.53,.9-.82,1.88-.91,2.9-.11,1.3,.03,2.6,.31,3.88,.46,2.09,1.62,3.55,3.64,4.32,.14,.05,.23,.3,.29,.48,.15,.48,.2,1.02,.43,1.45,.23,.43,.49,.84,.77,1.25h0s.13,.28,.44,.66c.14,.16,.31,.34,.52,.52-2.19,1.15-4.46,2.14-6.66,3.27-2.09,1.07-4.71,2.14-6.5,3.68-3.19,2.74-3.49,7.74-2.06,11.53,.32,.86,1.72,.49,1.39-.38-.63-1.66-.58-3.61-.67-5.37-.15-2.99,2.21-4.84,4.6-6.07,3.77-1.94,7.71-3.73,11.4-5.82,.03,0,.05-.01,.05-.03,.69,.28,1.56,.55,2.58,.7,.29,.04,.59,.06,.89,.07,.06,0,.11,.01,.16,.03,1.05,.05,2.23-.02,3.53-.33,.98-.39,1.83-.94,2.53-1.69,.01-.01,.03-.03,.04-.04,.11-.12,.21-.25,.31-.38,.07-.09,.13-.19,.2-.28,.06-.08,.11-.16,.17-.25,.13-.22,.26-.44,.38-.68,.12-.25,.29-.48,.38-.75,.03-.08,.06-.15,.1-.2,.14-.19,.36-.23,.64-.22,.47,.01,.97,.04,1.41-.08,1.19-.33,2.16-.92,2.88-1.81,.11-.13,.21-.28,.31-.42,.03-.05,.06-.09,.09-.14,.07-.11,.14-.22,.2-.34,0-.02,.02-.04,.03-.06,.03,0,.06,.01,.08,.01,1.31,.85,2.91,1.09,4.53,.87,.16-.02,.32-.05,.48-.08,.45-.04,.88-.16,1.27-.36,.54-.2,1.06-.47,1.5-.81,.27,.03,.54,.04,.81,.03,.06,0,.12-.01,.19-.02,.66,.05,1.36-.1,1.97-.4,.19-.01,.38-.04,.56-.07,.9,.9,2,1.53,3.5,1.6,.34,.02,.48,.18,.57,.48,.33,1.24,1.05,2.23,2.04,3.03,.62,.5,1.32,.79,2.11,.78,.38,0,.49,.15,.57,.48,.12,.51,.2,1.04,.63,1.42,.06,.06,.12,.11,.17,.16,.14,.1,.28,.2,.43,.29-.25,.59-.5,1.17-.72,1.77-1.1,2.96-2.66,5.56-4.92,7.69-1.19,1.12-2.59,1.82-3.99,2.57-.26,.14-.52,.3-.74,.5-.28,.26-.3,.59-.1,.94,.15,.25,.33,.37,.55,.36,.1-.03,2.35-.69,4.94-2.88,.02-.02,.04-.04,.05-.05,.5-.5,1.02-.98,1.6-1.53,1.93-2.1,3.17-4.71,3.93-6.64,.2-.55,.4-1.1,.6-1.65,.09-.28,.16-.5,.22-.67,.13-.15,.25-.3,.38-.45,.25-.29,.5-.59,.77-.86h0s.5-.73,1.5-1.28c1.85,.88,3.58,2,5.41,2.94,2.11,1.07,4.2,2.05,6.22,3.28,1.85,1.13,5.12,2.5,5.82,4.71,.72,2.26,0,5.73-.48,7.96-.19,.91,1.09,1.26,1.39,.38,.04-.12,.08-.24,.12-.36,.04-.13,.05-.25,.02-.36,.45-2.32,.69-4.77,.47-7.12Z"/><path class="cls-1" d="M100.05,63.44c.14-.74-.16-1.21-.7-1.6-.87-.62-1.8-1.12-2.85-1.35-.61-.13-1.23-.23-1.85-.28-.35-.03-.6,.19-.64,.58-.04,.41,.24,.52,.55,.6,.66,.18,1.33,.32,1.97,.54,.6,.2,1.19,.45,1.76,.73,.34,.16,.35,.4,.06,.61-.42,.3-.83,.64-1.31,.8-1.25,.41-2.54,.74-3.8,1.1-.28,.08-.41-.03-.39-.3,.04-.65,.02-1.31,.15-1.95,.29-1.47,.18-2.87-.5-4.22-.27-.54-.52-1.1-.76-1.66-.37-.87-.06-2.21,.61-2.87,.22-.22,.42-.49,.56-.77,.33-.68,.16-1.41-.39-1.89-.58-.51-1.35-.58-1.97-.2-.42,.26-.59,.67-.42,1.02,.16,.33,.48,.42,.97,.3,.2-.05,.41-.06,.68-.1-.19,.7-.63,.99-1.15,1.18-.83,.3-1.7,.27-2.56,.17-1.03-.12-2.02-.32-2.48-1.45-.14-.34-.61-.39-.91-.16-.33,.25-.38,.6-.18,.93,.24,.4,.55,.76,.81,1.16,.08,.12,.13,.3,.09,.42-.47,1.46-.3,2.85,.41,4.19,.3,.56,.65,1.1,.94,1.67,.36,.71,.39,1.43,.03,2.16-.23,.48-.43,.98-.65,1.48-1.83-1.34-3.71-2.71-5.6-4.09,.65-.51,.74-.74,.53-1.27-.33-.84-.63-1.04-1.42-.98-.44,.03-.89,.08-1.33,.07-.23,0-.5-.09-.68-.22-.74-.54-1.46-1.11-2.19-1.68-.71-.56-1.41-1.14-2.13-1.69-.5-.38-1.07-.19-1.16,.37-.06,.36,.17,.6,.43,.8,.97,.77,1.95,1.53,2.92,2.3,.09,.07,.17,.16,.26,.23-.02,.04-.04,.07-.05,.11-.28-.1-.59-.14-.83-.3-1-.63-1.98-1.3-2.96-1.95-.41-.27-.81-.55-1.23-.8-.34-.2-.69-.13-.9,.15-.22,.29-.19,.67,.1,.94,.13,.12,.29,.22,.44,.32,.4,.26,.8,.52,1.2,.79-.39,.04-.74,0-1.1-.02-.59-.05-.93,.15-1.13,.71-.19,.52-.36,1.05-.52,1.58-.11,.36-.32,.6-.66,.76-.16,.08-.31,.16-.47,.23-.06-.21-.2-.41-.47-.5-1.31-.47-2.49-1.06-3.82-.37-.53,.27-.96,.76-1.35,1.32-.08-.04-.18-.06-.29-.06-1.35,0-2.57,.15-3.84,.63-1.74,.67-2.87,1.81-4.88,1.65-.93-.07-.92,1.37,0,1.44,1.12,.09,2.57-.1,3.56-.68,1.56-.93,2.85-1.49,4.59-1.58-.19,.33-.38,.64-.57,.9-.54,.76,.71,1.47,1.24,.73,.64-.89,1.16-1.85,1.86-2.69,.74-.88,1.72-.47,2.62-.1-.16,.08-.32,.16-.48,.25-.24,.13-.39,.3-.45,.48-.97,.88-1.31,2.12-1.49,3.47-.38,2.84-.05,5.71-.49,8.56-.14,.91,1.25,1.3,1.39,.38,.32-2.03,.43-4.05,.42-6.1,0-1.73-.24-4.47,1.48-5.51,.15-.09,.24-.21,.29-.33,.68-.33,1.37-.67,2.04-1.01,.51-.26,.9-.63,1.02-1.24,.08-.41,.24-.8,.37-1.19,.07-.22,.17-.35,.45-.28,.35,.09,.72,.1,1.07,.17,1.76,.35,3.52,.76,5.34,.52,.15-.02,.31,.09,.57,.18-.26,.13-.39,.2-.53,.26-.98,.43-1.96,.87-2.94,1.29-.4,.17-.65,.46-.75,.84-.05,.22,.03,.51,.15,.71,.15,.26,.44,.26,.71,.13,.44-.21,.87-.43,1.31-.64,.15-.07,.31-.13,.52-.22-.61,1.98-1.19,3.89-1.8,5.8-.06,.18-.24,.37-.41,.47-.34,.22-.73,.35-1.06,.57-.81,.55-1.58,.6-2.4,.02-.43-.3-.92-.25-1.38,.03-.91,.56-1.84,1.1-2.74,1.67-.24,.15-.49,.36-.61,.61-.09,.18-.05,.49,.05,.67,.07,.12,.35,.17,.53,.16,.2-.02,.4-.13,.57-.23,.62-.35,1.22-.72,1.83-1.08,1.12-.65,1.13-.66,2.27,0,.44,.26,.83,.25,1.29,0,.77-.43,1.57-.84,2.38-1.19,.54-.24,.85-.59,.97-1.15,0,0,.14-.48,.33-1.08,.15-.5,.33-1.08,.47-1.55,.11-.35,.19-.63,.23-.76,.07-.21,.13-.43,.2-.64,.25-.81,.51-1.65,.79-2.53,.7,.44,1.34,.83,1.98,1.24,1.53,1.01,3.06,2.02,4.59,3.03,.1,.07,.21,.13,.32,.19,0,.04-.01,.07-.02,.11-.09,.02-.18,.04-.27,.05-.74-.05-1.48-.1-2.22-.16-.01,0-.02,0-.03,0-.44-.06-2.7-.13-3.11-.42,.2-.34,.45-.66,.73-.96,.64-.67-.38-1.69-1.02-1.02-.86,.91-1.38,1.9-1.66,3.12-.2,.85,.05,1.61,.4,2.35,.14,.48,.36,1.02,.68,1.65,.24,.46,.47,.9,.68,1.33,.9,1.14,2.02,2.04,3.45,2.56,.35,.13,.7,.27,1.05,.41,.29,.11,.45,.29,.49,.61,.09,.67,.24,1.34,.31,2.02,.09,.78,.48,1.31,1.18,1.63,.13,.06,.25,.13,.38,.18,1.75,.75,3.59,.85,5.45,.63,.48-.06,.94-.16,1.37-.31,.71-.25,1.36-.63,1.93-1.16,.11-.1,.22-.2,.32-.32,.4-.43,.59-.93,.56-1.52-.03-.57-.03-1.14-.08-1.71-.03-.36,.09-.54,.42-.69,1.47-.69,2.54-1.86,3.22-3.27,.99-2.06,1.38-4.27,1.22-6.57-.03-.44-.15-.9-.07-1.33Zm-10.42-8.13c.19-.02,.39-.03,.61-.04-.04,.39-.19,.79-.1,1.14,.17,.68,.43,1.34,.71,1.98,.33,.77,.86,1.47,.92,2.35,.03,.47,.04,.94-.02,1.4-.16,1.1-.38,2.19-.14,3.34-.44,.09-.81,.16-1.17,.25-.29,.07-.41-.04-.36-.32,.1-.6,.15-1.22,.35-1.79,.6-1.73,.29-3.33-.51-4.9-.19-.37-.44-.71-.6-1.09-.19-.44-.37-.9-.46-1.36-.11-.55,.21-.9,.78-.95Zm-2.98,2.17c-.19-.56-.18-1.2-.16-1.81,.01-.59,.32-.69,1.13-.41-.38,1.28,.04,2.38,.7,3.44,.51,.83,.93,1.71,1.03,2.7,.04,.37,.05,.77-.07,1.11-.39,1.11-.61,2.25-.54,3.55-.24-.08-.45-.09-.57-.2-.63-.58-.78-1.42-.35-2.16,.86-1.47,.69-2.88-.16-4.28-.38-.63-.78-1.26-1.01-1.94Zm4.26,21.47c-1.47,.17-2.92,.08-4.33-.4-.12-.04-.24-.08-.35-.13-.42-.18-.76-.41-.78-.96-.02-.49-.17-.97-.25-1.42,1.48,.12,2.92,.38,4.34,.32,1.43-.06,2.84-.44,4.31-.68,.02,.44,.08,.94,.06,1.44,0,.2-.15,.42-.29,.57-.73,.78-1.67,1.13-2.71,1.25Z"/></g></g></g></svg>