<?xml version="1.0" encoding="UTF-8"?><svg id="_圖層_2" xmlns="http://www.w3.org/2000/svg" viewBox="0 0 175 205.22"><defs><style>.cls-1{fill:none;}.cls-2{fill:#fff;}.cls-3{fill:#122c52;}.cls-4{fill:#102b50;}.cls-5{fill:#0f2c51;}.cls-6{fill:#0e2c50;}</style></defs><g id="_圖層_1-2"><g><rect class="cls-1" y="1.06" width="175" height="204.09"/><g><g><path class="cls-6" d="M26.37,174.91c.76-1.26,2.2-1.26,2.3-1.26,.9,0,2.05,.58,2.05,1.48,0,.25-.25,1.4-.25,1.66l.04,5.26c0,.54,.07,3.2,.07,3.78,0,1.55-2.63,1.69-2.74,1.69-1.33,0-1.3-.5-1.26-1.37h-4.82v12.71c0,.65,.14,3.82,.14,4.03,0,1.33-2.2,2.27-3.06,2.27-.79,0-1.37-.5-1.37-1.37,0-.32,.22-3.96,.25-4.72,.11-4.03,.25-9.86,.25-15.19v-6.37c0-.18-.14-.36-.25-.43-.25-.29-.65-.65-.65-.83,0-.83,2.2-2.48,3.35-2.48,.22,0,1.48,.14,1.55,1.15h4.39Zm.25,4.9v-3.24h-4.32c-.32,0-.54,.29-.54,.47v2.77h4.86Zm.04,4.68v-3.1h-4.9v3.1h4.9Zm15.12-9.57c.65-1.22,1.8-1.51,2.38-1.51,1.08,0,2.52,1.12,2.52,2.02,0,.14-.04,.32-.11,.47-.36,.9-.4,1.01-.4,1.44v10.15l.11,12.31c.04,3.13-1.48,5.36-4.75,5.36-2.88,0-5.18-2.48-5.18-2.7,0-.18,.29-.18,.43-.18,.25,0,2.09,.11,2.48,.11,2.27,0,2.88-1.33,2.88-4.25v-11.91h-5.25c-.5,.76-1.84,1.22-2.48,1.22s-1.4-.29-1.4-1.01c0-.4,.11-2.27,.11-2.7,.04-1.15,.04-1.66,.04-6.3v-.58c0-.22-.11-.36-.22-.47-.4-.32-.5-.43-.5-.65,0-.83,1.58-2.09,2.84-2.09,.9,0,1.73,.36,1.91,1.26h4.61Zm.36,4.9v-3.24h-4.61c-.25,0-.54,.22-.54,.4v2.84h5.15Zm0,4.68v-3.06h-5.15v3.06h5.15Z"/><path class="cls-6" d="M79.9,178.59c.5-1.08,1.44-1.8,2.27-1.8,1.15,0,3.06,1.55,3.06,2.7,0,1.08-1.37,1.12-1.73,1.12h-24.19l-4,.07c-.43,0-2.38,.72-2.84,.72-.68,0-1.08-.5-1.08-1.08,0-.9,1.04-1.94,2.02-1.94,.29,0,1.62,.22,1.94,.22h10.37c-.04-.4-.11-2.27-.14-2.7-.07-.61-.11-.68-.29-.79-.58-.32-.65-.4-.65-.72,0-1.22,2.52-2.38,3.85-2.38,.61,0,1.87,.29,1.87,1.66,0,.11-.07,.65-.11,.79-.18,1.26-.22,1.98-.4,4.14h10.04Zm-4.57,7.27c.54-.83,1.37-1.37,2.02-1.37,.9,0,2.74,.72,2.74,1.91,0,.29-.11,.5-.18,.58-.29,.47-.29,.54-.29,1.01,0,1.22,.22,7.2,.22,8.57,0,1.12,0,4.68-4.28,4.68-2.34,0-4.79-2.45-4.79-2.84,0-.14,.14-.14,.4-.14,.22,0,1.84,.18,2.16,.18,1.76,0,1.98-.94,2.09-2.05,.04-.5,0-7.74,0-8.82h-5.79v5.58c0,1.4,.14,8.6,.14,8.78,0,3.31-2.27,3.31-2.52,3.31-.58,0-1.87-.54-1.87-1.98,0-.25,.11-1.44,.11-1.69,.22-3.24,.36-10.4,.43-14h-4.54c-.43,0-.54,.47-.54,.83v10.29c0,1.26-1.37,2.59-2.74,2.59-.61,0-1.66-.36-1.66-1.3,0-.4,.22-3.24,.25-4.03,.07-1.01,.32-4.43,.32-7.63,0-.22,0-.5-.14-.72-.11-.18-.4-.58-.4-.76,0-.86,2.34-2.05,3.24-2.05,.4,0,1.15,.25,1.3,1.08h4.9c0-.5,0-2.16-.29-2.45-.43-.4-.47-.43-.47-.65,0-.83,2.09-1.87,3.35-1.87,1.48,0,1.48,.97,1.48,1.4,0,.11-.04,.22-.04,.43-.07,.72-.18,1.55-.25,3.13h5.65Z"/><path class="cls-6" d="M97.91,177.04c-.11,2.3-.11,4.97-.14,8.13h12.46c-.14-2.59-.14-2.92-.29-6.33-.22,.4-.79,.47-1.26,.47h-5.11c-1.66,0-2.81,.04-2.95,.04-.18,.04-1.15,.25-1.37,.25-.65,0-.94-.22-.94-.68,0-.65,.54-1.37,1.33-1.37,.14,0,.86,.18,1.01,.18h1.58c0-.58,0-2.02-.29-2.3-.5-.43-.58-.5-.58-.72,0-.94,2.05-1.98,3.2-1.98,.94,0,1.66,.32,1.66,1.15,0,.18,0,.4-.11,1.04-.11,.5-.18,2.2-.22,2.81h1.01c.5-.68,1.01-.94,1.44-.94,.47,0,1.19,.43,1.55,1.22-.07-2.63-.11-2.95-.4-3.17-.68-.5-.68-.54-.68-.79,0-1.04,2.2-2.45,3.67-2.45,.9,0,1.76,.32,1.76,1.33,0,.58-.32,3.46-.36,4.1-.22,3.74-.22,7.02-.14,8.13h2.99c.43-1.08,1.26-1.8,2.09-1.8,1.01,0,2.74,1.26,2.74,2.38,0,1.04-1.62,1.04-1.87,1.04h-5.87c.04,1.69,.14,2.63,.5,5.4,.4-1.44,.54-1.91,.54-3.17,0-.72,1.08-1.3,2.05-1.3,.68,0,2.34,.36,2.34,1.58,0,1.33-2.48,5.26-3.31,6.55,.79,2.16,2.02,4.14,3.24,4.14,.72,0,1.51-.65,2.16-1.15,.18-.14,.25-.14,.32-.14,.32,0,.32,.07,.32,.58,0,.47,0,5.94-2.77,5.94-3.46,0-5.44-4.43-6.05-6.3-1.48,1.62-5.62,4.28-9.43,4.28-.18,0-.76,0-.76-.32,0-.14,.11-.18,1.15-.65,4.32-1.94,6.55-4.9,7.56-6.66-.54-2.12-1.04-4.54-1.37-8.78h-12.56v.32c0,1.91,.22,11.34,.22,13.46,0,1.26,0,1.69-.76,2.45-.61,.61-1.37,.94-2.02,.94-1.33,0-1.51-.9-1.51-1.44,0-.36,.11-1.94,.11-2.3l.21-5.51c-3.63,2.05-5.07,2.48-5.94,2.48-.94,0-1.94-.9-1.94-2.02,0-1.4,1.3-1.48,2.77-1.58v-8.93c0-2.99,0-4.97-.04-7.45-.36,.11-1.4,.47-1.62,.47-.5,0-.97-.32-.97-.86,0-.58,.5-1.55,1.48-1.55,.18,0,1.04,.18,1.12,.18h7.27c.61-.68,1.19-1.33,1.94-1.33,.86,0,2.27,1.12,2.27,2.09,0,.79-.65,.83-1.3,.83h-1.15Zm-3.74,4.28v-4.25h-1.76v4.25h1.76Zm0,5.94v-4.28h-1.76v4.28h1.76Zm0,5.72v-4.14h-1.76v4.5l1.76-.36Zm11.45-4.28c.32-.72,.97-.9,1.29-.9,.79,0,2.3,.83,2.3,1.55,0,.07-.14,.43-.18,.47-.07,.18-.07,.54-.07,.76,0,.97,.11,5.8,.11,6.91,0,1.51-2.3,1.94-2.66,1.94-1.01,0-1.01-.4-1.01-1.15h-2.38v1.01c0,.94-1.76,1.48-2.23,1.48-1.22,0-1.22-.79-1.22-1.76s.22-5.51,.22-6.55v-1.62c0-.14-.61-.65-.61-.83,0-.72,1.73-2.05,2.66-2.05,.5,0,1.01,.25,1.15,.76h2.63Zm-2.38-5.36c0,.94,0,1.55-.79,1.55-1.04,0-3.2-2.66-3.2-3.49,0-.61,.9-1.33,1.98-1.33,2.02,.04,2.02,2.38,2.02,3.28Zm2.23,13.46v-2.81h-2.45v2.81h2.45Zm0-4.14v-2.63h-2.12c-.14,0-.29,.11-.29,.29v2.34h2.41Zm.22-12.02c.29-.61,.86-.86,1.4-.86,.9,0,2.05,.68,2.05,1.4,0,1.19-2.45,3.67-3.53,3.67-.18,0-.72-.14-.72-.65,0-.32,.4-2.74,.79-3.56Zm12.49-5.08c1.22,0,2.52,.97,2.52,2.2,0,1.73-4.5,3.92-5.11,3.92-.36,0-.76-.11-.76-.5v-.14c.43-1.12,1.22-2.92,1.66-4.03,.29-.83,.79-1.44,1.69-1.44Z"/><path class="cls-6" d="M135.88,186.15c.29-.68,.94-1.44,1.69-1.44,1.26,0,2.3,1.37,2.3,2.3,0,.76-1.04,.76-2.48,.76h-4.21l.04,10.83h1.12c0-1.51,.04-3.31,.04-4.54,0-.83,0-1.33-.07-1.62-.04-.11-.36-.65-.36-.79,0-.76,1.66-1.62,2.59-1.62,.54,0,1.55,.29,1.55,1.01,0,.22-.11,1.33-.11,1.58,0,.94,.04,5.47,.04,6.48,0,.76,0,1.04-.68,1.44-.36,.22-1.04,.5-1.8,.5-1.22,0-1.22-.5-1.22-.97h-5.98v.58c0,.72-1.55,1.26-2.84,1.26-.47,0-.97-.4-.97-.86,0-1.22,.25-7.09,.25-8.42,0-.25,0-.32-.14-.43-.43-.32-.47-.36-.47-.61,0-.79,2.23-1.58,3.06-1.58,.21,0,1.26,.11,1.26,1.12,0,.22-.14,1.4-.14,1.66l-.04,5.83h1.22c.04-1.55,.04-9.11,.07-10.83h-3.71c-.36,0-2.05,.43-2.45,.43-.32,0-.79-.22-.79-.72,0-.54,.43-1.48,1.62-1.48,.18,0,1.15,.14,1.37,.14h3.96c.04-2.41,.07-3.02-.07-5.08h-.76c-1.66,1.76-4.28,3.35-5.94,3.35-.14,0-.5,0-.5-.25,0-.14,.61-.72,.79-.86,3.24-2.99,5.69-7.78,5.69-8.57,0-.07-.07-.5-.07-.58,0-.83,.97-1.3,1.91-1.3,.72,0,2.59,.47,2.59,1.48,0,1.3-1.66,3.56-2.88,5.08,.58-.04,.86-.04,4.18-.04,.29-.68,1.12-1.12,1.58-1.12,1.01,0,2.09,1.12,2.09,2.05,0,.68-.68,.76-1.44,.76h-3.46c-.07,1.51-.11,2.09-.11,5.08h2.7Zm12.28,3.64c1.58,6.16,6.12,10.47,9.39,12.06,.11,.07,.36,.18,.36,.32,0,.47-4.39,1.98-5.18,1.98-.5,0-.65-.11-1.4-.72-4.32-4.21-4.57-10.51-4.64-12.85-.65,11.95-10.62,13.1-12.45,13.1-.11,0-.47,0-.47-.14s.18-.22,1.12-.61c7.24-2.88,8.17-10.37,8.5-13.14l-2.99,.11c-.29,0-1.69,.47-2.02,.47-.97,0-1.08-.68-1.08-.97,0-.76,.76-1.15,1.12-1.26h5.25c.11-1.66,.11-2.38,.11-6.95-.36,.04-2.09,0-2.45,.14-.83,.32-1.29,.5-1.73,.5s-1.01-.36-1.01-.9c0-.47,.25-1.66,1.55-1.66,.14,0,.9,.14,1.08,.14l2.45-.04v-1.15c0-.65-.04-2.12-.07-2.99-.04-.5-.07-.58-.25-.79-.5-.54-.54-.61-.54-.86,0-.94,2.48-2.3,3.53-2.3,1.55,0,1.55,1.08,1.55,1.51,0,.18-.11,1.04-.11,1.26-.04,.14-.07,4.64-.07,5.26l1.55-.04c.4-.65,1.37-1.37,2.16-1.37,.94,0,2.66,1.08,2.66,2.02,0,.18-.5,.94-.54,1.12-.22,1.48-.54,5.33-.58,6.98l.54-.04c.36-.83,1.01-1.44,1.73-1.44,1.12,0,2.27,1.26,2.27,2.3,0,.94-.58,.94-1.58,.94h-7.74Zm1.19-8.82l-1.66,.07c0,1.73-.14,6.48-.18,7.09l1.69-.07,.14-7.09Z"/></g><g><polygon class="cls-4" points="74.48 135.27 72.58 156.02 79.35 137.67 74.48 135.27"/><path class="cls-2" d="M80.06,120.23c3.25-1.64,5.59-.64,5.59-.64l1.4,.31,2.29-.19-.51-3.75-14.89-2.52-9.02-5.62-8.53-9.65-4.19-2.86-5.05-12.47,37.73-22.69,33.28,4.11,10.2,9.97-2.77,10.09-2.09,5.82-4.4,3.45-6.56,10.76-10.98,7.82,1.57,5.12,4.46-1.7,7.65-.33,12.93,42.59-56.52-.72s6.44-34.69,8.41-36.91Z"/><path class="cls-4" d="M81.96,119.51s-12.33-4.91-15.13,1.74c-2.81,6.66,1,10.37,1,10.37l7.68,6.06c-.22-.07,1.7-9.65,6.45-18.18Z"/><g><path class="cls-5" d="M76.75,82.09c.36-.27,.64-.67,.68-1.13,.04-.45-.17-.88-.37-1.29-.13-.24-.27-.5-.5-.63-.03-.01-.05-.03-.08-.04-.11-.05-.23-.07-.34-.09-1.26-.2-2.47,.17-3.72,.25-.72,.04-1.43,.09-2.15,.13-.87,.05-1.78-.05-2.62,.21-.44,.14-.79,.36-1.1,.71-.21,.23-.72,.67-.67,1.02,.06,.44,1.04,.5,1.38,.57,.45,.09,.9,.17,1.35,.26,1.15,.22,2.3,.44,3.46,.6,1.54,.21,3.36,.42,4.69-.58Z"/><path class="cls-5" d="M105.04,76.04c.31-.15,1.25-.46,1.19-.9-.05-.35-.65-.64-.91-.82-.39-.25-.79-.38-1.24-.4-.88-.04-1.73,.29-2.59,.46-.7,.14-1.41,.28-2.11,.42-1.23,.25-2.49,.2-3.66,.71-.11,.05-.22,.1-.31,.17-.02,.02-.05,.04-.07,.06-.19,.19-.27,.47-.33,.74-.1,.44-.18,.91-.03,1.34,.15,.43,.53,.75,.94,.91,1.53,.63,3.24-.04,4.68-.63,1.08-.45,2.14-.96,3.19-1.47,.41-.2,.83-.4,1.24-.6Z"/><g><path class="cls-4" d="M71.33,93.61c-.3,.09-.64-.02-.83-.3-.22-.34-.13-.79,.21-1.01l4.96-3.28-6.38-.9c-.4-.06-.68-.43-.62-.83,.06-.4,.42-.68,.83-.62l8.29,1.17c.3,.04,.54,.27,.61,.56,.07,.3-.06,.6-.31,.77l-6.57,4.35c-.06,.04-.12,.07-.19,.09Z"/><path class="cls-4" d="M71.11,93.79c-.29,0-.57-.14-.73-.39-.26-.4-.15-.94,.25-1.21l4.65-3.08-6.01-.85c-.23-.03-.43-.15-.57-.34s-.2-.42-.17-.65c.03-.23,.15-.44,.34-.58,.19-.14,.42-.2,.65-.17l8.29,1.17c.36,.05,.65,.32,.73,.67,.08,.35-.07,.72-.37,.92l-6.57,4.35c-.07,.05-.14,.08-.22,.11h0c-.08,.03-.17,.04-.26,.04Zm-1.72-6.98c-.13,0-.25,.04-.35,.12-.13,.09-.21,.23-.23,.39-.02,.16,.02,.31,.11,.44,.09,.13,.23,.21,.39,.23l6.75,.95-5.28,3.49c-.27,.18-.35,.55-.17,.82,.14,.22,.42,.32,.67,.24,.05-.02,.1-.04,.15-.07l6.57-4.35c.2-.13,.3-.38,.25-.62-.05-.24-.25-.42-.49-.45l-8.29-1.17s-.06,0-.09,0Z"/></g><g><path class="cls-4" d="M107.2,86.43c.31-.06,.56-.32,.59-.65,.04-.4-.25-.76-.66-.8l-5.92-.58,5.22-3.78c.33-.24,.4-.69,.16-1.02-.24-.33-.69-.4-1.02-.16l-6.78,4.91c-.25,.18-.36,.49-.28,.78,.08,.29,.33,.51,.63,.54l7.84,.77c.07,0,.14,0,.21,0Z"/><path class="cls-4" d="M107.06,86.58s-.06,0-.09,0l-7.84-.77c-.36-.04-.66-.29-.76-.64-.09-.35,.04-.72,.33-.93l6.78-4.91c.19-.14,.42-.19,.65-.16s.43,.16,.57,.35c.14,.19,.19,.42,.15,.65-.04,.23-.16,.43-.35,.57l-4.92,3.56,5.55,.55c.23,.02,.44,.13,.59,.31s.22,.41,.19,.64c-.04,.38-.33,.7-.71,.77-.05,0-.11,.01-.16,.01Zm-1.07-7.14c-.12,0-.24,.04-.34,.11l-6.78,4.91c-.2,.14-.29,.4-.22,.63,.06,.23,.27,.41,.51,.43l7.84,.77c.06,0,.11,0,.17,0h0c.26-.05,.45-.26,.48-.52,.02-.16-.03-.31-.13-.43-.1-.12-.24-.2-.4-.21l-6.29-.62,5.52-3.99c.13-.09,.21-.23,.24-.38,.02-.16-.01-.31-.1-.44-.09-.13-.23-.21-.39-.24-.03,0-.06,0-.09,0Z"/></g><path class="cls-5" d="M43.99,84.63l-3.39-1.49c-.47-.36-.86-.72-1.17-1.05-.71-.76-1.03-1.35-1.03-1.36h0c-.64-.85-.51-1.3-1.06-2.19,0,0-.33,.14-1.16,.21-2.07,.17-7.72-4.02-8.38-8.81-.4-2.89,1.36-2.62,.36-5.06s.1-2.23,1.04-4.29c.22-.48,.31-1.21,.13-1.69-1.41-3.71-1.08-7.08,.42-10.2,.5-1.05,1.14-2.06,1.88-3.06,.47-.63,1.13-1.13,1.78-1.56,.21-.14,.35-.29,.44-.45,.07-.18,.09-.38,.05-.64-.4-2.73-3.59-3.51-2.53-6.05,.2-.48,.42-.94,.66-1.39,.71-1.35,1.6-2.56,2.73-3.58,.13-.12,.24-.25,.33-.39,.23-.42,.3-.89,.35-1.39,.15-1.58,.55-3.01,1.24-4.26,.68-1.27,1.66-2.37,2.95-3.24,1.17-.79,2.55-1.27,3.72-2.06,.68-.46,1.31-1.18,1.68-1.94,1.95-4.03,5.48-5.72,9.32-6.97,.38-.13,.79-.29,1.18-.27,1.45,.1,2.4-.56,3.29-1.73,1.65-2.17,3.85-3.21,6.58-2.82,.25,.04,.6-.19,.81-.4,1.61-1.58,3.47-2.87,5.63-3.18,1.92-.27,3.39-1.21,4.96-2.2,2.19-1.39,4.48-.8,6.7,.08,.59,.24,1.03,.22,1.59-.11,1.99-1.18,4.11-1.41,6.28-.54,.78,.31,1.56,.68,2.27,1.15,1.03,.68,2.16,.43,3.23,.46,1.64,.04,3.08,.56,4.36,1.56,1.09,.85,2.07,1.86,3.12,2.77,.22,.19,.55,.33,.84,.35,2.68,.23,5.06,1.29,7.14,3.03,.62,.51,1.1,1.26,1.51,1.98,.5,.88,1.16,1.49,2.04,1.88,1.71,.77,2.87,2.1,3.72,3.8,.2,.4,.67,.75,1.09,.93,1.53,.66-3.17-3.22-1.73-2.42,1.71,.95,3.01,2.47,4.16,4.11,.23,.33,.54,.63,.87,.83,2.87,1.68,2.13,.76,3.04,4.06,.27,1,2.64,2.46,3.2,3.23,2.52,3.45,3.05,4.4,2.63,8.66-.05,.54,.05,.83,.45,1.14,4.61,3.53,5.01,9.51,5.01,9.51,0,0,2.05,6.05,.79,8.3-.42,.74-.92,1.45-1.52,2.12-.05,.06-.09,.14-.12,.22-.09,.23-.11,.53-.08,.77,.22,2.01-.35,3.83-1.17,5.58-.01,.02-.03,.05-.04,.07-.17,.35-.41,.73-.71,.91-1.01,.6-.67,3.09-1.23,4.08-.74,1.3-1.98,2.07-3.41,2.45-.22,.01-.43,.04-.63,.07-2.21,.44-1.81,2.12-1.81,2.12,0,0,1.46,3.16-2.92,3.05-4.38-.1,0,0,0,0-.53,.63-.33,1.05-1.47,2.01-1.14,.96-3.92,.28-3.92,.28l-.44-.17c-.32-.17-.06-.05-.37-.25-.11-.1-.23-.2-.38-.32-.98-.77-.78-.43-1.12-1.52-.22-.7-.47-1.02-1.27-.95-1.65,.16-3.17-.34-4.56-1.34-2.22-1.59-3.88-3.63-4.8-6.28-.23-.66-.56-.98-1.27-.96-3.15,.08-5.56-1.1-7.61-2.91-.39,.1-.78,.19-1.17,.25-1.22,.77-2.66,1.21-4.05,1.22-.13,.02-.26,.05-.39,.07-.56,.08-1.13,.1-1.7,.08-.88,.81-1.91,1.48-3,2.02-.79,.5-1.67,.83-2.6,1-.33,.09-.66,.18-.98,.26-3.35,.75-6.75,.52-9.64-1.13-.06,0-.12-.01-.18-.02-.02,.04-.04,.08-.06,.13-.11,.27-.23,.53-.35,.79-.05,.11-.1,.22-.15,.32-.18,.34-.37,.67-.57,.98-1.35,2.06-3.29,3.51-5.71,4.44-.91,.35-1.95,.37-2.94,.42-.59,.03-1.03,.16-1.3,.59-.07,.13-.13,.28-.17,.46-.14,.58-.45,1.12-.65,1.69-.2,.55-.42,1.06-.66,1.55-.1,.2-.2,.38-.3,.57-.12,.22-.24,.44-.37,.65-.19,.3-.38,.6-.59,.88-.03,.03-.05,.07-.08,.1-1.32,1.76-3.01,3.1-4.99,4.12-2.66,.89-1.68-.61-3.9-.55-.1-.02-.22-.04-.34-.03-.63,.03-1.25,.02-1.87,0-2.17-.15-4.03-.59-5.53-1.09-.01,.04-.05,.06-.11,.08"/><path class="cls-5" d="M97,116.07c-10.61,3.3-22,1.67-31.34-5.09-10.2-7.38-13.32-26.08-13.45-26.88-.12-.76,.39-1.46,1.15-1.59,.76-.12,1.47,.39,1.59,1.15,.03,.18,3.07,18.37,12.33,25.07,8.6,6.23,19.11,7.71,28.91,4.67,4.92-1.53,9.66-4.2,13.9-7.98,9.47-8.45,9.15-24.12,8.57-30.46-.05-.5-.16-1.82,1.13-2.02,1.3-.2,1.58,1.08,1.69,1.56,.05,.23,.04,.46-.02,.67,.71,8.49,.32,23.52-9.53,32.31-4.55,4.07-9.66,6.93-14.95,8.58Z"/><g><g><path class="cls-5" d="M94.73,106.84c-1.22,.42-2.07,.61-2.18,.63-.33,.05-7.34,1.16-11.6-.87-4.34-2.07-5.32-4.43-5.69-6.26h0c-.44-2.14,1.17-3.17,2.62-3.82,1.41-.63,2.74-.13,4.28,.45,1.05,.4,2.24,.84,3.72,1.06,3.53,.5,6.62-.17,9.17-2,.67-.48,1.22-1,1.75-1.51,1.02-.97,1.98-1.88,3.48-2.13,1.69-.28,3.9,.25,4.85,1.83,1.32,2.19-.54,5.1-1.15,6.06-2.36,3.7-6.65,5.66-9.26,6.57Zm-18.18-6.76c.33,1.63,1.18,3.54,4.98,5.36,3.89,1.86,10.72,.78,10.79,.77,.04,0,7.4-1.65,10.56-6.61,.51-.79,2.04-3.2,1.13-4.71-.62-1.03-2.28-1.43-3.52-1.22-1.1,.19-1.85,.89-2.79,1.79-.54,.51-1.14,1.08-1.89,1.62-2.84,2.04-6.25,2.79-10.13,2.24-1.62-.23-2.94-.73-4-1.13-1.37-.52-2.36-.89-3.27-.48-1.81,.81-2.05,1.49-1.87,2.38h0Z"/><path class="cls-4" d="M87.84,107.97c-2.26,0-4.91-.26-6.95-1.24-4.39-2.1-5.39-4.5-5.77-6.36-.46-2.24,1.2-3.3,2.7-3.98,1.47-.66,2.82-.15,4.39,.44,1.05,.39,2.23,.84,3.69,1.05,3.5,.5,6.54-.17,9.07-1.98,.66-.48,1.21-.99,1.73-1.49,1.04-.99,2.02-1.91,3.56-2.17,1.74-.29,4.01,.26,5,1.89,1.36,2.26-.53,5.23-1.15,6.21-2.42,3.79-6.88,5.78-9.33,6.62h0c-1.25,.43-2.1,.62-2.19,.64-.16,.03-2.21,.36-4.74,.36Zm-8.58-11.6c-.44,0-.88,.08-1.33,.28-1.4,.63-2.96,1.62-2.54,3.67,.37,1.79,1.33,4.12,5.61,6.16,4.25,2.03,11.22,.91,11.51,.86,.09-.02,.92-.2,2.15-.63h0c2.41-.83,6.81-2.79,9.18-6.51,.6-.94,2.43-3.8,1.15-5.91-.92-1.52-3.06-2.04-4.71-1.76-1.46,.24-2.4,1.14-3.4,2.09-.54,.52-1.09,1.04-1.77,1.52-2.58,1.86-5.7,2.54-9.27,2.03-1.49-.21-2.69-.66-3.75-1.06-1.02-.38-1.94-.73-2.85-.73Zm8.57,10.3c-2.11,0-4.55-.23-6.37-1.1-3.86-1.84-4.72-3.79-5.06-5.45-.19-.94,.07-1.69,1.95-2.54,.96-.44,1.97-.06,3.36,.47,1.07,.4,2.38,.9,3.99,1.13,3.84,.55,7.21-.2,10.03-2.21,.74-.53,1.34-1.1,1.87-1.61,.96-.91,1.72-1.63,2.87-1.82,1.29-.22,3.01,.21,3.66,1.29,.95,1.58-.62,4.04-1.13,4.85-3.16,4.95-10.35,6.61-10.65,6.68-.04,0-2.05,.33-4.51,.33Zm-8.57-9c-.28,0-.54,.05-.79,.16-1.73,.78-1.96,1.38-1.79,2.22h0c.32,1.6,1.16,3.47,4.91,5.26,3.86,1.84,10.63,.76,10.7,.75,.29-.07,7.37-1.7,10.47-6.55,.49-.77,1.99-3.13,1.13-4.56-.59-.98-2.18-1.35-3.37-1.15-1.06,.18-1.79,.87-2.72,1.75-.54,.51-1.15,1.09-1.9,1.63-2.87,2.06-6.32,2.82-10.23,2.26-1.64-.23-2.96-.73-4.03-1.13-.95-.36-1.71-.64-2.38-.64Z"/></g><g><polygon class="cls-5" points="79.16 104.37 78.03 103.73 81.54 97.68 82.67 98.32 79.16 104.37"/><path class="cls-4" d="M79.22,104.56l-1.38-.78,3.65-6.3,1.38,.78-3.65,6.3Zm-.99-.88l.89,.5,3.37-5.81-.89-.5-3.37,5.81Z"/></g><g><polygon class="cls-5" points="84.61 106.86 83.33 106.59 85.14 98.53 86.42 98.8 84.61 106.86"/><path class="cls-4" d="M84.72,107.03l-1.55-.33,1.87-8.34,1.55,.33-1.87,8.34Zm-1.22-.55l1,.21,1.75-7.79-1-.21-1.75,7.79Z"/></g><g><polygon class="cls-5" points="91.37 107.05 90.07 107.18 89.2 98.68 90.5 98.54 91.37 107.05"/><path class="cls-4" d="M89.94,107.34l-.9-8.78,1.58-.17,.9,8.78-1.58,.17Zm-.59-8.53l.84,8.22,1.02-.11-.84-8.22-1.02,.11Z"/></g><g><polygon class="cls-5" points="96.93 105.36 93.01 97.97 94.17 97.36 98.09 104.76 96.93 105.36"/><path class="cls-4" d="M96.87,105.55l-4.05-7.64,1.41-.74,4.05,7.64-1.41,.74Zm-3.67-7.53l3.79,7.15,.91-.48-3.79-7.14-.91,.48Z"/></g><g><polygon class="cls-5" points="102.32 101.34 96.02 95.68 96.91 94.72 103.21 100.37 102.32 101.34"/><path class="cls-4" d="M102.33,101.53l-6.51-5.84,1.07-1.17,6.51,5.84-1.07,1.17Zm-6.11-5.86l6.09,5.46,.69-.75-6.09-5.46-.69,.75Z"/></g></g></g><path class="cls-5" d="M58.19,100.34c-.21,.07-.45,.08-.68,.03-9.33-1.88-9.38-14.15-9.38-14.67,0-.77,.63-1.38,1.39-1.38,.77,0,1.38,.63,1.38,1.39,0,.15,.07,10.51,7.15,11.94,.75,.15,1.24,.88,1.09,1.63-.1,.52-.48,.91-.95,1.05Z"/><path class="cls-5" d="M120.9,93.63c-.68,.21-1.43-.13-1.7-.81-.28-.71,.06-1.52,.78-1.8,6.75-2.69,4.92-12.92,4.9-13.02-.14-.75,.36-1.48,1.11-1.62,.75-.14,1.48,.36,1.62,1.11,.1,.51,2.25,12.59-6.6,16.11-.03,.01-.07,.03-.1,.04Z"/><path class="cls-5" d="M36.2,75.98s-1.49,2.34,1.94,6.23c0,0,.92,7.35,5.81,9.36,0,0,1.48,6.78,8.39,6.02,0,0-2.22-7.08-2.19-7.04s-.66-10.17-.66-10.17l-13.29-4.41Z"/><path class="cls-5" d="M136.59,62.05s2,1.93-.43,6.51c0,0,.82,7.36-3.48,10.46,0,0,.14,6.94-6.76,7.81,0,0,.51-7.4,.49-7.35s-1.72-10.04-1.72-10.04l11.9-7.39Z"/><path class="cls-4" d="M89.34,119.71c-.46-.24-4.15,7.84,6.97,14.43l-10.17-1.25,1.65-4.94-6.43,1.7s3.75-8.71,6.18-9.79c2.42-1.08,1.81-.15,1.81-.15Z"/><path class="cls-4" d="M97.02,134.06s1.59-14.35,6.61-17.76l3.97-.69,2.49,6.41-7.82,1.68,4.36,3.45c-5.26,.9-9.61,6.91-9.61,6.91Z"/><path class="cls-4" d="M109.98,131.49l-.71,4.59c-9.46,9.06-27.18,4.31-27.18,4.31-.21-3.55,.2-10.23,.2-10.23l3.97-.88-1.74,4.68,12.35,1.51c4.98-6.22,11.76-7.86,11.76-7.86l-4.23-3.4,5.7-1.33-.12,8.6Z"/><path class="cls-4" d="M112.55,115.54s10.39-2.81,13.03,9.94,2.59,32.39,2.59,32.39l-14.07,.34s3.08-34.49-1.56-42.67Z"/><path class="cls-3" d="M90.28,122.4c-.32,0-.61-.22-.69-.55l-1.08-4.69c-.09-.38,.15-.76,.53-.85,.38-.09,.76,.15,.85,.53l1.08,4.69c.09,.38-.15,.76-.53,.85-.05,.01-.11,.02-.16,.02Z"/><path class="cls-3" d="M103.21,119.01c-.32,0-.61-.22-.69-.55l-1.08-4.69c-.09-.38,.15-.76,.53-.85,.38-.09,.76,.15,.85,.53l1.08,4.69c.09,.38-.15,.76-.53,.85-.05,.01-.11,.02-.16,.02Z"/><g><polygon class="cls-2" points="31.08 98.6 31.19 95.01 32.66 93.4 33.94 90.31 36.43 88.82 37.72 86.48 43.03 87.41 46.64 88.91 48.78 93.76 50.13 98.71 68.36 116.4 60.78 123.25 41.8 103.77 36.34 103.22 31.08 98.6"/><path class="cls-4" d="M69.17,118.2l-21.34-20.31,.05-.48s.24-2.44-.36-5.14c-.52-2.37-3.15-3.59-3.17-3.6-.24-.1-2.65-.98-4.08,2.18-1.14,2.53-.67,3.5-.43,3.79,.23,0,.61-.06,.89-.32,.39-.38,.54-1.15,.43-2.22l-.05-.51,1.89-1.66,1.31,1.48-1.13,1c.07,1.49-.3,2.62-1.09,3.36-1.13,1.06-2.61,.84-2.77,.81l-.14-.02-.13-.06c-.12-.06-2.81-1.45-.55-6.46,1.81-4.02,5.16-3.83,6.68-3.18,.16,.07,3.56,1.64,4.3,4.98,.51,2.29,.48,4.36,.43,5.27l20.65,19.65-1.36,1.43Z"/><path class="cls-4" d="M61.19,125.58l-19-20.88c-2.92,.76-5.42-.64-5.67-.79-1.18-.67-6.91-4.07-6.88-7.1,.01-1.17,.36-2.07,1.03-2.68,.32-.29,.67-.47,.99-.57,.06-3.16,2.22-4.84,3.85-5.47,.16-.78,.62-1.75,1.67-2.42,2.08-1.34,4.41,1.63,4.67,1.97l-1.57,1.19,.79-.6-.79,.6c-.69-.9-1.75-1.69-2.03-1.51-.86,.55-.84,1.44-.83,1.45l.05,.82-.8,.19c-.34,.08-3.36,.94-2.99,4.51l.13,1.2-1.2-.11s-.36-.01-.61,.23c-.3,.28-.37,.82-.37,1.22-.01,1.38,3.5,4.02,5.88,5.37h.02s2.26,1.33,4.63,.45l.62-.23,19.87,21.84-1.46,1.33Z"/><path class="cls-4" d="M38,103.16c-1.6,0-3.31-.77-3.74-.97l.85-1.78c1.03,.49,2.87,1.04,3.55,.66,.07-.04,.2-.11,.24-.47l.09-.72,.72-.13c.12-.02,3.07-.61,2.72-2.6l-.21-1.2,1.22,.04c.14,0,.63-.05,.86-.3,.14-.16,.2-.42,.16-.79-.17-1.72-1.57-2.6-1.63-2.64l1.02-1.69c.09,.06,2.3,1.41,2.57,4.13,.12,1.2-.31,1.94-.69,2.35-.4,.42-.88,.65-1.31,.78-.18,2.12-2.19,3.27-3.72,3.72-.25,.68-.71,1.06-1.09,1.27-.48,.26-1.04,.37-1.62,.37Z"/></g><path class="cls-4" d="M75.57,118.65c1.69-1.72-2.38-1.28-4.21-1.8,.17-.96-5.3-5.17-6-4.16,0,0,.48-4.08-4.92-.7s-2.1,10.81-2.1,10.81c0,0,4.32,5.43,7.16,6.71s4.56,2.3,4.56,2.3l5.51-13.17Z"/></g></g></g></g></svg>