<?xml version="1.0" encoding="UTF-8"?><svg id="_圖層_2" xmlns="http://www.w3.org/2000/svg" xmlns:xlink="http://www.w3.org/1999/xlink" viewBox="0 0 175 157.73"><defs><style>.cls-1{fill:none;}.cls-2{clip-path:url(#clippath);}.cls-3{fill:#fff;}.cls-4{fill:#102b50;}.cls-5{fill:#0f2c51;}.cls-6{fill:#0e2c50;}.cls-7{fill:#0d2b4d;}</style><clipPath id="clippath"><path id="SVGID" class="cls-1" d="M103.05,80.91c-.08-.1-.22,5.1-22.22,5.51-22.15-.73-21.48-5.96-21.8-5.21,0,0-4.68-9.25,12.27-11.63,16.95-2.38,29.91,3.17,29.91,3.17,0,0,4.9,3.35,1.84,8.16Z"/></clipPath></defs><g id="_圖層_1-2"><g><rect class="cls-1" y="16.37" width="175" height="125"/><g><g><rect class="cls-3" x="73.14" y="10.76" width="59.35" height="71.98"/><g><path class="cls-4" d="M109.65,52.06s1.23-1.66,9.38-.02c8.15,1.64,11.02,3.43,14.61,3.39,0,0-.84,18.93-6.65,19.38l-12.95-5.28s-4.32-14.5-7.31-16.48c-.73-1.86,2.92-.98,2.92-.98Z"/><path class="cls-4" d="M99.57,62.96s-.78-1.49-1.35-2.63c-.56-1.14-.88-2.43-.66-3.68,.03-.15,.08-.32,.22-.38,.11-.04,.23-.01,.33,.03,.97,.35,1.72,1.08,2.29,1.93,.3,.44,.54,.91,.77,1.39,.12,.25,.22,.5,.33,.75,.09,.22,.16,.54,.31,.73,.3-.43,.45-1.06,.64-1.55,.3-.8,.58-1.63,.78-2.46,.2-.81,.62-1.59,.58-2.45-.02-.4-.19-1.34,.53-1.26,.24,.03,.41,.24,.6,.39,.41,.31,.96,.32,1.45,.5,1.07,.39,1.64,1.52,2.27,2.47,.99,1.48,2.36,2.68,3.45,4.09,1.77,2.29,2.78,5.08,3.53,7.87s1.27,5.66,2.19,8.41c-9.02,1.26-18.19,1.47-27.26,.61-.21-.02-.42-.04-.59-.17-.13-.1-.21-.26-.29-.4-1.14-2.26-2.28-4.51-3.42-6.77-1.02-2.03-2.08-4.26-1.57-6.48,.14-.63,.42-1.24,.86-1.72,.43-.47,1-.79,1.55-1.1,.9-.51,1.85-1.02,2.88-1.05,.78-.02,1.54,.25,2.28,.52,2.68,.97,4.64,1.46,7.32,2.43Z"/><g><path class="cls-3" d="M120.76,82.62c-.17-8.71-10.06-28.89-13.38-29.94-3.31-1.05-2.86,1.07-2.86,1.07,4.77,5.88,4.33,8.86,4.33,8.86-2.23,5.86-16.16,8-16.16,8,1.1-10.57-8.16-12.72-8.16-12.72,0,0-6.6-1.22-10.15,2.87l5.6,22.13,40.77-.26Z"/><path class="cls-4" d="M79.99,83.61c-.33,0-.62-.22-.7-.54l-5.6-22.13c-.06-.23,0-.47,.15-.65,2.36-2.72,5.89-3.29,8.43-3.29,1.39,0,2.35,.17,2.39,.18,.01,0,.02,0,.03,0,.1,.02,2.51,.6,4.8,2.55,2,1.71,4.25,4.8,3.99,10,3.04-.58,12.82-2.78,14.65-7.29,.01-.43-.1-3.21-4.18-8.24-.07-.09-.12-.19-.15-.3-.02-.09-.17-.9,.35-1.55,.25-.31,.74-.68,1.65-.68,.51,0,1.09,.11,1.78,.33,2.8,.88,7.41,10.55,8.3,12.48,3.41,7.35,5.5,14.13,5.58,18.13,0,.19-.07,.38-.2,.52-.13,.14-.32,.22-.51,.22l-40.77,.26h0Zm-4.81-22.65l5.37,21.2,39.45-.26c-.3-3.86-2.33-10.18-5.41-16.82-3.31-7.13-6.3-11.36-7.43-11.71-.54-.17-.99-.26-1.34-.26-.27,0-.46,.05-.53,.14-.04,.06-.06,.14-.06,.21,4.68,5.84,4.39,8.91,4.34,9.25,0,.05-.02,.1-.04,.15-2.35,6.18-16.13,8.37-16.72,8.46-.22,.03-.45-.04-.61-.19-.16-.15-.24-.38-.22-.6,1-9.66-7.04-11.81-7.59-11.94-.12-.02-.96-.16-2.11-.16-2.15,0-5.09,.45-7.09,2.52Z"/></g><path class="cls-4" d="M101.81,59.84c-.39-.67-.57-1.43-.96-2.09-.56-.97-1.29-1.4-2.15-2.03-.26-.19-.97-.38-.86-.72,.16-.51,.73-.84,1.07-1.23,.91-1.03,.61-2.18,.61-2.18,2.27,.11,4.32,.72,4.1,2.57-.15,1.24-2.23,4.98-1.81,5.68Z"/><path class="cls-4" d="M89.09,53.9c-.52-.12-1.05-.22-1.59-.15-1.36,.19-2.28,1.43-3.01,2.55-.14,.21-.28,.44-.26,.68,.03,.4,.45,.63,.83,.8,3.24,1.44,10.12,2.78,13.36,4.21-2.66-3.35-1.44-6.4-1.44-6.4-1.32-1.37-6.02-1.27-7.89-1.69Z"/><path class="cls-5" d="M105.81,41.84l-.98,3.71s1.74-1.16,3.46-2.94c0,0,3.02,.05,2.58-2.6,0,0,2.12,.12,1.98-2.66,0,0,.49-.14,.32-1.11s.81-1.05,.81-1.05c0,0,.82-.09,.46-1.35-.36-1.26,.42-1.04,.42-1.04,0,0,1.19-.25,.95-1.01-.24-.76-.46-1.57-.46-1.57l-4.99,1.25-.03,3.52s-.27,7.46-4.52,6.85Z"/><g><path class="cls-3" d="M131.64,71.32c-.62,0-1.24-.73-6.4-8.52-2.63-3.97-6.21-9.37-7.14-10.03-.32,.07-.66,.1-1.02,.1-.83,0-1.66-.18-2.51-.38-.06-.01-6.37-1.52-6.73-3.25-.14-.67,.01-1.09,.16-1.49,.05-.13,.1-.27,.14-.43,0-.03,.01-.05,.01-.06,0-.02-.03-.05-.05-.07-.2-.3-.38-.66-.26-1.45,.08-.54,.34-.91,.55-1.21,.15-.22,.28-.39,.32-.59,.03-.15,0-.24-.1-.45-.13-.28-.32-.72-.12-1.31,.28-.86,.87-1.15,1.23-1.31,.03-.01,.05-.03,.08-.04,0,0,0-.02,0-.03-.04-.19-.09-.42-.07-.68,.05-.49,.38-.95,.88-1.23,.34-.19,.73-.29,1.15-.29,.66,0,1.3,.25,1.79,.44-.4-1-.28-2.19,.16-3.08,.37-.75,1.28-1.28,2.22-1.28,.54,0,1.02,.17,1.41,.49,.66,.55,.52,1.53,.41,2.24-.03,.21-.06,.41-.06,.55-.02,.94,.34,1.88,.98,2.59,.1,.11,.24,.22,.38,.33,.25,.2,.54,.42,.74,.77,.25,.44,.32,.93,.39,1.36,.01,.09,.03,.18,.04,.27,.05,.32,.11,.65,.17,.97l.09,.49c.02,.12,.03,.27,.05,.45,.02,.21,.05,.63,.1,.78,.28,.29,1.63,1.35,3.05,2.47,7.01,5.48,8.94,7.28,8.81,8.25l-.24,14.07c0,.05,0,.1-.03,.15-.08,.26-.31,.43-.58,.43Z"/><path class="cls-4" d="M115.93,35.21c.38,0,.76,.11,1.06,.37,.58,.49,.16,1.71,.15,2.36-.02,1.08,.4,2.16,1.12,2.97,.33,.37,.8,.57,1.06,1.01,.25,.43,.28,.96,.36,1.44,.08,.49,.17,.98,.26,1.47,.06,.32,.05,1.23,.25,1.46,.83,.96,12.13,9.12,11.75,10.33l-.24,14.11s-.03,.05-.06,.05c-1.01,0-12.15-18.57-13.5-18.57-.01,0-.02,0-.03,0-.34,.08-.69,.12-1.04,.12-.8,0-1.6-.18-2.39-.36-2.28-.54-6.12-1.86-6.32-2.83-.15-.72,.12-1.03,.29-1.67,.18-.65-.46-.47-.28-1.64,.12-.77,.72-1.1,.87-1.77,.15-.69-.48-.96-.23-1.72,.38-1.18,1.47-.86,1.35-1.5-.04-.22-.11-.45-.09-.67,.04-.35,.3-.64,.61-.81,.28-.16,.58-.22,.88-.22,.55,0,1.11,.21,1.63,.42,1.03,.41,2.05,.81,3.08,1.22-.58-.23-1.16-.53-1.67-.92-1.09-.85-1.18-2.5-.61-3.66,.28-.57,1.01-.97,1.73-.97m0-1.08h0c-1.14,0-2.25,.65-2.71,1.58-.35,.72-.52,1.61-.42,2.49-.32-.09-.67-.15-1.03-.15-.51,0-.99,.12-1.41,.36-.66,.37-1.08,.97-1.15,1.64-.02,.17-.01,.32,0,.46-.4,.22-.94,.64-1.22,1.49-.26,.8,0,1.38,.14,1.7,.02,.05,.05,.1,.06,.14-.03,.1-.12,.23-.23,.38-.23,.33-.54,.77-.65,1.43-.13,.83,.03,1.31,.25,1.69-.02,.07-.05,.14-.08,.22-.16,.43-.35,.96-.18,1.78,.17,.86,1.08,1.57,3.03,2.37,1.44,.59,3.07,1.06,4.1,1.31,.88,.21,1.74,.39,2.63,.39,.3,0,.58-.02,.85-.06,.3,.3,.98,1.1,2.46,3.22,1.31,1.88,2.88,4.24,4.4,6.53,1.44,2.17,2.8,4.23,3.88,5.77,1.84,2.62,2.29,3,2.97,3,.5,0,.94-.32,1.1-.81,.03-.1,.05-.2,.05-.31l.24-14.02c.11-.75-.46-1.43-1.02-2.03-.51-.54-1.23-1.21-2.21-2.06-1.75-1.5-3.99-3.25-5.78-4.65-1.17-.91-2.48-1.94-2.9-2.32-.02-.15-.04-.4-.05-.54-.01-.19-.03-.35-.05-.5-.03-.16-.06-.33-.09-.49-.06-.32-.11-.64-.17-.96-.01-.08-.03-.17-.04-.25-.06-.46-.15-1.03-.45-1.56-.26-.44-.6-.71-.88-.93-.12-.09-.24-.18-.31-.26-.55-.61-.85-1.42-.84-2.22,0-.1,.03-.29,.06-.47,.12-.79,.3-1.99-.6-2.74-.49-.41-1.09-.62-1.76-.62h0Z"/></g><path class="cls-4" d="M132.97,75.82c-.11,0-.23-.03-.34-.08l-9.73-5.13c-.35-.19-.49-.62-.3-.98,.19-.35,.62-.49,.98-.3l9.73,5.13c.35,.19,.49,.62,.3,.98-.13,.25-.38,.39-.64,.39Z"/><g><path class="cls-3" d="M134.82,84.65H70.73V8.63h64.09V84.65Zm-60.48-3.51h56.87V12.14h-56.87V81.14Z"/><path class="cls-4" d="M135.27,85.11H70.28V8.18h64.99V85.11Zm-64.09-.9h63.19V9.08h-63.19V84.2Zm60.48-2.61h-57.77V11.69h57.77V81.59Zm-56.87-.9h55.97V12.59h-55.97V80.69Z"/></g><path class="cls-4" d="M86.19,83.64c-2.15-4.45,1.12-10.11,.94-14.57-.09-2.34-.06-6.72-2.34-8.66-.75-.64-1.7-1.14-2.69-1.54-1.01-.41-2.09-.73-3.16-.86-1.56-.2-3.11-.02-4.34,.51-7.33,3.16-6.94,5.77-10.69,11.49-.31,.47-2.25,3.32-2.25,3.32,0,0-1.35,1.84-.95,2,10.87,4.42,14.04,7.93,25.48,8.31Z"/><g><path class="cls-3" d="M71.53,71.31c6.86,.18,7.68,7.12,7.68,7.12,0,0-1.21,17.53-1.56,17.25-1.99-1.53-9.51-12.02-22.4-2.34l8.5-17.88s.93-4.33,7.79-4.15Z"/><path class="cls-4" d="M77.65,96.23c-.12,0-.24-.04-.34-.12-.27-.21-.6-.53-1.02-.94-1.9-1.87-5.43-5.34-10.66-5.34-3.2,0-6.59,1.33-10.08,3.94-.2,.15-.47,.14-.67-.01-.19-.16-.25-.43-.15-.65l8.48-17.83c.16-.6,1.42-4.52,7.89-4.52,.14,0,.28,0,.43,0,7.24,.19,8.2,7.53,8.2,7.6,0,.03,0,.07,0,.1,0,.04-.3,4.37-.64,8.63-.2,2.51-.37,4.51-.52,5.94-.09,.86-.16,1.52-.23,1.98-.1,.7-.17,1.21-.71,1.21h0Zm-12.01-7.48c5.67,0,9.55,3.82,11.42,5.65,.09,.09,.18,.18,.26,.26,.34-2.63,.97-10.86,1.34-16.21-.09-.63-1.07-6.44-7.15-6.6-6.28-.17-7.21,3.57-7.24,3.73,0,.04-.02,.08-.04,.12l-7.62,16.04c3.09-1.98,6.13-2.99,9.04-2.99Z"/></g><path class="cls-4" d="M81.79,43.63c-.26,0-.48-.18-.53-.44-.05-.29,.14-.58,.44-.63,.5-.09,1-.25,1.49-.46l-1.66-.55c-.28-.09-.44-.4-.34-.68,.09-.28,.4-.44,.68-.34l2.86,.95c.2,.07,.34,.24,.37,.45,.03,.21-.07,.41-.25,.52-.95,.6-1.94,1-2.95,1.18-.03,0-.07,0-.1,0Z"/><path class="cls-4" d="M94,37.87c-.11,0-.23-.04-.33-.11-.24-.18-.29-.52-.11-.76,.54-.72,1.31-1.29,2.17-1.59,.28-.1,.59,.05,.69,.33,.1,.28-.05,.59-.33,.69-.65,.23-1.24,.66-1.66,1.22-.11,.14-.27,.22-.43,.22Z"/><path class="cls-4" d="M84.45,39.56c-.09,0-.19-.02-.27-.07-.77-.45-1.59-.82-2.44-1.09-.28-.09-.44-.4-.35-.68,.09-.28,.4-.44,.68-.35,.92,.3,1.82,.7,2.66,1.19,.26,.15,.35,.48,.19,.74-.1,.17-.28,.27-.47,.27Z"/><path class="cls-4" d="M90.62,50.31c-.84,0-1.62-.14-2.33-.43-.59-.24-1.14-.6-1.59-1.03-.35-.34-.61-.65-.79-.97l-.02-.03c-.14-.23-.4-.66-.14-1.04,.19-.27,.52-.31,.85-.35,.04,0,.08,0,.1-.01,2.08-.46,4.32-.91,6.85-1.37,.04,0,.17-.03,.35-.06,.43-.07,1.68-.27,1.98-.35,.07-.04,.14-.06,.22-.06,.29-.02,.54,.19,.57,.48,.15,1.26-.37,2.6-1.4,3.56-.85,.8-2.02,1.34-3.39,1.56-.43,.07-.85,.11-1.27,.11Zm-3.66-2.8c.13,.18,.29,.36,.5,.56,.35,.34,.78,.62,1.25,.81,.86,.35,1.91,.44,3.01,.26,.8-.13,1.95-.46,2.82-1.28,.59-.56,.97-1.29,1.06-2.02-.06,.01-.12,.02-.18,.03-.45,.08-1,.17-1.34,.23-.16,.03-.28,.05-.32,.05-2.5,.46-4.72,.91-6.79,1.36Zm8.72-2.64c-.05,.08-.08,.17-.08,.28,0-.1,.03-.2,.08-.28Z"/><circle class="cls-4" cx="96.63" cy="39.85" r="1.12"/><path class="cls-4" d="M90.22,53.93c-.32,0-.64,0-.97-.02-3.13-.16-5.99-1.08-8.29-2.68-1.83-1.27-3.34-3.01-4.36-5.01-.31-.6-.51-1.22-.71-1.82-.06-.18-.12-.36-.19-.55-.25-.72-.63-2.94-.88-4.56v-.07c-.06-.3,.14-.57,.44-.62,.3-.05,.57,.15,.62,.45v.07c.4,2.43,.68,3.9,.85,4.37,.07,.19,.13,.37,.19,.56,.2,.59,.38,1.14,.65,1.67,.94,1.85,2.33,3.44,4.02,4.62,2.13,1.48,4.8,2.34,7.72,2.48,3.58,.18,6.96-.7,9.76-2.53,3.05-2,5.39-5.2,6.42-8.78,.04-.14,.14-.26,.26-.33,.13-.07,.28-.08,.42-.04,.56,.17,1.06,0,1.64-.58,.81-.79,1.31-2.86,1.2-4.11-.03-.3,.2-.56,.49-.59,.3-.02,.56,.19,.59,.49,.13,1.55-.44,3.92-1.52,4.97-.71,.7-1.43,1.01-2.19,.95-1.16,3.63-3.59,6.86-6.72,8.91-2.74,1.79-5.99,2.73-9.44,2.73Z"/><path class="cls-5" d="M69.65,41.07s-1.43,.42-2.52-.83c-1.09-1.25-.22-2.82-.32-2.72-.45,.42-2.82-.13-4.08-3.74-1.26-3.6-.1-4.77,.37-5.67,.11-.21-1.31-.59-1.02-2.78,.29-2.19,1.88-3.03,1.88-3.03,0,0-2.37-2.93,.12-5.82,.1-.21,.59-.43,.7-.63,.35-.59,.6-.93,1.15-1.39,.07-.05,.12-.11,.16-.17,.11-.18,.15-.39,.18-.61,.09-.69,.29-1.31,.63-1.86,.34-.56,.43-1.03,1.06-1.43,.57-.36,1.03-.77,1.59-1.13,.33-.21,.23-1.09,.41-1.43,.96-1.77,2.11-2.13,3.95-2.73,.18-.06,.38-.14,.56-.13,.69,.03,1.17,.12,1.6-.4,.8-.96,1.86-1.44,3.16-1.31,.12,.01,.29-.09,.39-.18,.78-.71,1.68-1.29,2.71-1.45,.92-.14,1.62-.57,2.38-1.02,1.06-.63,2.14-.4,3.18-.05,.28,.1,.49,.08,.76-.07,.96-.53,1.97-.66,2.99-.31,.37,.13,.74,.27,1.07,.47,.48,.28,1.02,.16,1.53,.16,.78,0,1.46,.2,2.06,.62,.51,.36,.97,.78,1.46,1.16,.1,.08,.26,.13,.4,.14,1.27,.06,2.39,.5,3.37,1.22,.29,.22,.51,.53,.7,.84,.23,.37,.54,.63,.95,.79,.81,.31,1.32,.49,1.72,1.21,.09,.17,.31,.32,.51,.39,.72,.27,1.49,.43,2.17,.76,.8,.39,1.41,1.03,1.94,1.73,.11,.14,.25,.27,.41,.35,1.35,.69,2.3,1.72,2.7,3.14,.12,.43,.36,.74,.62,1.06,1.17,1.46,1.02,3.17,.78,5.03-.03,.24,.02,.36,.2,.49,2.16,1.47,3.09,3.54,2.95,6.08-.06,1.16-.31,2.26-.93,3.25-.21,.33-.45,.64-.74,.94-.03,.03-.05,.06-.06,.1-.04,.1-.06,.23-.05,.33,.09,.87-.2,1.66-.61,2.43,0,.01-.01,.02-.02,.03-.09,.16-.2,.32-.35,.4-.49,.27-.7,.72-.98,1.15-.37,.57-.96,.92-1.64,1.11-.1,0,.16,.5-.48,1.08-.64,.58-1.32,.43-1.32,.43,0,0-.52,1.27-1.52,1.63-1,.36-1.86,.34-1.86,.34,0,0-.85-.37-.99-.46-.05-.04-.11-.08-.18-.13-.46-.32-.57-.81-.72-1.28-.1-.3-.22-.44-.6-.39-.79,.09-1.51-.11-2.16-.52-1.04-.66-1.81-1.52-2.23-2.66-.1-.28-.26-.42-.59-.4-1.5,.08-2.64-.41-3.59-1.17-.19,.05-.43,.78-1.6,.97-1.18,.19-1.62-.17-1.89-.18-.42,.36-.92,.67-1.45,.91-.38,.23-.8,.38-1.25,.46-.16,.05-.32,.09-.47,.12-1.6,.37-3.22,.31-4.57-.37-.03,0-.06,0-.09,0,0,.02-.02,.04-.03,.06-.05,.12-.11,.23-.17,.34-.03,.05-.05,.1-.08,.14-.09,.15-.18,.29-.28,.43-.66,.91-1.6,1.56-2.76,2-.43,.16-.93,.18-1.4,.22-.28,.02-.49,.08-.62,.27-.03,.06-.06,.99-.61,1.53s-1.66,.42-1.66,.42c0,0,.09,1.07-1.26,2.11-1.35,1.03-4.55,1.66-5.72-.41Z"/><g><path class="cls-3" d="M118.19,111.87c-23.03-.37-72.2-.34-72.2-.34,10.97-14.97,16.31-18.06,16.31-18.06,0,0,22.76-.25,39.03-.28,0,0,7.99,7.37,16.86,18.67Z"/><path class="cls-4" d="M118.19,112.41h-.01c-19.58-.31-57.98-.34-69.29-.34-1.86,0-2.9,0-2.9,0h0c-.2,0-.39-.11-.48-.3s-.07-.4,.05-.56c10.91-14.89,16.26-18.08,16.48-18.2,.08-.05,.17-.07,.26-.07,.23,0,22.95-.25,39.03-.28h0c.14,0,.27,.05,.37,.14,.08,.07,8.1,7.51,16.88,18.69,.09,.1,.15,.23,.15,.38,0,.3-.24,.54-.54,.54Zm-69.3-1.42c11.09,0,48.26,.02,68.16,.32-7.79-9.8-14.82-16.51-15.94-17.57-15.36,.03-36.64,.25-38.66,.27-.8,.53-5.92,4.18-15.4,16.97,.47,0,1.08,0,1.83,0Z"/></g><g><path class="cls-3" d="M61.29,94.26s1.01-.63,1.15-.94c-1.27-3.11-4.42-4.77-7.07-3.72-1.31,.52-2.44,1.59-3.53,2.64-4.6,4.41-9.21,8.83-13.81,13.24,2.82,.74,5.84,3.42,7.48,6.41,6.25-7.57,15.79-17.62,15.79-17.62Z"/><path class="cls-4" d="M45.5,112.41s-.03,0-.05,0c-.18-.02-.34-.12-.42-.28-1.61-2.94-4.55-5.47-7.14-6.14-.19-.05-.34-.2-.39-.39-.05-.19,0-.39,.15-.53l13.81-13.24c1.07-1.02,2.28-2.18,3.71-2.75,.59-.23,1.21-.35,1.85-.35,2.47,0,4.85,1.76,5.92,4.37,.06,.14,.05,.3-.01,.43-.17,.36-.79,.81-1.3,1.14-.73,.77-9.78,10.34-15.72,17.54-.1,.13-.26,.2-.42,.2Zm-6.45-7.18c2.43,.94,4.91,3.1,6.53,5.7,6.19-7.42,15.23-16.95,15.32-17.05,.03-.03,.07-.06,.1-.09,.31-.19,.62-.42,.81-.58-.95-2.04-2.84-3.4-4.78-3.4-.5,0-.99,.09-1.46,.28-1.23,.49-2.31,1.52-3.35,2.52l-13.16,12.61Z"/></g><g><path class="cls-3" d="M101.97,93.79s-.39-.37-.54-.68c1.27-3.11,4.24-4.57,6.89-3.52,1.31,.52,2.44,1.59,3.53,2.64,4.6,4.41,9.21,8.83,13.81,13.24-2.82,.74-5.84,3.42-7.48,6.41-5.69-6.24-16.22-18.08-16.22-18.08Z"/><path class="cls-4" d="M118.19,112.41c-.15,0-.3-.06-.4-.18-5.53-6.06-15.74-17.54-16.21-18.07-.11-.11-.47-.46-.64-.83-.06-.14-.07-.29-.01-.43,1.04-2.55,3.26-4.19,5.64-4.19,.66,0,1.32,.13,1.95,.37,1.43,.56,2.64,1.72,3.71,2.75l13.81,13.24c.14,.14,.2,.34,.15,.53-.05,.19-.2,.34-.39,.39-2.59,.68-5.53,3.2-7.14,6.14-.08,.15-.24,.26-.41,.28-.02,0-.04,0-.06,0Zm-16.15-19.35c.09,.12,.21,.25,.3,.33,.01,.01,.02,.02,.03,.04,.1,.12,9.99,11.24,15.72,17.53,1.62-2.62,4.11-4.79,6.54-5.73l-13.16-12.61c-1.05-1-2.13-2.04-3.35-2.52-.5-.2-1.02-.3-1.55-.3-1.87,0-3.62,1.27-4.53,3.27Z"/></g><g><g><path class="cls-3" d="M105.88,81.48l.13-.23c.07-.21,.11-.42,.11-.64,0-3.82-11.24-6.92-25.1-6.92s-25.1,3.1-25.1,6.92c0,.47,.17,.94,.5,1.39l.13,.17,14.72,19.36,.32,.44c1.1,1.53,4.62,3.7,10.5,3.7s9.56-2.51,10.41-3.76l.23-.38,13.16-20.05Z"/><path class="cls-4" d="M82.09,106.21c-6.41,0-9.9-2.47-10.94-3.92l-.32-.45-14.71-19.35-.13-.17c-.41-.55-.61-1.12-.61-1.71,0-2.71,4.21-4.44,7.75-5.41,4.79-1.32,11.14-2.05,17.89-2.05s13.11,.73,17.89,2.05c3.54,.97,7.75,2.7,7.75,5.41,0,.27-.05,.54-.14,.81-.01,.03-.02,.06-.04,.09l-.13,.23s-.01,.02-.02,.03l-13.16,20.05-.22,.36s0,.02-.01,.02c-.89,1.3-4.71,4-10.86,4Zm-1.07-31.98c-6.66,0-12.91,.71-17.61,2.01-4.36,1.2-6.96,2.83-6.96,4.37,0,.35,.13,.71,.4,1.06l.13,.17,14.72,19.36,.33,.46c.86,1.2,4.08,3.47,10.06,3.47,5.64,0,9.19-2.41,9.96-3.52l.22-.37,13.16-20.05,.09-.17c.04-.14,.07-.29,.07-.42,0-1.54-2.6-3.17-6.96-4.37-4.7-1.29-10.95-2.01-17.61-2.01Z"/></g><g class="cls-2"><g><g><path class="cls-3" d="M92.09,77.03s-1-.55-1.45-.21c0,0-1.08-.63-1.54-.21,0,0-.92-.47-1.3-.18,0,0-1-.55-1.45-.21,0,0-1.11-.47-1.56-.13,0,0-.73-.32-1.12-.17,0,0-.94-.26-1.2-.12,0,0-1.23-.14-1.63,.01,0,0-1.22,.13-.04,.68l1.98,.82s.71,.4,1.14,.44c0,0,.76,.51,1.36,.42,0,0,.41,.42,1.18,.42,0,0,.79,.49,1.54,.43,0,0,.56,.59,1.47,.48,0,0,.69,.57,1.31,.53,0,0,1.14,.66,1.77,.33,0,0-1.39-.32-.91-.91,0,0-.41-1.25,.71-1.51,0,0,.61-.82,1.44-.58,0,0-.57-.59-1.71-.34Z"/><path class="cls-4" d="M92.13,80.74c-.57,0-1.2-.31-1.41-.42-.55,0-1.11-.37-1.33-.52-.05,0-.1,0-.14,0-.68,0-1.16-.33-1.35-.49-.01,0-.02,0-.03,0-.65,0-1.28-.32-1.49-.43-.61-.02-1.01-.27-1.19-.41-.56,.03-1.18-.33-1.36-.44-.44-.07-1.04-.39-1.16-.46l-1.97-.82c-.35-.16-.74-.39-.68-.73,.06-.33,.48-.43,.76-.47,.15-.05,.38-.08,.69-.08,.39,0,.8,.04,.96,.05,.07-.02,.16-.03,.27-.03,.32,0,.78,.11,.96,.15,.08-.02,.17-.03,.26-.03,.31,0,.66,.11,.84,.18,.14-.06,.3-.09,.49-.09,.4,0,.85,.14,1.07,.22,.12-.05,.26-.08,.42-.08,.4,0,.84,.18,1.06,.29,.1-.04,.22-.06,.35-.06,.34,0,.73,.14,.94,.23,.13-.07,.29-.11,.46-.11,.42,0,.88,.2,1.1,.32,.11-.05,.25-.07,.39-.07,.42,0,.9,.21,1.1,.31,.17-.03,.34-.05,.5-.05,.88,0,1.34,.46,1.36,.48,.09,.09,.1,.22,.04,.33-.06,.11-.19,.15-.31,.12-.08-.02-.16-.03-.23-.03-.52,0-.91,.51-.91,.51-.04,.05-.09,.09-.15,.1-.23,.05-.39,.16-.48,.32-.19,.34-.04,.84-.04,.85,.03,.09,.01,.19-.05,.26-.03,.03-.04,.06-.04,.07,.04,.12,.42,.31,.8,.4,.11,.03,.19,.12,.21,.23,.01,.11-.04,.22-.14,.27-.16,.08-.35,.13-.56,.13Zm-1.34-.96s.09,.01,.14,.04c0,0,.2,.11,.45,.21-.03-.04-.05-.09-.07-.14-.03-.09-.06-.27,.05-.47-.05-.23-.12-.73,.11-1.14,.15-.27,.4-.46,.73-.56,.1-.11,.29-.31,.57-.46-.19-.01-.41,0-.63,.05-.06,.01-.13,0-.19-.03-.15-.08-.6-.29-.93-.29-.1,0-.18,.02-.23,.06-.09,.07-.21,.07-.3,.02-.15-.09-.62-.32-.97-.32-.11,0-.2,.03-.26,.07-.08,.08-.2,.09-.3,.04-.13-.07-.55-.24-.84-.24-.08,0-.14,.01-.18,.04-.08,.06-.2,.07-.29,.02-.15-.08-.6-.29-.93-.29-.1,0-.18,.02-.23,.06-.08,.06-.18,.07-.27,.03,0,0-.55-.23-.98-.23-.14,0-.24,.02-.3,.07-.08,.06-.18,.07-.27,.03-.12-.05-.48-.19-.75-.19-.08,0-.13,.01-.16,.02-.05,.02-.11,.02-.17,0-.16-.04-.62-.15-.9-.15-.08,0-.11,0-.11,.01-.05,.03-.1,.03-.15,.03,0,0-.51-.06-.97-.06-.36,0-.49,.04-.53,.05-.02,0-.05,.01-.07,.02-.06,0-.13,.02-.19,.04,.06,.03,.13,.08,.25,.13l1.97,.82s.02,0,.03,.01c.18,.1,.73,.38,1.03,.41,.04,0,.09,.02,.13,.04,.16,.11,.66,.39,1.06,.39,.04,0,.07,0,.11,0,.09-.01,.17,.02,.24,.08,.01,.01,.34,.34,.97,.34,.05,0,.11,.01,.15,.04,0,0,.72,.44,1.38,.39,.08,0,.16,.02,.22,.08,0,0,.41,.41,1.06,.41,.06,0,.13,0,.19-.01,.07,0,.15,.01,.2,.06,.16,.13,.67,.47,1.08,.47,.01,0,.03,0,.04,0,0,0,.01,0,.02,0Z"/></g><g><path class="cls-3" d="M93.8,77.37s.72,.03,.78,.61c0,0,.31,.82-.34,1.13,0,0,.28,.44-.5,.78,0,0-.4,.43-1.18,.49,0,0-.98,.18-.91-.91,.07-1.09-.02-1.31,.71-1.51,.72-.2,.43-.81,1.37-.63"/><path class="cls-4" d="M92.41,80.65c-.19,0-.48-.04-.71-.25-.24-.21-.35-.54-.32-.96,0-.13,.02-.25,.02-.36,.04-.8,.06-1.17,.88-1.4,.22-.06,.3-.16,.4-.29,.21-.27,.44-.47,1.09-.35,.05,0,.09,.03,.13,.06,.34,.05,.86,.25,.93,.8,.11,.33,.17,.95-.29,1.31,0,.08,0,.17-.03,.27-.08,.25-.29,.45-.63,.61-.14,.12-.58,.47-1.3,.53-.03,0-.1,.01-.19,.01Zm1.02-3.1c-.17,0-.22,.07-.32,.19-.12,.15-.29,.36-.68,.47-.45,.13-.45,.14-.49,.9,0,.11-.01,.23-.02,.37-.02,.25,.03,.42,.14,.52,.14,.12,.38,.12,.46,.1,0,0,.02,0,.03,0,.65-.05,.99-.4,1-.41,.03-.03,.06-.05,.09-.06,.3-.13,.36-.25,.38-.29,.01-.05,0-.09,0-.09-.04-.07-.05-.15-.03-.22,.02-.07,.07-.14,.14-.17,.42-.2,.21-.76,.2-.79,0-.02-.01-.04-.02-.07-.03-.34-.52-.36-.52-.36-.07,0-.13-.03-.17-.07-.07-.01-.13-.02-.18-.02Z"/></g><g><path class="cls-3" d="M87.34,77.45s-.72,.46-.31,.96"/><path class="cls-4" d="M87.03,78.5s-.05-.01-.07-.03c-.12-.14-.16-.3-.14-.46,.06-.36,.45-.62,.47-.63,.04-.03,.1-.01,.12,.03,.03,.04,.01,.1-.03,.12,0,0-.35,.23-.39,.51-.02,.11,.01,.22,.1,.32,.03,.04,.03,.1-.01,.13-.02,.01-.04,.02-.06,.02Z"/></g><g><path class="cls-3" d="M88.38,77.63s-.63,.42-.37,.91"/><path class="cls-4" d="M88.01,78.63s-.06-.02-.08-.05c-.24-.45,.15-.87,.4-1.03,.04-.03,.1-.02,.12,.03,.03,.04,.02,.1-.03,.12-.02,.02-.56,.38-.34,.79,.02,.04,0,.1-.04,.12-.01,0-.03,.01-.04,.01Z"/></g><g><line class="cls-3" x1="86.61" y1="77.64" x2="88.7" y2="78.02"/><path class="cls-4" d="M88.7,78.11s-.01,0-.02,0l-2.09-.38s-.08-.06-.07-.11c0-.05,.06-.08,.1-.07l2.09,.38s.08,.06,.07,.11c0,.04-.05,.07-.09,.07Z"/></g><g><line class="cls-3" x1="86.54" y1="78.05" x2="89.04" y2="78.52"/><path class="cls-4" d="M89.04,78.61s-.01,0-.02,0l-2.49-.47s-.08-.06-.07-.11,.06-.08,.11-.07l2.49,.47s.08,.06,.07,.11c0,.04-.05,.07-.09,.07Z"/></g><g><path class="cls-3" d="M89.68,78.23s-.31,.26-.08,.64"/><path class="cls-4" d="M89.6,78.96s-.06-.01-.08-.04c-.22-.35-.03-.65,.09-.76,.04-.03,.09-.03,.13,.01,.03,.04,.03,.09-.01,.13-.03,.02-.25,.22-.06,.52,.03,.04,.01,.1-.03,.12-.01,0-.03,.01-.05,.01Z"/></g><g><path class="cls-3" d="M90.42,78.46s-.27,.4-.04,.71"/><path class="cls-4" d="M90.38,79.26s-.06-.01-.07-.04c-.25-.36,.03-.79,.04-.81,.03-.04,.08-.05,.12-.03,.04,.03,.05,.08,.03,.12,0,0-.23,.35-.05,.61,.03,.04,.02,.1-.02,.13-.02,.01-.03,.02-.05,.02Z"/></g></g><g><g><path class="cls-3" d="M92.98,78.55s-.56-1-1.12-.94c0,0-.58-1.1-1.2-.99,0,0-.54-.88-1.01-.84,0,0-.56-1-1.12-.94,0,0-.69-.98-1.25-.93,0,0-.45-.66-.86-.74,0,0-.66-.72-.95-.74,0,0-.97-.77-1.38-.85,0,0-1.1-.54-.39,.56l1.25,1.75s.39,.72,.73,.98c0,0,.37,.84,.93,1.08,0,0,.12,.57,.78,.98,0,0,.41,.83,1.08,1.18,0,0,.17,.8,1,1.19,0,0,.29,.85,.83,1.14,0,0,.62,1.16,1.33,1.22,0,0-1.01-1.01-.29-1.25,0,0,.31-1.28,1.4-.91,0,0,.95-.38,1.52,.27,0,0-.17-.8-1.27-1.19Z"/><path class="cls-4" d="M91.63,81.91s-.01,0-.02,0c-.76-.05-1.35-1-1.51-1.29-.47-.3-.75-.9-.85-1.15-.67-.36-.93-.94-1.01-1.2-.57-.34-.94-.96-1.06-1.17-.51-.34-.72-.76-.8-.98-.5-.28-.82-.89-.92-1.1-.34-.29-.68-.88-.74-1.01l-1.24-1.73c-.28-.43-.35-.7-.24-.91,.04-.08,.15-.21,.39-.21,.21,0,.45,.1,.55,.15,.43,.11,1.17,.67,1.41,.86,.31,.09,.72,.48,.98,.75,.37,.12,.7,.5,.86,.71,.53,.07,1.04,.66,1.25,.93,.52,.07,.96,.67,1.14,.95,.44,.08,.82,.56,1,.82,.57,.04,1.03,.7,1.22,1.01,.54,.09,.99,.74,1.14,.99,1.14,.45,1.35,1.32,1.35,1.36,.03,.12-.03,.24-.14,.3-.11,.06-.24,.03-.33-.06-.17-.19-.41-.29-.7-.29s-.52,.09-.52,.09c-.06,.02-.13,.03-.19,0-.1-.03-.2-.05-.29-.05-.56,0-.76,.76-.76,.77-.02,.09-.09,.16-.18,.19-.04,.01-.07,.03-.07,.04-.03,.13,.21,.5,.45,.74,.06,.05,.11,.13,.11,.21,0,.15-.12,.27-.27,.27,0,0,0,0,0,0Zm-7.84-10.17c.03,.06,.07,.14,.14,.24l1.24,1.74s.01,.02,.02,.03c.1,.19,.42,.71,.66,.89,.04,.03,.06,.06,.08,.1,.09,.21,.42,.78,.79,.94,.08,.03,.14,.11,.16,.19,0,.02,.11,.47,.65,.8,.04,.03,.08,.06,.1,.11,0,0,.39,.76,.96,1.06,.07,.04,.12,.11,.14,.18,0,.03,.16,.67,.85,1,.07,.03,.12,.09,.14,.16,.07,.21,.34,.79,.71,.99,.05,.03,.08,.06,.11,.11,.05,.09,.15,.25,.27,.42,0-.05,0-.1,.02-.16,.02-.1,.09-.26,.29-.37,.11-.31,.45-1.05,1.25-1.05,.12,0,.24,.02,.37,.05,.12-.04,.35-.09,.62-.09,.04,0,.07,0,.1,0-.15-.11-.33-.21-.56-.29-.06-.02-.11-.07-.14-.12-.18-.33-.58-.81-.84-.81-.11,.01-.23-.05-.28-.14-.15-.29-.58-.91-.91-.85-.11,.02-.22-.03-.28-.13-.18-.3-.54-.71-.75-.71-.11,.01-.22-.04-.27-.14-.18-.33-.58-.81-.84-.81-.1,.01-.21-.03-.26-.11-.24-.34-.7-.82-.99-.82h-.02c-.1,0-.19-.04-.25-.12-.16-.23-.48-.58-.68-.62-.06-.01-.11-.04-.15-.08-.3-.32-.66-.63-.78-.65-.05,0-.1-.02-.14-.06-.38-.3-1.03-.75-1.27-.8-.02,0-.05-.01-.07-.02-.05-.02-.12-.05-.18-.07Z"/></g><g><path class="cls-3" d="M94.26,79.74s.59,.41,.34,.93c0,0-.17,.86-.88,.78,0,0,0,.52-.83,.4,0,0-.57,.15-1.26-.21,0,0-.93-.37-.29-1.25,.64-.89,.68-1.12,1.4-.91,.72,.21,.79-.46,1.5,.19"/><path class="cls-4" d="M92.56,82.14c-.27,0-.64-.05-1.05-.26-.1-.04-.51-.24-.64-.67-.09-.31-.01-.64,.24-.99,.08-.11,.15-.21,.21-.29,.46-.66,.67-.96,1.49-.72,.22,.06,.34,.02,.49-.03,.32-.11,.62-.17,1.11,.28,.04,.03,.06,.08,.08,.12,.26,.22,.59,.67,.37,1.18-.08,.34-.36,.9-.94,.96-.03,.07-.09,.15-.17,.22-.2,.17-.49,.23-.86,.18-.07,.01-.18,.03-.33,.03Zm-.21-2.48c-.18,0-.28,.14-.58,.57-.06,.09-.13,.19-.21,.3-.15,.2-.2,.38-.16,.52,.06,.21,.33,.32,.33,.33,0,0,.02,0,.03,.01,.57,.3,1.04,.19,1.06,.18,.03,0,.07-.01,.11,0,.31,.05,.43-.02,.47-.05,.05-.04,.05-.08,.05-.09,0-.08,.03-.15,.09-.2,.06-.05,.13-.07,.21-.06,.45,.05,.57-.5,.59-.56,0-.02,.01-.04,.02-.06,.15-.3-.25-.58-.25-.58-.06-.04-.09-.09-.11-.16-.25-.22-.33-.19-.51-.12-.19,.07-.44,.16-.82,.04-.14-.04-.23-.07-.31-.07Z"/></g><g><path class="cls-3" d="M88.74,76.39s-.85,.01-.78,.65"/><path class="cls-4" d="M87.96,77.13s-.08-.03-.09-.08c-.02-.18,.02-.34,.13-.47,.24-.28,.71-.29,.73-.29h0s.09,.04,.09,.09c0,.05-.04,.09-.09,.09,0,0-.41,0-.6,.22-.07,.09-.1,.19-.09,.33,0,.05-.03,.09-.08,.1,0,0,0,0-.01,0Z"/></g><g><path class="cls-3" d="M89.52,77.1s-.76,.02-.79,.58"/><path class="cls-4" d="M88.73,77.76s0,0,0,0c-.05,0-.09-.05-.08-.1,.03-.51,.59-.66,.88-.66,.05,0,.09,.04,.09,.09,0,.05-.04,.09-.09,.09-.03,0-.68,.02-.7,.49,0,.05-.04,.09-.09,.09Z"/></g><g><line class="cls-3" x1="88.02" y1="76.17" x2="89.59" y2="77.6"/><path class="cls-4" d="M89.59,77.69s-.04,0-.06-.02l-1.57-1.43s-.04-.09,0-.13c.03-.04,.09-.04,.13,0l1.57,1.43s.04,.09,0,.13c-.02,.02-.04,.03-.07,.03Z"/></g><g><line class="cls-3" x1="87.74" y1="76.48" x2="89.61" y2="78.2"/><path class="cls-4" d="M89.61,78.29s-.04,0-.06-.02l-1.87-1.72s-.04-.09,0-.13c.03-.04,.09-.04,.13,0l1.87,1.72s.04,.09,0,.13c-.02,.02-.04,.03-.07,.03Z"/></g><g><path class="cls-3" d="M90.31,78.29s-.4,.06-.4,.5"/><path class="cls-4" d="M89.9,78.88s-.09-.04-.09-.09c0-.41,.31-.57,.48-.59,.05,0,.09,.03,.1,.08,0,.05-.03,.09-.08,.1h0s-.33,.06-.33,.41c0,.05-.04,.09-.09,.09h0Z"/></g><g><path class="cls-3" d="M90.81,78.88s-.44,.2-.41,.58"/><path class="cls-4" d="M90.4,79.55s-.09-.04-.09-.08c-.03-.44,.45-.66,.47-.67,.05-.02,.1,0,.12,.04,.02,.05,0,.1-.04,.12,0,0-.38,.18-.36,.49,0,.05-.03,.09-.08,.1,0,0,0,0,0,0Z"/></g></g><path class="cls-4" d="M71.54,81.64s-.05,0-.07-.02c-.09-.04-.13-.15-.09-.24l1.08-2.38c.04-.09,.15-.13,.24-.09,.09,.04,.13,.15,.09,.24l-1.08,2.38c-.03,.07-.1,.11-.16,.11Z"/><g><path class="cls-3" d="M69.15,82.7h2.79s5.05-1.84,4.21-4.38c0,0-.26-4.91-4.57-5.1,0,0-4.56-.42-7.8,.76-3.24,1.18-3.95,3.61-3.95,3.61,0,0-2.24,4.28,3.39,5.59,0,0,3.51,.86,5.93-.48Z"/><g><path class="cls-7" d="M68.71,82.43c-2.13,.69-4.72,.86-6.86-.16-1.04-.49-1.92-1.42-2.36-2.55-.48-1.25,.01-2.42,.67-3.4,1.3-1.94,3.45-2.76,5.6-3.11,1.13-.18,2.27-.25,3.42-.29,1.14-.04,2.3,.02,3.42,.35,2.23,.66,4.12,3.12,3.44,5.64-.32,1.16-1.16,1.96-2.22,2.27-.61,.18-1.14,.58-1.75,.78-.69,.22-1.44,.35-2.16,.44-1.19,.14-2.39-.1-3.39-.93-.8-.66-1.45-1.6-1.27-2.7,.08-.49,.39-.85,.75-1.12,.47-.35,1.07-.63,1.6-.85,.91-.38,1.97-.06,2.74,.61,.54,.47,.68,1.21-.03,1.51-.59,.25-1.24,.09-1.86,.18-.3,.04-.82,.25-1.11,.08-.18-.11-.03-.4,.15-.29,.13,.08,.47-.05,.61-.07,.22-.04,.44-.07,.66-.09,.41-.03,2.21,.13,1.64-.8-.26-.41-.8-.71-1.22-.84-.86-.27-1.53,.06-2.27,.45-.59,.31-1.16,.58-1.35,1.33-.18,.74,.27,1.47,.75,1.98,1.13,1.22,2.64,1.38,4.09,1.15,.72-.12,1.47-.27,2.13-.58,.29-.13,.56-.29,.85-.42,.32-.15,.67-.21,.98-.37,1.36-.7,1.75-2.56,1.27-4.05-.96-3.01-4.15-3.39-6.58-3.3-3.5,.13-7.55,.6-9.24,4.32-1.03,2.27,1.39,4.27,3.21,4.77,1.82,.5,3.85,.31,5.58-.26,.19-.06,.29,.27,.1,.33h0Z"/><path class="cls-7" d="M67.34,79.19c-.67-.54,.44-.77,.78-.81,.21-.03,1.68-.08,1.58-.3-.36-.78-1.51-.58-2.09-.41-.52,.15-1.07,.4-1.37,.89-.2,.33-.14,.72-.02,1.09,.15,.47,.36,.67,.7,.96,.28,.24,.53,.5,.83,.71,.33,.23,.75,.29,1.12,.33,.78,.08,1.53-.1,2.26-.32,.66-.2,1.24-.55,1.88-.8,.33-.13,.67-.21,.98-.39,.38-.21,.68-.62,.91-1,.92-1.5,.15-3.23-1.2-4.15-.65-.44-1.2-.83-1.97-.92-.83-.1-1.68-.09-2.5-.09-.77,0-1.52,.08-2.29,.12-.88,.05-1.7,.24-2.55,.43-1.2,.27-2.32,.74-3.15,1.72-.36,.43-.59,1-.85,1.51-.36,.71-.04,1.6,.31,2.27,.31,.59,.75,1.01,1.28,1.35,.54,.35,1.23,.43,1.83,.59,.72,.19,1.29,.1,1.99-.04,.5-.1,1.02-.08,1.53-.17,.2-.03,.29,.3,.1,.33-.62,.1-1.25,.1-1.86,.24-.71,.16-1.29,.11-2-.08-.65-.17-1.28-.29-1.87-.67-.58-.38-1.01-.92-1.34-1.55-.27-.51-.47-1.13-.42-1.71,.07-.73,.48-1.4,.84-1.99,.74-1.2,2.07-1.79,3.34-2.09,.69-.16,1.37-.35,2.07-.43,.81-.09,1.64-.12,2.46-.16,.76-.03,1.53,0,2.3,.04,.68,.03,1.38,.05,2,.41,1.02,.59,2,1.34,2.48,2.51,.5,1.23,.02,2.54-.77,3.39-.27,.3-.6,.5-.97,.65-.51,.2-.99,.43-1.49,.65-.95,.41-1.96,.7-3,.71-.98,0-1.65-.37-2.39-1.05-.3-.27-.62-.46-.77-.86-.17-.45-.3-.85-.23-1.33,.12-.7,.8-1.08,1.35-1.31,.75-.31,1.72-.47,2.44,.09,.39,.3,.61,.8,.08,1-.41,.16-.91,.15-1.34,.16-.11,0-.85,.21-.87,.2,.16,.13,.02,.43-.15,.29h0Z"/><path class="cls-7" d="M62.82,80.61c-.75-.53-1.29-.97-1.49-1.95-.19-.95,.14-1.58,.75-2.16,.7-.67,1.57-1.03,2.49-1.24,.71-.16,1.8-.23,2.5,.15,.53,.29,.57,.94,.16,1.34-.24,.23-.59,.32-.91,.37-.58,.09-1.13,.27-1.63,.6-.41,.27-.59,.79-.82,1.23-.28,.54,.32,.85,.22,1.35-.11,.61-.82,.52-1.25,.34-.19-.08-.12-.41,.07-.33,.24,.1,.47,.15,.72,.09,.37-.1-.11-.73-.14-.94-.08-.54,.25-1.11,.53-1.52,.36-.5,.81-.7,1.35-.94,.53-.24,1.61-.07,1.83-.79,.22-.73-1.57-.7-1.85-.7-.85,.02-1.72,.34-2.44,.77-.7,.41-1.32,1.05-1.32,1.98,0,1.04,.63,1.56,1.37,2.08,.17,.12,.03,.41-.15,.29h0Z"/><path class="cls-7" d="M67.54,79.49c.7,.11,1.39,.09,2.08,.02,.66-.07,1.47-.18,1.73-.93,.3-.87-.74-1.32-1.25-1.76-.42-.36-.48-.87-.38-1.38,.08-.39,.14-.76,.49-.94,.45-.23,1.05-.17,1.54-.06,1.03,.22,2.1,1.21,2.62,2.19,.25,.47,.41,1.01,.35,1.54-.06,.57-.52,.95-.84,1.33-.34,.4-.8,.66-1.21,1-.48,.4-1.27,.53-1.85,.65-.96,.21-2.46,.49-3.26-.41-.29-.32-.85-1.28-.07-1.25,.2,0,.22,.35,.01,.34-.28-.01,.29,.7,.37,.78,.46,.48,1.25,.38,1.81,.35,.59-.04,1.17-.15,1.73-.31,.58-.17,1.02-.4,1.48-.8,.11-.1,.24-.17,.38-.23,.25-.12,.39-.38,.58-.57,.46-.45,.67-.96,.49-1.65-.29-1.11-1.36-2.12-2.33-2.52-.51-.21-1.22-.28-1.71-.03-.39,.2-.34,1.21-.17,1.51,.44,.77,1.7,.9,1.58,2.03-.08,.81-.65,1.19-1.33,1.36-.92,.24-1.96,.23-2.91,.07-.2-.03-.13-.36,.07-.33h0Z"/><path class="cls-7" d="M76.12,77.35c.21,.94,.26,1.86-.09,2.74-.3,.77-1.01,1.28-1.68,1.63-.32,.17-.66,.3-1,.44-.48,.19-.91,.44-1.42,.55-1.03,.22-2.06,.15-3.11,.22,0-.11,0-.23-.01-.34,0,0,.01,0,.02,0,.2,0,.22,.34,.01,.34,0,0-.01,0-.02,0-.2,0-.21-.33-.01-.34,.85-.06,1.72,.02,2.57-.12,.76-.13,1.44-.47,2.15-.75,.72-.29,1.4-.65,1.91-1.27,.66-.81,.6-1.98,.38-3-.05-.21,.25-.3,.3-.09h0Z"/><path class="cls-7" d="M68.83,82.23c.05,.16,.1,.32,.16,.49,.03,.08-.02,.2-.1,.21,0,0,0,0-.01,0-.09,.01-.21-.04-.2-.17,0-.01,0-.02,0-.04,0-.16,.15-.21,.26-.12,.05,.04,.06,.09,.06,.15,0,.09-.06,.17-.15,.17,.03,0-.21,.17-.25,.19-.25,.1-.5,.17-.77,.22-.56,.11-1.12,.21-1.7,.24-1.41,.06-2.68,.06-4.03-.52-.41-.17-.94-.24-1.29-.56-.32-.3-.57-.62-.79-1.01-.19-.33-.38-.66-.55-.99-.22-.43-.18-1.04-.14-1.5,.02-.21,.33-.21,.31,0-.03,.42-.08,.98,.12,1.38,.16,.32,.35,.63,.53,.94,.18,.32,.4,.6,.65,.85,.38,.38,1.09,.5,1.57,.7,1.18,.51,2.4,.39,3.61,.36,.59-.02,1.17-.14,1.75-.25,.25-.05,.49-.11,.71-.23,.1-.05,.15-.16,.27-.16-.05,.06-.1,.11-.15,.17,.01,.03,.03,.06,.04,.09,.09-.04,.18-.08,.26-.12,0,.01,0,.02,0,.04-.07-.06-.14-.11-.2-.17,0,0,0,0,.01,0-.03,.07-.07,.14-.1,.21-.06-.16-.11-.32-.16-.49-.06-.21,.24-.3,.3-.09h0Z"/><path class="cls-7" d="M75.86,79.48c.02,.19,.06,.37,.06,.56,0,.11-.16,.11-.16,0,0-.19-.04-.37-.06-.56,0-.11,.15-.11,.16,0h0Z"/><path class="cls-7" d="M75.65,79.74c.04,.2,.07,.39,.08,.59,0,.11-.15,.11-.16,0,0-.18-.04-.36-.07-.55-.02-.11,.13-.15,.15-.04h0Z"/><path class="cls-7" d="M75.45,80.05c.03,.18,.07,.35,.07,.53,0,.11-.16,.11-.16,0,0-.16-.03-.32-.06-.48-.02-.11,.13-.15,.15-.04h0Z"/><path class="cls-7" d="M75.21,80.35c.02,.16,.09,.32,.07,.48-.01,.11-.17,.06-.15-.05,.02-.14-.05-.3-.07-.44-.02-.11,.14-.11,.16,0h0Z"/><path class="cls-7" d="M75,80.52c.04,.17,.1,.34,.1,.52,0,.11-.15,.11-.16,0,0-.16-.06-.31-.1-.47-.03-.11,.12-.15,.15-.04h0Z"/><path class="cls-7" d="M74.78,80.72c.05,.16,.15,.35,.08,.51-.04,.1-.18,0-.14-.09,.02-.05,0-.14-.03-.2-.02-.06-.04-.12-.06-.19-.03-.11,.12-.15,.15-.04h0Z"/><path class="cls-7" d="M74.53,80.85c.05,.15,.1,.31,.1,.47,0,.11-.16,.11-.16,0,0-.15-.05-.29-.09-.43-.03-.11,.12-.15,.15-.04h0Z"/><path class="cls-7" d="M74.27,81.03c.04,.15,.09,.3,.12,.46,.02,.11-.13,.15-.15,.04-.03-.16-.07-.31-.12-.46-.03-.11,.12-.15,.15-.04h0Z"/><path class="cls-7" d="M74.05,81.07c.06,.16,.12,.33,.13,.5,0,.11-.15,.11-.16,0,0-.16-.06-.31-.12-.45-.04-.1,.11-.14,.15-.04h0Z"/><path class="cls-7" d="M73.82,81.11c.06,.18,.07,.38,.13,.56,.03,.11-.12,.15-.15,.04-.06-.19-.07-.38-.13-.56-.03-.11,.12-.15,.15-.04h0Z"/><path class="cls-7" d="M73.51,81.2c.06,.2,.11,.4,.16,.6,.03,.11-.12,.15-.15,.04-.05-.2-.1-.4-.16-.6-.03-.11,.12-.15,.15-.04h0Z"/><path class="cls-7" d="M73.3,81.4c.06,.18,.12,.35,.13,.54,0,.11-.15,.11-.16,0-.01-.17-.07-.33-.13-.5-.03-.11,.12-.15,.15-.04h0Z"/><path class="cls-7" d="M73.02,81.53c.04,.16,.08,.32,.12,.48,.03,.11-.12,.15-.15,.04-.04-.16-.08-.32-.12-.48-.03-.11,.12-.15,.15-.04h0Z"/><path class="cls-7" d="M72.75,81.61c.05,.17,.1,.34,.14,.51,.03,.11-.12,.15-.15,.04-.04-.17-.09-.34-.14-.51-.03-.11,.12-.15,.15-.04h0Z"/><path class="cls-7" d="M72.5,81.65c.04,.19,.11,.37,.16,.56,.03,.11-.12,.15-.15,.04-.05-.19-.12-.37-.16-.56-.03-.11,.12-.15,.15-.04h0Z"/><path class="cls-7" d="M72.25,81.81c.03,.16,.08,.32,.13,.48,.03,.11-.12,.15-.15,.04-.05-.16-.1-.32-.13-.48-.02-.11,.13-.15,.15-.04h0Z"/><path class="cls-7" d="M71.97,81.92c.03,.17,.08,.34,.11,.52,.02,.11-.13,.15-.15,.04-.03-.17-.08-.34-.11-.52-.02-.11,.13-.15,.15-.04h0Z"/><path class="cls-7" d="M71.71,81.91c.08,.17,.13,.35,.15,.54,.02,.11-.14,.11-.16,0-.02-.16-.06-.31-.13-.45-.05-.1,.08-.18,.13-.08h0Z"/><path class="cls-7" d="M71.48,82.01c.06,.16,.1,.32,.13,.49,.02,.11-.14,.11-.16,0-.02-.15-.06-.3-.12-.45-.04-.1,.11-.14,.15-.04h0Z"/><path class="cls-7" d="M71.18,82.06c.04,.16,.11,.31,.15,.47,.02,.11-.13,.15-.15,.04-.03-.16-.1-.31-.15-.47-.03-.11,.12-.15,.15-.04h0Z"/><path class="cls-7" d="M70.94,82.14c.05,.14,.09,.28,.11,.43,.01,.11-.15,.11-.16,0-.01-.13-.06-.26-.1-.39-.03-.11,.12-.15,.15-.04h0Z"/><path class="cls-7" d="M70.69,82.26c.06,.11,.11,.23,.13,.35,0,.05,0,.09-.05,.1-.04,.01-.09-.01-.1-.06-.02-.11-.07-.21-.11-.31-.05-.1,.08-.18,.13-.08h0Z"/><path class="cls-7" d="M70.42,82.31c.04,.11,.08,.22,.13,.33,.02,.04-.01,.09-.05,.1-.04,.01-.08-.02-.1-.06-.05-.11-.09-.22-.13-.33-.04-.1,.11-.15,.15-.04h0Z"/><path class="cls-7" d="M70.2,82.35c.03,.09,.05,.19,.1,.28,.06,.09-.07,.18-.13,.08-.06-.1-.08-.21-.12-.32-.04-.11,.11-.15,.15-.04h0Z"/><path class="cls-7" d="M69.96,82.31c.03,.1,.06,.2,.1,.3,.04,.1-.11,.14-.15,.04-.04-.1-.07-.2-.1-.3-.03-.11,.12-.15,.15-.04h0Z"/><path class="cls-7" d="M69.62,82.28c.03,.13,.07,.25,.13,.37,.05,.1-.08,.18-.13,.08-.06-.13-.12-.26-.15-.41-.02-.11,.13-.15,.15-.04h0Z"/><path class="cls-7" d="M69.37,82.37c.03,.1,.05,.19,.1,.28,.06,.09-.08,.18-.13,.08-.06-.1-.08-.21-.11-.32-.03-.11,.12-.15,.15-.04h0Z"/><path class="cls-7" d="M69.03,82.26c.04,.15,.06,.3,.12,.44,.04,.1-.11,.15-.15,.04-.06-.14-.08-.29-.12-.44-.03-.11,.12-.15,.15-.04h0Z"/><path class="cls-7" d="M68.44,82.48c.02,.11,.06,.22,.07,.34,0,.05-.04,.08-.08,.08-.05,0-.07-.04-.08-.09-.02-.1-.05-.2-.07-.29-.02-.11,.13-.15,.15-.04h0Z"/><path class="cls-7" d="M68.23,82.57c.03,.11,.07,.22,.1,.32,.03,.11-.12,.15-.15,.04-.03-.11-.07-.22-.1-.32-.03-.11,.12-.15,.15-.04h0Z"/><path class="cls-7" d="M67.95,82.62c.03,.12,.06,.25,.08,.37,.02,.11-.13,.15-.15,.04-.02-.13-.06-.25-.08-.37-.02-.11,.13-.15,.15-.04h0Z"/><path class="cls-7" d="M67.66,82.67c.01,.12,.03,.24,.04,.36,.01,.11-.14,.11-.16,0-.02-.12-.03-.24-.04-.36,0-.11,.15-.11,.16,0h0Z"/><path class="cls-7" d="M67.35,82.79c.02,.12,.04,.24,.06,.36,.02,.11-.14,.11-.16,0-.02-.11-.03-.21-.05-.32-.02-.11,.13-.15,.15-.04h0Z"/><path class="cls-7" d="M59.97,80.31c0,.14,0,.28,0,.42,0,.11-.15,.11-.16,0,0-.14,0-.28,0-.42,0-.11,.16-.11,.16,0h0Z"/><path class="cls-7" d="M60.2,80.7c0,.16,0,.32,0,.48,0,.11-.15,.11-.16,0-.01-.16,0-.32,0-.48,0-.11,.15-.11,.16,0h0Z"/><path class="cls-7" d="M60.47,81.1c0,.17,0,.34,.01,.51,0,.11-.15,.11-.16,0,0-.17-.01-.34-.01-.51,0-.11,.16-.11,.16,0h0Z"/><path class="cls-7" d="M60.72,81.32c0,.22,.01,.43,.03,.65,0,.11-.15,.11-.16,0-.01-.22-.02-.43-.03-.65,0-.11,.16-.11,.16,0h0Z"/><path class="cls-7" d="M61.01,81.6c.02,.2,.03,.4,.05,.59,0,.11-.15,.11-.16,0-.01-.2-.03-.4-.05-.59-.01-.11,.15-.11,.16,0h0Z"/><path class="cls-7" d="M61.33,81.88c.02,.19,.03,.38,.05,.58,0,.11-.15,.11-.16,0-.01-.19-.03-.38-.05-.58-.01-.11,.15-.11,.16,0h0Z"/><path class="cls-7" d="M61.68,82.09c.02,.16,.02,.32,.03,.47,0,.11-.15,.11-.16,0,0-.16-.01-.32-.03-.47-.01-.11,.15-.11,.16,0h0Z"/><path class="cls-7" d="M62.06,82.28c0,.12,0,.24,.02,.37,0,.11-.15,.11-.16,0-.01-.12-.02-.24-.02-.37,0-.11,.15-.11,.16,0h0Z"/></g></g><g><path class="cls-3" d="M78.81,81.04l2.76-.39s4.74-2.54,3.55-4.94c0,0-.95-4.82-5.25-4.39,0,0-4.57,.24-7.61,1.87-3.04,1.63-3.4,4.13-3.4,4.13,0,0-1.61,4.55,4.15,5.05,0,0,3.6,.35,5.8-1.32Z"/><g><path class="cls-7" d="M78.33,80.84c-2.01,.98-4.55,1.52-6.81,.82-1.1-.34-2.11-1.13-2.69-2.19-.65-1.17-.33-2.4,.18-3.46,1.01-2.1,3.02-3.22,5.1-3.87,1.09-.34,2.22-.57,3.34-.77,1.12-.2,2.27-.31,3.43-.14,2.3,.33,4.53,2.5,4.21,5.1-.15,1.2-.87,2.1-1.87,2.56-.58,.27-1.05,.74-1.62,1.02-.65,.32-1.37,.55-2.07,.74-1.16,.31-2.38,.24-3.48-.44-.88-.54-1.67-1.38-1.64-2.5,.01-.5,.26-.9,.59-1.22,.41-.41,.97-.78,1.46-1.07,.85-.5,1.94-.34,2.8,.21,.6,.39,.84,1.1,.18,1.5-.55,.33-1.21,.27-1.81,.44-.29,.08-.78,.37-1.09,.24-.19-.08-.09-.39,.1-.31,.14,.06,.45-.12,.59-.16,.21-.07,.42-.13,.64-.18,.41-.09,2.2-.19,1.51-1.02-.31-.37-.89-.59-1.32-.66-.89-.15-1.51,.28-2.18,.76-.54,.39-1.07,.74-1.14,1.5-.08,.75,.48,1.41,1.02,1.85,1.29,1.05,2.81,.99,4.22,.55,.69-.22,1.42-.48,2.03-.88,.27-.17,.52-.37,.78-.54,.3-.19,.63-.3,.92-.51,1.25-.88,1.37-2.79,.68-4.19-1.38-2.84-4.59-2.76-6.98-2.33-3.45,.62-7.39,1.67-8.53,5.59-.69,2.39,1.99,4.02,3.85,4.26,1.87,.24,3.85-.24,5.49-1.05,.18-.09,.32,.22,.14,.31h0Z"/><path class="cls-7" d="M76.52,77.82c-.73-.44,.33-.82,.66-.91,.2-.06,1.65-.31,1.52-.52-.46-.72-1.58-.35-2.12-.11-.49,.22-1,.55-1.23,1.08-.15,.36-.04,.74,.13,1.08,.21,.44,.45,.61,.82,.85,.31,.2,.6,.42,.93,.59,.36,.18,.78,.18,1.15,.17,.78-.03,1.5-.32,2.19-.64,.63-.29,1.15-.72,1.75-1.06,.31-.18,.63-.31,.92-.52,.34-.26,.59-.71,.76-1.11,.7-1.61-.31-3.22-1.77-3.93-.7-.35-1.31-.65-2.08-.64-.83,.02-1.67,.15-2.49,.26-.76,.11-1.5,.29-2.25,.44-.87,.17-1.65,.48-2.46,.79-1.15,.44-2.19,1.06-2.87,2.15-.3,.48-.44,1.07-.63,1.61-.25,.76,.19,1.59,.63,2.2,.39,.54,.89,.89,1.46,1.16,.58,.27,1.28,.25,1.89,.33,.74,.09,1.29-.09,1.96-.32,.48-.17,1-.22,1.49-.38,.19-.06,.33,.25,.14,.31-.6,.19-1.22,.28-1.8,.5-.68,.26-1.26,.3-1.99,.21-.67-.08-1.31-.11-1.95-.4-.63-.29-1.13-.77-1.55-1.35-.34-.46-.63-1.05-.66-1.63-.03-.73,.27-1.45,.55-2.09,.56-1.29,1.79-2.07,3-2.55,.66-.26,1.3-.54,1.99-.72,.79-.2,1.61-.36,2.41-.51,.75-.14,1.52-.21,2.28-.29,.68-.07,1.37-.15,2.04,.12,1.09,.44,2.17,1.04,2.82,2.13,.67,1.14,.38,2.51-.28,3.47-.23,.34-.52,.58-.87,.78-.47,.27-.92,.57-1.38,.85-.88,.54-1.84,.97-2.87,1.13-.97,.15-1.69-.13-2.52-.7-.33-.23-.67-.36-.88-.74-.23-.42-.42-.8-.41-1.28,.01-.71,.64-1.18,1.15-1.48,.7-.41,1.63-.71,2.43-.26,.43,.24,.72,.71,.22,.98-.39,.21-.87,.28-1.31,.35-.11,.02-.81,.33-.83,.32,.18,.11,.08,.42-.1,.31h0Z"/><path class="cls-7" d="M72.25,79.86c-.81-.41-1.41-.78-1.75-1.72-.33-.91-.09-1.58,.44-2.25,.6-.76,1.41-1.24,2.29-1.58,.68-.26,1.75-.49,2.5-.21,.57,.21,.7,.85,.35,1.3-.21,.26-.54,.4-.85,.49-.56,.18-1.08,.42-1.53,.82-.37,.33-.48,.86-.64,1.33-.2,.57,.43,.79,.41,1.3-.02,.62-.74,.63-1.19,.52-.2-.05-.18-.38,.02-.33,.25,.06,.49,.09,.72-.02,.35-.15-.21-.71-.27-.91-.16-.53,.08-1.14,.31-1.58,.28-.55,.7-.81,1.2-1.13,.49-.32,1.58-.3,1.69-1.05,.11-.75-1.65-.47-1.93-.43-.83,.14-1.65,.58-2.31,1.11-.64,.51-1.16,1.23-1.02,2.14,.15,1.03,.84,1.45,1.65,1.86,.19,.1,.09,.41-.1,.31h0Z"/><path class="cls-7" d="M76.76,78.09c.7,.01,1.39-.1,2.06-.27,.64-.16,1.43-.39,1.58-1.17,.18-.91-.92-1.2-1.49-1.57-.47-.3-.6-.8-.57-1.31,.02-.39,.04-.77,.35-1,.42-.29,1.02-.31,1.52-.28,1.05,.07,2.25,.9,2.9,1.79,.32,.43,.55,.95,.57,1.48,.02,.57-.38,1.01-.65,1.43-.28,.45-.7,.76-1.05,1.16-.41,.46-1.18,.7-1.74,.91-.92,.34-2.37,.84-3.29,.06-.33-.28-1.03-1.14-.24-1.23,.2-.02,.26,.31,.06,.33-.28,.03,.39,.65,.48,.72,.52,.41,1.3,.2,1.84,.08,.58-.12,1.13-.32,1.67-.56,.55-.25,.95-.54,1.35-1,.1-.12,.21-.2,.34-.28,.23-.15,.33-.44,.49-.65,.4-.51,.53-1.04,.25-1.7-.45-1.06-1.64-1.91-2.67-2.17-.54-.13-1.25-.1-1.7,.22-.35,.25-.17,1.24,.05,1.52,.54,.7,1.81,.65,1.85,1.78,.03,.81-.48,1.27-1.12,1.54-.87,.36-1.91,.5-2.87,.49-.2,0-.18-.34,.02-.33h0Z"/><path class="cls-7" d="M84.94,74.75c.34,.9,.52,1.8,.3,2.72-.19,.81-.81,1.41-1.43,1.85-.3,.21-.61,.4-.93,.58-.44,.25-.84,.57-1.32,.74-.99,.36-2.02,.44-3.04,.66-.02-.11-.04-.22-.06-.33,0,0,.01,0,.02,0,.2-.03,.26,.31,.06,.33,0,0-.01,0-.02,0-.2,.03-.26-.29-.06-.33,.84-.18,1.71-.22,2.52-.48,.74-.23,1.36-.67,2.02-1.05,.67-.39,1.29-.84,1.71-1.53,.54-.9,.31-2.05-.05-3.03-.08-.21,.21-.34,.28-.13h0Z"/><path class="cls-7" d="M78.42,80.62c.07,.16,.15,.31,.22,.46,.04,.08,0,.2-.07,.22,0,0,0,0-.01,0-.09,.03-.21-.02-.23-.14,0-.01,0-.02,0-.04-.02-.15,.12-.23,.24-.15,.05,.03,.07,.08,.08,.14,.02,.09-.04,.18-.12,.19,.03,0-.19,.2-.22,.22-.23,.14-.48,.24-.73,.33-.54,.19-1.08,.37-1.65,.48-1.38,.26-2.64,.44-4.06,.06-.43-.12-.97-.11-1.35-.37-.36-.25-.65-.54-.93-.89-.23-.3-.47-.6-.69-.91-.28-.4-.32-1-.35-1.46-.01-.21,.3-.26,.31-.04,.03,.42,.06,.99,.31,1.35,.21,.29,.43,.57,.65,.86,.23,.29,.48,.53,.77,.75,.43,.32,1.15,.34,1.65,.47,1.24,.34,2.43,.05,3.63-.16,.58-.1,1.14-.3,1.69-.5,.24-.08,.46-.18,.67-.33,.09-.07,.12-.18,.24-.2-.04,.06-.08,.13-.12,.19,.02,.03,.03,.05,.05,.08,.08-.05,.16-.1,.24-.15,0,.01,0,.02,0,.04-.08-.05-.15-.09-.23-.14,0,0,0,0,.01,0-.02,.07-.05,.15-.07,.22-.08-.15-.15-.3-.22-.46-.09-.2,.19-.33,.28-.13h0Z"/><path class="cls-7" d="M84.99,76.9c.04,.18,.11,.36,.13,.54,.01,.11-.14,.13-.16,.02-.03-.18-.09-.36-.13-.54-.02-.11,.13-.13,.16-.02h0Z"/><path class="cls-7" d="M84.82,77.18c.07,.19,.13,.38,.16,.57,.02,.11-.14,.13-.16,.02-.03-.18-.09-.36-.15-.53-.04-.1,.11-.17,.14-.06h0Z"/><path class="cls-7" d="M84.67,77.52c.06,.17,.12,.34,.14,.51,.01,.11-.14,.13-.16,.02-.02-.16-.08-.31-.13-.47-.03-.1,.11-.17,.14-.06h0Z"/><path class="cls-7" d="M84.47,77.85c.05,.16,.13,.3,.14,.47,0,.11-.15,.08-.16-.02,0-.14-.09-.29-.13-.42-.03-.11,.12-.12,.16-.02h0Z"/><path class="cls-7" d="M84.29,78.05c.06,.16,.15,.32,.18,.5,.02,.11-.14,.13-.16,.02-.03-.16-.1-.3-.16-.45-.04-.1,.1-.17,.14-.06h0Z"/><path class="cls-7" d="M84.1,78.28c.07,.15,.2,.33,.15,.5-.03,.1-.18,.04-.15-.07,.02-.06-.03-.14-.05-.19-.03-.06-.06-.12-.09-.18-.05-.1,.1-.16,.14-.06h0Z"/><path class="cls-7" d="M83.87,78.44c.07,.15,.14,.29,.16,.45,.01,.11-.14,.13-.16,.02-.02-.14-.09-.28-.15-.41-.05-.1,.1-.16,.14-.06h0Z"/><path class="cls-7" d="M83.64,78.65c.06,.15,.13,.29,.18,.44,.03,.1-.11,.17-.14,.06-.05-.15-.12-.3-.18-.44-.04-.1,.1-.17,.14-.06h0Z"/><path class="cls-7" d="M83.43,78.73c.09,.15,.17,.3,.2,.47,.02,.11-.14,.13-.16,.02-.03-.15-.1-.3-.18-.43-.06-.1,.09-.16,.14-.06h0Z"/><path class="cls-7" d="M83.21,78.8c.08,.17,.12,.36,.21,.54,.05,.1-.1,.16-.14,.06-.08-.18-.12-.37-.21-.54-.05-.1,.09-.16,.14-.06h0Z"/><path class="cls-7" d="M82.91,78.94c.09,.19,.17,.37,.25,.57,.04,.1-.1,.17-.14,.06-.08-.19-.16-.38-.25-.57-.05-.1,.09-.16,.14-.06h0Z"/><path class="cls-7" d="M82.73,79.16c.08,.17,.17,.33,.21,.52,.02,.11-.13,.13-.16,.02-.04-.17-.12-.32-.2-.47-.05-.1,.09-.16,.14-.06h0Z"/><path class="cls-7" d="M82.48,79.32c.06,.15,.12,.31,.18,.46,.04,.1-.1,.17-.14,.06-.06-.15-.12-.31-.18-.46-.04-.1,.1-.17,.14-.06h0Z"/><path class="cls-7" d="M82.21,79.45c.07,.16,.15,.32,.21,.48,.04,.1-.1,.17-.14,.06-.07-.16-.14-.32-.21-.48-.04-.1,.1-.17,.14-.06h0Z"/><path class="cls-7" d="M81.98,79.52c.07,.18,.16,.35,.24,.53,.04,.1-.1,.17-.14,.06-.08-.18-.17-.35-.24-.53-.04-.1,.1-.17,.14-.06h0Z"/><path class="cls-7" d="M81.75,79.71c.05,.16,.13,.31,.2,.46,.05,.1-.1,.16-.14,.06-.07-.15-.14-.3-.2-.46-.04-.1,.11-.17,.14-.06h0Z"/><path class="cls-7" d="M81.49,79.86c.06,.17,.13,.33,.19,.5,.03,.1-.11,.17-.14,.06-.06-.17-.13-.33-.19-.5-.03-.1,.11-.17,.14-.06h0Z"/><path class="cls-7" d="M81.23,79.89c.11,.16,.17,.33,.23,.51,.03,.11-.12,.13-.16,.02-.04-.15-.1-.3-.19-.43-.06-.09,.06-.19,.12-.1h0Z"/><path class="cls-7" d="M81.01,80.02c.09,.15,.15,.3,.2,.47,.03,.11-.12,.12-.16,.02-.04-.15-.1-.29-.18-.42-.06-.1,.09-.16,.14-.06h0Z"/><path class="cls-7" d="M80.73,80.12c.07,.15,.16,.29,.21,.44,.04,.1-.11,.17-.14,.06-.05-.16-.15-.29-.21-.44-.04-.1,.1-.17,.14-.06h0Z"/><path class="cls-7" d="M80.5,80.23c.06,.13,.13,.27,.17,.41,.03,.11-.13,.13-.16,.02-.03-.13-.1-.25-.15-.37-.05-.1,.09-.16,.14-.06h0Z"/><path class="cls-7" d="M80.26,80.38c.07,.1,.14,.21,.18,.33,.01,.04,0,.09-.04,.11-.03,.02-.09,0-.11-.05-.03-.11-.09-.2-.16-.29-.06-.09,.06-.19,.12-.1h0Z"/><path class="cls-7" d="M80.01,80.47c.05,.1,.11,.21,.17,.31,.02,.04,0,.09-.04,.11-.04,.02-.08,0-.11-.05-.06-.1-.12-.2-.17-.31-.05-.1,.09-.16,.14-.06h0Z"/><path class="cls-7" d="M79.79,80.54c.04,.09,.08,.18,.14,.26,.07,.08-.05,.19-.12,.1-.07-.09-.11-.2-.16-.3-.05-.1,.09-.16,.14-.06h0Z"/><path class="cls-7" d="M79.55,80.54c.04,.1,.09,.19,.14,.29,.06,.1-.09,.16-.14,.06-.05-.09-.1-.19-.14-.29-.04-.1,.1-.17,.14-.06h0Z"/><path class="cls-7" d="M79.21,80.55c.05,.12,.11,.24,.18,.34,.06,.09-.06,.19-.12,.1-.08-.12-.15-.25-.2-.38-.04-.1,.1-.17,.14-.06h0Z"/><path class="cls-7" d="M78.98,80.68c.04,.09,.07,.18,.13,.26,.07,.09-.05,.19-.12,.1-.07-.09-.11-.19-.16-.3-.04-.1,.1-.17,.14-.06h0Z"/><path class="cls-7" d="M78.63,80.62c.06,.14,.1,.28,.18,.42,.05,.1-.09,.16-.14,.06-.07-.13-.12-.28-.18-.42-.04-.1,.1-.17,.14-.06h0Z"/><path class="cls-7" d="M78.07,80.92c.04,.11,.09,.21,.12,.33,.01,.04-.02,.09-.06,.09-.05,0-.08-.03-.09-.07-.03-.1-.07-.19-.11-.28-.04-.1,.1-.17,.14-.06h0Z"/><path class="cls-7" d="M77.88,81.04c.05,.1,.1,.2,.14,.31,.05,.1-.09,.16-.14,.06-.05-.1-.1-.2-.14-.31-.05-.1,.09-.16,.14-.06h0Z"/><path class="cls-7" d="M77.61,81.13c.05,.12,.1,.24,.14,.36,.03,.1-.11,.17-.14,.06-.04-.12-.09-.24-.14-.36-.04-.1,.1-.17,.14-.06h0Z"/><path class="cls-7" d="M77.33,81.22c.03,.12,.06,.23,.09,.35,.03,.11-.13,.13-.16,.02-.03-.12-.07-.23-.09-.35-.03-.11,.13-.13,.16-.02h0Z"/><path class="cls-7" d="M77.04,81.38c.04,.12,.07,.23,.11,.35,.03,.11-.13,.13-.16,.02-.03-.1-.06-.21-.1-.31-.04-.1,.11-.17,.14-.06h0Z"/><path class="cls-7" d="M69.38,79.98c.02,.14,.03,.28,.06,.42,.02,.11-.14,.13-.16,.02-.02-.14-.04-.28-.06-.42-.01-.11,.14-.13,.16-.02h0Z"/><path class="cls-7" d="M69.67,80.33c.03,.16,.04,.32,.07,.47,.02,.11-.13,.13-.16,.02-.03-.16-.05-.32-.07-.47-.02-.11,.14-.13,.16-.02h0Z"/><path class="cls-7" d="M69.99,80.69c.03,.17,.06,.34,.09,.5,.02,.11-.14,.13-.16,.02-.03-.17-.06-.34-.09-.5-.02-.11,.14-.13,.16-.02h0Z"/><path class="cls-7" d="M70.27,80.87c.03,.21,.07,.43,.12,.64,.02,.11-.13,.13-.16,.02-.04-.21-.08-.43-.12-.64-.02-.11,.14-.13,.16-.02h0Z"/><path class="cls-7" d="M70.59,81.11c.05,.19,.09,.39,.13,.58,.02,.11-.13,.13-.16,.02-.04-.19-.08-.39-.13-.58-.03-.11,.13-.13,.16-.02h0Z"/><path class="cls-7" d="M70.95,81.33c.05,.19,.09,.37,.13,.56,.02,.11-.13,.13-.16,.02-.04-.19-.08-.38-.13-.56-.03-.11,.13-.13,.16-.02h0Z"/><path class="cls-7" d="M71.33,81.49c.04,.15,.07,.31,.1,.46,.02,.11-.14,.13-.16,.02-.03-.16-.06-.31-.1-.46-.03-.11,.13-.13,.16-.02h0Z"/><path class="cls-7" d="M71.73,81.63c.02,.12,.04,.24,.07,.36,.02,.11-.13,.13-.16,.02-.03-.12-.05-.24-.07-.36-.02-.11,.14-.13,.16-.02h0Z"/></g></g><g><path class="cls-3" d="M74.67,80.89s7.53-4.33,13.68,1.72c.18,.18,.31,.37,.57,.29,.29-.08,.57-.41,.62-.81,.1-.84-.83-1.43-1.26-1.74-3.13-2.26-7.1-2.93-10.73-2.1-1.33,.3-2.62,.86-3.9,1.46,0,0-.87,.41-.74,1.26,.14,.86,1.76-.07,1.76-.07Z"/><path class="cls-4" d="M88.8,83.19c-.28,0-.44-.18-.58-.32-.02-.02-.05-.05-.07-.07-2.12-2.09-4.63-3.14-7.47-3.14-3.29,0-5.85,1.45-5.88,1.47-.08,.05-.84,.47-1.42,.47h0c-.41,0-.68-.22-.74-.59-.06-.4,.05-.79,.32-1.11,.15-.17,.4-.37,.57-.44h0c1.18-.55,2.56-1.16,3.95-1.48,1.01-.23,2.05-.34,3.09-.34,2.88,0,5.6,.86,7.86,2.49l.1,.07c.49,.34,1.39,.98,1.28,1.92-.06,.49-.4,.93-.82,1.04-.06,.02-.13,.03-.19,.03Zm-8.12-4.07c2.99,0,5.63,1.11,7.85,3.3,.03,.03,.05,.05,.08,.08,.1,.1,.15,.15,.19,.15,.01,0,.03,0,.04,0,.17-.05,.39-.28,.42-.58,.07-.62-.63-1.12-1.05-1.42l-.1-.07c-2.17-1.56-4.78-2.39-7.54-2.39-1,0-2,.11-2.97,.33-1.34,.31-2.69,.9-3.84,1.44-.03,.02-.69,.34-.58,.97,.01,.07,.02,.13,.21,.13h0c.37,0,.95-.29,1.15-.4,.11-.06,2.71-1.54,6.15-1.54Z"/></g><g><path class="cls-3" d="M74.5,82.4s7.53-4.33,13.68,1.72c.18,.18,.31,.37,.57,.29,.29-.08,.57-.41,.62-.81,.1-.84-.83-1.43-1.26-1.74-3.13-2.26-7.1-2.93-10.73-2.1-1.33,.3-2.62,.86-3.9,1.46,0,0-.87,.41-.74,1.26,.14,.86,1.76-.07,1.76-.07Z"/><path class="cls-4" d="M88.64,84.7c-.28,0-.44-.18-.58-.32-.02-.02-.05-.05-.07-.07-2.12-2.09-4.63-3.14-7.47-3.14-3.29,0-5.85,1.45-5.88,1.47-.08,.05-.84,.47-1.42,.47h0c-.41,0-.68-.22-.74-.59-.06-.4,.05-.79,.32-1.11,.15-.17,.4-.37,.57-.44h0c1.18-.55,2.56-1.16,3.95-1.48,1.01-.23,2.05-.34,3.09-.34,2.88,0,5.6,.86,7.86,2.49l.1,.07c.49,.34,1.39,.98,1.28,1.92-.06,.49-.4,.93-.82,1.04-.06,.02-.13,.03-.19,.03Zm-8.12-4.07c2.99,0,5.63,1.11,7.85,3.3,.03,.03,.05,.05,.08,.08,.1,.1,.15,.15,.19,.15,.01,0,.03,0,.04,0,.17-.05,.39-.28,.42-.58,.07-.62-.63-1.12-1.05-1.42l-.1-.07c-2.17-1.56-4.78-2.39-7.54-2.39-1,0-2,.11-2.97,.33-1.34,.31-2.69,.9-3.84,1.44-.03,.02-.69,.34-.58,.97,.01,.07,.02,.13,.21,.13h0c.37,0,.95-.29,1.15-.4,.11-.06,2.71-1.54,6.15-1.54Z"/></g><g><path class="cls-3" d="M74.32,84.06s7.53-4.33,13.68,1.72c.18,.18,.31,.37,.57,.29,.29-.08,.57-.41,.62-.81,.1-.84-.83-1.43-1.26-1.74-3.13-2.26-7.1-2.93-10.73-2.1-1.33,.3-2.62,.86-3.9,1.46,0,0-.87,.41-.74,1.26,.14,.86,1.76-.07,1.76-.07Z"/><path class="cls-4" d="M88.45,86.36c-.28,0-.44-.17-.58-.32-.02-.02-.05-.05-.07-.07-2.12-2.09-4.63-3.14-7.47-3.14-3.29,0-5.85,1.45-5.88,1.47-.08,.05-.84,.47-1.42,.47h0c-.41,0-.68-.22-.74-.59-.06-.4,.05-.79,.32-1.11,.15-.17,.4-.37,.57-.44h0c1.18-.55,2.56-1.16,3.95-1.48,1.01-.23,2.05-.34,3.09-.34,2.88,0,5.6,.86,7.86,2.49l.1,.07c.49,.34,1.39,.98,1.28,1.92-.06,.49-.4,.93-.82,1.04-.06,.02-.13,.03-.19,.03Zm-8.12-4.07c2.99,0,5.63,1.11,7.85,3.3,.03,.03,.05,.05,.08,.08,.1,.1,.15,.15,.19,.15,.01,0,.03,0,.04,0,.17-.05,.39-.28,.42-.58,.07-.62-.63-1.12-1.05-1.42l-.1-.07c-2.17-1.56-4.78-2.39-7.54-2.39-1,0-2,.11-2.97,.33-1.34,.31-2.69,.9-3.84,1.44-.03,.02-.69,.34-.58,.97,.01,.07,.02,.13,.21,.13h0c.37,0,.95-.29,1.15-.4,.11-.06,2.71-1.54,6.15-1.54Z"/></g><g><path class="cls-3" d="M82.19,83.33s9.27-4.28,15.74,3.52c.19,.23,.31,.46,.63,.41,.35-.06,.71-.42,.81-.89,.21-.98-.81-1.77-1.28-2.19-3.39-3-7.94-4.22-12.26-3.65-1.58,.21-3.15,.73-4.71,1.29,0,0-1.06,.38-1,1.41,.06,1.02,2.06,.1,2.06,.1Z"/><path class="cls-4" d="M98.47,87.53c-.34,0-.53-.23-.68-.42-.02-.03-.05-.06-.07-.09-2.53-3.05-5.78-4.59-9.65-4.59-3.25,0-5.75,1.13-5.77,1.15-.04,.02-.88,.4-1.54,.4h0c-.77,0-.89-.52-.9-.74-.03-.44,.12-.84,.43-1.17,.25-.26,.57-.44,.75-.5h0c1.43-.52,3.1-1.09,4.76-1.31,.7-.09,1.41-.14,2.12-.14,3.87,0,7.55,1.37,10.36,3.85l.11,.09c.52,.45,1.49,1.29,1.25,2.35-.12,.55-.55,1.01-1.03,1.1-.05,0-.1,.01-.14,.01Zm-10.4-5.64c4.04,0,7.43,1.61,10.06,4.79,.03,.03,.06,.07,.08,.1,.16,.2,.2,.23,.3,.21,.23-.04,.51-.31,.6-.68,.16-.75-.62-1.43-1.08-1.83l-.11-.1c-2.71-2.4-6.27-3.72-10-3.72-.68,0-1.37,.05-2.04,.13-1.61,.21-3.24,.77-4.65,1.28-.04,.02-.87,.33-.82,1.13,0,.1,.01,.23,.36,.23h0c.45,0,1.1-.26,1.31-.35,.11-.05,2.63-1.2,6-1.2Z"/></g><g><path class="cls-3" d="M82.83,85.48s8.82-5.13,16,2.01c.21,.21,.36,.43,.67,.34,.34-.09,.67-.49,.73-.96,.12-.99-.97-1.69-1.48-2.06-3.66-2.66-8.3-3.45-12.55-2.47-1.55,.36-3.07,1.03-4.56,1.73,0,0-1.02,.48-.86,1.49,.16,1.01,2.06-.09,2.06-.09Z"/><path class="cls-4" d="M99.37,88.12c-.3,0-.48-.19-.64-.36-.03-.03-.05-.06-.08-.08-2.48-2.47-5.43-3.72-8.76-3.72-3.87,0-6.89,1.73-6.92,1.75-.04,.02-.96,.55-1.64,.55-.46,0-.76-.24-.82-.66-.15-.95,.57-1.56,1.01-1.78,1.38-.65,2.99-1.38,4.62-1.75,1.18-.27,2.4-.41,3.62-.41,3.35,0,6.52,1.01,9.15,2.93l.11,.08c.56,.4,1.6,1.15,1.47,2.23-.07,.56-.46,1.06-.92,1.19-.07,.02-.14,.03-.21,.03Zm-9.48-4.7c3.48,0,6.55,1.3,9.14,3.88,.03,.03,.06,.06,.09,.09,.16,.17,.21,.21,.31,.18,.22-.06,.48-.35,.53-.73,.09-.76-.75-1.36-1.25-1.72l-.12-.09c-2.54-1.85-5.6-2.83-8.83-2.83-1.18,0-2.35,.13-3.5,.4-1.58,.36-3.16,1.07-4.51,1.71-.03,.02-.84,.41-.71,1.21,.02,.11,.05,.2,.29,.2,.44,0,1.14-.35,1.37-.48,.13-.07,3.18-1.82,7.19-1.82Z"/></g><g><path class="cls-3" d="M81.68,88.42s6.98-7.45,15.91-2.66c.27,.14,.47,.31,.74,.14,.3-.19,.5-.66,.42-1.13-.17-.98-1.41-1.34-2-1.55-4.27-1.5-8.94-.93-12.73,1.23-1.38,.79-2.64,1.86-3.88,2.97,0,0-.84,.76-.4,1.68,.44,.92,1.95-.68,1.95-.68Z"/><path class="cls-4" d="M80.16,89.65h0c-.3,0-.54-.16-.67-.44-.52-1.09,.42-1.96,.46-2,1.14-1.02,2.47-2.17,3.92-3,2.42-1.38,5.16-2.1,7.91-2.1,1.73,0,3.43,.29,5.05,.86l.13,.05c.65,.22,1.86,.64,2.05,1.71,.1,.56-.13,1.15-.54,1.4-.12,.08-.25,.11-.38,.11-.21,0-.37-.09-.53-.19-.03-.02-.07-.04-.1-.06-1.95-1.04-3.96-1.57-5.97-1.57-5.63,0-9.57,4.14-9.61,4.18-.1,.11-1.01,1.05-1.72,1.05Zm11.62-7c-2.66,0-5.31,.7-7.64,2.03-1.41,.8-2.71,1.93-3.83,2.93-.03,.02-.68,.64-.34,1.36,.05,.11,.11,.13,.18,.13h0c.36,0,1-.54,1.32-.88,.17-.18,4.14-4.35,10.01-4.35,2.1,0,4.2,.55,6.23,1.64,.04,.02,.08,.04,.12,.06,.1,.06,.2,.11,.26,.11,.02,0,.04,0,.09-.03,.2-.12,.36-.48,.3-.85-.13-.76-1.11-1.09-1.69-1.29l-.14-.05c-1.56-.55-3.19-.82-4.87-.82Z"/></g><g><path class="cls-3" d="M82.26,89.28s6.98-7.45,15.91-2.66c.27,.14,.47,.31,.74,.14,.3-.19,.5-.66,.42-1.13-.17-.98-1.41-1.34-2-1.55-4.27-1.5-8.94-.93-12.73,1.23-1.38,.79-2.64,1.86-3.88,2.97,0,0-.84,.76-.4,1.68,.44,.92,1.95-.68,1.95-.68Z"/><path class="cls-4" d="M80.74,90.52h0c-.3,0-.54-.16-.67-.44-.52-1.09,.42-1.96,.46-2,1.14-1.02,2.47-2.17,3.92-3,2.42-1.38,5.16-2.1,7.91-2.1,1.73,0,3.43,.29,5.05,.86l.13,.05c.65,.22,1.86,.64,2.05,1.71,.1,.56-.13,1.15-.54,1.4-.12,.08-.25,.11-.38,.11-.21,0-.37-.09-.53-.19-.03-.02-.07-.04-.1-.06-1.95-1.04-3.96-1.57-5.97-1.57-5.62,0-9.57,4.14-9.61,4.18-.1,.11-1.01,1.05-1.72,1.05Zm11.62-7c-2.66,0-5.31,.7-7.64,2.03-1.41,.8-2.71,1.93-3.83,2.93-.03,.02-.68,.64-.34,1.36,.05,.11,.11,.13,.18,.13h0c.36,0,1-.54,1.32-.88,.17-.18,4.14-4.35,10.01-4.35,2.1,0,4.2,.55,6.23,1.64,.04,.02,.08,.04,.12,.06,.1,.06,.2,.11,.26,.11,.02,0,.04,0,.09-.03,.2-.12,.36-.48,.3-.85-.13-.76-1.11-1.09-1.69-1.29l-.14-.05c-1.56-.55-3.19-.82-4.87-.82Z"/></g><g><path class="cls-3" d="M82.75,88.24s8.62-5.46,16.07,1.41c.22,.21,.37,.42,.68,.32,.34-.11,.65-.51,.69-.99,.08-1-1.03-1.65-1.55-2-3.76-2.52-8.43-3.14-12.63-2-1.54,.42-3.02,1.14-4.5,1.9,0,0-1,.52-.81,1.53,.2,1,2.05-.17,2.05-.17Z"/><path class="cls-4" d="M99.35,90.26c-.29,0-.47-.18-.63-.33-.03-.03-.06-.05-.09-.08-2.44-2.25-5.27-3.4-8.4-3.4-4.1,0-7.3,2-7.34,2.02-.1,.06-1,.62-1.67,.62h0c-.43,0-.72-.23-.8-.62-.09-.47,.03-.93,.35-1.32,.14-.17,.41-.41,.6-.5h0c1.35-.7,2.93-1.49,4.55-1.93,1.37-.37,2.79-.56,4.21-.56,3.13,0,6.12,.9,8.65,2.59l.12,.08c.57,.38,1.64,1.08,1.56,2.17-.05,.56-.41,1.08-.88,1.22-.08,.02-.16,.04-.23,.04Zm-9.12-4.35c3.27,0,6.22,1.19,8.77,3.54,.03,.03,.06,.06,.1,.09,.12,.12,.19,.18,.26,.18,.02,0,.04,0,.07-.01,.22-.07,.47-.37,.5-.75,.06-.76-.8-1.33-1.31-1.67l-.12-.08c-2.44-1.64-5.32-2.5-8.34-2.5-1.38,0-2.74,.18-4.07,.54-1.56,.42-3.11,1.19-4.44,1.88h0s-.82,.45-.67,1.23c.02,.1,.05,.19,.26,.19,.44,0,1.14-.38,1.38-.53,.14-.09,3.36-2.1,7.62-2.1Z"/></g><g><path class="cls-3" d="M80.37,89.32s8.62-5.46,16.07,1.41c.22,.21,.37,.42,.68,.32,.34-.11,.65-.51,.69-.99,.08-1-1.03-1.65-1.55-2-3.76-2.52-8.43-3.14-12.63-2-1.54,.42-3.02,1.14-4.5,1.9,0,0-1,.52-.81,1.53,.2,1,2.05-.17,2.05-.17Z"/><path class="cls-4" d="M96.97,91.34c-.29,0-.47-.18-.63-.33-.03-.03-.06-.05-.09-.08-2.44-2.25-5.27-3.4-8.4-3.4-4.11,0-7.3,2-7.34,2.02-.1,.06-1,.62-1.67,.62h0c-.43,0-.72-.23-.8-.62-.09-.47,.03-.93,.35-1.32,.14-.17,.41-.41,.6-.5h0c1.35-.7,2.93-1.49,4.55-1.93,1.37-.37,2.79-.56,4.21-.56,3.13,0,6.12,.9,8.65,2.59l.12,.08c.57,.38,1.64,1.08,1.55,2.17-.05,.56-.42,1.08-.88,1.22-.08,.02-.16,.04-.23,.04Zm-9.12-4.35c3.27,0,6.22,1.19,8.77,3.54,.03,.03,.06,.06,.1,.09,.12,.12,.19,.18,.26,.18,.02,0,.04,0,.07-.01,.22-.07,.47-.37,.5-.75,.06-.76-.8-1.33-1.31-1.67l-.12-.08c-2.44-1.64-5.32-2.5-8.34-2.5-1.38,0-2.74,.18-4.07,.54-1.56,.42-3.11,1.19-4.44,1.88h0s-.82,.45-.67,1.23c.02,.1,.05,.19,.26,.19,.44,0,1.14-.38,1.38-.53,.14-.09,3.36-2.1,7.62-2.1Z"/></g><g><path class="cls-3" d="M64.13,83.9s10.8-6.02,18.05,3.97c.22,.3,.35,.6,.72,.51,.4-.1,.83-.59,.96-1.2,.27-1.29-.88-2.3-1.41-2.83-3.83-3.81-9.03-5.23-14.03-4.29-1.83,.34-3.65,1.1-5.46,1.9,0,0-1.24,.55-1.19,1.89,.04,1.34,2.37,.05,2.37,.05Z"/><path class="cls-4" d="M82.77,88.67c-.38,0-.57-.29-.73-.52-.03-.04-.05-.08-.08-.12-2.72-3.76-6.25-5.66-10.49-5.66-3.99,0-7.17,1.75-7.2,1.76-.04,.02-1.08,.59-1.84,.59h0c-.57,0-.91-.32-.93-.87-.02-.61,.2-1.18,.63-1.62,.22-.23,.53-.45,.72-.52h0c1.67-.74,3.61-1.56,5.52-1.92,1-.19,2.02-.28,3.03-.28,4.23,0,8.22,1.65,11.24,4.65l.12,.12c.58,.56,1.65,1.61,1.36,2.96-.15,.69-.64,1.29-1.16,1.41-.06,.02-.13,.02-.19,.02Zm-11.31-6.84c4.42,0,8.1,1.98,10.93,5.88,.03,.04,.06,.09,.09,.13,.13,.2,.2,.28,.28,.28,.02,0,.04,0,.06,0,.28-.07,.65-.46,.76-1,.22-1.06-.68-1.93-1.21-2.46l-.12-.12c-2.91-2.9-6.77-4.49-10.86-4.49-.98,0-1.96,.09-2.93,.27-1.86,.35-3.76,1.15-5.4,1.88-.05,.02-1.07,.5-1.03,1.64,0,.22,.07,.35,.39,.35h0c.52,0,1.31-.38,1.58-.53,.13-.07,3.34-1.83,7.47-1.83Z"/></g><g><path class="cls-3" d="M64.02,84.42s10.46-4.32,18.06,3.9c.23,.25,.37,.49,.74,.43,.39-.06,.8-.43,.9-.91,.22-1.01-.97-1.86-1.52-2.3-3.95-3.18-9.17-4.52-14.09-3.99-1.8,.19-3.57,.72-5.34,1.28,0,0-1.2,.38-1.1,1.45,.1,1.07,2.35,.14,2.35,.14Z"/><path class="cls-4" d="M82.72,89.04c-.37,0-.57-.23-.75-.43-.03-.03-.06-.06-.09-.1-3.04-3.29-6.88-4.95-11.41-4.95-3.6,0-6.32,1.1-6.34,1.11-.04,.02-.97,.39-1.7,.39h0c-.86,0-1-.53-1.03-.76-.04-.43,.1-.83,.39-1.15,.31-.34,.72-.52,.9-.58h0c1.62-.52,3.51-1.09,5.39-1.29,.7-.08,1.42-.11,2.14-.11,4.5,0,8.81,1.48,12.15,4.16l.13,.1c.6,.48,1.72,1.36,1.49,2.47-.12,.57-.6,1.05-1.13,1.13-.05,0-.1,.01-.14,.01Zm-12.25-6.02c4.63,0,8.71,1.77,11.81,5.13,.03,.04,.07,.07,.1,.11,.19,.21,.25,.26,.4,.24,.27-.04,.6-.31,.68-.7,.17-.78-.75-1.5-1.29-1.93l-.13-.1c-3.24-2.61-7.44-4.04-11.81-4.04-.69,0-1.39,.04-2.08,.11-1.83,.2-3.69,.76-5.28,1.27-.05,.02-1,.34-.92,1.17,0,.09,.03,.27,.49,.27h0c.63,0,1.48-.35,1.49-.35,.11-.05,2.84-1.15,6.55-1.15Z"/></g><g><path class="cls-3" d="M63.83,85.62s10.46-4.32,18.06,3.9c.23,.25,.37,.49,.74,.43,.39-.06,.8-.43,.9-.91,.22-1.01-.97-1.86-1.52-2.3-3.95-3.18-9.17-4.52-14.09-3.99-1.8,.19-3.57,.72-5.34,1.28,0,0-1.2,.38-1.1,1.45,.1,1.07,2.35,.14,2.35,.14Z"/><path class="cls-4" d="M82.53,90.23c-.37,0-.57-.23-.75-.43-.03-.03-.06-.06-.09-.1-3.04-3.29-6.88-4.95-11.41-4.95-3.6,0-6.32,1.1-6.34,1.11-.04,.02-.97,.39-1.7,.39h0c-.86,0-1-.53-1.03-.76-.04-.43,.1-.83,.39-1.15,.31-.34,.72-.52,.9-.58h0c1.62-.52,3.51-1.09,5.39-1.29,.7-.08,1.42-.11,2.14-.11,4.5,0,8.81,1.48,12.15,4.16l.12,.1c.6,.48,1.72,1.36,1.49,2.47-.12,.57-.6,1.05-1.13,1.13-.05,0-.1,.01-.14,.01Zm-12.25-6.02c4.63,0,8.71,1.77,11.81,5.13,.03,.04,.07,.07,.1,.11,.19,.21,.25,.26,.4,.24,.27-.04,.6-.31,.68-.7,.17-.78-.75-1.5-1.29-1.93l-.13-.1c-3.24-2.61-7.44-4.04-11.81-4.04-.69,0-1.39,.04-2.08,.11-1.83,.2-3.69,.76-5.28,1.27-.04,.01-1,.33-.92,1.17,0,.09,.03,.27,.49,.27h0c.63,0,1.48-.35,1.49-.35,.11-.05,2.84-1.15,6.55-1.15Z"/></g><g><path class="cls-3" d="M63.91,87.47s10.9-5.11,20,2.52c.27,.23,.45,.46,.84,.38,.42-.09,.82-.49,.89-.98,.13-1.03-1.24-1.78-1.88-2.18-4.62-2.87-10.42-3.81-15.7-2.91-1.93,.33-3.8,.99-5.66,1.68,0,0-1.27,.48-1.05,1.53,.22,1.06,2.56-.04,2.56-.04Z"/><path class="cls-4" d="M84.6,90.66c-.34,0-.56-.19-.76-.37-.03-.03-.07-.06-.11-.09-3.27-2.74-7.13-4.13-11.49-4.13-4.65,0-8.19,1.63-8.22,1.65-.05,.02-1.13,.53-1.95,.53h0c-.75,0-.95-.42-1-.68-.09-.43,.01-.84,.3-1.19,.29-.35,.72-.58,.92-.65h0c1.7-.64,3.69-1.35,5.71-1.7,1.3-.22,2.64-.34,3.98-.34,4.28,0,8.51,1.16,11.91,3.28l.15,.09c.75,.46,2.01,1.22,1.86,2.35-.07,.58-.53,1.09-1.1,1.21-.07,.02-.14,.02-.21,.02Zm-12.35-5.13c4.48,0,8.46,1.43,11.83,4.26,.04,.03,.08,.07,.12,.1,.21,.18,.31,.26,.5,.22,.29-.06,.62-.36,.67-.75,.1-.78-.97-1.43-1.61-1.82l-.15-.09c-3.32-2.06-7.45-3.2-11.63-3.2-1.31,0-2.62,.11-3.88,.33-1.97,.34-3.93,1.04-5.61,1.67h0s-1.05,.41-.88,1.22c.02,.07,.05,.24,.47,.24,.69,0,1.71-.47,1.72-.47,.15-.07,3.68-1.7,8.45-1.7Z"/></g><g><path class="cls-3" d="M67.6,89.16s10.42-6.02,20.14,.8c.29,.2,.49,.42,.87,.3,.41-.12,.78-.56,.8-1.05,.04-1.04-1.39-1.67-2.06-2.01-4.85-2.46-10.71-2.91-15.89-1.55-1.89,.49-3.7,1.31-5.49,2.16,0,0-1.22,.58-.91,1.62,.31,1.03,2.55-.26,2.55-.26Z"/><path class="cls-4" d="M88.41,90.57c-.3,0-.51-.15-.71-.3-.04-.03-.07-.05-.11-.08-3.03-2.13-6.44-3.21-10.14-3.21-5.46,0-9.67,2.39-9.71,2.42-.05,.03-1.22,.7-2.05,.7-.63,0-.83-.37-.9-.59-.13-.44-.05-.88,.24-1.27,.23-.3,.6-.58,.82-.67h0c1.64-.79,3.56-1.66,5.54-2.18,1.93-.51,3.95-.76,5.98-.76,3.6,0,7.09,.81,10.1,2.34l.15,.08c.79,.39,2.1,1.05,2.06,2.19-.02,.59-.44,1.14-.99,1.3-.1,.03-.19,.04-.28,.04Zm-10.96-4.13c3.81,0,7.33,1.11,10.45,3.31,.04,.03,.08,.06,.12,.09,.22,.17,.33,.23,.51,.18,.29-.09,.59-.41,.61-.81,.03-.79-1.09-1.35-1.76-1.68l-.16-.08c-2.93-1.49-6.34-2.28-9.86-2.28-1.99,0-3.96,.25-5.85,.74-1.94,.51-3.82,1.37-5.44,2.14h0s-1.01,.5-.77,1.29c.02,.07,.06,.21,.38,.21,.57,0,1.47-.45,1.78-.62,.04-.02,4.37-2.49,9.98-2.49Z"/></g><g><g><path class="cls-3" d="M91.84,82.34s.59,2.48,2.98,2.79c2.76,.36,6.44-1.18,6.58-4.36,.02-.44-.04-.88-.14-1.3"/><path class="cls-4" d="M95.66,85.46c-.29,0-.58-.02-.86-.06-2.55-.34-3.21-2.97-3.21-3-.03-.15,.05-.29,.2-.33,.15-.04,.29,.05,.33,.2h0c.02,.09,.58,2.3,2.76,2.59,1.71,.23,3.62-.3,4.86-1.34,.88-.74,1.36-1.69,1.41-2.76,.02-.39-.03-.8-.13-1.22-.04-.15,.05-.29,.2-.33,.15-.04,.29,.05,.33,.2,.12,.47,.17,.94,.15,1.38-.05,1.22-.6,2.31-1.6,3.15-1.14,.96-2.81,1.52-4.42,1.52Z"/></g><g><path class="cls-3" d="M91.72,82.06c-.5-1.93,.66-4.27,6.38-4.13,5.71,.14,2.23,4.31,0,5.64-2.23,1.33-5.87,.42-6.38-1.51Z"/><path class="cls-4" d="M95.63,84.47c-1.77,0-3.77-.81-4.17-2.35-.25-.97-.08-1.91,.49-2.64,.93-1.2,2.89-1.84,5.67-1.84,.16,0,.32,0,.49,0,1.95,.05,3.07,.56,3.32,1.53,.43,1.65-1.86,3.82-3.19,4.61-.73,.44-1.63,.67-2.61,.67Zm1.99-6.28c-3.29,0-4.67,.88-5.24,1.63-.59,.76-.54,1.6-.39,2.17,.29,1.11,1.85,1.94,3.64,1.94,.88,0,1.68-.2,2.33-.59,1.41-.84,3.25-2.82,2.94-4.01-.23-.88-1.66-1.1-2.81-1.13-.16,0-.32,0-.48,0Z"/></g><g><path class="cls-3" d="M93.8,80.3c-.68,.49-1.05,1.47-.6,2.04,.44,.55,1.25,.8,2.04,.64,.78-.15,1.69-.49,1.84-1.45,.09-.56-.46-1.19-.83-1.42-.67-.42-1.78-.29-2.45,.19Z"/><path class="cls-4" d="M94.78,83.3h0c-.72,0-1.39-.29-1.78-.79-.21-.27-.3-.61-.24-.99,.08-.54,.42-1.09,.89-1.43,.43-.31,1.04-.5,1.62-.5,.43,0,.83,.1,1.13,.29,.46,.29,1.06,1,.95,1.69-.2,1.31-1.6,1.58-2.06,1.67-.17,.03-.34,.05-.52,.05Zm.49-3.17c-.47,0-.96,.15-1.3,.39-.35,.25-.62,.67-.67,1.07-.02,.16-.02,.39,.13,.58,.29,.37,.8,.58,1.36,.58h0c.14,0,.28-.01,.41-.04,1.01-.2,1.53-.59,1.63-1.22,.06-.4-.37-.94-.7-1.15-.22-.14-.51-.21-.85-.21Z"/></g><g><path class="cls-3" d="M94.22,80.94s.06,.45-.27,.51c-.33,.06,0,.51,0,.51"/><path class="cls-4" d="M93.95,82.23c-.08,0-.17-.04-.22-.11-.09-.12-.27-.42-.16-.68,.03-.08,.12-.22,.34-.26,.05,0,.05-.17,.05-.2-.02-.15,.09-.28,.23-.3,.15-.02,.28,.09,.3,.23,.04,.31-.07,.66-.39,.78,.02,.04,.04,.09,.07,.12,.09,.12,.06,.29-.06,.38-.05,.03-.1,.05-.16,.05Z"/></g></g><g><g><path class="cls-3" d="M78.17,81.29s-.06-.03-.07-.05c-.19-.45,.11-1.12,.71-1.59,.38-.3,.81-.47,1.19-.47,.24,0,.44,.07,.58,.2,.03,.03,.04,.07,.02,.1-.01,.03-.05,.05-.08,.05,0,0-.02,0-.03,0-.09,0-.43,.03-.89,.37-.53,.39-1.21,1.2-1.34,1.36-.02,.02-.04,.03-.07,.03,0,0,0,0-.01,0Z"/><path class="cls-4" d="M80,79.27c.21,0,.39,.06,.52,.18,0,0-.02,0-.03,0-.12,0-.46,.03-.94,.39-.55,.4-1.26,1.25-1.36,1.37-.17-.41,.11-1.03,.68-1.49,.37-.29,.79-.45,1.14-.45m0-.18c-.4,0-.85,.18-1.25,.49-.63,.5-.94,1.21-.74,1.7,.02,.06,.08,.1,.14,.11,0,0,.02,0,.03,0,.05,0,.1-.02,.14-.07,.08-.1,.79-.95,1.33-1.34,.44-.33,.75-.35,.84-.35,0,0,.02,0,.02,0,0,0,0,0,.01,0,.07,0,.14-.04,.17-.11,.03-.07,.01-.15-.04-.2-.16-.15-.38-.22-.64-.22h0Z"/></g><g><path class="cls-3" d="M78.83,81.66c-.28,0-.51-.09-.65-.27-.03-.03-.05-.07-.07-.12-.02-.03-.01-.07,.01-.1,.02-.02,.04-.03,.07-.03,0,0,.02,0,.02,0,.04,.01,.16,.04,.33,.04,.28,0,.7-.08,1.09-.47,.65-.65,.8-1.22,.81-1.28,0-.03,.03-.06,.06-.07,0,0,.02,0,.03,0,.02,0,.05,0,.06,.03,.02,.02,.04,.04,.06,.06,.17,.21,.19,.52,.06,.85-.12,.32-.37,.64-.69,.89-.38,.3-.81,.47-1.19,.47Z"/><path class="cls-4" d="M80.53,79.45s.04,.04,.05,.06c.3,.39,.03,1.11-.61,1.62-.37,.29-.79,.45-1.14,.45-.24,0-.45-.08-.58-.24-.03-.03-.05-.07-.06-.1,.05,.01,.18,.04,.35,.04,.3,0,.74-.09,1.15-.5,.67-.67,.82-1.25,.83-1.32m0-.18s-.03,0-.05,0c-.06,.02-.11,.07-.12,.13-.01,.06-.15,.6-.79,1.23-.37,.37-.76,.44-1.02,.44-.15,0-.27-.03-.31-.04-.02,0-.03,0-.05,0-.05,0-.1,.02-.14,.06-.05,.05-.05,.13-.02,.19,.03,.05,.05,.1,.08,.14,.16,.2,.41,.31,.72,.31,.4,0,.85-.18,1.25-.49,.73-.57,1.01-1.39,.64-1.87-.02-.03-.05-.05-.07-.07-.03-.03-.08-.05-.13-.05h0Z"/></g></g><g><g><path class="cls-3" d="M80.87,79.87s-.04,0-.06-.02c-.02-.02-.04-.05-.03-.08,.07-.48,.68-.9,1.44-.98,.1-.01,.19-.02,.29-.02,.7,0,1.24,.29,1.36,.72,.01,.04,0,.08-.04,.1-.02,.01-.03,.02-.05,.02s-.04,0-.05-.02c-.03-.02-.26-.18-.76-.18-.07,0-.14,0-.22,0-.66,.05-1.66,.39-1.86,.45,0,0-.02,0-.03,0Z"/><path class="cls-4" d="M82.5,78.85c.64,0,1.17,.26,1.28,.65-.04-.03-.29-.19-.81-.19-.07,0-.14,0-.22,0-.68,.06-1.73,.4-1.88,.46,.07-.43,.63-.82,1.36-.91,.09-.01,.19-.02,.28-.02m0-.18h0c-.1,0-.2,0-.3,.02-.8,.09-1.44,.54-1.52,1.06,0,.06,.01,.13,.06,.17,.03,.03,.07,.04,.12,.04,.02,0,.04,0,.06,0,.12-.04,1.17-.39,1.84-.45,.07,0,.14,0,.21,0,.47,0,.68,.14,.71,.16,.03,.02,.07,.03,.11,.03s.07-.01,.1-.03c.06-.04,.09-.12,.07-.2-.13-.47-.71-.78-1.45-.78h0Z"/></g><g><path class="cls-3" d="M82.16,80.75c-.75,0-1.33-.34-1.38-.82,0-.04,0-.09,0-.14,0-.04,.03-.06,.06-.08,0,0,.02,0,.03,0,.02,0,.05,0,.07,.03,.07,.07,.43,.42,1.03,.42,.13,0,.26-.02,.4-.05,.9-.21,1.31-.62,1.36-.66,.02-.02,.04-.03,.06-.03,0,0,.02,0,.02,0,.03,0,.06,.03,.06,.06,0,.03,.01,.06,.02,.09,.03,.27-.11,.54-.39,.76-.27,.21-.64,.35-1.05,.4-.1,.01-.19,.02-.29,.02Z"/><path class="cls-4" d="M83.78,79.51s.01,.05,.01,.07c.06,.49-.56,.96-1.37,1.06-.09,.01-.19,.02-.28,.02-.69,0-1.24-.3-1.29-.74,0-.04,0-.08,0-.12,.08,.09,.46,.45,1.1,.45,.13,0,.27-.02,.42-.05,.92-.22,1.35-.63,1.4-.69m0-.18s-.09,.02-.13,.05c-.04,.04-.44,.43-1.32,.64-.13,.03-.25,.05-.38,.05-.57,0-.9-.33-.97-.4-.03-.04-.08-.06-.13-.06-.02,0-.04,0-.06,0-.07,.02-.11,.08-.12,.15,0,.06,0,.11,0,.16,.06,.53,.67,.9,1.47,.9,.1,0,.2,0,.3-.02,.42-.05,.81-.2,1.1-.42,.31-.24,.46-.54,.43-.84,0-.04-.01-.07-.02-.1-.02-.06-.07-.11-.13-.13-.02,0-.03,0-.05,0h0Z"/></g></g><g><g><path class="cls-3" d="M82.44,82.05s-.07-.02-.08-.05c-.02-.04-.18-.35-.78-.61-.62-.27-1.72-.46-1.85-.49-.03,0-.06-.03-.07-.06-.01-.03,0-.06,.01-.09,.17-.22,.49-.35,.89-.35,.27,0,.56,.06,.84,.17,.75,.3,1.23,.9,1.12,1.4,0,.04-.04,.07-.08,.07,0,0,0,0-.01,0Z"/><path class="cls-4" d="M80.57,80.5c.25,0,.53,.05,.81,.17,.71,.29,1.16,.85,1.06,1.3-.03-.06-.21-.38-.82-.65-.62-.27-1.71-.46-1.87-.49,.16-.21,.46-.32,.82-.32m0-.18c-.42,0-.78,.14-.96,.39-.04,.05-.05,.12-.02,.18,.02,.06,.08,.1,.14,.11,.12,.02,1.22,.21,1.83,.48,.57,.25,.72,.54,.73,.57,.03,.06,.09,.1,.16,.1,0,0,.01,0,.02,0,.08,0,.14-.06,.16-.14,.12-.54-.38-1.19-1.17-1.5-.29-.12-.6-.18-.88-.18h0Z"/></g><g><path class="cls-3" d="M81.52,82.58c-.27,0-.57-.06-.85-.17-.38-.15-.7-.39-.91-.66-.22-.29-.28-.58-.18-.84,.02-.04,.04-.08,.07-.12,.02-.02,.04-.04,.07-.04,0,0,.01,0,.02,0,.03,0,.06,.03,.07,.07,.03,.13,.25,.79,1.08,1.01,.32,.09,.64,.13,.94,.13,.33,0,.54-.06,.57-.07,0,0,.02,0,.03,0,.02,0,.05,0,.06,.02,.02,.02,.03,.06,.03,.09,0,.03-.01,.06-.03,.08-.13,.31-.49,.5-.98,.5Z"/><path class="cls-4" d="M79.73,80.84c.04,.14,.26,.84,1.14,1.07,.38,.1,.71,.13,.96,.13,.35,0,.56-.06,.6-.07,0,.02-.01,.05-.02,.07-.12,.29-.46,.45-.89,.45-.25,0-.53-.05-.81-.17-.76-.3-1.22-.92-1.04-1.38,.02-.04,.04-.07,.06-.11m2.7,1.14h0m-2.71-1.32c-.06,0-.11,.03-.15,.08-.03,.05-.06,.1-.08,.14-.11,.28-.05,.61,.19,.92,.22,.29,.55,.53,.95,.69,.29,.12,.6,.18,.88,.18,.52,0,.92-.21,1.06-.56,.01-.03,.02-.06,.03-.08,0-.02,0-.04,0-.06,0-.1-.08-.18-.18-.18h0s0,0,0,0c-.02,0-.03,0-.05,0-.03,0-.23,.06-.54,.06-.29,0-.6-.04-.91-.13-.78-.21-.98-.82-1.02-.95-.02-.07-.07-.12-.14-.13-.01,0-.02,0-.03,0h0Z"/></g></g><g><g><path class="cls-3" d="M85.17,82s-.07-.02-.08-.05c-.02-.03-.18-.35-.78-.61-.62-.27-1.72-.46-1.85-.49-.03,0-.06-.03-.07-.06-.01-.03,0-.06,.01-.09,.17-.22,.49-.35,.89-.35,.27,0,.56,.06,.84,.17,.75,.3,1.23,.9,1.12,1.4,0,.04-.04,.07-.08,.07,0,0,0,0-.01,0Z"/><path class="cls-4" d="M83.29,80.45c.25,0,.53,.05,.81,.17,.71,.29,1.16,.85,1.06,1.3-.03-.06-.21-.38-.82-.65-.62-.27-1.71-.46-1.87-.49,.16-.21,.46-.32,.82-.32m0-.18c-.42,0-.78,.14-.96,.39-.04,.05-.05,.12-.02,.18,.02,.06,.08,.1,.14,.11,.12,.02,1.22,.21,1.83,.48,.57,.25,.72,.54,.73,.57,.03,.06,.09,.1,.16,.1,0,0,.01,0,.02,0,.08,0,.14-.06,.16-.14,.12-.54-.38-1.19-1.17-1.5-.29-.12-.6-.18-.88-.18h0Z"/></g><g><path class="cls-3" d="M84.25,82.53c-.27,0-.57-.06-.85-.17-.38-.15-.7-.39-.91-.66-.22-.29-.28-.58-.18-.84,.02-.04,.04-.08,.07-.12,.02-.02,.04-.04,.07-.04,0,0,.01,0,.02,0,.03,0,.06,.03,.07,.07,.03,.13,.25,.79,1.08,1.01,.32,.09,.64,.13,.94,.13,.33,0,.54-.06,.57-.07,0,0,.02,0,.03,0,.02,0,.05,0,.06,.02,.02,.02,.03,.06,.03,.09,0,.03-.01,.06-.03,.08-.13,.31-.49,.5-.98,.5Z"/><path class="cls-4" d="M82.46,80.79c.04,.14,.26,.84,1.14,1.07,.38,.1,.71,.13,.96,.13,.35,0,.56-.06,.6-.07,0,.02-.01,.05-.02,.07-.12,.29-.46,.45-.89,.45-.25,0-.53-.05-.81-.17-.76-.3-1.22-.92-1.04-1.38,.02-.04,.04-.07,.06-.11m2.7,1.14h0m-2.71-1.32c-.06,0-.11,.03-.15,.08-.03,.05-.06,.1-.08,.14-.22,.56,.27,1.27,1.14,1.62,.29,.12,.6,.18,.88,.18,.52,0,.92-.21,1.06-.56,.01-.03,.02-.06,.03-.08,0-.02,0-.04,0-.06,0-.1-.08-.18-.18-.18h0s0,0,0,0c-.02,0-.03,0-.05,0-.03,0-.23,.06-.54,.06-.29,0-.6-.04-.91-.13-.78-.21-.98-.82-1.02-.95-.02-.07-.07-.12-.14-.13-.01,0-.02,0-.03,0h0Z"/></g></g><g><g><path class="cls-3" d="M80.15,82.96s-.07-.03-.08-.07c-.11-.45,.25-.97,.84-1.21,.19-.08,.4-.12,.6-.12,.35,0,.65,.13,.81,.36,.02,.03,.02,.06,0,.09-.01,.03-.04,.05-.07,.05-.1,.01-.96,.13-1.44,.35-.45,.2-.57,.46-.58,.49-.01,.03-.05,.06-.08,.06,0,0,0,0,0,0Z"/><path class="cls-4" d="M81.51,81.65c.32,0,.59,.11,.74,.32-.13,.02-.98,.14-1.46,.35-.48,.21-.61,.5-.62,.54-.1-.4,.23-.88,.79-1.1,.19-.08,.38-.11,.56-.11m0-.18h0c-.21,0-.43,.04-.63,.13-.63,.25-1.02,.82-.89,1.31,.02,.08,.09,.13,.16,.14,0,0,0,0,.01,0,.07,0,.14-.05,.17-.11,0-.01,.1-.25,.53-.44,.46-.21,1.32-.33,1.41-.34,.06,0,.12-.05,.14-.11,.03-.06,.02-.12-.02-.18-.18-.25-.5-.39-.88-.39h0Z"/></g><g><path class="cls-3" d="M80.98,83.47c-.42,0-.76-.19-.88-.49,0-.03-.02-.05-.02-.08,0-.03,0-.07,.03-.09,.02-.01,.04-.02,.06-.02,.01,0,.02,0,.03,0,.02,0,.23,.09,.57,.09h0c.2,0,.4-.03,.61-.08,.63-.16,.77-.72,.79-.83,0-.04,.04-.06,.07-.07,0,0,.01,0,.02,0,.03,0,.06,.02,.08,.04,.02,.04,.04,.07,.06,.11,.18,.46-.18,1.04-.81,1.29-.2,.08-.4,.12-.6,.12Z"/><path class="cls-4" d="M82.26,81.99s.04,.06,.05,.1c.17,.41-.17,.94-.76,1.18-.19,.08-.39,.11-.57,.11-.37,0-.69-.16-.8-.44,0-.02-.01-.04-.02-.07,.04,.01,.26,.09,.6,.09,.18,0,.39-.02,.63-.08,.69-.17,.84-.78,.86-.9m0-.18s-.02,0-.03,0c-.07,.01-.13,.07-.14,.14-.02,.1-.15,.62-.73,.76-.2,.05-.4,.07-.59,.07-.32,0-.52-.07-.54-.08-.02,0-.04-.01-.07-.01-.04,0-.09,.02-.12,.05-.05,.05-.07,.12-.05,.18,0,.03,.02,.06,.03,.09,.14,.34,.51,.55,.97,.55,.21,0,.43-.04,.63-.13,.69-.28,1.07-.9,.86-1.41-.02-.04-.04-.08-.07-.13-.03-.05-.09-.08-.15-.08h0Z"/></g></g></g><path class="cls-4" d="M81.02,86.84c-22.33,0-23.22-5.3-23.25-5.91l1.08-.05v-.02s.88,4.9,22.17,4.9,22.22-4.85,22.22-4.9v.02s1.08,.06,1.08,.06c-.03,.6-.98,5.9-23.3,5.9Z"/></g><path class="cls-4" d="M98.87,50.89c.15,.4,.13,.84,.33,1.22,.16,.31,.47,.49,.62,.82,.24,.53,1.02,.07,.78-.46-.13-.29-.36-.51-.57-.75s-.17-.76-.29-1.07c-.21-.54-1.08-.3-.87,.24h0Z"/></g></g><g><path class="cls-6" d="M17.48,154.6c-.22,0-.58,0-.58-.32,0-.22,2.66-1.37,3.13-1.66,8.14-4.9,10.22-13.86,10.22-21.53,0-.22,0-.4-.04-.54-.07-.29-.65-1.4-.65-1.66,0-1.08,3.02-2.56,4.07-2.56,.4,0,2.09,0,2.09,1.94,0,.65-.25,3.49-.25,4.07,0,.04,.43,4.86,3.42,9.94,3.46,5.83,7.81,8.24,11.09,10.01,.43,.25,1.01,.54,1.01,.76,0,.4-5.33,2.38-6.01,2.38-1.44,0-3.35-1.94-3.96-2.59-3.31-3.38-6.16-8.96-6.8-17.89-1.15,19.11-15.8,19.65-16.74,19.65Z"/><path class="cls-6" d="M72.74,146.57c.29-.47,.97-1.08,1.55-1.08s1.69,.43,2.2,1.48c-.54-3.35-.47-6.44-.4-7.6-2.12,.04-15.98,.32-16.74,.4-.32,.04-1.76,.61-2.09,.61-.5,0-1.26-.32-1.26-1.01,0-.76,.86-1.91,1.87-1.91,.22,0,.43,.04,1.37,.18,.4,.04,2.2,.04,2.7,.04,2.02,0,11.95-.07,14.18-.07,.72-.76,1.26-1.3,2.12-1.3,1.01,0,2.84,1.15,2.84,2.41,0,.58-.14,.65-1.12,1.19-.25,1.3-.25,2.59-.25,3.49,0,5.22,2.63,9.5,4.64,9.5,.76,0,1.44-.47,2.48-1.4,.54-.47,.61-.5,.72-.5,.07,0,.25,.11,.25,.29,0,1.4-.25,6.44-3.85,6.44-1.33,0-5.76-1.19-7.42-10.26-.11,.61-.54,.86-1.69,.86-.58,0-3.56-.04-4.25-.04h-1.98v1.19c0,.79,.14,4.72,.14,5.58,0,1.22-1.12,2.09-2.34,2.09-.61,0-1.58-.29-1.58-1.37,0-.29,.25-4.1,.25-4.64l-.07,.07c-2.88,2.88-7.2,4.54-9.5,4.54-.47,0-.86-.18-.86-.47,0-.14,.14-.22,1.55-.94,.5-.25,3.35-1.73,5.54-4.54,.54-.65,.86-1.08,1.94-1.08,.4,0,.9,.14,1.44,.5v-.94h-1.4c-.68,0-4.03,0-4.46,.14-.97,.32-1.26,.4-1.69,.4-.76,0-1.15-.4-1.15-.86,0-.43,.5-1.62,1.87-1.62,.29,0,1.51,.22,1.8,.22h5.08c-.04-2.16-.07-2.88-.11-3.46-.32-.5-.5-.72-.5-.94,0-.72,2.16-1.8,3.17-1.8,.54,0,1.22,.25,1.22,1.01,0,.11-.18,.68-.18,.83-.04,.4-.07,2.16-.07,2.66,1.04-1.22,1.87-2.45,2.12-2.81,.54-.83,1.4-.83,1.66-.83,1.04,0,1.94,.83,1.94,1.48,0,.47-.58,.97-1.01,1.19-.58,.32-3.24,1.48-4.75,1.94v.72h4.07Zm5.79-17.46c.43-1.01,1.62-1.84,2.27-1.84,1.12,0,2.92,1.55,2.92,2.63,0,.79-.94,1.15-1.76,1.15h-18.07c-1.73,2.38-5.87,5.18-8.1,5.18-.11,0-.43,0-.43-.25,0-.14,.11-.25,.4-.5,4-3.78,5.58-7.13,6.37-9.04,.14-1.98,2.48-1.98,2.59-1.98,1.22,0,2.23,.83,2.23,1.84,0,.83-1.04,2.27-1.48,2.81h13.07Zm-16.45,13.93c.14,0,.72-.07,1.51-.36,.07,0,.5-.18,.54-.18,.18,0,.36,.07,.36,.29,0,.86-2.02,2.63-4.18,2.63-.9,0-2.09-.4-2.09-1.3,0-.54,.54-1.26,1.76-1.33,.04,0,.94,.25,2.09,.25Zm14.87-11.05c.94,0,2.63,1.12,2.63,2.2s-.5,1.12-4.54,1.12c-1.08,0-5.47,.04-7.74,.04-.47,0-1.51,0-1.98,.07-.29,.04-1.73,.47-2.05,.47-1.01,0-1.12-.61-1.12-.94,0-.76,.79-1.66,1.62-1.66,.18,0,1.08,.22,1.3,.22,.07,0,8.42-.04,10.01-.04,.47-.94,1.22-1.48,1.87-1.48Zm-8.1,17.89c0-.29,.29-.29,.83-.29,1.62,0,6.84,2.09,6.84,4.32,0,.65-.72,1.48-1.76,1.48-1.19,0-1.98-.94-2.48-1.55-1.69-2.05-1.87-2.3-2.92-3.2-.22-.18-.5-.5-.5-.76Z"/><path class="cls-6" d="M97.98,140.88c2.45-.54,3.2-.72,3.96-.86h.11c.25,0,.29,.18,.29,.29,0,.4-.47,.65-4.28,2.77,.07,3.31,.11,6.12,.11,7.13,0,2.2,0,6.3-4.03,6.3-2.59,0-4.86-2.02-4.86-2.45,0-.07,.07-.18,.22-.18,.07,0,1.48,.14,1.73,.14,1.87,0,2.27-.58,2.48-1.01,.43-.68,.43-1.51,.58-8.75-1.44,.76-3.1,1.19-4,1.19-1.22,0-1.76-1.22-1.76-2.05,0-.76,.47-1.22,.97-1.4,.36-.14,4-.68,4.75-.79l-.07-6.23h-1.62c-.36,0-1.98,.65-2.34,.65-.5,0-1.15-.32-1.15-.9,0-.32,0-1.55,1.58-1.55,.18,0,1.01,.14,1.19,.14h2.3c0-.54-.07-1.94-.11-2.99-.07-1.15-.07-1.3-.4-1.55-.54-.43-.58-.47-.58-.72,0-1.12,1.8-2.74,3.35-2.74,1.12,0,1.8,.5,1.8,1.55,0,.54-.18,3.13-.18,3.71v2.74h.58c.22-.36,.65-1.12,1.37-1.12,1.01,0,1.84,1.04,1.84,1.91,0,.79-.9,.86-1.58,.86h-2.23v5.9Zm20.3,10.44c.4-1.01,1.55-1.69,2.16-1.69,1.01,0,2.74,1.44,2.74,2.52,0,.97-1.08,1.04-2.05,1.04h-14.4v.4c0,1.3,0,2.99-2.7,2.99-1.44,0-1.44-1.08-1.44-1.58,0-1.33,.43-15.12,.5-17.96-1.51,1.19-3.28,2.12-3.96,2.12-.18,0-.43,0-.43-.25,0-.04,.18-.29,.22-.36,1.83-1.98,2.77-3.46,4.35-6.73,.72-1.44,1.69-3.49,1.69-4.82,0-1.01,.97-1.48,1.84-1.48,1.04,0,2.7,.72,2.7,1.91,0,.61-.9,2.77-2.48,5.58l10.19,.04c.32-.76,1.15-1.51,1.87-1.51,.97,0,2.48,1.19,2.48,2.38,0,.79-.86,1.01-1.55,1.01h-5.83l-.07,4.03h2.34c.36-.58,1.26-1.12,1.8-1.12,.83,0,2.27,.83,2.27,1.94,0,.9-1.15,.97-1.73,.97h-4.68v4.1h2.45c.4-.76,1.22-1.26,1.73-1.26,.9,0,2.27,1.19,2.27,2.16,0,.86-.94,.86-1.8,.86h-4.64l.07,4.72h4.1Zm-8.24-12.38l-.04-4.07h-3.28v4.07h3.31Zm0,5.83v-4.1h-3.31v4.1h3.31Zm0,1.73h-3.31v4.9h3.28l.04-4.9Zm1.91-13.68c-.54,0-.76-.4-.76-.65,0-.36,.72-4.5,.94-5.33,.11-.5,.79-1.62,2.09-1.62,1.12,0,2.52,.79,2.52,1.94,0,1.69-2.95,4.5-3.67,5.18-.5,.25-.86,.47-1.12,.47Z"/><path class="cls-6" d="M153.59,144.59c.25-.83,1.29-1.62,1.94-1.62,.97,0,2.52,1.33,2.52,2.34,0,.72-.79,.76-1.37,.76h-16.38c-.18,.68-.25,1.01-.32,1.58h11.52c.61-.68,1.19-.86,1.48-.86,.97,0,2.81,1.33,2.81,2.34,0,.14-.32,.65-.4,.76-1.04,4.32-2.3,7.81-6.19,7.81-2.48,0-4.28-2.7-4.28-3.1,0-.14,.18-.14,.25-.14,.04,0,.29,.07,.32,.07,.47,.14,1.8,.32,2.38,.32,2.23,0,3.17-2.99,3.38-5.08,0-.11,.04-.43,.04-.65l-11.7,.11c-.29,.79-1.94,1.04-2.74,1.04s-1.12-.43-1.12-.76,.54-1.87,.61-2.2c.07-.22,.86-3.17,1.01-4.54h-1.08c-.29,0-1.58,.43-1.91,.43-.65,0-.76-.36-.76-.72,0-.32,.07-1.37,1.3-1.37,.14,0,.9,.14,1.08,.14h1.51c0-.32-.04-1.94-.04-2.3h-1.01c-.29,0-1.76,.4-2.12,.4-.43,0-.72-.14-.72-.68,0-.4,.18-1.37,1.19-1.37,.18,0,1.01,.18,1.19,.18h1.44v-.32c0-.22-.04-.61-.07-.79,0-.07-.29-.43-.29-.54,0-.29,.43-.43,.86-.68h-4.57v1.69c0,7.38-.11,12.45-3.56,16.56-1.26,1.48-3.24,2.81-4,2.81-.22,0-.43,0-.43-.22,0-.25,1.26-1.62,1.48-1.94,2.7-3.74,2.7-11.66,2.7-15.41v-1.66c0-.43,0-1.26-.32-1.58-.5-.47-.58-.54-.58-.79,0-.79,2.3-2.34,3.28-2.34,.29,0,1.33,.18,1.48,1.22h6.16l-.07-.86c0-.14-.22-.29-.29-.36-.22-.14-.36-.29-.36-.5,0-.68,2.02-1.62,3.35-1.62s1.37,.5,1.37,1.04l-.29,2.3h7.63c.61-1.19,1.51-1.55,2.09-1.55,1.01,0,2.81,1.26,2.81,2.34,0,.58-.83,.86-1.58,.86h-7.49c0,.32-.11,2.02-.11,2.38h2.12c.86-.94,1.4-1.04,1.62-1.04,.83,0,2.66,.94,2.66,1.69,0,.18-.07,.32-.14,.43-.29,.47-.32,.5-.32,.79,0,.22,.07,2.63,.07,2.95,0,1.22-2.56,1.51-2.88,1.51-1.15,0-1.19-.65-1.19-1.08h-7.63c-.18,.94-.18,1.04-.32,1.8h13Zm-.61-16.7c.65-1.3,1.69-1.62,2.23-1.62,1.12,0,2.88,1.33,2.88,2.45,0,.86-.72,.94-1.01,.97-.14,0-6.16-.04-8.93-.04,0,.4,0,1.22-.04,1.3-.29,.5-1.76,.9-2.52,.9s-1.58-.14-1.58-.83v-1.37h-4.93c0,.14,.04,.9,0,1.01-.18,.76-1.94,1.19-2.84,1.19-.58,0-1.22-.25-1.22-.9,0-.18,.07-1.08,.07-1.3l-6.12,.11c-.36,0-1.98,.54-2.34,.54-.5,0-1.15-.22-1.15-.83,0-.76,.65-1.84,1.62-1.84,.29,0,1.55,.25,1.84,.25h6.23c0-.25-.04-.83-.07-1.15-.04-.04-.29-.22-.36-.29-.07-.07-.18-.18-.18-.36,0-.9,2.38-1.8,3.31-1.8,.4,0,1.37,0,1.37,1.26,0,.04-.14,2.23-.14,2.34h5c0-.29,0-.9-.04-1.22-.07-.11-.5-.58-.5-.72,0-.83,2.38-1.73,3.38-1.73,1.19,0,1.37,.79,1.37,1.33,0,.32-.18,1.98-.18,2.34h4.86Zm-17.1,23.33c.29-.22,.5-.36,.79-.36s.47,.14,.47,.4c0,1.51-1.94,3.85-4.54,3.85-.94,0-2.2-.58-2.2-1.4,0-1.01,.97-1.33,1.84-1.33,1.51,0,2.92-.54,3.64-1.15Zm1.62,0c0-.72,1.55-1.08,2.3-1.08,.47,0,1.4,0,1.4,1.33,0,.29-.14,1.66-.18,1.94-.04,.58-.14,1.91-1.69,1.91s-1.51-1.26-1.66-3.64c-.04-.07-.18-.4-.18-.47Zm5.51-9.9v-2.34h-2.09c-.04,.4-.04,.58-.04,2.34h2.12Zm-.04-3.78c0-.5,0-.94-.07-1.22-.04-.07-.25-.47-.25-.58,0-.22,.36-.47,.79-.58h-2.41c0,.5-.04,1.08-.07,2.38h2.02Zm-1.37,13.46c0-.72,1.44-1.12,2.16-1.12,1.37,0,1.44,.94,1.44,3.31,0,.72-.25,1.73-1.62,1.73-.79,0-1.26-.43-1.4-.83-.04-.07-.32-2.45-.36-2.74,0-.04-.22-.29-.22-.36Zm7.13,2.99c-1.22,0-3.24-2.23-3.24-3.13,0-.68,1.26-1.01,1.84-1.01s1.22,0,1.4,.47c.14,.43,.9,2.45,1.08,2.92-.04,.54-.61,.76-1.08,.76Zm-.11-12.67v-2.34h-2.05c0,.32-.04,1.98-.07,2.34h2.12Z"/></g></g></g></g></svg>