<?xml version="1.0" encoding="UTF-8"?><svg id="_圖層_2" xmlns="http://www.w3.org/2000/svg" viewBox="0 0 176.86 179.04"><defs><style>.cls-1{fill:#fff;}.cls-2{fill:#102b51;}.cls-3{fill:#0f2b50;}.cls-4{fill:#102b50;stroke:#102b50;stroke-miterlimit:10;}</style></defs><g id="_圖層_1-2"><g><g><path class="cls-3" d="M11.16,164.72c.36-.5,.83-.94,1.44-.94,.72,0,2.2,.86,2.2,1.76,0,.4-.14,.54-.43,.76-.61,1.58-1.87,3.92-2.74,5.29,2.05,1.62,4.32,3.13,11.16,3.13,.94,0,6.84-.07,10.04-.54,.36-.04,2.12-.4,2.56-.4,.11,0,.4,0,.4,.22,0,.29-1.94,2.88-2.34,3.38-.83,1.04-2.34,1.04-4.07,1.04-11.23,0-15.19-.68-19.33-5.18-1.8,2.12-5.76,4.25-8.85,4.25-.76,0-1.19-.18-1.19-.36,0-.14,.29-.25,.54-.36,4.89-1.87,7.09-4.93,7.45-5.47-.29-.61-1.01-2.09-1.3-3.1-2.27,3.06-4.93,3.71-5.76,3.71-.29,0-.4-.07-.4-.25s1.04-1.08,1.22-1.26c1.84-2.02,3.6-4.46,4.46-7.78,.22-.32,.4-.61,1.55-.61,0-.25,.04-1.48,.07-1.73-2.52,3.06-6.52,4.28-6.88,4.28-.29,0-.43-.18-.43-.29,0-.18,.11-.22,.94-.86,2.48-1.94,4.07-4.18,4.64-5.04-.5,0-.65-.5-.97-1.58-.94,1.37-2.92,3.02-4.18,3.02-.11,0-.36-.04-.36-.25,0-.18,1.01-1.37,1.19-1.62,.79-1.15,1.69-2.95,1.94-4.28,0-.04-.07-.22-.07-.25,0-.47,.86-1.08,1.66-1.08,.86,0,1.51,.47,1.51,.94,0,.72-.14,.97-.72,2.05,.18,.36,.43,.58,1.62,1.48h.22c-.04-.68-.07-3.96-.07-4.72l-3.89,.07c-.29,0-1.62,.36-1.94,.36-.25,0-.9-.11-.9-.65s.29-1.48,1.48-1.48c.07,0,.61,.14,.68,.14H7.77c0-.5-.07-1.69-.29-2.2-.22-.14-.32-.32-.32-.54,0-1.08,2.05-2.05,3.06-2.05,.5,0,1.22,.29,1.22,1.01,0,.22-.11,1.15-.11,1.37,0,.36-.07,2.05-.07,2.41h1.84c.25-.32,.83-1.08,1.51-1.08,.79,0,1.91,1.04,1.91,1.8,0,.86-.79,.86-1.15,.86l-4.14-.04-.07,3.06,.04,1.84,.07,.07c.18-.4,1.04-2.23,1.04-3.74,0-.32,.4-1.01,1.44-1.01,.83,0,1.3,.47,1.3,1.08,0,.14-.32,1.48-.36,1.58,.18,.54,1.01,1.3,1.73,1.66,.47,.25,.68,.36,.68,.54,0,.61-1.4,1.51-1.94,1.51-.72,0-1.33-1.12-1.76-2.23-.58,.65-.65,.72-1.37,1.22,1.37,1.08,2.48,1.62,2.84,1.8,1.98,.97,2.2,1.08,2.2,1.37,0,.61-1.48,2.2-2.59,2.2-.86,0-2.66-2.59-3.24-3.64l.04,2.02c0,.5-.47,1.12-1.66,1.19,.25,.22,.29,.36,.29,.54,0,.4-.47,1.08-.79,1.58h2.05Zm-2.92,1.37l-.32,.61c.22,.68,.58,1.73,1.37,2.7,.72-1.58,1.08-2.66,1.26-3.31h-2.3Zm12.49,4.46v.29c0,2.02-2.02,2.02-2.09,2.02-.97,0-1.33-.5-1.33-1.15,0-.76,.25-6.41,.32-7.6,0-.07,.11-4.03,.11-5.94v-.94c0-.18-.5-.9-.5-1.08,0-.68,1.66-2.02,2.41-2.02,.43,0,.9,.11,1.01,.61h1.48c.32-.83,.76-2.63,1.04-4.1-.54,0-3.13-.04-3.71-.04h-.79c-.22,0-1.19,.36-1.44,.36-.72,0-.9-.29-.9-.65,0-.76,.47-1.51,1.33-1.51,.18,0,1.01,.25,1.19,.25h12.2c.22-.58,.94-1.51,1.62-1.51,.86,0,2.2,1.26,2.2,2.23,0,.79-.72,.79-1.55,.79h-6.73c.22,.11,.4,.22,.4,.54,0,.5-.4,1.15-.9,1.94-.14,.25-1.01,1.4-1.19,1.69h4.5c.43-.76,1.19-1.12,1.51-1.12,.76,0,2.12,1.12,2.12,1.84,0,.11-.07,.29-.14,.58-.11,.25-.11,1.22-.11,1.58,0,1.3,.11,6.62,.18,9.07,.04,.5,.14,3.28,.14,3.35,0,1.8-2.09,1.98-2.52,1.98-1.33,0-1.37-.61-1.37-1.58h-8.53l.04,.11Zm0-7.63c0,1.69-.07,4.36-.07,6.05h1.08c.04-3.06,.04-5.36,.04-8.03v-4.86h-.86c-.18,0-.18,.32-.18,.4v6.44Zm4.82-3.28l-.04-3.56h-1.19l-.04,3.56h1.26Zm0,4.61v-3.28h-1.26v3.28h1.26Zm-1.26,4.71h1.22c0-.36,.04-.72,.04-1.91v-1.51h-1.26v3.42Zm4.97,0v-12.89h-.97c-.04,2.77-.07,4.14-.07,11.34v1.55h1.04Z"/><path class="cls-3" d="M63.64,174.29c.9-1.87,2.3-1.87,2.52-1.87,1.15,0,3.1,1.44,3.1,2.63,0,1.04-1.19,1.15-2.34,1.15-1.4,0-19.37-.04-23-.04v.79c0,1.22-1.8,2.09-2.88,2.09-1.66,0-1.66-.9-1.66-1.84,0-.36,.25-8.57,.29-9.72,.14-7.27,.14-8.17,.14-13.46,0-.58,0-1.94-.18-2.38-.11-.22-.94-1.01-.94-1.26,0-.86,2.41-2.56,3.6-2.56,.4,0,1.58,0,1.83,1.62,7.2,0,10.08,0,17.42-.04,1.08-1.55,2.09-1.69,2.48-1.69,1.15,0,2.92,1.26,2.92,2.45,0,1.04-1.44,1.12-2.56,1.12h-19.58c-.54,0-.9,.11-.9,1.15v21.85h19.73Zm-1.66-5.43c.5-.97,1.58-1.62,2.27-1.62,1.01,0,2.63,1.26,2.63,2.34s-1.4,1.15-2.12,1.15h-17.06c-.29,0-1.73,.54-2.05,.54-.4,0-1.01-.29-1.01-.86,0-.68,.58-1.76,1.58-1.76,.22,0,1.3,.22,1.55,.22h4.75c.04-1.55,.07-2.27,.07-5.65h-2.66c-.32,0-1.76,.61-2.09,.61-.29,0-1.01-.18-1.01-.94,0-.68,.5-1.51,1.58-1.51,.18,0,1.01,.14,1.19,.14h2.99c0-.72-.04-4.25-.04-5.04l-3.67,.07c-.32,0-1.8,.58-2.16,.58-.68,0-1.22-.25-1.22-.94,0-.76,.68-1.62,1.62-1.62,.18,0,1.04,.18,1.22,.18h12.27c.68-1.04,1.48-1.4,1.98-1.4,.86,0,2.59,1.01,2.59,2.16,0,.94-1.04,.97-1.69,.97h-6.7c-.04,2.12-.04,2.95-.07,5.04h2.81c.22-.76,1.22-1.55,1.91-1.55,.94,0,2.23,1.15,2.23,2.2s-1.26,1.04-1.91,1.04h-5.04v5.65h5.26Z"/><path class="cls-3" d="M99.64,174.29c.9-1.87,2.3-1.87,2.52-1.87,1.15,0,3.1,1.44,3.1,2.63,0,1.04-1.19,1.15-2.34,1.15-1.4,0-19.37-.04-23-.04v.79c0,1.22-1.8,2.09-2.88,2.09-1.66,0-1.66-.9-1.66-1.84,0-.36,.25-8.57,.29-9.72,.14-7.27,.14-8.17,.14-13.46,0-.58,0-1.94-.18-2.38-.11-.22-.94-1.01-.94-1.26,0-.86,2.41-2.56,3.6-2.56,.4,0,1.58,0,1.83,1.62,7.2,0,10.08,0,17.42-.04,1.08-1.55,2.09-1.69,2.48-1.69,1.15,0,2.92,1.26,2.92,2.45,0,1.04-1.44,1.12-2.56,1.12h-19.58c-.54,0-.9,.11-.9,1.15v21.85h19.72Zm-1.65-5.43c.5-.97,1.58-1.62,2.27-1.62,1.01,0,2.63,1.26,2.63,2.34s-1.4,1.15-2.12,1.15h-17.06c-.29,0-1.73,.54-2.05,.54-.4,0-1.01-.29-1.01-.86,0-.68,.58-1.76,1.58-1.76,.22,0,1.3,.22,1.55,.22h4.75c.04-1.55,.07-2.27,.07-5.65h-2.66c-.32,0-1.76,.61-2.09,.61-.29,0-1.01-.18-1.01-.94,0-.68,.5-1.51,1.58-1.51,.18,0,1.01,.14,1.19,.14h2.99c0-.72-.04-4.25-.04-5.04l-3.67,.07c-.32,0-1.8,.58-2.16,.58-.68,0-1.22-.25-1.22-.94,0-.76,.68-1.62,1.62-1.62,.18,0,1.04,.18,1.22,.18h12.27c.68-1.04,1.48-1.4,1.98-1.4,.86,0,2.59,1.01,2.59,2.16,0,.94-1.04,.97-1.69,.97h-6.7c-.04,2.12-.04,2.95-.07,5.04h2.81c.22-.76,1.22-1.55,1.91-1.55,.94,0,2.23,1.15,2.23,2.2s-1.26,1.04-1.91,1.04h-5.04v5.65h5.26Z"/><path class="cls-3" d="M109.37,176.16c-.22,0-.58,0-.58-.32,0-.22,2.66-1.37,3.13-1.66,8.13-4.9,10.22-13.86,10.22-21.53,0-.22,0-.4-.04-.54-.07-.29-.65-1.4-.65-1.66,0-1.08,3.02-2.56,4.07-2.56,.39,0,2.09,0,2.09,1.94,0,.65-.25,3.49-.25,4.07,0,.04,.43,4.86,3.42,9.93,3.46,5.83,7.81,8.24,11.09,10.01,.43,.25,1.01,.54,1.01,.76,0,.4-5.33,2.38-6.01,2.38-1.44,0-3.35-1.94-3.96-2.59-3.31-3.38-6.16-8.96-6.8-17.89-1.15,19.11-15.8,19.65-16.74,19.65Z"/><path class="cls-3" d="M156.02,163.03c.5-.11,2.95-.83,3.13-.83,.29,0,.43,.11,.43,.29,0,.54-1.62,1.73-3.49,2.7,0,1.55,.21,9.54,.21,9.9,0,2.16-1.8,3.13-2.77,3.13s-1.65-.5-1.65-1.51,.39-8.39,.43-9.97c-.87,.36-4.07,1.55-4.82,1.55-.86,0-2.09-.61-2.09-2.02,0-1.04,.5-1.3,.72-1.4,.54-.25,5.26-.97,6.19-1.08,.11-4.54,.14-5.04,.14-6.34h-2.59c-1.19,3.06-3.35,5.33-4.36,5.33-.14,0-.32-.04-.32-.25,0-.11,.5-1.37,.58-1.62,.68-2.05,1.33-4.9,1.44-7.96-.29-.29-.36-.36-.36-.54,0-.79,1.48-1.73,2.81-1.73,1.19,0,1.44,.5,1.44,1.44,0,.58-.36,2.12-.76,3.71h2.12c-.04-3.35-.04-4.36-.11-4.9-.07-.58-.18-.79-.43-1.01-.43-.36-.58-.5-.58-.72,0-1.26,2.12-2.56,3.42-2.56,.5,0,1.69,.22,1.69,1.22,0,.18-.11,1.12-.14,1.33-.18,1.94-.18,2.41-.25,6.77h.25c.4-.79,.72-1.48,1.4-1.48,1.01,0,1.84,1.04,1.84,1.91,0,.79-.94,1.01-1.4,1.01h-2.12v5.62Zm1.15,5.62c-.22,0-.54-.11-.54-.32,0-.07,.11-.18,.94-1.08,2.63-2.74,4.5-6.33,4.97-7.88,.43-1.37,.65-2.05,2.12-2.05,.86,0,1.98,.29,1.98,1.58,0,1.51-3.42,7.27-9,9.68-.11,.04-.36,.07-.47,.07Zm10.08-7.74c.94-2.48,1.12-3.02,2.48-3.02,.58,0,2.12,.25,2.12,1.98,0,.65-1.19,4.36-4.61,8.21-3.71,4.18-8.17,6.08-10.01,6.08-.22,0-.54-.04-.54-.36,0-.11,.11-.22,.18-.25,.07-.07,.36-.25,.43-.32,6.73-4.5,9.4-10.91,9.94-12.31Zm4.57-5.83c.36-.47,1.08-1.44,2.3-1.44,1.08,0,2.74,1.01,2.74,2.12,0,.29-.07,.43-.5,1.26-.5,15.05-2.12,17.21-3.64,18.68-1.26,1.22-2.66,1.22-3.46,1.22-1.19,0-3.53-1.4-4.43-2.41-.25-.25-.94-1.22-.94-1.44,0-.11,.04-.22,.18-.22,.18,0,.29,.04,1.26,.4,.47,.14,1.73,.36,2.41,.36,1.33,0,2.16-.72,2.66-2.16,1.51-4.43,1.76-12.06,1.76-13.68,0-.86,0-1.12-.47-1.12l-8.35,.04c-1.55,1.55-4.03,2.88-5.22,2.88-.14,0-.5-.04-.5-.32,0-.11,1.19-1.22,1.4-1.48,2.59-2.88,4.43-6.95,4.64-8.03,.21-1.15,.43-2.2,2.16-2.2,1.22,0,2.48,.68,2.48,2.02,0,1.22-1.01,2.56-3.28,5.51h6.77Z"/></g><g><polygon class="cls-1" points="32.89 130.89 32.89 116.99 40.39 95.08 43.52 92.51 53.8 89.66 60.41 91.34 61.97 93.47 61.97 99.24 59.92 100.79 60.41 106.53 77.55 101.23 78.67 97.71 68.22 89.66 63.82 79.55 58.34 72.84 60.41 56.16 111.81 47.41 125.56 72.11 122.06 82.6 115.12 86.07 105.07 95.93 100.7 97.71 100.73 102.15 105.07 103.08 118.82 108.95 127.79 111.59 137.64 119.6 138.95 124.6 137.64 129.76 32.89 130.89"/><polygon class="cls-2" points="43.52 129.76 42.89 117.82 47.74 113.08 49.13 108.95 55.26 108.95 57.26 130.36 43.52 129.76"/><path class="cls-2" d="M124.82,110.98l-6,19.97,18.82-.05,1.31-6.3s1.1-4.95-8.19-9.48l-5.94-4.14Z"/><g><path class="cls-2" d="M82.22,67.59c.36-.14,.68-.41,.82-.78,.13-.37,.06-.77-.02-1.15-.05-.23-.11-.47-.28-.64-.02-.02-.04-.03-.06-.05-.08-.06-.17-.11-.27-.15-1.01-.45-2.1-.41-3.15-.63-.61-.12-1.21-.25-1.82-.38-.74-.15-1.47-.44-2.23-.41-.39,.01-.74,.13-1.07,.34-.23,.15-.75,.4-.79,.7-.05,.38,.75,.65,1.02,.78,.36,.17,.71,.35,1.07,.52,.91,.44,1.81,.89,2.74,1.28,1.24,.52,2.71,1.1,4.03,.57Z"/><path class="cls-2" d="M107.12,68.92c.29-.05,1.14-.1,1.19-.48,.04-.3-.4-.68-.58-.88-.27-.3-.57-.5-.94-.61-.72-.23-1.51-.15-2.26-.2-.62-.04-1.23-.08-1.85-.12-1.08-.07-2.12-.4-3.21-.23-.1,.01-.2,.03-.3,.07-.02,0-.05,.02-.07,.03-.2,.11-.33,.33-.44,.54-.18,.34-.36,.72-.33,1.11,.03,.4,.27,.74,.58,.97,1.14,.87,2.71,.7,4.04,.53,1-.13,1.99-.32,2.99-.5,.39-.07,.78-.15,1.17-.22Z"/><path class="cls-4" d="M75.11,75.96c-.27,.01-.53-.16-.62-.43-.11-.33,.07-.69,.4-.8l4.87-1.61-5.1-2.18c-.32-.14-.47-.51-.33-.83,.14-.32,.51-.47,.83-.33l6.63,2.84c.24,.1,.39,.34,.38,.61-.01,.26-.18,.49-.43,.57l-6.45,2.14c-.06,.02-.12,.03-.18,.03Z"/><circle class="cls-2" cx="101.96" cy="75.94" r="2.56"/><path class="cls-2" d="M90.94,92.5c-1.15,.04-2.37-.06-3.68-.31-3.97-.76-6.78-2.41-8.35-4.91-2.07-3.29-1.17-6.8-1.13-6.95,.14-.52,.64-.84,1.17-.77l20.89,3.14c.57,.08,.96,.61,.88,1.18-.02,.17-.62,4.28-4.1,6.78-1.59,1.14-3.49,1.75-5.68,1.83Zm-11.26-10.71c-.08,1.03,0,2.78,1.02,4.4,1.25,1.98,3.6,3.31,6.96,3.95,3.21,.61,5.81,.22,7.74-1.17,1.82-1.31,2.65-3.21,3-4.36l-18.73-2.82Z"/><path class="cls-2" d="M54.39,62.33l-2.49-2.01c-.31-.4-.55-.79-.74-1.14-.42-.79-.55-1.36-.55-1.36h0c-.35-.85-.13-1.19-.39-2.06,0,0-.31,.04-1.01-.09-1.76-.32-5.52-5.08-4.99-9.22,.32-2.49,1.72-1.87,1.44-4.13-.28-2.26,.58-1.83,1.83-3.33,.29-.35,.53-.94,.49-1.38-.33-3.41,.69-6.13,2.65-8.39,.65-.76,1.41-1.46,2.26-2.12,.53-.42,1.19-.69,1.83-.9,.21-.07,.36-.16,.46-.27,.1-.13,.16-.3,.18-.52,.28-2.36-2.19-3.73-.74-5.6,.27-.35,.56-.69,.86-1.01,.89-.96,1.91-1.77,3.08-2.37,.14-.07,.26-.16,.36-.25,.29-.29,.45-.67,.6-1.08,.48-1.28,1.14-2.38,1.99-3.26,.86-.91,1.91-1.6,3.19-2.03,1.16-.4,2.41-.48,3.56-.88,.67-.23,1.36-.69,1.83-1.24,2.53-2.92,5.84-3.52,9.32-3.7,.35-.02,.72-.07,1.04,.04,1.18,.41,2.12,.08,3.13-.7,1.86-1.43,3.92-1.8,6.11-.87,.2,.09,.54-.02,.76-.15,1.7-.95,3.53-1.61,5.4-1.38,1.66,.2,3.1-.24,4.62-.72,2.14-.66,3.91,.34,5.55,1.57,.44,.33,.8,.42,1.34,.27,1.92-.53,3.73-.25,5.35,.96,.58,.44,1.15,.92,1.63,1.46,.7,.8,1.7,.84,2.58,1.11,1.35,.41,2.44,1.16,3.28,2.28,.71,.96,1.3,2.01,1.98,3,.14,.21,.38,.4,.62,.48,2.18,.79,3.92,2.21,5.26,4.12,.4,.57,.63,1.29,.81,1.99,.22,.84,.63,1.5,1.27,2.02,1.25,1.02,1.91,2.39,2.24,4,.08,.38,.39,.77,.7,1.02,1.12,.89-1.92-3.39-.89-2.4,1.21,1.17,1.95,2.73,2.54,4.35,.12,.32,.3,.65,.54,.89,2.01,2.04,1.6,1.11,1.62,4.06,0,.89,1.64,2.64,1.94,3.41,1.32,3.44,1.55,4.34,.24,7.8-.17,.44-.14,.7,.12,1.05,3.04,3.98,2.03,9.04,2.03,9.04,0,0,.34,5.5-1.21,7.08-.51,.52-1.09,1-1.74,1.42-.06,.04-.11,.09-.15,.16-.12,.17-.21,.42-.24,.62-.27,1.72-1.15,3.11-2.23,4.38-.02,.02-.03,.04-.05,.05-.22,.25-.5,.52-.8,.6-.98,.27-1.25,2.42-1.94,3.11-.91,.92-2.11,1.28-3.39,1.27-.19-.04-.36-.06-.54-.08-1.94-.13-1.98,1.35-1.98,1.35,0,0,.51,2.96-3.12,1.88s0,0,0,0c-.58,.4-.51,.8-1.67,1.34-1.16,.54-3.32-.65-3.32-.65l-.33-.24c-.23-.22-.04-.06-.25-.29-.07-.11-.15-.22-.24-.35-.64-.86-.55-.53-.59-1.52-.02-.63-.16-.96-.85-1.07-1.41-.24-2.56-1-3.49-2.14-1.49-1.82-2.42-3.89-2.58-6.31-.04-.6-.25-.94-.84-1.09-2.64-.64-4.38-2.17-5.67-4.14-.35,0-.69-.02-1.03-.06-1.19,.36-2.49,.41-3.65,.1-.11-.01-.23-.01-.34-.03-.49-.06-.96-.17-1.43-.32-.91,.48-1.92,.8-2.95,1-.77,.24-1.58,.32-2.39,.24-.3,0-.59,0-.88,0-2.96-.13-5.73-1.09-7.77-3.11-.05-.02-.1-.04-.15-.05-.02,.03-.05,.06-.08,.09-.15,.2-.31,.39-.47,.57-.07,.08-.13,.16-.2,.23-.22,.24-.46,.47-.7,.69-1.59,1.41-3.53,2.18-5.75,2.41-.83,.08-1.71-.13-2.54-.31-.5-.11-.89-.1-1.22,.2-.09,.09-.17,.2-.25,.35-.25,.46-.63,.83-.92,1.26-.29,.41-.59,.78-.9,1.14-.12,.14-.25,.27-.38,.41-.15,.15-.3,.31-.45,.45-.23,.21-.45,.41-.69,.6-.03,.02-.06,.04-.09,.07-1.5,1.17-3.2,1.9-5.08,2.3-2.41,.14-1.26-.89-3.12-1.33-.08-.04-.17-.08-.28-.1-.53-.11-1.05-.26-1.55-.43-1.78-.61-3.22-1.4-4.35-2.15-.02,.03-.06,.04-.1,.04"/><path class="cls-2" d="M91.42,100.41c-9.57,.36-18.68-3.56-24.93-11.28-6.82-8.44-5.21-24.7-5.14-25.39,.07-.66,.65-1.13,1.31-1.06,.66,.07,1.13,.66,1.06,1.31-.02,.16-1.58,15.97,4.62,23.63,5.75,7.11,14.16,10.72,23,10.39,4.44-.16,8.98-1.32,13.36-3.51,9.78-4.9,13.04-18.01,13.99-23.41,.07-.42,.27-1.55,1.4-1.42,1.13,.12,1.07,1.25,1.05,1.68,0,.2-.07,.39-.17,.56-1.32,7.23-5.03,19.64-15.2,24.74-4.7,2.36-9.59,3.6-14.37,3.77Z"/></g><path class="cls-2" d="M78.08,105.75c-.63-.04-1.12-.7-1.1-1.51l.16-6.6c.02-.84,.57-1.52,1.23-1.52,.66,0,1.18,.68,1.16,1.52l-.16,6.6c-.02,.84-.57,1.52-1.23,1.52-.02,0-.04,0-.06,0Z"/><path class="cls-2" d="M101.77,106.1c-.66,.08-1.28-.65-1.4-1.63l-.67-5.59c-.12-.98,.32-1.84,.97-1.92s1.28,.65,1.4,1.63l.67,5.59c.12,.98-.32,1.84-.97,1.92Z"/><path class="cls-2" d="M62.67,78.6c-.19,0-.39-.03-.58-.13-7.34-3.66-4.62-13.88-4.5-14.31,.18-.64,.83-1.01,1.47-.84,.64,.18,1.01,.83,.84,1.47-.03,.12-2.3,8.76,3.26,11.54,.59,.29,.83,1.01,.54,1.6-.2,.41-.6,.65-1.03,.66Z"/><path class="cls-2" d="M116.35,87.12c-.62,.02-1.16-.43-1.23-1.06-.08-.66,.39-1.25,1.05-1.32,6.22-.72,7-9.64,7-9.73,.05-.66,.63-1.15,1.29-1.1,.66,.05,1.15,.63,1.1,1.29-.04,.45-.96,10.98-9.11,11.92-.03,0-.06,0-.09,0Z"/><path class="cls-2" d="M49.86,53.38s-1.77,1.61,.21,5.62c0,0-.89,6.32,2.73,9.1,0,0-.3,5.97,5.63,6.9,0,0-.26-6.39-.24-6.35s1.74-8.61,1.74-8.61l-10.07-6.66Z"/><path class="cls-2" d="M136.51,64.38s1.23,2.06-1.83,5.32c0,0-.98,6.31-5.25,7.92,0,0-1.44,5.8-7.38,4.98,0,0,2.09-6.04,2.06-6.01s.83-8.74,.83-8.74l11.56-3.47Z"/><path class="cls-2" d="M50.6,110.05c-.8,.03-1.33,.01-1.4,0-.51-.02-.9-.45-.88-.95,.02-.51,.44-.9,.95-.88,.08,0,5.56,.18,8.58-1.84,.9-.6,1.4-1.23,1.46-1.8,.06-.59-.37-1.04-.37-1.04-.3-.29-.36-.74-.15-1.1,1.11-1.93-.14-5-.72-6.02-.23-.4-.12-.91,.25-1.19,.04-.03,.05-.05,.05-.05,.07-.23-.46-1.09-1.14-1.7l-4.22-3.11-10.38,3.84c-.06,.02-.12,.04-.19,.05h0s-.71,.13-.96,.62c-.22,.42-.1,1.13,.34,1.99,.09,.17,.12,.37,.08,.56-.22,1.31-.27,4.18,.96,4.69,.47,.2,.69,.73,.49,1.2s-.73,.69-1.2,.49c-2.59-1.08-2.26-5.17-2.1-6.39-.61-1.34-.67-2.48-.19-3.4,.6-1.15,1.81-1.48,2.2-1.56l10.77-3.98c.29-.11,.61-.06,.86,.12l4.65,3.43s.05,.04,.07,.05c.31,.28,1.85,1.72,1.78,3.16-.01,.31-.1,.6-.25,.85,.58,1.24,1.71,4.21,.69,6.69,.27,.44,.56,1.11,.48,1.94-.11,1.16-.87,2.23-2.27,3.17-2.52,1.69-6.26,2.07-8.27,2.15Z"/><path class="cls-2" d="M52.92,96.51l-5.04,.19c-.42,.02-.8-.26-.91-.66-.12-.4,.06-.83,.42-1.05,.36-.21,2.49-.92,4.21-1.48,.36-.12,.75,0,.99,.29l1.01,1.21c.22,.27,.27,.64,.13,.96-.14,.32-.45,.53-.8,.54Z"/><path class="cls-2" d="M61.61,100.93c-.77,.03-1.46-.63-1.72-.88-.36-.35-.38-.93-.03-1.29,.35-.36,.93-.38,1.29-.03,0-.07-.01-.13-.02-.19-.01-.08-.01-.16,0-.24,0-.02,.31-2.57-.18-4.89-.29-1.36-3.36-1.87-4.81-1.91-.51-.01-.9-.43-.89-.94,.01-.51,.44-.91,.94-.89,.6,.01,5.89,.23,6.56,3.36,.5,2.36,.28,4.81,.22,5.38,.07,.64,.09,1.92-.82,2.38-.18,.09-.37,.14-.54,.14Z"/><path class="cls-2" d="M63.07,128.07c-.55,.07-1.09-.24-1.28-.79l-1.8-20.69c-.11-.31-.09-.66,.07-.95s.43-.51,.75-.6c.32-.09,6.51-1.72,9.62-2.45,.71-.17,1.42,.33,1.47,1.09,.04,.59-.4,1.11-.98,1.25-2.35,.55-5.92,1.47-8.24,2.09l1.34,19.39c.21,.59,0,1.28-.56,1.55-.12,.06-.25,.1-.38,.12Z"/><path class="cls-2" d="M138.4,128.48c-.11,0-.22,0-.33-.03-.64-.16-1.03-.81-.88-1.45l.58-2.61c.39-3.77-1.62-5.04-4.94-7.14-1.31-.83-2.8-1.77-4.25-2.99-4.64-3.92-19.99-8.03-20.17-8.08-.64-.17-1.02-.82-.85-1.46s.82-1.02,1.46-.85c.75,.2,16.05,4.3,21.11,8.57,1.32,1.11,2.67,1.97,3.98,2.8,3.41,2.15,6.63,4.19,6.03,9.5,0,.05-.01,.1-.03,.15l-.6,2.68c-.13,.53-.6,.89-1.12,.91Zm.55-3.88h0s0,0,0,0Z"/><path class="cls-2" d="M56.96,131.08c-.53-.08-.95-.51-1.01-1.07l-2.01-20.59c-.06-.66,.42-1.24,1.07-1.31,.66-.06,1.24,.42,1.31,1.07l2.01,20.59c.06,.66-.42,1.24-1.07,1.31-.1,0-.2,0-.3,0Z"/><path class="cls-2" d="M113.14,129.75c-.16,.02-.32,0-.48-.04-.63-.19-.99-.86-.79-1.49l5.49-19.5c.19-.63,.86-.99,1.49-.79,.63,.19,.99,.86,.79,1.49l-5.49,19.5c-.14,.47-.55,.79-1.01,.84Z"/><path class="cls-2" d="M120.16,129.94c-.16,.02-.33,0-.5-.05-.63-.2-.98-.87-.78-1.5l4.87-17.7c.2-.63,.87-.98,1.5-.78,.63,.2,.98,.87,.78,1.5l-4.87,17.7c-.15,.46-.55,.77-1,.83Z"/><path class="cls-2" d="M32.8,128.5h-.01c-.56,.01-1.03-.43-1.04-.99-.25-9.9,1.28-14.07,1.35-14.25l6.48-18.79c.18-.53,.76-.81,1.29-.63,.53,.18,.81,.76,.63,1.29l-6.49,18.82c-.02,.06-1.46,4.08-1.23,13.51,.01,.56-.42,1.02-.98,1.04Z"/><path class="cls-2" d="M43.21,128.12c-.56,.02-1.03-.42-1.05-.98l-.36-9.68c-.02-.41,.22-.79,.59-.96,4.95-2.32,5.82-7.31,5.86-7.52,.09-.55,.61-.93,1.17-.84,.55,.09,.93,.61,.84,1.16-.04,.25-.98,5.84-6.4,8.74l.34,9.02c.02,.56-.42,1.03-.98,1.05Z"/><g><polygon class="cls-2" points="95.92 110.47 102.32 118.88 105.42 103.21 102.56 102.18 95.92 110.47"/><polygon class="cls-2" points="96.09 119.45 94.28 113.96 89.9 125.24 96.09 119.45"/><polygon class="cls-2" points="81.35 120.19 84.09 124.96 83.73 115.11 81.35 120.19"/><path class="cls-2" d="M74.17,101.91l.6,15.9,8.35-7.8c-3.17-4.08-5.1-7.17-6.17-8.78l-2.78,.68Z"/><path class="cls-2" d="M108.1,104.17s-.46,.14-.54,.54l-3.41,17.23c-.09,.46-.44,.83-.9,.93-.08,.02-.15,.03-.23,.03-.38,.01-.76-.16-.99-.47l-4.3-5.64,.87,2.63c.15,.44,.02,.93-.32,1.25l-10.57,9.89c-.22,.2-.49,.31-.77,.32-.25,0-.5-.06-.71-.2,0,0,0-.01-.01-.01-.12,.1-.26,.18-.41,.23-.09,.03-.19,.04-.29,.05-.44,.02-.86-.21-1.08-.6l-5.47-9.51c-.19-.34-.21-.75-.05-1.1l2.1-4.48-6.53,6.1c-.21,.2-.49,.31-.77,.32-.17,0-.34-.02-.5-.09-.43-.18-.72-.59-.74-1.06l-.64-17.21-.96,.56-9.72,2.39,1.92,23.5v1.18h49.24l6.52-23.02-10.74-3.75Z"/><path class="cls-1" d="M85.83,109.68s.02,.04,.02,.06c0-.02-.01-.04-.02-.06Z"/><path class="cls-1" d="M93.27,109.96c.05-.11,.11-.21,.19-.31-.08,.09-.14,.19-.19,.31Z"/></g></g></g></g></svg>