<?xml version="1.0" encoding="UTF-8"?><svg id="_圖層_2" xmlns="http://www.w3.org/2000/svg" viewBox="0 0 175 168.34"><defs><style>.cls-1{fill:none;}.cls-2{fill:#fff;}.cls-3{fill:#102b50;}.cls-4{fill:#0f2c51;}.cls-5{fill:#0e2c50;}.cls-6{fill:#0d2b4d;}</style></defs><g id="_圖層_1-2"><g><rect class="cls-1" y="21.67" width="175" height="125"/><g><g><polygon class="cls-2" points="82.97 87.75 90.12 86.21 89.85 82.44 79.09 75.14 74.81 65.21 72.51 63.84 71.39 58.91 72.74 53.07 97.37 43.81 119.92 54.37 127.93 62.79 124.89 70.95 121.65 72.59 119.21 73.8 109.58 82.18 106.29 83.25 106.82 87.12 108.81 87.31 116.04 89.86 108.23 109 84.91 105.82 82.97 87.75"/><path class="cls-4" d="M74.2,89.66s-3.72,1.75-4.49,4.65l-6.28,3.36s-3.73-.46-7.68,2.49c-3.96,2.95-3.21,8.86-3.21,8.86,0,0,3.01,7.11,8.78,6.65,5.77-.46,11.44-5.02,11.44-5.02l14.18-9.74-12.74-11.24Z"/><g><path class="cls-2" d="M31.76,93.36s1.75,2.02,6.68,4.79c4.93,2.77,11.99,9.72,14.05,11.91s11.69,6.24,11.82,.88c.13-5.36-3.88-10.06-4.51-9.97s-17.57-9.25-17.57-9.25l-10.47,1.64Z"/><path class="cls-4" d="M61.19,114.38c-3.4,0-7.93-2.37-9.26-3.78-2.56-2.74-9.33-9.22-13.86-11.76-4.99-2.8-6.81-4.87-6.89-4.96l-.92-1.06,12.12-1.9,.23,.13c6.09,3.36,16.05,8.75,17.27,9.15,.38,.02,.72,.28,.98,.51,1.37,1.22,4.35,5.49,4.23,10.25-.05,1.95-1.14,2.77-2.05,3.12-.55,.21-1.18,.3-1.85,.3Zm-27.72-20.49c.99,.83,2.71,2.1,5.36,3.59,5.07,2.85,12.15,9.83,14.23,12.05,1.45,1.55,7.03,4.01,9.43,3.09,.44-.17,1.02-.52,1.05-1.7,.11-4.62-3.08-8.67-3.86-9.18-.51-.09-2.03-.78-9.25-4.67-3.7-1.99-7.38-4.01-8.32-4.53l-8.63,1.35Zm26.23,6.32s0,0,0,0c0,0,0,0,0,0Z"/></g><path class="cls-4" d="M118.98,90.85s-4.32,3.92-5.13,6.8c0,0-5.76,.66-6.17,4.89,0,0-5.5-2.66-10.07,.05-4.56,2.71-3.35,11.26-3.35,11.26,0,0-1.15,5.84,5.62,5.79,6.77-.06,16.86-9.22,16.86-9.22l5.53-5.88s2.86-3.93,2.09-6.91c-.78-2.97-3.16-5.54-3.16-5.54l-2.23-1.25Z"/><g><path class="cls-4" d="M66.63,105.93l-.43-5.35s-.75-4.56,1.09-7.15c1.42-2.1,4.18-2.33,4.18-2.33l3.31-.74,1.39,16.07-9.53-.49Z"/><g><path class="cls-4" d="M92.81,56.86c.34-.1,.67-.32,.83-.65,.15-.33,.13-.71,.08-1.07-.03-.22-.06-.45-.2-.62-.01-.02-.03-.04-.05-.05-.07-.07-.15-.12-.23-.16-.9-.5-1.91-.57-2.87-.87-.55-.17-1.1-.34-1.65-.51-.67-.21-1.32-.54-2.03-.58-.37-.02-.7,.05-1.03,.22-.22,.12-.73,.3-.8,.58-.08,.35,.64,.67,.88,.82,.32,.19,.63,.39,.95,.58,.8,.49,1.61,.99,2.43,1.43,1.1,.6,2.41,1.27,3.69,.89Z"/><path class="cls-4" d="M110.41,54.76c.25-.12,1-.39,.95-.74-.04-.28-.53-.51-.74-.64-.31-.2-.64-.3-1.01-.31-.71-.02-1.39,.26-2.07,.41-.56,.12-1.13,.24-1.69,.37-.98,.21-2,.19-2.93,.62-.09,.04-.17,.08-.25,.14-.02,.01-.04,.03-.05,.05-.15,.15-.21,.38-.25,.6-.07,.36-.13,.74,0,1.08,.13,.35,.44,.59,.77,.72,1.24,.48,2.61-.07,3.76-.57,.86-.37,1.71-.8,2.55-1.22,.33-.17,.66-.33,.99-.5Z"/><path class="cls-4" d="M68.05,52.8l-2.11-1.7c-.26-.34-.47-.67-.62-.96-.36-.67-.47-1.15-.47-1.15h0c-.29-.72-.11-1.01-.33-1.75,0,0-.26,.03-.86-.08-1.49-.27-4.67-4.3-4.22-7.81,.27-2.11,1.45-1.59,1.22-3.5s.49-1.55,1.55-2.82c.25-.3,.45-.79,.42-1.17-.28-2.89,.59-5.19,2.24-7.11,.55-.64,1.2-1.24,1.91-1.8,.45-.35,1.01-.58,1.55-.76,.18-.06,.3-.13,.39-.23,.08-.11,.13-.25,.16-.44,.24-2-1.86-3.16-.63-4.74,.23-.3,.47-.58,.73-.85,.76-.81,1.61-1.5,2.61-2.01,.12-.06,.22-.13,.31-.21,.24-.25,.38-.57,.51-.91,.41-1.08,.96-2.01,1.69-2.76,.73-.77,1.62-1.35,2.7-1.72,.98-.34,2.04-.41,3.02-.74,.57-.2,1.15-.58,1.55-1.05,2.14-2.47,4.95-2.98,7.89-3.14,.29-.02,.61-.06,.88,.04,1,.35,1.8,.07,2.65-.59,1.57-1.21,3.32-1.53,5.18-.73,.17,.07,.46-.02,.65-.12,1.44-.81,2.99-1.36,4.58-1.17,1.41,.17,2.62-.21,3.91-.61,1.81-.56,3.31,.29,4.7,1.33,.37,.28,.68,.35,1.14,.23,1.63-.45,3.16-.21,4.53,.82,.49,.37,.97,.78,1.38,1.24,.6,.68,1.44,.71,2.19,.94,1.14,.34,2.07,.98,2.77,1.93,.6,.81,1.1,1.71,1.67,2.54,.12,.18,.33,.33,.52,.41,1.85,.67,3.32,1.87,4.45,3.49,.34,.48,.53,1.1,.68,1.68,.18,.71,.54,1.27,1.08,1.72,1.06,.87,1.62,2.03,1.9,3.39,.07,.32,.33,.66,.59,.86,.95,.75-1.62-2.87-.76-2.03,1.02,.99,1.65,2.31,2.15,3.69,.1,.27,.26,.55,.46,.75,1.7,1.73,1.36,.94,1.37,3.44,0,.76,1.39,2.24,1.64,2.89,1.12,2.91,1.31,3.68,.2,6.61-.14,.37-.12,.59,.1,.89,2.57,3.37,1.72,7.66,1.72,7.66,0,0,.29,4.66-1.03,6-.44,.44-.92,.85-1.48,1.21-.05,.03-.09,.08-.13,.13-.1,.15-.18,.36-.2,.53-.23,1.46-.97,2.63-1.89,3.71-.01,.01-.03,.03-.04,.05-.19,.22-.43,.44-.67,.51-.83,.23-1.06,2.05-1.64,2.64-.77,.78-1.79,1.08-2.87,1.08-.16-.03-.31-.05-.46-.07-1.64-.11-1.68,1.15-1.68,1.15,0,0,.43,2.5-2.64,1.6-3.07-.91,0,0,0,0-.49,.34-.43,.68-1.42,1.14s-2.81-.55-2.81-.55l-.28-.21c-.19-.18-.03-.05-.21-.25-.06-.09-.12-.19-.21-.29-.54-.73-.47-.45-.5-1.28-.02-.53-.14-.81-.72-.91-1.2-.2-2.17-.84-2.96-1.81-1.26-1.55-2.05-3.3-2.19-5.34-.04-.51-.21-.8-.71-.92-2.24-.54-3.71-1.84-4.8-3.5-.29,0-.58-.02-.87-.05-1.01,.31-2.11,.35-3.09,.09-.1,0-.19-.01-.29-.02-.41-.05-.82-.14-1.21-.27-.77,.41-1.63,.68-2.5,.85-.65,.2-1.34,.27-2.03,.21-.25,0-.5,0-.74,0-2.51-.11-4.86-.92-6.58-2.63-.04-.01-.08-.03-.12-.04-.02,.03-.04,.05-.06,.08-.13,.17-.26,.33-.4,.49-.06,.07-.11,.13-.17,.2-.19,.21-.39,.4-.59,.58-1.34,1.19-2.99,1.85-4.87,2.04-.71,.07-1.44-.11-2.15-.26-.42-.09-.76-.08-1.03,.17-.07,.08-.14,.17-.21,.29-.21,.39-.53,.7-.78,1.07-.24,.35-.5,.66-.76,.97-.1,.12-.21,.23-.32,.34-.13,.13-.25,.26-.38,.38-.19,.18-.38,.35-.58,.51-.02,.02-.05,.04-.07,.06-1.27,.99-2.71,1.61-4.3,1.95-2.05,.12-1.07-.75-2.64-1.13-.07-.04-.14-.07-.24-.09-.45-.1-.89-.22-1.32-.36-1.5-.52-2.73-1.18-3.69-1.82-.02,.03-.05,.04-.09,.03"/><path class="cls-4" d="M99.42,85.05c-8.11,.3-15.82-3.01-21.12-9.56-5.78-7.14-4.41-20.92-4.35-21.5,.06-.56,.55-.96,1.11-.9,.56,.06,.96,.56,.9,1.11-.01,.13-1.34,13.53,3.91,20.02,4.87,6.03,11.99,9.08,19.49,8.8,3.76-.14,7.61-1.12,11.32-2.98,8.28-4.15,11.05-15.25,11.85-19.83,.06-.36,.23-1.31,1.18-1.2,.95,.11,.91,1.06,.89,1.42,0,.17-.06,.33-.14,.47-1.12,6.12-4.26,16.64-12.87,20.95-3.98,2-8.13,3.05-12.17,3.2Z"/><path class="cls-3" d="M93.02,61.22c-.13,.02-.27,0-.38-.09-4.43-3.05-8.02-.47-8.17-.35-.24,.18-.58,.13-.76-.11-.18-.24-.13-.58,.11-.76,.04-.03,4.35-3.18,9.44,.33,.25,.17,.31,.51,.14,.76-.09,.13-.23,.21-.37,.23Z"/><circle class="cls-3" cx="88.69" cy="62.17" r="1.89"/><path class="cls-3" d="M112.09,61.65c-.13,.01-.26-.02-.38-.1-4.39-3.15-8.12-.54-8.16-.52-.24,.18-.58,.12-.76-.12-.18-.24-.12-.58,.12-.76,.04-.03,4.41-3.09,9.43,.52,.24,.18,.3,.52,.12,.76-.09,.13-.23,.21-.38,.22Z"/><circle class="cls-3" cx="107.29" cy="62.71" r="1.89"/><path class="cls-4" d="M103.79,74.05c-1.33,0-2.69-.49-3.56-.96,0,0-.01,0-.02,0-.03-.02-3.22-1.81-6.14-.24-2.91,1.56-5.09-.11-5.84-1.21-.17-.25-.1-.59,.15-.76,.25-.17,.59-.1,.75,.14,.07,.1,1.67,2.35,4.42,.87,3.41-1.84,6.93,.1,7.19,.25,.16,.09,3.97,2.03,5.27-.37,.14-.26,.48-.36,.74-.22,.26,.14,.36,.47,.22,.74-.72,1.32-1.94,1.76-3.19,1.76Z"/></g><path class="cls-4" d="M90.61,89.35c-.44-.03-.77-.49-.76-1.05l.11-4.58c.01-.58,.4-1.05,.86-1.05,.46,0,.82,.47,.8,1.05l-.11,4.58c-.01,.58-.4,1.05-.86,1.05-.01,0-.03,0-.04,0Z"/><path class="cls-4" d="M107.05,89.59c-.45,.05-.89-.45-.97-1.13l-.46-3.88c-.08-.68,.22-1.27,.68-1.33s.89,.45,.97,1.13l.46,3.88c.08,.68-.22,1.27-.68,1.33Z"/><path class="cls-4" d="M75.07,66.58c-.16,0-.33-.03-.49-.11-6.22-3.1-3.91-11.76-3.81-12.12,.15-.54,.71-.85,1.25-.71,.54,.15,.86,.71,.71,1.24-.03,.1-1.95,7.42,2.76,9.77,.5,.25,.7,.86,.45,1.36-.17,.34-.51,.55-.87,.56Z"/><path class="cls-4" d="M120.54,73.79c-.52,.02-.98-.37-1.04-.9-.06-.56,.33-1.06,.89-1.12,5.27-.61,5.93-8.17,5.93-8.24,.04-.56,.53-.97,1.09-.93,.56,.04,.97,.53,.93,1.09-.03,.38-.82,9.3-7.72,10.1-.03,0-.05,0-.08,0Z"/><path class="cls-4" d="M64.22,45.22s-1.5,1.37,.18,4.76c0,0-.75,5.36,2.31,7.7,0,0-.25,5.06,4.77,5.84,0,0-.22-5.41-.2-5.37s1.47-7.29,1.47-7.29l-8.53-5.64Z"/><path class="cls-4" d="M137.61,54.53s1.04,1.74-1.55,4.51c0,0-.83,5.35-4.44,6.71,0,0-1.22,4.92-6.25,4.22,0,0,1.77-5.12,1.75-5.09s.7-7.41,.7-7.41l9.79-2.94Z"/><path class="cls-4" d="M80.47,106.88c-.38,.05-.76-.2-.9-.63l-1.48-16.1c-.08-.25-.07-.51,.04-.74s.29-.39,.51-.46c.22-.06,4.5-1.27,6.66-1.8,.49-.12,.99,.28,1.03,.87,.03,.46-.27,.86-.67,.96-1.63,.41-4.1,1.08-5.71,1.53l1.14,15.08c.15,.46,.01,.99-.37,1.2-.09,.05-.17,.08-.26,.09Z"/><path class="cls-4" d="M68.71,92.51c0-.37,.23-.7,.59-.8l13.31-3.68c.42-.12,.86,.14,.98,.58,.11,.44-.14,.89-.56,1.01l-13.31,3.68c-.42,.12-.86-.14-.98-.58-.02-.07-.03-.14-.03-.2Z"/><path class="cls-4" d="M114.56,106.82c-.11,.01-.22,0-.34-.04-.44-.15-.69-.64-.56-1.11l3.71-14.4c.13-.47,.59-.73,1.03-.58,.44,.15,.69,.64,.56,1.11l-3.71,14.4c-.1,.35-.38,.58-.7,.62Z"/><g><polygon class="cls-4" points="102.98 92.62 107.43 98.45 109.58 87.59 107.6 86.87 102.98 92.62"/><polygon class="cls-4" points="103.1 98.85 101.85 95.04 98.81 102.87 103.1 98.85"/><polygon class="cls-4" points="92.88 99.36 94.78 102.67 94.53 95.84 92.88 99.36"/><path class="cls-4" d="M87.89,86.68l.42,11.03,5.79-5.41c-2.2-2.83-3.54-4.98-4.28-6.09l-1.93,.47Z"/><path class="cls-4" d="M111.44,88.25s-.32,.09-.38,.38l-2.36,11.95c-.06,.32-.31,.57-.63,.65-.05,.01-.1,.02-.16,.02-.27,0-.52-.11-.69-.33l-2.98-3.91,.6,1.83c.1,.31,.01,.64-.22,.87l-7.33,6.86c-.15,.14-.34,.22-.54,.22-.17,0-.34-.04-.5-.14,0,0,0,0-.01,0-.08,.07-.18,.13-.29,.16-.07,.02-.13,.03-.2,.03-.3,.01-.59-.14-.75-.42l-3.79-6.6c-.13-.23-.15-.52-.03-.77l1.46-3.11-4.53,4.23c-.15,.14-.34,.22-.54,.22-.12,0-.23-.02-.35-.06-.3-.12-.5-.41-.51-.74l-.44-11.94-.66,.39-6.75,1.66,1.33,16.31v.82h34.17l4.53-15.97-7.45-2.6Z"/><path class="cls-2" d="M95.99,92.07s.01,.03,.02,.04c0-.01,0-.03-.02-.04Z"/><path class="cls-2" d="M101.15,92.26c.03-.08,.07-.15,.13-.21-.05,.06-.1,.13-.13,.21Z"/></g></g><g><rect class="cls-2" x="27.08" y="57.15" width="46.08" height="36.36" transform="translate(-11.74 9.3) rotate(-9.49)"/><path class="cls-4" d="M29.75,97.96l-6.25-37.4,46.98-7.86,6.25,37.4-46.98,7.86Zm-4.46-36.12l5.74,34.33,43.91-7.34-5.74-34.33-43.91,7.34Z"/></g><g><path class="cls-2" d="M24.02,87.89s-3.19-2-.22-3.42c2.97-1.42,9.76,.59,9.76,.59,0,0,3.62,2.62-.28,3.12,0,0,4.23,1.9,2.64,4.65,0,0,2.42,.74-.95,2.89,0,0,2.38,1.92-3.53,3.28-5.91,1.36-7.35-1.4-7.35-1.4,0,0-.95-.71,.43-1.43,0,0-4.5-2.87-1.1-3.67,0,0-4.37-4.09,.59-4.61Z"/><path class="cls-4" d="M28.45,100.15c-3.3,0-4.61-1.54-4.95-2.04-.28-.26-.54-.69-.5-1.2,.02-.25,.11-.48,.25-.69-.91-.71-2.04-1.85-1.85-2.96,.07-.43,.31-.78,.7-1.05-.71-.86-1.52-2.19-1.12-3.38,.2-.61,.68-1.07,1.41-1.36-.37-.46-.67-1.03-.63-1.66,.05-.84,.62-1.52,1.7-2.04,3.2-1.53,10.03,.46,10.32,.54l.13,.04,.11,.08c.51,.37,2.15,1.68,1.81,3.03-.11,.42-.37,.73-.69,.94,.71,.54,1.46,1.31,1.78,2.28,.19,.6,.19,1.22,0,1.82,.28,.23,.55,.56,.61,1.04,.13,.95-.64,1.77-1.46,2.38,.14,.32,.21,.7,.12,1.12-.28,1.21-1.73,2.07-4.56,2.73-1.22,.28-2.27,.39-3.17,.39Zm-3.67-2.92c.11,.19,1.46,2.16,6.48,1.01,3.17-.73,3.39-1.53,3.39-1.56,.04-.15-.18-.36-.18-.36l-.84-.68,.91-.58c1.25-.8,1.41-1.24,1.43-1.32-.05-.06-.21-.15-.29-.18l-.94-.29,.49-.85c.26-.45,.32-.86,.18-1.29-.35-1.1-1.9-2.01-2.46-2.26l-2.5-1.13,2.72-.35c.84-.11,1.08-.3,1.13-.35-.01-.22-.5-.83-1.11-1.3-1.92-.55-6.92-1.62-9.08-.59-.5,.24-.81,.51-.82,.72-.02,.39,.64,1.03,1.12,1.34l1.89,1.2-2.22,.23c-.93,.1-1.54,.34-1.65,.66-.2,.59,.75,1.89,1.51,2.6l1.06,.99-1.41,.33c-.49,.11-.64,.25-.67,.28,.01,.32,.89,1.26,2.01,1.98l1.13,.73-1.19,.62c-.12,.06-.2,.12-.26,.16l.12,.08,.04,.14Z"/></g><g><path class="cls-2" d="M80.9,97.42s-2.26-11.29-5.98-13.77l-5.23-1.47-5.67,2.78s-.73,3.68,5.09,1.19l3.95,.86-5.75,1.19s-4.82,.82-3.54,2.96c0,0-2.39,3.8-.51,4.32,1.88,.53,7.25,.04,7.25,.04l-4.21,1.69s.16,3.72,4.05,1.95l2.59-.71s.84,5.99,5.08,5.24c0,0,15.53,12.1,18.69,14.03,3.16,1.93,14.64,1.93,3.49-9.48-7.23-3.49-19.31-10.81-19.31-10.81Z"/><path class="cls-4" d="M100.84,119.46c-1.74,0-3.52-.46-4.53-1.08-2.98-1.82-16.39-12.23-18.51-13.87-1.08,.12-2.06-.14-2.92-.76-1.54-1.12-2.25-3.17-2.54-4.33l-1.74,.48c-1.47,.65-2.68,.69-3.61,.12-1.38-.85-1.48-2.69-1.48-2.77-.01-.32,.17-.61,.45-.74-1.14,0-2.23-.08-2.93-.27-.56-.16-.95-.51-1.15-1.02-.48-1.26,.49-3.22,.99-4.09-.21-.6-.1-1.09,.06-1.43,.45-.97,1.71-1.56,2.76-1.89-.68-.02-1.23-.2-1.66-.55-.87-.7-.9-1.86-.79-2.43,.05-.24,.2-.44,.42-.55l5.67-2.78c.17-.08,.37-.1,.55-.05l5.23,1.47c.08,.02,.15,.06,.22,.1,3.61,2.4,5.82,11.96,6.24,13.92,1.88,1.13,12.46,7.47,18.96,10.6,.08,.04,.16,.09,.22,.16,4.55,4.66,6.01,8.09,4.33,10.2-.9,1.14-2.56,1.57-4.24,1.57Zm-22.82-16.54c.17,0,.34,.06,.48,.16,.15,.12,15.53,12.09,18.62,13.98,1.64,1,5.6,1.32,6.75-.13,1.06-1.33-.45-4.26-4.13-8.05-7.19-3.49-19.13-10.71-19.25-10.78-.19-.11-.32-.3-.36-.51-.6-3.02-2.77-11.2-5.55-13.21l-4.82-1.36-4.99,2.45c.02,.2,.08,.44,.26,.58,.19,.15,1.04,.57,3.77-.6,.15-.06,.31-.08,.47-.05l3.95,.86c.36,.08,.61,.4,.61,.76,0,.37-.26,.68-.62,.76l-5.75,1.19s-.02,0-.03,0c-1.07,.18-2.79,.75-3.08,1.37-.02,.05-.08,.17,.08,.42,.15,.25,.15,.57,0,.81-.68,1.08-1.27,2.57-1.08,3.07,.01,.03,.02,.06,.12,.09,1.43,.4,5.52,.14,6.97,0,.38-.04,.74,.22,.83,.59,.09,.38-.11,.76-.47,.9l-3.63,1.46c.1,.36,.3,.78,.65,.99,.6,.36,1.53,.07,2.21-.24,.04-.02,.08-.03,.12-.04l2.59-.71c.22-.06,.45-.02,.63,.1,.19,.12,.31,.32,.34,.54,0,.03,.44,2.96,2.09,4.15,.6,.43,1.28,.58,2.08,.43,.04,0,.09-.01,.13-.01Zm-8.85-15.95c-.1,.04-.2,.08-.29,.12l.43-.09-.13-.03Z"/></g><g><path class="cls-6" d="M33.25,71.62c.67-.12,.92-.02,1.39,.46,2.02,2.06,4.56,4.64,6.09,6.16-.64-3.51-1.18-5.9-1.23-6.11-.03-.16-.29-.97-.33-1.16-.07-.38,.3-.5,.56-.55l1.12-.21c.19-.04,.66-.1,.73,.28,.03,.16,0,.18-.35,.43-.25,.18-.28,.2-.06,1.38,.2,1.1,1.24,6.52,1.47,7.74,.18,.96,.2,1.07-.21,1.3-.28,.17-.77,.24-.81,.25-.45,.08-.49,.04-.9-.4-1.93-2.03-5.13-5.18-7.1-7.17l.16,.88c.1,.54,1.21,6.61,1.29,6.88,.02,.13,.1,.43,.12,.56,.09,.5-.71,.73-1.13,.8-.18,.03-.53,.06-.61-.37-.01-.08-.05-.54-.07-.63-.25-2.02-.97-6.67-1.28-8.35-.16-.88-.22-1.1-.83-.99-.24,.04-.54,.1-.61-.27-.06-.32,.18-.46,.42-.51l2.18-.4Z"/><path class="cls-6" d="M47.91,79.04c.09,.5,.51,.45,1,.33l1.09-.2c1.63-.3,2.03-.82,2.43-1.52,.19-.33,.25-.61,.36-.99,.05-.16,.11-.38,.56-.47,.56-.1,.63,.27,.66,.46,.07,.37,.17,1.31,.07,1.92-.06,.46-.24,.69-1.02,.83l-6.03,1.1c-1.04,.19-1.15-.4-1.19-.61-.05-.26-.2-1.52-.23-1.81-.22-1.38-.46-2.76-.71-4.14l-.53-2.83c-.09-.51-.4-.47-.7-.42-.37,.07-.57,.02-.64-.35-.09-.46,.42-.57,.62-.61,.4-.07,2.34-.41,2.77-.49l3.06-.56c.22-.04,1.3-.3,1.54-.35,.35-.06,.62-.05,.78,.19,.21,.34,.45,1.26,.49,1.51,.04,.24,.03,.64-.56,.75-.42,.08-.61,0-.81-.25-.69-.87-.92-1.15-1.98-.96l-2.32,.42c-.21,.04-.33,.16-.3,.37l.69,3.75c.38-.07,2.27-.42,2.7-.51,.4-.09,.8-.23,1.21-.62,.35-.35,.41-.41,.58-.44,.29-.05,.39,.14,.42,.3,.07,.4,.06,1.43-.55,1.54-.1,.02-.55,0-.64,0-.34,.01-1.21,.16-1.68,.24-.27,.05-1.18,.22-1.34,.28-.17,.06-.52,.23-.45,.61l.64,3.5Z"/><path class="cls-6" d="M55.93,67.45c.61-.11,.76,.18,.91,.61,.09,.3,2.67,6.61,3.18,7.85,.36-5.01,.42-6.45,.51-8.86,.02-.35,.03-.48,1.26-.71,.58-.11,.7,.23,1.02,.97,.18,.43,3.41,7.6,3.41,7.61,.05-2.87,.12-6.22,.1-8.75,0-.41,.03-.48,.1-.56,.1-.1,.25-.16,.36-.18l1.41-.26c.21-.04,.42,.04,.46,.26,.04,.19-.08,.28-.21,.37-.12,.06-.26,.13-.31,.4-.02,.14-.06,.77-.06,.92l-.09,1.65s-.33,5.7-.45,7.11c-.05,.7-.09,1.03-1.61,1.3-.66,.12-.72-.07-1.16-1.01l-.73-1.55c-.93-1.98-1.1-2.33-2.21-4.77-.13,1.45-.64,6.9-.79,7.6-.05,.26-.14,.6-1.47,.85-.3,.06-.55-.02-.65-.21-.02-.01-1.22-2.79-1.42-3.26-2.71-6.22-2.76-6.21-3.24-6.24-.5-.02-.58-.03-.63-.3-.05-.27,.15-.46,.42-.51l1.92-.35Z"/></g></g><g><path class="cls-5" d="M42.25,152.58c.97-1.19,1.69-1.3,2.02-1.3,1.01,0,2.77,1.04,2.77,2.02,0,.36-.25,.68-.61,.9-.72,2.12-1.62,3.96-3.06,5.83,1.3,1.04,3.56,2.41,7.09,3.82,.29,.11,1.12,.43,1.12,.61,0,.14-.65,.47-.9,.61-2.88,1.44-3.2,1.58-4,1.58-1.4,0-4.07-2.12-5.83-4.32-1.01,.83-3.42,2.3-7.02,2.7v1.15c0,1.69-1.84,2.16-2.92,2.16s-1.4-.65-1.4-1.08c0-.9,.11-4.86,.14-5.65-3.28,1.26-9.43,2.55-10.94,2.55-1.08,0-1.98-.79-1.98-1.76,0-.72,.5-1.51,1.58-1.69,.4-.07,2.77-.11,3.24-.11,.07-1.98,.11-3.67,.11-5.26,0-.79,0-5.04-.04-5.62-.36,0-1.48,.07-1.76,.14-.14,.04-1.33,.4-1.58,.4-.79,0-1.33-.36-1.33-1.01,0-.9,.94-1.62,1.76-1.62,.22,0,1.15,.14,1.33,.14h25.59c.79-1.22,1.58-1.66,2.16-1.66,1.12,0,2.84,1.48,2.84,2.52s-1.51,1.08-1.8,1.08h-2.99c-.72,0-3.78,0-12.13-.07-.04,.72-.11,7.27,.11,14.54,.54-.11,3.6-1.94,5.26-4.18-.83-1.44-1.4-2.52-1.94-5.94-.29,0-1.48,.4-1.73,.4-.61,0-1.12-.22-1.12-.86,0-.61,.5-1.22,1.19-1.22,.25,0,1.4,.18,1.62,.18h5.15Zm2.02-13.43c0,.94,.14,5.07,.14,5.9,0,1.44-1.94,1.94-3.28,1.94-1.15,0-1.22-.58-1.22-1.22h-12.81c-.07,.94-1.66,1.26-2.52,1.26-1.51,0-1.51-.36-1.51-1.22s.07-4.57,.07-5.33v-1.69c0-.18-.58-.72-.58-.9,0-.94,1.87-2.05,2.88-2.05,.11,0,1.22,0,1.55,1.08h12.81c.76-1.19,1.73-1.4,2.02-1.4,1.01,0,2.81,.9,2.81,1.8,0,.21-.04,.29-.36,.9v.94Zm-14.58,10.51h-4.07c-.04,.36,0,1.98,0,2.3h4.07v-2.3Zm0,3.96h-4.07v2.38h4.07v-2.38Zm0,4.03h-4.07v2.81c1.91-.07,3.13-.14,4.07-.29v-2.52Zm10.22-19.04h-12.42c-.18,0-.43,.18-.43,.4v1.69h12.85v-2.09Zm0,3.6h-12.85v1.94h12.85v-1.94Zm-1.01,11.88c.47,1.87,1.12,2.81,1.76,3.78,.61-1.04,1.3-2.7,1.44-3.78h-3.2Z"/><path class="cls-5" d="M65.29,148.08c.54,0,1.15,0,1.66-.04,.43-.79,1.26-1.26,1.8-1.26,.9,0,2.02,1.29,2.02,2.2,0,.72-.68,.86-1.22,.86h-5.08c0,.25-.14,1.37-.18,1.62v1.33h1.69c.36-.76,.97-1.22,1.58-1.22,.79,0,2.02,.79,2.02,1.87,0,.86-1.01,.86-1.66,.86h-3.67v.9c1.3,1.44,3.92,2.56,4.03,2.59,.68,.29,.94,.4,.94,.68,0,.79-1.8,1.8-2.52,1.8-.65,0-.83-.18-2.52-1.98,.04,.97,.22,5.65,.22,6.73,0,1.8-2.56,2.2-2.84,2.2-1.44,0-1.44-1.08-1.44-1.55,0-.54,.22-3.13,.25-3.74l.22-3.53c-2.48,3.64-6.01,5.47-7.67,5.47-.11,0-.5,0-.5-.25,0-.18,1.3-1.37,1.51-1.62,1.66-1.91,3.17-4.17,3.64-5.54,.18-.58,.47-1.33,1.84-1.33,.25,0,.79,.07,1.26,.32,.04-.29,.04-.86,.04-1.12l-3.02,.04c-.36,0-2.02,.65-2.41,.65-.5,0-1.01-.4-1.01-1.01,0-.76,.65-1.44,1.44-1.44,.18,0,.94,.18,1.08,.18,.36,0,3.38,.04,3.92,.04v-.68c0-.21-.04-.47-.22-.65-.22-.25-.32-.36-.32-.5,0-.4,.4-.9,1.01-1.08h-.61l-4.86,.04c-.25,0-1.48,.43-1.76,.43-.65,0-1.12-.21-1.12-.94s.68-1.58,1.55-1.58c.22,0,1.37,.22,1.62,.22,1.8,.04,3.89,.04,5.69,.04h3.64Zm.76-7.49c.36-.65,1.19-1.26,1.76-1.26,.83,0,2.05,.97,2.05,2.05,0,.72-.61,.9-1.19,.9h-6.8c-1.37,0-3.1-.04-4.46,.04-.32,0-1.8,.47-2.16,.47-.61,0-1.08-.18-1.08-.86,0-.79,.76-1.58,1.55-1.58,.14,0,.79,.18,.94,.22,.32,.04,.94,.04,1.19,.04h2.77v-.07c0-.32-.14-2.16-.43-2.38-.5-.4-.65-.5-.65-.76,0-1.22,2.63-2.38,3.82-2.38,.9,0,1.48,.54,1.48,1.44,0,.25,0,.32-.14,1.22-.11,.86-.18,1.44-.25,2.92h1.62Zm-5.72,7.2c-.97,0-3.35-2.41-3.35-3.46,0-.79,1.04-1.48,2.05-1.48,2.12,0,2.23,2.95,2.23,3.96,0,.72-.58,.97-.94,.97Zm4,.14c-.47,0-.86-.29-.86-.79,0-1.4,.4-4.32,2.23-4.32,1.04,0,2.05,.72,2.05,1.69s-2.38,3.42-3.42,3.42Zm18,0c.65-1.12,1.48-1.69,2.09-1.69,.94,0,2.66,1.19,2.66,2.34,0,.61-.5,.97-1.15,.97h-4.5c-.14,1.08-.18,1.48-.18,2.09,0,2.05,.32,12.02,.32,12.92,0,2.23-2.16,2.84-2.81,2.84-1.8,0-1.8-.83-1.8-1.62s.25-4.86,.29-5.8c.11-2.7,.14-4.93,.14-7.96,0-.9,0-1.69-.11-2.48h-1.94c-.07,3.06-.25,10.4-6.62,14.04-.18,.11-1.69,.97-2.59,.97-.22,0-.47-.07-.47-.32,0-.14,.18-.29,.5-.54,5.15-4.07,5.15-9.54,5.15-16.09,0-1.3,0-2.52-.07-3.56-.04-.43-.04-.5-.29-.72-.54-.43-.58-.43-.58-.72,0-1.08,2.3-2.7,3.38-2.7,.29,0,1.3,0,1.51,1.22,.86-.5,3.28-1.87,4.72-3.17,.9-.83,1.15-1.04,1.87-1.04,1.3,0,3.02,1.4,3.02,2.7,0,1.12-1.55,1.62-2.16,1.8-.83,.25-2.92,.76-7.31,1.26v5.25h6.91Z"/><path class="cls-5" d="M92.97,151.89c-3.92,0-3.92-2.05-3.92-2.27,0-1.33,1.48-2.09,2.38-2.09,1.69,0,7.34,2.09,7.34,3.38,0,.97-4.21,.97-5.79,.97Zm1.58,12.06c-.58,.58-1.04,.94-2.3,.94-.79,0-2.41-.5-2.41-2.09,0-.47,.58-1.19,1.01-1.51,.07-.04,3.28-1.62,3.89-1.94,3.42-1.76,3.82-1.98,4.03-1.98,.25,0,.4,.22,.4,.47-.36,1.51-2.92,4.5-4.61,6.12Zm2.52-20.81c-.83,0-6.3-.72-6.3-2.95,0-1.19,1.01-2.12,2.23-2.12,2.12,0,5.04,3.2,5.04,4.43,0,.65-.72,.65-.97,.65Zm10.33-2.52c0,.61-2.7,2.59-6.33,2.59-.97,0-1.98-.47-1.98-1.51,0-.97,1.12-1.73,2.05-1.73,.36,0,.58,.07,.76,.11,.79,.36,1.91,.47,2.81,.47,.58,0,1.58-.11,2.23-.18,.11-.04,.47-.11,.47,.25Zm6.95,6.01c.58-1.04,1.62-1.3,2.05-1.3,.83,0,2.45,.65,2.45,1.58,0,.18,0,.32-.11,.58-.25,.79-.25,.87-.25,1.66,0,1.87,.14,11.01,.14,13.07,0,1.19,0,4.82-4.21,4.82-2.05,0-5.04-2.52-5.04-2.81,0-.11,.14-.18,.25-.18s1.58,.11,1.87,.11c2.3,0,2.99-.83,2.99-2.84v-3.17h-8.93c0,.79,.07,4.68,.07,5.54,0,1.44,0,1.62-.58,2.16-.65,.65-1.58,.97-2.3,.97-.22,0-1.4-.07-1.4-1.12,0-.47,.18-2.63,.22-3.13,.07-1.69,.43-10.08,.43-13.5,0-.21-.54-1.08-.54-1.29,0-.79,1.87-2.02,2.77-2.02,.25,0,1.08,.14,1.3,.86h2.56c0-1.19-.14-6.98-.14-8.31,0-.18,0-.25-.11-.32-.65-.47-.72-.5-.72-.72,0-1.01,2.34-2.38,3.6-2.38,.65,0,1.58,.43,1.58,1.3,0,.11-.11,.76-.14,.9-.14,1.01-.32,7.67-.36,9.54h2.56Zm.11,4.79v-3.17h-8.39c-.5,0-.5,.04-.5,3.17h8.89Zm.04,4.97l-.04-3.31h-8.89v3.31h8.93Zm1.19-17.57c.43-.76,1.08-1.84,2.3-1.84,1.15,0,2.48,1.12,2.48,2.12,0,1.48-6.3,4.68-7.38,4.68-.22,0-.5-.18-.5-.47,0-.07,.07-.18,.18-.32,.72-.94,1.98-2.56,2.92-4.18Z"/><path class="cls-5" d="M127.86,164.74c-1.12,0-2.81-.58-2.81-1.91s1.01-2.05,2.05-2.05c1.73,0,2.95,0,4.75-1.01,.32-.14,1.73-1.12,1.94-1.12,.14,0,.43,.11,.43,.4,0,2.12-2.92,5.69-6.37,5.69Zm8.1-10.73c-.11,1.62-2.23,1.8-2.63,1.8-1.3,0-1.3-.94-1.3-1.37,0-.97,.25-11.59,.25-12.35,0-.36,0-.58-.25-.94-.25-.4-.43-.65-.43-.83,0-.68,1.91-2.12,2.95-2.12,1.15,0,1.44,.72,1.55,1.22h2.02c.25-.65,1.15-3.6,1.37-4.21,.25-.68,1.26-1.22,2.05-1.22s2.38,.68,2.38,1.84c0,.94-.61,1.55-3.13,3.6h6.26c.76-1.26,1.55-1.37,1.84-1.37,.79,0,2.74,1.01,2.74,1.98,0,.11-.22,.54-.29,.72-.14,.25-.14,.36-.14,.58,0,1.29,.29,11.34,.29,12.06,0,1.29-1.87,1.84-2.74,1.84-1.48,0-1.58-.76-1.62-1.22h-11.16Zm21.85,6.98c.47,0,.47,.4,.47,.47,0,.4-.61,1.8-1.51,3.02-1.87,2.56-2.88,2.84-4.9,2.84-6.12,0-16.41-.58-16.41-5.62,0-.47,.11-2.59,.11-3.06,0-.11,0-.97-.07-1.04s-.47-.4-.5-.47c-.04-.07-.07-.14-.07-.22,0-.94,1.76-1.98,3.13-1.98s1.44,.76,1.44,1.19c0,.11-.18,1.01-.18,1.15-.18,.94-.58,3.2-.58,4.25,0,.94,.58,1.48,1.48,1.76,.79,.25,3.56,.5,4.71,.5,4.25,0,8.03-.61,12.09-2.59,.54-.18,.58-.22,.79-.22Zm-10.65-19.98h-10.83c-.14,0-.32,.07-.32,.25v2.48h11.16v-2.74Zm0,4.28h-11.16v2.77h11.16v-2.77Zm0,4.32h-11.16v2.88h11.16v-2.88Zm-3.67,5.69c1.04,0,2.16,.83,2.16,1.66,0,1.26-3.06,4.97-4.39,4.97-.58,0-.65-.47-.65-.76,0-.07,.79-3.85,1.04-4.64,.25-.5,.65-1.22,1.84-1.22Zm3.38,6.77c-.54,0-.79-.36-.79-.72,0-.25,.79-2.92,.94-3.46,.36-1.19,.65-2.2,2.3-2.2,1.19,0,2.41,.87,2.41,1.73,0,1.19-3.82,4.64-4.86,4.64Z"/></g></g></g></g></svg>