<?xml version="1.0" encoding="UTF-8"?><svg id="_圖層_2" xmlns="http://www.w3.org/2000/svg" viewBox="0 0 175 201.98"><defs><style>.cls-1{fill:none;}.cls-2{fill:#fff;}.cls-3{fill:#122c52;}.cls-4{fill:#132c53;}.cls-5{fill:#0f2c51;}.cls-6{fill:#0e2c50;}</style></defs><g id="_圖層_1-2"><g><rect class="cls-1" width="175" height="200.72"/><g><g><path class="cls-6" d="M17.66,195.72c-.94,0-2.05-.65-2.05-1.76,0-.79,.5-1.62,1.73-1.73,1.15-.11,1.8-.18,2.77-.72,.18-.07,1.01-.68,1.22-.68,.32,0,.32,.18,.32,.36,0,1.37-1.73,4.54-3.99,4.54Zm26.35-22.35c.22-.58,1.08-1.15,1.84-1.15,.9,0,2.48,.86,2.48,1.8,0,.25-.25,.76-.32,.9-.07,1.58,.11,9.4,.11,11.16,0,.58,0,1.01-.79,1.44-.61,.36-1.26,.5-1.87,.5-1.44,0-1.44-.25-1.44-1.19h-10.19c0,.61,0,.79-.58,1.15-.4,.29-1.33,.47-1.98,.47-.29,0-1.01,0-1.12-.86-.4,.43-.9,.65-1.48,.65-.76,0-1.26-.76-1.55-1.73-.18,.07-1.08,.36-1.3,.43,0,1.66,.14,9.83,.14,11.66s-1.76,2.63-2.7,2.63c-.86,0-1.44-.5-1.44-1.22,0-.86,.32-5.15,.36-6.12,.07-1.76,.14-4.03,.22-6.01-.79,.18-3.2,.72-4.43,.72-.97,0-1.58-.65-1.58-1.55,0-.72,.68-1.48,1.47-1.51,.32,0,2.02,.04,2.38,.04,.43-.54,.83-1.01,1.94-2.59-1.15-.32-2.27-.61-3.46-.86-.9-.18-1.37-.79-1.37-1.37,0-.4,.25-1.22,1.62-1.76,2.12-3.46,2.95-5.4,3.35-6.33-.07-.4-.07-.79-.07-.83,0-1.08,1.94-1.37,2.66-1.37,1.08,0,2.45,.65,2.45,1.51,0,.65-.4,1.22-.9,1.91-1.15,1.55-2.77,3.53-4.97,6.12,.5,.36,1.4,1.04,1.8,1.33,1.55-2.45,1.73-2.74,1.98-3.28v-.47c0-.76,1.62-1.26,2.3-1.26,.9,0,2.09,.65,2.09,1.48,0,.32-.22,.76-.4,1.01-.72,1.04-4.9,5.69-5.8,6.77,1.08,0,1.58-.04,3.2-.07-.18-.32-1.12-1.87-1.12-1.91,0-.29,.29-.29,.43-.29,1.37,0,3.13,.9,4.18,2.02,.11-4.07,.18-7.34,.18-10.69-.07-.11-.25-.43-.25-.5,0-.61,1.48-1.66,2.56-1.66,.36,0,1.22,.14,1.33,.9h1.87c.11-.5,.65-2.99,.79-3.56,.25-.97,1.04-1.48,2.02-1.48s2.48,.68,2.48,1.84c0,.61-.36,1.01-.54,1.19-.29,.32-1.8,1.69-2.12,2.02h5.51Zm-15.87,15.55c.54,0,1.12,.22,1.29,.72,.14,.36,.76,2.2,.94,2.59,.07,.22,.72,1.26,.72,1.55,0,.36-.4,.5-.72,.5-.94,0-3.63-1.94-3.89-3.89,.07-.97,1.08-1.48,1.66-1.48Zm1.4,10.29c-1.26,0-2.02-.94-2.02-1.58,0-1.08,.83-1.4,1.58-1.69,.65-.22,1.98-.76,2.99-2.02,.54-.68,.61-.76,.86-.76,.47,0,.5,.36,.5,.43,0,4.28-2.45,5.62-3.92,5.62Zm20.95-4.79c.4,0,.5,.32,.5,.5,0,.54-.9,2.74-1.4,3.78-1.08,2.23-2.7,2.48-4.5,2.48-3.6,0-9.04-.94-10.37-2.63-.65-.83-.68-1.26-.68-5.58,0-.04,0-1.08-.04-1.37-.04-.22-.54-1.04-.54-1.26,0-1.01,1.8-2.27,2.99-2.27s1.3,.86,1.3,1.4c0,.22-.14,1.3-.18,1.55-.07,.76-.25,2.81-.25,4.68,0,1.01,0,1.91,3.56,1.91,4.54,0,6.15-1.08,8.57-2.66,0-.04,.54-.4,.65-.43,.11-.04,.25-.11,.4-.11Zm-14.4-17.13c.25-.5,.79-1.66,1.08-2.34h-2.99c-.32,0-.4,.32-.4,.58v4c0,.32,0,.72,.04,1.04,.83-.76,1.76-2.3,2.27-3.28Zm8.06,7.92v-10.26h-4.18c.14,.11,.25,.29,.25,.5,0,.61-.68,1.44-.94,1.69h1.55c.14-.36,.83-.68,1.3-.68,.65,0,1.66,.65,1.66,1.33,0,.29-.18,1.33-1.94,3.56,.65,.5,1.87,1.66,1.87,2.34,0,.4-.36,.65-.72,.65-.18,0-.4-.07-.5-.14-.36-.22-2.05-1.22-2.45-1.44-1.66,1.33-4.07,1.87-6.23,1.94v.5h10.33Zm-10.33-1.37c1.94-.76,2.99-1.37,4.03-2.45-.32-.11-.68-.18-.97-.25-.14-.04-.5-.11-.5-.5,0-.5,.9-1.19,1.62-1.19,.4,0,1.15,.43,1.44,.61,.36-.65,.61-1.19,.72-1.69h-1.91c-.9,1.08-3.13,2.74-4.43,2.74v2.74Zm5.15,10.83c-.14,0-.76-.07-.76-.65,0-.25,.29-3.1,.47-4.21,.18-1.01,.97-1.55,1.98-1.55,1.08,0,2.12,.76,2.12,1.58,0,1.01-2.48,4.82-3.82,4.82Zm4.07,.11c-.11,0-.72,0-.72-.61,0-.58,1.08-3.92,1.26-4.28,.32-.76,.86-1.19,1.84-1.19,1.3,0,2.34,.9,2.34,1.8,0,1.37-3.38,4.28-4.72,4.28Z"/><path class="cls-6" d="M62.45,185.97c-2.84,0-5.76,0-7.42,.22-.32,.04-1.62,.47-1.91,.47-.5,0-1.15-.25-1.15-.86,0-.76,.9-1.76,1.62-1.76,.14,0,.32,.04,1.01,.18,.22,.04,1.15,.04,1.44,.04,3.53,0,10.04,0,12.67-.07,.65-1.15,1.3-1.37,1.66-1.37,.94,0,2.27,1.15,2.27,2.23,0,.94-.54,.94-1.37,.94h-8.82Zm4.82-10.51c.54-1.01,1.3-1.3,1.73-1.3,.9,0,2.27,1.04,2.27,2.09,0,.86-1.12,.86-1.44,.86h-4.17c-.72,0-6.62,.11-7.92,.18-.32,.04-1.66,.36-1.91,.36-.58,0-1.22-.29-1.22-.9,0-.83,.94-1.58,1.73-1.58,.22,0,1.15,.29,1.33,.29h3.31c0-1.22,0-2.56-.36-2.88-.54-.5-.58-.5-.58-.76,0-1.04,2.74-2.05,3.81-2.05,.65,0,1.58,.32,1.58,1.26,0,.14-.18,.72-.22,.83-.07,.32-.25,1.4-.32,3.6h2.38Zm-7.05,22.39v.83c0,.9-1.87,1.62-2.66,1.62-1.19,0-1.3-1.01-1.3-1.51,0-1.19,.29-6.52,.29-7.59,0-.5,0-.54-.43-1.12-.07-.07-.11-.14-.11-.25,0-.86,2.05-1.91,2.88-1.91,.32,0,1.15,.18,1.4,.94h5.15c.36-.76,1.26-1.19,1.76-1.19,.9,0,2.66,1.04,2.66,2.05,0,.07-.32,.61-.36,.72-.07,.11-.07,.14-.07,.54,0,1.01,.18,5.51,.18,6.55,0,1.48-1.91,1.98-2.84,1.98-1.51,0-1.55-.61-1.55-1.66h-5Zm.68-13.82c-1.15,0-4.03-3.38-4.03-4.36,0-.72,1.4-1.37,2.45-1.37,.86,0,1.37,.47,1.62,.94,.32,.68,.76,3.31,.76,4.1,0,.68-.68,.68-.79,.68Zm4.43,6.37c-.76,0-4.61-.04-4.75-.04-.29,.04-.4,.25-.4,.5v5.33h5.15v-5.8Zm-.47-6.37c-.11,0-.79,0-.79-.72s.58-3.49,.79-4.1c.18-.61,.76-1.08,1.69-1.08,1.08,0,2.34,.68,2.34,1.87,0,.9-2.99,4.03-4.03,4.03Zm11.95-9.5v3.13c0,4.57,0,9.11,.07,13.21,.04,1.3,.22,6.98,.22,8.14,0,2.52-2.56,2.74-2.7,2.74-.11,0-1.76,0-1.76-1.48,0-.5,.18-2.81,.22-3.28,.25-6.91,.25-14.58,.25-16.77,0-4.79-.04-4.9-.61-5.47-.11-.11-.22-.29-.22-.47,0-1.08,1.94-2.52,2.99-2.52,.18,0,1.48,.07,1.62,.97h3.35c.79-1.08,1.58-1.22,1.91-1.22,1.08,0,2.95,1.22,2.95,2.41,0,.4-.32,.68-.83,1.22-.72,.72-3.46,5.22-3.46,5.87,0,.22,.04,.25,.83,.9,1.37,1.12,4.72,3.85,4.72,7.6,0,4.57-4.07,4.64-4.61,4.64-1.58,0-4.68-2.23-4.68-2.63,0-.07,.11-.18,.18-.18,.32,0,1.69,.18,1.98,.18,1.91,0,2.66-.68,2.66-2.99,0-2.95-1.62-4.64-2.7-5.65-1.12-1.01-1.26-1.12-1.26-1.4,0-.11,1.33-5.94,1.55-6.95h-2.66Z"/><path class="cls-6" d="M99.38,173.8c-.11,2.3-.11,4.97-.14,8.13h12.46c-.14-2.59-.14-2.92-.29-6.33-.22,.4-.79,.47-1.26,.47h-5.11c-1.66,0-2.81,.04-2.95,.04-.18,.04-1.15,.25-1.37,.25-.65,0-.94-.22-.94-.68,0-.65,.54-1.37,1.33-1.37,.14,0,.86,.18,1.01,.18h1.58c0-.58,0-2.02-.29-2.3-.5-.43-.58-.5-.58-.72,0-.94,2.05-1.98,3.2-1.98,.94,0,1.66,.32,1.66,1.15,0,.18,0,.4-.11,1.04-.11,.5-.18,2.2-.22,2.81h1.01c.5-.68,1.01-.94,1.44-.94,.47,0,1.19,.43,1.55,1.22-.07-2.63-.11-2.95-.4-3.17-.68-.5-.68-.54-.68-.79,0-1.04,2.2-2.45,3.67-2.45,.9,0,1.76,.32,1.76,1.33,0,.58-.32,3.46-.36,4.1-.22,3.74-.22,7.02-.14,8.13h2.99c.43-1.08,1.26-1.8,2.09-1.8,1.01,0,2.74,1.26,2.74,2.38,0,1.04-1.62,1.04-1.87,1.04h-5.87c.04,1.69,.14,2.63,.5,5.4,.4-1.44,.54-1.91,.54-3.17,0-.72,1.08-1.3,2.05-1.3,.68,0,2.34,.36,2.34,1.58,0,1.33-2.48,5.26-3.31,6.55,.79,2.16,2.02,4.14,3.24,4.14,.72,0,1.51-.65,2.16-1.15,.18-.14,.25-.14,.32-.14,.32,0,.32,.07,.32,.58,0,.47,0,5.94-2.77,5.94-3.46,0-5.44-4.43-6.05-6.3-1.48,1.62-5.62,4.28-9.43,4.28-.18,0-.76,0-.76-.32,0-.14,.11-.18,1.15-.65,4.32-1.94,6.55-4.9,7.56-6.66-.54-2.12-1.04-4.54-1.37-8.78h-12.56v.32c0,1.91,.22,11.34,.22,13.46,0,1.26,0,1.69-.76,2.45-.61,.61-1.37,.94-2.02,.94-1.33,0-1.51-.9-1.51-1.44,0-.36,.11-1.94,.11-2.3l.21-5.51c-3.63,2.05-5.07,2.48-5.94,2.48-.94,0-1.94-.9-1.94-2.02,0-1.4,1.3-1.48,2.77-1.58v-8.93c0-2.99,0-4.97-.04-7.45-.36,.11-1.4,.47-1.62,.47-.5,0-.97-.32-.97-.86,0-.58,.5-1.55,1.48-1.55,.18,0,1.04,.18,1.12,.18h7.27c.61-.68,1.19-1.33,1.94-1.33,.86,0,2.27,1.12,2.27,2.09,0,.79-.65,.83-1.3,.83h-1.15Zm-3.74,4.28v-4.25h-1.76v4.25h1.76Zm0,5.94v-4.28h-1.76v4.28h1.76Zm0,5.72v-4.14h-1.76v4.5l1.76-.36Zm11.45-4.28c.32-.72,.97-.9,1.29-.9,.79,0,2.3,.83,2.3,1.55,0,.07-.14,.43-.18,.47-.07,.18-.07,.54-.07,.76,0,.97,.11,5.8,.11,6.91,0,1.51-2.3,1.94-2.66,1.94-1.01,0-1.01-.4-1.01-1.15h-2.38v1.01c0,.94-1.76,1.48-2.23,1.48-1.22,0-1.22-.79-1.22-1.76s.22-5.51,.22-6.55v-1.62c0-.14-.61-.65-.61-.83,0-.72,1.73-2.05,2.66-2.05,.5,0,1.01,.25,1.15,.76h2.63Zm-2.38-5.36c0,.94,0,1.55-.79,1.55-1.04,0-3.2-2.66-3.2-3.49,0-.61,.9-1.33,1.98-1.33,2.02,.04,2.02,2.38,2.02,3.28Zm2.23,13.46v-2.81h-2.45v2.81h2.45Zm0-4.14v-2.63h-2.12c-.14,0-.29,.11-.29,.29v2.34h2.41Zm.22-12.02c.29-.61,.86-.86,1.4-.86,.9,0,2.05,.68,2.05,1.4,0,1.19-2.45,3.67-3.53,3.67-.18,0-.72-.14-.72-.65,0-.32,.4-2.74,.79-3.56Zm12.49-5.08c1.22,0,2.52,.97,2.52,2.2,0,1.73-4.5,3.92-5.11,3.92-.36,0-.76-.11-.76-.5v-.14c.43-1.12,1.22-2.92,1.66-4.03,.29-.83,.79-1.44,1.69-1.44Z"/><path class="cls-6" d="M137.36,182.91c.29-.68,.94-1.44,1.69-1.44,1.26,0,2.3,1.37,2.3,2.3,0,.76-1.04,.76-2.48,.76h-4.21l.04,10.83h1.12c0-1.51,.04-3.31,.04-4.54,0-.83,0-1.33-.07-1.62-.04-.11-.36-.65-.36-.79,0-.76,1.66-1.62,2.59-1.62,.54,0,1.55,.29,1.55,1.01,0,.22-.11,1.33-.11,1.58,0,.94,.04,5.47,.04,6.48,0,.76,0,1.04-.68,1.44-.36,.22-1.04,.5-1.8,.5-1.22,0-1.22-.5-1.22-.97h-5.98v.58c0,.72-1.55,1.26-2.84,1.26-.47,0-.97-.4-.97-.86,0-1.22,.25-7.09,.25-8.42,0-.25,0-.32-.14-.43-.43-.32-.47-.36-.47-.61,0-.79,2.23-1.58,3.06-1.58,.21,0,1.26,.11,1.26,1.12,0,.22-.14,1.4-.14,1.66l-.04,5.83h1.22c.04-1.55,.04-9.11,.07-10.83h-3.71c-.36,0-2.05,.43-2.45,.43-.32,0-.79-.22-.79-.72,0-.54,.43-1.48,1.62-1.48,.18,0,1.15,.14,1.37,.14h3.96c.04-2.41,.07-3.02-.07-5.08h-.76c-1.66,1.76-4.28,3.35-5.94,3.35-.14,0-.5,0-.5-.25,0-.14,.61-.72,.79-.86,3.24-2.99,5.69-7.78,5.69-8.57,0-.07-.07-.5-.07-.58,0-.83,.97-1.3,1.91-1.3,.72,0,2.59,.47,2.59,1.48,0,1.3-1.66,3.56-2.88,5.08,.58-.04,.86-.04,4.18-.04,.29-.68,1.12-1.12,1.58-1.12,1.01,0,2.09,1.12,2.09,2.05,0,.68-.68,.76-1.44,.76h-3.46c-.07,1.51-.11,2.09-.11,5.08h2.7Zm12.28,3.64c1.58,6.16,6.12,10.47,9.39,12.06,.11,.07,.36,.18,.36,.32,0,.47-4.39,1.98-5.18,1.98-.5,0-.65-.11-1.4-.72-4.32-4.21-4.57-10.51-4.64-12.85-.65,11.95-10.62,13.1-12.45,13.1-.11,0-.47,0-.47-.14s.18-.22,1.12-.61c7.24-2.88,8.17-10.37,8.5-13.14l-2.99,.11c-.29,0-1.69,.47-2.02,.47-.97,0-1.08-.68-1.08-.97,0-.76,.76-1.15,1.12-1.26h5.25c.11-1.66,.11-2.38,.11-6.95-.36,.04-2.09,0-2.45,.14-.83,.32-1.29,.5-1.73,.5s-1.01-.36-1.01-.9c0-.47,.25-1.66,1.55-1.66,.14,0,.9,.14,1.08,.14l2.45-.04v-1.15c0-.65-.04-2.12-.07-2.99-.04-.5-.07-.58-.25-.79-.5-.54-.54-.61-.54-.86,0-.94,2.48-2.3,3.53-2.3,1.55,0,1.55,1.08,1.55,1.51,0,.18-.11,1.04-.11,1.26-.04,.14-.07,4.64-.07,5.26l1.55-.04c.4-.65,1.37-1.37,2.16-1.37,.94,0,2.66,1.08,2.66,2.02,0,.18-.5,.94-.54,1.12-.22,1.48-.54,5.33-.58,6.98l.54-.04c.36-.83,1.01-1.44,1.73-1.44,1.12,0,2.27,1.26,2.27,2.3,0,.94-.58,.94-1.58,.94h-7.74Zm1.19-8.82l-1.66,.07c0,1.73-.14,6.48-.18,7.09l1.69-.07,.14-7.09Z"/></g><g><polygon class="cls-2" points="63.2 149.66 76.45 129.71 82.29 127.39 86.4 126.68 86.11 121.81 71.95 115.26 67.19 107.79 65.45 100.45 59.78 97.64 53.24 81.34 96.12 60.65 141.13 82.04 134.31 99.33 125.41 105.45 124.01 110.75 121.17 112.26 119.05 114.24 115.38 118.48 108.62 120.43 106.45 121.81 106.61 124.82 112.44 128.68 118.62 131.8 133.16 143.4 128.44 153.61 122.81 154.56 62.42 154.02 63.2 149.66"/><g><path class="cls-5" d="M84.86,84.38c.42-.2,.8-.56,.93-1.02,.13-.46,.02-.95-.11-1.41-.08-.28-.17-.57-.38-.76-.02-.02-.05-.04-.07-.06-.1-.07-.22-.12-.34-.16-1.26-.47-2.57-.34-3.87-.53-.74-.11-1.49-.21-2.23-.32-.9-.13-1.82-.43-2.73-.34-.48,.05-.89,.21-1.28,.5-.27,.2-.88,.54-.91,.92-.04,.47,.96,.74,1.3,.88,.45,.19,.89,.37,1.34,.56,1.13,.47,2.27,.95,3.43,1.36,1.54,.55,3.37,1.15,4.93,.39Z"/><path class="cls-5" d="M115.17,84.1c.35-.09,1.38-.21,1.41-.68,.03-.37-.53-.81-.77-1.04-.34-.34-.73-.56-1.19-.68-.9-.23-1.84-.06-2.75-.07-.75,0-1.5,0-2.26,0-1.31,0-2.6-.32-3.91-.04-.12,.03-.24,.06-.36,.11-.03,.01-.05,.03-.08,.05-.24,.15-.37,.43-.49,.7-.19,.44-.38,.91-.31,1.38,.07,.48,.39,.89,.78,1.15,1.44,.98,3.34,.65,4.94,.33,1.2-.24,2.39-.54,3.58-.84,.47-.12,.93-.24,1.4-.36Z"/><ellipse class="cls-5" cx="109.45" cy="93.1" rx="4.12" ry="4.16"/><ellipse class="cls-5" cx="79.86" cy="91.74" rx="4.12" ry="4.16"/><path class="cls-5" d="M50.7,80.07l-3.17-2.27c-.41-.47-.73-.93-.98-1.34-.57-.94-.77-1.62-.78-1.63h0c-.48-1.02-.25-1.45-.63-2.5,0,0-.37,.07-1.23-.03-2.16-.26-7.08-5.8-6.75-10.92,.2-3.08,1.94-2.43,1.43-5.18s.57-2.29,1.97-4.23c.33-.45,.58-1.19,.49-1.72-.66-4.15,.38-7.57,2.58-10.49,.74-.98,1.6-1.9,2.58-2.78,.61-.55,1.39-.94,2.15-1.25,.25-.1,.42-.22,.54-.37,.11-.17,.17-.38,.18-.65,.17-2.91-2.95-4.4-1.32-6.81,.31-.45,.63-.89,.97-1.3,1.01-1.25,2.18-2.32,3.56-3.14,.16-.1,.3-.21,.42-.34,.33-.38,.5-.86,.65-1.37,.48-1.6,1.2-3,2.17-4.15,.97-1.18,2.2-2.1,3.71-2.74,1.37-.57,2.88-.78,4.25-1.35,.8-.33,1.59-.95,2.13-1.66,2.85-3.77,6.82-4.77,11.03-5.25,.42-.05,.87-.14,1.27-.03,1.46,.41,2.58-.07,3.74-1.1,2.15-1.9,4.62-2.51,7.35-1.53,.25,.09,.66-.07,.92-.24,1.99-1.3,4.16-2.24,6.45-2.11,2.03,.12,3.74-.54,5.55-1.23,2.54-.98,4.77,.12,6.86,1.5,.56,.37,1.01,.45,1.65,.22,2.29-.8,4.51-.59,6.56,.77,.74,.49,1.46,1.04,2.09,1.67,.91,.93,2.12,.9,3.22,1.16,1.67,.39,3.05,1.24,4.15,2.54,.94,1.12,1.73,2.37,2.63,3.53,.19,.25,.5,.46,.79,.54,2.71,.8,4.92,2.41,6.69,4.65,.53,.66,.86,1.54,1.13,2.37,.33,1.02,.88,1.79,1.7,2.38,1.6,1.16,2.5,2.79,3.03,4.73,.12,.46,.53,.92,.92,1.2,1.43,1.01-2.58-4.01-1.26-2.87,1.56,1.34,2.57,3.2,3.41,5.14,.17,.39,.42,.77,.72,1.05,2.6,2.35,2.03,1.24,2.27,4.86,.07,1.09,2.19,3.11,2.61,4.03,1.87,4.11,2.21,5.21,.88,9.54-.17,.55-.12,.87,.22,1.27,3.99,4.64,3.15,10.93,3.15,10.93,0,0,.83,6.71-.93,8.77-.58,.68-1.25,1.31-2.01,1.88-.07,.05-.12,.12-.17,.2-.14,.22-.22,.53-.25,.78-.2,2.13-1.16,3.9-2.38,5.54-.02,.02-.04,.05-.05,.07-.25,.33-.57,.67-.92,.8-1.17,.41-1.34,3.06-2.12,3.97-1.04,1.19-2.46,1.73-4.01,1.82-.23-.03-.45-.04-.67-.06-2.36,0-2.3,1.81-2.3,1.81,0,0,.84,3.59-3.64,2.55-4.48-1.04,0,0,0,0-.67,.54-.56,1.02-1.93,1.78s-4.08-.54-4.08-.54l-.42-.27c-.3-.25-.05-.07-.32-.34-.09-.13-.19-.26-.32-.41-.84-1-.71-.61-.83-1.81-.08-.77-.27-1.16-1.11-1.25-1.73-.18-3.18-1.03-4.4-2.35-1.94-2.12-3.23-4.59-3.61-7.54-.1-.73-.37-1.14-1.1-1.27-3.25-.58-5.48-2.32-7.2-4.63-.42,.02-.84,.03-1.25,0-1.42,.54-2.99,.69-4.42,.4-.14,0-.28,0-.41,0-.59-.04-1.18-.13-1.76-.28-1.07,.66-2.27,1.13-3.51,1.45-.91,.35-1.89,.51-2.88,.48-.36,.03-.72,.05-1.06,.06-3.6,.07-7.04-.9-9.66-3.21-.06-.02-.12-.04-.18-.05-.03,.04-.06,.08-.09,.12-.17,.26-.34,.5-.52,.74-.08,.1-.15,.2-.23,.3-.25,.31-.52,.61-.79,.89-1.82,1.85-4.11,2.95-6.8,3.39-1,.17-2.08-.03-3.1-.19-.62-.09-1.09-.05-1.46,.34-.1,.12-.19,.26-.28,.44-.26,.58-.7,1.07-1.03,1.62-.32,.52-.66,1.01-1.01,1.47-.14,.18-.29,.35-.43,.53-.17,.2-.34,.4-.51,.59-.26,.27-.52,.54-.79,.79-.03,.03-.07,.06-.1,.09-1.73,1.54-3.74,2.58-5.99,3.21-2.92,.36-1.6-.99-3.88-1.4-.1-.05-.21-.08-.35-.1-.65-.1-1.29-.24-1.92-.4-2.2-.61-4.02-1.47-5.45-2.3-.02,.04-.06,.06-.12,.06"/><path class="cls-5" d="M95.42,124.2c-10.04,0-19.65-4.15-26.79-12.18-8.76-9.85-8.06-29.95-8.03-30.8,.03-.81,.7-1.44,1.51-1.41,.8,.03,1.43,.72,1.39,1.53,0,.2-.68,19.76,7.29,28.72,11.08,12.46,28.67,14.74,43.76,5.68,11.27-6.77,14.16-23.13,14.88-29.85,.06-.53,.21-1.92,1.58-1.86,1.38,.06,1.4,1.45,1.41,1.98,0,.25-.05,.48-.16,.69-1.02,8.98-4.5,24.52-16.23,31.57-6.64,3.99-13.72,5.93-20.61,5.93Z"/><path class="cls-5" d="M87.02,128.31c-.55,0-1.03-.4-1.11-.97l-.74-4.9c-.09-.62,.33-1.2,.94-1.3,.62-.09,1.19,.33,1.28,.95l.74,4.9c.09,.62-.33,1.2-.94,1.3-.06,0-.11,.01-.17,.01Z"/><path class="cls-5" d="M84.54,124.91c.29,.87,7.76,9.4,7.76,9.4l-9.79,10.47-1.68-16.98,3.71-2.89Z"/><polygon class="cls-5" points="101.38 133.99 108.24 125.03 112.32 127.64 110.14 144.21 101.38 133.99"/><path class="cls-5" d="M107.04,127.39c-.57,0-1.06-.44-1.12-1.02l-.35-3.57c-.06-.63,.39-1.18,1.01-1.25,.62-.06,1.17,.39,1.23,1.02l.35,3.57c.06,.63-.39,1.18-1.01,1.25-.04,0-.08,0-.11,0Z"/><polygon class="cls-5" points="92.31 134.31 88.45 144.18 94.14 152.88 92.31 134.31"/><polygon class="cls-5" points="95.48 152.75 101.38 133.99 104.84 142.72 95.48 152.75"/><path class="cls-5" d="M61.84,99.39c-.19,0-.38-.04-.57-.12-9.18-3.93-6.66-16.66-6.55-17.2,.16-.79,.93-1.3,1.72-1.14,.78,.17,1.29,.94,1.12,1.74-.02,.12-2.14,10.91,4.83,13.9,.74,.32,1.08,1.18,.77,1.92-.23,.56-.77,.9-1.34,.9Z"/><path class="cls-5" d="M127.62,105.71c-.69,0-1.3-.5-1.43-1.21-.14-.8,.38-1.56,1.17-1.7,7.49-1.36,7.76-12.36,7.76-12.47,.01-.81,.68-1.46,1.48-1.44,.8,.01,1.44,.68,1.43,1.49,0,.55-.34,13.53-10.15,15.31-.09,.02-.17,.02-.26,.02Z"/><path class="cls-5" d="M44.52,69.45s-2.02,2.11,.68,6.88c0,0-.6,7.82,4,10.94,0,0,.09,7.35,7.35,8.03,0,0-.8-7.81-.77-7.76s1.45-10.69,1.45-10.69l-12.72-7.4Z"/><path class="cls-5" d="M150.49,76.28s1.65,2.43-1.81,6.66c0,0-.71,7.81-5.76,10.11,0,0-1.31,7.23-8.58,6.67,0,0,2.08-7.57,2.04-7.52s.34-10.78,.34-10.78l13.77-5.14Z"/><path class="cls-5" d="M58.24,154.27l-1.72-8.86c-.29-6.08,4.83-6.47,9.69-10.12,4.85-3.65,14.04-7.1,14.04-7.1l1.69,18.46,8.34-9.1-2.78,6.66,6.56,10.61-35.81-.55Z"/><path class="cls-5" d="M134.39,154.82l1.72-8.86c.29-6.08-4.83-6.47-9.69-10.12s-13.71-7.05-13.71-7.05l-2.05,17.12-7.27-8.48,2.44,5.34-11,12.05h39.55Z"/><path class="cls-5" d="M94.22,104.11c-4.78,0-6.51-3.44-6.75-5.33-.09-.7,.4-1.35,1.1-1.44,.69-.09,1.33,.4,1.42,1.1,.05,.35,.61,3.31,4.66,3.09,4.01-.22,4.2-2.65,4.21-2.93,0-.71,.57-1.28,1.27-1.28s1.27,.58,1.27,1.29c0,1.77-1.38,5.19-6.62,5.48-.19,.01-.38,.02-.57,.02Z"/><ellipse class="cls-2" cx="79.61" cy="89.94" rx=".99" ry="1"/><ellipse class="cls-2" cx="108.7" cy="91.38" rx="1.02" ry="1.03"/><circle class="cls-2" cx="77.92" cy="92.08" r=".33"/><ellipse class="cls-2" cx="81.54" cy="92.95" rx=".53" ry=".54"/><circle class="cls-2" cx="107.54" cy="93.44" r=".33"/><ellipse class="cls-2" cx="111.16" cy="94.31" rx=".53" ry=".54"/></g><g><g><rect class="cls-2" x="26.31" y="103.72" width="48.84" height="34.79" rx=".66" ry=".66"/><path class="cls-3" d="M72.87,139.25H28.47c-1.62,0-2.93-1.33-2.93-2.96v-30.29c0-1.63,1.31-2.96,2.93-2.96h44.4c1.62,0,2.93,1.33,2.93,2.96v30.29c0,1.63-1.31,2.96-2.93,2.96ZM28.47,104.27c-.94,0-1.7,.77-1.7,1.72v30.29c0,.95,.76,1.72,1.7,1.72h44.4c.94,0,1.7-.77,1.7-1.72v-30.29c0-.95-.76-1.72-1.7-1.72H28.47Z"/></g><path class="cls-3" d="M49.71,121.76c-.12,0-.24-.04-.35-.11l-21.54-14.86c-.28-.19-.35-.58-.16-.86,.19-.28,.57-.35,.85-.16l21.2,14.63,22.63-15.12c.28-.19,.66-.11,.85,.18,.19,.29,.11,.67-.17,.86l-22.98,15.35c-.1,.07-.22,.1-.34,.1Z"/></g><g><g><path class="cls-2" d="M45.47,154.27l-3.61-18.33,5.87-4.41s2.84-2.37,4.24,0l3.37,5.58s1.26,3.64,0,6.05c-1.26,2.41-2.32,3.31-2.32,3.31,0,0,1.77,2.98-.93,7.8"/><path class="cls-4" d="M45.47,154.33c-.24,0-.45-.17-.5-.41l-3.61-17.98c-.04-.2,.04-.4,.2-.52l5.86-4.32c.16-.13,1.75-1.37,3.28-1.1,.71,.13,1.29,.54,1.71,1.24l3.37,5.47s.04,.06,.05,.1c.05,.15,1.32,3.81-.03,6.35-.91,1.71-1.73,2.68-2.15,3.12,.41,.98,1.18,3.79-1.1,7.8-.14,.25-.45,.33-.7,.19-.24-.14-.33-.46-.19-.7,2.51-4.41,.95-7.1,.93-7.13-.13-.22-.08-.5,.11-.66,0,0,1.01-.87,2.19-3.1,1.06-1.99,.12-5.04-.02-5.47l-3.34-5.43c-.27-.44-.6-.69-1.01-.77-.93-.16-2.1,.59-2.48,.9l-5.62,4.15,3.54,17.66c.06,.28-.12,.55-.4,.61-.03,0-.07,.01-.1,.01Z"/></g><g><polygon class="cls-2" points="47.73 137.26 49.85 135.47 51.48 137.26 47.73 137.26"/><path class="cls-4" d="M51.48,137.64h-3.75c-.16,0-.3-.1-.36-.25-.05-.15,0-.32,.11-.43l2.12-1.79c.16-.13,.39-.12,.53,.03l1.63,1.79c.1,.11,.13,.28,.07,.42-.06,.14-.2,.23-.35,.23Zm-2.7-.77h1.83l-.79-.87-1.03,.87Z"/></g></g></g></g></g></g></svg>