<?xml version="1.0" encoding="UTF-8"?><svg id="_圖層_2" xmlns="http://www.w3.org/2000/svg" viewBox="0 0 258.1 221.07"><defs><style>.cls-1{fill:none;}.cls-2{fill:#fff;}.cls-3{fill:#122d55;}.cls-4{fill:#122c52;}.cls-5{fill:#132c53;}.cls-6{fill:#0f2c51;}.cls-7{fill:#0d2b4d;}</style></defs><g id="_圖層_1-2"><g><g><g><polygon class="cls-2" points="78.66 177.22 88.14 146.84 99.31 144.27 102.54 142.77 108.63 139.78 108.63 133.57 93.65 124.07 86.8 108.56 81.36 106.58 76.22 95.34 80.67 86.72 117.73 71.64 149.42 75.66 170.46 93.18 167.58 107.87 162.18 114.33 156.72 115.57 151.62 123.68 138.53 132.78 131.63 135.02 131.35 141.45 137.84 143.14 141.15 144.27 169.41 161.33 172.44 178.05 78.66 177.22"/><g><path class="cls-6" d="M113.23,93.68c.47-.22,.9-.62,1.05-1.13,.15-.51,.02-1.05-.13-1.57-.09-.31-.19-.64-.43-.84-.03-.02-.05-.04-.08-.06-.11-.08-.25-.13-.38-.18-1.41-.52-2.88-.38-4.34-.59-.83-.12-1.67-.24-2.5-.36-1.01-.14-2.03-.47-3.06-.37-.53,.05-.99,.23-1.43,.55-.3,.22-.98,.6-1.02,1.02-.04,.52,1.08,.82,1.45,.97,.5,.21,1,.41,1.5,.62,1.27,.53,2.54,1.05,3.84,1.51,1.73,.6,3.77,1.27,5.53,.43Z"/><path class="cls-6" d="M145.56,92.97c.39-.1,1.54-.24,1.58-.75,.03-.41-.6-.89-.86-1.15-.39-.38-.81-.63-1.34-.76-1-.25-2.06-.07-3.08-.07-.84,0-1.68,0-2.53,0-1.47,0-2.91-.36-4.38-.04-.14,.03-.27,.06-.4,.12-.03,.02-.06,.03-.09,.05-.27,.17-.42,.48-.55,.77-.22,.48-.42,1.01-.35,1.53,.07,.53,.44,.98,.87,1.27,1.62,1.08,3.74,.72,5.53,.37,1.35-.26,2.68-.6,4.02-.94,.52-.13,1.05-.26,1.57-.4Z"/><path class="cls-6" d="M72.27,88.77l-3.55-2.52c-.46-.52-.82-1.03-1.1-1.48-.64-1.04-.87-1.8-.87-1.8h0c-.54-1.13-.28-1.61-.71-2.77,0,0-.41,.08-1.38-.04-2.42-.29-7.93-6.43-7.56-12.1,.22-3.42,2.17-2.69,1.6-5.74-.57-3.05,.64-2.54,2.21-4.69,.37-.5,.65-1.32,.55-1.91-.74-4.6,.42-8.39,2.88-11.63,.82-1.08,1.79-2.11,2.88-3.08,.69-.61,1.56-1.04,2.41-1.38,.28-.11,.47-.25,.61-.41,.12-.19,.19-.42,.21-.72,.19-3.23-3.3-4.88-1.48-7.55,.34-.5,.7-.98,1.08-1.44,1.13-1.38,2.44-2.57,3.98-3.48,.18-.11,.34-.24,.47-.38,.36-.42,.55-.96,.73-1.52,.54-1.78,1.34-3.33,2.43-4.6,1.09-1.3,2.46-2.33,4.16-3.04,1.54-.64,3.23-.86,4.77-1.5,.89-.37,1.78-1.05,2.38-1.84,3.19-4.18,7.64-5.29,12.35-5.82,.47-.05,.98-.15,1.42-.03,1.64,.46,2.89-.08,4.19-1.21,2.4-2.11,5.18-2.78,8.23-1.7,.28,.1,.74-.08,1.03-.26,2.22-1.44,4.66-2.49,7.23-2.33,2.27,.14,4.19-.6,6.22-1.37,2.85-1.08,5.34,.13,7.68,1.67,.63,.41,1.13,.5,1.85,.25,2.57-.88,5.05-.65,7.35,.85,.83,.54,1.64,1.15,2.34,1.85,1.02,1.03,2.38,1,3.6,1.29,1.87,.44,3.42,1.37,4.65,2.82,1.05,1.24,1.94,2.63,2.94,3.92,.21,.27,.56,.5,.88,.6,3.03,.89,5.51,2.67,7.5,5.16,.59,.74,.97,1.71,1.27,2.63,.37,1.13,.99,1.99,1.9,2.64,1.79,1.28,2.8,3.09,3.39,5.24,.14,.51,.59,1.02,1.03,1.33,1.34,.53,1.6,1.12,1.6,1.12,.27,.16,.84-.18,.8,1.4-.01,.47,.47,.86,.81,1.16,2.91,2.61,2.27,1.38,2.54,5.39,.08,1.21,2.46,3.45,2.92,4.47,2.09,4.56,2.48,5.77,.99,10.58-.19,.61-.14,.97,.25,1.41,4.47,5.15,3.52,12.11,3.52,12.11,0,0,.93,7.44-1.04,9.72-.65,.76-1.4,1.46-2.25,2.08-.07,.05-.14,.13-.2,.22-.15,.24-.25,.59-.27,.87-.22,2.36-1.3,4.32-2.66,6.14-.02,.03-.04,.05-.06,.08-.28,.37-.64,.75-1.03,.88-1.31,.46-1.5,3.4-2.37,4.4-1.16,1.32-2.76,1.92-4.49,2.02-.26-.04-.5-.05-.75-.07-2.65,0-2.58,2.01-2.58,2.01,0,0,.94,3.97-4.07,2.83-5.01-1.15,0,0,0,0-.75,.6-.62,1.13-2.16,1.97-1.54,.84-4.57-.6-4.57-.6l-.47-.3c-.33-.28-.06-.07-.36-.38-.1-.14-.22-.29-.36-.45-.95-1.11-.8-.67-.93-2.01-.09-.86-.31-1.29-1.24-1.39-1.94-.2-3.57-1.14-4.93-2.61-2.17-2.35-3.61-5.09-4.05-8.35-.11-.81-.42-1.26-1.23-1.41-3.65-.65-6.14-2.58-8.06-5.14-.47,.03-.94,.03-1.4,0-1.59,.6-3.35,.77-4.95,.45-.15,0-.31,0-.46,0-.67-.04-1.32-.15-1.97-.31-1.2,.73-2.54,1.26-3.93,1.61-1.02,.39-2.12,.57-3.23,.53-.4,.03-.8,.05-1.19,.06-4.03,.08-7.89-.99-10.82-3.56-.07-.02-.13-.04-.2-.06-.03,.05-.07,.09-.1,.13-.19,.29-.39,.56-.59,.82-.08,.11-.17,.23-.25,.33-.28,.35-.58,.68-.89,.99-2.04,2.05-4.61,3.27-7.61,3.76-1.13,.18-2.33-.03-3.48-.21-.69-.1-1.22-.06-1.63,.37-.11,.13-.22,.29-.31,.49-.3,.64-.78,1.18-1.15,1.79-.35,.58-.73,1.12-1.13,1.63-.16,.2-.32,.39-.48,.58-.19,.22-.38,.45-.58,.66-.29,.3-.58,.6-.89,.88-.04,.03-.07,.07-.11,.1-1.93,1.71-4.19,2.86-6.7,3.56-3.27,.4-1.79-1.1-4.35-1.55-.11-.05-.24-.09-.39-.11-.73-.11-1.44-.27-2.15-.45-2.46-.68-4.5-1.62-6.1-2.55-.02,.04-.07,.06-.14,.06"/><path class="cls-6" d="M122.37,137.7c-11.25,0-22.02-4.6-30.02-13.5-9.81-10.92-9.03-33.2-9-34.14,.04-.9,.78-1.6,1.69-1.56,.9,.04,1.6,.79,1.56,1.69,0,.22-.76,21.91,8.16,31.84,7.35,8.18,17.25,12.4,27.62,12.4,7.14,0,14.5-2,21.4-6.1,12.62-7.5,15.86-25.64,16.67-33.09,.06-.58,.23-2.13,1.77-2.06,1.54,.07,1.57,1.61,1.58,2.19,0,.27-.06,.53-.17,.76-1.15,9.95-5.04,27.19-18.18,35-7.43,4.42-15.37,6.58-23.09,6.58Z"/><path class="cls-6" d="M131.09,144.77c-.08,0-.16,0-.25-.02-.89-.14-1.5-.97-1.36-1.85l1.07-7.01c.14-.89,.96-1.5,1.85-1.36,.89,.14,1.5,.97,1.36,1.85l-1.07,7.01c-.12,.81-.82,1.38-1.61,1.38Z"/><path class="cls-6" d="M132.99,140.94c-.34,1.04-8.27,9.9-8.27,9.9l11.79,12.48,2.02-19.99-5.54-2.38Z"/><polygon class="cls-6" points="113.8 150.46 106.46 140.7 100.62 143.4 103.25 162.63 113.8 150.46"/><path class="cls-6" d="M107.94,143.73c-.05,0-.11,0-.16,0-.89-.09-1.55-.89-1.46-1.78l.7-6.98c.09-.89,.89-1.55,1.78-1.46,.89,.09,1.55,.89,1.46,1.78l-.7,6.98c-.08,.84-.79,1.47-1.62,1.47Z"/><polygon class="cls-6" points="124.72 150.84 129.36 162.6 121.93 172.39 124.72 150.84"/><polygon class="cls-6" points="120.89 172.81 113.8 150.46 109.63 160.87 120.89 172.81"/><path class="cls-6" d="M84.75,110.18c-.21,0-.43-.04-.63-.13-10.29-4.36-7.46-18.47-7.33-19.07,.18-.88,1.05-1.44,1.93-1.26,.88,.18,1.44,1.05,1.26,1.93-.03,.13-2.4,12.1,5.42,15.41,.83,.35,1.22,1.31,.86,2.13-.26,.62-.87,.99-1.5,.99Z"/><path class="cls-6" d="M158.44,117.2c-.77,0-1.46-.55-1.6-1.34-.16-.89,.43-1.73,1.32-1.89,8.36-1.5,8.69-13.7,8.69-13.83,.02-.89,.74-1.6,1.63-1.6,0,0,.02,0,.03,0,.9,.02,1.61,.76,1.6,1.65,0,.61-.38,15-11.37,16.98-.1,.02-.19,.03-.29,.03Z"/><path class="cls-6" d="M65.35,76.99s-2.27,2.34,.76,7.62c0,0-.67,8.67,4.49,12.13,0,0,.11,8.15,8.24,8.9,0,0-.89-8.66-.86-8.6s1.63-11.85,1.63-11.85l-14.25-8.2Z"/><path class="cls-6" d="M184.06,84.56s1.84,2.69-2.03,7.39c0,0-.79,8.66-6.45,11.21,0,0-1.47,8.01-9.61,7.39,0,0,2.33-8.39,2.29-8.34s.38-11.95,.38-11.95l15.42-5.7Z"/><path class="cls-6" d="M160.49,178.37l.58-14.37c.04-4.59-1.57-9.73-7.41-14.07-5.84-4.34-13.63-6.17-13.63-6.17l-2.62,21.99-8.89-9.13,2.59,6.61-8.23,10.88,.5,4.7,37.11-.43Z"/><path class="cls-6" d="M74.49,179.22l-.19-10.24c-.35-7.25,2.85-15.91,8.7-20.25,5.84-4.34,16.32-4.46,16.32-4.46l2.97,21.35,8.15-9.37-2.37,5.04,12.9,13.99,.93,3.94h-47.4Z"/><path class="cls-6" d="M108.25,105.87c-.27,0-.54-.01-.81-.04-4.33-.48-7.06-4.71-7.17-4.89-.42-.66-.22-1.54,.44-1.97,.66-.42,1.54-.23,1.96,.44h0s2.13,3.27,5.1,3.59c1.64,.18,3.33-.59,5.03-2.29,.56-.56,1.46-.56,2.01,0,.56,.56,.56,1.46,0,2.01-2.09,2.09-4.3,3.15-6.56,3.15Z"/><path class="cls-6" d="M139.9,108c-.27,0-.54-.01-.81-.04-4.33-.48-7.06-4.71-7.18-4.89-.42-.66-.22-1.54,.44-1.97,.66-.42,1.54-.23,1.96,.44,.03,.04,2.14,3.27,5.1,3.59,1.64,.18,3.33-.59,5.03-2.29,.56-.56,1.46-.56,2.01,0s.56,1.46,0,2.01c-2.09,2.09-4.3,3.15-6.56,3.15Z"/><path class="cls-6" d="M123.77,119.73c-6.07,0-10.49-8.13-10.68-8.47-.37-.69-.11-1.56,.58-1.93,.69-.37,1.56-.11,1.93,.58,1.05,1.94,4.55,6.97,8.17,6.97,0,0,.02,0,.02,0,2.33-.01,4.6-2.1,6.74-6.19,.36-.7,1.22-.97,1.92-.6,.7,.36,.97,1.23,.6,1.92-2.67,5.1-5.79,7.7-9.25,7.71-.01,0-.02,0-.03,0Z"/><path class="cls-5" d="M88.71,88.56s-.72,7.82,1.44,11.61l-4.17-.95-2.73-10.66h5.46Z"/><path class="cls-5" d="M157.53,94.36s.72,7.82-1.44,11.61l4.17-.95,2.73-10.66h-5.46Z"/><path class="cls-4" d="M90.23,102.67s-.1,0-.14-.02l-3.6-.88c-.33-.08-.53-.41-.45-.74,.08-.33,.41-.53,.74-.45l3.6,.88c.33,.08,.53,.41,.45,.74-.07,.28-.32,.47-.59,.47Z"/><path class="cls-4" d="M90.23,104.76s-.1,0-.14-.02l-3.6-.88c-.33-.08-.53-.41-.45-.74,.08-.33,.41-.53,.74-.45l3.6,.88c.33,.08,.53,.41,.45,.74-.07,.28-.32,.47-.59,.47Z"/><path class="cls-4" d="M155.94,108.12c-.28,0-.52-.19-.59-.47-.08-.33,.12-.66,.45-.74l3.6-.88c.33-.08,.66,.12,.74,.45,.08,.33-.12,.66-.45,.74l-3.6,.88s-.1,.02-.15,.02Z"/><path class="cls-4" d="M155.26,110.37c-.28,0-.52-.19-.59-.47-.08-.33,.12-.66,.45-.74l3.6-.88c.33-.08,.66,.12,.74,.45,.08,.33-.12,.66-.45,.74l-3.6,.88s-.1,.02-.15,.02Z"/></g><polygon class="cls-2" points="90.25 145.25 88.71 179.91 153.21 179.49 151 148.01 144.97 145.16 144.59 172.01 95.18 172.79 95.72 144.32 90.25 145.25"/><g><path class="cls-6" d="M160.16,178.77c-.79,0-1.42-.64-1.42-1.42v-11.11c0-.79,.64-1.42,1.42-1.42s1.42,.64,1.42,1.42v11.11c0,.79-.64,1.42-1.42,1.42Z"/><path class="cls-6" d="M172.44,179.03c-.63,0-1.21-.42-1.38-1.06l-3.03-11.4c-.2-.76,.25-1.54,1.01-1.74,.76-.2,1.54,.25,1.74,1.01l3.03,11.4c.2,.76-.25,1.54-1.01,1.74-.12,.03-.25,.05-.37,.05Z"/><g><g><path class="cls-2" d="M164.43,170.11c-.75,0-1.56-.08-2.41-.25-3.59-.7-5.86-2.23-6.75-4.54-1.55-4.05,1.97-8.79,2.12-8.99,.23-.31,.59-.48,.97-.48h11.65c.57,0,1.06,.39,1.19,.94,.07,.29,1.65,7.16-1.33,10.93-1.26,1.59-3.09,2.4-5.44,2.4Z"/><path class="cls-6" d="M170.01,157.06s2.8,11.83-5.58,11.83c-.66,0-1.38-.07-2.18-.23-11.02-2.15-3.88-11.6-3.88-11.6h11.65m0-2.44h-11.65c-.77,0-1.49,.36-1.95,.97-.42,.56-4.05,5.56-2.29,10.16,1.05,2.73,3.62,4.52,7.65,5.31,.93,.18,1.82,.27,2.65,.27,3.42,0,5.36-1.56,6.4-2.86,3.29-4.16,1.75-11.18,1.56-11.97-.26-1.1-1.24-1.88-2.38-1.88h0Z"/></g><g><path class="cls-2" d="M153.66,159.33c-.13,0-.26-.02-.39-.06-2.95-.98-8.26-4.41-7.21-10.31,.56-3.13,2.09-3.79,3.28-3.79,2.38,0,4.82,2.96,5.28,3.56,.02,.02,.04,.05,.05,.08,2.47,3.73,3.2,6.49,2.23,8.45-.75,1.52-2.35,2.02-3.17,2.07-.03,0-.05,0-.08,0Z"/><path class="cls-6" d="M149.34,146.39c1.91,0,4.32,3.09,4.32,3.09,5.48,8.27,0,8.63,0,8.63,0,0-7.54-2.51-6.39-8.94,.37-2.08,1.17-2.78,2.08-2.78m0-2.44c-1.09,0-3.71,.47-4.48,4.79-1.2,6.73,4.73,10.58,8.03,11.68,.25,.08,.51,.13,.77,.13,.05,0,.11,0,.16,0,1.35-.09,3.25-.86,4.18-2.75,1.18-2.38,.42-5.55-2.31-9.67-.03-.05-.07-.1-.11-.15-.74-.94-3.36-4.03-6.24-4.03h0Z"/></g><g><path class="cls-2" d="M165.68,151.11c-1.52,0-3.72-2.19-5.3-4.03-.16-.19-.26-.41-.29-.66-.23-2-1.99-19.63,5.47-22.39,.8-.29,1.49-.44,2.12-.44,1.38,0,2.13,.69,2.51,1.27,1.65,2.51-.53,8.11-1.12,9.51-.23,1.2-2.03,10.72-1.66,14.12,.04,.34,.15,1.37-.47,2.06-.32,.36-.77,.55-1.26,.55Z"/><path class="cls-6" d="M167.68,124.81c4.17,0,.21,9.2,.21,9.2,0,0-2.12,10.77-1.7,14.61,.1,.91-.12,1.26-.52,1.26-1.28,0-4.37-3.61-4.37-3.61,0,0-2.1-18.6,4.68-21.1,.67-.25,1.23-.36,1.69-.36m0-2.44h0c-.78,0-1.61,.17-2.54,.51-3.8,1.4-5.98,5.99-6.47,13.62-.33,5.12,.19,9.85,.21,10.04,.05,.49,.25,.94,.57,1.32,3.83,4.46,5.63,4.46,6.23,4.46,.85,0,1.62-.34,2.17-.96,.98-1.1,.82-2.54,.77-3.01-.31-2.77,1.02-10.56,1.62-13.64,.23-.55,.76-1.93,1.18-3.5,.88-3.25,.81-5.48-.22-7.03-.77-1.18-2.03-1.82-3.53-1.82h0Z"/></g><g><path class="cls-2" d="M158.89,164.2c-1.17,0-2.22-.12-3.12-.36-.73-.2-2.96-.8-3.16-2.6-.06-.57,.11-1.1,.39-1.57-2.74-.61-4.49-2.44-4.79-5.17-.66-5.95,14.33-8.77,17.34-9.27,.15-.03,.33-.05,.52-.05,3.09,0,4.01,4.97,4.26,6.96,1.24,.89,2.02,2.02,2.32,3.38,.62,2.87-1.24,5.62-1.32,5.73-.14,.2-.34,.36-.57,.45-.27,.1-6.64,2.5-11.87,2.5,0,0,0,0,0,0Z"/><path class="cls-6" d="M166.07,146.39c2.53,0,3.11,6.45,3.11,6.45,4.57,2.74,1.14,7.72,1.14,7.72,0,0-6.37,2.42-11.44,2.42-1,0-1.96-.09-2.8-.32-5.1-1.37,0-4.05,0-4.05,0,0-.38,.05-.96,.05-1.74,0-5.27-.48-5.69-4.3-.57-5.1,16.33-7.93,16.33-7.93,.11-.02,.21-.03,.31-.03m0-2.44c-.25,0-.5,.02-.75,.07-.43,.07-4.56,.79-8.69,2.13-2.52,.82-10.2,3.31-9.62,8.48,.31,2.79,1.92,4.84,4.42,5.82-.05,.29-.05,.6-.02,.91,.19,1.75,1.56,2.98,4.05,3.65,1,.27,2.15,.41,3.43,.41,5.46,0,12.03-2.47,12.3-2.58,.46-.18,.86-.49,1.14-.9,.23-.33,2.23-3.36,1.51-6.68-.23-1.08-.84-2.53-2.36-3.78-.39-2.68-1.63-7.53-5.41-7.53h0Z"/></g></g></g></g><g><path class="cls-3" d="M206.05,16.86c-31.92-5.08-60.65,8.16-64.05,29.51-3.08,19.35,17.45,26.03,40.09,30.37,2.21,.42,3.9,2.06,4.42,4.26,.51,2.18-.27,4.37-2.04,5.71l-.13,.1c-1.28,.94-1.88,2.52-1.57,4.1,.32,1.59,1.48,2.82,3.04,3.21,.5,.12,1,.23,1.5,.31,2.4,.38,4.88,.28,7.25-.32,5.19-1.3,9.52-4.79,11.89-9.59,1.04-2.12,3.38-3.34,5.82-3.05,21.84,2.6,42.47,2.37,45.5-16.68,3.4-21.35-19.81-42.86-51.73-47.94Z"/><g><g><path class="cls-3" d="M250.44,28.76c-1.89-2.43-4.06-4.78-6.49-7.01-1.8-1.65-3.75-3.24-5.81-4.73-.61-.44-1.47-.29-1.9,.33h0c-.42,.61-.27,1.44,.33,1.88,1.97,1.43,3.83,2.95,5.55,4.52,2.31,2.11,4.37,4.35,6.16,6.65,.45,.58,1.28,.71,1.88,.28h0c.61-.45,.75-1.31,.28-1.91Z"/><path class="cls-3" d="M220.89,7.66c-6.13-2.42-12.65-4.19-19.41-5.26-9.59-1.53-19.37-1.56-28.37-.11-.75,.12-1.24,.84-1.11,1.58h0c.13,.73,.82,1.21,1.56,1.09,8.72-1.4,18.2-1.37,27.5,.11,6.56,1.04,12.89,2.76,18.83,5.1,.69,.27,1.47-.05,1.75-.74,.29-.7-.04-1.5-.75-1.78Z"/></g><path class="cls-2" d="M200.2,10.43c31.23,4.97,53.89,25.74,50.6,46.38-2.7,16.96-20.44,18.35-44,15.54-2.96-.35-5.88,1.13-7.2,3.8-2.11,4.28-6.01,7.63-11,8.88-2.76,.69-5.52,.65-8.1,0-2.24-.56-2.85-3.54-.99-4.91,.05-.04,.1-.07,.14-.11,4.78-3.63,2.95-11.25-2.94-12.38-24.32-4.66-41.79-11.38-39.01-28.83,3.29-20.65,31.27-33.35,62.5-28.38Z"/><path class="cls-3" d="M181.68,86.67c2.4,.38,4.88,.28,7.25-.32,5.19-1.3,9.52-4.79,11.89-9.59,1.04-2.12,3.38-3.34,5.82-3.05,21.84,2.6,42.47,2.37,45.5-16.68,3.4-21.35-19.81-42.86-51.73-47.94-31.92-5.08-60.65,8.16-64.05,29.51-3.08,19.35,17.45,26.03,40.09,30.37,2.21,.42,3.9,2.06,4.42,4.26,.51,2.18-.27,4.37-2.04,5.71l-.13,.1c-1.28,.94-1.88,2.52-1.57,4.1,.32,1.59,1.48,2.82,3.04,3.21,.5,.12,1,.23,1.5,.31ZM199.99,11.77c30.44,4.84,52.64,24.96,49.47,44.83-2.16,13.57-14.47,17.74-42.5,14.41-3.58-.43-7.03,1.4-8.58,4.55-2.01,4.08-5.7,7.06-10.11,8.16-2.44,.61-5.02,.61-7.44,0-.79-.2-.99-.9-1.03-1.11-.04-.21-.12-.92,.52-1.39l.16-.12c2.63-2,3.8-5.25,3.04-8.49-.76-3.26-3.27-5.68-6.55-6.31-24.62-4.72-40.49-11.17-37.93-27.28,3.16-19.87,30.5-32.1,60.95-27.26Z"/></g></g><g><path class="cls-4" d="M172.1,29.72c.16-.14,.51-.45,.89-.39,.31,.04,.9,.49,.84,.86-.01,.1-.07,.16-.13,.23-.09,.1-.1,.17-.11,.29-.04,.28-.21,1.63-.25,1.93-.07,.51-.18,.55-.73,.65-.09,.02-.46,.15-.76,.57,.38,.06,.69,.14,.77,.16,.26,.08,2.57,.83,4.39,1.4,1,.32,2.08,.62,3.31,.8,.57,.08,1.17,.14,1.97,.1,.09-.02,.39-.02,.48,0,.07,.01,.15,.05,.13,.16-.03,.2-1.47,1.06-1.51,1.08-.57,.35-1.01,.39-1.5,.32-1.15-.17-3.06-1.11-3.13-1.13l-3.17-1.54c-1.72-.83-2.15-.83-2.19-.81-1.13,1.21-1.16,1.26-1.53,1.21-.54-.08-.74-.81-.69-1.15,.04-.24,.1-.27,.65-.53,.85-.37,1.35-.63,1.86-1.1l.33-2.31-.86-.08c-.13-.02-.77,.15-.91,.13-.21-.03-.38-.17-.34-.43,.05-.33,.32-.69,.8-.62,.07,.01,.4,.13,.49,.14l.91,.09Zm1.59-2.51c-.13-.02-2.43-.67-2.3-1.58,.08-.54,.62-.78,1.04-.72,.92,.13,1.73,1.75,1.68,2.08-.02,.16-.17,.25-.42,.21Zm6.94,5.68c.19-.2,.49-.52,.86-.47,.38,.06,.96,.59,.9,.98-.04,.31-.43,.31-.8,.26l-6.74-.97c-.13-.02-.75,.11-.89,.09-.04,0-.44-.06-.39-.39,.03-.24,.24-.54,.7-.48,.07,.01,.4,.13,.49,.14l1.06,.15c.02-.16,.12-.95,.15-1.13l-.4-.06c-.14-.02-.81,.09-.95,.07-.04,0-.43-.06-.38-.37,.04-.25,.26-.57,.72-.5,.08,.01,.43,.15,.51,.16l.57,.08c.03-.23,.05-.33-.02-.45-.01-.03-.1-.19-.1-.22,.04-.3,.86-.58,1.22-.53,.25,.04,.56,.15,.51,.46-.02,.14-.17,.78-.19,.94l.69,.1v-.1c.05-.28,.04-.3,0-.35-.1-.12-.15-.17-.14-.22,.04-.3,.84-.64,1.21-.59,.28,.04,.63,.21,.59,.52-.02,.14-.2,.78-.22,.94l.57,.08c.14-.14,.43-.46,.84-.4,.4,.06,.88,.53,.82,.94-.04,.31-.47,.28-.7,.25l-1.63-.24-.18,1.12,1.32,.19Zm-5.97,1.64c-.48-.07-.77-.44-.72-.78,.07-.45,.6-.38,1.1-.3,.65,.09,1.02,0,1.5-.2,.25-.11,.31-.13,.45-.11,.13,.02,.25,.09,.23,.22-.06,.42-1.29,1.36-2.55,1.18Zm1.29-7.44c-.13,.82-.15,.9-.04,.99,.07,.05,.19,.07,.32,.09,.89,.13,1.59,0,1.94-.24,.06-.03,.14-.07,.21-.06,.14,.02,.17,.11,.16,.2-.41,1.15-.59,1.27-2.17,1.04-.69-.1-1.94-.35-1.77-1.35l.16-.92c-.08-.13-.14-.22-.13-.28,.03-.21,.68-.48,1.04-.43,.24,.03,.45,.17,.44,.37l.67,.1,.13-.92-1.02-.15c-.14-.02-.83,.15-.99,.13-.1-.01-.36-.11-.33-.35,.04-.28,.32-.63,.72-.57,.06,0,.38,.14,.47,.15l1.25,.18c.18-.26,.42-.39,.57-.36,.23,.03,.87,.41,.82,.73,0,.06-.1,.32-.11,.37-.03,.21-.17,1.25-.2,1.47-.05,.33-.78,.41-1.05,.37-.41-.06-.39-.3-.37-.46l-.72-.1Zm1.97,5.43l.16-1.13-.75-.11-.16,1.13,.75,.11Zm3.08,2.89c-.06,.4-.56,.56-.9,.51-.4-.06-.54-.24-1.08-.94-.19-.26-.47-.63-.9-1.06-.42-.41-.47-.44-.46-.5,.02-.11,.26-.08,.31-.07,.5,.07,1.54,.47,1.91,.68,.68,.39,1.19,.87,1.12,1.37Zm-1.09-7.74c-.18,.83-.2,1.01,.4,1.1,1.22,.18,2.07-.19,2.39-.33,.05-.02,.12-.04,.19-.03,.11,.02,.18,.08,.16,.18-.01,.07-.42,1.2-.93,1.32-.19,.04-.56,0-.76-.02-2.5-.36-2.89-.89-2.8-1.55l.14-.99s-.11-.17-.1-.2c.03-.23,.73-.47,.99-.44,.35,.05,.47,.23,.47,.37l.67,.1,.13-.92-1.13-.16c-.13-.02-.79,.17-.95,.15-.09-.01-.34-.12-.31-.36,.04-.27,.28-.62,.7-.56,.07,.01,.39,.13,.46,.14l1.36,.2c.14-.24,.42-.42,.61-.39,.24,.03,.93,.48,.88,.78,0,.06-.16,.29-.17,.35-.04,.24-.19,1.4-.2,1.46-.05,.37-.87,.42-1.11,.39-.07-.01-.42-.06-.39-.48l-.71-.1Z"/><path class="cls-4" d="M187.45,32.14s1.1-.2,1.35-.22c.06,0,.16,0,.14,.11-.02,.11-.62,.52-1.59,.98-.07,.55-.35,2.69-.4,3.09-.13,.89-.35,2.41-1.95,2.17-.86-.12-1.62-1.07-1.59-1.27,0-.06,.05-.05,.09-.04,.04,0,.68,.17,.82,.19,.75,.11,.92-.55,1-.9,.14-.53,.41-2.22,.49-2.78-.28,.12-.96,.32-1.35,.27-.44-.06-.66-.44-.6-.81,.04-.25,.19-.41,.37-.49,.12-.05,.72-.1,1.75-.2l.31-2.31-.69-.1c-.11-.02-.68,.13-.82,.11-.16-.02-.4-.14-.36-.4,.04-.25,.28-.61,.71-.55,.06,0,.34,.12,.42,.13l.83,.12c.07-.55,.1-.87,.12-1.14,.03-.41,.04-.46-.08-.6-.2-.22-.21-.23-.2-.3,.07-.51,.94-.99,1.5-.91,.38,.06,.65,.3,.59,.71-.03,.18-.24,1.06-.27,1.26l-.18,1.22,.2,.03c.16-.21,.41-.36,.58-.33,.3,.04,.62,.52,.57,.83-.04,.3-.49,.26-.64,.24l-.83-.12-.28,2.01Zm7.8,3.12c.24-.27,.57-.44,.82-.4,.35,.05,.94,.58,.89,.95-.04,.27-.37,.26-.55,.24l-3.37-.49-.14,.98,1.32,.19c.21-.26,.55-.44,.79-.41,.37,.05,.87,.59,.81,1-.04,.25-.35,.25-.44,.24-.24,0-2.17-.31-2.57-.37-.02,.24-.14,1.47-.18,1.74-.08,.55-.79,.78-1.19,.72-.67-.1-.58-.66-.56-.83,.04-.27,.31-1.56,.35-1.86-.38-.04-.81-.1-1.28-.17-.14-.02-.82,.06-.96,.03-.21-.03-.38-.14-.35-.35,.04-.3,.32-.59,.66-.54,.08,.01,.43,.12,.52,.13l1.51,.23,.14-.96-2.25-.33c-.06,0-.19,.03-.25,.04-.18,.05-.37,.09-.54,.07-.04,0-.37-.05-.33-.34,.04-.25,.31-.56,.67-.51,.06,0,.33,.11,.4,.12l1.54,.22c-.34-.63-.38-.69-.35-.85,.04-.27,.48-.41,.82-.36,.34,.05,.77,.14,.61,1.36l1.12,.16c.02-.05,.31-.91,.31-.94,.08-.15,.15-.27,.64-.2,.37,.05,.72,.31,.68,.59-.03,.21-.48,.6-.59,.69l1.32,.19Zm.35-1.91c.21-.24,.6-.46,.84-.43,.34,.05,.88,.59,.83,.96-.04,.31-.4,.27-.53,.26l-7.17-1.04c-.07-.01-.61,.1-.73,.08-.23-.03-.29-.21-.27-.36,.04-.25,.31-.52,.65-.47,.04,0,.27,.1,.33,.11l2.32,.34c.02-.11,.07-.71,.09-.84l-1.32-.19c-.09-.01-.52,.1-.62,.08-.13-.02-.34-.14-.31-.36,.04-.25,.25-.51,.59-.46,.06,0,.32,.12,.39,.13l1.36,.21,.04-.59s-.14-.24-.13-.29c.02-.11,.06-.14,.19-.2l-1.32-.19c-.12,.32-.87,.34-1.06,.31-.23-.03-.54-.15-.5-.46,.03-.21,.21-1.18,.25-1.41l.09-.61c-.13-.21-.17-.26-.15-.34,.04-.27,.99-.51,1.28-.46,.14,.02,.42,.18,.47,.47l4.44,.64c.33-.28,.63-.37,.79-.35,.31,.05,1.01,.41,.96,.76,0,.06-.16,.32-.17,.38-.04,.28-.2,1.66-.22,1.8-.07,.48-.84,.49-1.26,.42-.51-.07-.5-.25-.46-.51l-1.53-.22c-.05,.17-.19,.88-.21,1.08l1.05,.15c.18-.23,.56-.37,.77-.34,.35,.05,.78,.53,.73,.83-.02,.16-.2,.29-.5,.25l-2.15-.31-.12,.85,2.28,.33Zm-4.08-3.74l.2-1.36-.64-.09-.2,1.36,.64,.09Zm1.9,.27l.2-1.36-.66-.1-.2,1.36,.66,.1Zm1.95,.28l.2-1.36-.65-.09-.2,1.36,.65,.09Z"/><path class="cls-4" d="M200.24,38.85c.89,.13,7.91,1.16,8.19,1.2,.27-.26,.7-.64,1.11-.58,.5,.07,1.1,.81,1.04,1.23-.05,.38-.56,.37-.98,.31l-9.44-1.36-.04,.3c-.07,.5-.89,.68-1.26,.63-.16-.02-.35-.11-.47-.24-.1-.1-.15-.18-.09-.58,.03-.2,.23-1.08,.26-1.28,.03-.21,.21-1.27,.27-1.68,.6-3.77,.69-4.19,.98-6.17,.02-.14,.1-.69,.09-.9,0-.09-.21-.52-.2-.62,.05-.34,.91-.92,1.44-.85,.64,.09,.62,.48,.62,.7l7.23,1.05c.23-.39,.77-.6,1.06-.55,.41,.06,1.04,.67,.98,1.14-.07,.45-.56,.38-1.56,.24-1.06-.15-6.29-.94-7.48-1.11-.21-.03-.4-.06-.45,.35l-1.27,8.79Zm3.65-4.25c.18-.25,.51-.36,.74-.33,.3,.04,.8,.38,.75,.7,0,.06,0,.07-.05,.14-.08,.13-.08,.15-.1,.27-.05,.35-.25,2.06-.31,2.44-.04,.3-.06,.4-.29,.48-.29,.1-.59,.1-.78,.08-.51-.07-.5-.17-.44-.66l-.78-.11-.04,.27c-.05,.35-.75,.48-1.04,.44-.58-.08-.54-.38-.5-.61,.04-.3,.32-1.74,.37-2.08l.12-.82s-.09-.1-.11-.13c-.02-.03-.03-.06-.03-.11,.04-.27,.81-.59,1.18-.54,.24,.03,.56,.18,.54,.45l.76,.11Zm-.39,2.59l.3-2.05-.81-.12-.3,2.05,.81,.12Zm3.82-5.72c.25-.3,.59-.42,.84-.38,.3,.04,.89,.43,.84,.76,0,.07-.19,.33-.2,.39-.04,.25-.16,1.51-.2,1.79-.07,.48-.66,.57-1.21,.49-.54-.08-.5-.35-.48-.56l-2.22-.32c-.07,.41-.82,.4-.99,.38-.58-.08-.54-.37-.5-.62,0-.04,.28-1.76,.3-1.88,0-.04-.14-.24-.13-.29,.04-.3,.87-.63,1.25-.57,.16,.02,.54,.15,.52,.51l2.19,.32Zm-.32,1.89l.19-1.3-2.02-.31c-.06,0-.21-.03-.24,.15l-.16,1.13,2.24,.32Zm1.33,1.88c.39-.39,.71-.34,.76-.34,.35,.05,.96,.47,.91,.78,0,.03-.13,.21-.17,.25-.02,.03-.08,.45-.09,.49-.04,.31-.21,1.79-.25,2.02-.04,.3-.06,.41-.38,.54-.26,.11-.55,.14-.77,.11-.57-.08-.53-.36-.47-.72l-.93-.14c-.03,.2-.05,.37-.3,.51-.14,.08-.4,.2-.67,.16-.59-.09-.55-.4-.53-.54,.04-.27,.27-1.58,.31-1.88,.02-.14,.11-.85,.13-1.01,0-.01-.12-.26-.11-.32,.04-.25,.8-.53,1.15-.48,.24,.03,.53,.18,.5,.43l.91,.13Zm-.37,2.59l.3-2.05-.93-.14-.3,2.05,.93,.14Z"/><path class="cls-4" d="M216.01,35.38c-.15,.87-.24,1.44-.49,3.02,.12-.01,1.05-.15,1.08-.15,.06,0,.09,.07,.08,.11-.07,.45-3.36,1.96-4.34,1.81-.42-.06-.8-.55-.74-.96,.04-.3,.36-.7,.74-.73,.25-.02,1.39,.01,1.62-.01l.48-3.33-.65-.09c-.13-.02-.72,.11-.84,.1-.08-.01-.4-.06-.34-.45,.04-.31,.3-.58,.67-.52,.08,.01,.46,.15,.53,.16l.72,.1c.12-.83,.22-1.5,.29-2.31-.04-.03-.34-.28-.31-.48,.07-.47,1.2-.9,1.69-.82,.59,.09,.52,.57,.51,.69-.02,.14-.18,.74-.21,.85-.06,.21-.21,1.15-.39,2.3l.18,.03c.23-.3,.48-.44,.58-.42,.04,0,.05,.02,.09,.04-.02-.07-.02-.13-.01-.22,.04-.31,.41-.71,.73-.66,.1,.01,.53,.22,.63,.24l2.64,.4c0-.16,.08-1.55,.09-1.62-.24-.25-.41-.45-.39-.62,.07-.47,1.22-.96,1.78-.88,.61,.09,.57,.47,.54,.66-.06,.42-.41,2.31-.42,2.7l1.44,.19c.26-.41,.67-.51,.87-.48,.44,.06,.9,.69,.83,1.13-.05,.38-.47,.32-.82,.27l-2.41-.35c-.08,.86-.16,1.87-.11,3.58,.23-.47,.41-.85,.63-1.56-.02-.03-.11-.15-.09-.3,.06-.41,.73-.66,1.17-.6,.43,.06,.77,.39,.69,.92-.08,.58-.96,1.96-1.28,2.39-.07,.08-.45,.54-.68,.81,.01,.02,.59,2.01,1.33,2.11,.35,.05,.58-.19,.9-.62,.09-.13,.12-.16,.17-.15,.11,.02,.07,.29,.04,.5-.21,1.49-.7,2.21-1.59,2.08-.96-.14-1.8-1.4-2.15-3.03-1.21,1.1-3.02,1.31-3.64,1.22-.08-.01-.28-.06-.26-.2,0-.06,.11-.08,.83-.36,.84-.31,1.98-1.11,2.71-1.89-.18-1.24-.32-2.59-.2-5.14l-2.84-.41c-.13,0-.69,.09-.81,.09,.26,.3,.27,.56,.25,.66-.04,.27-.39,.36-.8,.3l-.75-.11Zm-.2,5.99c-.4-.06-.83-.44-.77-.85,.09-.65,.78-.67,1.22-.68,1.32-.04,1.96-.06,3.3-.25,.07,0,.96-.14,1-.13,.08,.01,.25,.07,.23,.19-.07,.5-3.91,1.86-4.98,1.71Zm2.48-2.96c-.14,.66-.84,.69-1.05,.66-.58-.08-.53-.42-.49-.69,.05-.34,.28-1.76,.33-2.06-.16-.17-.18-.18-.17-.26,.05-.34,.88-.68,1.22-.63,.26,.04,.5,.17,.51,.45l.78,.11c.18-.22,.45-.32,.72-.29,.35,.05,.71,.39,.66,.72,0,.06-.09,.26-.1,.3-.04,.28-.18,1.62-.2,1.78-.06,.44-.74,.6-1.05,.56-.45-.07-.43-.31-.4-.53l-.76-.11Zm1.05-1.87l-.79-.11c-.04,.17-.06,.35-.09,.54l-.12,.81,.81,.12,.19-1.34Zm3.86-2.63c-.16-.02-.26-.1-.23-.29,.02-.17,.59-1.19,.74-1.44,.21-.33,.47-.63,.92-.56,.45,.07,.91,.48,.85,.93-.08,.55-1.87,1.42-2.28,1.36Z"/><path class="cls-4" d="M157.76,42.51c.22-.3,.52-.46,.71-.43,.3,.04,.76,.51,.71,.9-.05,.34-.38,.33-.65,.3l-1.19-.17-.31,2.16c.15,0,.86-.03,1.02-.05,.2-.01,.59-.07,.63-.07,.04,0,.11,.04,.1,.13,0,.07-.23,.2-.33,.26-.39,.22-.87,.39-1.51,.65-.06,.41-.31,2.43-.37,2.89-.13,.91-.35,2.39-1.96,2.16-.92-.13-1.6-1.1-1.58-1.27,0-.06,.05-.05,.09-.04,.04,0,.67,.17,.8,.19,.45,.07,.79-.2,.91-.52,.14-.37,.18-.65,.6-3.14-.46,.15-1.02,.27-1.47,.21-.4-.06-.76-.47-.7-.88,.03-.23,.2-.45,.46-.51,.05-.02,1.72-.04,1.87-.05l.31-2.32-.79-.11c-.11-.02-.68,.13-.81,.11-.18-.03-.41-.15-.38-.4,.04-.27,.29-.59,.71-.53,.06,0,.34,.12,.41,.13l.93,.14c.07-.55,.1-.88,.12-1.15,.03-.41,.04-.46-.04-.54-.24-.25-.26-.28-.25-.37,.07-.51,.95-.97,1.5-.9,.41,.06,.65,.3,.59,.69-.02,.11-.14,.6-.18,.71-.05,.27-.24,1.5-.29,1.79l.31,.04Zm7.13,8.43c.35,.05,.99-.22,1.38-.68,.03-.02,.09-.09,.16-.08,.04,0,.11,.04,.09,.19,0,.04-.1,.61-.24,1.03-.22,.72-.68,1.53-1.63,1.4-.98-.14-2.17-1.31-2.84-3.13-1.35,.83-2.84,1.26-4.4,1.04-.32-.05-.7-.16-.68-.29,.01-.07,.34-.12,.56-.16,.38-.06,2.5-.48,3.98-1.81-.44-1.94-.49-3.22-.51-3.86-.18,.02-1.54,.14-1.6,.16-.44,.14-.56,.18-.79,.15-.3-.04-.46-.23-.42-.47,.04-.3,.35-.72,.8-.65l.37,.05c.07,.01,1.18,.03,1.59,.01,.03-1.53,.04-2.05,.09-3.03-.25-.25-.29-.3-.27-.43,.06-.42,.97-.94,1.54-.86,.13,.02,.67,.1,.57,.73-.02,.11-.14,.67-.16,.81-.14,.99-.24,2.33-.26,2.78,.92-.04,1.06-.05,2.34-.12,.21-.45,.57-.65,.84-.62,.35,.05,1.17,.56,1.11,1-.03,.18-.22,.33-.46,.38-.26,.06-3.19,.09-3.79,.1-.03,.88,0,1.73,.23,2.94,.59-.81,.71-1.1,.8-1.34-.05-.12-.03-.27-.03-.28,.05-.34,.78-.52,1.17-.47,.25,.04,.8,.23,.73,.74-.1,.68-1.52,2.25-1.59,2.31-.07,.06-.41,.36-.48,.44,.15,.35,1.03,1.9,1.8,2.01Zm-1.54-8.02c-.24-.03-.22-.19-.21-.28,.01-.08,.55-1.19,.88-1.72,.28-.45,.83-.44,.97-.42,.42,.06,.81,.51,.75,.9-.09,.65-2.08,1.56-2.4,1.52Z"/><path class="cls-4" d="M178.55,50.91c.28-.36,.74-.53,1.02-.49,.38,.06,1.07,.68,1.01,1.1-.06,.44-.63,.36-.97,.31-.44-.06-2.53-.39-3.01-.46-.15,1.44-.16,1.6-.21,1.92-.22,1.51-1.61,1.31-1.76,1.29-1.05-.15-1.94-1.29-1.91-1.48,0-.06,.05-.05,.14-.04,.01,0,.36,.12,.4,.13,.07,.02,.28,.08,.6,.13,.62,.09,.8-.01,.92-.79l.22-1.41c-.81-.12-4.74-.67-5.62-.8-.08-.01-.47-.07-.64-.05-.12,0-.68,.09-.81,.07-.33-.05-.46-.21-.43-.4,.05-.33,.48-.64,.81-.59,.08,.01,.46,.14,.54,.15l6.24,.9s.02-.17,0-.22c0-.04-.15-.3-.14-.35,.02-.14,.19-.22,.3-.26-.34,.04-.52,.01-.56,0-.37-.05-.32-.36-.3-.53,.03-.23,.24-1.37,.28-1.62,0-.06,.01-.08-.02-.15-.13-.22-.14-.24-.13-.31,.04-.28,.78-.61,1.29-.54,.1,.01,.41,.06,.45,.4l2.05,.3c.21-.26,.57-.34,.75-.31,.33,.05,.98,.55,.92,.9,0,.06-.17,.31-.19,.38-.03,.2-.13,1.18-.16,1.41-.07,.51-1.08,.49-1.27,.47-.51-.07-.48-.39-.45-.57l-2.02-.29c-.02,.16-.07,.21-.22,.36,.37-.06,.54-.04,.65-.02,.4,.06,.6,.14,.56,.41-.02,.11-.17,.65-.19,.78l1.84,.27Zm-6.37-2.81c.22-.01,1.64,.02,1.79,.04,.13,.02,.16,.11,.15,.17-.07,.5-3.78,.73-4.88,.57-.06,0-.8-.14-.72-.68,.07-.51,.63-.43,.91-.39,.18,.03,.41,.06,1.28,.14l.16-1.12c-.13,0-.77-.1-.91-.1-.1,0-.59,.09-.7,.07-.17-.02-.38-.16-.35-.4,.04-.28,.37-.54,.64-.5,.08,.01,.25,.11,.33,.13l2.82,.41c.17-.25,.42-.43,.66-.4,.4,.06,.83,.48,.77,.91-.04,.3-.42,.27-.61,.24l-1.16-.17-.16,1.08Zm-1.45,3.4c1.1,.16,1.84-.2,1.9-.23,.17-.09,.29-.15,.39-.13,.18,.03,.17,.13,.15,.25-.02,.14-.51,.69-.8,.94-.46,.38-1.3,.67-2.22,.53-.72-.1-1.04-.63-.99-.97,.05-.34,.5-.58,.93-.54,.08,.03,.25,.09,.63,.15Zm6.63-9.08c.25-.31,.58-.45,.8-.42,.44,.06,1.15,.56,1.09,.98,0,.06-.24,.27-.25,.34-.05,.38-.27,2.26-.33,2.67-.09,.59-.91,.69-1.36,.63-.45-.07-.44-.34-.43-.51l-5.22-.75c-.13-.02-.72,.08-.85,.07-.18-.03-.44-.18-.41-.39,.04-.3,.38-.52,.75-.47,.07,.01,.41,.13,.5,.14l5.32,.77,.11-.79-5.22-.75c-.11-.02-.69,.09-.82,.07-.18-.03-.45-.17-.42-.41,.04-.28,.34-.57,.74-.51,.07,.01,.41,.13,.5,.14l5.32,.77,.12-.82-5.22-.75c-.13-.02-.74,.1-.88,.08-.21-.03-.44-.18-.4-.41,.04-.3,.39-.64,.79-.58,.07,.01,.41,.15,.5,.16l5.28,.76Zm.67,6.37l.14-1.05-1.9-.27c-.06,0-.12,.04-.13,.1l-.14,.93,2.02,.29Z"/><path class="cls-4" d="M188.97,50.85c-.14,.76-.38,1.32-.79,1.94,2.72,2.04,4.52,2.4,5.95,2.68,.28,.06,.42,.09,.4,.23-.02,.17-.59,.38-.89,.49-.29,.12-1.32,.52-1.85,.44-.54-.08-.83-.24-.95-.31-.78-.43-2.3-1.45-3.53-2.69-.47,.38-2.01,1.59-4.87,1.17-.01,0-.82-.13-1.08-.23-.12-.05-.26-.12-.24-.25,0-.07,.04-.07,.4-.06,.87,.04,2.96,.1,4.79-1.56-.53-.47-1.56-1.4-2-1.55-.54-.19-.63-.21-.61-.38,.04-.3,.58-.31,.85-.27,.33,.05,1.91,1.19,2.34,1.49,.27-.45,.41-.85,.52-1.38l-1.66-.24c-.08,.07-.27,.25-.99,.15-.44-.06-.53-.25-.47-.65,.05-.37,.35-2.14,.41-2.56l.04-.31c.01-.08-.04-.16-.08-.23-.06-.1-.09-.16-.08-.26,.06-.38,.83-.72,1.19-.67,.14,.02,.58,.17,.61,.57l1.58,.23c.1-.71,.13-.92,.16-1.29l-3.31-.48s-.21-.03-.34-.02c-.12,0-.7,.16-.83,.14-.21-.03-.52-.23-.47-.54,.05-.34,.39-.69,.87-.63,.11,.02,.68,.21,.8,.23,1.2,.19,3.17,.47,4.44,.66,1.06,.15,1.94,.27,3.73,.5,.36-.53,.82-.56,1-.53,.39,.06,1.11,.62,1.03,1.15-.08,.52-.5,.46-1.93,.26l-3.4-.49c-.07,.41-.15,.9-.2,1.29l1.66,.24c.25-.34,.74-.41,.92-.39,.34,.05,.87,.5,.81,.9,0,.07-.03,.14-.09,.22-.11,.16-.12,.21-.14,.36-.06,.42-.29,2.49-.36,2.97-.13,.89-1.08,.75-1.23,.73-.61-.09-.58-.27-.5-.82l-1.64-.24Zm-1.45-.86l.15-1-1.6-.23-.15,1,1.6,.23Zm.24-1.66l.15-1-1.46-.21c-.07-.01-.15,.04-.16,.09l-.13,.89,1.6,.23Zm2.94,2.12l.15-1-1.66-.24-.15,1,1.66,.24Zm.24-1.66l.12-.83c.01-.08,0-.17-.1-.19l-1.51-.22-.15,1,1.64,.24Z"/><path class="cls-4" d="M196.43,48.31c.04-.3,.91-.69,1.31-.63,.23,.03,.65,.22,.59,.63-.01,.1-.19,.52-.22,.63-.08,.35-.45,2.09-.54,2.48-.14,.37-.64,.51-.91,.48-.5-.07-.46-.33-.32-.99,.06-.35,.32-1.99,.33-2.21-.08-.07-.25-.27-.23-.39Zm4.34-.76c.1-.19,.25-.34,.62-.29,.4,.06,.74,.45,.7,.75-.07,.5-1.85,1.52-2.22,1.47-.15,.84-.82,5.66-.97,6.72-.09,.65-.1,.72-.32,.92-.23,.21-.62,.4-.95,.35-.42-.06-.63-.34-.57-.73,.02-.16,.72-3.46,.84-4.13,.31-1.66,.51-2.93,.74-4.49,.04-.28,.21-1.49,.14-1.6-.19-.29-.21-.32-.2-.39,.05-.33,1.03-.75,1.44-.69,.18,.03,.59,.19,.54,.58,0,.01-.11,.36-.11,.37-.06,.22-.33,1.61-.52,2.68,.15-.22,.43-.69,.85-1.55Zm4.13,5.51c.4,2.1,1.87,3.88,3.56,4.94,.08,.05,.36,.22,.35,.27-.03,.21-2.04,.6-2.28,.57-.21-.03-.28-.07-.36-.14-1.53-1.32-2.03-3.66-1.73-5.71-.46,1.96-1.6,3.16-2.57,3.69-.78,.41-1.95,.61-2.76,.5-.1-.01-.23-.05-.21-.15,0-.04,.04-.07,.07-.08,.03-.02,.24-.05,.28-.06,2.53-.6,3.31-3,3.64-4.11l-1.72-.21c-.13-.02-.77,.13-.93,.11-.2-.03-.39-.13-.35-.38,.03-.21,.24-.67,.72-.6,.06,0,.54,.14,.64,.15l1.87,.27c.25-1.39,.31-1.75,.45-2.61l-.75-.08c-.14-.02-.82,.1-.98,.08-.14-.02-.36-.12-.33-.35,.04-.25,.3-.66,.77-.6,.06,0,.39,.1,.46,.11l.92,.12c.13-.93,.18-1.55,.21-1.82-.02-.03-.15-.15-.19-.17-.08-.08-.09-.14-.08-.21,.07-.47,1.29-.74,1.67-.68,.17,.02,.55,.11,.48,.62-.01,.1-.13,.6-.15,.72-.08,.35-.12,.53-.33,1.76l.97,.11c.5-.38,.6-.45,.85-.41,.31,.04,1.05,.61,1,1.01-.03,.2-.19,.33-.29,.42-.08,.38-.35,1.74-.49,2.6l.25,.04c.25-.33,.54-.56,.84-.51,.42,.06,.88,.62,.82,1.04-.04,.28-.41,.34-.75,.3l-3.58-.52Zm1.27-3.27l-1.01-.12c-.15,1.03-.24,1.55-.44,2.67l1.02,.15,.43-2.7Z"/><path class="cls-4" d="M213.57,58.44c-1.76-.82-2.22-.8-2.25-.79-1.04,1.27-1.07,1.32-1.41,1.27-.52-.08-.76-.83-.71-1.21,.04-.27,.12-.3,.51-.46,1.13-.43,1.79-1.01,1.97-1.16l.33-2.31-.78-.07c-.13-.02-.76,.14-.9,.12-.23-.03-.33-.19-.3-.42,.05-.33,.27-.68,.74-.62,.07,.01,.4,.13,.49,.14l.84,.08c.24-.2,.56-.45,.91-.4,.3,.04,.82,.41,.77,.78-.01,.1-.2,.51-.22,.6-.04,.27-.19,1.59-.23,1.89-.06,.44-.14,.44-.83,.63-.09,.03-.36,.12-.72,.6,.78,.11,1.18,.26,3.98,1.17,2.01,.67,3.31,1.01,4.68,1.21,1.25,.18,1.48,.17,2.03,.13,.19-.02,.34-.02,.43,0,.03,0,.14,.02,.12,.16-.02,.13-.95,.66-1.14,.76-.79,.45-1.18,.68-1.88,.58-1-.15-2.25-.73-3.12-1.13l-3.33-1.55Zm-2.11-9.51c.07-.51,.61-.79,1.03-.73,.96,.14,1.66,1.81,1.62,2.07-.04,.24-.35,.22-.44,.21-.14-.02-1.37-.4-1.92-.91-.32-.31-.31-.52-.3-.64Zm7.52,5.15c.34,.66,.87,1.7,3.17,2.77,.34,.15,.49,.23,.48,.31-.04,.25-1.32,.94-1.73,.88-.44-.06-1.75-1.15-2.22-3.21-.05,.48-.3,2.8-.36,3.16-.06,.38-.79,.56-1.16,.51-.24-.03-.54-.27-.5-.53,.05-.37,.42-2.15,.48-2.56l.05-.33c-1.07,1.42-3.25,1.93-3.93,1.83-.14-.02-.2-.1-.19-.16,0-.06,.04-.07,.3-.19,.37-.18,1.67-.88,2.47-1.92,.34-.46,.48-.64,.88-.58,.06,0,.4,.06,.59,.33l.04-.27,.05-.27-1.17-.17c-.06,.24-.62,.37-.94,.33-.51-.07-.52-.36-.5-.56,.04-.27,.27-1.59,.32-1.89,.01-.1,.03-.18-.02-.23-.08-.13-.11-.16-.1-.22,.04-.28,.96-.63,1.27-.58,.01,0,.44,.06,.5,.46l1.05,.15,.14-1.09h-.03c-.38-.06-2.14-.31-2.42-.28-.12,.01-.69,.16-.83,.14-.08-.01-.37-.05-.31-.45,.04-.25,.22-.62,.71-.55,.07,.01,.39,.13,.47,.14l2.46,.36c.01-.1,.05-.54,.06-.61,0-.06-.22-.31-.21-.38,.05-.34,.97-.73,1.44-.66,.16,.02,.57,.18,.5,.61-.03,.18-.28,1.06-.31,1.26l2.07,.3c.16-.24,.6-.58,.89-.54,.33,.05,.96,.64,.9,1.05-.06,.38-.61,.3-.85,.27l-3.13-.45c-.04,.15-.16,.92-.19,1.09l1.23,.18c.13-.11,.46-.41,.73-.37,.33,.05,.97,.62,.92,.94,0,.06-.06,.09-.09,.13-.08,.09-.1,.16-.12,.3-.05,.35-.13,1.41-.16,1.61-.09,.64-.86,.64-1.23,.59-.45-.07-.48-.21-.44-.48l-1.05-.15Zm-1.48-.82l.22-1.54-.96-.14c-.13-.02-.16,0-.18,.06-.02,.03-.21,1.31-.23,1.46l1.15,.17Zm2.62,.38l.22-1.54-1.25-.18c-.03,.23-.2,1.3-.24,1.54l1.26,.18Z"/><path class="cls-4" d="M224.74,55.77c-.08-.01-.27-.24-.25-.35,.03-.24,2.11-1.83,3.84-1.58,.78,.11,1.06,.3,1.74,.74,2.04,1.35,2.9,1.91,3.85,2.04,.64,.09,1.71-.03,2.67-.81,.06-.05,.15-.05,.26-.03,.08,.01,.25,.17,.23,.31-.06,.4-2.06,2.35-4.15,2.04-1.02-.15-1.91-.69-3.08-1.56-1.19-.87-1.87-1.25-2.71-1.37-.59-.09-1.31,.14-1.4,.17-.12,.04-.7,.32-.83,.37-.06,.03-.12,.04-.18,.03Z"/></g><g><path class="cls-7" d="M60.33,190.58c.76-1.26,2.2-1.26,2.3-1.26,.9,0,2.05,.58,2.05,1.48,0,.25-.25,1.4-.25,1.66l.04,5.26c0,.54,.07,3.2,.07,3.78,0,1.55-2.63,1.69-2.74,1.69-1.33,0-1.3-.5-1.26-1.37h-4.82v12.71c0,.65,.14,3.82,.14,4.03,0,1.33-2.2,2.27-3.06,2.27-.79,0-1.37-.5-1.37-1.37,0-.32,.22-3.96,.25-4.72,.11-4.03,.25-9.86,.25-15.19v-6.37c0-.18-.14-.36-.25-.43-.25-.29-.65-.65-.65-.83,0-.83,2.2-2.48,3.35-2.48,.22,0,1.48,.14,1.55,1.15h4.39Zm.25,4.9v-3.24h-4.32c-.32,0-.54,.29-.54,.47v2.77h4.86Zm.04,4.68v-3.1h-4.9v3.1h4.9Zm15.12-9.57c.65-1.22,1.8-1.51,2.38-1.51,1.08,0,2.52,1.12,2.52,2.02,0,.14-.04,.32-.11,.47-.36,.9-.4,1.01-.4,1.44v10.15l.11,12.31c.04,3.13-1.48,5.36-4.75,5.36-2.88,0-5.18-2.48-5.18-2.7,0-.18,.29-.18,.43-.18,.25,0,2.09,.11,2.48,.11,2.27,0,2.88-1.33,2.88-4.25v-11.91h-5.26c-.5,.76-1.84,1.22-2.48,1.22s-1.4-.29-1.4-1.01c0-.4,.11-2.27,.11-2.7,.04-1.15,.04-1.66,.04-6.3v-.58c0-.22-.11-.36-.22-.47-.4-.32-.5-.43-.5-.65,0-.83,1.58-2.09,2.84-2.09,.9,0,1.73,.36,1.91,1.26h4.61Zm.36,4.9v-3.24h-4.61c-.25,0-.54,.22-.54,.4v2.84h5.15Zm0,4.68v-3.06h-5.15v3.06h5.15Z"/><path class="cls-7" d="M113.86,194.25c.5-1.08,1.44-1.8,2.27-1.8,1.15,0,3.06,1.55,3.06,2.7,0,1.08-1.37,1.12-1.73,1.12h-24.19l-4,.07c-.43,0-2.38,.72-2.84,.72-.68,0-1.08-.5-1.08-1.08,0-.9,1.04-1.94,2.02-1.94,.29,0,1.62,.22,1.94,.22h10.37c-.04-.4-.11-2.27-.14-2.7-.07-.61-.11-.68-.29-.79-.58-.32-.65-.4-.65-.72,0-1.22,2.52-2.38,3.85-2.38,.61,0,1.87,.29,1.87,1.66,0,.11-.07,.65-.11,.79-.18,1.26-.22,1.98-.4,4.14h10.04Zm-4.57,7.27c.54-.83,1.37-1.37,2.02-1.37,.9,0,2.74,.72,2.74,1.91,0,.29-.11,.5-.18,.58-.29,.47-.29,.54-.29,1.01,0,1.22,.22,7.2,.22,8.57,0,1.12,0,4.68-4.28,4.68-2.34,0-4.79-2.45-4.79-2.84,0-.14,.14-.14,.4-.14,.22,0,1.84,.18,2.16,.18,1.76,0,1.98-.94,2.09-2.05,.04-.5,0-7.74,0-8.82h-5.79v5.58c0,1.4,.14,8.6,.14,8.78,0,3.31-2.27,3.31-2.52,3.31-.58,0-1.87-.54-1.87-1.98,0-.25,.11-1.44,.11-1.69,.22-3.24,.36-10.4,.43-14h-4.54c-.43,0-.54,.47-.54,.83v10.29c0,1.26-1.37,2.59-2.74,2.59-.61,0-1.66-.36-1.66-1.3,0-.4,.22-3.24,.25-4.03,.07-1.01,.32-4.43,.32-7.63,0-.22,0-.5-.14-.72-.11-.18-.4-.58-.4-.76,0-.86,2.34-2.05,3.24-2.05,.4,0,1.15,.25,1.3,1.08h4.9c0-.5,0-2.16-.29-2.45-.43-.4-.47-.43-.47-.65,0-.83,2.09-1.87,3.35-1.87,1.48,0,1.48,.97,1.48,1.4,0,.11-.04,.22-.04,.43-.07,.72-.18,1.55-.25,3.13h5.65Z"/><path class="cls-7" d="M130.42,197.02c.36,0,.5,.22,.5,.43,0,.9-5.44,4.07-7.74,4.07-1.04,0-2.09-.86-2.09-1.91,0-1.62,1.69-1.66,2.59-1.66,1.62-.04,3.82-.07,6.37-.86,.07,0,.29-.07,.36-.07Zm-6.37-6.44c0-.97,.83-1.84,1.98-1.84,1.76,0,5.18,2.81,5.18,4.07,0,.5-.65,.5-1.08,.5-.04,0-6.08-.36-6.08-2.74Zm10.58,24.33c.32,0,.5,.22,.5,.4,0,.9-3.24,5.22-7.95,5.22-1.66,0-2.63-1.01-2.63-1.69,0-1.73,1.48-1.94,1.76-1.98,.32-.04,1.87,0,2.23,0,3.02,0,4.93-1.19,5.76-1.84,.18-.07,.25-.11,.32-.11Zm8.46-13.25c.47-.9,1.22-1.08,1.62-1.08,.86,0,2.77,1.01,2.77,1.98,0,.25-.18,1.33-.18,1.58,0,1.15,.18,9.21,.18,9.5,0,.61,0,.97-.65,1.33-.86,.43-1.87,.58-2.45,.58-1.33,0-1.37-.68-1.4-1.08h-11.52c-.14,1.19-2.05,1.44-2.52,1.44-1.44,0-1.44-.94-1.44-2.3,0-.97,.14-5.72,.14-6.8v-3.06c0-.25-.04-.36-.18-.54-.22-.32-.36-.5-.36-.61,0-.68,2.02-2.09,2.95-2.09,.25,0,1.15,0,1.48,1.15h11.55Zm.22-8.57c0,.29-.07,.47-.29,1.15,2.34,2.95,5.18,4.1,12.42,5.51,.32,.07,.47,.14,.47,.32,0,.14-.11,.25-.25,.36-.25,.18-1.87,1.08-2.3,1.33-1.84,1.01-2.02,1.15-2.59,1.15-.76,0-6.73-1.8-8.75-7.09-.97,1.69-1.69,2.23-2.27,2.63-3.17,2.23-7.52,2.27-8.06,2.27-.22,0-.72,0-.72-.25,0-.22,.14-.25,1.33-.65,4.68-1.55,6.52-4.82,6.88-6.73h-1.87c-1.91,2.02-4,3.49-6.19,3.49-.11,0-.32,0-.32-.22,0-.11,1.01-1.08,1.19-1.3,1.48-1.73,3.31-5.18,3.31-5.65,0-.11-.18-.61-.18-.72,0-.76,1.55-1.22,2.23-1.22,1.19,0,2.3,.43,2.3,1.37,0,.72-.29,1.15-1.26,2.63h8.78c.4-.83,1.33-1.37,2.16-1.37,1.08,0,2.41,.86,2.41,2.05,0,1.3-3.35,4.61-4.61,4.61-.18,0-.65,0-.65-.58,0-.04,.4-3.06,.4-3.1h-3.56Zm-.29,12.24v-2.02h-11.16c-.14,0-.4,.11-.4,.32v1.69h11.55Zm0,3.64v-2.02h-11.55v2.02h11.55Zm-.04,3.82v-2.23h-11.52v2.23h11.52Zm-4.5,2.59c0-.22,.61-.25,.83-.25,2.52,0,10.33,1.62,10.33,4.32,0,1.08-1.48,1.62-2.38,1.62-1.04,0-1.8-.58-2.41-1.08-2.59-2.16-2.95-2.45-5.83-4.1-.29-.14-.54-.29-.54-.5Z"/><path class="cls-7" d="M167.54,194.97c.54-.61,.94-1.01,1.51-1.01,1.01,0,2.09,1.01,2.09,2.02,0,.86-.79,.86-1.66,.86-.72,0-4.36-.07-5.15-.07-.18,0-4.82,.07-4.9,.07-.25,.04-1.44,.47-1.73,.47-.36,0-1.01-.25-1.01-.9,0-.83,.79-1.69,1.66-1.69,.18,0,1.04,.25,1.26,.25h3.28c0-.22-.04-1.26-.14-2.34-.04-.58-.04-.61-.22-.79-.54-.47-.58-.5-.58-.79,0-1.19,2.23-2.3,3.49-2.3,.79,0,1.69,.43,1.69,1.55,0,.22-.04,.32-.07,.54-.07,.22-.29,2.48-.43,4.14h.9Zm-1.98,13.61c.4-.68,1.15-1.08,1.69-1.08,.83,0,2.41,.9,2.41,1.8,0,.14-.04,.32-.14,.47-.22,.32-.25,.36-.25,.76,0,.32,.11,4.9,.11,5.18,0,1.33-1.98,1.91-2.56,1.91-1.48,0-1.48-.47-1.48-1.22h-2.38v1.22c0,1.08-1.62,1.73-2.77,1.73-1.26,0-1.26-1.15-1.26-1.69,0-.97,.22-5.83,.22-6.95,0-.14,0-.25-.29-.54-.07-.07-.29-.25-.29-.43,0-.83,1.94-2.09,2.95-2.09,.65,0,1.37,.29,1.55,.94h2.48Zm.04-9.11c.36-.43,1.01-.94,1.48-.94,.76,0,2.02,.94,2.02,1.94,0,.58-.5,.79-1.08,.86-.4,.07-2.95,0-3.53,0h-1.3c-.36,0-.83,0-1.19,.04-.25,.04-1.55,.36-1.84,.36-.5,0-1.19-.22-1.19-.86,0-.83,.65-1.55,1.48-1.55,.14,0,.86,.14,1.04,.14h4.1Zm0,4.64c.36-.47,1.04-.94,1.48-.94,.79,0,2.02,.94,2.02,1.91,0,.83-1.01,.9-1.4,.9-.47,0-2.7-.04-3.2-.04h-1.55c-.54,0-.94,0-1.4,.11-.04,.04-1.26,.32-1.37,.32-.65,0-1.19-.29-1.19-.9,0-.76,.61-1.51,1.48-1.51,.14,0,.86,.14,1.04,.14h4.1Zm-.14,10.65v-4.68h-2.45s-.04,.18-.04,.25v4.43h2.48Zm16.77-21.74c.58-.97,1.55-1.73,2.34-1.73,1.04,0,2.74,1.22,2.74,2.2,0,.4-.29,.65-.65,.97-.65,1.26-1.04,5.72-1.04,8.35,0,8.6,2.81,11.59,3.71,11.59,.83,0,1.33-.47,2.2-1.33,.04-.04,.18-.14,.25-.14,.29,0,.29,.25,.29,.47,0,.94-.54,5.72-3.71,5.72-.54,0-5.9,0-6.23-15.33-1.12,.86-2.23,1.4-2.84,1.66-.4,4.86-2.27,9.75-6.59,11.88-.86,.43-2.95,1.19-4.03,1.19-.11,0-.4-.04-.4-.25,0-.11,.11-.18,1.04-.76,5.26-3.2,5.72-7.99,6.01-11.01-.61,.29-2.59,.9-3.38,.9-.9,0-1.87-.68-1.87-1.73,0-.25,.07-1.04,.79-1.3,.32-.11,3.92-.4,4.68-.47,.11-1.4,.11-2.52,.11-3.85,0-1.26,0-4.21-.32-5.29-.54,0-1.04,.07-1.58,.22-.04,.04-1.15,.36-1.3,.36-.61,0-1.33-.25-1.33-.94,0-.47,.25-1.66,1.66-1.66,.25,0,1.58,.29,1.87,.29h7.6Zm-.11,8.31c0-2.99,.04-4.82,.11-6.59h-2.56c-.07,3.49-.18,6.48-.25,8.68,.54-.14,1.04-.25,2.7-.72v-1.37Z"/></g></g><rect class="cls-1" y="0" width="258.1" height="221.07"/></g></g></svg>