<?xml version="1.0" encoding="UTF-8"?><svg id="_圖層_2" xmlns="http://www.w3.org/2000/svg" viewBox="0 0 824.66 124.72"><defs><style>.cls-1{fill:none;}.cls-2{fill:#fff;}.cls-3{fill:#132c53;}</style></defs><g id="_圖層_1-2"><g><g><g><path class="cls-3" d="M115.14,84.97s.02-.05,.02-.06c.56-1.84,.37-3.95-.75-5.53-1.05-1.48-2.85-2.26-4.64-2.3-2.14-.06-4.3,.94-5.47,2.77-.43,.67-.71,1.43-.83,2.22-.29,2.03,.63,4.15,2.19,5.45,1.43,1.2,3.5,1.62,5.31,1.27,2.06-.4,3.54-1.82,4.17-3.8Zm-1.34-2.65c-.82-1.17-1.61-2.27-2.43-3.43,1.47,.44,2.54,1.97,2.43,3.43Zm-8.73-.04c1.22,1.69,2.41,3.33,3.61,4.99-1.86,.21-4.22-3.02-3.61-4.99Zm5.57,5.07c-.7-.94-1.36-1.82-1.99-2.7-.89-1.24-1.73-2.5-2.63-3.72-.29-.4-.27-.69,.11-.97,.21-.16,.42-.32,.72-.55,1.76,2.48,3.49,4.91,5.29,7.45-.61,.2-1.09,.36-1.5,.49Zm2.52-1.66c-1.67-2.35-3.34-4.69-5-7.03,.74-.36,.98-.29,1.44,.36,1.15,1.62,2.31,3.25,3.49,4.86,.57,.78,.6,.9,.07,1.82Z"/><path class="cls-3" d="M85.08,78.96c-.57,.4-1.08,.89-1.49,1.44-2.55,3.46-.1,8.3,3.86,9.19,.99,.22,2.03,.18,3-.11,1.28-.39,2.34-.98,3.06-2.15,1.86-3.04,1.2-7.33-2.24-8.87-1.98-.89-4.41-.75-6.2,.49Zm-.94,4.13c.09,.11,.14,.17,.18,.22,1.14,1.61,2.28,3.22,3.43,4.83-1.97,.03-4.13-2.92-3.61-5.05Zm5.58,5.11c-.7-.94-1.36-1.82-1.99-2.7-.88-1.24-1.73-2.5-2.62-3.72-.3-.4-.28-.69,.1-.97,.21-.16,.41-.32,.72-.55,1.76,2.48,3.49,4.91,5.29,7.45-.6,.2-1.09,.36-1.5,.49Zm2.51-1.67c-1.67-2.35-3.33-4.68-4.99-7.01,.59-.38,.99-.29,1.39,.28,1.18,1.66,2.37,3.32,3.57,4.97,.52,.72,.55,.93,.02,1.76Zm.67-3.34c-.86-1.19-1.63-2.3-2.47-3.48,1.53,.55,2.48,1.87,2.47,3.48Z"/><path class="cls-3" d="M147.57,94.52l-2.5-1.18v-2.48c0-.3-.17-.58-.45-.71l-24.58-11.86,.13-.6c.63-3.21,1.24-6.42,1.86-9.63,.02-.12,.21-.29,.31-.29,.94,.02,1.8-.22,2.63-.61,1.48-.69,2.6-1.64,2.92-3.38,.44-2.35-.25-5.4-2.2-6.94-1.32-1.05-2.88-1.11-4.39-.49-.36-1.02-.71-2.02-1.09-3.02-.27-.72-.63-.91-1.39-.78-.26,.04-.52,.06-.78,.11-.27,.06-.39-.03-.48-.29-.29-.91-.58-1.82-.91-2.72-.7-1.89-1.42-3.78-2.14-5.67-.13-.36-.44-.48-.78-.48-.45,0-.91,.06-1.36,.08-1.35,.05-2.69,.1-4.05,.13-.47,0-.82-.52-.69-.96,.21-.78,.43-1.55,.65-2.31,.29-1.03,.59-2.07,.89-3.1,1.97,.29,3.58-1.49,2.86-3.42-.39-1.04-1.43-1.74-2.54-1.8-1.86-.1-3.34,1.58-2.88,3.41,.09,.32,0,.44-.25,.59-.55,.33-1.09,.67-1.63,1.03-.87,.58-1.74,1.18-2.58,1.75-1.11-.71-2.19-1.41-3.28-2.08-2.43-1.5-4.98-2.73-7.78-3.37-1.33-.31-2.66-.29-3.96,.05-1.17,.3-1.97,1.12-2.19,2.3-.34,1.86-.29,3.75-.05,5.63,.16,1.27,.4,2.53,.6,3.82-.29,.03-.59,.06-.9,.1-1.65,.17-3.31,.35-4.95,.54-.59,.07-.77,.36-.69,.94,.02,.13,0,.28-.02,.41-.41,2.68-1.3,5.22-2.14,7.78-.07,.23-.18,.32-.44,.32-.55-.02-1.09,0-1.65,.02-.67,.02-.97,.32-1.11,.97-.18,.8-.4,1.6-.59,2.4-1.17-.36-2.27-.4-3.41,.03-2.7,1.01-4.2,4.08-3.62,7,.6,3.01,2.45,4.53,5.29,4.93,.8,.11,1.63-.02,2.52-.03,.55,1.64,1.1,3.33,1.68,5.03h0s.67,1.54,1.14,3.23l-24.17,11.66c-.27,.13-.45,.41-.45,.71v2.48l-2.5,1.18c-.28,.13-.45,.41-.45,.72v7.2c0,.44,.35,.79,.79,.79s.79-.35,.79-.79v-6.69l26.85-12.71c.15,.76,.3,1.52,.45,2.28-4.07,1.96-24.56,11.8-24.79,11.91-.27,.13-.45,.41-.45,.71v3.39c0,.27,.14,.53,.37,.67,.13,.08,.27,.12,.42,.12,.12,0,.23-.03,.34-.08l21.79-10.49c.39-.19,.56-.66,.37-1.06-.19-.39-.66-.56-1.06-.37l-20.65,9.94v-1.63c3.04-1.46,19.58-9.41,23.97-11.52,.31,1.55,.61,3.1,.92,4.64,.1,.46,.18,.92,.29,1.37,.12,.49,.59,.84,.99,.75s.59-.44,.51-1.01c-.06-.39-.15-.77-.22-1.15-.18-.94-.36-1.86-.54-2.8,.02,0,.05,0,.07-.02,.71,1.93,1.41,3.86,2.07,5.68-.31,.15-.65,.21-.79,.42-.13,.18-.11,.52-.06,.78,.03,.16,.22,.3,.36,.42,1.05,.84,2.12,1.66,3.18,2.5,.16,.12,.3,.27,.45,.4-.03,.05-.06,.1-.09,.13-.36-.16-.76-.27-1.09-.48-1.4-.9-2.77-1.82-4.16-2.73-.17-.11-.34-.23-.52-.31-.4-.17-.81-.02-1,.35-.21,.4-.1,.69,.29,.9,.2,.12,.38,.27,.53,.38-.63,.26-1.24,.46-1.79,.77-.97,.55-1.77,1.27-1.84,2.5-.03,.45-.02,.9-.07,1.36,0,.1-.11,.25-.21,.29-.2,.11-.4,.2-.6,.3-.04,.01-.08,0-.12,.03l-2.3,1.03-.1-5.51c0-.25-.13-.48-.33-.63-.2-.15-.47-.19-.7-.11l-28.3,9.12c-.42,.13-.65,.58-.51,1,.11,.34,.42,.55,.75,.55,.08,0,.16-.01,.24-.04l27.28-8.79,.09,5.12-3.9,1.75c-.29,.13-.47,.41-.47,.72v10.68c0,.27,.13,.52,.36,.66,.13,.09,.28,.13,.44,.13,.11,0,.21-.02,.31-.06l3.44-1.48v4.81c0,.44,.35,.79,.79,.79s.79-.35,.79-.79v-5.4s-.01-.05-.02-.08l.63-.27c.4-.17,.59-.64,.42-1.04-.17-.4-.64-.59-1.04-.42l-4.53,1.95v-8.96l7.31-3.27s.02-.02,.03-.02c.19-.09,.38-.18,.59-.28,.52,2.57,1.48,4.92,2.59,7.24,0,0,.07,.12,.18,.29l-3.72,1.93c-.39,.2-.54,.68-.34,1.07,.14,.27,.42,.43,.7,.43,.12,0,.25-.03,.36-.09l4.16-2.16c.09,.04,.18,.07,.27,.08,0,0,.03,0,.05,0,1.61,.21,3.23,.21,4.82-.14,.2-.04,.41-.25,.52-.45,.23-.46,.4-.95,.55-1.34,.79,1.35,1.56,2.73,2.39,4.07,.71,1.12,1.62,2.06,2.77,2.7,.84,.47,1.75,.82,2.65,1.19,.38,.16,.63,.4,.7,.81,.06,.47,.19,.93,.2,1.4,.02,1.81,1.02,2.77,2.68,3.18,.12,.03,.24,.09,.36,.11,.71,.15,1.43,.3,2.15,.44h2.16c.15-.03,.3-.08,.45-.09,1.7-.14,3.19-.76,4.38-2.02,.47-.49,.7-1.06,.68-1.74-.02-.61,0-1.23-.07-1.83-.05-.51,.13-.8,.58-1.01,1.05-.49,1.95-1.21,2.62-2.16,1.83-2.56,2.44-5.48,2.33-8.58-.02-.64-.13-1.28-.07-1.92,.06-.66-.09-1.19-.58-1.6-1.63-1.35-3.54-1.94-5.64-2.04-.37-.02-.58,.18-.64,.55-.06,.36,.06,.61,.43,.71,.2,.05,.4,.1,.59,.16,1.25,.44,2.51,.86,3.75,1.32,.48,.18,.5,.47,.09,.75-.49,.33-.98,.71-1.54,.89-1.38,.46-2.79,.81-4.19,1.22-.37,.11-.51-.06-.49-.38,.02-.61,0-1.24,.13-1.83,.4-1.97,.23-3.86-.77-5.64-.18-.32-.29-.69-.47-1.02-.76-1.42-.18-2.72,.73-3.73,.21-.23,.44-.23,.58,.1,.09,.19,.17,.38,.26,.55,.24,.42,.62,.58,.98,.43,.37-.16,.53-.58,.36-1.04-.13-.34-.29-.66-.44-.99-.21-.49-.54-.73-1.09-.7-2.35,.11-4.7,.21-7.05,.32-.98,.04-1.97,.11-2.96,.15-.42,.02-.75,.17-.89,.57-.14,.41-.25,.84-.32,1.28-.06,.37,.13,.68,.52,.78,.38,.11,.68-.05,.86-.4,.07-.15,.13-.32,.16-.49,.07-.43,.41-.35,.66-.3,.11,.02,.21,.28,.25,.44,.03,.11-.02,.25-.06,.36-.43,1.59-.19,3.11,.59,4.54,.32,.6,.67,1.2,1.01,1.8,.32,.59,.47,1.23,.28,1.86-.25,.78-.61,1.52-.95,2.35-1.91-1.4-3.76-2.75-5.62-4.11,.77-.52,.92-.97,.48-1.49-.85-.98-1.73-1.93-2.9-2.68,.33,0,.61,.02,.89,0,.3-.02,.49,.09,.67,.32,.59,.78,1.19,1.54,1.79,2.3,.82,1.01,1.62,2.04,2.46,3.04,.36,.44,.75,.5,1.1,.21,.34-.26,.39-.71,.12-1.14-.06-.09-.12-.18-.19-.27-.54-.67-1.09-1.34-1.62-2.01-.59-.72-1.17-1.45-1.84-2.29,.52,.14,.88,.29,1.26,.33,.3,.04,.78,.06,.89-.1,.23-.36,.4-.86,.37-1.28-.03-.41-.53-.48-.92-.49-2.95-.06-5.9-.13-8.85-.19-.75-.02-.84-.05-1.1-.75-.82-2.22-1.64-4.43-2.43-6.66-1.17-3.28-2.33-6.57-3.49-9.86,0-.09-.03-.17-.07-.26-.01-.02-.03-.04-.05-.06-1-2.82-2-5.63-2.99-8.45-.07-.21-.13-.44-.21-.71,1.86-.11,3.64-.21,5.42-.31,1-.06,2.01-.06,3.01-.11,2.58-.14,5.16-.3,7.74-.44,1.94-.1,3.88-.2,5.83-.31,2.62-.14,5.23-.3,7.85-.45,1.25-.07,2.5-.13,3.76-.21,2.3-.14,4.6-.29,6.9-.45,1.24-.1,2.49-.25,3.73-.36,.47-.04,.94-.06,1.47-.09-.51,2.73-.97,5.42-1.51,8.08-.78,3.87-1.62,7.72-2.39,11.59-.59,2.93-1.13,5.87-1.7,8.81-.17,.94-.21,.95-1.15,.97-2.43,.06-4.86,.13-7.29,.2-.52,.02-1.03,.02-1.55,.07-.21,.02-.48,.07-.59,.21-.18,.25-.18,.59,.1,.8,.21,.16,.48,.23,.75,.34-.03,.16-.09,.34-.1,.52-.02,.4,.14,.72,.54,.84,.38,.12,.67-.06,.86-.39,.13-.25,.23-.52,.37-.76,.05-.1,.16-.21,.25-.22,.93-.07,1.86-.12,2.85-.18-.03,.22-.05,.38-.08,.53-.07,.4-.17,.79-.22,1.2-.06,.45,.2,.83,.62,.93,.46,.1,.65-.21,.78-.56,.05-.12,.07-.24,.1-.36,.14-.58,.28-1.15,.44-1.83h3.96c-.04,.72-.11,1.51-.12,2.28,0,1.1,.02,2.2,.06,3.29,.02,.35,.18,.63,.61,.63,.4,0,.55-.23,.61-.58,.06-.4,.13-.81,.16-1.21,.21-3.5,.39-7.01,.59-10.53,.04-.62,.06-1.25,.12-1.87l25.4,12.23c.11,.05,.23,.08,.34,.08,.15,0,.29-.04,.42-.12,.23-.15,.37-.4,.37-.67v-3.39c0-.3-.17-.58-.45-.71-.8-.39-19.7-9.55-20.11-9.75-.4-.19-.87-.01-1.05,.38-.19,.4-.01,.87,.38,1.05,.37,.17,16.71,8.1,19.65,9.52v1.63l-24.69-11.89s-.02,0-.03,0c.29-1.71,.63-3.41,.97-5.11,.02-.09,.04-.18,.06-.27l27.35,12.95v9.8c0,.44,.35,.79,.79,.79s.79-.35,.79-.79v-10.3c0-.31-.18-.59-.45-.72Zm-69.11,5c.79-.25,1.59-.48,2.39-.7,.1-.03,.26-.03,.34,.02,.62,.43,1.22,.86,1.89,1.35-1.5,.17-2.91,.32-4.33,.13-.1,0-.2,0-.28-.06-.19-.11-.36-.25-.55-.37,.17-.13,.34-.3,.54-.37Zm22.22-4.39c.04-.16,.28-.33,.44-.36,.54-.07,1.08-.08,1.67-.12-.25,.46-.45,.82-.64,1.2-.34,.64-.41,1.32-.16,2,.29,.81,.57,1.63,.97,2.39,.67,1.21,.9,2.47,.71,3.84-.17,1.18-.22,2.39-.33,3.66-.29,.06-.72,.14-1.14,.24-.36,.09-.48-.08-.42-.4,.1-.6,.15-1.22,.35-1.79,.77-2.2,.36-4.22-.75-6.17-.16-.29-.31-.58-.48-.86-.67-1.17-.56-2.39-.22-3.62Zm-2.9,2.97c-.17-1.03,0-2.03,.33-3,.04-.1,.21-.21,.34-.22,.21-.04,.44-.02,.63-.02-.08,.62-.16,1.2-.23,1.79-.13,1.16,.27,2.16,.82,3.16,.47,.85,.85,1.76,1.18,2.68,.25,.71,.2,1.43-.06,2.16-.42,1.17-.59,2.39-.53,3.65-.68,0-1.29-.65-1.31-1.45,0-.37,.09-.79,.26-1.12,.93-1.66,.79-3.26-.14-4.85-.52-.88-1.13-1.74-1.3-2.78Zm8.22,21.18c.46,1.53,.12,2.37-1.15,3.12-.82,.48-1.74,.64-2.66,.71-1.51,.1-3-.03-4.45-.52-.78-.27-1.28-.66-1.27-1.56,0-.41-.14-.82-.25-1.36,3.34,.68,6.58,.53,9.77-.38Zm-14.76-13.67c1.45,.98,2.89,1.98,4.33,2.97,.03,.02,.03,.08,.1,.23-2.9-.21-5.73-.42-8.66-.63,.15-.47,.28-.87,.41-1.28,.21-.66,.41-1.32,.63-1.97,.2-.59,.79-.79,1.31-.47,.63,.39,1.27,.75,1.88,1.15Zm-.81-4.25c-.11,.1-.32,.31-.55,.47-1.57,1.11-3.3,1.87-5.21,2.16-.93,.14-1.87,.2-2.8,.32-.25,.02-.49,.09-.71,.19-.36,.17-.59,.52-.44,.88,.1,.23,.47,.49,.71,.49,1-.02,1.99-.11,2.99-.21,.61-.07,1.22-.22,1.85-.34-.25,1.14-.53,2.21-1.83,2.5-.4,.09-.84,.1-1.26,.12-.57,.02-.9,.27-.91,.72-.02,.44,.32,.78,.86,.81,.61,.02,1.22,0,1.93,0-.2,.56-.37,1.08-.58,1.58-.04,.1-.21,.18-.33,.19-1.08,.03-2.16,.05-3.24,.06-.35,0-.57-.18-.73-.5-1.43-2.8-2.48-5.71-2.92-8.85,0-.02,0-.06,0-.13,4.15,.63,8.08,.18,11.76-2.05,.44,.48,.9,1.01,1.41,1.58Zm-1.82-3.27c-.09,.07-.15,.12-.22,.17q-1.21,.8-2.31-.39c.86,.08,1.68,.15,2.54,.22Zm-35.04-5.09v-1.24l23.37-11.28c.02,.12,.03,.24,.05,.36v.03c.03,.23,.06,.47,.11,.7,.02,.09,.03,.17,.05,.26l-23.58,11.16ZM122.27,57.55c.94-.38,2.14-.17,2.85,.75,1.3,1.66,1.85,3.56,1.13,5.64-.39,1.14-2.12,2.27-3.35,2.26,.19-.86,.39-1.7,.53-2.54,.06-.28,.02-.59-.06-.86-.44-1.56-.89-3.12-1.37-4.67-.1-.33-.02-.44,.26-.56Zm-13.04-24.14c.86,0,1.66,.67,1.66,1.41s-.68,1.41-1.37,1.41c-.81,0-1.65-.72-1.66-1.42,0-.84,.54-1.4,1.36-1.4Zm-1.53,3.42c.06,.04,.11,.09,.17,.13-.48,1.72-.97,3.43-1.47,5.16-1.05-.81-2.05-1.58-3.16-2.43,1.52-.98,2.99-1.93,4.46-2.87Zm-20.18-2.09c1.08-.25,2.16-.27,3.27-.02,2.69,.61,5.14,1.82,7.47,3.25,.9,.55,1.78,1.13,2.76,1.75-1.48,1-2.85,1.94-4.23,2.86-.65,.43-1.34,.82-2.01,1.21-.48,.28-.64,.63-.45,.98,.2,.36,.59,.48,1.06,.19,1.45-.89,2.88-1.8,4.3-2.72,.74-.48,1.44-1.01,2.17-1.5,.12-.07,.37-.1,.48-.02,1.12,.83,2.22,1.69,3.34,2.53,.28,.21,.32,.43,.24,.77-.54,2.26-1.06,4.52-1.58,6.78-.13,.52,.06,.89,.45,.98,.42,.1,.74-.17,.86-.71,.46-2.03,.92-4.07,1.39-6.1,.02-.1,.06-.21,.12-.37,.57,.52,1.13,.97,1.62,1.48,1.72,1.73,3.41,3.48,4.45,5.74,.5,1.1,.73,2.27,.8,3.46,.05,.85-.59,1.53-1.46,1.48-.86-.06-1.7-.24-2.55-.37-7.31-1.16-13.46-4.5-18.43-9.96-2.18-2.39-3.85-5.12-4.83-8.22-.21-.67-.27-1.38-.32-2.08-.06-.78,.31-1.23,1.09-1.41Zm-1.36,5.73c.07,.11,.11,.16,.13,.21,2.08,4.84,5.49,8.58,9.8,11.52,1.51,1.03,3.11,1.97,4.77,2.72,1.53,.69,3.19,1.11,4.82,1.57,1.37,.38,2.77,.66,4.15,.98,.43,.1,.85,.21,1.27,.34,.13,.05,.25,.16,.37,.24v.14c-.67,.21-1.32,.53-1.99,.63-1.93,.25-3.86,.48-5.82,.36-3.42-.21-6.56-1.28-9.46-3.1-1.55-.98-2.79-2.26-3.85-3.75-2.5-3.52-3.87-7.43-4.24-11.71,0-.03,.02-.06,.03-.16Zm-16.64,28.03c-1.44-.86-2.01-2.16-2.19-3.67-.23-1.91,.92-4.34,3.32-4.87,.52-.12,1.1,.04,1.65,.13,.25,.04,.36,.21,.29,.52-.28,1.2-.52,2.42-.74,3.63-.06,.35,0,.75,.1,1.09,.36,1.15,.77,2.27,1.16,3.42,.03,.09,.04,.17,.08,.34-1.34,.26-2.5,.11-3.67-.59Zm4.65-4.17q-.18,.62-.93,.5c.15-.69,.3-1.34,.44-2,.4-1.87,.82-3.75,1.19-5.64,.09-.4,.24-.56,.65-.51,.2,.02,.4,0,.66,0-.21,.75-.43,1.44-.61,2.15-.42,1.63-.82,3.27-1.24,4.91-.05,.2-.11,.39-.17,.59Zm45.47,1.03c-2.12,.25-4.22,.52-6.34,.74-1,.11-2,.14-3,.21-2.67,.16-5.35,.31-8.03,.46-1.91,.1-3.82,.19-5.73,.3-2.47,.14-4.94,.31-7.41,.44-1.43,.09-2.85,.14-4.28,.21-2.18,.1-4.35,.19-6.53,.3-1.25,.06-2.5,.15-3.79,.23,.18-.77,.29-1.47,.52-2.12,.75-2.02,1.28-4.08,1.8-6.17,.59-2.38,1.46-4.68,2.14-7.05,.52-1.8,.92-3.64,1.4-5.45,.04-.14,.25-.32,.39-.35,1.12-.15,2.24-.27,3.36-.39,.48-.06,.97-.06,1.45-.13,.26-.03,.4,.02,.48,.29,.73,2.43,2.05,4.54,3.5,6.58,1.83,2.59,4.38,4.29,7.27,5.48,2.43,1,4.95,1.66,7.59,1.59,1.89-.05,3.8-.2,5.66-.49,1.36-.22,2.63-.86,3.76-1.68,1.11-.82,1.57-2,1.5-3.34-.13-2.42-1.04-4.55-2.53-6.42-.87-1.09-1.84-2.1-2.77-3.15-.1-.12-.21-.22-.38-.4,1.18-.06,2.26-.12,3.34-.14,.13,0,.32,.21,.38,.35,.91,2.42,1.85,4.83,2.68,7.27,1.37,4.06,2.66,8.15,3.99,12.22,.14,.43,.04,.56-.4,.61Zm-1.47-11.36c.25-.03,.45-.06,.68-.08,1.07,2.93,2.22,5.83,2.9,8.91-.26,.1-.46,.1-.56-.2-1-2.86-2-5.71-3.02-8.63Zm1.51,25.86l23.79,11.48v1.24l-24.07-11.39c.09-.44,.18-.89,.28-1.33Z"/></g><g><g><path class="cls-3" d="M32.69,11.35c20.97-4.77,40.63,2.76,43.82,16.79,2.89,12.71-10.45,18.05-25.29,21.92-1.45,.38-2.5,1.54-2.75,3.02-.24,1.47,.37,2.89,1.6,3.7l.09,.06c.89,.57,1.36,1.59,1.22,2.66-.14,1.07-.86,1.94-1.88,2.26-.32,.1-.65,.19-.98,.27-1.58,.36-3.23,.4-4.83,.11-3.5-.63-6.53-2.77-8.31-5.85-.78-1.36-2.39-2.07-4-1.77-14.39,2.68-28.1,3.43-30.94-9.08C-2.75,31.42,11.72,16.12,32.69,11.35Z"/><g><g><path class="cls-3" d="M3.74,21.2c1.15-1.7,2.49-3.35,4-4.94,1.12-1.17,2.35-2.31,3.65-3.4,.39-.32,.96-.26,1.28,.14h0c.31,.39,.25,.95-.14,1.26-1.24,1.03-2.41,2.12-3.49,3.24-1.44,1.5-2.71,3.08-3.8,4.68-.28,.41-.82,.53-1.24,.27h0c-.43-.27-.55-.84-.27-1.26Z"/><path class="cls-3" d="M22.43,5.9c3.96-1.87,8.22-3.33,12.66-4.34C41.39,.12,47.88-.33,53.93,.24c.5,.05,.86,.5,.81,1h0c-.06,.49-.49,.84-.99,.79-5.85-.55-12.14-.11-18.26,1.28-4.31,.98-8.44,2.4-12.28,4.21-.45,.21-.98,.03-1.2-.41-.22-.45-.04-1,.42-1.22Z"/></g><path class="cls-2" d="M36.29,6.83C15.77,11.5,1.63,26.28,4.72,39.85c2.53,11.15,14.38,11.29,29.9,8.4,1.95-.36,3.96,.49,4.95,2.21,1.59,2.75,4.32,4.81,7.69,5.41,1.86,.34,3.7,.19,5.38-.35,1.46-.47,1.74-2.47,.44-3.3-.03-.02-.07-.04-.1-.07-3.33-2.2-2.45-7.34,1.41-8.35,15.95-4.16,27.25-9.39,24.64-20.85-3.08-13.57-22.22-20.78-42.74-16.11Z"/><path class="cls-3" d="M51.93,56.64c-1.58,.36-3.23,.4-4.83,.11-3.5-.63-6.53-2.77-8.31-5.85-.78-1.36-2.39-2.07-4-1.77-14.39,2.68-28.1,3.43-30.94-9.08C.65,26.02,15.12,10.72,36.09,5.95c20.97-4.77,40.63,2.76,43.82,16.79,2.89,12.71-10.45,18.05-25.29,21.92-1.45,.38-2.5,1.54-2.75,3.02-.24,1.47,.37,2.89,1.6,3.7l.09,.06c.89,.57,1.36,1.59,1.22,2.66-.14,1.07-.86,1.94-1.88,2.26-.32,.1-.65,.19-.98,.27ZM36.49,7.71C16.49,12.26,2.63,26.59,5.6,39.65c2.03,8.92,10.39,11.15,28.85,7.71,2.36-.44,4.73,.62,5.89,2.64,1.51,2.62,4.09,4.44,7.07,4.98,1.65,.3,3.36,.19,4.94-.32,.52-.17,.62-.64,.64-.78,.02-.14,.04-.61-.41-.9l-.11-.07c-1.83-1.21-2.75-3.32-2.39-5.5,.36-2.2,1.92-3.92,4.07-4.48,16.14-4.21,26.4-9.19,23.99-19.78-2.97-13.06-21.66-19.98-41.66-15.43Z"/></g></g><path class="cls-3" d="M42.97,26.14c.63,2.49,3.15,7.93,12.65,10.61,.15,.03,.48,.15,.48,.3s-.39,.39-.57,.51c-.12,.09-.63,.42-.75,.48-2.34,1.5-2.64,1.8-3.48,1.8-.51,0-1.14-.09-2.67-1.11-3.43-2.22-5.32-5.62-6.43-10.31,0,.18,0,.21-.03,.36-.36,1.47-1.02,3.15-1.83,4.33-2.55,3.76-6.52,5.02-7.54,5.32-.09,.03-2.67,.72-4.21,.72-.69,0-.78-.24-.78-.36,0-.24,.84-.42,1.14-.51,.36-.06,1.05-.36,1.41-.54,5.62-2.67,7.9-7.03,8.53-11.57-2.31,.06-4.18,.09-5.8,.24-.24,.03-1.44,.42-1.74,.42-.78,0-1.02-.48-1.02-.96,0-.72,.6-1.59,1.5-1.59,.15,0,.9,.12,1.08,.12,.93,.09,5.11,.15,6.1,.18l.03-.78v-1.32c0-.6-.03-3.21-.06-3.76-1.02,0-6.97,.09-7.39,.24-.63,.24-1.44,.51-1.68,.51-.78,0-1.05-.66-1.05-1.11,0-.75,.93-1.68,1.71-1.68,.21,0,1.17,.18,1.38,.21,1.74,.15,7.15,.15,9.28,.15,1.5,0,2.16,0,8.05-.09,.57-.87,1.29-1.47,1.89-1.47,.84,0,2.67,1.14,2.67,2.25,0,.84-.99,.96-1.32,.99h-9.55c-.03,1.8-.09,4.09-.15,5.86,1.77,0,3.21,0,5.14-.09,.63-1.05,1.29-1.41,1.8-1.41,.93,0,2.49,1.17,2.49,2.19,0,.75-.9,.84-1.2,.87h-8.08Z"/></g></g><g><g><path class="cls-3" d="M285.03,83.43c-1.17-.55-2.42-.73-3.89-.77-.31,.03-.81,.09-1.31,.1-1.74,.03-3.38,.47-4.95,1.18-.53,.24-1.01,.63-1.44,1.02-.38,.34-.33,.77-.04,1.14,.44,.55,.87,1.11,1.25,1.69,.58,.87,.98,.97,1.83,.37,.06-.05,.13-.09,.2-.12,2.07-.84,4.15-1.23,6.27-.18,.8,.4,1.26,.26,1.74-.51,.35-.57,.64-1.19,.99-1.76,.59-.97,.4-1.67-.64-2.16Zm-1.39,2.52c-.05,.09-.26,.16-.36,.13-2.27-.6-4.51-.43-6.73,.25-.8,.24-.82,.23-1.19-.31-.31-.46-.23-.76,.31-.96,.5-.18,1.02-.33,1.54-.43,2.01-.38,4.03-.61,6.07-.15,.29,.07,.57,.15,.94,.26-.22,.46-.38,.84-.59,1.21Z"/><path class="cls-3" d="M273.52,82.42c.08-.42-.17-.75-.69-.9-.54-.15-1.08-.31-1.62-.47-.7-.21-1.4-.42-2.2-.65,.21-.41,.43-.88,.68-1.33,.37-.66,.15-1.21-.57-1.41-.54-.15-1.08-.3-1.63-.45-1.01-.28-1.52-.05-1.97,.9-.78,1.65-.65,3.39-.46,5.12,.03,.27,.3,.62,.56,.75,.65,.34,1.34,.6,2.03,.85,.38,.14,.8,.06,.97-.34,.15-.36,.21-.77,.22-1.17,.01-.45-.07-.9-.11-1.44,.89,.28,1.64,.53,2.41,.76,.46,.14,.93,.28,1.41,.36,.51,.09,.9-.18,.98-.59Zm-6.3,.5c-.65-.04-.77-.14-.76-.73,.01-.76,.02-1.53,.1-2.29,.04-.41,.21-.8,.34-1.27,.4,.14,.69,.24,1.06,.37-.62,1.26-.82,2.57-.73,3.93Z"/><path class="cls-3" d="M285.7,81.87c.1-.03,.21-.07,.3-.13,.92-.68,1.84-1.36,2.74-2.07,.15-.12,.21-.36,.26-.46,0-.75-.67-1.07-1.24-.68-.95,.66-1.88,1.36-2.8,2.06-.31,.23-.38,.58-.19,.93,.2,.36,.53,.47,.93,.34Z"/><path class="cls-3" d="M287.7,82.02c-.61,0-1.08,.49-1.08,1.12,0,.64,.48,1.15,1.06,1.15,.6,0,1.12-.54,1.12-1.16,0-.62-.48-1.1-1.09-1.1Z"/><path class="cls-3" d="M270.81,83.26c-.59,0-1.11,.51-1.13,1.09-.02,.59,.45,1.07,1.05,1.09,.62,.01,1.11-.45,1.11-1.08,0-.61-.46-1.11-1.03-1.11Z"/><path class="cls-3" d="M260.64,61.62c.16,1.08,.67,1.96,1.82,2.29,.49,.14,.92-.04,1.06-.43,.15-.41-.04-.83-.53-1-.61-.21-.82-.68-.84-1.23-.03-.68-.06-1.41,.62-1.87,.7-.47,.74-.82,.27-1.55-.66-1.04-.88-2.14-.27-3.29,.56-1.07,1.16-2.08,2.65-1.88,.38,.05,.66-.2,.74-.59,.07-.37-.1-.66-.43-.8-.27-.11-.57-.14-.86-.2-.95,.03-1.73,.42-2.33,1.1-1.54,1.72-2.18,3.64-1.15,5.88,.06,.14,.06,.38-.02,.49-.7,.93-.86,1.99-.7,3.08Z"/><path class="cls-3" d="M268.59,63.06c.38-.14,.55-.5,.44-.96-.01-.06-.03-.12-.05-.18-.21-.89,.11-1.79,.87-2.31,.26-.18,.53-.33,.8-.48,.4-.22,.66-.55,.64-1.02-.05-1.08,.62-1.67,1.48-2.07,.45-.2,.96-.25,1.45-.37,.59-.14,.85-.78,.43-1.18-.2-.19-.51-.25-.66-.32-1.7,.14-2.95,.8-3.8,2.12-.2,.31-.32,.72-.37,1.09-.04,.33-.15,.53-.44,.69-1.09,.58-1.82,1.47-1.94,2.71-.06,.6,.03,1.24,.18,1.84,.1,.42,.59,.57,.96,.44Z"/><path class="cls-3" d="M286.1,52.15c.1,.04,.21,.07,.31,.1,.88,.29,1.28,.92,1.18,1.82-.06,.52,.21,.86,.64,1.11,.59,.34,.75,.88,.48,1.51-.25,.58-.16,.97,.26,1.17,.42,.2,.88,0,1.15-.53,.51-.97,.21-2.49-.61-3.19-.14-.12-.22-.31-.33-.47,.04-.02,.08-.05,.12-.07-.04-.23-.05-.47-.14-.69-.43-1.02-1.18-1.72-2.21-2.12-.2-.07-.43-.07-.65-.05-.37,.03-.61,.25-.67,.62-.06,.37,.14,.63,.47,.78Z"/><path class="cls-3" d="M268.69,49.53c.4-.04,.6-.35,.69-.82,.07-.4,.19-.84,.42-1.17,.68-.99,2.37-1.77,3.72-1.12,.55,.26,.98,.1,1.16-.32,.17-.42-.04-.88-.57-1.08-.52-.2-1.07-.32-1.51-.44-.42,.07-.72,.1-1,.16-1.72,.39-3.01,1.31-3.62,3.02-.12,.33-.15,.71-.11,1.06,.05,.48,.43,.75,.84,.72Z"/><path class="cls-3" d="M279.63,47.15c.06-.05,.11-.11,.17-.16,.69-.52,1.54-.28,1.83,.5,.24,.63,.55,.85,1.22,.76,.51-.07,.94,0,1.32,.41,.35,.38,.77,.4,1.09,.13,.32-.28,.35-.76,.03-1.14-.49-.59-1.09-.99-1.9-.95-.26,.01-.43-.04-.56-.3-.47-.86-1.25-1.19-2.11-1.21-.9,.03-1.63,.26-2.18,.89-.36,.41-.36,.88-.04,1.18,.32,.3,.72,.26,1.13-.11Z"/><path class="cls-3" d="M277.64,67.83c.29,.04,.59,.07,.87,.16,.14,.04,.31,.2,.33,.33,.07,.52,.38,.78,.84,.97,.65,.26,.83,1.32,.29,1.67-.46,.3-.53,.74-.28,1.09,.25,.35,.72,.41,1.18,.14,.71-.43,.92-1.11,.98-1.92-.03-.92-.43-1.67-1.2-2.24-.13-.1-.27-.22-.33-.36-.41-.95-1.8-1.59-2.8-1.27-.37,.12-.59,.38-.55,.77,.04,.39,.29,.61,.68,.66Z"/><path class="cls-3" d="M286.65,60.28c.04-1.16-.72-2.29-1.75-2.68-.4-.15-.8-.04-.99,.3-.21,.38-.09,.69,.21,.97,.06,.05,.12,.1,.19,.14,.85,.61,.91,.77,.66,1.76-.13,.52,.02,.91,.46,1.17q.73,.44,.54,1.28c-.1,.46,.07,.83,.44,.97,.37,.14,.75-.04,.98-.44,.48-.88,.36-1.9-.37-2.59-.3-.28-.52-.53-.37-.88Z"/><path class="cls-3" d="M284.37,65.68c-.15-.12-.28-.28-.37-.45-.6-1.2-1.53-1.92-2.9-1.98-.8,0-1.19,.23-1.2,.74,0,.5,.36,.77,1.12,.8,.81,.03,1.36,.49,1.63,1.25,.1,.29,.36,.52,.56,.77,.14,.19,.34,.34,.44,.54,.18,.36,.43,.6,.85,.52,.41-.07,.62-.35,.64-.76,.03-.62-.29-1.06-.76-1.44Z"/><path class="cls-3" d="M271.49,68.23c-.01,.54,.26,.93,.68,.98,.44,.05,.74-.24,.83-.82,0-.03,0-.06,.01-.09,.17-1.06,1.02-1.95,2.08-2.17,.17-.03,.34-.06,.5-.11,.42-.14,.64-.48,.56-.86-.09-.42-.38-.59-.79-.61-1.83-.06-3.86,1.85-3.89,3.67Z"/><path class="cls-3" d="M275.28,70.43c-.12,.43-.17,.89-.16,1.34,.02,.8,.56,1.42,1.33,1.63,.47,.13,.87-.04,1.02-.42,.15-.38,0-.79-.43-.97-.39-.16-.46-.43-.4-.79,.02-.14,.05-.28,.07-.44,0-.38-.15-.69-.56-.8-.4-.1-.76,.06-.87,.45Z"/><path class="cls-3" d="M322.71,102.23c-.04-1.53-.08-3.07-.18-4.6-.08-1.14-.13-2.33-.48-3.43-.44-1.39-1.41-2.82-2.73-3.5-1.39-.72-2.78-1.45-4.14-2.22-2.32-1.31-4.56-2.75-6.82-4.17-3.18-2-6.47-3.91-9.21-6.5-.08-.07-.16-.11-.24-.15,.08-.35,.13-.56,.13-.56,.35-1.51,.75-2.93,1-4.37,.2-1.16,.23-2.41-.47-3.42-.53-.76-.65-1.51-.59-2.37,.02-.25,0-.5-.01-.75-.11-1.86-.45-3.64-1.58-5.19-.07-.09-.08-.23-.09-.36-.16-1.69-.5-3.32-1.57-4.71-.07-.09-.12-.28-.08-.37,.59-1.25,.45-2.59,.42-3.89-.05-2.07-.91-3.69-2.86-4.61-.15-.07-.28-.19-.39-.32-.53-.61-1.01-1.27-1.58-1.84-.74-.74-1.7-1.06-2.75-1.03-.6,.02-1.21,.1-1.82,.15-.89-1.71-2.46-2.31-4.26-2.45-1.79-.14-3.44,.23-4.73,1.57-.42-.26-.78-.51-1.17-.72-.4-.21-.82-.39-1.24-.56-3.62-1.52-7.56-.37-9.78,2.88-.17,.25-.32,.29-.61,.21-1.05-.28-2.09-.22-3.07,.28-2.6,1.35-4.39,3.31-4.76,6.34-.02,.2-.15,.41-.28,.56-1.85,1.98-2.88,4.23-2.39,7.02,.08,.45,.05,.93-.02,1.39-.27,1.69-.37,3.34,.7,4.84,.1,.13,.07,.38,.04,.58-.13,1.12-.35,2.23-.39,3.35-.03,1.01,.17,2,.89,2.81,.09,.1,.08,.31,.05,.47-.29,1.97,.05,3.72,1.72,5.02,.02,.01,.02,.05,.04,.09-.07,.03-.15,.06-.22,.12-3.55,2.92-7.77,4.95-11.78,7.14-1.42,.78-2.83,1.56-4.26,2.31-1.57,.82-3.17,1.6-4.77,2.35-1.33,.62-2.47,1.17-3.41,2.34-1.09,1.35-1.46,2.87-1.83,4.54-.43,1.96-.73,3.94-.7,5.95,.02,1.02,1.6,1.02,1.59,0-.03-1.81,.22-3.58,.6-5.34,.33-1.53,.61-3.03,1.65-4.26,.95-1.11,2.29-1.56,3.58-2.18,1.6-.76,3.19-1.55,4.76-2.38,2.41-1.28,4.78-2.61,7.17-3.92,1.88-1.03,3.76-2.08,5.54-3.26-.01,.01-.02,.03-.03,.04-.71,.93-1.39,1.89-2.04,2.86-1.33,1.98-2.53,4.04-3.61,6.16-.35,.69,.1,1.35,.82,1.43,1.17,.13,2.34,.2,3.51,.24-.32,.52-.64,1.04-.96,1.57-.5,.82-1.33,1.8-1.35,2.8-.02,.98,.89,1.92,1.4,2.7,.84,1.3,1.71,2.54,2.62,3.79-.34,.17-.68,.33-1.01,.51-.54,.29-.69,.68-.48,1.11,.21,.42,.65,.55,1.18,.29,.61-.29,1.21-.6,1.82-.91,.07-.02,.14-.03,.22-.07,.05-.03,.1-.07,.15-.11,.29-.15,.59-.29,.89-.44,.56-.29,.91-.75,1.04-1.38,.09-.41,.25-.81,.37-1.21,.09-.32,.26-.46,.62-.39,.66,.13,1.33,.22,1.99,.35,1.68,.31,3.36,.67,5.08,.44,.2-.03,.43,.07,.64,.11-.19,.21-.37,.3-.55,.38-1.05,.46-2.11,.89-3.13,1.4-.35,.17-.69,.49-.9,.82-.22,.35-.11,.78,.18,1.08,.29,.3,.61,.12,.91-.02,.6-.29,1.19-.57,1.89-.91-.59,1.89-1.18,3.66-1.67,5.45-.28,1.03-.71,1.86-1.8,2.18-.15,.04-.27,.16-.4,.24-.83,.51-1.66,.53-2.47-.02-.56-.38-1.11-.36-1.67-.02-1.03,.62-2.07,1.24-3.09,1.89-.19,.12-.38,.27-.53,.45-.94-1.5-1.67-3.11-1.8-4.89-.11-1.5,.07-3.03,.44-4.48,.32-1.28,.72-2.73-.26-3.85-.86-.98-2.2-.92-3.38-.79-1.54,.16-3.08,.37-4.58,.74-2.74,.67-5.35,1.91-7.32,3.96-.51-.1-1.01-.2-1.52-.27-2.56-.39-5.08-.25-7.44,.9-.92,.45-.11,1.82,.8,1.37,2.39-1.17,4.93-.99,7.46-.53,1.37,.25,2.9,.74,4.3,.6,1.06-.11,2.27-.49,3.23-.96,.92-.45,.11-1.82-.8-1.37-1.02,.5-2.41,.88-3.52,.71-.19-.03-.37-.07-.56-.1,1.75-1.47,3.88-2.35,6.12-2.86,1.45-.33,2.94-.56,4.42-.66,.5-.03,1.2-.12,1.58,.28,.55,.57,.15,1.62-.02,2.25-.64,2.46-.86,5.18-.04,7.62,.81,2.42,2.37,4.47,3.92,6.46,.62,.8,1.74-.32,1.12-1.12-.47-.61-.95-1.23-1.41-1.88,.14-.05,.27-.11,.4-.19,.78-.44,1.56-.87,2.31-1.36,.7-.46,1.36-.51,2.04,0,.06,.05,.14,.08,.2,.12,.53,.35,1.05,.32,1.6,.03,.87-.46,1.75-.91,2.65-1.32,.63-.3,1.01-.76,1.17-1.43,.08-.35,.19-.7,.31-1.14,.09,.18,.13,.24,.15,.31,.57,1.69,1.45,3.22,2.44,4.7,1.15,1.72,2.65,3,4.62,3.69,.28,.1,.55,.23,.83,.31,.48,.14,.72,.45,.78,.94,.08,.59,.24,1.17,.26,1.76,.05,1.32,.82,2.02,1.96,2.47,2.09,.82,4.24,.92,6.43,.6,1.39-.2,2.59-.81,3.6-1.79,.6-.58,.89-1.28,.83-2.11-.04-.55-.03-1.1-.09-1.65-.05-.48,.14-.76,.57-.96,1.42-.68,2.51-1.72,3.26-3.1,.65-1.19,1.1-2.42,1.39-3.68,3.28-3.56,7.07-6.7,9.78-10.75,.63-.95,1.26-1.96,1.68-3.02,.47-1.19-.19-2.07-.8-3.08-.46-.76-.91-1.51-1.37-2.25,1.24-.04,2.48-.11,3.71-.25,.63-.07,1.03-.65,.72-1.25-1.08-2.12-2.29-4.18-3.61-6.16-.6-.9-1.24-1.79-1.89-2.66,1.54,1.09,3.14,2.09,4.73,3.09,1.79,1.13,3.58,2.27,5.38,3.38,1.76,1.08,3.55,2.09,5.38,3.04,1.12,.58,2.05,.97,2.79,2.06,.74,1.09,.88,2.35,.98,3.63,.1,1.31,.15,2.62,.19,3.93-.07,0-.14,.01-.21,.04-1.77,.7-3.56,1.15-5.45,1.35-1.35,.14-2.69,.16-4.04,.16-.03-.66-.06-1.32-.13-1.99-.11-1.06-1.77-1.07-1.66,0,.41,4-.04,7.99-.29,11.98-.07,1.07,1.6,1.07,1.66,0,.06-1.02,.14-2.04,.21-3.06,.1,.04,.21,.07,.32,.09,3.33,.39,6.58-.12,9.67-1.34,0,.69,0,1.37-.01,2.06-.02,1.02,1.56,1.02,1.59,0,.06-2.67,.03-5.35-.03-8.03Zm-26.97-41.53c.05,.57,.22,1.01,.56,1.49,.67,.91,.94,2.02,1.04,3.13,.09,1.04,.04,2.1,.08,3.15,.01,.28,.07,.65,.25,.82,.89,.85,.97,1.91,.87,3.01-.14,1.54-.53,3.02-1.25,4.49-.39-1.1-.99-2.06-.96-3.23,.01-.66,.06-1.32-.02-1.97-.05-.46-.24-.92-.46-1.34-.45-.89-1.13-1.68-1.03-2.77,.04-.37,.19-.74,.19-1.11,0-.36,0-.81-.2-1.06-1.35-1.65-1.49-3.52-1.2-5.51,.03-.22,.08-.44,.06-.65-.1-.85,.19-1.49,1.01-1.92,.74,1.03,.93,2.26,1.04,3.49Zm-39.72-4.16c.11-1.19,.84-2.11,1.55-3.01,.08-.1,.22-.18,.35-.21,.48-.11,.65-.43,.65-.9,.02-2.27,1.04-3.99,2.92-5.22,.22-.15,.46-.27,.68-.42,.89-.57,1.82-.61,2.79-.2,.88,.37,1.05,.3,1.51-.55,.98-1.84,2.48-2.96,4.59-3.18,2.17-.22,4.15,.23,5.81,1.73,.56,.51,.98,.51,1.51-.04,1.54-1.6,3.37-1.79,5.37-1.15,.79,.25,1.35,.76,1.63,1.57,.29,.81,.67,.98,1.49,.69,2.14-.76,3.51,.01,4.65,1.94,.13,.21,.21,.46,.31,.69,.14,.31,.36,.48,.72,.52,.22,.03,.46,.11,.64,.23,.97,.69,1.37,1.62,1.36,3.09,0,1.11-.18,2.2-.66,3.2-.23,.47-.64,.87-1.03,1.23-.44,.42-.75,.78-.7,1.51,.12,1.79-.13,3.53-1.57,4.83-.3,.27-.71,.46-1.09,.62-.93,.4-1.11,.62-1.07,1.63,.06,1.66-.83,2.7-2.19,3.43-.5,.27-1.04,.32-1.6,.21-.14-.03-.28-.04-.42-.05-.67-.02-1.07,.42-.94,1.08,.08,.4,.22,.78,.33,1.18,.37,1.28-.4,3.03-1.62,3.59-.26,.12-.57,.16-.86,.15-.62-.03-.98,.2-1.16,.79-.08,.27-.15,.54-.23,.81-.14,.46-.47,.64-.93,.63-.77-.02-1.42-.3-1.83-.97-.41-.67-.96-1.07-1.72-1.28-1.41-.39-2.57-1.23-3.66-2.16-.4-.34-.69-.86-.93-1.34-.44-.89-1.08-1.3-2.1-1.26-1.29,.05-2.58-.09-3.76-.67-1.67-.81-2.76-2.15-3.41-3.86-.33-.88-.86-1.46-1.81-1.65-1.68-.33-3.54-2.5-3.57-4.45-.01-.93-.07-1.88,.02-2.8Zm1.23,16.07c.15-.45,.17-.9-.21-1.22-.69-.6-.85-1.4-.8-2.22,.05-.96,.21-1.93,.38-2.88,.12-.66,.1-1.25-.28-1.84-.3-.46-.48-1-.73-1.54,.16,0,.21-.02,.22-.01,.8,1.14,1.91,1.88,3.16,2.45,.17,.08,.32,.25,.41,.42,.76,1.43,.93,2.95,.62,4.52-.16,.79-.06,1.48,.25,2.23,.59,1.42,1.01,2.9,.74,4.49-.04,.25-.01,.56,.11,.77,.6,1.01,.61,2.12,.65,3.23,.02,.42,0,.83,0,1.25-.07,.03-.13,.06-.2,.09-.38-.44-.84-.83-1.14-1.32-.52-.85-.86-1.79-.82-2.81,.02-.72-.23-1.27-.88-1.58-1.59-.76-1.9-2.76-1.48-4.02Zm18.82,36.23c-3-.3-6.01-.6-9.1-.91,.45-1.46,.89-2.89,1.37-4.44,2.64,1.73,5.22,3.42,7.79,5.11-.02,.08-.05,.16-.07,.24Zm9.12,13.63c-.9,.47-1.88,.58-2.87,.63-1.47,.08-2.9-.13-4.29-.64-.6-.22-.96-.6-1-1.28-.03-.46-.13-.91-.22-1.5,3.32,.67,6.55,.51,9.73-.39,.4,1.6,.02,2.45-1.35,3.17Zm-5.06-22.77c.55,.91,1.08,1.84,1.27,2.91,.12,.69,.14,1.35-.1,2.03-.41,1.18-.59,2.4-.5,3.65-.81-.02-1.46-.95-1.29-1.83,.06-.29,.17-.57,.31-.83,.8-1.45,.77-2.9,.02-4.35-.24-.46-.51-.9-.77-1.34-.58-.95-.87-1.96-.82-3.08,.04-.94,.32-1.13,1.25-.72-.33,1.3-.02,2.47,.64,3.57Zm3.45,.73c.53,1.08,.8,2.16,.62,3.36-.09,.59-.18,1.18-.22,1.77-.04,.59-.03,1.19,0,1.78,.01,.27-.03,.4-.33,.44-.31,.04-.61,.13-.92,.18-.36,.06-.5-.07-.41-.44,.21-.91,.43-1.83,.61-2.74,.37-1.85-.13-3.52-1.01-5.14-.4-.74-.71-1.53-.97-2.33-.21-.65,.13-1.06,.8-1.13,.22-.02,.43-.04,.7-.06-.37,1.67,.45,2.99,1.11,4.32Zm21.53-10.06c-1.15,.1-2.3,.16-3.45,.17-.35-.5-.71-1-1.1-1.48-.67-.83-1.85,.35-1.18,1.18,1.21,1.49,2.11,3.14,3.11,4.77,.25,.41,.73,.97,.85,1.44,.12,.49-.26,1.01-.5,1.46-.5,.94-1.08,1.83-1.71,2.68-2.14,2.91-4.84,5.35-7.37,7.92,.02-.58,0-1.17-.05-1.77-.04-.5-.05-1-.02-1.5,.04-.65-.16-1.19-.69-1.56-.5-.36-1.01-.69-1.55-.98-1.24-.66-2.6-.9-3.98-1-.41-.03-.64,.22-.71,.6-.08,.38,.13,.59,.46,.71,.16,.06,.34,.08,.5,.13,1.29,.44,2.58,.87,3.85,1.34,.46,.17,.46,.43,.07,.72-.37,.27-.73,.6-1.14,.73-1.53,.5-3.09,.93-4.63,1.38-.29,.08-.41-.04-.4-.33,.03-.55,0-1.1,.09-1.64,.25-1.56,.42-3.12-.19-4.64-.32-.8-.72-1.57-1.06-2.35-.57-1.3-.29-2.46,.59-3.53,.27-.32,.52-.67,.69-1.05,.33-.77,.03-1.61-.68-2.11-.73-.51-1.64-.49-2.27,.04-.33,.29-.47,.64-.29,1.05,.19,.41,.56,.45,.97,.37,.27-.05,.55-.09,.87-.15-.22,.88-.85,1.2-1.58,1.41-.91,.26-1.83,.19-2.76,.08-1.15-.14-2.19-.46-2.69-1.66-.06-.14-.31-.27-.49-.29-.63-.07-1.08,.57-.77,1.13,.24,.44,.59,.81,.83,1.25,.13,.24,.22,.58,.15,.83-.46,1.63-.21,3.16,.58,4.63,.33,.61,.68,1.2,1,1.81,.33,.62,.48,1.28,.24,1.95-.26,.73-.59,1.43-.92,2.2-2.14-1.56-4.22-3.08-6.32-4.62,.08-.08,.12-.15,.18-.19,.45-.35,.6-.76,.37-1.32-.34-.82-.64-1.08-1.35-1.07-.38,0-.75,.03-1.13,.06-.65,.07-1.23-.06-1.76-.49-1.44-1.16-2.91-2.29-4.37-3.43-.6-.47-1.05-.51-1.37-.13-.36,.43-.23,.89,.39,1.39,.05,.04,.1,.08,.15,.12,1,.79,2,1.57,2.99,2.36,.13,.1,.24,.21,.37,.32-.02,.04-.05,.09-.07,.13-.35-.15-.73-.26-1.04-.46-1.07-.68-2.12-1.39-3.19-2.09-.47-.31-.94-.63-1.42-.91-.47-.28-.93-.12-1.13,.34-.18,.44,0,.77,.35,1.02,.5,.35,1.01,.68,1.56,1.05-.09,.05-.11,.07-.14,.07-.36,0-.72-.01-1.08-.01-.63,0-.91,.18-1.14,.78-.2,.53-.4,1.06-.54,1.6-.12,.45-.36,.78-.71,1.02-.81-1.1-1.6-2.19-2.33-3.34-.38-.61-.78-1.21-1.18-1.81-.09-.14-.19-.28-.28-.42-.07-.04-.05-.1,.07-.19,.04-.2,.26-.46,.36-.63,.24-.41,.49-.82,.74-1.23,.91-1.49,1.72-2.97,2.83-4.33,.76-.94-.57-2.3-1.35-1.35-.38,.47-.73,.96-1.07,1.44-1.07,0-2.14-.06-3.21-.15,.94-1.73,1.95-3.42,3.05-5.05,.68-1,1.38-1.98,2.11-2.94,.48-.62,.94-1.23,1.3-1.9,.72,1.69,1.81,3.23,1.81,3.23,.07,.07,.16,.17,.17,.26,.03,1.25,.75,2.24,1.24,3.31,.65,1.41,1.37,2.78,2.08,4.16,.96,1.88,1.93,3.76,2.92,5.63,.26,.49,.74,.61,1.15,.36,.39-.24,.47-.67,.22-1.16-.07-.12-.15-.24-.22-.36-.06-.11-.11-.22-.23-.43,1.31,.94,2.5,1.79,3.39,3,1,1.35,2.07,2.64,3.12,3.96,.5,.63,1,1.25,1.52,1.86,.32,.37,.71,.41,1.05,.17,.33-.24,.42-.64,.21-1.05-.07-.14-.17-.27-.26-.39-.37-.47-.75-.93-1.12-1.4-.75-.93-1.5-1.87-2.32-2.89,.55,.15,.99,.27,1.42,.4,.42,.13,.7-.02,.89-.39,.2-.4,.12-.72-.29-.96-.36-.21-.75-.4-1.15-.53-3.41-1.14-6.1-3.24-8.19-6.13-.62-.86-1.19-1.77-1.7-2.7-.5-.93-1.24-1.78-1.13-2.95,.03-.32-.02-.65,0-.98,.07-1.28,.22-2.56,.22-3.84,0-.72-.14-1.48-.38-2.16-.2-.57-.3-1.11-.28-1.71,.06-1.61-.4-3.13-1.01-4.61-.06-.14-.15-.3-.14-.44,.07-.74,.18-1.48,.27-2.23,.47,.38,.89,.75,1.34,1.08,1.65,1.18,3.54,1.47,5.5,1.44,.34,0,.53,.12,.71,.41,.37,.6,.68,1.3,1.21,1.72,1.08,.84,2.25,1.61,3.47,2.23,.8,.4,1.53,.73,2.13,1.47,1.31,1.62,4.7,1.8,5.21-.77,.02-.1,.18-.23,.28-.24,1.56-.24,2.49-1.25,3.17-2.55,.55-1.05,.67-2.18,.3-3.33,.08-.03,.12-.05,.16-.05,2.42,.03,4.99-2.73,4.74-5.04-.03-.27,.13-.35,.33-.48,.56-.33,1.09-.72,1.62-1.09,.1-.07,.19-.16,.2-.17,.42,.75,.83,1.47,1.22,2.19,.09,.17,.19,.39,.15,.55-.38,1.36-.17,2.63,.6,3.78,.61,.91,.8,1.87,.77,2.96-.02,.86,.04,1.81,.39,2.57,.64,1.41,.8,2.86,.79,4.35,0,.52,.05,.97,.63,1.2-.45,1.28-.75,2.56-1.33,3.77-1.47,3.06-3.27,5.88-5.86,8.09-1.37,1.17-2.87,2.18-4.31,3.27-.16,.12-.33,.24-.47,.39-.27,.29-.28,.62-.07,.95,.2,.31,.49,.42,.86,.3,.15-.05,.31-.09,.52-.15-.05,.22-.09,.39-.13,.55-.11,.48,.08,.92,.47,1.05,.41,.14,.75-.01,.99-.5,.3-.62,.56-1.26,.85-1.88,.16-.34,.27-.73,.53-.99,.99-1,2.02-1.96,3.04-2.94,.08,.13,.07,.19,.06,.25-.34,1.48-.7,2.95-1.03,4.43-.14,.64-.25,1.29-.33,1.94-.05,.44,.24,.71,.64,.81,.39,.1,.61-.17,.75-.5,.09-.22,.14-.45,.2-.67,.51-2.16,.98-4.33,1.52-6.49,.69-2.71,2.28-5.04,3.26-7.63,.52-1.38,1.13-3.58,1.58-5.35,.36,.8,.88,1.49,1.42,2.19,.76,.99,1.5,2.01,2.2,3.05,1.13,1.68,2.18,3.42,3.13,5.21Zm6.4,17.51c-.08,0-.15,0-.22,.02,.08-1.24,.13-2.47,.13-3.71,1.4,0,2.78-.02,4.17-.17,1.92-.21,3.74-.63,5.54-1.32,.03,1.24,.05,2.48,.05,3.72-3.07,1.36-6.35,1.85-9.68,1.46Z"/></g><g><g><path class="cls-3" d="M219.01,11.35c20.97-4.77,40.63,2.76,43.82,16.79,2.89,12.71-10.45,18.05-25.29,21.92-1.45,.38-2.5,1.54-2.75,3.02-.24,1.47,.37,2.89,1.6,3.7l.09,.06c.89,.57,1.36,1.59,1.22,2.66-.14,1.07-.86,1.94-1.88,2.26-.32,.1-.65,.19-.98,.27-1.58,.36-3.23,.4-4.83,.11-3.5-.63-6.53-2.77-8.31-5.85-.78-1.36-2.39-2.07-4-1.77-14.39,2.68-28.1,3.43-30.94-9.08-3.19-14.03,11.28-29.32,32.25-34.09Z"/><g><g><path class="cls-3" d="M190.05,21.2c1.15-1.7,2.49-3.35,4-4.94,1.12-1.17,2.35-2.31,3.65-3.4,.39-.32,.96-.26,1.28,.14h0c.31,.39,.25,.95-.14,1.26-1.24,1.03-2.41,2.12-3.49,3.24-1.44,1.5-2.71,3.08-3.8,4.68-.28,.41-.82,.53-1.24,.27h0c-.43-.27-.55-.84-.27-1.26Z"/><path class="cls-3" d="M208.75,5.9c3.96-1.87,8.22-3.33,12.66-4.34,6.3-1.43,12.79-1.88,18.84-1.31,.5,.05,.86,.5,.81,1h0c-.06,.49-.49,.84-.99,.79-5.85-.55-12.14-.11-18.26,1.28-4.31,.98-8.44,2.4-12.28,4.21-.45,.21-.98,.03-1.2-.41-.22-.45-.04-1,.42-1.22Z"/></g><path class="cls-2" d="M222.61,6.83c-20.52,4.67-34.66,19.45-31.57,33.01,2.53,11.15,14.38,11.29,29.9,8.4,1.95-.36,3.96,.49,4.95,2.21,1.59,2.75,4.32,4.81,7.69,5.41,1.86,.34,3.7,.19,5.38-.35,1.46-.47,1.74-2.47,.44-3.3-.03-.02-.07-.04-.1-.07-3.33-2.2-2.45-7.34,1.41-8.35,15.95-4.16,27.25-9.39,24.64-20.85-3.08-13.57-22.22-20.78-42.74-16.11Z"/><path class="cls-3" d="M238.24,56.64c-1.58,.36-3.23,.4-4.83,.11-3.5-.63-6.53-2.77-8.31-5.85-.78-1.36-2.39-2.07-4-1.77-14.39,2.68-28.1,3.43-30.94-9.08-3.19-14.03,11.28-29.32,32.25-34.09,20.97-4.77,40.63,2.76,43.82,16.79,2.89,12.71-10.45,18.05-25.29,21.92-1.45,.38-2.5,1.54-2.75,3.02-.24,1.47,.37,2.89,1.6,3.7l.09,.06c.89,.57,1.36,1.59,1.22,2.66-.14,1.07-.86,1.94-1.88,2.26-.32,.1-.65,.19-.98,.27Zm-15.44-48.93c-20,4.55-33.86,18.87-30.89,31.93,2.03,8.92,10.39,11.15,28.85,7.71,2.36-.44,4.73,.62,5.89,2.64,1.51,2.62,4.09,4.44,7.07,4.98,1.65,.3,3.36,.19,4.94-.32,.52-.17,.62-.64,.64-.78,.02-.14,.04-.61-.41-.9l-.11-.07c-1.83-1.21-2.75-3.32-2.39-5.5,.36-2.2,1.92-3.92,4.07-4.48,16.14-4.21,26.4-9.19,23.99-19.78-2.97-13.06-21.66-19.98-41.66-15.43Z"/></g></g><path class="cls-3" d="M229.28,26.14c.63,2.49,3.15,7.93,12.65,10.61,.15,.03,.48,.15,.48,.3s-.39,.39-.57,.51c-.12,.09-.63,.42-.75,.48-2.34,1.5-2.64,1.8-3.48,1.8-.51,0-1.14-.09-2.67-1.11-3.43-2.22-5.32-5.62-6.43-10.31,0,.18,0,.21-.03,.36-.36,1.47-1.02,3.15-1.83,4.33-2.55,3.76-6.52,5.02-7.54,5.32-.09,.03-2.67,.72-4.21,.72-.69,0-.78-.24-.78-.36,0-.24,.84-.42,1.14-.51,.36-.06,1.05-.36,1.41-.54,5.62-2.67,7.9-7.03,8.53-11.57-2.31,.06-4.18,.09-5.8,.24-.24,.03-1.44,.42-1.74,.42-.78,0-1.02-.48-1.02-.96,0-.72,.6-1.59,1.5-1.59,.15,0,.9,.12,1.08,.12,.93,.09,5.11,.15,6.1,.18l.03-.78v-1.32c0-.6-.03-3.21-.06-3.76-1.02,0-6.97,.09-7.39,.24-.63,.24-1.44,.51-1.68,.51-.78,0-1.05-.66-1.05-1.11,0-.75,.93-1.68,1.71-1.68,.21,0,1.17,.18,1.38,.21,1.74,.15,7.15,.15,9.28,.15,1.5,0,2.16,0,8.05-.09,.57-.87,1.29-1.47,1.89-1.47,.84,0,2.67,1.14,2.67,2.25,0,.84-.99,.96-1.32,.99h-9.55c-.03,1.8-.09,4.09-.15,5.86,1.77,0,3.21,0,5.14-.09,.63-1.05,1.29-1.41,1.8-1.41,.93,0,2.49,1.17,2.49,2.19,0,.75-.9,.84-1.2,.87h-8.08Z"/></g></g><g><g><path class="cls-3" d="M421.71,84.16s0-.02,0-.03c0,.03,0,.04,0,.03Z"/><path class="cls-3" d="M453.34,89.99c-.62,0-1.1,.48-1.11,1.1,0,.64,.49,1.15,1.11,1.15,.61,0,1.1-.49,1.12-1.11,.01-.63-.49-1.14-1.12-1.14Z"/><path class="cls-3" d="M437.69,90.83c-.63-.01-1.15,.5-1.15,1.12,0,.6,.5,1.11,1.11,1.13,.62,.01,1.14-.5,1.14-1.13,0-.62-.47-1.11-1.09-1.12Z"/><path class="cls-3" d="M454.74,87.6c-.01-.16-.09-.3-.24-.37-.18-.08-.36-.07-.55-.05-.4,.05-.79,.11-1.19,.16,0,0,0,0-.01,0-.05,0-.1,.01-.15,.02-.11,.02-.21,.06-.31,.12-.1,.04-.18,.1-.26,.18-.11,.11-.23,.29-.22,.46,.01,.16,.09,.3,.24,.37,.18,.08,.36,.07,.55,.05,.45-.06,.9-.12,1.35-.19,.11-.02,.21-.06,.31-.12,.1-.04,.18-.1,.26-.18,.11-.11,.23-.29,.22-.46Z"/><path class="cls-3" d="M439.28,88.84c.13-.07,.3-.22,.34-.38,.03-.16,0-.31-.13-.42-.15-.13-.33-.17-.52-.2-.4-.06-.79-.12-1.19-.18,0,0,0,0-.01,0-.05,0-.1-.02-.15-.02-.11-.01-.22,0-.33,.03-.1,.01-.2,.05-.3,.1-.13,.07-.3,.22-.34,.38-.03,.16,0,.31,.13,.42,.15,.13,.33,.17,.52,.2,.45,.07,.9,.13,1.35,.2,.11,.01,.22,0,.33-.03,.1-.01,.2-.05,.3-.1Z"/><path class="cls-3" d="M479.35,110.88c-.37-1.28-.86-2.52-1.47-3.71-.58-1.14-1.26-2.35-2.17-3.25-.9-.89-2.09-1.45-3.2-2.05-1.26-.67-2.52-1.34-3.78-2,.03-.61-.03-1.25-.35-1.72-.49-.73-1.46-1.33-2.18-1.83-1.72-1.21-3.79-1.81-5.47-3.07,1.53-1.07,2.97-2.23,4.05-3.77,.79-1.12,1.42-2.2,1.96-3.42,.54-1.22,.81-2.43,.81-2.43,1.38-5.72,.12-11.89-2.06-17.24-4.38-10.78-15.89-17.37-27.37-13.97-2.06,.61-3.97,1.7-5.48,3.24-.13,.13-.35,.21-.53,.23-2.3,.22-4,1.51-5.38,3.34-4.72,6.26-6.31,15.06-5.4,22.71,0,0,.37,2.17,.37,2.23,.41,2.11,1.36,3.89,2.27,5.7,.53,1.04,1.14,2,1.83,2.91-1.19,1-2.66,1.58-4.03,2.27-.72,.37-1.42,.78-2.07,1.26-.6,.45-1.41,.96-1.84,1.58-.31,.46-.37,1.08-.34,1.71-1.89,.99-3.84,1.92-5.65,3.04-.73,.45-1.37,.97-1.84,1.69-.37,.57-.67,1.18-1.03,1.75,0,0,0,.01,0,.02-.67,.14-1.34,.27-2.02,.37-1.01,.14-.58,1.67,.42,1.53,3.06-.44,6.01-1.55,9.09-1.89,.55-.06,1.11-.1,1.66-.13,.36-.01,1.02-.15,1.34,.03,.7,.4-.04,2.08-.25,2.61-.8,2.01-1.3,3.97-1.22,6.15,.04,1.02,1.62,1.02,1.59,0-.02-.5,0-.99,.03-1.48,.17,.27,.32,.56,.44,.86,.31,.77,.45,1.58,.79,2.34,.62,1.38,1.67,2.54,2.94,3.35,.86,.55,1.66-.82,.8-1.37-.47-.3-.89-.68-1.27-1.1,.03-.02,.06-.02,.08-.04,.62-.48,1.24-.97,1.83-1.48,.36-.31,.67-.33,1.03-.01,.47,.41,1.01,.57,1.62,.37,1.04-.34,2.08-.7,3.12-1.06,.55-.19,.89-.57,1.05-1.12,.07-.23,.14-.46,.24-.77,.36,.82,.67,1.56,1.01,2.28,.98,2.1,2.39,3.83,4.38,5.05,1.14,.69,1.96,1.57,2.34,2.88,.21,.73,.76,1.16,1.53,1.18,1.84,.05,3.67,.09,5.51,.07,1.46-.02,2.5-.82,2.79-2.26,.19-.94,.67-1.5,1.46-1.9,.08-.04,.16-.1,.24-.15,1.64-.88,2.76-2.25,3.62-3.85,1.39-2.55,1.7-5.32,1.54-8.17-.02-.4-.25-.86-.52-1.17-1.12-1.31-2.62-1.83-4.3-1.88-.15,0-.36,0-.44,.1-.18,.2-.4,.46-.41,.7,0,.17,.28,.39,.48,.53,.13,.09,.33,.08,.5,.09,1.09,.09,2.08,.44,2.91,1.19,.44,.4,.45,.62,0,.98-.43,.34-.88,.66-1.35,.94-.74,.44-1.55,.72-2.44,.79-.03-.46-.03-.88-.08-1.3-.16-1.4-.68-2.7-1.24-3.98-.66-1.51-.91-3.06-.4-4.67,.24-.75,.49-1.49,.75-2.23,.33-.94-.06-1.83-.98-2.18-.59-.23-1.05-.12-1.23,.29-.18,.41-.03,.66,.58,1,.04,.02,.11,.03,.12,.06,.04,.15,.15,.34,.09,.44-.45,.77-1.06,1.37-1.99,1.5-1.75,.26-3.2-.6-3.85-2.25-.07-.18-.12-.36-.2-.53-.17-.36-.43-.58-.86-.44-.4,.13-.61,.51-.45,.94,.19,.5,.37,1.02,.68,1.44,.44,.59,.5,1.16,.29,1.85-.44,1.43-.31,2.81,.51,4.11,.41,.65,.73,1.35,1.05,2.05,.51,1.13,.46,2.27,0,3.46-2.52-1.94-4.99-3.84-7.46-5.75,.1-.14,.16-.22,.22-.31,.45-.68,.24-1.22-.56-1.39-.31-.06-.63-.13-.93-.11-1.2,.11-1.99-.61-2.8-1.31,.5-.54,.52-.64,.19-1.3-.42-.84-.84-1.68-1.26-2.52-.06-.11-.1-.23-.12-.29,.89,.22,1.76,.47,2.65,.64,.38,.07,.65,.22,.92,.48,1.29,1.17,2.58,2.34,3.92,3.45,.56,.47,1.23,.81,1.87,1.18,.42,.24,.81,.14,1.03-.21,.22-.33,.11-.72-.3-1.01-.14-.1-.3-.18-.44-.28-.61-.41-1.25-.79-1.82-1.25-.91-.73-1.78-1.52-2.67-2.28,.56-.65,.56-.81,.08-1.44-.12-.16-.27-.31-.41-.45-1.06-1.11-2.11-2.24-2.8-3.64-1.34-2.69-1.65-5.39-.33-8.19,.79-1.67,1.49-3.39,2.23-5.08,.05-.11,.11-.2,.24-.43,0,.28,0,.41,0,.54,0,.72-.04,1.44-.02,2.17,.02,.62,.41,.93,1.03,.88,5.55-.53,11.15-.69,16.69-1.28,1.26-.13,1.53-.48,1.4-1.75-.05-.49-.09-.98-.15-1.58,.14,.18,.22,.25,.27,.34,1.1,2.08,2.27,4.12,3.26,6.25,.45,.97,.73,2.11,.75,3.18,.05,2.63-.86,4.94-2.81,6.79-.14,.13-.29,.25-.4,.39-.23,.28-.28,.6-.08,.92,.21,.33,.53,.42,.9,.33,.18-.05,.34-.13,.61-.24-.14,.22-.22,.36-.32,.49-1.61,2.11-3.53,3.91-5.68,5.46-.22,.16-.44,.31-.63,.49-.35,.34-.38,.68-.11,1,.29,.34,.63,.32,.97,.1,.32-.2,.63-.42,.93-.64,1.52-1.13,2.92-2.39,4.27-3.89-.03,.25-.03,.4-.07,.54-.1,.44-.21,.89-.31,1.33-.17,.75-.35,1.5-.5,2.25-.1,.47,.12,.82,.52,.92,.36,.09,.69-.13,.85-.56,.03-.09,.06-.18,.08-.27,.27-1.16,.53-2.32,.8-3.48,.19-.8,.32-1.64,.64-2.39,.39-.89,.9-1.74,1.4-2.58,.8,.61,1.67,1.08,2.56,1.53,0,.01-.01,.02-.02,.03-1.25,3.83-2.4,7.69-3.46,11.58-.27,.99,1.26,1.41,1.53,.42,1.04-3.8,2.16-7.57,3.38-11.31,.11,.05,.21,.11,.32,.17,.32,.17,.62,.37,.92,.56-.54,2.28-1.04,4.56-1.67,6.81-.63,2.23-1.51,4.38-2.24,6.57-.32,.97,1.21,1.39,1.53,.42,.73-2.2,1.61-4.34,2.24-6.57,.58-2.06,1.05-4.15,1.53-6.23,.08,.07,.17,.12,.25,.19,.45,.37,.52,.34,.58,.81,.08,.59-.03,1.25-.13,1.83-.75,4.18-1.98,8.49-3.66,12.39-.4,.93,.97,1.74,1.37,.8,.93-2.16,1.68-4.38,2.31-6.64,.57-2.03,1.18-4.13,1.52-6.22,.94,.5,1.88,.99,2.82,1.49,1.05,.56,2.23,1.06,3.12,1.87,.85,.78,1.44,1.87,1.97,2.89,.58,1.12,1.04,2.29,1.4,3.5,.29,.98,1.82,.56,1.53-.42Zm-61.58-6.46c-2.27,.13-4.45,.68-6.64,1.2,.07-.12,.14-.24,.21-.36,.37-.59,.9-.99,1.61-1.4,1.57-.92,3.2-1.75,4.82-2.59,0,0,0,.02,0,.02,.15,1.04,.35,2.07,.59,3.09-.2,.01-.4,.03-.58,.04Zm28.82-2.35c.08-.8,.35-1.06,1.2-1.16-.03,.54-.08,1.09-.08,1.63,0,1.23,.41,2.36,.81,3.51,.44,1.28,.77,2.61,1.13,3.92,.05,.18,.04,.37,.06,.56,.03,.34-.11,.54-.46,.58-.28,.03-.56,.08-.93,.13,.27-1.45,.18-2.8-.24-4.12-.3-.95-.68-1.89-1.07-2.81-.31-.72-.49-1.45-.41-2.24Zm-2.64,1.54c-.56-.99-.39-1.99-.08-3.05,.47,.17,.92,.32,1.41,.5-.02,.17-.03,.34-.07,.5-.25,.95-.14,1.85,.21,2.76,.48,1.24,.91,2.5,1.36,3.75,.35,.96,.32,1.93,.07,2.91-.11,.43-.31,.7-.8,.69-.25,0-.49,.05-.85,.1,.17-.89,.33-1.68,.46-2.48,.21-1.28-.05-2.49-.63-3.64-.35-.68-.7-1.36-1.08-2.03Zm4.43,18.31c.12,.61-.44,1.3-1.14,1.31-1.8,.01-3.61-.01-5.41-.04-.15,0-.35-.15-.43-.29-.14-.23-.2-.51-.33-.87,2.52,.82,4.92,.52,7.31-.11Zm-7.16-9.99c-2.8-.04-5.54-.49-8.24-1.44,.34-1.17,.68-2.3,1.03-3.52,2.45,1.62,4.86,3.22,7.27,4.82-.02,.05-.04,.09-.06,.14Zm-5.99-6.6c1.59,1.24,3.17,2.47,4.76,3.71-.02,.03-.04,.06-.07,.09-1.73-1.14-3.46-2.27-5.23-3.44,.22-.14,.36-.24,.53-.36Zm-1.36-1.3c.13,0,.26,0,.39,0-.11,.23-.26,.35-.42,.46-1.08,.7-2.17,1.39-3.25,2.09-.2,.13-.44,.25-.53,.44-.11,.22-.17,.58-.06,.76,.11,.18,.45,.29,.7,.3,.21,.01,.44-.15,.65-.25,.32-.15,.62-.32,.97-.5,0,.11,0,.16,0,.2-.52,1.92-1.03,3.84-1.59,5.75-.07,.25-.38,.5-.63,.61-.56,.24-1.17,.36-1.73,.6-.69,.3-1.28,.29-1.86-.26-.42-.4-.93-.42-1.38-.07-.88,.67-1.75,1.38-2.6,2.08-.14-.25-.27-.52-.37-.79-.28-.75-.43-1.52-.76-2.25-.33-.72-.8-1.38-1.34-1.97-.02-.02-.04-.02-.06-.04h0c.32-1.16,.93-2.23,1.19-3.4,.21-.95,.27-2.2-.52-2.91-.21-.19-.46-.31-.72-.39,0-.09,.01-.18,0-.28-.24-1.01-.44-2.02-.6-3.05-.08-.5-.14-1.01-.17-1.52-.01-.21-.04-.45,0-.66,.04-.26,.14-.31,.37-.5,.38-.33,.78-.62,1.18-.9,.19,1.2,.41,2.39,.67,3.58,.18,.84,.3,1.69,.51,2.53,.2,.82,.46,1.63,.73,2.44,.05,.17,.15,.28,.26,.37-.37,.13-.74,.26-1.11,.4-.36,.14-.58,.39-.49,.8,.09,.42,.39,.62,.8,.55,.44-.08,.89-.19,1.31-.36,2.48-1.02,2.05-.58,3.04-3.06,.18-.44,.41-.58,.87-.59,2.2-.05,4.39-.13,6.59-.2Zm-2.38-1.53c.08,.06,.14,.13,.21,.19-.17,.08-.31,.09-.42,.03-.49-.24-.98-.48-1.45-.76-.98-.59-1.93-1.23-2.92-1.8-.46-.27-.85-.14-1.05,.25-.19,.37-.08,.7,.36,.99,.59,.38,1.2,.75,1.79,1.13,.09,.06,.17,.14,.35,.3-.65,0-1.16,0-1.68,0-.73,0-1.21,.32-1.46,1.02-.18,.52-.36,1.04-.62,1.52-.11,.19-.27,.38-.46,.53,0-.07,0-.13-.02-.2-.26-.81-.53-1.61-.73-2.44-.2-.84-.32-1.69-.51-2.53-.29-1.32-.53-2.62-.73-3.96,0-.04-.03-.07-.05-.11,.32-.18,.64-.35,.98-.52,.03,.13,.06,.27,.09,.4,.08,.33,.15,.66,.23,.99,.15,.66,.31,1.33,.46,1.99,.09,.4,.58,.68,.98,.55,.42-.14,.65-.54,.55-.98-.17-.71-.33-1.43-.5-2.14-.08-.36-.17-.71-.25-1.07-.04-.16-.07-.33-.11-.49,.79-.42,1.56-.88,2.26-1.45,.57,.62,1.17,1.22,1.84,1.77,.09,.08,.19,.17,.24,.28,.7,1.35,1.39,2.7,2.08,4.06,0,.01-.02,.05-.06,.11-.46-.32-.91-.66-1.39-.96-.32-.2-.63-.16-.89,.13-.24,.28-.23,.58-.03,.86,.08,.11,.19,.21,.3,.3,.86,.66,1.72,1.32,2.57,1.98Z"/></g><g><g><path class="cls-3" d="M393.76,11.35c20.97-4.77,40.63,2.76,43.82,16.79,2.89,12.71-10.45,18.05-25.29,21.92-1.45,.38-2.5,1.54-2.75,3.02-.24,1.47,.37,2.89,1.6,3.7l.09,.06c.89,.57,1.36,1.59,1.22,2.66-.14,1.07-.86,1.94-1.88,2.26-.32,.1-.65,.19-.98,.27-1.58,.36-3.23,.4-4.83,.11-3.5-.63-6.53-2.77-8.31-5.85-.78-1.36-2.39-2.07-4-1.77-14.39,2.68-28.1,3.43-30.94-9.08-3.19-14.03,11.28-29.32,32.25-34.09Z"/><g><g><path class="cls-3" d="M364.8,21.2c1.15-1.7,2.49-3.35,4-4.94,1.12-1.17,2.35-2.31,3.65-3.4,.39-.32,.96-.26,1.28,.14h0c.31,.39,.25,.95-.14,1.26-1.24,1.03-2.41,2.12-3.49,3.24-1.44,1.5-2.71,3.08-3.8,4.68-.28,.41-.82,.53-1.24,.27h0c-.43-.27-.55-.84-.27-1.26Z"/><path class="cls-3" d="M383.5,5.9c3.96-1.87,8.22-3.33,12.66-4.34,6.3-1.43,12.79-1.88,18.84-1.31,.5,.05,.86,.5,.81,1h0c-.06,.49-.49,.84-.99,.79-5.85-.55-12.14-.11-18.26,1.28-4.31,.98-8.44,2.4-12.28,4.21-.45,.21-.98,.03-1.2-.41-.22-.45-.04-1,.42-1.22Z"/></g><path class="cls-2" d="M397.36,6.83c-20.52,4.67-34.66,19.45-31.57,33.01,2.53,11.15,14.38,11.29,29.9,8.4,1.95-.36,3.96,.49,4.95,2.21,1.59,2.75,4.32,4.81,7.69,5.41,1.86,.34,3.7,.19,5.38-.35,1.46-.47,1.74-2.47,.44-3.3-.03-.02-.07-.04-.1-.07-3.33-2.2-2.45-7.34,1.41-8.35,15.95-4.16,27.25-9.39,24.64-20.85-3.08-13.57-22.22-20.78-42.74-16.11Z"/><path class="cls-3" d="M413,56.64c-1.58,.36-3.23,.4-4.83,.11-3.5-.63-6.53-2.77-8.31-5.85-.78-1.36-2.39-2.07-4-1.77-14.39,2.68-28.1,3.43-30.94-9.08-3.19-14.03,11.28-29.32,32.25-34.09,20.97-4.77,40.63,2.76,43.82,16.79,2.89,12.71-10.45,18.05-25.29,21.92-1.45,.38-2.5,1.54-2.75,3.02-.24,1.47,.37,2.89,1.6,3.7l.09,.06c.89,.57,1.36,1.59,1.22,2.66-.14,1.07-.86,1.94-1.88,2.26-.32,.1-.65,.19-.98,.27Zm-15.44-48.93c-20,4.55-33.86,18.87-30.89,31.93,2.03,8.92,10.39,11.15,28.85,7.71,2.36-.44,4.73,.62,5.89,2.64,1.51,2.62,4.09,4.44,7.07,4.98,1.65,.3,3.36,.19,4.94-.32,.52-.17,.62-.64,.64-.78,.02-.14,.04-.61-.41-.9l-.11-.07c-1.83-1.21-2.75-3.32-2.39-5.5,.36-2.2,1.92-3.92,4.07-4.48,16.14-4.21,26.4-9.19,23.99-19.78-2.97-13.06-21.66-19.98-41.66-15.43Z"/></g></g><path class="cls-3" d="M399.77,27.88c.45-.78,1.35-.93,1.65-.93,.54,0,1.71,.42,1.71,1.29,0,.15-.21,.81-.24,.93-.06,.24-.06,.3-.06,.87,0,1.11,.12,7.15,.12,7.39,0,.54,0,.84-.54,1.23-.48,.39-1.23,.57-1.62,.57-.6,0-1.29-.18-1.26-1.17h-3.85c-.06,1.26-.96,1.92-2.1,1.92-.69,0-1.26-.3-1.26-1.05s.24-7.36,.3-8.74c-.78,.36-2.88,1.26-4.39,1.26-.21,0-.66,0-.66-.27,0-.18,.09-.21,1.02-.69,.39-.18,3.4-1.71,7.63-5.62h-3.09c-.72,0-1.38,0-1.89,.09-.27,.06-1.44,.45-1.71,.45-.63,0-.81-.42-.81-.87,0-.75,.72-1.32,1.23-1.32,.24,0,1.17,.18,1.38,.18l3.46,.06-.03-3.18-1.74,.03c-.3,0-1.53,.36-1.8,.36-.42,0-.69-.21-.69-.63,0-.51,.33-1.29,1.2-1.29,.18,0,.99,.15,1.14,.15h1.8c0-.72,0-1.29-.09-2.19-.51-.21-.63-.54-.63-.72,0-1.02,1.83-2.04,2.82-2.04,.48,0,1.41,.24,1.41,1.2,0,.06-.09,.69-.12,.84-.09,.93-.12,1.2-.21,2.91h.45c.18-.48,.54-.87,1.02-.87s.96,.51,1.17,.96c.24-.57,.36-.81,.72-1.71,.03-.48,.06-1.59,1.5-1.59,1.05,0,2.07,.84,2.07,1.68,0,1.35-2.25,4.51-3.55,6.1h1.2c.54-.81,.99-.9,1.2-.9,.66,0,1.71,.72,1.71,1.56,0,.75-.51,.75-1.08,.75h-4.27c-.96,.99-1.83,1.77-3.33,3h3.09Zm-.15,1.35h-3.55c-.21,0-.42,.09-.42,.33v2.55h3.97v-2.88Zm0,4.24h-3.97v3.18h3.97v-3.18Zm-1.77-13.16l-.12,2.85c.48-.54,.9-1.05,2.04-2.85h-1.92Zm11.24-2.25c-.33,0-.45,.39-.45,.6v8.53c0,1.86,.36,10.25,.36,11.72,0,1.59-1.41,2.49-2.19,2.49-.27,0-1.53-.33-1.53-1.32,0-.93,.15-4.99,.18-5.83,.18-5.02,.21-9.73,.21-14.09,0-.33,0-1.74-.09-1.92-.09-.15-.6-.78-.6-.96,0-.78,1.77-1.8,2.43-1.8,.24,0,1.08,.09,1.44,1.17h2.55c.57-.75,1.35-1.2,1.83-1.2,.84,0,2.4,.9,2.4,2.07,0,.48-.12,.63-1.23,1.92-.78,.93-2.61,4.18-2.61,4.48,0,.21,.09,.27,1.14,1.05,2.43,1.8,3.85,4.45,3.85,6.82,0,2.82-1.89,4.51-3.82,4.51-1.53,0-3.91-1.68-3.91-2.1,0-.24,.18-.24,.27-.24,.06,0,.9,.06,1.05,.06,1.86,0,2.64-1.05,2.64-2.92,0-2.43-.9-3.46-1.8-4.48-1.5-1.74-1.68-1.95-1.68-2.28,0-.39,1.53-6.25,1.53-6.28h-1.98Z"/></g></g><g><g><path class="cls-1" d="M625.16,58.99c-2.65,1.73-5.4,3.26-8.33,4.44-2.07,.84-4.19,1.48-6.39,1.89-2.46,.45-4.89,1.04-7.36,1.33-3.67,.43-7.36,.48-11.05,.13-2.31-.21-4.55-.67-6.6-1.83-.41-.23-.85-.42-1.3-.54-.61-.17-.95,.06-1,.7-.08,.94-.08,1.88-.16,2.81-.05,.56,.19,.93,.6,1.24,.95,.72,2.01,1.22,3.19,1.45,2.77,.53,5.59,.78,8.41,.92,4.99,.25,9.88-.29,14.75-1.44,4.79-1.13,9.32-2.83,13.56-5.32,.78-.46,1.6-.86,2.47-1.32,.11-.93-.22-3.86-.57-4.61-.1,.06-.17,.1-.23,.13Z"/><path class="cls-1" d="M587.06,64.2s.09,.03,.13,.05c2.33,.85,4.77,1.09,7.21,1.17,3.49,.12,6.98,.1,10.42-.53,4.33-.79,8.7-1.49,12.71-3.48,1.06-.52,2.11-1.08,3.08-1.57-.07-.48-.14-.84-.17-1.2-.06-1.14,.12-2.25,.51-3.33,.09-.25,.12-.62,0-.82-.36-.62-.78-1.22-1.24-1.77-1.43-1.67-3.31-2.76-5.22-3.81-1.28-.71-2.71-.9-4.18-1.28,.07,.13,.1,.19,.13,.23,1.17,1.3,1.97,2.82,2.83,4.33,.28,.49,.18,.97-.21,1.2-.39,.21-.82,.06-1.1-.42-.36-.59-.69-1.2-1.04-1.79-.82-1.37-1.77-2.62-3.05-3.61-.83-.64-1.78-.63-2.77-.63,.04,.1,.05,.14,.07,.18,1.56,2.35,2.44,4.97,3.11,7.68,.17,.71,0,1.17-.5,1.28-.49,.12-.78-.21-1.01-.92-.53-1.67-1.03-3.36-1.7-4.98-.41-1-1.1-1.89-1.7-2.81-.19-.29-.55-.52-.89-.27-.29,.21-.55,.5-.52,.96,.13,1.43,.22,2.88,.31,4.32,.03,.52-.28,.86-.72,.87-.43,.02-.75-.3-.8-.81-.04-.5-.06-1.01-.1-1.51-.09-1.15-.18-2.31-.28-3.46-.42,0-.69,.1-.77,.51-.06,.3-.21,.59-.25,.9-.2,1.68-.37,3.36-.54,5.05-.06,.56-.31,.9-.76,.9-.46,0-.77-.36-.78-.93,0-.29,0-.57,.03-.85,.14-1.51,.29-3.02,.43-4.53-.57,.15-.97,.62-1.23,1.13-.61,1.2-1.21,2.42-1.66,3.68-.66,1.82-.86,3.75-1.03,5.68-.06,.59-.39,.91-.85,.85-.44-.06-.71-.44-.67-.97,.18-2.62,.63-5.17,1.62-7.61,.03-.07,.04-.15,.06-.3-.12,.1-.19,.13-.25,.19-3.59,3.33-6.21,7.24-7.21,12.12-.15,.71-.25,.61,.52,.92Z"/><path class="cls-1" d="M627.81,58.72c-.25,.08-.7-.02-.63,.5,.08,.59,.13,1.18,.19,1.78,.05,.61,.08,1.23,.13,1.85,.06,0,.12,0,.18,0,.13-1.24,.29-2.49,.4-3.74,.02-.17,.05-.48-.28-.39Z"/><path class="cls-1" d="M635.54,92.7c-.65-3.29-1.17-6.6-1.86-9.88-.95-4.54-1.99-9.06-3-13.59-.46-2.06-.95-4.11-1.43-6.17-.03,0-.07,0-.1,.02-.03,.15-.08,.3-.08,.46,0,.56-.02,1.13,.02,1.69,.25,4.76,.48,9.53,.75,14.29,.24,4.29,.47,8.58,.77,12.86,.16,2.33,.45,4.65,.7,6.98,.02,.17,.07,.36,.17,.47,1.36,1.55,2.73,3.07,4.11,4.6,.16,.18,.34,.33,.6,.58,.28-1.47,.56-2.82,.76-4.19,.1-.62,.11-1.29-.02-1.9-.41-2.08-.96-4.12-1.37-6.2Z"/><path class="cls-3" d="M613.2,119.49c-1.44,.23-2.85,.51-4.27,.56-1.41,.06-2.83-.1-4.26-.21,2.9,.49,5.74,.36,8.53-.35Z"/><path class="cls-3" d="M613.34,121.86c.43-.41,.67-.91,.56-1.59,.03,.66-.15,1.17-.56,1.59Z"/><path class="cls-3" d="M604.25,121.12c0,.19,.03,.35,.09,.5-.04-.12-.07-.24-.07-.38,0-.04,0-.08-.01-.12Z"/><path class="cls-3" d="M604.02,119.8c.03,.15,.07,.3,.1,.45-.02-.14-.05-.29-.07-.45,0,0-.02,0-.03,0Z"/><path class="cls-3" d="M613.85,119.39s-.05,0-.07,.01c.04,.15,.06,.29,.09,.43,0-.15,0-.29-.01-.44Z"/><path class="cls-3" d="M617.35,85.47c.37,.15,.68,.03,.91-.28,.1-.14,.16-.31,.21-.47,.38-1.28-.06-2.67-1.22-3.5-1.53-1.09-3.24-1.57-5.12-1.23-2.19,.4-3.1,1.53-3.08,3.75-.08,.02-.14,.03-.21,.04-2.13,.14-4.26,.28-6.38,.44-.32,.02-.43-.13-.55-.37-1.56-3.23-5.55-3.54-8.17-1.73-.47,.33-.83,.77-.9,1.38-.06,.47,.17,.84,.55,.92,.44,.09,.68-.13,.9-.5,.17-.29,.42-.6,.72-.76,1.12-.6,2.3-.77,3.55-.39,1.24,.37,2.43,1.95,2.4,3.24,0,.15-.03,.31-.07,.46-.46,1.6-2.44,2.23-3.83,1.22-.14-.1-.26-.22-.4-.33-.39-.28-.79-.28-1.07,.02-.29,.3-.29,.77,.05,1.1,1.12,1.1,2.45,1.53,3.97,1.09,1.54-.45,2.54-1.46,2.86-3.06,.05-.24,.05-.49,.08-.8,1.25-.08,2.47-.17,3.69-.24,.99-.06,1.98-.05,2.96-.14,.37-.04,.59,0,.83,.31,1.09,1.39,2.56,1.91,4.28,1.8,.18-.01,.38-.06,.54-.14,.31-.15,.48-.41,.42-.76-.06-.37-.29-.59-.67-.62-.28-.02-.56,0-.85,0-1.14,0-2.08-.47-2.67-1.42-1-1.61-.56-2.27,.83-2.82,1.14-.44,2.23-.19,3.3,.19,1.53,.55,1.92,1.2,1.69,2.79-.06,.39,.08,.69,.45,.84Z"/><path class="cls-3" d="M589.85,85.22c-.2-.34-.52-.44-.89-.3-.38,.15-.53,.44-.44,.83,.07,.29,.18,.57,.31,.83,.99,1.99,1.99,3.97,2.99,5.96,.69,1.35,1.38,2.7,2.1,4.04,.25,.47,.72,.58,1.12,.35,.4-.23,.51-.67,.25-1.14-.14-.26-.32-.5-.48-.75,1.24,.78,2.4,1.63,3.31,2.81,1.51,1.96,3.08,3.89,4.63,5.82,.39,.48,.81,.56,1.18,.28,.38-.29,.4-.76,.06-1.26-.1-.14-.21-.28-.32-.41-.96-1.2-1.93-2.39-2.9-3.59-.1-.12-.19-.25-.34-.46,.55,.15,.98,.28,1.42,.39,.4,.1,.72-.02,.87-.43,.14-.38,.06-.73-.33-.92-.45-.22-.9-.44-1.37-.61-2.05-.76-3.92-1.79-5.52-3.3-1.9-1.78-3.35-3.88-4.54-6.18-.34-.67-.73-1.31-1.12-1.96Z"/><path class="cls-3" d="M586.04,80.27c-.16-.59-.56-.83-.98-.7-.44,.14-.59,.54-.43,1.13,.08,.29,.17,.57,.23,.86,.69,3.48,1.38,6.95,2.07,10.43,.1,.52,.2,1.04,.36,1.55,.13,.4,.59,.65,.93,.55,.37-.11,.53-.37,.5-.75,0-.11,0-.22-.03-.33-.65-3.27-1.3-6.55-1.96-9.82-.2-.98-.43-1.95-.69-2.92Z"/><path class="cls-3" d="M613.19,89.81c-.48-.19-.95-.39-1.43-.58-.26-.1-.52-.19-.67-.24-.53,0-.81,.18-.9,.56-.09,.39,.08,.68,.42,.85,.53,.26,1.08,.5,1.62,.72,.2,.08,.42,.13,.63,.16,.47,.05,.81-.19,.89-.57,.08-.39-.14-.73-.58-.9Z"/><path class="cls-3" d="M602.57,89.92c-.42,.25-.78,.62-1.15,.95-.4,.36-.46,.78-.19,1.12,.28,.35,.75,.39,1.17,.05,.4-.32,.79-.66,1.16-1.02,.13-.13,.19-.34,.32-.58-.15-.21-.26-.5-.44-.56-.27-.08-.65-.1-.87,.04Z"/><path class="cls-3" d="M604.04,119.74s0,.04,0,.06c.21,.01,.41,.03,.62,.05-.21-.04-.42-.06-.63-.11Z"/><path class="cls-3" d="M604.12,120.25c.05,.31,.1,.6,.13,.87,0-.04,0-.08,0-.12,0-.25-.06-.5-.12-.75Z"/><path class="cls-3" d="M609.95,123.09c-1.51,.1-3-.03-4.45-.52-.57-.2-.99-.47-1.17-.95,.13,.44,.45,.72,.92,.9,1.39,.51,2.82,.72,4.29,.64,.99-.06,1.97-.16,2.87-.63,.39-.2,.69-.42,.92-.66-.14,.13-.29,.25-.46,.37-.89,.6-1.89,.81-2.93,.87Z"/><path class="cls-3" d="M613.9,120.26c0-.14-.02-.28-.04-.43,0,.12,0,.24,.03,.35,0,.03,0,.05,0,.08Z"/><path class="cls-3" d="M613.76,119.35c-.19,.05-.38,.1-.56,.14,.19-.03,.38-.06,.58-.09,0-.02,0-.03-.01-.05Z"/><path class="cls-3" d="M650.42,95.3c-.24-2.09-1.91-3.99-3.43-5.33-3.41-2.99-7.75-4.52-11.53-6.93-.05-.03-.1-.05-.15-.07l-.43-1.87c-1.5-6.67-3-13.33-4.53-20-.23-1-.48-2.01-.86-2.96-.36-.88-.95-1.09-1.92-.97-.39,.06-.82,.42-1.13-.16-.02-.03-.12-.02-.18-.04-.55-.21-1.03,0-1.49,.35-.81-1.16-1.62-2.25-2.36-3.39-.98-1.53-2.04-2.98-3.54-4.04-1.9-1.33-3.81-2.65-6.12-3.23-3.07-.78-6.14-1.38-9.34-1.17-.49,.03-.98,.07-1.47,.11-.07-.91,.13-1.2,.93-1.43,.45-.13,.9-.25,1.35-.42,1.61-.63,2.34-1.85,2.14-3.55-.06-.59-.41-.95-.87-.9-.45,.05-.7,.43-.65,1.02,.08,1.14-.26,1.67-1.36,2.05-.44,.15-.9,.27-1.35,.4-.89,.27-1.46,.86-1.65,1.76-.09,.43-.1,.86-.16,1.35-.47,.11-1.01,.15-1.46,.37-1.18,.58-2.35,1.18-3.47,1.87-4.11,2.53-6.87,6.21-8.95,10.49-.07,.14-.12,.3-.21,.41-.94,1.09-1.59,2.33-2.23,3.6-.06,.11-.21,.23-.33,.25-1.24,.18-1.88,.76-2.03,2.03-.11,.99-.1,2.01-.19,3-.1,1.13,.42,1.93,1.29,2.54,.29,.21,.36,.45,.41,.78,.17,1.14,.33,2.29,.58,3.42,.04,.18,.09,.35,.14,.52-2.07,.86-4.18,1.83-5.62,3.6-.89,1.09-1.43,2.39-1.65,3.75-.98,.58-2,1.11-2.93,1.76-.99,.7-1.94,1.45-2.93,2.15-1.21,.86-2.5,1.59-3.74,2.42-1.92,1.28-4.67,2.9-5.21,5.32-.61,2.74,.28,5.75,1.04,8.36,.28,.98,1.81,.56,1.53-.42-.38-1.3-.74-2.62-.96-3.96-.2-1.25-.4-2.77,.04-3.99,.38-1.06,1.56-1.88,2.4-2.56,1.08-.87,2.28-1.62,3.46-2.34,1.88-1.14,3.56-2.53,5.38-3.76,.58-.39,1.2-.74,1.81-1.09,.02,.44,.06,.88,.14,1.31,.52,2.77,2.23,5.21,3.78,7.5,1.6,2.36,3.33,4.63,5.16,6.81-.08,.23-.15,.47-.21,.71-.17,.63-.54,1.02-1.13,1.29-.27,.12-.53,.25-.79,.39-.02-.04-.02-.08-.04-.13-.5-.92-.94-1.95-1.57-2.78-.54-.72-1.3-.91-2.16-1.01-1.76-.21-3.53-.12-5.27,.22-3.45,.68-6.66,2.44-9.09,4.97-.03,0-.05,0-.08-.01-1.36-.2-2.61-.05-3.93,.32-.98,.27-.56,1.8,.42,1.53,.68-.19,1.36-.36,2.06-.38,.25,0,.5,0,.75,.03,.06,0,.12,.01,.18,.02,0,0,.02,0,.03,0,.13,.02,.26,.04,.39,.06,1.59,.24,3.28,.34,4.86-.04,.99-.24,.57-1.77-.42-1.53-.69,.17-1.42,.2-2.13,.19,1.9-1.66,4.17-2.85,6.63-3.45,1.41-.35,2.86-.49,4.31-.44,.69,.03,1.8-.05,2.25,.57,.56,.76,.95,1.72,1.41,2.55,0,.02,.02,.02,.03,.04-.07,.04-.15,.08-.22,.12-.53,.29-.66,.82-.32,1.21,.31,.36,.7,.34,1.08,.16,1.03-.5,2.05-1.01,3.08-1.54,.55-.29,.9-.74,1.05-1.36,.1-.44,.26-.87,.4-1.31,.09-.26,.24-.37,.53-.32,.67,.12,1.33,.21,2,.33,1.7,.33,3.41,.68,5.18,.45,.19-.02,.4,.08,.59,.12-.16,.2-.32,.29-.49,.36-1.08,.47-2.16,.91-3.22,1.43-.34,.17-.66,.48-.86,.8-.22,.35-.12,.78,.17,1.09,.29,.3,.6,.14,.91,0,.59-.29,1.2-.58,1.87-.9-.06,.23-.08,.36-.12,.49-.51,1.63-1.05,3.25-1.5,4.89-.29,1.06-.73,1.92-1.85,2.26-.13,.04-.24,.14-.36,.21-.82,.52-1.65,.55-2.47,0-.56-.39-1.12-.37-1.67-.03-.91,.55-1.82,1.1-2.73,1.67-.17-.72-.4-1.44-.73-2.15-1.13-2.43-3.01-4.68-2.84-7.5,.06-1.02-1.53-1.02-1.59,0-.16,2.74,1.35,5.03,2.58,7.34,.66,1.25,1.17,2.53,1.32,3.94,.16,1.39,.08,2.79,0,4.18-.05,1.02,1.53,1.02,1.59,0,.08-1.43,.1-2.84-.05-4.21,0,0,0,0,0,0,.87-.49,1.74-1,2.6-1.51,.48-.29,.95-.29,1.42,0,.16,.1,.33,.17,.49,.28,.53,.34,1.05,.32,1.6,.03,.87-.45,1.75-.9,2.65-1.32,.63-.3,1.01-.75,1.17-1.43,.08-.36,.19-.71,.31-1.15,.09,.18,.14,.26,.17,.35,.58,1.67,1.43,3.2,2.43,4.65,1.16,1.7,2.65,3,4.63,3.68,.34,.12,.71,.21,1,.4,.25,.17,.51,.44,.58,.72,.17,.66,.25,1.35,.32,2.04,.1,.97,.52,1.72,1.47,2.11,.19,.08,.36,.17,.55,.25,1.96,.78,3.99,.9,6.06,.63,1.57-.21,2.94-.83,4.03-2.02,.44-.48,.67-1.01,.65-1.66,0-.61,0-1.23-.06-1.84-.06-.53,.12-.84,.61-1.07,1.04-.48,1.91-1.2,2.58-2.14,1.84-2.56,2.45-5.48,2.34-8.58-.02-.64-.13-1.28-.08-1.92,.06-.65-.07-1.19-.56-1.6-1.63-1.35-3.55-1.94-5.64-2.05-.37-.02-.59,.17-.65,.54-.06,.36,.04,.62,.42,.72,.2,.05,.4,.1,.59,.17,1.25,.43,2.51,.85,3.75,1.31,.48,.18,.51,.48,.1,.75-.5,.33-1.01,.71-1.58,.9-1.36,.45-2.76,.8-4.14,1.2-.37,.11-.52-.04-.5-.37,.02-.63,.02-1.26,.13-1.87,.28-1.56,.32-3.09-.3-4.57-.28-.67-.59-1.32-.9-1.96-.68-1.41-.42-2.66,.58-3.82,.28-.32,.52-.71,.67-1.12,.28-.77-.13-1.62-.9-2.06-.73-.4-1.64-.3-2.16,.26-.25,.28-.36,.59-.17,.94,.18,.35,.49,.4,.84,.36,.32-.05,.63-.1,.99-.15-.21,.86-.8,1.2-1.5,1.42-1,.31-2.02,.21-3.03,.08-1.09-.14-2.03-.51-2.52-1.62-.08-.17-.44-.32-.66-.32-.56,.03-.85,.65-.55,1.17,.23,.4,.56,.75,.78,1.17,.13,.24,.24,.57,.17,.82-.45,1.68-.22,3.25,.62,4.76,.32,.56,.68,1.1,.93,1.69,.2,.46,.42,1.01,.32,1.47-.19,.92-.59,1.81-.92,2.77-2.2-1.61-4.28-3.14-6.38-4.68,.07-.08,.13-.13,.18-.19,.54-.52,.59-.76,.35-1.36-.25-.6-.57-1.09-1.33-1.04-.39,.03-.78,.04-1.17,.07-.62,.06-1.17-.06-1.67-.46-1.2-.96-2.42-1.9-3.63-2.85-.36-.29-.72-.61-1.13-.86-.57-.35-1.25,0-1.19,.63,.02,.27,.24,.58,.45,.77,.63,.54,1.31,1.03,1.96,1.55,.56,.44,1.11,.89,1.67,1.34-.03,.05-.06,.1-.09,.14-.36-.16-.75-.28-1.09-.48-1.16-.75-2.31-1.51-3.46-2.27-.36-.25-.73-.49-1.11-.71-.4-.22-.82-.12-1.05,.21-.25,.37-.2,.78,.17,1.09,.14,.12,.31,.21,.46,.32,.39,.26,.77,.52,1.27,.85-.54,0-.94,.02-1.34,0-.23,0-.42,.04-.58,.13-1.48-1.78-2.89-3.61-4.2-5.51-1.38-2-2.91-4.1-3.69-6.42-.72-2.15-.64-4.61,.71-6.51,1.27-1.78,3.4-2.71,5.37-3.52,.2,.25,.41,.49,.68,.69,.03,.02,.04,.07,.06,.13,0,0,.54,.95,.78,1.21,.11,.24,.17,.4,.25,.55,.23,.48,.63,.67,1.03,.49,.36-.16,.5-.57,.34-1.05-.07-.22-.16-.43-.24-.64,.13-.09,.22-.16,.31-.21,1.2-.84,1.84-1.94,1.71-3.45-.05-.54,0-1.09,0-1.7,11.32,1.53,22.15-.15,32.45-5.15,0,.09,.02,.18,.03,.28,.28,1.82,.53,3.65,.84,5.48,.17,1.01,.83,1.66,1.7,2.13,.31,.17,.66,.26,1.01,.4,0,.07,.02,.17,0,.25-.24,1.15-.43,2.31-.71,3.45-.52,2.05-1.5,3.91-2.39,5.81-1.24,2.63-2.76,5.09-4.9,7.06-1.55,1.43-3.31,2.63-4.98,3.94-.22,.17-.46,.33-.66,.52-.25,.25-.26,.56-.09,.86,.18,.3,.44,.44,.79,.35,.2-.05,.4-.1,.63-.17-.06,.24-.1,.42-.14,.6-.1,.51,.1,.9,.51,1.03,.37,.11,.7-.07,.93-.53,.22-.45,.48-.89,.63-1.36,.6-2.06,2.44-3.02,3.84-4.38,.02,.13,.02,.23,0,.32-.44,1.98-.89,3.96-1.33,5.95,0,.04-.02,.09-.02,.13-.06,.47,.21,.88,.63,.96,.46,.08,.67-.22,.77-.59,.3-1.17,.62-2.33,.84-3.51,.71-3.88,2.1-7.52,3.99-10.97,.07-.13,.25-.22,.37-.32,.04,.15,.12,.31,.11,.46-.16,2.36-.34,4.72-.5,7.09-.16,2.52-.32,5.04-.44,7.56-.05,1.03,.02,2.07,.08,3.1,.02,.35,.17,.63,.61,.63,.4,0,.55-.22,.61-.57,.02-.11,.06-.21,.06-.32,.06-.85,.12-1.71,.18-2.56,.16-.02,.31-.08,.42-.21,1.38-1.62,2.69-3.29,3.94-5.01,.05,.56,.1,1.12,.15,1.68,.08,.97,.12,1.94,.24,2.9,.04,.34,.21,.71,.44,.97,.77,.89,1.59,1.74,2.38,2.61,.96,1.05,1.9,2.12,2.88,3.17,.75,.82,1.73,.59,2-.47,.3-1.18,.55-2.38,.81-3.57,.36-1.69,.4-3.33,0-5.06-.94-4.12-1.67-8.29-2.49-12.45,0,0,0-.01,0-.02,3.19,1.86,6.68,3.25,9.58,5.57,1.4,1.12,3.17,2.79,3.52,4.63,.43,2.29-.92,4.72-1.5,6.88-.26,.99,1.27,1.41,1.53,.42,.63-2.36,1.86-4.74,1.57-7.25Zm-41.35,.83c.2-.03,.4-.04,.69-.06-.42,1.47,.2,2.69,.83,3.81,.91,1.63,1.05,3.28,.74,5.07-.16,.88-.12,1.8-.17,2.77-.37,.08-.82,.19-1.28,.27-.32,.06-.38-.17-.34-.41,.11-.6,.16-1.22,.36-1.79,.77-2.2,.33-4.23-.76-6.21-.38-.67-.67-1.4-.91-2.14-.26-.79,.02-1.17,.85-1.3Zm-3.04,3.36c-.57-.97-.61-2.02-.55-3.1,.02-.38,.3-.55,.71-.48,.35,.06,.59,.12,.48,.62-.22,1.02,.08,1.98,.56,2.89,.37,.69,.78,1.36,1.09,2.08,.48,1.09,.55,2.2,.2,3.38-.33,1.09-.43,2.26-.63,3.42-.76-.09-1.37-1.1-1.13-2.02,.06-.22,.14-.44,.26-.65,.83-1.47,.78-2.95,0-4.42-.31-.58-.64-1.15-.97-1.71Zm-1.99,20.24c.21,.04,.42,.07,.63,.11,1.43,.11,2.85,.27,4.26,.21,1.42-.06,2.83-.33,4.27-.56,.19-.05,.38-.09,.56-.14,0,.02,0,.03,.01,.05,.02,0,.05,0,.07-.01,0,.14,0,.29,.01,.44,.02,.15,.04,.3,.04,.43,.11,.68-.13,1.18-.56,1.59-.23,.24-.54,.46-.92,.66-.9,.47-1.88,.58-2.87,.63-1.47,.08-2.9-.13-4.29-.64-.48-.17-.79-.46-.92-.9-.05-.14-.08-.31-.09-.5-.02-.28-.07-.56-.13-.87-.04-.15-.07-.3-.1-.45,0,0,.02,0,.03,0,0-.02,0-.04,0-.06Zm-.66-11.13s-.03,.09-.06,.13c-3.03-.07-6.04-.42-9.08-.9,.43-1.38,.87-2.81,1.35-4.34,2.65,1.74,5.22,3.42,7.79,5.11Zm24.44-49.9c.32-.1,.3,.21,.28,.39-.12,1.25-.27,2.5-.4,3.74-.06,0-.13,0-.18,0-.05-.62-.08-1.24-.13-1.85-.06-.59-.11-1.18-.19-1.78-.07-.52,.37-.42,.63-.5Zm-1.02,5.81c.57,.1,.75,.44,.78,.91,.1,1.67,.22,3.34,.3,5.02,.07,1.4,.13,2.81,.2,4.22v.06l.04,.78c-.3-.13-.61-.26-.91-.38,0-1.77-.02-3.54-.06-5.31-.05-1.62-.22-3.25-.34-4.87,0-.12,0-.25,0-.42Zm-40.25-1.24c1-4.87,3.61-8.79,7.21-12.12,.06-.06,.13-.1,.25-.19-.02,.15-.03,.23-.06,.3-.99,2.44-1.43,4.99-1.62,7.61-.04,.54,.23,.92,.67,.97,.46,.06,.79-.25,.85-.85,.17-1.93,.37-3.85,1.03-5.68,.45-1.26,1.05-2.47,1.66-3.68,.26-.52,.66-.98,1.23-1.13-.14,1.51-.29,3.02-.43,4.53-.02,.28-.03,.56-.03,.85,0,.57,.32,.93,.78,.93,.45,0,.7-.34,.76-.9,.17-1.69,.34-3.37,.54-5.05,.03-.31,.18-.6,.25-.9,.08-.41,.35-.52,.77-.51,.1,1.16,.19,2.31,.28,3.46,.04,.5,.06,1.01,.1,1.51,.05,.51,.37,.82,.8,.81,.44-.02,.75-.36,.72-.87-.09-1.44-.18-2.89-.31-4.32-.04-.46,.23-.75,.52-.96,.33-.25,.7-.02,.89,.27,.6,.92,1.29,1.81,1.7,2.81,.67,1.62,1.17,3.31,1.7,4.98,.23,.71,.52,1.04,1.01,.92,.49-.11,.67-.56,.5-1.28-.67-2.71-1.55-5.33-3.11-7.68-.02-.04-.03-.09-.07-.18,1,0,1.94-.02,2.77,.63,1.28,.98,2.24,2.24,3.05,3.61,.35,.59,.68,1.2,1.04,1.79,.29,.48,.71,.63,1.1,.42,.4-.22,.49-.71,.21-1.2-.86-1.51-1.66-3.03-2.83-4.33-.04-.04-.06-.1-.13-.23,1.47,.37,2.89,.56,4.18,1.28,1.9,1.05,3.78,2.14,5.22,3.81,.47,.55,.88,1.15,1.24,1.77,.12,.21,.09,.57,0,.82-.39,1.08-.56,2.19-.51,3.33,.02,.36,.1,.73,.17,1.2-.97,.49-2.01,1.05-3.08,1.57-4.01,1.99-8.38,2.69-12.71,3.48-3.44,.63-6.94,.65-10.42,.53-2.44-.07-4.88-.32-7.21-1.17-.05-.02-.1-.03-.13-.05-.77-.31-.67-.21-.52-.92Zm36.95,1.51c-4.24,2.49-8.77,4.19-13.56,5.32-4.87,1.15-9.77,1.7-14.75,1.44-2.82-.14-5.64-.39-8.41-.92-1.18-.23-2.24-.73-3.19-1.45-.41-.32-.65-.68-.6-1.24,.08-.94,.08-1.88,.16-2.81,.05-.63,.39-.87,1-.7,.45,.12,.89,.31,1.3,.54,2.05,1.16,4.29,1.62,6.6,1.83,3.69,.34,7.38,.29,11.05-.13,2.47-.29,4.9-.88,7.36-1.33,2.2-.41,4.32-1.05,6.39-1.89,2.93-1.18,5.68-2.71,8.33-4.44,.06-.04,.13-.07,.23-.13,.35,.75,.68,3.69,.57,4.61-.87,.46-1.69,.86-2.47,1.32Zm1.63,33.35c.09-1.65,.17-3.3,.27-4.95,.17-3.05,.4-6.1,.52-9.16,.03-.66,.11-1.3,.25-1.93l.22-.89c.43-1.55,.63-3.22,.73-4.4,.36,.16,.72,.32,1.08,.49l.16,3.26,.08,1.7c.12,2.46,.25,4.91,.41,7.37,.07,1.08,.17,2.17,.26,3.25-1.25,1.81-2.59,3.56-3.98,5.26Zm11.79,.75c.13,.61,.11,1.28,.02,1.9-.2,1.36-.48,2.71-.76,4.19-.26-.25-.44-.4-.6-.58-1.37-1.53-2.75-3.05-4.11-4.6-.1-.11-.16-.3-.17-.47-.25-2.32-.54-4.64-.7-6.98-.3-4.28-.53-8.58-.77-12.86-.27-4.76-.5-9.53-.75-14.29-.03-.56-.02-1.13-.02-1.69,0-.16,.05-.31,.08-.46,.03,0,.07,0,.1-.02,.48,2.06,.98,4.11,1.43,6.17,1.01,4.53,2.05,9.05,3,13.59,.69,3.28,1.21,6.59,1.86,9.88,.41,2.08,.96,4.12,1.37,6.2Z"/></g><g><g><path class="cls-3" d="M550.38,11.35c20.97-4.77,40.63,2.76,43.82,16.79,2.89,12.71-10.45,18.05-25.29,21.92-1.45,.38-2.5,1.54-2.75,3.02-.24,1.47,.37,2.89,1.6,3.7l.09,.06c.89,.57,1.36,1.59,1.22,2.66-.14,1.07-.86,1.94-1.88,2.26-.32,.1-.65,.19-.98,.27-1.58,.36-3.23,.4-4.83,.11-3.5-.63-6.53-2.77-8.31-5.85-.78-1.36-2.39-2.07-4-1.77-14.39,2.68-28.1,3.43-30.94-9.08-3.19-14.03,11.28-29.32,32.25-34.09Z"/><g><g><path class="cls-3" d="M521.42,21.2c1.15-1.7,2.49-3.35,4-4.94,1.12-1.17,2.35-2.31,3.65-3.4,.39-.32,.96-.26,1.28,.14h0c.31,.39,.25,.95-.14,1.26-1.24,1.03-2.41,2.12-3.49,3.24-1.44,1.5-2.71,3.08-3.8,4.68-.28,.41-.82,.53-1.24,.27h0c-.43-.27-.55-.84-.27-1.26Z"/><path class="cls-3" d="M540.11,5.9c3.96-1.87,8.22-3.33,12.66-4.34,6.3-1.43,12.79-1.88,18.84-1.31,.5,.05,.86,.5,.81,1h0c-.06,.49-.49,.84-.99,.79-5.85-.55-12.14-.11-18.26,1.28-4.31,.98-8.44,2.4-12.28,4.21-.45,.21-.98,.03-1.2-.41-.22-.45-.04-1,.42-1.22Z"/></g><path class="cls-2" d="M553.97,6.83c-20.52,4.67-34.66,19.45-31.57,33.01,2.53,11.15,14.38,11.29,29.9,8.4,1.95-.36,3.96,.49,4.95,2.21,1.59,2.75,4.32,4.81,7.69,5.41,1.86,.34,3.7,.19,5.38-.35,1.46-.47,1.74-2.47,.44-3.3-.03-.02-.07-.04-.1-.07-3.33-2.2-2.45-7.34,1.41-8.35,15.95-4.16,27.25-9.39,24.64-20.85-3.08-13.57-22.22-20.78-42.74-16.11Z"/><path class="cls-3" d="M569.61,56.64c-1.58,.36-3.23,.4-4.83,.11-3.5-.63-6.53-2.77-8.31-5.85-.78-1.36-2.39-2.07-4-1.77-14.39,2.68-28.1,3.43-30.94-9.08-3.19-14.03,11.28-29.32,32.25-34.09,20.97-4.77,40.63,2.76,43.82,16.79,2.89,12.71-10.45,18.05-25.29,21.92-1.45,.38-2.5,1.54-2.75,3.02-.24,1.47,.37,2.89,1.6,3.7l.09,.06c.89,.57,1.36,1.59,1.22,2.66-.14,1.07-.86,1.94-1.88,2.26-.32,.1-.65,.19-.98,.27Zm-15.44-48.93c-20,4.55-33.86,18.87-30.89,31.93,2.03,8.92,10.39,11.15,28.85,7.71,2.36-.44,4.73,.62,5.89,2.64,1.51,2.62,4.09,4.44,7.07,4.98,1.65,.3,3.36,.19,4.94-.32,.52-.17,.62-.64,.64-.78,.02-.14,.04-.61-.41-.9l-.11-.07c-1.83-1.21-2.75-3.32-2.39-5.5,.36-2.2,1.92-3.92,4.07-4.48,16.14-4.21,26.4-9.19,23.99-19.78-2.97-13.06-21.66-19.98-41.66-15.43Z"/></g></g><path class="cls-3" d="M545.42,27.94c2.67-2.64,3.76-5.86,3.79-5.98,.39-1.17,.57-1.68,1.68-1.68,.24,0,.57,.12,.78,.21l-.03-.96c-1.23,0-2.37,.09-2.43,.09-.3,.03-1.56,.57-1.83,.57-.39,0-.87-.27-.87-.78,0-.6,.54-1.38,1.32-1.38,.12,0,.69,.15,.81,.15h3c0-.51-.06-1.71-.15-2.4-.06-.12-.45-.63-.45-.78,0-.78,1.83-1.65,2.7-1.65,.45,0,1.26,.18,1.26,.96,0,.12-.09,.78-.12,.9-.15,1.2-.24,2.46-.24,2.97h.81c.24-.36,.6-.9,1.17-.9,.72,0,1.65,.78,1.65,1.53s-.75,.72-1.11,.72h-2.52v1.62c.66,.99,1.62,1.77,3,2.61,.57,.33,.63,.39,.63,.6,0,.54-1.71,1.29-2.07,1.29-.39,0-.63,0-1.68-1.89,.03,.9,.21,5.5,.21,5.71,0,1.11-1.92,1.62-2.37,1.62-.6,0-1.14-.24-1.14-.9,0-.99,.27-5.35,.3-6.25-1.86,2.67-4.48,4.45-5.86,4.45-.06,0-.39,0-.39-.18l.15-.27Zm2.46,10.64c-.96,0-2.46-.45-2.46-1.59,0-1.02,.75-1.77,1.74-1.77,1.68,0,2.37,0,3.58-.54,.33-.15,2.01-1.11,2.04-1.11,.12,0,.39,.09,.39,.33,0,.84-1.86,4.69-5.29,4.69Zm24.07-.72c-1.77,2.91-2.97,3.03-4.18,3.03-1.29,0-3.97,0-7.36-.51-6.16-.96-6.55-2.97-6.55-4.42,0-.3,.06-1.71,.06-2.01,0-.09,0-1.05-.03-1.05-.06-.06-.42-.24-.48-.27-.06-.06-.12-.12-.12-.24,0-.9,1.92-1.71,2.64-1.71s1.23,.09,1.23,.9c0,.15,0,.3-.06,.66-.36,1.98-.51,2.85-.51,3.61,0,.87,0,1.74,5.02,1.74,3.21,0,5.23,0,8.53-1.26,.36-.15,2.16-.99,2.31-.99,.24,0,.45,.12,.45,.36,0,.54-.69,1.68-.96,2.16Zm-10.12-9.07c0,.6,0,.75-.48,1.11-.51,.39-1.17,.57-1.5,.57-.75,0-1.29-.33-1.29-1.08,0-1.08,.18-5.98,.18-6.97v-4.66c0-.21-.09-.3-.42-.63-.06-.06-.15-.18-.15-.33,0-.78,1.8-1.92,2.61-1.92,.48,0,.93,.24,1.08,.72h4.81c.39-.72,1.38-1.11,1.95-1.11,.75,0,1.95,.63,1.95,1.44,0,.18-.18,.99-.18,1.14l.03,4.84c0,1.11,.15,5.95,.15,6.97,0,.42,0,.72-.63,1.08-.54,.33-1.5,.57-2.01,.57-.84,0-1.17-.39-1.17-1.11v-.63h-4.93Zm-1.14,2.25c.72,0,1.71,.57,1.71,1.32,0,1.05-2.46,3.73-3.49,3.73-.48,0-.57-.3-.57-.57,0-.06,.54-3,.72-3.51,.36-.6,.93-.96,1.62-.96Zm6.07-14.09h-4.63c-.24,0-.3,.42-.3,.54v2.19h4.93v-2.73Zm0,4.06h-4.93v2.55h4.93v-2.55Zm0,3.91h-4.93v2.52h4.93v-2.52Zm-3.09,11.15c-.39,0-.63-.27-.63-.63,0-.24,.45-2.07,.57-2.55,.27-.96,.48-1.77,1.92-1.77,.96,0,1.98,.69,1.98,1.41,0,1.02-2.76,3.55-3.85,3.55Z"/></g></g><g><g><path class="cls-3" d="M796.52,104.4c.02-.56-.1-1.05-.52-1.42-1.73-1.5-3.79-2.13-6.03-2.23-.41-.02-.6,.29-.67,.66-.06,.37,.15,.59,.48,.7,.29,.09,.6,.13,.89,.24,1.2,.41,2.4,.82,3.59,1.28,.55,.21,.55,.46,.06,.82-.37,.26-.73,.59-1.15,.73-1.58,.51-3.18,.95-4.78,1.42-.29,.08-.44-.02-.42-.33,.05-.78,.05-1.58,.17-2.35,.29-1.75,.17-3.44-.65-5.05-.3-.59-.58-1.2-.83-1.82-.41-.97-.23-1.92,.25-2.82,.06-.11,.16-.21,.27-.27,1.36-.75,2.35-1.89,3.31-3.08,.15-.19,.42-.36,.66-.41,.85-.15,1.62-.48,2.2-1.09,.75-.81,1.5-1.64,2.14-2.54,.66-.93,.92-2.05,1.13-3.15,.1-.55-.13-.94-.57-1.04s-.82,.17-.97,.68c-.06,.17-.1,.35-.13,.52-.32,1.68-1.27,2.99-2.45,4.15-.54,.54-1.17,.87-1.94,.93-.49,.03-.84,.29-1.15,.67-.56,.69-1.15,1.37-1.76,2.03-.78,.86-1.79,1.32-2.94,1.4-.82,.06-1.66-.07-2.48-.06-2.16,.05-4.1-.5-5.72-2-.24-.22-.57-.4-.89-.48-1.43-.36-2.57-1.15-3.62-2.15-.69-.66-1.5-1.2-2.29-1.74-.49-.34-1-.2-1.23,.23-.21,.4-.03,.8,.44,1.15,.78,.59,1.57,1.17,2.29,1.82,1.11,1.01,2.33,1.78,3.79,2.16,.13,.04,.29,.08,.4,.17,1.13,.9,2.28,1.73,3.57,2.11-.05,.93-.16,1.78-.12,2.64,.05,1.13,.57,2.12,1.13,3.09,.34,.59,.71,1.19,.94,1.82,.49,1.43-.52,2.49-.93,3.75-2.24-1.63-4.4-3.21-6.58-4.8,.07-.07,.12-.13,.17-.19,.57-.56,.63-.79,.38-1.42-.34-.84-.66-1.09-1.43-1.09-.39,0-.78,.04-1.17,.07-.64,.06-1.22-.05-1.74-.47-1.08-.87-2.18-1.72-3.27-2.57-.54-.43-1.06-.87-1.63-1.26-.55-.38-1.17-.15-1.29,.47-.1,.48,.21,.76,.53,1.01,1.12,.89,2.24,1.76,3.34,2.64,.13,.1,.24,.22,.35,.32-.03,.05-.06,.09-.1,.13-.37-.17-.78-.31-1.13-.53-1.29-.82-2.57-1.69-3.84-2.53-.32-.21-.63-.42-.96-.59-.38-.21-.73-.13-1,.21s-.24,.71,.03,1.03c.13,.17,.32,.29,.49,.4,.44,.29,.88,.59,1.45,.96h-1.3c-.74,0-1.02,.18-1.28,.89-.19,.52-.39,1.04-.53,1.58-.16,.63-.53,1.01-1.1,1.28-.8,.38-1.58,.78-2.36,1.2-.02-.19-.03-.38-.06-.58-.13-.93-.63-1.62-1.49-1.77-.06-.08-.15-.15-.27-.2-1.01-.47-2.05-.88-3.13-1.19-1.05-.3-2.26-.63-3.36-.63-1.13,0-1.31,1.35-1.5,2.21-.2,.91-.31,1.83-.34,2.75-.79,0-1.57-.08-2.36-.18-.54-.07-1.09-.15-1.63-.19-.4-.03-.84-.11-1.23,.03-.87,.32-.74,1.41-.77,2.16-.04,.95-.04,1.9-.02,2.85-.4,.23-.81,.46-1.21,.69-.89,.51-.09,1.88,.8,1.37,.47-.27,.94-.54,1.41-.81,.16-.03,.3-.11,.41-.23,1.92-1.1,3.82-2.23,5.67-3.45,2.06-1.37,4.12-2.93,6.57-3.53,.81-.2,.84-.15,.93,.65,.07,.67,.09,1.34,.1,2.01,.03,1.46-.04,2.91-.04,4.37,0,2.62,.24,5.21,1.29,7.64,.4,.93,1.77,.13,1.37-.8-.11-.26-.2-.52-.29-.78,.21-.03,.42-.17,.61-.27,.89-.51,1.78-1.03,2.66-1.55,.5-.29,.98-.3,1.47,0,.15,.1,.32,.17,.47,.27,.59,.4,1.17,.36,1.79,.02,.86-.47,1.74-.9,2.63-1.31,.69-.32,1.12-.81,1.28-1.55,.07-.36,.19-.71,.32-1.15,.09,.17,.14,.26,.17,.35,.59,1.73,1.48,3.3,2.49,4.81,1.21,1.84,2.82,3.19,4.92,3.92,.32,.11,.67,.2,.95,.39,.24,.16,.51,.43,.58,.7,.17,.66,.32,1.34,.34,2.02,.07,1.4,.87,2.12,2.08,2.6,2.16,.85,4.38,.94,6.64,.61,1.49-.21,2.76-.86,3.82-1.93,.57-.58,.85-1.26,.81-2.08-.03-.6-.04-1.21-.1-1.82-.05-.48,.16-.75,.58-.95,1.28-.62,2.33-1.52,3.08-2.73,1.7-2.72,2.29-5.72,2.08-8.89-.03-.59-.06-1.17-.04-1.75Zm-12.4-9.42c.22-.02,.45-.04,.72-.06-.38,1.74,.47,3.12,1.16,4.5,.55,1.13,.82,2.26,.63,3.5-.09,.63-.19,1.26-.23,1.89-.04,.59-.02,1.17,0,1.76,.02,.29,0,.46-.35,.49-.31,.03-.6,.13-.91,.18-.44,.06-.55-.04-.45-.48,.2-.94,.44-1.86,.63-2.81,.39-1.94-.13-3.7-1.05-5.41-.41-.76-.73-1.59-1-2.43-.21-.66,.14-1.09,.85-1.16Zm-3.68,.33c.04-.62,.53-.75,1.28-.35-.37,1.43,.06,2.72,.82,3.93,.68,1.09,1.23,2.24,1.28,3.55,0,.35,0,.72-.12,1.05-.4,1.28-.67,2.58-.61,3.94,0,.06-.02,.12-.02,.18-1.1-.15-1.64-1.43-1.13-2.57,.24-.52,.5-1.04,.64-1.58,.3-1.15,.02-2.24-.53-3.25-.3-.58-.64-1.14-.98-1.7-.58-1-.71-2.09-.63-3.22Zm-32.5,4.39c.02-.06,.03-.11,.05-.17,.17,.02,.38,.04,.4,.04,1.14,.18,2.25,.47,3.34,.85-1.52,.58-2.97,1.55-4.27,2.43,.02-.66,.08-1.31,.2-1.96,.08-.4,.17-.8,.28-1.2Zm-6.51,5.77c0-.43,.03-.86,.05-1.3,0-.04,0-.07,.01-.11,.04,0,.08,0,.12,0,1.16,.08,2.3,.29,3.46,.36-1.2,.76-2.41,1.49-3.63,2.2,0-.38-.01-.77,0-1.15Zm26.77-2.26c-.54,1.76-1.12,3.51-1.6,5.29-.3,1.1-.75,2-1.93,2.35-.15,.05-.28,.17-.42,.25-.85,.52-1.7,.53-2.53-.03-.58-.4-1.16-.4-1.74-.04-1.09,.66-2.18,1.32-3.25,1.99-.09,.06-.19,.13-.28,.2-.47-2.26-.38-4.64-.34-6.94,.01-.79,.03-1.58,0-2.38,.17,0,.36-.03,.56-.12,1.05-.51,2.08-1.02,3.11-1.55,.62-.31,1.01-.8,1.16-1.5,.09-.43,.25-.84,.38-1.26,.1-.32,.27-.44,.62-.38,.67,.13,1.36,.21,2.02,.35,1.78,.34,3.56,.71,5.39,.47,.2-.02,.42,.08,.63,.12-.17,.21-.33,.29-.51,.37-1.12,.49-2.25,.96-3.35,1.48-.33,.17-.64,.44-.86,.75-.26,.36-.15,.96,.13,1.23,.33,.32,.66,.13,.99-.03,.61-.29,1.22-.59,1.91-.92-.05,.17-.06,.25-.09,.32Zm9.99,4.86c-3.16-.09-6.3-.44-9.46-.94,.44-1.43,.9-2.91,1.4-4.53,2.74,1.81,5.43,3.57,8.12,5.33-.02,.05-.05,.09-.06,.13Zm9.52,14.27c-1.26,.66-2.64,.78-4,.67-1.14-.1-2.27-.38-3.4-.63-.75-.17-1.13-.69-1.15-1.49-.02-.43-.13-.86-.23-1.42,3.46,.69,6.82,.54,10.13-.4,.44,1.6,.04,2.55-1.35,3.27Z"/><path class="cls-3" d="M782.99,52.26c-.34-.81-.85-1.47-1.68-1.82-.78-.32-1.37-.14-1.84,.52-.05,.07-.09,.17-.15,.18-.68,.23-.72,.77-.67,1.36,.13,1.82,.26,3.64,.38,5.46,.02,.25,0,.52-.06,.76-.06,.32-.25,.66-.21,.97,.21,1.55,.56,3.08,1.33,4.47,.17,.31,.4,.6,.64,.86,.74,.78,1.58,.74,2.1-.19,.75-1.33,1.4-2.72,2.07-4.09,.13-.26,.14-.57,.21-.89-.12-.62-.26-1.26-.36-1.9-.32-1.97-.98-3.84-1.76-5.68Zm.45,7.76c-.13,.67-1.29,3.02-1.82,3.63-.47-.95-.94-1.82-.86-2.94,.07-1.02-.1-2.05-.16-3.08-.1-1.37-.19-2.73-.28-4.11,0-.1,.02-.22,.06-.32,.2-.33,.41-.67,.66-1.05,.12,.17,.31,.39,.42,.63,1.01,2.2,1.59,4.52,1.99,6.89,.02,.11,0,.23-.02,.34Z"/><path class="cls-3" d="M780.68,75.48c.17,.4,.34,.82,.58,1.18,.57,.88,1.46,1.13,2.54,.74,.9-.31,1.4-1.12,1.32-2.11-.09-.88-.22-1.75-.25-2.63-.09-1.97-1.26-3.34-2.52-4.66-.55-.57-1.35-.29-1.55,.48-.06,.25-.07,.52-.08,.78,0,.78,0,1.56,0,2.35,.02,0,.05,0,.06,0-.06,1.16-.11,2.32-.17,3.49,0,.13,0,.27,.06,.38Zm1.74-5.03c.22,.4,.48,.68,.54,1,.22,1.33,.4,2.67,.55,4.01,.02,.13-.2,.39-.35,.43-.17,.04-.42-.06-.59-.17-.1-.07-.15-.29-.15-.44-.04-1.51-.06-3.03-.1-4.54,0-.05,.02-.09,.09-.28Z"/><path class="cls-3" d="M789.16,47.42c-.06-.37-.21-.74-.4-1.08-.27-.49-.61-.95-.9-1.43-.17-.29-.27-.63-.46-.91-.44-.6-1.23-.56-1.57,.1-.17,.32-.25,.71-.3,1.07-.18,1.31-.31,2.62-.49,3.93-.11,.76-.23,1.5,.11,2.24,.33,.72,.69,1.41,1.49,1.66,1.02,.32,2.05-.3,2.29-1.43,.19-.87,.22-1.78,.32-2.66-.03,0-.06,0-.09-.02,0-.48,.05-.98-.02-1.47Zm-1.67,3.29c-.02,.25-.14,.5-.25,.84-.52-.44-.76-.92-.71-1.43,.11-1.05,.32-2.08,.48-3.15,.4,.25,.61,.55,.58,1.01-.05,.91-.06,1.82-.11,2.73Z"/><path class="cls-3" d="M789.35,56.46c-.18-.85-.48-1.19-1.01-1.2-.52,0-.92,.39-1.13,1.18-.31,1.2-.58,2.41-.94,3.6-.21,.68-.23,1.34-.07,2.02,.19,.84,.58,1.55,1.31,2.05,.69,.48,1.3,.42,1.89-.19,.57-.58,.87-1.26,.78-2.09-.08-.75-.13-1.5-.25-2.24-.17-1.05-.37-2.09-.59-3.13Zm-.94,6.26c-.96-.78-.79-1.97-.16-3.6,.13,1.24,.5,2.38,.16,3.6Z"/><path class="cls-3" d="M772.42,45.36c-.18-.29-.4-.6-.67-.76-.29-.15-.69-.22-1-.16-.38,.07-.51,.45-.54,.85,0,.17-.1,.35-.16,.52-.1,.29-.29,.55-.32,.84-.15,1.3,.17,2.52,.65,3.72,.42,1.04,1.3,1.81,2.47,1.69,1.25,0,1.73-.45,1.61-1.46-.24-1.93-1.01-3.63-2.04-5.24Zm-.46,4.64c-.17-.57-.35-1.14-.55-1.71-.14-.39-.07-.66,.39-.79,.47,.92,.91,1.84,.94,2.93-.37,.03-.65-.04-.77-.43Z"/><path class="cls-3" d="M775.01,55.52c-.16-.28-.43-.51-.69-.69-.42-.29-1.02-.22-1.2,.19-.24,.57-.55,1.24-.44,1.79,.23,1.24,.67,2.45,1.09,3.64,.21,.59,.44,1.27,1.22,1.4,.06,0,.1,.09,.13,.13,.48,.45,1.01,.49,1.54,.09,.58-.44,.75-1.08,.84-1.83-.06-.21-.09-.5-.21-.73-.74-1.34-1.49-2.67-2.27-3.99Zm.59,5.18c-.38-.93-.76-1.85-1.14-2.77,.06-.02,.12-.05,.18-.07,.47,.89,1.09,1.7,1.22,2.73-.09,.04-.17,.07-.26,.11Z"/><path class="cls-3" d="M777.28,64.38c-.36-.25-.75-.32-1.15-.1-.42,.24-.48,.63-.44,1.06,.05,.42,.11,.84,.17,1.25-.03,0-.06,.02-.09,.02,.06,.35,.1,.71,.2,1.05,.22,.8,.48,1.59,.72,2.39,.29,.91,1.66,1.44,2.49,.97,.76-.43,1.17-1.32,.9-2.18-.28-.85-.62-1.68-.99-2.49-.39-.84-1.07-1.43-1.81-1.96Zm.97,5.28c-.29-.95-.57-1.86-.85-2.78,.71,.68,1.24,2.41,.85,2.78Z"/><path class="cls-3" d="M788.65,70.95c.15-.44,.19-.93,.26-1.29-.06-.49-.06-.9-.15-1.27-.21-.82-.47-1.62-.71-2.44-.13-.44-.34-.78-.86-.78-.44,0-.71,.26-.86,.84-.21,.78-.4,1.58-.62,2.36-.06,.21-.21,.4-.29,.6-.11,.31-.29,.64-.25,.94,.1,.8,.53,1.43,1.24,1.85,.9,.54,1.93,.17,2.26-.81Zm-1.43-.69q-.48-.23,.06-1.05c-.02,.34-.05,.69-.06,1.05Z"/><path class="cls-3" d="M771.13,82.1c-.73,.25-1.03,.69-.89,1.44,.12,.67,.64,1.06,1.34,1.02,.15-.01,.29-.03,.44-.04,.55-.03,.91-.32,1.09-.83,.18-.51,.02-.94-.35-1.29-.47-.46-1.01-.51-1.63-.3Z"/><path class="cls-3" d="M791.1,82.86c.72,0,1.3-.52,1.31-1.18,.02-.74-.64-1.43-1.38-1.44-.72,0-1.29,.52-1.29,1.19,0,.81,.58,1.43,1.36,1.43Z"/><path class="cls-3" d="M785.2,88.65c-.13,.41-.02,.78,.35,1.03,.23,.15,.47,.29,.72,.4,.59,.27,1.18-.16,1.12-.81-.07-.67-.59-1.11-1.35-1.14-.41-.02-.71,.15-.84,.53Z"/><path class="cls-3" d="M778.98,88.94c-.59,0-1.31,.64-1.31,1.17,0,.46,.33,.78,.82,.78,.62,0,1.29-.63,1.28-1.18,0-.44-.35-.77-.78-.77Z"/><path class="cls-3" d="M823.19,93.8c.04-.09,.06-.19,.06-.31-.02-2.38-.46-4.71-.69-7.07-.04-.42-.33-.8-.79-.79-1.06,.01-2.12,.02-3.17,.04-.02-1.3-.08-2.6-.21-3.89-.04-.41-.33-.81-.79-.79-.84,.04-1.68,.08-2.51,.12-.49,.02-1.32,.19-1.91,.13-.22-.57-.22-1.35-.3-1.9-.12-.76-.24-1.52-.37-2.28-.07-.45-.59-.62-.98-.55-.73,.14-1.45,.27-2.18,.41-.54,.1-1.16,.29-1.74,.35-.11-.37-.24-1.02-.32-1.29-.18-.65-.37-1.3-.55-1.94-.11-.4-.56-.68-.98-.55-1.29,.41-2.53,.91-3.76,1.47-.05-.97-.12-1.78-.14-2.07v-.02c-.21-1.24-.6-2.43-1.34-3.5-.13-.19-.14-.5-.12-.74,.06-.59,.23-1.17,.24-1.74,.06-2.98-.85-5.64-2.63-8.03-.3-.4-.74-.82-.57-1.4,.36-1.24,.3-2.49,.25-3.74-.04-.98-.17-2.01-.98-2.64-.92-.71-1.28-1.71-1.69-2.68-.24-.58-.54-1.03-1.04-1.36-.36-.24-.71-.47-1.09-.66-.88-.44-1.59-1.02-2.05-1.94-.4-.78-.9-1.51-1.44-2.21-.63-.83-1.38-1.57-2.01-2.39-.59-.78-1.34-1.28-2.27-1.51-.97-.24-1.92-.53-2.9-.68-.72-.11-1.17-.35-1.38-1.09-.17-.63-.52-1.2-.81-1.78-.09-.17-.19-.34-.32-.49-.58-.72-1.43-.6-1.77,.25-.11,.27-.2,.55-.25,.84-.17,.86-.3,1.74-.5,2.59-.06,.26-.24,.54-.44,.71-.75,.67-1.56,1.11-2.62,1.29-2.04,.34-3.81,1.36-5.18,2.94-1.06,1.22-2.02,2.54-3.12,3.71-1.14,1.23-1.7,2.61-1.58,4.26,.02,.4-.11,.67-.39,.94-.94,.91-1.4,2.06-1.56,3.34-.07,.52-.08,1.04-.13,1.56-.1,1.27-.2,2.54-1.1,3.57-.12,.14-.18,.34-.25,.52-.9,2.23-1.37,4.53-1.13,6.94,.06,.61,.13,1.26-.02,1.84-.34,1.38-.71,2.75-.66,4.18v.02s0,.1,0,.14c-.35-.28-.7-.55-1.05-.81-.49-.35-1.09-.59-1.61-.14-.52,.44-.74,1.37-1.06,1.96-.3,.54-.63,1.06-.98,1.57-.64-.4-1.28-.79-1.93-1.17-.55-.32-1.2-.63-1.73-.09-.51,.53-.68,1.53-.92,2.2-.18,.49-.36,.98-.54,1.47-.09,.25-.18,.49-.27,.73-.02,.04-.06,.23-.1,.4-1.16-.67-2.93-2.23-3.76-.88-.45,.73-.56,1.84-.78,2.65-.2,.72-.4,1.44-.59,2.16-1.55-1.34-3.84-2.86-4.72-.44-.52,1.43-.72,3.05-.97,4.54-.27,1.56-.48,3.13-.64,4.7-.01,.13,0,.24,.03,.33-1.41,2.97-1.45,6.56-1.84,9.77-.12,1.01,1.46,1,1.59,0,.4-3.3,.38-7.04,2.14-9.96,1.4-2.32,3.3-4.46,5.27-6.32,2.1-1.97,4.45-3.73,6.91-5.22,2.44-1.48,5.03-2.72,7.54-4.08,.05,1.4,.19,3.14,.49,5.05,0,.03,0,.06,.02,.1,.49,2.45,.97,4.9,1.44,7.35,.16,.78,.31,1.57,.5,2.35,.12,.48,.6,.78,1.05,.69,.4-.08,.56-.39,.51-.97,0-.14-.04-.29-.06-.44-.17-.93-.35-1.85-.53-2.78-.45-2.31-.91-4.61-1.37-6.9-.1-.48-.21-.94-.31-1.42,.04,0,.08-.02,.12-.04,.55,.98,1.11,1.96,1.66,2.94,.1,.17,.15,.36,.21,.55,.17,.48,.29,1,.52,1.47,.71,1.47,1.47,2.94,2.21,4.41,.97,1.89,1.93,3.78,2.92,5.65,.31,.59,.79,.75,1.25,.48,.45-.27,.51-.75,.16-1.33-.11-.19-.23-.39-.35-.59,1.28,.84,2.5,1.7,3.42,2.93,1.05,1.43,2.2,2.8,3.31,4.19,.53,.66,1.07,1.32,1.62,1.97,.29,.34,.67,.41,1.05,.15,.37-.26,.44-.64,.25-1.05-.07-.16-.18-.31-.29-.45-.38-.48-.78-.97-1.17-1.45-.78-.97-1.56-1.95-2.42-3.01,.56,.16,1.01,.28,1.47,.41,.46,.14,.75-.02,.94-.44,.19-.41,.07-.75-.3-.96-.38-.22-.78-.41-1.19-.56-2.7-.94-5.04-2.42-7.01-4.51-2.02-2.15-3.31-4.76-4.74-7.28l-.05-.1c-.36-.81-.67-1.65-1.08-2.43-.56-1.08-1.24-2.1-1.81-3.18-1.05-1.96-.96-4.08-.61-6.17,.28-1.6,.63-3.15,.49-4.82-.22-2.5,.38-4.89,1.8-7.03,.22-.34,.39-.77,.44-1.17,.15-1.17,.25-2.34,.36-3.51,.08-.89,.38-1.72,1.01-2.33,.69-.68,1.06-1.4,.95-2.39-.07-.7,0-1.4,.62-1.92,.14-.12,.24-.31,.33-.48,.94-1.6,2.13-3,3.39-4.36,1.07-1.17,2.38-1.93,3.9-2.32,.98-.25,2-.37,2.73-1.18,0,0,.03,0,.07,0,.02,.12,.05,.25,.06,.37,.22,2.12,.48,4.25,.64,6.38,.08,1.03,.79,1.47,1.49,1.95,.16,.11,.42,.12,.62,.09,.73-.1,1.39-.36,1.85-.98,.33-.44,.64-.91,.99-1.34,1.19-1.43,.76-2.94,.28-4.45-.33-1.06-.7-2.11-1.07-3.19,1.94-.03,4.08,.98,5.33,2.58,.86,1.11,1.7,2.25,2.39,3.46,.6,1.05,1.36,1.87,2.45,2.37,1.2,.55,1.88,1.49,2.17,2.76,.04,.18,.14,.37,.27,.52,.33,.38,.71,.71,1.03,1.11,.24,.28,.55,.6,.56,.93,.08,1.2,.25,2.45,0,3.6-.27,1.24-.04,2.27,.71,3.15,.79,.94,1.26,2.02,1.7,3.12,.71,1.77,.92,3.59,.46,5.48-.17,.71-.06,1.39,.39,2,.17,.24,.35,.48,.45,.75,1.17,3.02,1.25,6.06-.02,9.07-.6,1.43-1.33,2.8-1.98,4.21-1.24,2.7-2.93,5.1-5.16,7.07-1.53,1.36-3.24,2.52-4.87,3.77-.18,.14-.37,.28-.52,.44-.27,.29-.26,.63-.06,.95,.21,.32,.5,.45,.88,.33,.17-.06,.35-.1,.57-.17-.06,.25-.1,.4-.13,.55-.13,.51,.06,.96,.46,1.11,.44,.17,.81,0,1.06-.54,.26-.54,.54-1.08,.74-1.65,.3-.86,.78-1.57,1.46-2.17,.8-.71,1.6-1.44,2.46-2.22-.48,2.24-.95,4.37-1.41,6.5-.14,.64,.12,1.13,.62,1.26,.42,.1,.75-.21,.91-.88,.24-.96,.5-1.93,.68-2.9,.78-4.19,2.16-8.15,4.22-11.87,.13-.22,.29-.42,.44-.63,.09,.19,.1,.32,.09,.45-.17,2.43-.35,4.85-.51,7.28-.17,2.58-.34,5.15-.45,7.74-.06,1.24,.02,2.5,.06,3.76,0,.36,.19,.62,.6,.64,.4,.02,.61-.17,.69-.55,.02-.13,.05-.25,.06-.38,.11-1.57,.23-3.13,.32-4.69,.17-2.74,.31-5.48,.47-8.22,.11-1.89,.23-3.78,.36-5.68,.11-1.72,.25-3.43,.36-5.15,0-.03,0-.07,0-.11v-.06c0-.06,0-.13,.02-.2,0-.09,0-.17,0-.25v-.07c0-.14,0-.29,0-.44,0-.02,0-.04,0-.05,2.39,1.35,4.85,2.57,7.18,4.03,2.4,1.51,4.67,3.28,6.7,5.26,1.91,1.86,3.73,4.01,5.07,6.33,1.7,2.94,1.67,6.67,2.05,9.96,.12,1,1.7,1.01,1.59,0-.34-2.96-.39-6.24-1.47-9.08Zm-66.7-17.78c.25-.44,.44-1.08,.72-1.56,.28,.19,.61,.54,.75,.66,.23,.18,.47,.36,.7,.55-.97,.53-1.94,1.05-2.92,1.56,.27-.39,.52-.78,.76-1.2Zm-10.38,5.09c.04-.16,.1-.48,.17-.74,.56,.28,1.46,.9,1.9,1.13,.03,.02,.06,.03,.1,.05-.99,.69-1.96,1.43-2.89,2.21,.1-.38,.21-.76,.31-1.13,.14-.5,.28-1.01,.42-1.51Zm-6.82,8.9c.19-1.31,.41-2.62,.69-3.92,.1-.49,.21-.98,.33-1.47,.13-.54,.14-.85,.71-.58,.8,.39,1.53,1.02,2.19,1.64-.06,.06-.13,.12-.2,.18-1.29,1.25-2.59,2.65-3.71,4.15Zm11.2-9.9c.1-.34,.19-.68,.29-.96,.18-.49,.36-.98,.54-1.47,.09-.25,.18-.67,.3-1.01,.32,.18,.73,.49,.91,.6,.48,.29,.95,.58,1.42,.88-1.18,.62-2.34,1.26-3.47,1.96Zm30.88-34.39c-.34,.49-.68,.99-1.07,1.46-.14,.17-.39,.29-.61,.33-.08,0-.26-.3-.3-.48-.22-1.25-.62-2.51-.55-3.75,.06-1.06-.17-2.05-.22-3.08-.04-.98,0-1.98,.37-2.93,.7,1.49,1.3,3,1.63,4.61,.15,.68,.38,1.35,.58,2.02,.03,.1,.08,.21,.15,.31,.47,.67,.48,.85,.02,1.51Zm24.64,31.54c.04,.15,.08,.3,.12,.46-.98-.53-1.95-1.06-2.92-1.6,.73-.32,1.48-.61,2.23-.87,.19,.67,.38,1.34,.57,2.01Zm2.06,1.53c.35-.08,.7-.18,.97-.23,.68-.13,1.36-.25,2.04-.38,.12,.77,.25,1.55,.37,2.32,.02,.14,.04,.29,.06,.44-.29-.2-.58-.41-.88-.6-.84-.55-1.7-1.05-2.57-1.55Zm5.91,3.96c.19-.02,.36-.04,.52-.05,.79-.04,1.58-.07,2.36-.11,.08,.94,.13,1.88,.14,2.83-.96-.94-1.97-1.83-3.03-2.67Zm4.8,4.49c.76,0,1.53-.02,2.29-.03,.13,1.13,.28,2.27,.4,3.4-.8-1.19-1.73-2.32-2.69-3.37Z"/><path class="cls-3" d="M808.49,84.56c-.23-.15-.37-.36-.55-.57-.24-.28-.54-.5-.86-.67-.32-.17-.65-.33-.98-.5-.37-.19-.74-.4-1.13-.53-.41-.13-.87,.16-.98,.55-.02,.06-.01,.13-.01,.19-.05,.1-.09,.22-.09,.36,0,.7,0,1.4,0,2.1,0,.32-.02,.65,0,.97,.03,.47,.23,.8,.6,1.07,.44,.33,.85,.69,1.22,1.09,.4,.44,.73,.94,1.23,1.28,.58,.38,1.31,.32,1.84-.11,.47-.38,.73-.99,.85-1.57,.26-1.32,.05-2.85-1.14-3.65Zm-.66,4.01s0,0,0,0c.04,0,.08,0,0,0Zm.07-.18c-.06,.1-.06,.09-.11,.16-.04-.03-.09-.06-.07-.04-.34-.28-.59-.69-.89-1.02-.33-.35-.68-.68-1.06-.98,0,0-.16-.13-.29-.23,0-.02,0-.04,0-.06,0-.31,0-.62,0-.92,0-.35,0-.69,0-1.04,.14,.08,.27,.15,.41,.22,.21,.11,.43,.2,.62,.33,.18,.12,.3,.28,.44,.45,.16,.2,.33,.37,.54,.52,.14,.11,.31,.2,.37,.28,.23,.31,.3,.74,.3,1.14,0,.4-.07,.87-.25,1.18Z"/><path class="cls-3" d="M815.34,89.94c-.34-.39-.73-.73-1.1-1.09-.21-.2-.42-.41-.65-.58-.29-.23-.59-.33-.96-.37-.33-.04-.65,.24-.75,.56-.3,.11-.5,.38-.53,.73-.04,.51-.08,1.02-.07,1.53,0,.58,.17,1.08,.58,1.5,.66,.69,1.41,1.36,2.21,1.87,.46,.3,1.05,.54,1.58,.24,.57-.32,.61-.93,.62-1.52,.01-.51,0-1.05-.16-1.55-.15-.5-.43-.93-.77-1.33Zm-.8,1.6s-.01-.03,0,0h0Zm-.08,.89s-.06-.04-.08-.07c-.15-.12-.29-.24-.43-.36-.28-.25-.56-.51-.83-.77-.06-.06-.13-.12-.19-.19,0,0,0,0,0,0,0-.01-.02-.03-.02-.04,0-.03-.02-.06-.02-.09,0-.01,0,0,0-.01,0,0,0,0,0-.02,0-.1,0-.19,0-.29,0-.27,.02-.54,.04-.82,.07,.07,.14,.13,.21,.2,.27,.26,.54,.51,.8,.77,.11,.11,.22,.23,.33,.35,.02,.02,.04,.05,.06,.07,0,0,0,0,.01,.02,.05,.08,.11,.16,.15,.24,.03,.05,.05,.09,.07,.14,0,0,0,0,0,0,.03,.08,.05,.16,.07,.24,.01,.04,.02,.08,.03,.13,0,0,0,.04,.01,.06,0,.03,0,.07,0,.07,0,.06,0,.12,.01,.17,0,.12,0,.24,0,.36-.07-.05-.13-.09-.2-.14-.03-.02-.02-.02-.03-.02Zm.7,.47s0,0,0,0c.01,0,.02,0,.04,0-.02,0-.03,0-.03,0Z"/><path class="cls-3" d="M820.09,96.84c-.6-.56-1.2-1.11-1.81-1.66-.25-.23-.61-.28-.91-.14-.32,.04-.63,.25-.69,.57-.27,1.47-.57,2.95,.02,4.38,.51,1.22,1.28,2.48,2.4,3.23,.35,.23,.89,.08,1.08-.28,.69-1.27,.73-2.74,.7-4.15-.01-.79-.23-1.4-.81-1.94Zm-1.9,2.62c-.33-.76-.29-1.57-.17-2.36,.24,.22,.47,.43,.71,.65,.16,.15,.38,.3,.49,.49,.12,.19,.09,.45,.09,.67,0,.74,.02,1.53-.14,2.26-.42-.51-.74-1.14-.98-1.7Z"/><path class="cls-3" d="M755.3,86.11c.38-.27,.77-.52,1.07-.88,.44-.54,.57-1.15,.63-1.83,.06-.7,.11-1.4,.17-2.1,.03-.43-.39-.79-.79-.79-.22,0-.4,.09-.53,.22-.22-.01-.44,.06-.62,.22-.8,.69-1.7,1.23-2.65,1.74-1.14,.61-.92,2.28-.68,3.33,.13,.57,.3,1.22,.86,1.51,.69,.36,1.39-.07,1.81-.63,.15-.2,.22-.32,.33-.44,.07-.07,.15-.14,.22-.2,.12-.1,.04-.03,.02-.01,.06-.04,.12-.09,.18-.13Zm-.11-1.93c-.04,.06-.02,.03,0,0h0Zm-1.83-.16h0s.02-.06,0,0Zm-.2,2.09s-.02,.02,0,0h0Zm1.97-1.86c-.06,.06-.12,.12-.19,.18-.03,.02-.06,.05-.09,.07,0,0,0,0,0,0-.01,0-.01,0-.04,.03-.31,.22-.63,.43-.91,.68-.17,.15-.3,.31-.44,.49,0,0,0,0,0,.01-.01-.04-.02-.08-.03-.13-.09-.42-.12-.84-.1-1.29,0-.05,0-.1,0-.15,0-.01,0-.05,.01-.07,0,0,0,0,0,0,.03-.02,.06-.03,.07-.04,.11-.06,.22-.11,.33-.17,.6-.32,1.18-.69,1.72-1.1,0,.02,0,.04,0,.06-.02,.22-.03,.45-.06,.67-.01,.12-.05,.36-.09,.46-.03,.07-.07,.13-.11,.2,0,.01,0,.01-.01,.02-.02,.03-.05,.05-.07,.08Z"/><path class="cls-3" d="M746.88,91.08c.37-.07,.74-.23,1.1-.35,.39-.13,.79-.25,1.18-.4,.33-.12,.59-.28,.79-.56,.15-.2,.22-.46,.28-.7,.12-.48,.23-.95,.35-1.43,.08-.32-.06-.69-.34-.87-.14-.38-.55-.66-.96-.53-.8,.27-1.6,.54-2.4,.81-.45,.15-.99,.25-1.29,.65-.31,.4-.27,1-.31,1.48-.03,.43-.02,.84,.16,1.24,.26,.56,.86,.76,1.43,.65Zm.6-2.55c.46-.15,.91-.31,1.37-.46-.02,.06-.03,.13-.05,.19-.04,.15-.08,.31-.11,.46,0,.04-.02,.07-.03,.11-.06,.02-.12,.04-.17,.06l-.52,.17c-.32,.11-.64,.21-.96,.32-.05,.02-.1,.03-.14,.05,0-.06,0-.12,0-.17,.01-.17,.02-.33,.04-.5,0-.01,0-.02,0-.03,.02,0,.03-.01,.05-.02,.17-.06,.35-.12,.52-.18Zm-.93,1s-.06,0,0,0h0Z"/><path class="cls-3" d="M741.92,98.3c.29,.09,.61,.17,.92,.1,.36-.08,.57-.31,.78-.6,.58-.79,.96-1.73,1.29-2.64,.22-.61,.51-1.23,.16-1.85-.28-.51-.82-.92-1.29-1.22-.25-.16-.59-.13-.84,.03,0,0-.02,0-.03,0-.99,.22-1.54,1.36-1.93,2.2-.22,.47-.42,.96-.58,1.46-.2,.61-.35,1.23,.1,1.78,.33,.4,.94,.61,1.42,.75Zm1.77-4.23h0s.02,.02,0,0Zm-1.56,1.55c.07-.19,.08-.2,.17-.4,.17-.37,.36-.73,.58-1.08,.05-.08,.1-.16,.15-.24,0,0,.02-.02,.03-.04,.02-.02,.05-.06,.06-.07,.03-.04,.19-.17,.09-.1,.02-.01,.04-.03,.07-.04,0,0,.01,.01,.03,.02,.12,.1,.23,.22,.34,.34-.03,.07-.06,.18-.08,.24-.03,.09-.07,.19-.1,.28-.25,.69-.43,1.19-.8,1.84-.08,.14-.16,.27-.25,.4-.12-.03-.25-.06-.36-.1-.08-.03-.15-.06-.23-.1,.05-.15,.09-.31,.14-.46,.05-.16,.11-.32,.17-.48Z"/></g><g><g><path class="cls-3" d="M721.45,11.35c20.97-4.77,40.63,2.76,43.82,16.79,2.89,12.71-10.45,18.05-25.29,21.92-1.45,.38-2.5,1.54-2.75,3.02-.24,1.47,.37,2.89,1.6,3.7l.09,.06c.89,.57,1.36,1.59,1.22,2.66-.14,1.07-.86,1.94-1.88,2.26-.32,.1-.65,.19-.98,.27-1.58,.36-3.23,.4-4.83,.11-3.5-.63-6.53-2.77-8.31-5.85-.78-1.36-2.39-2.07-4-1.77-14.39,2.68-28.1,3.43-30.94-9.08-3.19-14.03,11.28-29.32,32.25-34.09Z"/><g><g><path class="cls-3" d="M692.49,21.2c1.15-1.7,2.49-3.35,4-4.94,1.12-1.17,2.35-2.31,3.65-3.4,.39-.32,.96-.26,1.28,.14h0c.31,.39,.25,.95-.14,1.26-1.24,1.03-2.41,2.12-3.49,3.24-1.44,1.5-2.71,3.08-3.8,4.68-.28,.41-.82,.53-1.24,.27h0c-.43-.27-.55-.84-.27-1.26Z"/><path class="cls-3" d="M711.19,5.9c3.96-1.87,8.22-3.33,12.66-4.34,6.3-1.43,12.79-1.88,18.84-1.31,.5,.05,.86,.5,.81,1h0c-.06,.49-.49,.84-.99,.79-5.85-.55-12.14-.11-18.26,1.28-4.31,.98-8.44,2.4-12.28,4.21-.45,.21-.98,.03-1.2-.41-.22-.45-.04-1,.42-1.22Z"/></g><path class="cls-2" d="M725.05,6.83c-20.52,4.67-34.66,19.45-31.57,33.01,2.53,11.15,14.38,11.29,29.9,8.4,1.95-.36,3.96,.49,4.95,2.21,1.59,2.75,4.32,4.81,7.69,5.41,1.86,.34,3.7,.19,5.38-.35,1.46-.47,1.74-2.47,.44-3.3-.03-.02-.07-.04-.1-.07-3.33-2.2-2.45-7.34,1.41-8.35,15.95-4.16,27.25-9.39,24.64-20.85-3.08-13.57-22.22-20.78-42.74-16.11Z"/><path class="cls-3" d="M740.68,56.64c-1.58,.36-3.23,.4-4.83,.11-3.5-.63-6.53-2.77-8.31-5.85-.78-1.36-2.39-2.07-4-1.77-14.39,2.68-28.1,3.43-30.94-9.08-3.19-14.03,11.28-29.32,32.25-34.09,20.97-4.77,40.63,2.76,43.82,16.79,2.89,12.71-10.45,18.05-25.29,21.92-1.45,.38-2.5,1.54-2.75,3.02-.24,1.47,.37,2.89,1.6,3.7l.09,.06c.89,.57,1.36,1.59,1.22,2.66-.14,1.07-.86,1.94-1.88,2.26-.32,.1-.65,.19-.98,.27Zm-15.44-48.93c-20,4.55-33.86,18.87-30.89,31.93,2.03,8.92,10.39,11.15,28.85,7.71,2.36-.44,4.73,.62,5.89,2.64,1.51,2.62,4.09,4.44,7.07,4.98,1.65,.3,3.36,.19,4.94-.32,.52-.17,.62-.64,.64-.78,.02-.14,.04-.61-.41-.9l-.11-.07c-1.83-1.21-2.75-3.32-2.39-5.5,.36-2.2,1.92-3.92,4.07-4.48,16.14-4.21,26.4-9.19,23.99-19.78-2.97-13.06-21.66-19.98-41.66-15.43Z"/></g></g><path class="cls-3" d="M739.74,19.17c.33-.72,1.26-1.35,1.86-1.35,.84,0,2.28,1.02,2.28,2.01,0,.84-.84,.9-1.2,.9h-10.73c-1.11,1.29-3.72,3.61-5.2,3.61,0,.9,.06,5.35,.06,6.37,0,.78-1.47,1.32-2.22,1.32-1.2,0-1.2-.63-1.2-1.68h-2.58v1.29c0,.9-1.56,1.47-2.31,1.47-.93,0-.93-.9-.93-1.59,0-1.2,.15-7.06,.15-8.38,0-.42,0-2.61-.06-2.79-.03-.12-.45-.6-.45-.72,0-.63,1.65-1.8,2.52-1.8s1.05,.63,1.14,1.02h2.7c.45-.69,1.2-1.05,1.71-1.05,.69,0,1.83,.72,1.83,1.41,0,.18-.36,.96-.36,1.14v3.34c1.83-2.25,3.21-5.17,4.09-7.84,0-1.83,1.5-1.92,1.68-1.92,.99,0,2.4,.57,2.4,1.68,0,.66-.81,2.04-1.74,3.57h6.55Zm-16.28,9.88v-8.92h-2.28c-.36,0-.36,.15-.36,1.35s-.03,6.01-.03,7.57h2.67Zm12.62-3.81c.57-.66,1.29-1.05,1.86-1.05,.93,0,2.34,.93,2.34,2.07,0,.54-.18,.63-1.17,1.08-1.71,1.17-5.71,4.9-6.94,6.22-.3,.3-1.05,1.14-1.05,2.04,0,1.68,4.06,1.77,4.84,1.77,3.97,0,5.56-.81,6.64-1.35,.3-.15,1.83-1.02,1.98-1.02,.3,0,.3,.21,.3,.3,0,.63-.72,2.79-.96,3.21-1.05,1.86-2.34,2.1-4.27,2.1-3.7,0-11.48-.75-11.48-4.33,0-.96,.54-2.04,1.35-3.21,.66-.96,4.39-5.38,5.17-6.43l-3.64,.15c-.3,0-1.62,.57-1.92,.57-.36,0-.81-.27-.81-.75,0-.66,.48-1.47,1.38-1.47,.15,0,.87,.15,1.02,.15l5.35-.06Z"/></g></g></g></g></svg>