<?xml version="1.0" encoding="UTF-8"?><svg id="_圖層_2" xmlns="http://www.w3.org/2000/svg" viewBox="0 0 259.91 63.94"><defs><style>.cls-1{fill:#f5ba18;}.cls-2{fill:#595757;}</style></defs><g id="_圖層_1-2"><g><polygon class="cls-2" points="31.05 28.22 20.92 22.37 20.92 10.61 10.46 4.57 0 10.61 0 22.69 10.13 28.54 10.13 40.3 20.26 46.15 20.26 57.91 30.72 63.94 41.18 57.91 41.18 45.83 31.05 39.98 31.05 28.22"/><polygon class="cls-2" points="66.51 28.22 56.38 22.37 56.38 10.61 45.92 4.57 35.46 10.61 35.46 22.69 45.59 28.54 45.59 40.3 55.72 46.15 55.72 57.91 66.18 63.94 76.64 57.91 76.64 45.83 66.51 39.98 66.51 28.22"/><polygon class="cls-1" points="81.38 4.57 70.92 10.61 70.92 22.69 81.38 28.73 91.84 22.69 91.84 10.61 81.38 4.57"/><path class="cls-2" d="M132.36,6.99h-3.69c-.14,0-.24,.06-.29,.19l-4.72,13.6-4.41-13.58c-.05-.14-.15-.21-.31-.21h-3c-.16,0-.26,.07-.31,.21l-4.41,13.58-4.72-13.6c-.05-.13-.15-.19-.31-.19h-3.67c-.11,0-.2,.04-.26,.12-.06,.1-.08,.19-.05,.29l7.36,20.91c.05,.14,.15,.21,.31,.21h2.52c.16,0,.26-.07,.31-.21l4.72-14.17,4.72,14.17c.05,.14,.15,.21,.31,.21h2.52c.14,0,.25-.07,.31-.21l7.36-20.91c.03-.1,.02-.19-.05-.29-.06-.08-.15-.12-.26-.12"/><path class="cls-2" d="M178.54,10.18c-1.97-1.92-4.31-2.94-7.03-3.05-2.67-.11-5.04,.67-7.12,2.33V.31c0-.21-.1-.31-.31-.31h-3.45c-.21,0-.31,.1-.31,.31V28.14c0,.21,.1,.31,.31,.31h3.45c.21,0,.31-.1,.31-.31v-1.98c1.95,1.57,4.18,2.36,6.67,2.36,3.08,0,5.68-1.13,7.79-3.38,1-1.05,1.75-2.25,2.26-3.62,.52-1.41,.74-2.88,.64-4.41-.18-2.7-1.25-5.01-3.22-6.93m-2.74,12.36c-1.32,1.3-2.9,1.95-4.74,1.95s-3.37-.63-4.67-1.91c-1.29-1.27-1.95-2.81-2-4.62v-.31c.05-1.81,.71-3.35,2-4.62,1.3-1.27,2.86-1.91,4.67-1.91s3.42,.65,4.74,1.95c1.3,1.32,1.95,2.9,1.95,4.74s-.65,3.41-1.95,4.72"/><path class="cls-2" d="M202.25,10.28c-2-2.08-4.42-3.13-7.26-3.14-2.91-.02-5.37,1.01-7.38,3.07-2.02,2.06-3.02,4.61-3.02,7.62s1.05,5.47,3.14,7.55c2.1,2.1,4.61,3.14,7.55,3.14,1.86,0,3.6-.45,5.22-1.36,1.64-.91,2.94-2.14,3.91-3.72,.11-.19,.07-.33-.12-.43l-2.93-1.72c-.18-.09-.32-.06-.43,.12-.6,.95-1.41,1.71-2.43,2.26-1,.54-2.07,.81-3.22,.81-1.3,0-2.5-.35-3.6-1.05-1.08-.7-1.89-1.62-2.43-2.76l15.72-1.36c.19-.02,.29-.12,.29-.31v-1.36c0-2.86-1-5.32-3-7.38m-13.58,6.43c.24-1.64,.94-2.97,2.1-4,1.16-1.05,2.54-1.57,4.14-1.57s2.83,.41,3.93,1.24c1.1,.81,1.82,1.9,2.17,3.26l-12.34,1.07Z"/><path class="cls-2" d="M154.35,6.99h-3.49c-.21,0-.31,.11-.31,.33l.02,1.69c0,1.03,0,2.28,.01,3.73v7.85c-.04,.27-.08,.53-.16,.78-.19,.68-.52,1.29-1,1.83-.49,.54-1.06,.95-1.71,1.21-.33,.13-.67,.22-1,.29l-.14,.02-.12,.02h-.21l-.31,.02h-.33l-.31-.02h-.21l-.12-.02-.14-.02c-.33-.06-.67-.16-1-.29-.65-.27-1.22-.67-1.72-1.21-.48-.54-.81-1.15-1-1.83-.1-.33-.16-.67-.19-1.02v-3.31l.02-.64v-2.41c.02-2,.02-3.66,.02-4.98l.02-1.69c0-.22-.1-.33-.31-.33h-3.41c-.21,0-.31,.11-.31,.33v1.69c0,1.32,0,2.98,.02,4.98v1.14l.02,.62v4.03c.02,.3,.03,.59,.05,.86,.05,.63,.16,1.25,.33,1.86,.38,1.22,1.02,2.32,1.91,3.29,.89,.97,1.93,1.68,3.12,2.14,.59,.22,1.19,.39,1.81,.5l.21,.02,.24,.02,.24,.02,.26,.02h1.19l.26-.02,.24-.02,.24-.02,.21-.02c.62-.11,1.22-.28,1.81-.5,.52-.2,1.01-.45,1.47-.75v1.03c0,.21,.1,.31,.31,.31h3.45c.21,0,.31-.1,.31-.31V7.3c0-.21-.1-.31-.31-.31"/><path class="cls-2" d="M116.22,56.1v1.09h-12.12v-1.09h3.33c.13-.46,.28-1.01,.42-1.56h-2.16v-1.04h2.4c.09-.46,.2-.93,.3-1.36h-3.3v-1.08h10.21v1.08h-5.62c-.09,.43-.19,.9-.3,1.36h3.34l.2-.07,.9,.07c-.03,.84-.11,1.78-.16,2.6h2.56Zm-10.44,2.26h8.78v4.61h-1.28v-.58h-6.26v.59h-1.24v-4.62Zm1.24,2.94h6.26v-1.86h-6.26v1.86Zm2.12-6.77c-.14,.57-.27,1.11-.39,1.56h3.67c.05-.51,.09-1.08,.12-1.56h-3.4Z"/><path class="cls-2" d="M143.99,52.02c-.42,1.06-1.08,1.94-1.87,2.67,.9,.54,1.95,.96,3.1,1.19-.24,.23-.58,.7-.74,.98-1.21-.28-2.31-.8-3.25-1.47-1.01,.71-2.2,1.24-3.42,1.58-.07-.19-.22-.42-.36-.62v1.7h-1.73v2.47l.86-.16c-.11-.49-.23-.97-.32-1.39l.9-.24c.31,1.06,.62,2.41,.74,3.33l-.96,.28c-.03-.28-.08-.61-.15-.94-1.4,.3-2.82,.59-3.96,.82l-.24-1.16c.58-.08,1.31-.2,2.08-.35v-2.66h-.74v.57h-.9v-5.54h1.65v-2.32h1.05v2.32h1.73v.67c1.12-.74,2.09-1.89,2.64-3.17l1.09,.28c-.12,.3-.27,.58-.44,.86h2.32l.2-.05,.74,.35Zm-10.07,5h.84v-2.93h-.84v2.93Zm2.6-2.93h-.92v2.93h.92v-2.93Zm.92,1.89c1.04-.27,2.06-.7,2.95-1.28-.39-.35-.71-.74-1.02-1.16-.35,.38-.74,.73-1.12,1-.18-.15-.54-.46-.81-.65v2.09Zm4.37,4.37h3.01v.96h-3.01v1.63h-1.17v-1.63h-2.79v-.96h2.79v-.8h-2.12v-.9h2.12v-.75h-2.36v-.92h2.36v-.94h1.17v.94h2.43v.92h-2.43v.75h2.18v.9h-2.18v.8Zm-1.71-7.67l-.05,.07c.31,.47,.71,.92,1.19,1.32,.49-.4,.89-.88,1.2-1.39h-2.33Z"/><path class="cls-2" d="M168.19,57.52c-.03,.31-.08,.61-.13,.89h5.41v1.07h-5.69c-.63,1.75-2.06,2.89-5.62,3.46-.09-.34-.39-.85-.63-1.13,2.95-.4,4.23-1.16,4.84-2.33h-4.3v-1.07h4.68c.05-.28,.11-.57,.15-.89h-5.12v-1.11h5.27v-.96h-4.07v-1.07h4.07v-.92h-4.83v-1.11h2.71c-.22-.44-.58-1-.9-1.4l1.09-.43c.46,.49,.92,1.16,1.11,1.63l-.44,.2h3.29c.36-.54,.82-1.29,1.05-1.83l1.33,.36c-.31,.5-.67,1.04-1,1.47h2.75v1.11h-4.87v.92h4.22v1.07h-4.22v.96h5.43v1.11h-5.57Zm4.99,5.5c-1.2-.78-3.61-1.9-5.42-2.6l.55-.94c1.77,.63,4.22,1.7,5.45,2.44l-.58,1.11Z"/><path class="cls-2" d="M191.51,59.66v1.05h-1.15v-8.92h3.73v7.87h-2.59Zm0-1.21h1.44v-5.45h-1.44v5.45Zm7.77-1.35c.73,1.62,1.9,3.18,3.11,4.04-.31,.23-.71,.7-.94,1.02-.94-.82-1.86-2.1-2.57-3.49v4.27h-1.27v-4.3c-.84,1.47-1.93,2.74-3.15,3.52-.19-.3-.57-.74-.85-.97,1.47-.81,2.82-2.41,3.61-4.1h-2.7v-1.2h3.09v-2h-2.6v-1.2h2.6v-2.02h1.27v2.02h2.86v1.2h-2.86v2h3.34v1.2h-2.94Z"/><path class="cls-2" d="M220.84,54.21c-.31,.31-.63,.59-.98,.88-.2-.27-.61-.65-.89-.82,1.48-1.09,2.55-2.53,3.14-3.69l1.29,.24c-.22,.38-.44,.77-.71,1.15h2.56c-.15-.35-.34-.77-.51-1.09l1.17-.34c.26,.43,.54,1,.7,1.43h3.91v.98h-4.23v.75h3.65v.85h-3.65v.73h3.68v.86h-3.68v.77h4.61v.98h-8.82v.38h-1.24v-4.06Zm3.06,6.57c-.93,.74-2.63,1.46-4.02,1.78-.18-.3-.53-.73-.77-.97,1.38-.2,3.01-.7,3.84-1.27l.94,.46Zm7.36-1.94v1.01h-5.39v3.09h-1.24v-3.09h-5.34v-1.01h5.34v-.82h1.24v.82h5.39Zm-6.17-5.89h-3.01v.76h3.01v-.76Zm0,1.6h-3.01v.73h3.01v-.73Zm0,1.59h-3.01v.77h3.01v-.77Zm2.14,4.09c1.24,.39,3.02,1.01,3.96,1.42l-.74,.88c-.89-.4-2.66-1.08-3.94-1.52l.71-.77Z"/><path class="cls-2" d="M259.35,51.13v11.8h-1.2v-.63h-8.66v.69h-1.15v-11.85h11Zm-1.2,.97h-8.66v9.21h8.66v-9.21Zm-.38,7.13h-1.83v1.08c0,.44-.11,.59-.43,.69-.34,.11-.84,.11-1.62,.11-.04-.23-.16-.47-.27-.67,.46,.01,.94,.01,1.08,.01,.15-.01,.19-.05,.19-.18v-1.04h-5v-.73h5v-.44h1.05v.44h1.83v.73Zm-1.5-2.43c.49,.36,1.01,.86,1.29,1.19l-.67,.51c-.13-.18-.32-.36-.53-.57-2.29,.07-4.6,.13-6.26,.18l-.05-.73c.89,0,2-.01,3.2-.03v-.55h-2.76v-2.71h2.76v-.49h-3.22v-.74h3.22v-.55h1.04v.55h3.29v.74h-3.29v.49h2.87v2.71h-.89Zm-3.99,4.09c-.22-.36-.66-.89-1.06-1.25l.8-.4c.4,.35,.89,.85,1.11,1.2l-.84,.46Zm-.81-5.73h1.78v-.5h-1.78v.5Zm1.78,.55h-1.78v.51h1.78v-.51Zm1.04-.55h1.86v-.5h-1.86v.5Zm1.86,.55h-1.86v.51h1.86v-.51Zm-.44,1.62c-.08-.07-.16-.13-.24-.2l.5-.32h-1.67v.55l1.42-.03Z"/><path class="cls-2" d="M111.98,38.48c-.34-1.31-1.18-2.27-2.84-2.27-2.44,0-3.47,2.16-3.47,4.35s1.02,4.35,3.47,4.35c1.77,0,2.75-1.33,2.91-2.99h1.95c-.16,2.73-2.09,4.62-4.86,4.62-3.42,0-5.46-2.72-5.46-5.97s2.04-5.97,5.46-5.97c2.57,.02,4.6,1.44,4.84,3.9h-2Z"/><path class="cls-2" d="M119.66,34.85h2.12l4.39,11.41h-2.14l-1.07-3.02h-4.55l-1.07,3.02h-2.06l4.38-11.41Zm-.7,6.87h3.48l-1.71-4.9h-.05l-1.73,4.9Z"/><polygon class="cls-2" points="125.51 34.85 134.74 34.85 134.74 36.58 131.12 36.58 131.12 46.26 129.12 46.26 129.12 36.58 125.51 36.58 125.51 34.85"/><polygon class="cls-2" points="136.87 34.85 145.08 34.85 145.08 36.58 138.86 36.58 138.86 39.56 144.62 39.56 144.62 41.19 138.86 41.19 138.86 44.53 145.19 44.53 145.19 46.26 136.87 46.26 136.87 34.85"/><path class="cls-2" d="M147.73,34.85h5.45c2.49,0,3.77,1.15,3.77,3.08,0,2.19-1.52,2.75-1.89,2.88v.03c.69,.1,1.69,.61,1.69,2.41,0,1.33,.19,2.54,.62,3h-2.14c-.3-.5-.3-1.12-.3-1.68,0-2.09-.43-3.02-2.27-3.02h-2.94v4.7h-2v-11.41Zm2,5.19h3.27c1.26,0,1.95-.62,1.95-1.82,0-1.45-.94-1.74-1.98-1.74h-3.24v3.56Z"/><rect class="cls-2" x="159.78" y="34.85" width="2" height="11.41"/><polygon class="cls-2" points="164.94 34.85 167.04 34.85 172.25 43.25 172.28 43.25 172.28 34.85 174.18 34.85 174.18 46.26 172.08 46.26 166.88 37.87 166.84 37.87 166.84 46.26 164.94 46.26 164.94 34.85"/><path class="cls-2" d="M187.3,46.26h-1.28l-.3-1.34c-1.07,1.21-2.05,1.61-3.43,1.61-3.42,0-5.46-2.72-5.46-5.97s2.04-5.97,5.46-5.97c2.49,0,4.58,1.33,4.89,3.9h-1.95c-.19-1.5-1.5-2.27-2.94-2.27-2.44,0-3.47,2.16-3.47,4.35s1.02,4.35,3.47,4.35c2.04,.03,3.16-1.2,3.19-3.13h-3.04v-1.52h4.86v6.01Z"/><path class="cls-2" d="M210.7,46.26h-1.28l-.3-1.34c-1.07,1.21-2.05,1.61-3.43,1.61-3.42,0-5.46-2.72-5.46-5.97s2.04-5.97,5.46-5.97c2.49,0,4.58,1.33,4.89,3.9h-1.95c-.19-1.5-1.5-2.27-2.94-2.27-2.44,0-3.47,2.16-3.47,4.35s1.02,4.35,3.47,4.35c2.04,.03,3.16-1.2,3.19-3.13h-3.04v-1.52h4.86v6.01Z"/><path class="cls-2" d="M213.67,34.85h5.45c2.49,0,3.77,1.15,3.77,3.08,0,2.19-1.52,2.75-1.89,2.88v.03c.69,.1,1.69,.61,1.69,2.41,0,1.33,.19,2.54,.62,3h-2.14c-.3-.5-.3-1.12-.3-1.68,0-2.09-.43-3.02-2.27-3.02h-2.94v4.7h-2v-11.41Zm2,5.19h3.27c1.26,0,1.95-.62,1.95-1.82,0-1.45-.94-1.74-1.98-1.74h-3.24v3.56Z"/><path class="cls-2" d="M236.04,40.55c0,3.26-2.05,5.97-5.46,5.97s-5.46-2.72-5.46-5.97,2.05-5.97,5.46-5.97,5.46,2.72,5.46,5.97m-8.93,0c0,2.19,1.02,4.35,3.47,4.35s3.47-2.16,3.47-4.35-1.02-4.35-3.47-4.35-3.47,2.16-3.47,4.35"/><path class="cls-2" d="M238.53,34.85h2v6.65c0,1.53,.1,3.31,2.68,3.31s2.68-1.77,2.68-3.31v-6.65h2v7.3c0,2.92-1.87,4.38-4.68,4.38s-4.68-1.45-4.68-4.38v-7.3Z"/><path class="cls-2" d="M250.99,34.85h5.03c3.26,0,3.88,2.11,3.88,3.53s-.62,3.51-3.88,3.5h-3.04v4.38h-2v-11.41Zm2,5.4h2.92c.89,0,2-.45,2-1.88s-.91-1.89-1.96-1.89h-2.96v3.77Z"/></g></g></svg>